<svg width="80" height="80" viewBox="0 0 80 80" fill="none" xmlns="http://www.w3.org/2000/svg">
<circle cx="40" cy="40" r="40" fill="#FDFCFC"/>
<path d="M58.6799 11.659C57.9348 10.8613 56.9335 10.7822 56.0675 11.4524C54.6618 12.5397 50.3847 15.848 43.7659 13.6978C38.4237 11.962 34.247 11.5876 30.9969 12.5525C27.9152 13.4676 25.6927 15.6297 24.3871 18.982C21.1021 21.2033 19.6152 24.7543 20.0848 29.2714C20.4506 32.7911 21.9253 36.1759 23.0769 38.0049C23.327 38.4021 23.8515 38.521 24.2486 38.2712C24.5048 38.1099 24.6445 37.8342 24.6447 37.5522H52.0103C52.0105 37.8342 52.1502 38.1099 52.4064 38.2712C52.547 38.3598 52.7036 38.402 52.8583 38.402C53.1405 38.402 53.4166 38.2614 53.578 38.0049C54.8038 36.058 56.5184 31.3448 56.5967 26.8075C59.1413 23.7959 59.8151 20.2054 59.9892 18.303C60.2552 15.4029 59.741 12.7951 58.6799 11.659Z" fill="#3D5868"/>
<path d="M58.6801 11.659C57.935 10.8613 56.9337 10.7822 56.0676 11.4524C55.8533 11.6181 55.5719 11.8357 55.2258 12.0776C56.0648 13.3621 56.4488 15.7158 56.2121 18.303C56.0379 20.2055 55.364 23.7959 52.8196 26.8075C52.7467 31.0254 51.26 35.3938 50.0664 37.5522H52.0108C52.011 37.8342 52.1507 38.1099 52.407 38.2712C52.5476 38.3598 52.7041 38.402 52.8589 38.402C53.141 38.402 53.4171 38.2614 53.5786 38.0049C54.8043 36.058 56.519 31.3448 56.5972 26.8075C59.1418 23.7959 59.8156 20.2054 59.9898 18.303C60.2554 15.4029 59.7412 12.7951 58.6801 11.659Z" fill="#2A434F"/>
<path d="M44.632 51.3223H32.6405C27.4647 51.3223 23.2539 55.5332 23.2539 60.709V68.1508C23.2539 68.6201 23.6342 69.0005 24.1035 69.0005H53.1692C53.6385 69.0005 54.0188 68.6201 54.0188 68.1508V60.7089C54.0187 55.533 49.8078 51.3223 44.632 51.3223Z" fill="#F0EEEE"/>
<path d="M44.6298 51.3223H41.7695C46.9454 51.3223 51.1561 55.5332 51.1561 60.709V68.1508C51.1561 68.6201 50.7758 69.0005 50.3065 69.0005H53.1668C53.6362 69.0005 54.0164 68.6201 54.0164 68.1508V60.7089C54.0166 55.533 49.8057 51.3223 44.6298 51.3223Z" fill="#D9D4D4"/>
<path d="M43.4044 52.1719H33.8672V69.001H43.4044V52.1719Z" fill="#49B6F2"/>
<path d="M38.6328 53.0163V57.189L43.4015 60.5066V52.1738L38.6328 53.0163Z" fill="#68C8FC"/>
<path d="M33.8633 60.5066L38.632 57.189V53.0163L33.8633 52.1738V60.5066Z" fill="#68C8FC"/>
<path d="M48.3474 61.2133C47.878 61.2133 47.4977 60.8329 47.4977 60.3637V56.2665C47.4977 51.535 43.6484 47.6856 38.9169 47.6856C34.1854 47.6856 30.336 51.5349 30.336 56.2665V59.795C30.336 60.2642 29.9557 60.6446 29.4863 60.6446C29.017 60.6446 28.6367 60.2642 28.6367 59.795V56.2665C28.6367 50.598 33.2483 45.9863 38.9168 45.9863C44.5853 45.9863 49.197 50.598 49.197 56.2665V60.3637C49.197 60.8329 48.8166 61.2133 48.3474 61.2133Z" fill="#19303F"/>
<path d="M33.8711 41.332V51.603C33.8711 54.2367 36.0062 56.3717 38.6398 56.3717C41.2735 56.3717 43.4085 54.2367 43.4085 51.603V41.332H33.8711Z" fill="#FA9E3E"/>
<path d="M23.8939 36.375H29.4865V42.7879H23.8939C22.123 42.7879 20.6875 41.3524 20.6875 39.5815C20.6875 37.8106 22.1229 36.375 23.8939 36.375Z" fill="#FA9E3E"/>
<path d="M53.3817 36.375H47.7891V42.7879H53.3817C55.1525 42.7879 56.5881 41.3524 56.5881 39.5815C56.5881 37.8106 55.1525 36.375 53.3817 36.375Z" fill="#FA9E3E"/>
<path d="M51.3375 29.8216V36.9953C51.3375 44.0148 45.7008 49.8094 38.6814 49.8331C31.6468 49.8569 25.9375 44.1611 25.9375 37.1332V32.1714C25.9375 32.0708 25.9977 31.9811 26.0892 31.9393C29.1622 30.5358 30.1877 26.8943 30.4586 24.287C30.5163 23.7246 30.539 23.2106 30.5398 22.7774C30.5402 22.5435 30.8287 22.435 30.9843 22.6094C31.3423 23.0104 31.8987 23.6035 32.6268 24.2869C35.9834 27.4401 42.988 32.521 50.9971 29.5821C51.1624 29.5215 51.3375 29.6454 51.3375 29.8216Z" fill="#FFB56B"/>
<path d="M38.6362 43.6809C37.1076 43.6809 35.6748 42.9297 34.8035 41.6713C34.5364 41.2856 34.6326 40.7563 35.0183 40.4891C35.4038 40.222 35.9334 40.3181 36.2006 40.7039C36.7546 41.504 37.6651 41.9816 38.6363 41.9816C39.6075 41.9816 40.5179 41.504 41.072 40.7039C41.3391 40.3181 41.8683 40.222 42.2541 40.4891C42.6398 40.7562 42.7361 41.2855 42.469 41.6713C41.5974 42.9297 40.1647 43.6809 38.6362 43.6809Z" fill="#19303F"/>
<path d="M48.6955 38.4549C48.6955 44.5243 43.9434 49.4833 37.957 49.8155H37.9573C38.0693 49.8214 38.1818 49.8259 38.2945 49.829C38.2952 49.829 38.2959 49.8291 38.2967 49.8291C38.4102 49.8321 38.524 49.8337 38.6382 49.8337C38.96 49.8337 39.2791 49.8215 39.5949 49.798C39.6112 49.7968 39.6276 49.7954 39.6439 49.7942C39.837 49.779 40.0288 49.7595 40.2193 49.7358C46.4874 48.9574 51.3381 43.6116 51.3381 37.1337V29.4531C50.444 29.8056 49.5619 30.0569 48.6955 30.221V38.4548V38.4549Z" fill="#EF9245"/>
<path d="M44.7871 37.3926C44.3178 37.3926 43.9375 37.0122 43.9375 36.543V36.3164C43.9375 35.8472 44.3178 35.4668 44.7871 35.4668C45.2565 35.4668 45.6368 35.8472 45.6368 36.3164V36.543C45.6368 37.0122 45.2565 37.3926 44.7871 37.3926Z" fill="#19303F"/>
<path d="M32.4785 37.3926C32.0092 37.3926 31.6289 37.0122 31.6289 36.543V36.3164C31.6289 35.8472 32.0092 35.4668 32.4785 35.4668C32.9479 35.4668 33.3282 35.8472 33.3282 36.3164V36.543C33.3282 37.0122 32.9478 37.3926 32.4785 37.3926Z" fill="#19303F"/>
<path d="M29.4837 58.9453C28.1121 58.9453 26.9961 60.0613 26.9961 61.4328C26.9961 62.8043 28.1121 63.9203 29.4837 63.9203C30.8553 63.9203 31.9713 62.8043 31.9713 61.4328C31.9712 60.0613 30.8552 58.9453 29.4837 58.9453Z" fill="#78D6D1"/>
<path d="M38.6347 57.1875L36.082 58.9632C36.7262 59.6338 37.6313 60.0519 38.6347 60.0519C39.638 60.0519 40.543 59.6339 41.1873 58.9632L38.6347 57.1875Z" fill="#304A56"/>
<path d="M38.6358 60.0538C38.2651 60.0538 37.9079 59.9963 37.5724 59.8906L36.3984 69.003H40.873L39.6991 59.8906C39.3635 59.9963 39.0065 60.0538 38.6358 60.0538Z" fill="#3D5868"/>
<path d="M50.5962 66.629H50.184C49.7146 66.629 49.3343 66.2486 49.3343 65.7793C49.3343 65.4701 49.4995 65.1994 49.7466 65.0508V62.6171C49.7466 61.8437 49.1174 61.2147 48.344 61.2147C47.5706 61.2147 46.9414 61.8438 46.9414 62.6171V65.0508C47.1885 65.1994 47.3537 65.4701 47.3537 65.7793C47.3537 66.2486 46.9734 66.629 46.5041 66.629H46.0918C45.6225 66.629 45.2422 66.2486 45.2422 65.7793V62.6172C45.2422 60.9069 46.6337 59.5156 48.3439 59.5156C50.0543 59.5156 51.4456 60.9071 51.4456 62.6172V65.7793C51.4457 66.2486 51.0653 66.629 50.5962 66.629Z" fill="#3D5868"/>
</svg>
