<svg width="80" height="80" viewBox="0 0 80 80" fill="none" xmlns="http://www.w3.org/2000/svg">
<circle cx="40" cy="40" r="40" fill="#FDFCFC"/>
<path d="M39.5985 15.8535H63.9678V65.0146H16.0312V15.8535H22.6326" fill="#ECEDF2"/>
<path d="M39.5985 15.8535H63.9678V20.9079H16.0312V15.8535H22.6326" fill="#C6CAD5"/>
<path d="M33.0657 17.7649H63.9683H66.1209C66.6064 17.7649 67 17.3714 67 16.8858V14.8166C67 14.3311 66.6065 13.9375 66.1209 13.9375H35.3318H26.899H13.8791C13.3936 13.9375 13 14.331 13 14.8166V16.8859C13 17.3714 13.3935 17.765 13.8791 17.765H16.0317H27.6574" fill="#525C66"/>
<path d="M31.1152 33.9648C36.6003 33.9648 41.0469 29.5183 41.0469 24.0332C41.0469 18.5481 36.6003 14.1016 31.1152 14.1016C25.6301 14.1016 21.1836 18.5481 21.1836 24.0332C21.1836 29.5183 25.6301 33.9648 31.1152 33.9648Z" fill="#C6CAD5"/>
<path d="M31.1152 32.8633C36.6003 32.8633 41.0469 28.4167 41.0469 22.9316C41.0469 17.4465 36.6003 13 31.1152 13C25.6301 13 21.1836 17.4465 21.1836 22.9316C21.1836 28.4167 25.6301 32.8633 31.1152 32.8633Z" fill="white"/>
<path d="M36.9184 20.9792H33.5081C33.2653 20.9792 33.0684 20.7824 33.0684 20.5395V17.1292C33.0684 16.8864 32.8716 16.6895 32.6287 16.6895H29.6084C29.3656 16.6895 29.1687 16.8863 29.1687 17.1292V20.5396C29.1687 20.7824 28.9719 20.9793 28.729 20.9793H25.3186C25.0758 20.9793 24.8789 21.1761 24.8789 21.419V24.4393C24.8789 24.6821 25.0757 24.879 25.3186 24.879H28.729C28.9718 24.879 29.1687 25.0758 29.1687 25.3187V28.7291C29.1687 28.9719 29.3655 29.1688 29.6084 29.1688H32.6287C32.8715 29.1688 33.0684 28.972 33.0684 28.7291V25.3187C33.0684 25.076 33.2652 24.879 33.5081 24.879H36.9184C37.1612 24.879 37.3581 24.6822 37.3581 24.4393V21.419C37.3581 21.1761 37.1613 20.9792 36.9184 20.9792Z" fill="#D81616"/>
<path d="M51.5467 36.2012H46.1758V46.0088H51.5467V36.2012Z" fill="#A0D9F2"/>
<path d="M33.828 36.2012H28.457V46.0088H33.828V36.2012Z" fill="#A0D9F2"/>
<path d="M60.4022 36.2012H55.0312V46.0088H60.4022V36.2012Z" fill="#A0D9F2"/>
<path d="M42.6873 36.2012H37.3164V46.0088H42.6873V36.2012Z" fill="#A0D9F2"/>
<path d="M24.9725 36.2012H19.6016V46.0088H24.9725V36.2012Z" fill="#A0D9F2"/>
<path d="M33.828 49.3398H28.457V59.1474H33.828V49.3398Z" fill="#A0D9F2"/>
<path d="M42.6873 49.3398H37.3164V59.1474H42.6873V49.3398Z" fill="#A0D9F2"/>
<path d="M24.9725 49.3398H19.6016V59.1474H24.9725V49.3398Z" fill="#A0D9F2"/>
<path d="M51.5467 23.0586H46.1758V32.8662H51.5467V23.0586Z" fill="#A0D9F2"/>
<path d="M60.4022 23.0586H55.0312V32.8662H60.4022V23.0586Z" fill="#A0D9F2"/>
<path d="M51.5399 46.669H46.169C45.8039 46.669 45.5078 46.3729 45.5078 46.0078V36.2002C45.5078 35.8351 45.804 35.5391 46.169 35.5391H51.5399C51.9051 35.5391 52.2011 35.8352 52.2011 36.2002V46.0078C52.2011 46.373 51.905 46.669 51.5399 46.669ZM46.8302 45.3466H50.8786V36.8614H46.8302V45.3466Z" fill="white"/>
<path d="M33.8212 46.669H28.4502C28.0851 46.669 27.7891 46.3729 27.7891 46.0078V36.2002C27.7891 35.8351 28.0852 35.5391 28.4502 35.5391H33.8212C34.1863 35.5391 34.4824 35.8352 34.4824 36.2002V46.0078C34.4824 46.373 34.1862 46.669 33.8212 46.669ZM29.1114 45.3466H33.1599V36.8614H29.1114V45.3466Z" fill="white"/>
<path d="M60.3954 46.669H55.0245C54.6593 46.669 54.3633 46.3729 54.3633 46.0078V36.2002C54.3633 35.8351 54.6594 35.5391 55.0245 35.5391H60.3954C60.7605 35.5391 61.0566 35.8352 61.0566 36.2002V46.0078C61.0566 46.373 60.7605 46.669 60.3954 46.669ZM55.6857 45.3466H59.7341V36.8614H55.6857V45.3466Z" fill="white"/>
<path d="M42.6805 46.669H37.3096C36.9445 46.669 36.6484 46.3729 36.6484 46.0078V36.2002C36.6484 35.8351 36.9446 35.5391 37.3096 35.5391H42.6805C43.0457 35.5391 43.3417 35.8352 43.3417 36.2002V46.0078C43.3417 46.373 43.0456 46.669 42.6805 46.669ZM37.9708 45.3466H42.0193V36.8614H37.9708V45.3466Z" fill="white"/>
<path d="M24.9656 46.669H19.5948C19.2296 46.669 18.9336 46.3729 18.9336 46.0078V36.2002C18.9336 35.8351 19.2298 35.5391 19.5948 35.5391H24.9657C25.3308 35.5391 25.6269 35.8352 25.6269 36.2002V46.0078C25.6269 46.373 25.3308 46.669 24.9656 46.669ZM20.256 45.3466H24.3044V36.8614H20.256V45.3466Z" fill="white"/>
<path d="M60.4 49.3457H46.1719V63.1073L60.4 64.2095V49.3457Z" fill="#A0D9F2"/>
<path d="M61.0584 63.6536H59.7359V50.0021H46.8303V63.6536H45.5078V49.3409C45.5078 48.9757 45.804 48.6797 46.169 48.6797H60.3971C60.7623 48.6797 61.0583 48.9758 61.0583 49.3409L61.0584 63.6536Z" fill="white"/>
<path d="M33.8212 59.8097H28.4502C28.0851 59.8097 27.7891 59.5135 27.7891 59.1485V49.3409C27.7891 48.9757 28.0852 48.6797 28.4502 48.6797H33.8212C34.1863 48.6797 34.4824 48.9758 34.4824 49.3409V59.1485C34.4824 59.5135 34.1862 59.8097 33.8212 59.8097ZM29.1114 58.4872H33.1599V50.0021H29.1114V58.4872Z" fill="white"/>
<path d="M42.6805 59.8097H37.3096C36.9445 59.8097 36.6484 59.5135 36.6484 59.1485V49.3409C36.6484 48.9757 36.9446 48.6797 37.3096 48.6797H42.6805C43.0457 48.6797 43.3417 48.9758 43.3417 49.3409V59.1485C43.3417 59.5135 43.0456 59.8097 42.6805 59.8097ZM37.9708 58.4872H42.0193V50.0021H37.9708V58.4872Z" fill="white"/>
<path d="M24.9656 59.8097H19.5948C19.2296 59.8097 18.9336 59.5135 18.9336 59.1485V49.3409C18.9336 48.9757 19.2298 48.6797 19.5948 48.6797H24.9657C25.3308 48.6797 25.6269 48.9758 25.6269 49.3409V59.1485C25.6269 59.5135 25.3308 59.8097 24.9656 59.8097ZM20.256 58.4872H24.3044V50.0021H20.256V58.4872Z" fill="white"/>
<path d="M51.5399 33.5286H46.169C45.8039 33.5286 45.5078 33.2325 45.5078 32.8674V23.0596C45.5078 22.6945 45.804 22.3984 46.169 22.3984H51.5399C51.9051 22.3984 52.2011 22.6946 52.2011 23.0596V32.8672C52.2011 33.2325 51.905 33.5286 51.5399 33.5286ZM46.8302 32.2061H50.8786V23.7209H46.8302V32.2061Z" fill="white"/>
<path d="M60.3954 33.5286H55.0245C54.6593 33.5286 54.3633 33.2325 54.3633 32.8674V23.0596C54.3633 22.6945 54.6594 22.3984 55.0245 22.3984H60.3954C60.7605 22.3984 61.0566 22.6946 61.0566 23.0596V32.8672C61.0566 33.2325 60.7605 33.5286 60.3954 33.5286ZM55.6857 32.2061H59.7341V23.7209H55.6857V32.2061Z" fill="white"/>
<path d="M60.3964 52.041H46.168V53.3635H60.3964V52.041Z" fill="white"/>
<path d="M53.9436 52.7012H52.6211V64.2031H53.9436V52.7012Z" fill="white"/>
<path d="M33.8245 51.8223H28.4531V53.1447H33.8245V51.8223Z" fill="white"/>
<path d="M42.6838 53.1428H37.3125V51.8203H42.0227V49.3418H43.3451V52.4815C43.345 52.8468 43.049 53.1428 42.6838 53.1428Z" fill="white"/>
<path d="M24.964 51.8223H19.5938V53.1447H24.964V51.8223Z" fill="white"/>
<path d="M60.3976 40.0013H55.0273V38.6788H59.7363V36.1992H61.0588V39.34C61.0589 39.7051 60.7629 40.0013 60.3976 40.0013Z" fill="white"/>
<path d="M42.6838 38.6797H37.3125V40.0022H42.6838V38.6797Z" fill="white"/>
<path d="M24.964 38.6797H19.5938V40.0022H24.964V38.6797Z" fill="white"/>
<path d="M33.8245 38.6797H28.4531V40.0022H33.8245V38.6797Z" fill="white"/>
<path d="M51.5393 38.6797H46.168V40.0022H51.5393V38.6797Z" fill="white"/>
<path d="M60.3976 26.8587H55.0273V25.5362H59.7363V23.0566H61.0588V26.1974C61.0589 26.5627 60.7629 26.8587 60.3976 26.8587Z" fill="white"/>
<path d="M51.5393 25.5371H46.168V26.8596H51.5393V25.5371Z" fill="white"/>
<path d="M65.3834 63.1035H14.6166C13.7238 63.1035 13 63.8274 13 64.72V66.9309H67V64.72C67 63.8274 66.2762 63.1035 65.3834 63.1035Z" fill="#423E3E"/>
</svg>
