<svg width="80" height="80" viewBox="0 0 80 80" fill="none" xmlns="http://www.w3.org/2000/svg">
<circle cx="40" cy="40" r="40" fill="#FDFCFC"/>
<path d="M64.3818 45.1921C64.3818 52.0714 58.7855 57.6677 51.9062 57.6677V20.4551L61.6268 35.7294C63.4285 38.5624 64.3818 41.8341 64.3818 45.1921Z" fill="#C40048"/>
<path d="M51.9092 20.4551V57.6677C45.0299 57.6677 39.4336 52.0714 39.4336 45.1921C39.4336 41.8341 40.3869 38.5624 42.1886 35.7294L51.9092 20.4551Z" fill="#FF4A4A"/>
<path d="M33.7161 21.7969V31.1536L25.95 33.1892L25.9188 33.1809L24.3594 21.7969H33.7161Z" fill="#C40048"/>
<path d="M25.9183 21.7969V33.1809L18.1211 31.1536V21.7969H25.9183Z" fill="#FF4A4A"/>
<path d="M33.7161 49.868V59.2247C33.7161 63.5247 30.2177 67.022 25.9188 67.022L24.3594 48.3668L26.2224 48.3086L33.7161 49.868Z" fill="#C40048"/>
<path d="M25.9183 48.3652V67.0204C21.6195 67.0204 18.1211 63.5231 18.1211 59.2232V49.8665L25.9183 48.3652Z" fill="#FF4A4A"/>
<path d="M25.9498 49.8677H18.1211V31.1543H25.9498L27.4778 40.615L25.9498 49.8677Z" fill="#F7F9FA"/>
<path d="M25.9492 31.1543H33.778V49.8677H25.9492V31.1543Z" fill="#DCEAEC"/>
<path d="M25.9498 38.949H18.1211V35.8301H25.9498L26.3901 37.3895L25.9498 38.949Z" fill="#00EECF"/>
<path d="M18.1211 42.0684H24.3589V45.1873H18.1211V42.0684Z" fill="#00EECF"/>
<path d="M56.5846 43.1091V46.228H53.4657V49.3469H51.9062V39.9902H53.4657V43.1091H56.5846Z" fill="#DCEAEC"/>
<path d="M51.9049 39.9902V49.3469H50.3455V46.228H47.2266V43.1091H50.3455V39.9902H51.9049Z" fill="#F7F9FA"/>
<path d="M15 14H22.2774V23.3567H15V14Z" fill="#0A789B"/>
<path d="M22.2773 14H25.9476V23.3567H22.2773V14Z" fill="#0A617D"/>
<path d="M25.9141 14H29.5843V23.3567H25.9141V14Z" fill="#08475E"/>
<path d="M29.5586 14H36.836V23.3567H29.5586V14Z" fill="#05303D"/>
<path d="M25.9492 35.8301H27.4772V38.949H25.9492V35.8301Z" fill="#00B5BC"/>
</svg>
