<svg width="80" height="80" viewBox="0 0 80 80" fill="none" xmlns="http://www.w3.org/2000/svg">
<circle cx="40" cy="40" r="40" fill="#FDFCFC"/>
<path d="M65.3373 63.6762C66.7649 65.2832 65.7469 67.829 63.6052 68.0127C57.4701 68.5384 49.3471 68.8569 40.4353 68.8569C30.5706 68.8569 21.6729 68.4665 15.3687 67.8384C13.2529 67.6276 12.2379 65.1001 13.661 63.5203C13.6717 63.5084 13.6824 63.4966 13.6931 63.4846C20.0283 56.4462 29.2117 52.0215 39.4277 52.0215C49.5339 52.0215 58.6225 56.3464 64.9527 63.2501C65.082 63.3911 65.2103 63.533 65.3373 63.6762Z" fill="url(#paint0_linear)"/>
<path d="M65.3368 63.6761C65.2097 63.533 65.0815 63.391 64.9521 63.2501C58.6221 56.3463 49.5335 52.0215 39.4271 52.0215C34.985 52.0215 30.7383 52.8584 26.8359 54.3827C27.0082 55.1287 27.331 55.874 27.5818 56.6181C27.7871 57.2277 28.0685 57.7547 28.5854 58.1429L39.2974 68.8549C39.6753 68.8561 40.054 68.8568 40.4347 68.8568C49.3464 68.8568 57.4695 68.5383 63.6046 68.0125C65.7464 67.8289 66.7643 65.2831 65.3368 63.6761Z" fill="url(#paint1_linear)"/>
<path d="M23.9627 43.317C22.0827 43.317 20.5586 41.793 20.5586 39.9129V37.8885C20.5586 36.0085 22.0826 34.4844 23.9627 34.4844C25.8427 34.4844 27.3668 36.0084 27.3668 37.8885V39.913C27.3668 41.793 25.8427 43.317 23.9627 43.317Z" fill="url(#paint2_linear)"/>
<path d="M55.0369 43.317C53.1569 43.317 51.6328 41.793 51.6328 39.9129V37.8885C51.6328 36.0085 53.1568 34.4844 55.0369 34.4844C56.9169 34.4844 58.4411 36.0084 58.4411 37.8885V39.913C58.441 41.793 56.9169 43.317 55.0369 43.317Z" fill="url(#paint3_linear)"/>
<path d="M39.5023 59.7792C48.0078 59.7792 55.0048 53.0547 55.312 44.5547C55.4438 40.9103 55.4438 37.2634 55.312 33.6191C55.0047 25.1192 48.0078 18.3945 39.5023 18.3945C30.9968 18.3945 23.9998 25.1191 23.6926 33.619C23.5608 37.2634 23.5608 40.9103 23.6926 44.5546C23.9998 53.0546 30.9967 59.7792 39.5023 59.7792Z" fill="url(#paint4_linear)"/>
<path d="M34.721 36.6223C34.721 37.8817 33.7 38.9027 32.4405 38.9027C31.181 38.9027 30.1602 37.8817 30.1602 36.6223C30.1602 35.3628 31.1811 34.3418 32.4405 34.3418C33.7 34.3418 34.721 35.3628 34.721 36.6223Z" fill="url(#paint5_linear)"/>
<path d="M33.4623 34.582C33.6162 34.889 33.7028 35.2355 33.7028 35.6021C33.7028 36.8616 32.6818 37.8826 31.4224 37.8826C31.0558 37.8826 30.7093 37.7959 30.4023 37.6421C30.7767 38.3894 31.5495 38.9025 32.4422 38.9025C33.7017 38.9025 34.7227 37.8815 34.7227 36.622C34.7226 35.7292 34.2095 34.9564 33.4623 34.582Z" fill="url(#paint6_linear)"/>
<path d="M48.8381 36.6223C48.8381 37.8817 47.8172 38.9027 46.5577 38.9027C45.2982 38.9027 44.2773 37.8817 44.2773 36.6223C44.2773 35.3628 45.2983 34.3418 46.5577 34.3418C47.8172 34.3418 48.8381 35.3628 48.8381 36.6223Z" fill="url(#paint7_linear)"/>
<path d="M47.5795 34.582C47.7334 34.889 47.82 35.2355 47.82 35.6021C47.82 36.8616 46.799 37.8826 45.5396 37.8826C45.173 37.8826 44.8265 37.7959 44.5195 37.6421C44.8939 38.3894 45.6667 38.9025 46.5594 38.9025C47.8189 38.9025 48.8399 37.8815 48.8399 36.622C48.8399 35.7292 48.3268 34.9564 47.5795 34.582Z" fill="url(#paint8_linear)"/>
<path d="M23.7377 38.9124L24.0306 34.5428C24.1873 32.2044 25.5297 30.0825 27.5434 28.9403C28.5419 28.3739 29.6565 28.0766 30.7766 28.0766H39.3241C42.4297 28.0766 45.3788 26.8539 47.4909 24.7096L49.5496 28.001C50.0427 28.7893 50.7347 29.4467 51.5551 29.9035C53.2357 30.8392 54.3531 32.6028 54.4732 34.5437L54.6658 37.6592C54.7018 38.2423 55.1876 38.717 55.7504 38.717C56.2191 38.717 56.604 38.3843 56.6833 37.9123L58.0795 29.5914C58.4798 27.2063 58.579 24.8092 58.3843 22.453C58.0938 18.9371 54.6404 16.353 51.155 16.963C46.6917 12.9286 40.5825 11.2289 34.7045 12.3267L29.5942 13.2811C24.9613 14.1464 21.4079 18.0997 21.2655 22.7358L21.1136 27.679C21.045 29.9159 21.1538 32.1841 21.4445 34.4628L22.0356 39.0959C22.0884 39.5092 22.4161 39.806 22.8212 39.806C23.2943 39.8061 23.7046 39.4052 23.7377 38.9124Z" fill="url(#paint9_linear)"/>
<path d="M51.155 16.9629C46.6917 12.9286 40.5825 11.2289 34.7045 12.3267L29.5942 13.2811C24.9613 14.1464 21.4079 18.0997 21.2655 22.7358L21.1136 27.679C21.045 29.9159 21.1538 32.1841 21.4445 34.4628L22.0356 39.0959C22.0884 39.5092 22.4161 39.806 22.8212 39.806C23.2942 39.806 23.7046 39.4051 23.7376 38.9124L24.0305 34.5428C24.1872 32.2044 25.5296 30.0825 27.5433 28.9403C28.5418 28.3739 29.6564 28.0766 30.7766 28.0766H39.3241C42.4297 28.0766 45.3788 26.8539 47.4909 24.7096C47.491 24.7096 46.1799 19.2803 51.155 16.9629Z" fill="url(#paint10_linear)"/>
<path d="M55.3098 44.5534C55.3685 42.9311 55.3995 41.3083 55.4059 39.6855C54.1904 40.7713 52.6227 41.6655 50.6797 41.8331C50.6797 41.8331 52.3359 47.662 51.7213 54.0114C53.8529 51.426 55.18 48.1486 55.3098 44.5534Z" fill="url(#paint11_linear)"/>
<path d="M27.9204 54.5708C27.9179 54.5708 27.9157 54.5708 27.9134 54.5708C26.6529 54.5615 24.8597 53.8896 23.475 50.7411C23.2643 50.2621 23.4818 49.703 23.9608 49.4924C24.44 49.282 24.9989 49.4994 25.2095 49.9783C25.7485 51.2039 26.6576 52.6667 27.9273 52.676C28.4505 52.6798 28.8716 53.1072 28.8677 53.6304C28.8638 54.1511 28.4404 54.5708 27.9204 54.5708Z" fill="url(#paint12_linear)"/>
<path d="M28.7486 42.4314C28.7473 42.4314 28.7461 42.4314 28.7448 42.4314C26.0909 42.421 23.7384 41.3275 21.9417 39.2688C20.6073 37.7399 20.0481 36.2096 20.0249 36.1452C19.8478 35.6529 20.1035 35.1102 20.5959 34.9331C21.0872 34.7563 21.6291 35.0108 21.8071 35.5016C21.8118 35.5145 22.2926 36.8075 23.4108 38.0701C24.8529 39.6985 26.6501 40.5283 28.7522 40.5364C29.2754 40.5384 29.698 40.9643 29.6959 41.4875C29.6939 42.0096 29.27 42.4314 28.7486 42.4314Z" fill="url(#paint13_linear)"/>
<path d="M51.0839 54.5708H51.0911C52.3515 54.5615 54.1447 53.8896 55.5295 50.7411C55.7402 50.2621 55.5227 49.703 55.0436 49.4924C54.5644 49.282 54.0056 49.4994 53.795 49.9783C53.2559 51.2039 52.3469 52.6667 51.0771 52.676C50.5539 52.6798 50.1328 53.1072 50.1367 53.6304C50.1405 54.1511 50.564 54.5708 51.0839 54.5708Z" fill="url(#paint14_linear)"/>
<path d="M50.2559 42.4314H50.2597C52.9136 42.421 55.2661 41.3275 57.0628 39.2688C58.3972 37.7399 58.9564 36.2096 58.9796 36.1452C59.1566 35.6529 58.901 35.1102 58.4086 34.9331C57.9173 34.7563 57.3754 35.0108 57.1974 35.5016C57.1927 35.5145 56.7119 36.8075 55.5937 38.0701C54.1516 39.6985 52.3544 40.5283 50.2523 40.5364C49.7291 40.5384 49.3065 40.9643 49.3086 41.4875C49.3106 42.0096 49.7345 42.4314 50.2559 42.4314Z" fill="url(#paint15_linear)"/>
<path d="M40.4751 49.0152H38.5242C36.9608 49.0152 35.7427 47.6591 35.9099 46.1047L36.9299 36.623H42.0692L43.0892 46.1047C43.2565 47.6591 42.0385 49.0152 40.4751 49.0152Z" fill="url(#paint16_linear)"/>
<path d="M51.529 42.3124C51.1672 41.2387 50.225 40.4201 49.0453 40.1676C42.706 38.8113 36.2935 38.8113 29.9543 40.1676C28.7746 40.4201 27.8323 41.2387 27.4706 42.3124C25.8691 47.0654 25.8693 51.8682 27.4706 56.6206C27.8323 57.6943 28.7746 58.513 29.9543 58.7654C36.2935 60.1217 42.7059 60.1217 49.0453 58.7654C50.225 58.513 51.1672 57.6943 51.529 56.6207C53.1303 51.868 53.1305 47.0654 51.529 42.3124Z" fill="url(#paint17_linear)"/>
<path d="M51.529 42.3124C51.1672 41.2387 50.225 40.4201 49.0453 40.1676C42.706 38.8113 36.2935 38.8113 29.9543 40.1676C28.7746 40.4201 27.8323 41.2387 27.4706 42.3124C25.8691 47.0654 25.8693 51.8682 27.4706 56.6206C27.8323 57.6943 28.7746 58.513 29.9543 58.7654C36.2935 60.1217 42.7059 60.1217 49.0453 58.7654C50.225 58.513 51.1672 57.6943 51.529 56.6207C53.1303 51.868 53.1305 47.0654 51.529 42.3124Z" fill="url(#paint18_linear)"/>
<path d="M28.0241 42.4405C35.6462 40.8097 43.3564 40.8097 50.9786 42.4405C51.1717 42.4819 51.3596 42.5359 51.541 42.6016C51.7014 42.6597 51.8587 42.5071 51.8043 42.3453C51.8039 42.3438 51.8033 42.3424 51.8029 42.3409C51.4328 41.2429 50.4693 40.4058 49.263 40.1477C42.7802 38.7607 36.2225 38.7607 29.7398 40.1477C28.5335 40.4058 27.5699 41.2429 27.1999 42.3409C27.1995 42.3424 27.1989 42.3438 27.1985 42.3453C27.1441 42.5071 27.3014 42.6597 27.4618 42.6016C27.6432 42.5359 27.8309 42.4819 28.0241 42.4405Z" fill="url(#paint19_linear)"/>
<path d="M26.8984 54.6348C27.059 55.2965 27.2495 55.9578 27.4719 56.618C27.8337 57.6917 28.776 58.5104 29.9556 58.7628C36.2949 60.1191 42.7072 60.1191 49.0467 58.7628C50.2263 58.5104 51.1686 57.6917 51.5304 56.6181C51.7528 55.9579 51.9433 55.2968 52.1039 54.6349H26.8984V54.6348Z" fill="url(#paint20_linear)"/>
<path d="M49.0452 58.7639C50.2248 58.5115 51.1671 57.6928 51.5289 56.6192C52.7816 52.9011 53.0542 49.1525 52.3468 45.4209C43.8127 43.6566 35.1866 43.6566 26.6525 45.4209C25.9451 49.1525 26.2178 52.9012 27.4704 56.6192C27.8322 57.6929 28.7745 58.5116 29.9541 58.764C36.2935 60.1202 42.7058 60.1202 49.0452 58.7639Z" fill="url(#paint21_linear)"/>
<path d="M49.0437 58.7618C50.2233 58.5094 51.1656 57.6907 51.5273 56.6171C52.2756 54.3962 52.674 52.1644 52.7228 49.9318C43.9397 48.0617 35.0563 48.0618 26.2734 49.9318C26.3224 52.1644 26.7207 54.3962 27.469 56.6171C27.8308 57.6908 28.7731 58.5095 29.9527 58.7619C36.2919 60.1181 42.7043 60.1181 49.0437 58.7618Z" fill="url(#paint22_linear)"/>
<path d="M49.0462 58.7644C50.2259 58.512 51.1681 57.6934 51.5299 56.6198C51.7573 55.9447 51.952 55.2688 52.1148 54.592C43.7343 52.8912 35.267 52.8912 26.8867 54.592C27.0495 55.2687 27.2441 55.9447 27.4716 56.6198C27.8334 57.6935 28.7756 58.5121 29.9553 58.7646C36.2945 60.1208 42.7069 60.1208 49.0462 58.7644Z" fill="url(#paint23_linear)"/>
<defs>
<linearGradient id="paint0_linear" x1="39.4999" y1="60.2505" x2="39.4999" y2="69.1586" gradientUnits="userSpaceOnUse">
<stop stop-color="#FF637B"/>
<stop offset="1" stop-color="#E63950"/>
</linearGradient>
<linearGradient id="paint1_linear" x1="49.5884" y1="66.8444" x2="42.0046" y2="50.3579" gradientUnits="userSpaceOnUse">
<stop stop-color="#E63950" stop-opacity="0"/>
<stop offset="0.0467" stop-color="#E4354B" stop-opacity="0.047"/>
<stop offset="0.4669" stop-color="#D31822" stop-opacity="0.467"/>
<stop offset="0.7991" stop-color="#C90709" stop-opacity="0.799"/>
<stop offset="1" stop-color="#C50000"/>
</linearGradient>
<linearGradient id="paint2_linear" x1="23.1525" y1="38.0905" x2="26.3916" y2="41.3296" gradientUnits="userSpaceOnUse">
<stop stop-color="#FCE9CB"/>
<stop offset="1" stop-color="#FFBD95"/>
</linearGradient>
<linearGradient id="paint3_linear" x1="54.2267" y1="38.0905" x2="57.4658" y2="41.3296" gradientUnits="userSpaceOnUse">
<stop stop-color="#FCE9CB"/>
<stop offset="1" stop-color="#FFBD95"/>
</linearGradient>
<linearGradient id="paint4_linear" x1="31.8479" y1="26.9983" x2="45.5855" y2="48.6942" gradientUnits="userSpaceOnUse">
<stop stop-color="#FCE9CB"/>
<stop offset="1" stop-color="#FFBD95"/>
</linearGradient>
<linearGradient id="paint5_linear" x1="31.5874" y1="35.7689" x2="34.5409" y2="38.7224" gradientUnits="userSpaceOnUse">
<stop stop-color="#8A7889"/>
<stop offset="1" stop-color="#6E566E"/>
</linearGradient>
<linearGradient id="paint6_linear" x1="32.5214" y1="37.496" x2="35.6559" y2="31.6661" gradientUnits="userSpaceOnUse">
<stop stop-color="#6E566E" stop-opacity="0"/>
<stop offset="0.0471" stop-color="#6E566E" stop-opacity="0.047"/>
<stop offset="1" stop-color="#6E566E"/>
</linearGradient>
<linearGradient id="paint7_linear" x1="45.7045" y1="35.7689" x2="48.658" y2="38.7224" gradientUnits="userSpaceOnUse">
<stop stop-color="#8A7889"/>
<stop offset="1" stop-color="#6E566E"/>
</linearGradient>
<linearGradient id="paint8_linear" x1="46.6387" y1="37.496" x2="49.7732" y2="31.6661" gradientUnits="userSpaceOnUse">
<stop stop-color="#6E566E" stop-opacity="0"/>
<stop offset="0.0471" stop-color="#6E566E" stop-opacity="0.047"/>
<stop offset="1" stop-color="#6E566E"/>
</linearGradient>
<linearGradient id="paint9_linear" x1="35.3641" y1="25.6688" x2="47.6805" y2="36.1536" gradientUnits="userSpaceOnUse">
<stop stop-color="#8A7889"/>
<stop offset="1" stop-color="#6E566E"/>
</linearGradient>
<linearGradient id="paint10_linear" x1="32.2743" y1="20.7834" x2="39.4747" y2="32.9735" gradientUnits="userSpaceOnUse">
<stop stop-color="#6E566E" stop-opacity="0"/>
<stop offset="0.2944" stop-color="#674D66" stop-opacity="0.294"/>
<stop offset="1" stop-color="#593B56"/>
</linearGradient>
<linearGradient id="paint11_linear" x1="53.6815" y1="46.8833" x2="49.5128" y2="45.6516" gradientUnits="userSpaceOnUse">
<stop stop-color="#FAA68E" stop-opacity="0"/>
<stop offset="1" stop-color="#C9766E"/>
</linearGradient>
<linearGradient id="paint12_linear" x1="26.6206" y1="51.1035" x2="25.3415" y2="53.4247" gradientUnits="userSpaceOnUse">
<stop stop-color="#EDF5FF"/>
<stop offset="1" stop-color="#D5E8FE"/>
</linearGradient>
<linearGradient id="paint13_linear" x1="24.316" y1="39.3046" x2="23.037" y2="40.9153" gradientUnits="userSpaceOnUse">
<stop stop-color="#EDF5FF"/>
<stop offset="1" stop-color="#D5E8FE"/>
</linearGradient>
<linearGradient id="paint14_linear" x1="52.3839" y1="51.1035" x2="53.6628" y2="53.4247" gradientUnits="userSpaceOnUse">
<stop stop-color="#EDF5FF"/>
<stop offset="1" stop-color="#D5E8FE"/>
</linearGradient>
<linearGradient id="paint15_linear" x1="54.6885" y1="39.3046" x2="55.9676" y2="40.9153" gradientUnits="userSpaceOnUse">
<stop stop-color="#EDF5FF"/>
<stop offset="1" stop-color="#D5E8FE"/>
</linearGradient>
<linearGradient id="paint16_linear" x1="39.4997" y1="38.749" x2="39.4997" y2="62.5482" gradientUnits="userSpaceOnUse">
<stop stop-color="#FAA68E" stop-opacity="0"/>
<stop offset="1" stop-color="#C9766E"/>
</linearGradient>
<linearGradient id="paint17_linear" x1="36.9469" y1="44.8863" x2="41.1985" y2="52.514" gradientUnits="userSpaceOnUse">
<stop stop-color="#9AE1D3"/>
<stop offset="1" stop-color="#80D1C1"/>
</linearGradient>
<linearGradient id="paint18_linear" x1="39.4999" y1="43.2144" x2="39.4999" y2="40.0883" gradientUnits="userSpaceOnUse">
<stop stop-color="#0B799D" stop-opacity="0"/>
<stop offset="0.1739" stop-color="#117D9E" stop-opacity="0.174"/>
<stop offset="0.414" stop-color="#2389A0" stop-opacity="0.414"/>
<stop offset="0.6928" stop-color="#409CA3" stop-opacity="0.693"/>
<stop offset="0.9986" stop-color="#69B7A8" stop-opacity="0.999"/>
<stop offset="1" stop-color="#69B7A8"/>
</linearGradient>
<linearGradient id="paint19_linear" x1="39.5013" y1="39.2731" x2="39.5013" y2="41.3401" gradientUnits="userSpaceOnUse">
<stop stop-color="#EDF5FF"/>
<stop offset="1" stop-color="#D5E8FE"/>
</linearGradient>
<linearGradient id="paint20_linear" x1="39.5011" y1="56.8855" x2="39.5011" y2="60.5728" gradientUnits="userSpaceOnUse">
<stop stop-color="#0B799D" stop-opacity="0"/>
<stop offset="0.1739" stop-color="#117D9E" stop-opacity="0.174"/>
<stop offset="0.414" stop-color="#2389A0" stop-opacity="0.414"/>
<stop offset="0.6928" stop-color="#409CA3" stop-opacity="0.693"/>
<stop offset="0.9986" stop-color="#69B7A8" stop-opacity="0.999"/>
<stop offset="1" stop-color="#69B7A8"/>
</linearGradient>
<linearGradient id="paint21_linear" x1="39.4997" y1="47.9778" x2="39.4997" y2="39.3319" gradientUnits="userSpaceOnUse">
<stop stop-color="#0B799D" stop-opacity="0"/>
<stop offset="0.1739" stop-color="#117D9E" stop-opacity="0.174"/>
<stop offset="0.414" stop-color="#2389A0" stop-opacity="0.414"/>
<stop offset="0.6928" stop-color="#409CA3" stop-opacity="0.693"/>
<stop offset="0.9986" stop-color="#69B7A8" stop-opacity="0.999"/>
<stop offset="1" stop-color="#69B7A8"/>
</linearGradient>
<linearGradient id="paint22_linear" x1="39.4982" y1="51.3126" x2="39.4982" y2="45.1109" gradientUnits="userSpaceOnUse">
<stop stop-color="#0B799D" stop-opacity="0"/>
<stop offset="0.1739" stop-color="#117D9E" stop-opacity="0.174"/>
<stop offset="0.414" stop-color="#2389A0" stop-opacity="0.414"/>
<stop offset="0.6928" stop-color="#409CA3" stop-opacity="0.693"/>
<stop offset="0.9986" stop-color="#69B7A8" stop-opacity="0.999"/>
<stop offset="1" stop-color="#69B7A8"/>
</linearGradient>
<linearGradient id="paint23_linear" x1="39.5007" y1="54.916" x2="39.5007" y2="51.3519" gradientUnits="userSpaceOnUse">
<stop stop-color="#0B799D" stop-opacity="0"/>
<stop offset="0.1739" stop-color="#117D9E" stop-opacity="0.174"/>
<stop offset="0.414" stop-color="#2389A0" stop-opacity="0.414"/>
<stop offset="0.6928" stop-color="#409CA3" stop-opacity="0.693"/>
<stop offset="0.9986" stop-color="#69B7A8" stop-opacity="0.999"/>
<stop offset="1" stop-color="#69B7A8"/>
</linearGradient>
</defs>
</svg>
