<svg width="80" height="80" viewBox="0 0 80 80" fill="none" xmlns="http://www.w3.org/2000/svg">
<circle cx="40" cy="40" r="40" fill="#FDFCFC"/>
<path d="M52.9225 15.9958L58.2624 12.9319L56.5119 9.88086L49.3594 13.9848L50.3699 15.7461L49.4705 18.5945L58.3818 21.4086L59.441 18.0543L52.9225 15.9958Z" fill="#007A9E"/>
<path d="M39.5631 39.4297C37.6926 39.4297 35.8696 39.6325 34.1133 40.014L40.5012 51.7414L41.3219 44.7061L40.5012 39.4297H39.5631Z" fill="#FFD298"/>
<path d="M41.438 39.4297H40.5V51.7414L46.8132 39.9977C45.0798 39.6267 43.2821 39.4297 41.438 39.4297V39.4297Z" fill="#EDBA75"/>
<path d="M34.1115 40.0137C22.6131 42.5109 14 52.7442 14 64.9907H40.4994L42.9618 56.0794L40.4994 47.9888L34.1115 40.0137Z" fill="#00EECF"/>
<path d="M66.9994 64.9934C66.9994 52.7203 58.3491 42.4693 46.8132 40L40.5 47.9916V64.9934H66.9994Z" fill="#00B5BC"/>
<path d="M25.1406 53.1504H33.3484V56.668H25.1406V53.1504Z" fill="#00C6CE"/>
<path d="M48.5898 51.0371H52.1075V57.2516H48.5898V51.0371Z" fill="#007A9E"/>
<path d="M45.3047 55.7285H55.5058V59.2461H45.3047V55.7285Z" fill="#9DCFFF"/>
<path d="M40.4981 21.3639L35.4562 20.3184L29.9492 21.3639V28.8779C29.9492 30.1114 30.1616 31.2952 30.5505 32.3955L35.4562 33.4508L40.4981 32.3955L41.9051 27.0018L40.4981 21.3639Z" fill="#FFE3C1"/>
<path d="M30.5547 32.3945C32.003 36.4919 35.9093 39.428 40.5023 39.4297L42.0266 35.7949L40.5023 32.3945H30.5547Z" fill="#00EECF"/>
<path d="M40.5001 32.3961L45.7766 33.4513L50.4556 32.3961C50.8445 31.2958 51.0569 30.112 51.0569 28.8784V21.3644L45.8937 19.3809L40.5 21.3644V32.3961H40.5001Z" fill="#FFD298"/>
<path d="M40.5 39.4297C40.5013 39.4297 40.5026 39.4298 40.504 39.4298C45.0986 39.4298 49.0068 36.493 50.4556 32.3945H40.5001V39.4297H40.5Z" fill="#00B5BC"/>
<path d="M40.4982 10H38.7394L36.9806 10.5863L35.2218 10H35.2061C32.3029 10 29.9492 12.3535 29.9492 15.2569V21.364H35.2217L36.746 20.4357L38.7393 21.364H40.4981L42.0224 15.9801L40.4982 10Z" fill="#00EECF"/>
<path d="M45.8 10H45.7764L43.9004 10.938L42.2588 10H40.5V21.3639H42.2588L44.1349 20.5529L45.7764 21.3639H51.0569V15.2569C51.0569 12.3535 48.7033 10 45.8 10V10Z" fill="#00B5BC"/>
<path d="M35.2227 10H38.7403V21.3639H35.2227V10Z" fill="#00C6CE"/>
<path d="M42.2578 10H45.7754V21.3639H42.2578V10Z" fill="#007A9E"/>
</svg>
