<svg width="882" height="192" viewBox="0 0 882 192" fill="none" xmlns="http://www.w3.org/2000/svg">
<g clip-path="url(#clip0_1205_959)">
<path fill-rule="evenodd" clip-rule="evenodd" d="M67.59 157.028H74.154C80.0859 157.028 85.7747 154.596 90.0535 150.704C94.1864 146.909 97.0551 141.801 97.8331 136.157C101.674 97.48 105.564 58.7542 109.405 20.0283H102.841C96.9093 20.0283 91.2204 22.4608 86.9417 26.4015C82.6143 30.3422 79.6483 35.7425 79.0648 41.6778C75.2772 80.1604 71.436 118.594 67.59 157.028Z" fill="#0E4D92"/>
<path fill-rule="evenodd" clip-rule="evenodd" d="M118.21 20.0283L115.682 45.132H168.68L169.02 41.6778C169.604 35.7425 167.708 30.3422 164.158 26.4015C160.657 22.4608 155.455 20.0283 149.523 20.0283H122.246H118.21Z" fill="#027B7B"/>
<path fill-rule="evenodd" clip-rule="evenodd" d="M165.811 74.0791H112.813L109.896 103.026H141.257C147.238 103.026 152.878 100.594 157.157 96.653C161.484 92.7123 164.499 87.3121 165.082 81.3767L165.811 74.0791Z" fill="#027B7B"/>
<path fill-rule="evenodd" clip-rule="evenodd" d="M78.2884 74.0791H27.8703C21.9383 74.0791 16.2982 76.5116 11.9708 80.4037C7.64337 84.3444 4.62878 89.7446 4.04531 95.7286L3.31598 103.026H96.3727L78.2884 74.0791Z" fill="#0E4D92"/>
<path fill-rule="evenodd" clip-rule="evenodd" d="M75.8572 131.973H0.447333L0.106977 135.379C-0.476492 141.363 1.41978 146.763 4.96921 150.704C8.51865 154.596 13.6726 157.028 19.6045 157.028H46.8817H71.967L75.8572 131.973Z" fill="#0E4D92"/>
<path d="M0.486267 132.737L3.40385 102.131H29.1758L25.772 133.709L0.486267 132.737Z" fill="#0E4D92"/>
</g>
<path d="M214.823 38.378C229.938 38.378 241.31 41.9023 248.94 48.951C256.643 55.927 260.494 66.2093 260.494 79.798C260.494 93.4593 256.679 103.742 249.049 110.645C241.419 117.548 230.01 121 214.823 121H185.72V38.378H214.823ZM240.656 79.471C240.656 70.969 238.549 64.756 234.334 60.832C230.119 56.908 223.616 54.946 214.823 54.946H205.34V104.432H214.823C223.761 104.432 230.301 102.47 234.443 98.546C238.585 94.5493 240.656 88.191 240.656 79.471ZM301.127 122.853C294.006 122.853 287.974 121.436 283.033 118.602C278.092 115.695 274.349 111.771 271.806 106.83C269.335 101.889 268.1 96.3297 268.1 90.153C268.1 84.049 269.335 78.5263 271.806 73.585C274.349 68.6437 278.092 64.756 283.033 61.922C287.974 59.0153 294.006 57.562 301.127 57.562C308.176 57.562 314.171 59.0153 319.112 61.922C324.053 64.756 327.759 68.6437 330.23 73.585C332.701 78.5263 333.936 84.049 333.936 90.153C333.936 96.3297 332.701 101.889 330.23 106.83C327.759 111.771 324.053 115.695 319.112 118.602C314.171 121.436 308.176 122.853 301.127 122.853ZM301.127 106.721C305.414 106.721 308.648 105.304 310.828 102.47C313.081 99.636 314.207 95.5303 314.207 90.153C314.207 84.8483 313.081 80.779 310.828 77.945C308.648 75.111 305.414 73.694 301.127 73.694C296.767 73.694 293.461 75.111 291.208 77.945C288.955 80.779 287.829 84.8483 287.829 90.153C287.829 95.5303 288.955 99.636 291.208 102.47C293.461 105.304 296.767 106.721 301.127 106.721ZM372.939 122.853C362.766 122.78 354.991 119.91 349.613 114.242C344.236 108.501 341.547 100.435 341.547 90.044C341.547 79.7253 344.236 71.7683 349.613 66.173C354.991 60.505 362.766 57.6347 372.939 57.562C376.645 57.562 379.806 57.78 382.422 58.216C385.038 58.652 387.763 59.4513 390.597 60.614V77.836C387.909 76.528 385.365 75.6197 382.967 75.111C380.642 74.6023 378.026 74.348 375.119 74.348C370.251 74.4207 366.726 75.765 364.546 78.381C362.366 80.997 361.276 84.8483 361.276 89.935C361.276 95.167 362.33 99.1637 364.437 101.925C366.545 104.686 369.924 106.067 374.574 106.067C377.19 106.067 379.697 105.667 382.095 104.868C384.566 104.069 387.109 102.833 389.725 101.162L395.066 116.858C388.381 120.855 381.005 122.853 372.939 122.853ZM427.973 78.272V99.091C427.973 101.489 428.373 103.197 429.172 104.214C429.972 105.159 431.425 105.631 433.532 105.631C435.93 105.631 438.074 105.34 439.963 104.759V120.891C437.493 121.4 435.385 121.763 433.641 121.981C431.97 122.272 430.153 122.417 428.191 122.417C421.724 122.417 416.892 121 413.694 118.166C410.57 115.332 409.007 111.263 409.007 105.958V78.272H400.505V61.486H409.007V40.776H427.973V61.486H441.925V78.272H427.973ZM482.084 122.853C474.963 122.853 468.932 121.436 463.99 118.602C459.049 115.695 455.307 111.771 452.763 106.83C450.293 101.889 449.057 96.3297 449.057 90.153C449.057 84.049 450.293 78.5263 452.763 73.585C455.307 68.6437 459.049 64.756 463.99 61.922C468.932 59.0153 474.963 57.562 482.084 57.562C489.133 57.562 495.128 59.0153 500.069 61.922C505.011 64.756 508.717 68.6437 511.187 73.585C513.658 78.5263 514.893 84.049 514.893 90.153C514.893 96.3297 513.658 101.889 511.187 106.83C508.717 111.771 505.011 115.695 500.069 118.602C495.128 121.436 489.133 122.853 482.084 122.853ZM482.084 106.721C486.372 106.721 489.605 105.304 491.785 102.47C494.038 99.636 495.164 95.5303 495.164 90.153C495.164 84.8483 494.038 80.779 491.785 77.945C489.605 75.111 486.372 73.694 482.084 73.694C477.724 73.694 474.418 75.111 472.165 77.945C469.913 80.779 468.786 84.8483 468.786 90.153C468.786 95.5303 469.913 99.636 472.165 102.47C474.418 105.304 477.724 106.721 482.084 106.721ZM564.578 57.998V74.784H562.071C556.476 74.784 550.881 76.7823 545.285 80.779V121H526.319V59.306H545.285V64.756C547.974 62.5033 550.663 60.832 553.351 59.742C556.113 58.5793 559.019 57.998 562.071 57.998H564.578ZM596.207 55.164V73.258H625.746V90.044H596.207V121H576.587V38.378H631.196V55.164H596.207ZM643.196 33.037H662.162V49.496H643.196V33.037ZM643.196 59.306H662.162V121H643.196V59.306ZM713.66 57.998C721.871 57.998 728.011 60.069 732.081 64.211C736.15 68.353 738.185 74.9293 738.185 83.94V121H719.219V83.94C719.219 80.9607 718.456 78.708 716.93 77.182C715.476 75.5833 712.969 74.784 709.409 74.784C705.194 74.784 700.87 76.528 696.438 80.016V121H677.472V59.306H696.438V64.211C699.126 62.1037 701.851 60.5413 704.613 59.524C707.447 58.5067 710.462 57.998 713.66 57.998ZM879.837 59.306L855.312 130.701C852.987 137.386 849.971 142.001 846.265 144.544C842.632 147.087 837.727 148.359 831.55 148.359C827.699 148.359 824.211 147.814 821.086 146.724V130.592C823.266 131.246 825.591 131.573 828.062 131.573C831.041 131.573 833.403 131.028 835.147 129.938C836.891 128.921 838.308 126.886 839.398 123.834L840.27 121.327L819.342 59.306H838.744L849.535 94.295L861.525 59.306H879.837Z" fill="#0E4D92"/>
<path d="M776.077 62.8771L776.049 65.8688L776.04 66.714L776.046 66.7162L776.081 60.4194C769.472 61.4524 763.108 64.4514 757.965 69.4889C744.844 82.3411 744.623 103.399 757.478 116.523C770.33 129.644 791.388 129.86 804.509 117.008C817.633 104.153 817.851 83.0972 804.997 69.9738C800.233 65.1107 794.343 62.0265 788.146 60.7193L788.113 66.2019L788.146 63C788.169 60.9494 785.333 60.456 782 60.4194C778.667 60.3912 776.101 60.8265 776.077 62.8771ZM797.626 76.5623C806.665 85.7901 806.51 100.594 797.284 109.631C788.056 118.669 773.252 118.514 764.215 109.288C755.177 100.061 755.33 85.2543 764.556 76.2178C773.784 67.1791 788.588 67.3345 797.626 76.5623Z" fill="#0E4D92"/>
<ellipse cx="300.5" cy="90.5" rx="21.5" ry="23.5" fill="#0E4D92"/>
<ellipse cx="781.5" cy="92" rx="31.5" ry="32" fill="#0E4D92"/>
<g clip-path="url(#clip1_1205_959)">
<path fill-rule="evenodd" clip-rule="evenodd" d="M763 96.9555C766.916 105.506 772.823 114.177 781.016 119C789.187 114.186 795.084 105.55 799 97.0206C796.976 95.2218 793.888 94.5527 789.748 92.6061V96.6361C789.748 96.6904 789.748 96.7382 789.694 96.7882C790.582 97.0858 791.174 97.8788 791.174 98.8238C791.174 100.071 790.24 101.059 789.007 101.059C787.832 101.059 786.844 100.071 786.844 98.8238C786.844 97.781 787.587 96.8838 788.569 96.6904C788.569 96.6904 788.569 96.6904 788.569 96.6361V92.0608C787.929 91.7154 787.239 91.3634 786.55 90.9702V88.2307C788.221 87.1401 788.814 84.7525 789.353 82.6125C789.598 82.5647 789.795 82.165 789.795 81.6675V81.5219C789.993 81.2743 790.184 80.8745 790.335 80.2249C790.532 79.5819 791.269 77.594 790.579 77.0922C790.285 76.9466 790.04 76.9944 789.89 77.3464C789.89 77.3464 790.777 72.4191 790.088 70.3291C788.569 64.9109 775.979 63.4205 775.979 66.801C770.621 68.3413 771.605 73.4619 772.342 77.3942C772.342 77.3942 771.994 76.8967 771.504 77.3942C770.916 78.0372 771.558 79.5276 771.749 80.2249C771.9 80.8246 772.097 81.17 772.241 81.4676C772.241 81.5219 772.241 81.5697 772.241 81.6675C772.241 82.165 772.439 82.6125 772.733 82.6125C773.373 85.0001 773.768 87.3399 775.536 88.5826V90.9702C775.094 91.2678 774.602 91.5155 774.11 91.7653V94.2007C776.963 94.4484 779.274 96.836 779.274 99.8188V105.042C779.274 105.387 779.029 105.641 778.681 105.641H776.866C776.518 105.641 776.273 105.387 776.273 105.042C776.273 104.69 776.518 104.442 776.866 104.442H778.095V99.8188C778.095 97.3335 776.129 95.3456 773.667 95.3456C771.21 95.3456 769.197 97.3335 769.197 99.8188V104.442H770.57C770.868 104.442 771.163 104.69 771.163 105.042C771.163 105.387 770.868 105.641 770.57 105.641H768.604C768.31 105.641 768.016 105.387 768.016 105.042V99.8188C768.016 96.9403 770.179 94.6005 772.931 94.2485V92.3584C768.426 94.5179 765.109 95.0219 763 96.9555ZM789.007 99.8666C788.418 99.8666 787.976 99.4234 787.976 98.8238C787.976 98.2785 788.418 97.8288 789.007 97.8288C789.553 97.8288 790.042 98.2764 790.042 98.8238C790.042 99.4234 789.551 99.8666 789.007 99.8666Z" fill="white"/>
</g>
<path d="M307.667 101.871C306.691 102.356 301.953 101.871 301.901 102.445C301.751 104.101 304.981 104.666 305.852 104.848C309.482 105.596 312.378 103.411 316.619 99.3709C321 95.2019 324.358 88.9729 323.967 83.3534C323.418 75.4291 316.39 71.4025 310.136 73.5915C306.04 75.0242 303.593 77.3512 302.393 78.775C301.914 79.3445 301.052 79.3445 300.573 78.775C299.374 77.3512 296.921 75.0287 292.83 73.596C286.576 71.4025 279.597 75.6427 278.261 83.1264C276.648 92.1452 282.634 102.521 292.966 108.977C295.55 110.592 303.434 113.511 307.407 112.327C310 111.558 316.571 106.299 315.854 105.578C314.052 103.762 309.754 108.314 306.533 108.092C303.513 107.882 301.523 107.326 300.49 105.8C298.815 103.317 299.158 100.052 298.345 100.328C296.398 99.669 297.717 104.732 296.064 103.722C289.09 99.4599 285.029 92.5056 286.106 86.4679C286.989 81.5113 291.608 78.7038 295.748 80.1543C298.169 81.0041 299.725 82.3211 300.595 83.2644C301.074 83.7849 301.883 83.7849 302.362 83.2644C303.232 82.3211 304.784 81.0041 307.21 80.1543C311.349 78.7038 315.968 81.5113 316.852 86.4679C317.542 90.3255 316.122 94.5568 313.195 98.2186C311.934 97.7336 309.139 96.0606 308.321 97.342C307.829 98.1162 309.508 98.659 309.719 99.2641C310.031 100.163 308.405 101.507 307.667 101.871Z" fill="white"/>
<path opacity="0.48" d="M307.205 110.143C309.965 109.698 312.949 106.699 315.898 105.649C315.89 105.622 315.876 105.595 315.859 105.578C314.057 103.762 309.759 108.314 306.537 108.092C303.518 107.882 301.527 107.326 300.495 105.8C298.82 103.317 299.163 100.052 298.35 100.327C296.403 99.669 297.721 104.732 296.069 103.722C289.094 99.4599 285.034 92.5056 286.11 86.4678C286.994 81.5113 291.613 78.7037 295.753 80.1542C296.834 80.5324 297.735 81.0085 298.486 81.4979C295.427 79.2021 292.39 77.2711 288.488 78.2722C285.961 78.9218 283.495 81.6403 282.937 84.2343C279.914 98.352 296.93 111.802 307.205 110.143Z" fill="white"/>
<path opacity="0.48" d="M323.967 83.3534C323.418 75.4291 316.391 71.4025 310.137 73.5915C308.049 74.3212 306.388 75.2867 305.105 76.2433C305.127 76.3813 310.405 74.3212 313.556 75.1577C319.775 76.8129 321.194 82.6771 320.324 88.2788C319.559 93.2131 314.127 101.315 307.794 103.602C306.515 104.065 303.523 103.451 302.367 102.223C302.081 102.267 301.91 102.339 301.901 102.445C301.751 104.101 304.982 104.666 305.852 104.848C309.482 105.596 312.378 103.411 316.619 99.3709C321.001 95.2019 324.358 88.9684 323.967 83.3534Z" fill="white"/>
<rect x="807.556" y="36" width="16" height="38.5807" rx="8" transform="rotate(23.779 807.556 36)" fill="#0E4D92"/>
<defs>
<clipPath id="clip0_1205_959">
<rect width="177" height="137" fill="white" transform="translate(0 21)"/>
</clipPath>
<clipPath id="clip1_1205_959">
<rect width="36" height="54" fill="white" transform="translate(763 65)"/>
</clipPath>
</defs>
</svg>
