<svg width="165" height="50" viewBox="0 0 165 50" fill="none" xmlns="http://www.w3.org/2000/svg">
<rect width="165" height="50" fill="white"/>
<path d="M43.7552 18.1795C46.42 18.1795 48.425 18.8008 49.7702 20.0435C51.1282 21.2734 51.8072 23.0862 51.8072 25.482C51.8072 27.8905 51.1346 29.7034 49.7894 30.9204C48.4442 32.1375 46.4328 32.7461 43.7552 32.7461H38.6243V18.1795H43.7552ZM48.3097 25.4243C48.3097 23.9254 47.9382 22.83 47.1951 22.1382C46.452 21.4464 45.3054 21.1005 43.7552 21.1005H42.0833V29.8251H43.7552C45.331 29.8251 46.4841 29.4792 47.2143 28.7873C47.9446 28.0827 48.3097 26.9617 48.3097 25.4243Z" fill="#EA4335"/>
<path d="M58.971 33.0728C57.7155 33.0728 56.6522 32.8229 55.781 32.3233C54.9098 31.8108 54.25 31.119 53.8016 30.2478C53.366 29.3767 53.1482 28.3966 53.1482 27.3076C53.1482 26.2315 53.366 25.2578 53.8016 24.3866C54.25 23.5154 54.9098 22.83 55.781 22.3304C56.6522 21.8179 57.7155 21.5617 58.971 21.5617C60.2137 21.5617 61.2707 21.8179 62.1419 22.3304C63.013 22.83 63.6664 23.5154 64.102 24.3866C64.5376 25.2578 64.7554 26.2315 64.7554 27.3076C64.7554 28.3966 64.5376 29.3767 64.102 30.2478C63.6664 31.119 63.013 31.8108 62.1419 32.3233C61.2707 32.8229 60.2137 33.0728 58.971 33.0728ZM58.971 30.2286C59.7269 30.2286 60.297 29.9788 60.6813 29.4792C61.0785 28.9795 61.2771 28.2557 61.2771 27.3076C61.2771 26.3724 61.0785 25.6549 60.6813 25.1553C60.297 24.6556 59.7269 24.4058 58.971 24.4058C58.2023 24.4058 57.6194 24.6556 57.2223 25.1553C56.8251 25.6549 56.6265 26.3724 56.6265 27.3076C56.6265 28.2557 56.8251 28.9795 57.2223 29.4792C57.6194 29.9788 58.2023 30.2286 58.971 30.2286Z" fill="#EA4335"/>
<path d="M71.6318 33.0728C69.8382 33.0599 68.4674 32.5539 67.5194 31.5546C66.5713 30.5425 66.0973 29.1204 66.0973 27.2884C66.0973 25.4692 66.5713 24.0663 67.5194 23.0798C68.4674 22.0805 69.8382 21.5745 71.6318 21.5617C72.2852 21.5617 72.8425 21.6001 73.3037 21.677C73.7649 21.7539 74.2454 21.8948 74.745 22.0998V25.1361C74.271 24.9055 73.8226 24.7453 73.3998 24.6556C72.9898 24.566 72.5286 24.5211 72.0162 24.5211C71.1578 24.5339 70.5364 24.7709 70.1521 25.2322C69.7678 25.6934 69.5756 26.3724 69.5756 27.2692C69.5756 28.1916 69.7614 28.8962 70.1329 29.3831C70.5044 29.8699 71.1002 30.1133 71.9201 30.1133C72.3813 30.1133 72.8233 30.0429 73.2461 29.9019C73.6817 29.761 74.1301 29.5432 74.5913 29.2485L75.5329 32.0158C74.3543 32.7204 73.0539 33.0728 71.6318 33.0728Z" fill="#EA4335"/>
<path d="M81.3345 25.2129V28.8834C81.3345 29.3062 81.405 29.6073 81.5459 29.7866C81.6869 29.9532 81.9431 30.0364 82.3146 30.0364C82.7374 30.0364 83.1153 29.9852 83.4484 29.8827V32.7269C83.0128 32.8165 82.6413 32.8806 82.3338 32.919C82.0392 32.9703 81.7189 32.9959 81.373 32.9959C80.2328 32.9959 79.3808 32.7461 78.8171 32.2464C78.2662 31.7468 77.9908 31.0293 77.9908 30.0941V25.2129H76.4918V22.2535H77.9908V18.6022H81.3345V22.2535H83.7943V25.2129H81.3345Z" fill="#EA4335"/>
<path d="M90.8745 33.0728C89.619 33.0728 88.5556 32.8229 87.6845 32.3233C86.8133 31.8108 86.1535 31.119 85.7051 30.2478C85.2695 29.3767 85.0517 28.3966 85.0517 27.3076C85.0517 26.2315 85.2695 25.2578 85.7051 24.3866C86.1535 23.5154 86.8133 22.83 87.6845 22.3304C88.5556 21.8179 89.619 21.5617 90.8745 21.5617C92.1172 21.5617 93.1742 21.8179 94.0453 22.3304C94.9165 22.83 95.5699 23.5154 96.0055 24.3866C96.4411 25.2578 96.6589 26.2315 96.6589 27.3076C96.6589 28.3966 96.4411 29.3767 96.0055 30.2478C95.5699 31.119 94.9165 31.8108 94.0453 32.3233C93.1742 32.8229 92.1172 33.0728 90.8745 33.0728ZM90.8745 30.2286C91.6304 30.2286 92.2005 29.9788 92.5848 29.4792C92.982 28.9795 93.1806 28.2557 93.1806 27.3076C93.1806 26.3724 92.982 25.6549 92.5848 25.1553C92.2005 24.6556 91.6304 24.4058 90.8745 24.4058C90.1058 24.4058 89.5229 24.6556 89.1257 25.1553C88.7286 25.6549 88.53 26.3724 88.53 27.3076C88.53 28.2557 88.7286 28.9795 89.1257 29.4792C89.5229 29.9788 90.1058 30.2286 90.8745 30.2286Z" fill="#EA4335"/>
<path d="M105.419 21.6386V24.598H104.977C103.99 24.598 103.004 24.9503 102.017 25.6549V32.7461H98.6734V21.8692H102.017V22.83C102.491 22.4329 102.965 22.1382 103.439 21.946C103.926 21.741 104.439 21.6386 104.977 21.6386H105.419Z" fill="#EA4335"/>
<path d="M110.995 21.1389V24.329H116.203V27.2884H110.995V32.7461H107.536V18.1795H117.164V21.1389H110.995Z" fill="#EA4335"/>
<path d="M119.279 17.2378H122.623V20.1396H119.279V17.2378ZM119.279 21.8692H122.623V32.7461H119.279V21.8692Z" fill="#EA4335"/>
<path d="M131.702 21.6386C133.15 21.6386 134.233 22.0037 134.95 22.7339C135.667 23.4642 136.026 24.6236 136.026 26.2122V32.7461H132.682V26.2122C132.682 25.687 132.548 25.2898 132.279 25.0208C132.023 24.7389 131.581 24.598 130.953 24.598C130.21 24.598 129.447 24.9055 128.666 25.5204V32.7461H125.322V21.8692H128.666V22.7339C129.14 22.3624 129.62 22.087 130.107 21.9076C130.607 21.7282 131.139 21.6386 131.702 21.6386Z" fill="#EA4335"/>
<path d="M161 21.8692L156.676 34.4564C156.266 35.635 155.735 36.4486 155.081 36.897C154.441 37.3454 153.576 37.5696 152.487 37.5696C151.808 37.5696 151.193 37.4735 150.642 37.2813V34.4372C151.026 34.5525 151.436 34.6101 151.872 34.6101C152.397 34.6101 152.813 34.514 153.121 34.3219C153.428 34.1425 153.678 33.7838 153.87 33.2457L154.024 32.8037L150.334 21.8692H153.755L155.658 28.0379L157.772 21.8692H161Z" fill="#EA4335"/>
<path fill-rule="evenodd" clip-rule="evenodd" d="M17.2525 37.8589H18.4425C19.5179 37.8589 20.5492 37.4175 21.3248 36.7113C22.0741 36.0227 22.5941 35.0958 22.7351 34.0718C23.4315 27.0537 24.1366 20.0269 24.833 13H23.643C22.5677 13 21.5364 13.4414 20.7607 14.1564C19.9762 14.8715 19.4385 15.8514 19.3328 16.9283C18.6461 23.9111 17.9498 30.885 17.2525 37.8589Z" fill="#EA4335"/>
<path fill-rule="evenodd" clip-rule="evenodd" d="M26.4292 13L25.9708 17.5551H35.5786L35.6403 16.9283C35.7461 15.8514 35.4023 14.8715 34.7589 14.1564C34.1242 13.4414 33.1811 13 32.1057 13H26.4292Z" fill="#2B4DF9"/>
<path fill-rule="evenodd" clip-rule="evenodd" d="M35.0586 22.8076H25.4508L24.9219 28.0601H30.6072C31.6914 28.0601 32.7139 27.6187 33.4896 26.9037C34.2741 26.1886 34.8206 25.2088 34.9263 24.1318L35.0586 22.8076Z" fill="#2B4DF9"/>
<path fill-rule="evenodd" clip-rule="evenodd" d="M19.192 22.8076H10.052C8.97661 22.8076 7.95413 23.249 7.16964 23.9552C6.38515 24.6703 5.83866 25.6501 5.73288 26.7359L5.60067 27.8977L22.4704 28.0601L19.192 22.8076Z" fill="#EA4335"/>
<path fill-rule="evenodd" clip-rule="evenodd" d="M18.7513 33.3126H5.08062L5.01892 33.9305C4.91314 35.0164 5.25691 35.9962 5.90037 36.7113C6.54382 37.4175 7.47816 37.8589 8.55352 37.8589H18.046L18.7513 33.3126Z" fill="#EA4335"/>
<path d="M5.08062 33.3126L5.61659 27.8977L10.2887 27.9428L9.67159 33.3126H5.08062Z" fill="#EA4335"/>
<path d="M142.707 22.4988L142.7 23.1752L142.701 23.1756L142.707 22.0655C141.542 22.2476 140.42 22.7763 139.513 23.6644C137.2 25.9303 137.161 29.643 139.428 31.9567C141.693 34.27 145.406 34.3081 147.719 32.0422C150.033 29.7759 150.072 26.0636 147.805 23.7499C146.965 22.8925 145.927 22.3488 144.834 22.1183L144.829 23.0849L144.834 22.5204C144.839 22.1589 144.339 22.0719 143.751 22.0655C143.163 22.0605 142.711 22.1372 142.707 22.4988ZM146.506 24.9115C148.099 26.5384 148.072 29.1485 146.446 30.7416C144.819 32.3352 142.209 32.3078 140.615 30.6813C139.022 29.0544 139.049 26.444 140.675 24.8508C142.302 23.2572 144.912 23.2846 146.506 24.9115Z" fill="#2B4DF9"/>
<path d="M62.651 27.3688C62.651 29.657 60.9539 31.5119 58.8605 31.5119C56.767 31.5119 55.0699 29.657 55.0699 27.3688C55.0699 25.0806 56.767 23.2256 58.8605 23.2256C60.9539 23.2256 62.651 25.0806 62.651 27.3688Z" fill="#EA4335"/>
<path d="M149.216 27.6332C149.216 30.7491 146.73 33.275 143.663 33.275C140.596 33.275 138.109 30.7491 138.109 27.6332C138.109 24.5174 140.596 21.9915 143.663 21.9915C146.73 21.9915 149.216 24.5174 149.216 27.6332Z" fill="#2B4DF9"/>
<path fill-rule="evenodd" clip-rule="evenodd" d="M140.401 28.5069C141.092 30.0145 142.133 31.5431 143.577 32.3934C145.018 31.5447 146.058 30.0222 146.748 28.5184C146.391 28.2013 145.847 28.0833 145.117 27.7401V28.4506C145.117 28.4602 145.117 28.4686 145.107 28.4774C145.264 28.5299 145.368 28.6697 145.368 28.8363C145.368 29.0562 145.204 29.2304 144.986 29.2304C144.779 29.2304 144.605 29.0562 144.605 28.8363C144.605 28.6525 144.736 28.4943 144.909 28.4602C144.909 28.4602 144.909 28.4602 144.909 28.4506V27.644C144.796 27.5831 144.675 27.521 144.553 27.4517V26.9687C144.848 26.7764 144.952 26.3555 145.047 25.9782C145.09 25.9698 145.125 25.8993 145.125 25.8116V25.7859C145.16 25.7422 145.194 25.6718 145.22 25.5572C145.255 25.4439 145.385 25.0934 145.264 25.0049C145.212 24.9793 145.168 24.9877 145.142 25.0497C145.142 25.0497 145.298 24.181 145.177 23.8126C144.909 22.8573 142.689 22.5946 142.689 23.1905C141.745 23.4621 141.918 24.3649 142.048 25.0582C142.048 25.0582 141.987 24.9705 141.9 25.0582C141.797 25.1715 141.91 25.4343 141.944 25.5572C141.97 25.663 142.005 25.7239 142.03 25.7763C142.03 25.7859 142.03 25.7943 142.03 25.8116C142.03 25.8993 142.065 25.9782 142.117 25.9782C142.23 26.3991 142.3 26.8116 142.611 27.0307V27.4517C142.533 27.5042 142.447 27.5478 142.36 27.5919V28.0212C142.863 28.0649 143.27 28.4858 143.27 29.0117V29.9325C143.27 29.9934 143.227 30.0382 143.166 30.0382H142.846C142.784 30.0382 142.741 29.9934 142.741 29.9325C142.741 29.8705 142.784 29.8268 142.846 29.8268H143.062V29.0117C143.062 28.5736 142.716 28.2231 142.282 28.2231C141.849 28.2231 141.494 28.5736 141.494 29.0117V29.8268H141.736C141.788 29.8268 141.84 29.8705 141.84 29.9325C141.84 29.9934 141.788 30.0382 141.736 30.0382H141.389C141.337 30.0382 141.285 29.9934 141.285 29.9325V29.0117C141.285 28.5042 141.667 28.0917 142.152 28.0297V27.6964C141.358 28.0772 140.773 28.166 140.401 28.5069ZM144.986 29.0202C144.883 29.0202 144.804 28.942 144.804 28.8363C144.804 28.7402 144.883 28.6609 144.986 28.6609C145.082 28.6609 145.169 28.7398 145.169 28.8363C145.169 28.942 145.082 29.0202 144.986 29.0202Z" fill="white"/>
<path d="M60.124 29.3736C59.9519 29.4591 59.1167 29.3736 59.1074 29.4748C59.081 29.7666 59.6505 29.8663 59.8039 29.8984C60.444 30.0302 60.9546 29.645 61.7023 28.9328C62.4748 28.1978 63.0667 27.0995 62.9978 26.1088C62.9009 24.7117 61.662 24.0018 60.5594 24.3878C59.8373 24.6403 59.4057 25.0506 59.1942 25.3016C59.1097 25.402 58.9578 25.402 58.8734 25.3016C58.6619 25.0506 58.2295 24.6411 57.5081 24.3885C56.4056 24.0018 55.1751 24.7494 54.9396 26.0688C54.6552 27.6589 55.7105 29.4882 57.5322 30.6264C57.9878 30.9111 59.3778 31.4257 60.0782 31.217C60.5354 31.0813 61.6938 30.1541 61.5675 30.0271C61.2498 29.707 60.492 30.5095 59.924 30.4703C59.3917 30.4334 59.0407 30.3353 58.8587 30.0663C58.5635 29.6286 58.6239 29.0528 58.4805 29.1014C58.1373 28.9853 58.3697 29.878 58.0784 29.7C56.8488 28.9485 56.1328 27.7224 56.3227 26.6579C56.4784 25.7841 57.2927 25.2891 58.0226 25.5448C58.4495 25.6946 58.7238 25.9268 58.8773 26.0931C58.9617 26.1849 59.1043 26.1849 59.1887 26.0931C59.3422 25.9268 59.6157 25.6946 60.0434 25.5448C60.7733 25.2891 61.5876 25.7841 61.7433 26.6579C61.865 27.338 61.6147 28.084 61.0987 28.7296C60.8763 28.6441 60.3835 28.3492 60.2394 28.5751C60.1526 28.7116 60.4486 28.8073 60.4858 28.9139C60.5408 29.0724 60.2541 29.3093 60.124 29.3736Z" fill="white"/>
<path d="M60.0427 30.8319C60.5292 30.7534 61.0553 30.2247 61.5753 30.0396C61.5737 30.0349 61.5714 30.0302 61.5683 30.027C61.2506 29.707 60.4928 30.5095 59.9249 30.4703C59.3926 30.4334 59.0416 30.3353 58.8595 30.0663C58.5643 29.6286 58.6247 29.0528 58.4814 29.1014C58.1381 28.9853 58.3706 29.878 58.0792 29.6999C56.8496 28.9485 56.1336 27.7224 56.3235 26.6579C56.4792 25.784 57.2936 25.2891 58.0234 25.5448C58.2141 25.6115 58.3729 25.6954 58.5054 25.7817C57.9661 25.3769 57.4307 25.0365 56.7427 25.213C56.2971 25.3275 55.8625 25.8068 55.7641 26.2641C55.231 28.7531 58.2311 31.1245 60.0427 30.8319Z" fill="white"/>
<path d="M62.9978 26.1088C62.9009 24.7117 61.662 24.0018 60.5594 24.3878C60.1914 24.5164 59.8985 24.6866 59.6723 24.8553C59.6762 24.8796 60.6067 24.5164 61.1623 24.6639C62.2587 24.9557 62.5089 25.9896 62.3555 26.9772C62.2207 27.8471 61.263 29.2756 60.1465 29.6788C59.921 29.7603 59.3933 29.6521 59.1896 29.4356C59.1392 29.4434 59.1089 29.456 59.1074 29.4748C59.081 29.7666 59.6505 29.8663 59.8039 29.8984C60.444 30.0302 60.9546 29.645 61.7023 28.9328C62.4748 28.1978 63.0667 27.0988 62.9978 26.1088Z" fill="white"/>
<path d="M147.688 19.0509C148.002 18.3381 148.834 18.0148 149.547 18.3289C150.26 18.643 150.583 19.4755 150.269 20.1883L148.664 23.8314C148.35 24.5443 147.517 24.8675 146.805 24.5534C146.092 24.2393 145.769 23.4069 146.083 22.694L147.688 19.0509Z" fill="#2B4DF9"/>
<path d="M110.995 21.1389V24.3289H116.203V27.2884H110.995V32.746H107.536V18.1794H117.164V21.1389H110.995Z" fill="#2B4DF9"/>
<path d="M119.279 17.2378H122.623V20.1396H119.279V17.2378ZM119.279 21.8691H122.623V32.746H119.279V21.8691Z" fill="#2B4DF9"/>
<path d="M131.702 21.6385C133.15 21.6385 134.233 22.0036 134.95 22.7339C135.668 23.4642 136.026 24.6236 136.026 26.2122V32.746H132.682V26.2122C132.682 25.6869 132.548 25.2898 132.279 25.0207C132.023 24.7389 131.581 24.598 130.953 24.598C130.21 24.598 129.448 24.9054 128.666 25.5204V32.746H125.322V21.8691H128.666V22.7339C129.14 22.3624 129.621 22.0869 130.107 21.9076C130.607 21.7282 131.139 21.6385 131.702 21.6385Z" fill="#2B4DF9"/>
<path d="M161 21.8691L156.676 34.4564C156.266 35.635 155.735 36.4485 155.081 36.8969C154.441 37.3453 153.576 37.5695 152.487 37.5695C151.808 37.5695 151.193 37.4735 150.642 37.2813V34.4371C151.026 34.5525 151.436 34.6101 151.872 34.6101C152.397 34.6101 152.814 34.514 153.121 34.3218C153.429 34.1425 153.678 33.7838 153.871 33.2457L154.024 32.8037L150.335 21.8691H153.755L155.658 28.0378L157.772 21.8691H161Z" fill="#2B4DF9"/>
<path d="M142.707 22.4987L142.7 23.1752L142.701 23.1756L142.708 22.0654C141.542 22.2476 140.42 22.7763 139.514 23.6644C137.2 25.9303 137.161 29.643 139.428 31.9567C141.694 34.27 145.406 34.3081 147.72 32.0422C150.033 29.7759 150.072 26.0636 147.805 23.7499C146.966 22.8925 145.927 22.3488 144.835 22.1183L144.829 23.0849L144.835 22.5204C144.839 22.1589 144.339 22.0719 143.751 22.0654C143.163 22.0604 142.711 22.1372 142.707 22.4987ZM146.506 24.9115C148.1 26.5384 148.072 29.1484 146.446 30.7416C144.819 32.3352 142.209 32.3078 140.616 30.6812C139.022 29.0543 139.049 26.4439 140.676 24.8507C142.302 23.2572 144.912 23.2846 146.506 24.9115Z" fill="#2B4DF9"/>
<path d="M149.216 27.6332C149.216 30.7491 146.73 33.275 143.663 33.275C140.596 33.275 138.109 30.7491 138.109 27.6332C138.109 24.5174 140.596 21.9915 143.663 21.9915C146.73 21.9915 149.216 24.5174 149.216 27.6332Z" fill="#2B4DF9"/>
<path fill-rule="evenodd" clip-rule="evenodd" d="M140.401 28.5069C141.092 30.0145 142.133 31.5431 143.578 32.3934C145.018 31.5446 146.058 30.0221 146.748 28.5184C146.391 28.2012 145.847 28.0833 145.117 27.7401V28.4506C145.117 28.4602 145.117 28.4686 145.108 28.4774C145.264 28.5299 145.369 28.6697 145.369 28.8363C145.369 29.0561 145.204 29.2304 144.986 29.2304C144.779 29.2304 144.605 29.0561 144.605 28.8363C144.605 28.6524 144.736 28.4942 144.909 28.4602C144.909 28.4602 144.909 28.4602 144.909 28.4506V27.6439C144.796 27.583 144.675 27.521 144.553 27.4517V26.9687C144.848 26.7764 144.952 26.3554 145.047 25.9782C145.091 25.9697 145.125 25.8993 145.125 25.8115V25.7859C145.16 25.7422 145.194 25.6717 145.22 25.5572C145.255 25.4438 145.385 25.0934 145.264 25.0049C145.212 24.9792 145.169 24.9877 145.142 25.0497C145.142 25.0497 145.298 24.181 145.177 23.8125C144.909 22.8573 142.689 22.5945 142.689 23.1905C141.745 23.4621 141.918 24.3649 142.048 25.0581C142.048 25.0581 141.987 24.9704 141.901 25.0581C141.797 25.1715 141.91 25.4343 141.944 25.5572C141.97 25.6629 142.005 25.7238 142.03 25.7763C142.03 25.7859 142.03 25.7943 142.03 25.8115C142.03 25.8993 142.065 25.9782 142.117 25.9782C142.23 26.3991 142.3 26.8116 142.611 27.0307V27.4517C142.533 27.5041 142.447 27.5478 142.36 27.5918V28.0212C142.863 28.0649 143.27 28.4858 143.27 29.0117V29.9325C143.27 29.9934 143.227 30.0382 143.166 30.0382H142.846C142.785 30.0382 142.741 29.9934 142.741 29.9325C142.741 29.8704 142.785 29.8268 142.846 29.8268H143.063V29.0117C143.063 28.5735 142.716 28.2231 142.282 28.2231C141.849 28.2231 141.494 28.5735 141.494 29.0117V29.8268H141.736C141.788 29.8268 141.84 29.8704 141.84 29.9325C141.84 29.9934 141.788 30.0382 141.736 30.0382H141.389C141.337 30.0382 141.286 29.9934 141.286 29.9325V29.0117C141.286 28.5042 141.667 28.0917 142.152 28.0296V27.6964C141.358 28.0771 140.773 28.166 140.401 28.5069ZM144.986 29.0201C144.883 29.0201 144.805 28.942 144.805 28.8363C144.805 28.7401 144.883 28.6609 144.986 28.6609C145.083 28.6609 145.169 28.7398 145.169 28.8363C145.169 28.942 145.082 29.0201 144.986 29.0201Z" fill="white"/>
<path d="M147.688 19.0509C148.002 18.338 148.835 18.0148 149.547 18.3289C150.26 18.643 150.583 19.4755 150.269 20.1883L148.664 23.8314C148.35 24.5442 147.518 24.8675 146.805 24.5534C146.092 24.2393 145.769 23.4068 146.083 22.694L147.688 19.0509Z" fill="#2B4DF9"/>
</svg>
