<svg width="887" height="192" viewBox="0 0 887 192" fill="none" xmlns="http://www.w3.org/2000/svg">
<path d="M219.823 38.378C234.938 38.378 246.31 41.9023 253.94 48.951C261.643 55.927 265.494 66.2093 265.494 79.798C265.494 93.4593 261.679 103.742 254.049 110.645C246.419 117.548 235.01 121 219.823 121H190.72V38.378H219.823ZM245.656 79.471C245.656 70.969 243.549 64.756 239.334 60.832C235.119 56.908 228.616 54.946 219.823 54.946H210.34V104.432H219.823C228.761 104.432 235.301 102.47 239.443 98.546C243.585 94.5493 245.656 88.191 245.656 79.471ZM306.127 122.853C299.006 122.853 292.974 121.436 288.033 118.602C283.092 115.695 279.349 111.771 276.806 106.83C274.335 101.889 273.1 96.3297 273.1 90.153C273.1 84.049 274.335 78.5263 276.806 73.585C279.349 68.6437 283.092 64.756 288.033 61.922C292.974 59.0153 299.006 57.562 306.127 57.562C313.176 57.562 319.171 59.0153 324.112 61.922C329.053 64.756 332.759 68.6437 335.23 73.585C337.701 78.5263 338.936 84.049 338.936 90.153C338.936 96.3297 337.701 101.889 335.23 106.83C332.759 111.771 329.053 115.695 324.112 118.602C319.171 121.436 313.176 122.853 306.127 122.853ZM306.127 106.721C310.414 106.721 313.648 105.304 315.828 102.47C318.081 99.636 319.207 95.5303 319.207 90.153C319.207 84.8483 318.081 80.779 315.828 77.945C313.648 75.111 310.414 73.694 306.127 73.694C301.767 73.694 298.461 75.111 296.208 77.945C293.955 80.779 292.829 84.8483 292.829 90.153C292.829 95.5303 293.955 99.636 296.208 102.47C298.461 105.304 301.767 106.721 306.127 106.721ZM377.939 122.853C367.766 122.78 359.991 119.91 354.613 114.242C349.236 108.501 346.547 100.435 346.547 90.044C346.547 79.7253 349.236 71.7683 354.613 66.173C359.991 60.505 367.766 57.6347 377.939 57.562C381.645 57.562 384.806 57.78 387.422 58.216C390.038 58.652 392.763 59.4513 395.597 60.614V77.836C392.909 76.528 390.365 75.6197 387.967 75.111C385.642 74.6023 383.026 74.348 380.119 74.348C375.251 74.4207 371.726 75.765 369.546 78.381C367.366 80.997 366.276 84.8483 366.276 89.935C366.276 95.167 367.33 99.1637 369.437 101.925C371.545 104.686 374.924 106.067 379.574 106.067C382.19 106.067 384.697 105.667 387.095 104.868C389.566 104.069 392.109 102.833 394.725 101.162L400.066 116.858C393.381 120.855 386.005 122.853 377.939 122.853ZM432.973 78.272V99.091C432.973 101.489 433.373 103.197 434.172 104.214C434.972 105.159 436.425 105.631 438.532 105.631C440.93 105.631 443.074 105.34 444.963 104.759V120.891C442.493 121.4 440.385 121.763 438.641 121.981C436.97 122.272 435.153 122.417 433.191 122.417C426.724 122.417 421.892 121 418.694 118.166C415.57 115.332 414.007 111.263 414.007 105.958V78.272H405.505V61.486H414.007V40.776H432.973V61.486H446.925V78.272H432.973ZM487.084 122.853C479.963 122.853 473.932 121.436 468.99 118.602C464.049 115.695 460.307 111.771 457.763 106.83C455.293 101.889 454.057 96.3297 454.057 90.153C454.057 84.049 455.293 78.5263 457.763 73.585C460.307 68.6437 464.049 64.756 468.99 61.922C473.932 59.0153 479.963 57.562 487.084 57.562C494.133 57.562 500.128 59.0153 505.069 61.922C510.011 64.756 513.717 68.6437 516.187 73.585C518.658 78.5263 519.893 84.049 519.893 90.153C519.893 96.3297 518.658 101.889 516.187 106.83C513.717 111.771 510.011 115.695 505.069 118.602C500.128 121.436 494.133 122.853 487.084 122.853ZM487.084 106.721C491.372 106.721 494.605 105.304 496.785 102.47C499.038 99.636 500.164 95.5303 500.164 90.153C500.164 84.8483 499.038 80.779 496.785 77.945C494.605 75.111 491.372 73.694 487.084 73.694C482.724 73.694 479.418 75.111 477.165 77.945C474.913 80.779 473.786 84.8483 473.786 90.153C473.786 95.5303 474.913 99.636 477.165 102.47C479.418 105.304 482.724 106.721 487.084 106.721ZM569.578 57.998V74.784H567.071C561.476 74.784 555.881 76.7823 550.285 80.779V121H531.319V59.306H550.285V64.756C552.974 62.5033 555.663 60.832 558.351 59.742C561.113 58.5793 564.019 57.998 567.071 57.998H569.578ZM601.207 55.164V73.258H630.746V90.044H601.207V121H581.587V38.378H636.196V55.164H601.207ZM648.196 33.037H667.162V49.496H648.196V33.037ZM648.196 59.306H667.162V121H648.196V59.306ZM718.66 57.998C726.871 57.998 733.011 60.069 737.081 64.211C741.15 68.353 743.185 74.9293 743.185 83.94V121H724.219V83.94C724.219 80.9607 723.456 78.708 721.93 77.182C720.476 75.5833 717.969 74.784 714.409 74.784C710.194 74.784 705.87 76.528 701.438 80.016V121H682.472V59.306H701.438V64.211C704.126 62.1037 706.851 60.5413 709.613 59.524C712.447 58.5067 715.462 57.998 718.66 57.998ZM884.837 59.306L860.312 130.701C857.987 137.386 854.971 142.001 851.265 144.544C847.632 147.087 842.727 148.359 836.55 148.359C832.699 148.359 829.211 147.814 826.086 146.724V130.592C828.266 131.246 830.591 131.573 833.062 131.573C836.041 131.573 838.403 131.028 840.147 129.938C841.891 128.921 843.308 126.886 844.398 123.834L845.27 121.327L824.342 59.306H843.744L854.535 94.295L866.525 59.306H884.837Z" fill="white"/>
<g clip-path="url(#clip0_1205_930)">
<path fill-rule="evenodd" clip-rule="evenodd" d="M69.4993 150H76.2487C82.3482 150 88.1977 147.496 92.5974 143.491C96.847 139.585 99.7968 134.328 100.597 128.52C104.546 88.7131 108.546 48.8565 112.496 9H105.746C99.6468 9 93.7973 11.5036 89.3976 15.5593C84.948 19.6151 81.8982 25.1729 81.2983 31.2816C77.4036 70.8878 73.4539 110.444 69.4993 150Z" fill="white"/>
<path fill-rule="evenodd" clip-rule="evenodd" d="M121.549 9L118.949 34.8366H173.445L173.795 31.2816C174.395 25.1729 172.445 19.6151 168.795 15.5593C165.196 11.5036 159.846 9 153.747 9H125.699H121.549Z" fill="white"/>
<path fill-rule="evenodd" clip-rule="evenodd" d="M170.495 64.6289H116L113 94.4212H145.247C151.397 94.4212 157.196 91.9176 161.596 87.8619C166.046 83.8061 169.145 78.2482 169.745 72.1396L170.495 64.6289Z" fill="white"/>
<path fill-rule="evenodd" clip-rule="evenodd" d="M80.5 64.6289H28.6576C22.5581 64.6289 16.7586 67.1325 12.3089 71.1381C7.8593 75.1939 4.75956 80.7518 4.15961 86.9105L3.40967 94.4212H99.0951L80.5 64.6289Z" fill="white"/>
<path fill-rule="evenodd" clip-rule="evenodd" d="M78 124.213H0.459957L0.109986 127.718C-0.489965 133.877 1.45987 139.435 5.10957 143.491C8.75927 147.496 14.0588 150 20.1583 150H48.206H74L78 124.213Z" fill="white"/>
<path d="M0.5 125L3.5 93.5H30L26.5 126L0.5 125Z" fill="white"/>
</g>
<path d="M781.077 62.8771L781.049 65.8688L781.04 66.714L781.046 66.7162L781.081 60.4194C774.472 61.4524 768.108 64.4514 762.965 69.4889C749.844 82.3411 749.623 103.399 762.478 116.523C775.33 129.644 796.388 129.86 809.509 117.008C822.633 104.153 822.851 83.0972 809.997 69.9738C805.233 65.1107 799.343 62.0265 793.146 60.7193L793.113 66.2019L793.146 63C793.169 60.9494 790.333 60.456 787 60.4194C783.667 60.3912 781.101 60.8265 781.077 62.8771ZM802.626 76.5623C811.665 85.7901 811.51 100.594 802.284 109.631C793.056 118.669 778.252 118.514 769.215 109.288C760.177 100.061 760.33 85.2543 769.556 76.2178C778.784 67.1791 793.588 67.3345 802.626 76.5623Z" fill="white"/>
<ellipse cx="305.5" cy="90.5" rx="21.5" ry="23.5" fill="white"/>
<ellipse cx="786.5" cy="92" rx="31.5" ry="32" fill="white"/>
<g clip-path="url(#clip1_1205_930)">
<path fill-rule="evenodd" clip-rule="evenodd" d="M768 96.9555C771.916 105.506 777.823 114.177 786.016 119C794.187 114.186 800.084 105.55 804 97.0206C801.976 95.2218 798.888 94.5527 794.748 92.6061V96.6361C794.748 96.6904 794.748 96.7382 794.694 96.7882C795.582 97.0858 796.174 97.8788 796.174 98.8238C796.174 100.071 795.24 101.059 794.007 101.059C792.832 101.059 791.844 100.071 791.844 98.8238C791.844 97.781 792.587 96.8838 793.569 96.6904C793.569 96.6904 793.569 96.6904 793.569 96.6361V92.0608C792.929 91.7154 792.239 91.3634 791.55 90.9702V88.2307C793.221 87.1401 793.814 84.7525 794.353 82.6125C794.598 82.5647 794.795 82.165 794.795 81.6675V81.5219C794.993 81.2743 795.184 80.8745 795.335 80.2249C795.532 79.5819 796.269 77.594 795.579 77.0922C795.285 76.9466 795.04 76.9944 794.89 77.3464C794.89 77.3464 795.777 72.4191 795.088 70.3291C793.569 64.9109 780.979 63.4205 780.979 66.801C775.621 68.3413 776.605 73.4619 777.342 77.3942C777.342 77.3942 776.994 76.8967 776.504 77.3942C775.916 78.0372 776.558 79.5276 776.749 80.2249C776.9 80.8246 777.097 81.17 777.241 81.4676C777.241 81.5219 777.241 81.5697 777.241 81.6675C777.241 82.165 777.439 82.6125 777.733 82.6125C778.373 85.0001 778.768 87.3399 780.536 88.5826V90.9702C780.094 91.2678 779.602 91.5155 779.11 91.7653V94.2007C781.963 94.4484 784.274 96.836 784.274 99.8188V105.042C784.274 105.387 784.029 105.641 783.681 105.641H781.866C781.518 105.641 781.273 105.387 781.273 105.042C781.273 104.69 781.518 104.442 781.866 104.442H783.095V99.8188C783.095 97.3335 781.129 95.3456 778.667 95.3456C776.21 95.3456 774.197 97.3335 774.197 99.8188V104.442H775.57C775.868 104.442 776.163 104.69 776.163 105.042C776.163 105.387 775.868 105.641 775.57 105.641H773.604C773.31 105.641 773.016 105.387 773.016 105.042V99.8188C773.016 96.9403 775.179 94.6005 777.931 94.2485V92.3584C773.426 94.5179 770.109 95.0219 768 96.9555ZM794.007 99.8666C793.418 99.8666 792.976 99.4234 792.976 98.8238C792.976 98.2785 793.418 97.8288 794.007 97.8288C794.553 97.8288 795.042 98.2764 795.042 98.8238C795.042 99.4234 794.551 99.8666 794.007 99.8666Z" fill="#0E4D92"/>
</g>
<path d="M312.667 101.871C311.691 102.356 306.953 101.871 306.901 102.445C306.751 104.101 309.981 104.666 310.852 104.848C314.482 105.596 317.378 103.411 321.619 99.3709C326 95.2019 329.358 88.9729 328.967 83.3534C328.418 75.4291 321.39 71.4025 315.136 73.5915C311.04 75.0242 308.593 77.3512 307.393 78.775C306.914 79.3445 306.052 79.3445 305.573 78.775C304.374 77.3512 301.921 75.0287 297.83 73.596C291.576 71.4025 284.597 75.6427 283.261 83.1264C281.648 92.1452 287.634 102.521 297.966 108.977C300.55 110.592 308.434 113.511 312.407 112.327C315 111.558 321.571 106.299 320.854 105.578C319.052 103.762 314.754 108.314 311.533 108.092C308.513 107.882 306.523 107.326 305.49 105.8C303.815 103.317 304.158 100.052 303.345 100.328C301.398 99.669 302.717 104.732 301.064 103.722C294.09 99.4599 290.029 92.5056 291.106 86.4679C291.989 81.5113 296.608 78.7038 300.748 80.1543C303.169 81.0041 304.725 82.3211 305.595 83.2644C306.074 83.7849 306.883 83.7849 307.362 83.2644C308.232 82.3211 309.784 81.0041 312.21 80.1543C316.349 78.7038 320.968 81.5113 321.852 86.4679C322.542 90.3255 321.122 94.5568 318.195 98.2186C316.934 97.7336 314.139 96.0606 313.321 97.342C312.829 98.1162 314.508 98.659 314.719 99.2641C315.031 100.163 313.405 101.507 312.667 101.871Z" fill="#0E4D92"/>
<path opacity="0.48" d="M312.205 110.143C314.965 109.698 317.949 106.699 320.898 105.649C320.89 105.622 320.876 105.595 320.859 105.578C319.057 103.762 314.759 108.314 311.537 108.092C308.518 107.882 306.527 107.326 305.495 105.8C303.82 103.317 304.163 100.052 303.35 100.327C301.403 99.669 302.721 104.732 301.069 103.722C294.094 99.4599 290.034 92.5056 291.11 86.4678C291.994 81.5113 296.613 78.7037 300.753 80.1542C301.834 80.5324 302.735 81.0085 303.486 81.4979C300.427 79.2021 297.39 77.2711 293.488 78.2722C290.961 78.9218 288.495 81.6403 287.937 84.2343C284.914 98.352 301.93 111.802 312.205 110.143Z" fill="#0E4D92"/>
<path opacity="0.48" d="M328.967 83.3534C328.418 75.4291 321.391 71.4025 315.137 73.5915C313.049 74.3212 311.388 75.2867 310.105 76.2433C310.127 76.3813 315.405 74.3212 318.556 75.1577C324.775 76.8129 326.194 82.6771 325.324 88.2788C324.559 93.2131 319.127 101.315 312.794 103.602C311.515 104.065 308.523 103.451 307.367 102.223C307.081 102.267 306.91 102.339 306.901 102.445C306.751 104.101 309.982 104.666 310.852 104.848C314.482 105.596 317.378 103.411 321.619 99.3709C326.001 95.2019 329.358 88.9684 328.967 83.3534Z" fill="#0E4D92"/>
<rect x="812.556" y="36" width="16" height="38.5807" rx="8" transform="rotate(23.779 812.556 36)" fill="white"/>
<defs>
<clipPath id="clip0_1205_930">
<rect width="182" height="141" fill="white" transform="translate(0 10)"/>
</clipPath>
<clipPath id="clip1_1205_930">
<rect width="36" height="54" fill="white" transform="translate(768 65)"/>
</clipPath>
</defs>
</svg>
