<svg width="17" height="17" viewBox="0 0 17 17" fill="none" xmlns="http://www.w3.org/2000/svg">
<path d="M16.4999 7.21769V8.36144L15.5003 8.80536L8.46525 11.9285L0 8.36144V7.20594C0 6.70882 0.446014 6.33508 0.928122 6.4268C2.30451 6.68825 4.78015 7.03001 5.29835 6.22964C6.65702 4.12918 9.64119 4.12918 10.9999 6.22964C11.5094 7.01662 13.6479 6.78879 15.1029 6.52799C15.2663 6.49828 15.4213 6.4689 15.5641 6.43985C16.0488 6.34258 16.4999 6.7173 16.4999 7.21769Z" fill="#FFCEBF"/>
<path d="M12.3102 6.75493C11.2799 6.8176 10.3205 6.72294 10.0011 6.22973C9.42622 5.34091 8.5603 4.82844 7.6499 4.69167C8.89159 4.50497 10.2164 5.01776 11.0005 6.22973C11.2119 6.55614 11.7033 6.70792 12.3102 6.75493Z" fill="#FFB09E"/>
<path d="M16.4997 7.21761V8.36135L15.5001 8.80528V7.21793C15.5001 6.91763 15.3376 6.6627 15.103 6.52822C15.2664 6.49852 15.4214 6.46914 15.5642 6.44009C16.0486 6.34249 16.4997 6.71722 16.4997 7.21761Z" fill="#FFB09E"/>
<path d="M15.5003 8.36182L16.4999 13.416L8.24997 14.0685L0 13.416V8.36182H4.54876C5.25807 8.36182 5.60515 8.61152 5.60386 8.91737C5.60386 8.92063 5.60386 8.92357 5.60386 8.92684C5.60386 9.89726 6.32702 10.9408 7.64218 10.9408C7.80235 10.9816 7.9696 11.0035 8.14201 11.0035C9.27284 11.0035 10.1926 10.0716 10.1926 8.92684C10.1926 8.92488 10.1926 8.92292 10.1926 8.92096C10.1916 8.61348 10.4323 8.36182 10.7359 8.36182H15.5003Z" fill="#DFA8D2"/>
<path d="M7.6429 10.9408C7.48306 10.9819 7.31548 11.0035 7.14339 11.0035C6.01289 11.0035 5.09314 10.0716 5.09314 8.92684V8.91737C5.09411 8.61185 4.85177 8.36182 4.5498 8.36182H5.54947C5.85175 8.36182 6.0941 8.61152 6.09249 8.91737V8.92684C6.09216 9.89726 6.75313 10.7146 7.6429 10.9408Z" fill="#D691C6"/>
<path d="M16.5002 8.36182V13.416L15.5005 14.107V8.36182H16.5002Z" fill="#D691C6"/>
<path d="M12.3007 10.4019L11.9069 10.7894V10.5828C11.9069 10.5341 11.893 10.4868 11.8672 10.446L11.3635 9.6551C11.2891 9.53792 11.1347 9.5043 11.0194 9.58003C10.9037 9.65543 10.8705 9.81178 10.9452 9.92863L11.409 10.6569V13.4154C11.409 13.5547 11.5205 13.6677 11.6581 13.6677C11.7957 13.6677 11.9072 13.5547 11.9072 13.4154V11.4928L12.6481 10.7636C12.7467 10.6667 12.7489 10.5067 12.6529 10.4068C12.5569 10.3069 12.3993 10.305 12.3007 10.4019Z" fill="#D691C6"/>
<path d="M14.5949 11.135C14.4824 11.0547 14.3271 11.0818 14.2478 11.1954L13.9091 11.6811L13.6052 11.2042C13.5308 11.087 13.3764 11.0534 13.2611 11.1291C13.1454 11.2045 13.1122 11.3609 13.1869 11.4777L13.651 12.2059V13.4156C13.651 13.555 13.7625 13.6679 13.9001 13.6679C14.0377 13.6679 14.1492 13.555 14.1492 13.4156V12.2118L14.6548 11.4865C14.7341 11.3729 14.7074 11.2156 14.5949 11.135Z" fill="#D691C6"/>
<path d="M2.34442 11.135C2.23195 11.0547 2.07662 11.0818 1.99734 11.1954L1.65864 11.6811L1.35474 11.2042C1.2803 11.087 1.12594 11.0534 1.01057 11.1291C0.894873 11.2045 0.86168 11.3609 0.936445 11.4777L1.40051 12.2059V13.4156C1.40051 13.555 1.51201 13.6679 1.64962 13.6679C1.78722 13.6679 1.89873 13.555 1.89873 13.4156V12.2118L2.40436 11.4865C2.48332 11.3729 2.45657 11.2156 2.34442 11.135Z" fill="#D691C6"/>
<path d="M4.95794 10.8613C4.86062 10.7627 4.70303 10.7627 4.60571 10.8613C4.50838 10.9599 4.50838 11.1195 4.60571 11.2181L5.01369 11.6313V13.4158C5.01369 13.5552 5.1252 13.6681 5.26281 13.6681C5.40041 13.6681 5.51192 13.5552 5.51192 13.4158V11.5268C5.51192 11.4599 5.48581 11.396 5.43908 11.3486L4.95794 10.8613Z" fill="#D691C6"/>
<path d="M8.81711 8.79751C8.81711 9.53064 7.65019 9.9491 7.65019 9.9491C7.27604 9.73269 7.01855 9.2806 7.01855 8.75802C7.01855 8.23543 7.27604 7.39459 7.65019 6.95459C7.65019 6.95459 8.81711 8.06439 8.81711 8.79751Z" fill="#FFF9DF"/>
<path d="M8.14974 6.66553C7.97023 6.66553 7.80072 6.77781 7.6499 6.95505C8.02405 7.39506 8.28154 8.2359 8.28154 8.75848C8.28154 9.28107 8.02405 9.73315 7.6499 9.94956C7.80072 10.0367 7.97023 10.086 8.14974 10.086C8.77461 10.086 9.28121 9.49161 9.28121 8.75848C9.28121 8.02536 8.77461 6.66553 8.14974 6.66553Z" fill="#FCEFB9"/>
<path d="M9.22859 6.46745C9.15994 6.46745 9.09162 6.43905 9.04264 6.38291C8.80352 6.11068 8.44484 5.92822 8.14997 5.92822C7.8551 5.92822 7.49641 6.11101 7.25729 6.38291C7.16577 6.48704 7.00851 6.49617 6.9057 6.40347C6.8029 6.31077 6.79388 6.15148 6.8854 6.04736C7.2183 5.66839 7.71491 5.42358 8.14997 5.42358C8.58535 5.42358 9.08163 5.66839 9.41453 6.04736C9.50606 6.15148 9.49671 6.31077 9.39391 6.40347C9.34654 6.44623 9.28756 6.46745 9.22859 6.46745Z" fill="#FE76A8"/>
<path d="M4.82918 4.98464C4.79986 4.98464 4.76989 4.97942 4.74088 4.96832L3.54013 4.5071C3.41154 4.45781 3.34677 4.31223 3.39575 4.18199C3.44441 4.05176 3.58814 3.98615 3.71673 4.03544L4.91748 4.49666C5.04607 4.54594 5.11084 4.69152 5.06186 4.82176C5.02448 4.92262 4.92973 4.98464 4.82918 4.98464Z" fill="#FE5694"/>
<path d="M5.79493 3.56741C5.72629 3.56741 5.65764 3.53869 5.60834 3.48254L4.75691 2.50886C4.66571 2.40473 4.67538 2.24511 4.77818 2.15274C4.88099 2.06036 5.03857 2.07016 5.12977 2.17428L5.98152 3.14797C6.07272 3.2521 6.06305 3.41171 5.96025 3.50409C5.91256 3.54652 5.85358 3.56741 5.79493 3.56741Z" fill="#FE76A8"/>
<path d="M7.29958 2.76739C7.18776 2.76739 7.08592 2.69036 7.05788 2.57546L6.75044 1.31257C6.71757 1.17744 6.79911 1.04067 6.93252 1.00737C7.06594 0.97408 7.20097 1.05666 7.23384 1.1918L7.54128 2.45469C7.57415 2.58982 7.49262 2.72659 7.3592 2.75988C7.33954 2.76478 7.31924 2.76739 7.29958 2.76739Z" fill="#FE5694"/>
<path d="M9.00028 2.76739C8.98062 2.76739 8.96064 2.7651 8.94034 2.75988C8.80692 2.72659 8.72539 2.58982 8.75826 2.45469L9.0657 1.1918C9.09857 1.05666 9.2336 0.97408 9.36702 1.00737C9.50043 1.04067 9.58197 1.17744 9.54909 1.31257L9.24165 2.57546C9.21394 2.69036 9.1121 2.76739 9.00028 2.76739Z" fill="#FE76A8"/>
<path d="M10.5052 3.56741C10.4465 3.56741 10.3876 3.54652 10.3402 3.50409C10.2374 3.41171 10.2277 3.25242 10.3189 3.14797L11.1707 2.17428C11.2619 2.07016 11.4191 2.06036 11.5223 2.15274C11.6251 2.24511 11.6347 2.4044 11.5435 2.50886L10.6918 3.48254C10.6425 3.53869 10.5742 3.56741 10.5052 3.56741Z" fill="#FE5694"/>
<path d="M11.4704 4.98464C11.3699 4.98464 11.2754 4.92262 11.2374 4.82176C11.1888 4.69152 11.2532 4.54594 11.3818 4.49666L12.5825 4.03544C12.7111 3.98615 12.8549 4.05176 12.9035 4.18199C12.9522 4.31223 12.8877 4.45781 12.7592 4.5071L11.5584 4.96832C11.5294 4.97909 11.4997 4.98464 11.4704 4.98464Z" fill="#FE76A8"/>
<path d="M15.7059 16.0001H0.79406C0.355458 16.0001 0 15.64 0 15.1958V13.4155H15.5022L16.4999 15.1958C16.4999 15.64 16.1445 16.0001 15.7059 16.0001Z" fill="#FFE177"/>
<path d="M16.4998 13.4158V15.196C16.4998 15.6403 16.1443 16 15.7057 16H14.708C15.1466 16 15.5021 15.6403 15.5021 15.196V13.4158H16.4998Z" fill="#FFD15B"/>
<path d="M1.39755 14.5727C1.53513 14.5727 1.64666 14.4598 1.64666 14.3204C1.64666 14.1811 1.53513 14.0681 1.39755 14.0681C1.25997 14.0681 1.14844 14.1811 1.14844 14.3204C1.14844 14.4598 1.25997 14.5727 1.39755 14.5727Z" fill="#FFD15B"/>
<path d="M2.34237 15.094C2.47995 15.094 2.59148 14.981 2.59148 14.8417C2.59148 14.7023 2.47995 14.5894 2.34237 14.5894C2.20479 14.5894 2.09326 14.7023 2.09326 14.8417C2.09326 14.981 2.20479 15.094 2.34237 15.094Z" fill="#FFD15B"/>
<path d="M4.07968 14.959C4.21659 14.9453 4.31658 14.8217 4.30303 14.6831C4.28948 14.5444 4.16751 14.4431 4.0306 14.4568C3.8937 14.4706 3.7937 14.5941 3.80725 14.7328C3.8208 14.8714 3.94277 14.9727 4.07968 14.959Z" fill="#FFD15B"/>
<path d="M5.6285 15.094C5.76608 15.094 5.87762 14.981 5.87762 14.8417C5.87762 14.7023 5.76608 14.5894 5.6285 14.5894C5.49092 14.5894 5.37939 14.7023 5.37939 14.8417C5.37939 14.981 5.49092 15.094 5.6285 15.094Z" fill="#FFD15B"/>
<path d="M6.64462 14.5727C6.7822 14.5727 6.89373 14.4598 6.89373 14.3204C6.89373 14.1811 6.7822 14.0681 6.64462 14.0681C6.50704 14.0681 6.39551 14.1811 6.39551 14.3204C6.39551 14.4598 6.50704 14.5727 6.64462 14.5727Z" fill="#FFD15B"/>
<path d="M8.49081 14.9604C8.62839 14.9604 8.73992 14.8475 8.73992 14.7081C8.73992 14.5688 8.62839 14.4558 8.49081 14.4558C8.35323 14.4558 8.2417 14.5688 8.2417 14.7081C8.2417 14.8475 8.35323 14.9604 8.49081 14.9604Z" fill="#FFD15B"/>
<path d="M9.73983 14.9604C9.87741 14.9604 9.98894 14.8475 9.98894 14.7081C9.98894 14.5688 9.87741 14.4558 9.73983 14.4558C9.60225 14.4558 9.49072 14.5688 9.49072 14.7081C9.49072 14.8475 9.60225 14.9604 9.73983 14.9604Z" fill="#FFD15B"/>
<path d="M10.6988 14.5727C10.8364 14.5727 10.9479 14.4598 10.9479 14.3204C10.9479 14.1811 10.8364 14.0681 10.6988 14.0681C10.5612 14.0681 10.4497 14.1811 10.4497 14.3204C10.4497 14.4598 10.5612 14.5727 10.6988 14.5727Z" fill="#FFD15B"/>
<path d="M12.358 15.2602C12.4956 15.2602 12.6071 15.1473 12.6071 15.0079C12.6071 14.8686 12.4956 14.7556 12.358 14.7556C12.2204 14.7556 12.1089 14.8686 12.1089 15.0079C12.1089 15.1473 12.2204 15.2602 12.358 15.2602Z" fill="#FFD15B"/>
<path d="M14.2857 14.9604C14.4233 14.9604 14.5348 14.8475 14.5348 14.7081C14.5348 14.5688 14.4233 14.4558 14.2857 14.4558C14.1482 14.4558 14.0366 14.5688 14.0366 14.7081C14.0366 14.8475 14.1482 14.9604 14.2857 14.9604Z" fill="#FFD15B"/>
<path d="M15.2462 15.4048C15.3838 15.4048 15.4953 15.2918 15.4953 15.1525C15.4953 15.0131 15.3838 14.9001 15.2462 14.9001C15.1086 14.9001 14.9971 15.0131 14.9971 15.1525C14.9971 15.2918 15.1086 15.4048 15.2462 15.4048Z" fill="#FFD15B"/>
</svg>
