<svg width="58" height="58" viewBox="0 0 58 58" fill="none" xmlns="http://www.w3.org/2000/svg">
<g clip-path="url(#clip0_3278_2065)">
<path d="M53.651 24.6977V28.137L50.6639 29.4719L29.643 38.8635L4.34863 28.137V24.6623C4.34863 23.1674 5.68134 22.0435 7.12189 22.3193C11.2346 23.1056 18.6319 24.1333 20.1803 21.7265C24.24 15.4102 33.1568 15.4102 37.2165 21.7265C38.7389 24.093 45.129 23.4079 49.4766 22.6236C49.9648 22.5343 50.428 22.446 50.8546 22.3586C52.3028 22.0661 53.651 23.1929 53.651 24.6977Z" fill="#FFCEBF"/>
<path d="M41.1311 23.3068C38.0526 23.4953 35.1859 23.2106 34.2316 21.7275C32.5138 19.0547 29.9263 17.5137 27.2061 17.1024C30.9162 16.5409 34.8749 18.083 37.2177 21.7275C37.8494 22.709 39.3179 23.1655 41.1311 23.3068Z" fill="#FFB09E"/>
<path d="M53.6509 24.6978V28.1371L50.6639 29.472V24.6987C50.6639 23.7957 50.1786 23.0291 49.4775 22.6247C49.9657 22.5354 50.4289 22.4471 50.8555 22.3597C52.3028 22.0662 53.6509 23.193 53.6509 24.6978Z" fill="#FFB09E"/>
<path d="M50.6639 28.137L53.651 43.3354L28.9998 45.2975L4.34863 43.3354V28.137H17.9405C20.0599 28.137 21.097 28.8879 21.0931 29.8076C21.0931 29.8174 21.0931 29.8262 21.0931 29.836C21.0931 32.7542 23.254 35.8922 27.1837 35.8922C27.6623 36.0149 28.162 36.0807 28.6772 36.0807C32.0562 36.0807 34.8044 33.2783 34.8044 29.836C34.8044 29.8301 34.8044 29.8243 34.8044 29.8184C34.8015 28.8937 35.5208 28.137 36.4279 28.137H50.6639Z" fill="#DFA8D2"/>
<path d="M27.1846 35.8922C26.707 36.0159 26.2063 36.0807 25.6921 36.0807C22.3141 36.0807 19.5659 33.2783 19.5659 29.836V29.8076C19.5688 28.8888 18.8447 28.137 17.9424 28.137H20.9294C21.8326 28.137 22.5568 28.8879 22.552 29.8076V29.836C22.551 32.7542 24.526 35.212 27.1846 35.8922Z" fill="#D691C6"/>
<path d="M53.6511 28.137V43.3354L50.6641 45.4133V28.137H53.6511Z" fill="#D691C6"/>
<path d="M41.1031 34.2727L39.9264 35.4378V34.8165C39.9264 34.6702 39.885 34.5279 39.808 34.4052L38.3029 32.0269C38.0804 31.6745 37.6192 31.5734 37.2745 31.8012C36.9288 32.0279 36.8296 32.4981 37.053 32.8495L38.4387 35.0393V43.3344C38.4387 43.7536 38.7718 44.0932 39.183 44.0932C39.5942 44.0932 39.9274 43.7536 39.9274 43.3344V37.5531L42.1412 35.3603C42.4358 35.0688 42.4426 34.5878 42.1556 34.2874C41.8686 33.9871 41.3978 33.9812 41.1031 34.2727Z" fill="#D691C6"/>
<path d="M47.9603 36.4763C47.6242 36.2348 47.1601 36.3163 46.9232 36.6579L45.9111 38.1184L45.0031 36.6844C44.7806 36.332 44.3194 36.2309 43.9747 36.4586C43.629 36.6854 43.5298 37.1555 43.7532 37.5069L45.1398 39.6968V43.3344C45.1398 43.7535 45.473 44.0932 45.8842 44.0932C46.2953 44.0932 46.6285 43.7535 46.6285 43.3344V39.7144L48.1394 37.5334C48.3763 37.1919 48.2963 36.7187 47.9603 36.4763Z" fill="#D691C6"/>
<path d="M11.3538 36.4763C11.0178 36.2348 10.5536 36.3163 10.3167 36.6579L9.30469 38.1184L8.39664 36.6844C8.1742 36.332 7.71295 36.2309 7.36822 36.4586C7.02253 36.6854 6.92335 37.1555 7.14675 37.5069L8.53338 39.6968V43.3344C8.53338 43.7535 8.86655 44.0932 9.27773 44.0932C9.6889 44.0932 10.0221 43.7535 10.0221 43.3344V39.7144L11.5329 37.5334C11.7688 37.1919 11.6889 36.7187 11.3538 36.4763Z" fill="#D691C6"/>
<path d="M19.1632 35.6537C18.8724 35.3573 18.4015 35.3573 18.1107 35.6537C17.8199 35.9501 17.8199 36.4301 18.1107 36.7266L19.3298 37.9692V43.3354C19.3298 43.7545 19.6629 44.0941 20.0741 44.0941C20.4853 44.0941 20.8185 43.7545 20.8185 43.3354V37.6551C20.8185 37.4539 20.7405 37.2615 20.6008 37.1192L19.1632 35.6537Z" fill="#D691C6"/>
<path d="M30.6925 29.4484C30.6925 31.6529 27.2057 32.9113 27.2057 32.9113C26.0877 32.2605 25.3184 30.9011 25.3184 29.3296C25.3184 27.7581 26.0877 25.2296 27.2057 23.9065C27.2057 23.9065 30.6925 27.2438 30.6925 29.4484Z" fill="#FFF9DF"/>
<path d="M28.6996 23.0369C28.1632 23.0369 27.6567 23.3745 27.2061 23.9075C28.324 25.2306 29.0934 27.7591 29.0934 29.3306C29.0934 30.9021 28.324 32.2615 27.2061 32.9123C27.6567 33.1744 28.1632 33.3226 28.6996 33.3226C30.5667 33.3226 32.0804 31.5352 32.0804 29.3306C32.0804 27.126 30.5667 23.0369 28.6996 23.0369Z" fill="#FCEFB9"/>
<path d="M31.9226 22.442C31.7175 22.442 31.5133 22.3566 31.367 22.1878C30.6525 21.3692 29.5807 20.8205 28.6996 20.8205C27.8185 20.8205 26.7468 21.3701 26.0323 22.1878C25.7588 22.5009 25.2889 22.5284 24.9817 22.2496C24.6746 21.9708 24.6476 21.4918 24.9211 21.1787C25.9158 20.0391 27.3997 19.303 28.6996 19.303C30.0006 19.303 31.4835 20.0391 32.4782 21.1787C32.7517 21.4918 32.7237 21.9708 32.4166 22.2496C32.275 22.3782 32.0988 22.442 31.9226 22.442Z" fill="#FE76A8"/>
<path d="M18.7773 17.982C18.6897 17.982 18.6001 17.9663 18.5135 17.9329L14.9256 16.546C14.5414 16.3978 14.3478 15.96 14.4942 15.5684C14.6396 15.1767 15.0691 14.9794 15.4533 15.1277L19.0412 16.5146C19.4254 16.6628 19.6189 17.1006 19.4726 17.4922C19.3609 17.7955 19.0778 17.982 18.7773 17.982Z" fill="#FE5694"/>
<path d="M21.6636 13.721C21.4585 13.721 21.2534 13.6347 21.1061 13.4658L18.562 10.5378C18.2895 10.2247 18.3184 9.74475 18.6255 9.46697C18.9327 9.18919 19.4036 9.21864 19.6761 9.53175L22.2211 12.4597C22.4937 12.7728 22.4648 13.2528 22.1576 13.5306C22.0151 13.6582 21.8389 13.721 21.6636 13.721Z" fill="#FE76A8"/>
<path d="M26.1597 11.3152C25.8255 11.3152 25.5212 11.0836 25.4375 10.7381L24.5188 6.94042C24.4206 6.53405 24.6642 6.12278 25.0629 6.02266C25.4615 5.92255 25.865 6.17088 25.9632 6.57724L26.8819 10.3749C26.9801 10.7812 26.7365 11.1925 26.3378 11.2926C26.2791 11.3074 26.2184 11.3152 26.1597 11.3152Z" fill="#FE5694"/>
<path d="M31.24 11.3152C31.1813 11.3152 31.1216 11.3083 31.0609 11.2926C30.6623 11.1925 30.4187 10.7812 30.5169 10.3749L31.4355 6.57724C31.5337 6.17088 31.9372 5.92255 32.3359 6.02266C32.7345 6.12278 32.9781 6.53405 32.8799 6.94042L31.9613 10.7381C31.8785 11.0836 31.5742 11.3152 31.24 11.3152Z" fill="#FE76A8"/>
<path d="M35.7358 13.721C35.5605 13.721 35.3843 13.6582 35.2427 13.5306C34.9355 13.2528 34.9067 12.7738 35.1792 12.4597L37.7242 9.53175C37.9967 9.21864 38.4666 9.18919 38.7748 9.46697C39.082 9.74475 39.1108 10.2237 38.8383 10.5378L36.2933 13.4658C36.146 13.6347 35.9418 13.721 35.7358 13.721Z" fill="#FE5694"/>
<path d="M38.6216 17.982C38.3212 17.982 38.0391 17.7955 37.9254 17.4922C37.78 17.1006 37.9726 16.6628 38.3568 16.5146L41.9447 15.1277C42.3289 14.9794 42.7584 15.1767 42.9038 15.5684C43.0492 15.96 42.8566 16.3978 42.4724 16.546L38.8845 17.9329C38.7979 17.9653 38.7093 17.982 38.6216 17.982Z" fill="#FE76A8"/>
<path d="M51.2783 51.1064H6.72131C5.41075 51.1064 4.34863 50.0238 4.34863 48.6879V43.3345H50.6697L53.651 48.6879C53.651 50.0238 52.5888 51.1064 51.2783 51.1064Z" fill="#FFE177"/>
<path d="M53.6508 43.3354V48.6889C53.6508 50.0247 52.5887 51.1064 51.2781 51.1064H48.2969C49.6074 51.1064 50.6696 50.0247 50.6696 48.6889V43.3354H53.6508Z" fill="#FFD15B"/>
<path d="M8.52462 46.8141C8.93572 46.8141 9.26897 46.4744 9.26897 46.0554C9.26897 45.6363 8.93572 45.2966 8.52462 45.2966C8.11353 45.2966 7.78027 45.6363 7.78027 46.0554C7.78027 46.4744 8.11353 46.8141 8.52462 46.8141Z" fill="#FFD15B"/>
<path d="M11.3488 48.3817C11.7599 48.3817 12.0932 48.042 12.0932 47.623C12.0932 47.204 11.7599 46.8643 11.3488 46.8643C10.9377 46.8643 10.6045 47.204 10.6045 47.623C10.6045 48.042 10.9377 48.3817 11.3488 48.3817Z" fill="#FFD15B"/>
<path d="M16.5416 47.9756C16.9507 47.9343 17.2495 47.5628 17.209 47.1458C17.1685 46.7288 16.8041 46.4243 16.395 46.4655C15.9859 46.5068 15.6871 46.8783 15.7276 47.2953C15.7681 47.7123 16.1326 48.0169 16.5416 47.9756Z" fill="#FFD15B"/>
<path d="M21.1662 48.3817C21.5773 48.3817 21.9106 48.042 21.9106 47.623C21.9106 47.204 21.5773 46.8643 21.1662 46.8643C20.7551 46.8643 20.4219 47.204 20.4219 47.623C20.4219 48.042 20.7551 48.3817 21.1662 48.3817Z" fill="#FFD15B"/>
<path d="M24.2043 46.8141C24.6154 46.8141 24.9487 46.4744 24.9487 46.0554C24.9487 45.6363 24.6154 45.2966 24.2043 45.2966C23.7932 45.2966 23.46 45.6363 23.46 46.0554C23.46 46.4744 23.7932 46.8141 24.2043 46.8141Z" fill="#FFD15B"/>
<path d="M29.718 47.9801C30.1291 47.9801 30.4623 47.6404 30.4623 47.2214C30.4623 46.8023 30.1291 46.4626 29.718 46.4626C29.3069 46.4626 28.9736 46.8023 28.9736 47.2214C28.9736 47.6404 29.3069 47.9801 29.718 47.9801Z" fill="#FFD15B"/>
<path d="M33.4514 47.9801C33.8625 47.9801 34.1957 47.6404 34.1957 47.2214C34.1957 46.8023 33.8625 46.4626 33.4514 46.4626C33.0403 46.4626 32.707 46.8023 32.707 47.2214C32.707 47.6404 33.0403 47.9801 33.4514 47.9801Z" fill="#FFD15B"/>
<path d="M36.3176 46.8141C36.7287 46.8141 37.0619 46.4744 37.0619 46.0554C37.0619 45.6363 36.7287 45.2966 36.3176 45.2966C35.9065 45.2966 35.5732 45.6363 35.5732 46.0554C35.5732 46.4744 35.9065 46.8141 36.3176 46.8141Z" fill="#FFD15B"/>
<path d="M41.2736 48.8822C41.6847 48.8822 42.018 48.5425 42.018 48.1235C42.018 47.7044 41.6847 47.3647 41.2736 47.3647C40.8626 47.3647 40.5293 47.7044 40.5293 48.1235C40.5293 48.5425 40.8626 48.8822 41.2736 48.8822Z" fill="#FFD15B"/>
<path d="M47.0354 47.9801C47.4465 47.9801 47.7797 47.6404 47.7797 47.2214C47.7797 46.8023 47.4465 46.4626 47.0354 46.4626C46.6243 46.4626 46.291 46.8023 46.291 47.2214C46.291 47.6404 46.6243 47.9801 47.0354 47.9801Z" fill="#FFD15B"/>
<path d="M49.9035 49.317C50.3146 49.317 50.6479 48.9773 50.6479 48.5583C50.6479 48.1393 50.3146 47.7996 49.9035 47.7996C49.4924 47.7996 49.1592 48.1393 49.1592 48.5583C49.1592 48.9773 49.4924 49.317 49.9035 49.317Z" fill="#FFD15B"/>
</g>
<defs>
<clipPath id="clip0_3278_2065">
<rect width="49.3023" height="45.1064" fill="white" transform="translate(4.34863 6)"/>
</clipPath>
</defs>
</svg>
