<svg width="15" height="9" viewBox="0 0 15 9" fill="none" xmlns="http://www.w3.org/2000/svg">
<path d="M13.9313 1.6125L7.63125 7.93125C7.55625 8.00625 7.475 8.0595 7.3875 8.091C7.3 8.1225 7.20625 8.138 7.10625 8.1375C7.00625 8.1375 6.9125 8.122 6.825 8.091C6.7375 8.06 6.65625 8.00675 6.58125 7.93125L0.2625 1.6125C0.0874996 1.4375 -3.02429e-07 1.21875 -3.13903e-07 0.956251C-3.25377e-07 0.693751 0.0937497 0.468751 0.28125 0.281251C0.46875 0.0937509 0.6875 9.23623e-07 0.9375 9.12695e-07C1.1875 9.01767e-07 1.40625 0.0937509 1.59375 0.281251L7.10625 5.79375L12.6188 0.28125C12.7938 0.10625 13.0095 0.0187506 13.266 0.0187506C13.5225 0.0187506 13.7442 0.112501 13.9313 0.300001C14.1188 0.487501 14.2125 0.70625 14.2125 0.956251C14.2125 1.20625 14.1188 1.425 13.9313 1.6125Z" fill="#088F8F"/>
</svg>
