<svg width="58" height="58" viewBox="0 0 58 58" fill="none" xmlns="http://www.w3.org/2000/svg">
<g clip-path="url(#clip0_2558_2694)">
<g clip-path="url(#clip1_2558_2694)">
<path d="M16.8141 52.2607C6.61394 52.8912 3.02441 45.0013 3.02441 45.0013C3.02441 45.0013 10.0242 46.0008 8.0249 29.0024C5.22407 5.16289 20.0251 1.00293 29.0253 1.00293C38.0255 1.00293 52.8254 5.16289 50.0257 29.0012C48.0253 46.0008 55.0262 45.0001 55.0262 45.0001C55.0262 45.0001 51.4367 52.89 41.2365 52.2595L16.8141 52.2607Z" fill="#A56A43"/>
<path d="M44.0255 26.0015C45.6826 26.0015 47.0256 27.3444 47.0256 29.0013C47.0256 30.6583 45.6826 32.0012 44.0255 32.0012H14.025C12.3679 32.0012 11.0249 30.6583 11.0249 29.0013C11.0249 27.3444 12.3679 26.0015 14.025 26.0015H44.0255Z" fill="#F9C795"/>
<path d="M26.0253 41.8503V45.0002C25.9246 46.2798 25.1675 47.4141 24.0249 48.0001C21.1889 48.9445 14.7775 51.6784 14.086 57.8879C14.0286 58.441 14.4294 58.9367 14.9825 58.9941C15.0165 58.9976 15.0517 58.9999 15.0857 58.9999H42.9639C43.5206 58.9988 43.9706 58.5476 43.9694 57.991C43.9694 57.957 43.9671 57.9219 43.9636 57.8879C43.271 51.6784 36.863 48.9457 34.0247 48.0001C32.8833 47.4141 32.1262 46.2798 32.0243 45.0002V41.8503H26.0253Z" fill="#9FC9D3"/>
<path d="M41.9256 18.6014C35.8177 15.5781 34.0259 11.1111 34.0259 11.1111C29.4063 17.2713 20.6334 18.6881 16.8447 19.0103C15.8134 19.1006 15.0224 19.9654 15.0259 21.0013V29.0013C15.0259 36.181 20.8467 42.0003 28.0258 42.0003H30.0262C37.2064 42.0003 43.026 36.1798 43.026 29.0013V20.3825C43.0249 19.629 42.5995 18.9388 41.9256 18.6014Z" fill="#FDD7AD"/>
<path d="M24.0249 29.0014C23.4729 29.0014 23.0252 28.5537 23.0252 28.0018C23.0252 27.4499 22.5776 27.0023 22.0256 27.0023C21.4736 27.0023 21.026 27.4499 21.026 28.0018C21.026 28.5537 20.5783 29.0014 20.0263 29.0014C18.1173 29.0014 19.0513 25.002 22.0268 25.002C25.0022 25.002 25.9444 29.0014 24.0249 29.0014Z" fill="#3F5C6C"/>
<path d="M38.0253 29.0014C37.4734 29.0014 37.0257 28.5537 37.0257 28.0018C37.0257 27.4499 36.5781 27.0023 36.0261 27.0023C35.4741 27.0023 35.0265 27.4499 35.0265 28.0018C35.0265 28.5537 34.5788 29.0014 34.0268 29.0014C32.1178 29.0014 33.0518 25.002 36.0273 25.002C39.0027 25.002 39.9437 29.0014 38.0253 29.0014Z" fill="#3F5C6C"/>
<path d="M19.0242 24.0013C18.4723 24.0013 18.0234 23.5548 18.0234 23.0017C18.0234 22.5705 18.2988 22.1885 18.7078 22.0525L21.7079 21.053C22.2329 20.8784 22.7989 21.162 22.9735 21.6869C23.1481 22.2119 22.8645 22.7779 22.3395 22.9525C19.125 24.0235 19.2528 24.0013 19.0242 24.0013Z" fill="#A56A43"/>
<path d="M39.0249 24.0012C38.7917 24.0012 38.9476 24.0305 35.7085 22.9501C35.1835 22.7755 34.8999 22.2083 35.0745 21.6845C35.2491 21.1595 35.8163 20.8759 36.3401 21.0505L39.3402 22.0501C39.8652 22.2212 40.1523 22.7848 39.9824 23.3098C39.8476 23.7246 39.4609 24.0047 39.0249 24.0012Z" fill="#A56A43"/>
<path d="M30.025 34.0016H28.0245C27.4726 34.0016 27.0249 33.5539 27.0249 33.002C27.0249 32.4501 27.4726 32.0024 28.0245 32.0024H30.025C30.5769 32.0024 31.0246 32.4501 31.0246 33.002C31.0246 33.5539 30.5769 34.0016 30.025 34.0016Z" fill="#F9C795"/>
<path d="M34.0247 38.0009C33.7622 37.9997 33.5103 37.8954 33.3251 37.7103C32.9735 37.347 32.52 37.0998 32.0255 37.0013C31.4032 37.0013 30.2829 38.0009 29.0254 38.0009C28.3387 37.9564 27.6707 37.7513 27.0789 37.4009C26.7554 37.2029 26.3992 37.0669 26.0254 37.0013C25.5296 37.1009 25.0761 37.3482 24.7257 37.7114C24.3273 38.0946 23.6944 38.0817 23.3112 37.6845C22.9374 37.2966 22.9386 36.6814 23.3148 36.2947C24.039 35.5588 24.9988 35.1018 26.0254 35.0022C26.7121 35.0467 27.3801 35.2518 27.9719 35.6022C28.2953 35.8002 28.6516 35.9361 29.0254 36.0018C29.6477 36.0018 30.768 35.0022 32.0255 35.0022C33.0509 35.103 34.0095 35.56 34.7326 36.2947C35.1228 36.6849 35.1228 37.3189 34.7326 37.7091C34.5439 37.8954 34.2908 38.0009 34.0247 38.0009Z" fill="#F09372"/>
<path d="M55.954 40.627C55.4021 40.627 54.9544 40.1794 54.9544 39.6274C54.9544 39.386 55.0423 39.1517 55.2017 38.97C56.1732 37.8486 56.1849 36.1881 55.2298 35.0526L54.7364 34.4726C53.145 32.5801 53.1649 29.8123 54.7821 27.9432L55.2825 27.3714C56.254 26.2499 56.2658 24.5883 55.3107 23.454L54.8173 22.8739C53.227 20.9814 53.2458 18.2147 54.863 16.3457C55.2286 15.932 55.8603 15.8922 56.274 16.2578C56.6853 16.6211 56.7275 17.2468 56.3689 17.6616C55.3986 18.7831 55.3868 20.4436 56.3408 21.579L56.8341 22.1591C58.4244 24.0516 58.4056 26.8183 56.7884 28.6873L56.288 29.2603C55.3165 30.3818 55.3048 32.0434 56.2599 33.1777L56.7533 33.7578C58.3435 35.6503 58.3248 38.4169 56.7076 40.286C56.5165 40.5028 56.2423 40.627 55.954 40.627Z" fill="#4482C3"/>
<path d="M2.60463 40.6212C2.05266 40.6212 1.605 40.1724 1.605 39.6205C1.605 39.3838 1.68938 39.1541 1.84289 38.9737C2.79916 37.8405 2.79096 36.18 1.82297 35.0563L1.32257 34.4821C-0.291132 32.6107 -0.307539 29.8428 1.28507 27.9539L1.77961 27.375C2.73588 26.2407 2.7265 24.5802 1.75617 23.4576L1.25577 22.8846C-0.359102 21.0132 -0.375509 18.2465 1.21827 16.3564C1.57687 15.9357 2.2097 15.8865 2.62924 16.245C3.04878 16.6036 3.09917 17.2364 2.74057 17.6559C1.7843 18.7902 1.79367 20.4507 2.76283 21.5733L3.26323 22.1475C4.87811 24.0189 4.89452 26.7867 3.30073 28.6757L2.80737 29.2558C1.8511 30.3889 1.86047 32.0494 2.82963 33.1731L3.33003 33.7473C4.94491 35.6187 4.96131 38.3866 3.36753 40.2756C3.17651 40.4959 2.8976 40.6224 2.60463 40.6212Z" fill="#4482C3"/>
<path d="M47.4296 57.9757C46.8788 57.9289 46.471 57.4461 46.5167 56.8953C46.5636 56.3446 47.0464 55.9368 47.5972 55.9825C49.0843 56.0352 50.5082 55.3719 51.4246 54.2001L51.8078 53.6529C53.1297 51.8928 55.2426 50.9061 57.4411 51.0221L58.1103 51.0796C58.6587 51.1405 59.0548 51.635 58.9939 52.1834C58.9353 52.7131 58.47 53.1045 57.938 53.0717L57.2712 53.0142C55.7829 52.9592 54.359 53.6236 53.4461 54.7989L53.0629 55.3462C51.7387 57.1051 49.6281 58.0906 47.4296 57.9757Z" fill="#4482C3"/>
<path d="M4.98707 55.3463L4.60151 54.8002C3.68626 53.6261 2.2624 52.9617 0.774093 53.0144L0.109627 53.0718C-0.438821 53.1327 -0.933362 52.7367 -0.994301 52.1883C-1.05524 51.6398 -0.659138 51.1453 -0.11069 51.0844C-0.0942833 51.0821 -0.0790487 51.0809 -0.0626422 51.0797L0.604168 51.0223C2.80265 50.9086 4.91324 51.893 6.23865 53.6507L6.62421 54.1991C7.54063 55.3733 8.96332 56.0377 10.4516 55.985C11.0024 55.9381 11.4852 56.3471 11.5321 56.8978C11.579 57.4486 11.17 57.9314 10.6192 57.9782C8.42073 58.0931 6.31014 57.1064 4.98707 55.3463Z" fill="#4482C3"/>
<path d="M4.52395 11.6127C3.97198 11.6139 3.52314 11.1674 3.52197 10.6155C3.52197 10.5909 3.52314 10.5663 3.52432 10.5417L3.57236 9.87373C3.8044 7.68359 5.11224 5.75243 7.05876 4.7224L7.65877 4.4271C8.96427 3.70878 9.84436 2.40689 10.0237 0.928047C10.0647 0.37612 10.5452 -0.0387046 11.0971 0.00230908C11.6491 0.0433228 12.0639 0.523769 12.0229 1.0757C11.7897 3.26349 10.4866 5.1923 8.54238 6.22468L7.94237 6.5188C6.63922 7.2383 5.75913 8.5402 5.57983 10.019L5.53295 10.6835C5.49545 11.2119 5.05247 11.6186 4.52395 11.6127Z" fill="#4482C3"/>
<path d="M53.5247 11.6129C52.9985 11.614 52.5625 11.2086 52.525 10.6836L52.477 10.0168C52.2977 8.538 51.4164 7.23494 50.1109 6.51661L49.5109 6.22483C47.5656 5.1948 46.2589 3.26598 46.0245 1.07702C45.9835 0.525089 46.3984 0.0434711 46.9503 0.00362916C47.5023 -0.0362127 47.9839 0.37744 48.0238 0.929368C48.2043 2.40821 49.0844 3.71127 50.3898 4.4296L50.9899 4.72021C52.9352 5.75141 54.2407 7.6814 54.4727 9.87153L54.5208 10.5418C54.5606 11.0926 54.1458 11.5718 53.595 11.6117C53.5727 11.6117 53.5493 11.6129 53.5247 11.6129Z" fill="#4482C3"/>
<path d="M38.2948 49.95C37.1545 51.13 34.4943 53.0002 29.0251 53.0002C23.5558 53.0002 20.8945 51.13 19.7554 49.95C21.1031 49.1461 22.5351 48.4922 24.0258 48.0001C25.1672 47.4141 25.9242 46.2798 26.0262 45.0002V41.8503H32.0263V45.0002C32.1271 46.2798 32.8841 47.4141 34.0267 48.0001C35.5151 48.4922 36.9471 49.1461 38.2948 49.95Z" fill="#F9C795"/>
</g>
</g>
<defs>
<clipPath id="clip0_2558_2694">
<rect width="58" height="58" fill="white"/>
</clipPath>
<clipPath id="clip1_2558_2694">
<rect width="60" height="59" fill="white" transform="translate(-1)"/>
</clipPath>
</defs>
</svg>
