<svg width="58" height="58" viewBox="0 0 58 58" fill="none" xmlns="http://www.w3.org/2000/svg">
<g clip-path="url(#clip0_3278_2134)">
<path d="M31.4131 31.7241C31.4131 31.7241 41.4505 34.7263 43.4894 37.4116C44.5634 38.8284 46.4531 43.4546 47.2386 49.5138L39.7766 54.9982H20.0244L5.66406 49.5158C6.44959 43.4566 8.3393 38.8304 9.41322 37.4137C11.4522 34.7243 21.4896 31.7262 21.4896 31.7262L31.4131 31.7241Z" fill="#348FD9"/>
<path d="M21.4902 30.0077V31.7241C21.4923 34.4825 23.7127 36.7179 26.4515 36.7189C29.1922 36.7189 31.4137 34.4815 31.4137 31.721V30.0046L21.4902 30.0077Z" fill="#F4B184"/>
<path d="M21.4902 30.0075C23.1672 31.1775 25.1668 31.7869 26.4515 31.7869C27.7361 31.7869 29.7368 31.1775 31.4137 30.0075V28.1235H21.4902V30.0075Z" fill="#EDA370"/>
<path d="M17.0335 14.7092C15.1811 14.7113 13.6806 16.2256 13.6816 18.0913C13.6837 19.957 15.1872 21.4682 17.0395 21.4672C17.3259 21.4672 17.6113 21.4296 17.8876 21.3565L18.291 18.0882L17.0335 14.7092Z" fill="#F4B184"/>
<path d="M35.8707 14.7092C37.7231 14.7113 39.2236 16.2256 39.2226 18.0913C39.2206 19.957 37.7171 21.4682 35.8647 21.4672C35.5783 21.4672 35.2929 21.4296 35.0166 21.3565L34.6133 18.0882L35.8707 14.7092Z" fill="#F4B184"/>
<path d="M35.8666 14.7091L30.2469 8.6814L17.0371 14.7112C17.0371 14.7711 17.0936 15.4505 17.1995 16.455L19.4542 17.7001L35.07 17.3721L35.7174 16.3961C35.8233 15.3805 35.8737 14.7183 35.8747 14.7071L35.8666 14.7091Z" fill="#F4BA92"/>
<path d="M35.0658 16.4581C33.9143 16.4581 32.7103 15.927 31.3863 14.8331C30.7681 14.3142 30.1883 13.7495 29.6518 13.1452C29.4784 12.9492 29.187 12.9146 28.9722 13.0639C26.6832 14.6574 22.9673 16.7852 19.4501 16.7852C18.6867 16.7892 17.9264 16.6775 17.1953 16.4541C17.4403 18.7829 17.9738 22.8627 18.8702 25.0402C20.1721 28.2028 24.3074 29.8989 26.4512 29.8989C28.5951 29.8989 32.7304 28.2039 34.0322 25.0392C34.9398 22.8434 35.4712 18.7128 35.7132 16.3952C35.4994 16.4368 35.2826 16.4581 35.0658 16.4581Z" fill="#FFC89F"/>
<path d="M28.3306 24.3912C28.609 24.3912 28.8348 24.1637 28.8338 23.8823C28.8338 23.8326 28.8268 23.7828 28.8127 23.7361C28.5757 22.9703 27.9777 21.8064 26.5408 21.8064C25.1038 21.8064 24.5059 22.9723 24.2679 23.7361C24.1872 24.0042 24.3375 24.2876 24.6047 24.3698C24.6521 24.3841 24.7015 24.3922 24.7509 24.3912H28.3306Z" fill="#FF636E"/>
<path d="M30.2392 11.4237C29.8872 10.992 29.262 10.9138 28.8163 11.2449C26.729 12.7958 21.0095 16.5709 17.0183 14.7092C13.8792 13.2447 16.6653 4.95314 22.2619 3.449C28.2708 1.83517 31.1628 5.08822 31.1628 5.08822C31.1628 5.08822 33.4216 4.79877 35.03 6.55377C37.2484 8.97705 37.6598 13.8419 35.8528 14.7092C33.9903 15.607 31.4089 12.8517 30.2392 11.4237Z" fill="#848484"/>
<path d="M39.8311 49.5156L40.5601 54.0859L41.3477 55H47.0884C47.3667 55 47.5926 54.7725 47.5926 54.4922C47.5926 54.4891 47.5926 54.4861 47.5926 54.483C47.5704 52.8215 47.4524 51.163 47.2376 49.5156H39.8311Z" fill="#FFC89F"/>
<path d="M13.0721 49.5156H5.66453C5.45076 51.163 5.33278 52.8205 5.31059 54.481C5.30857 54.6334 5.37513 54.7786 5.49109 54.8761L11.252 52.2578L13.0197 49.8823L13.0721 49.5156Z" fill="#F4B184"/>
<path d="M37.3232 27.4238C37.3232 29 38.4718 29.6815 39.3924 29.6815C39.7958 29.6815 41.6976 29.6521 42.101 29.6521C43.1386 29.6521 44.397 28.8314 44.397 27.1851C44.0764 26.3919 43.3735 25.8191 42.5366 25.6678C42.2482 24.4104 41.0028 23.6274 39.7555 23.9168C38.5646 24.1941 37.7911 25.3539 37.9878 26.5697C37.7014 26.7972 37.4735 27.0897 37.3232 27.4238Z" fill="#F0F0F0"/>
<path d="M8.97727 26.3412C8.94298 27.8901 10.1621 29.1738 11.6999 29.2083H13.6269C14.5345 29.2083 15.679 28.1176 15.679 26.9658C15.3825 26.3118 14.7966 25.8385 14.0988 25.6872C13.2236 24.3526 11.4387 23.986 10.1137 24.8676C9.58532 25.22 9.186 25.7379 8.98029 26.3412H8.97727Z" fill="#F0F0F0"/>
<path d="M34.1193 38.3337C34.1193 39.715 35.2547 40.5681 36.1622 40.5681C37.0698 40.5681 38.2042 39.9364 38.2042 38.3337C37.6869 37.1962 36.3528 36.6966 35.2234 37.2176C34.7334 37.4441 34.3401 37.8401 34.1152 38.3337H34.1193Z" fill="#F0F0F0"/>
<path d="M52.5741 4.08672C52.5963 3.50883 52.1486 3.02234 51.5748 3.00102C51.5617 3.00102 51.5486 3 51.5355 3H48.6434C48.107 3 47.6583 3.41133 47.6078 3.94961L47.5947 4.08672L49.9896 5.00078L52.5741 4.08672Z" fill="#E2E2E2"/>
<path d="M52.3937 6.08145L52.5742 4.15176C52.5742 4.13145 52.5742 4.11113 52.5742 4.09082H47.5948L47.4062 6.08551L49.9272 6.99957L52.3937 6.08145Z" fill="#CCCCCC"/>
<path d="M46.2948 16.3047L47.3031 14.9539L46.5116 13.4539H44.0854C43.2232 13.4539 42.5244 14.1577 42.5244 15.026V16.3047L44.5805 17.2188L46.2948 16.3047Z" fill="#E2E2E2"/>
<path d="M42.5244 16.3047V16.6155C42.5244 17.4838 43.2232 18.1877 44.0854 18.1887H46.1495L47.1297 17.2462L46.2948 16.3047H42.5244Z" fill="#CCCCCC"/>
<path d="M49.0499 17.2188C50.626 17.2188 51.8552 16.062 52.1456 13.5677L52.6861 6.52126C52.7073 6.24197 52.4996 5.9972 52.2212 5.97587C52.2081 5.97486 52.195 5.97486 52.1819 5.97486H47.5534C47.2892 5.97384 47.0694 6.17798 47.0493 6.44306L46.293 16.3048L49.0499 17.2188Z" fill="#348FD9"/>
<path d="M49.0505 16.3048H46.2956L46.1504 18.1888H48.9013C50.5308 18.1878 51.8861 16.9254 52.0151 15.2892L52.1462 13.5718C51.9395 15.1358 50.6165 16.3038 49.0505 16.3048Z" fill="#2F86C1"/>
<path d="M22.3383 53.0988C23.5393 52.2426 25.1426 52.4894 28.4138 50.7435C29.9354 49.931 30.5032 47.3453 30.2692 45.2175C29.7055 46.8669 28.7123 47.6317 27.6041 48.1628C24.5275 49.6426 21.9017 49.5512 20.7007 50.4074C20.2308 50.7425 17.0332 53.4685 17.0332 53.4685V55H20.0251C20.8822 54.2546 21.7948 53.4857 22.3383 53.0988Z" fill="#2F86C1"/>
<path d="M12.8534 51.9614C12.8202 51.9614 12.7859 51.9594 12.7526 51.9543C12.3251 51.8965 12.0256 51.5014 12.082 51.0707L12.8363 45.4005C12.9291 44.976 13.3445 44.7079 13.766 44.8013C14.1391 44.8836 14.3983 45.2258 14.3781 45.6097L13.6238 51.2789C13.5724 51.6689 13.2437 51.9594 12.8534 51.9614Z" fill="#1E73BA"/>
<path d="M28.4137 48.8566C30.97 47.4977 30.8338 41.1145 28.7304 40.3375C26.6269 39.5606 21.2683 43.1224 21.2683 43.1224C21.6717 40.3944 20.3971 39.7343 19.4886 40.1923C18.8523 40.5122 18.3924 42.1332 18.099 43.5957C17.7602 45.3029 16.9273 46.8721 15.7041 48.103L5.49121 54.8782C5.58096 54.9564 5.69591 55.0001 5.8149 55.0001H17.0331C17.0331 55.0001 20.2398 52.0893 21.4902 51.1976C22.6912 50.3414 25.1425 50.5974 28.4137 48.8566Z" fill="#FFC89F"/>
<path d="M39.7735 55.0001H41.3486L40.071 45.4004C40.0205 44.9688 39.6333 44.66 39.2048 44.7108C38.7762 44.7616 38.4697 45.1516 38.5201 45.5832C38.5211 45.5924 38.5221 45.6015 38.5241 45.6096L39.7735 55.0001Z" fill="#1E73BA"/>
<path d="M36.1591 39.656C35.2808 39.656 34.4822 39.1401 34.1161 38.3357C33.5948 39.4722 34.0879 40.8179 35.2152 41.343C36.3436 41.868 37.6797 41.3714 38.2011 40.2359C38.4774 39.6337 38.4774 38.939 38.2011 38.3357C37.835 39.1401 37.0374 39.656 36.1591 39.656Z" fill="#E2E2E2"/>
<path d="M13.6236 28.2944C13.3705 28.2944 13.1204 28.2517 12.8814 28.1674C12.7765 28.1308 12.6636 28.1278 12.5577 28.1613C11.0714 28.6315 9.48419 27.8241 8.97697 26.3413C8.45967 27.8536 9.2573 29.5019 10.7588 30.024C11.3961 30.2454 12.0908 30.2342 12.7211 29.9915C13.8626 30.4932 15.1916 29.9691 15.6898 28.8194C15.9459 28.2283 15.9408 27.556 15.6756 26.969C15.3076 27.7774 14.5059 28.2954 13.6236 28.2944Z" fill="#E2E2E2"/>
<path d="M42.1005 28.7379C41.7113 28.739 41.3271 28.6465 40.9802 28.4698C40.8279 28.3916 40.6454 28.3947 40.4962 28.479C39.4 29.0934 38.0165 28.6953 37.4065 27.5913C37.3762 27.5365 37.348 27.4806 37.3228 27.4237C36.8055 28.5744 37.3127 29.9293 38.4552 30.4503C39.2024 30.7905 40.0726 30.6991 40.7341 30.2116C41.8756 30.9723 43.4134 30.6575 44.1687 29.5078C44.6214 28.8192 44.7061 27.9488 44.3966 27.1851C44.0154 28.1245 43.1079 28.7379 42.1005 28.7379Z" fill="#E2E2E2"/>
<path d="M21.1927 18.2851L21.5265 18.4162L21.4256 18.4781C21.0555 18.7026 20.9355 19.187 21.1584 19.5597C21.3812 19.9325 21.8622 20.0533 22.2323 19.8289L23.6985 18.9453C24.0686 18.7208 24.1886 18.2374 23.9667 17.8637C23.878 17.7144 23.7419 17.5986 23.5805 17.5356L21.7654 16.8247C21.3631 16.6662 20.9093 16.8673 20.752 17.2726C20.5947 17.6778 20.7944 18.1348 21.1967 18.2933L21.1927 18.2851Z" fill="#848484"/>
<path d="M29.1948 18.9453L30.665 19.833C31.0351 20.0574 31.5161 19.9366 31.7389 19.5638C31.9618 19.1911 31.8418 18.7066 31.4717 18.4822L31.3709 18.4202L31.7047 18.2892C32.11 18.1298 32.3097 17.6707 32.1514 17.2624C31.9931 16.8541 31.5373 16.653 31.1319 16.8125L29.3168 17.5234C28.9114 17.6737 28.7027 18.1267 28.852 18.535C28.9155 18.7087 29.0365 18.8539 29.1948 18.9453Z" fill="#848484"/>
</g>
<defs>
<clipPath id="clip0_3278_2134">
<rect width="47.3778" height="52" fill="white" transform="translate(5.31055 3)"/>
</clipPath>
</defs>
</svg>
