<svg width="17" height="17" viewBox="0 0 17 17" fill="none" xmlns="http://www.w3.org/2000/svg">
<g clip-path="url(#clip0_2601_3059)">
<path d="M9.01411 8.83838C9.01411 8.83838 12.0957 9.76213 12.7217 10.5884C13.0514 11.0243 13.6316 12.4478 13.8727 14.3121L11.5818 15.9996H5.51767L1.10889 14.3128C1.35005 12.4484 1.93021 11.0249 2.25992 10.589C2.8859 9.76151 5.9675 8.839 5.9675 8.839L9.01411 8.83838Z" fill="#348FD9"/>
<path d="M5.96729 8.31002V8.83815C5.9679 9.6869 6.64961 10.3747 7.49044 10.375C8.33189 10.375 9.0139 9.68659 9.0139 8.83721V8.30908L5.96729 8.31002Z" fill="#F4B184"/>
<path d="M5.96729 8.30991C6.48212 8.66991 7.09603 8.85742 7.49044 8.85742C7.88485 8.85742 8.49906 8.66991 9.0139 8.30991V7.73022H5.96729V8.30991Z" fill="#EDA370"/>
<path d="M4.59888 3.60278C4.03018 3.60341 3.56951 4.06935 3.56982 4.64341C3.57044 5.21747 4.03203 5.68248 4.60074 5.68216C4.68866 5.68216 4.77627 5.6706 4.8611 5.6481L4.98493 4.64247L4.59888 3.60278Z" fill="#F4B184"/>
<path d="M10.3821 3.60278C10.9509 3.60341 11.4115 4.06935 11.4112 4.64341C11.4106 5.21747 10.949 5.68248 10.3803 5.68216C10.2924 5.68216 10.2048 5.6706 10.1199 5.6481L9.99609 4.64247L10.3821 3.60278Z" fill="#F4B184"/>
<path d="M10.381 3.60298L8.65565 1.74829L4.6001 3.60361C4.6001 3.62205 4.61743 3.83111 4.64994 4.14017L5.34217 4.5233L10.1364 4.42236L10.3351 4.12205C10.3676 3.80955 10.3831 3.6058 10.3834 3.60236L10.381 3.60298Z" fill="#F4BA92"/>
<path d="M10.1354 4.14095C9.78183 4.14095 9.41218 3.97751 9.0057 3.64095C8.81593 3.48126 8.63791 3.30751 8.47322 3.12157C8.41997 3.06126 8.3305 3.05064 8.26456 3.09657C7.5618 3.58689 6.42098 4.24158 5.34116 4.24158C5.1068 4.24283 4.87337 4.20845 4.64893 4.1397C4.72415 4.85627 4.88792 6.11158 5.16314 6.78158C5.56282 7.75471 6.83242 8.27659 7.4906 8.27659C8.14877 8.27659 9.41838 7.75502 9.81805 6.78127C10.0967 6.10564 10.2598 4.8347 10.3341 4.12158C10.2685 4.13439 10.2019 4.14095 10.1354 4.14095Z" fill="#FFC89F"/>
<path d="M8.06748 6.58194C8.15292 6.58194 8.22227 6.51194 8.22196 6.42537C8.22196 6.41006 8.21979 6.39475 8.21546 6.38037C8.14271 6.14475 7.95912 5.78662 7.51797 5.78662C7.07681 5.78662 6.89323 6.14537 6.82017 6.38037C6.7954 6.46287 6.84153 6.55006 6.92357 6.57537C6.93812 6.57975 6.95329 6.58225 6.96846 6.58194H8.06748Z" fill="#FF636E"/>
<path d="M8.65323 2.59199C8.54518 2.45917 8.35324 2.43511 8.21641 2.53699C7.57557 3.01417 5.81961 4.17574 4.59427 3.60293C3.63054 3.1523 4.48592 0.601044 6.20411 0.13823C8.04892 -0.358334 8.93681 0.642606 8.93681 0.642606C8.93681 0.642606 9.63028 0.553544 10.1241 1.09354C10.8051 1.83917 10.9315 3.33605 10.3767 3.60293C9.80488 3.87918 9.01235 3.03136 8.65323 2.59199Z" fill="#848484"/>
<path d="M11.5986 14.3125L11.8225 15.7188L12.0642 16H13.8267C13.9122 16 13.9815 15.93 13.9815 15.8438C13.9815 15.8428 13.9815 15.8419 13.9815 15.8409C13.9747 15.3297 13.9385 14.8194 13.8725 14.3125H11.5986Z" fill="#FFC89F"/>
<path d="M3.38288 14.3125H1.10868C1.04305 14.8194 1.00682 15.3294 1.00001 15.8403C0.999395 15.8872 1.01983 15.9319 1.05543 15.9619L2.82408 15.1563L3.36678 14.4253L3.38288 14.3125Z" fill="#F4B184"/>
<path d="M10.8281 7.51505C10.8281 8.00005 11.1807 8.20974 11.4634 8.20974C11.5872 8.20974 12.1711 8.20068 12.2949 8.20068C12.6135 8.20068 12.9999 7.94818 12.9999 7.44162C12.9014 7.19755 12.6856 7.0213 12.4287 6.97474C12.3401 6.58786 11.9578 6.34693 11.5748 6.43599C11.2092 6.5213 10.9718 6.87818 11.0321 7.25224C10.9442 7.32224 10.8743 7.41224 10.8281 7.51505Z" fill="#F0F0F0"/>
<path d="M2.1257 7.18197C2.11518 7.65854 2.48947 8.05354 2.96158 8.06416H3.5532C3.83182 8.06416 4.1832 7.72854 4.1832 7.37416C4.09218 7.17291 3.91231 7.02729 3.69808 6.98072C3.42936 6.5701 2.8814 6.45728 2.47461 6.72854C2.31238 6.83697 2.18979 6.99635 2.12663 7.18197H2.1257Z" fill="#F0F0F0"/>
<path d="M9.8445 10.872C9.8445 11.297 10.1931 11.5595 10.4717 11.5595C10.7503 11.5595 11.0986 11.3651 11.0986 10.872C10.9398 10.522 10.5302 10.3683 10.1835 10.5286C10.033 10.5983 9.9123 10.7201 9.84326 10.872H9.8445Z" fill="#F0F0F0"/>
<path d="M15.5107 0.334376C15.5175 0.156563 15.38 0.00687502 15.2039 0.000312501C15.1998 0.000312501 15.1958 0 15.1918 0H14.3039C14.1392 0 14.0014 0.126563 13.986 0.292188L13.9819 0.334376L14.7172 0.615627L15.5107 0.334376Z" fill="#E2E2E2"/>
<path d="M15.455 0.948195L15.5104 0.354443C15.5104 0.348193 15.5104 0.341943 15.5104 0.335693H13.9817L13.9238 0.949445L14.6978 1.2307L15.455 0.948195Z" fill="#CCCCCC"/>
<path d="M13.5828 4.09374L13.8924 3.67812L13.6494 3.21655H12.9045C12.6398 3.21655 12.4253 3.43312 12.4253 3.7003V4.09374L13.0565 4.37499L13.5828 4.09374Z" fill="#E2E2E2"/>
<path d="M12.4253 4.09375V4.18938C12.4253 4.45656 12.6398 4.67313 12.9045 4.67344H13.5382L13.8392 4.38344L13.5828 4.09375H12.4253Z" fill="#CCCCCC"/>
<path d="M14.4284 4.37498C14.9123 4.37498 15.2897 4.01904 15.3789 3.25154L15.5448 1.08341C15.5513 0.997472 15.4875 0.922159 15.4021 0.915597C15.398 0.915284 15.394 0.915284 15.39 0.915284H13.969C13.8879 0.914972 13.8204 0.977785 13.8142 1.05935L13.582 4.09373L14.4284 4.37498Z" fill="#348FD9"/>
<path d="M14.4284 4.09387H13.5827L13.5381 4.67356H14.3826C14.8829 4.67325 15.299 4.28481 15.3386 3.78137L15.3789 3.25293C15.3154 3.73418 14.9092 4.09356 14.4284 4.09387Z" fill="#2F86C1"/>
<path d="M6.22784 15.415C6.59656 15.1516 7.0888 15.2275 8.09309 14.6903C8.56025 14.4403 8.73454 13.6447 8.66272 12.99C8.48966 13.4975 8.18472 13.7328 7.84449 13.8962C6.89995 14.3516 6.09379 14.3234 5.72508 14.5869C5.58081 14.69 4.59912 15.5287 4.59912 15.5287V16H5.51766C5.7808 15.7706 6.06098 15.5341 6.22784 15.415Z" fill="#2F86C1"/>
<path d="M3.31559 15.065C3.30537 15.065 3.29485 15.0644 3.28463 15.0629C3.15337 15.045 3.06142 14.9235 3.07876 14.791L3.31033 13.0463C3.33881 12.9157 3.46636 12.8332 3.59576 12.8619C3.71031 12.8872 3.78987 12.9925 3.78368 13.1107L3.55211 14.855C3.53632 14.975 3.4354 15.0644 3.31559 15.065Z" fill="#1E73BA"/>
<path d="M8.09264 14.1098C8.87743 13.6917 8.83564 11.7277 8.18985 11.4886C7.54406 11.2495 5.89893 12.3455 5.89893 12.3455C6.02276 11.5061 5.63145 11.303 5.35251 11.4439C5.15716 11.5423 5.01599 12.0411 4.9259 12.4911C4.82188 13.0164 4.56617 13.4992 4.19064 13.878L1.05518 15.9627C1.08273 15.9867 1.11802 16.0002 1.15455 16.0002H4.59867C4.59867 16.0002 5.58315 15.1045 5.96703 14.8302C6.33575 14.5667 7.08835 14.6455 8.09264 14.1098Z" fill="#FFC89F"/>
<path d="M11.5803 16.0001H12.0639L11.6717 13.0464C11.6562 12.9136 11.5373 12.8186 11.4057 12.8342C11.2741 12.8498 11.18 12.9698 11.1955 13.1026C11.1958 13.1055 11.1961 13.1083 11.1968 13.1108L11.5803 16.0001Z" fill="#1E73BA"/>
<path d="M10.4708 11.2788C10.2012 11.2788 9.95599 11.1201 9.84362 10.8726C9.68356 11.2222 9.83495 11.6363 10.1811 11.7979C10.5275 11.9594 10.9377 11.8066 11.0977 11.4572C11.1826 11.2719 11.1826 11.0582 11.0977 10.8726C10.9854 11.1201 10.7405 11.2788 10.4708 11.2788Z" fill="#E2E2E2"/>
<path d="M3.55259 7.78307C3.47489 7.78307 3.39811 7.76994 3.32474 7.74401C3.29254 7.73276 3.25787 7.73182 3.22536 7.74213C2.76904 7.88682 2.28175 7.63838 2.12603 7.18213C1.96722 7.64744 2.2121 8.15463 2.67307 8.31526C2.86872 8.38338 3.08203 8.37994 3.27552 8.30526C3.62597 8.45963 4.034 8.29838 4.18693 7.94463C4.26557 7.76276 4.26402 7.55588 4.1826 7.37525C4.0696 7.624 3.82348 7.78338 3.55259 7.78307Z" fill="#E2E2E2"/>
<path d="M12.2951 7.91946C12.1756 7.91978 12.0577 7.89134 11.9512 7.83696C11.9044 7.8129 11.8484 7.81384 11.8026 7.83978C11.4661 8.02884 11.0413 7.90634 10.854 7.56665C10.8447 7.54978 10.8361 7.53259 10.8283 7.51509C10.6695 7.86915 10.8252 8.28603 11.176 8.44634C11.4054 8.55103 11.6726 8.5229 11.8757 8.3729C12.2261 8.60697 12.6982 8.51009 12.9301 8.15634C13.0691 7.94446 13.0951 7.67665 13.0001 7.44165C12.883 7.73071 12.6044 7.91946 12.2951 7.91946Z" fill="#E2E2E2"/>
<path d="M5.87592 4.7031L5.97839 4.74341L5.94743 4.76248C5.83381 4.83154 5.79697 4.9806 5.86539 5.09529C5.93381 5.20998 6.08148 5.24716 6.1951 5.1781L6.64523 4.90623C6.75885 4.83716 6.79569 4.68841 6.72758 4.57341C6.70034 4.52748 6.65855 4.49185 6.60901 4.47248L6.05176 4.25372C5.92824 4.20497 5.78892 4.26685 5.74063 4.39154C5.69233 4.51623 5.75363 4.65685 5.87716 4.7056L5.87592 4.7031Z" fill="#848484"/>
<path d="M8.33296 4.90623L8.78433 5.17936C8.89795 5.24842 9.04562 5.21123 9.11404 5.09654C9.18246 4.98185 9.14562 4.83279 9.032 4.76373L9.00104 4.74467L9.10351 4.70435C9.22797 4.65529 9.28926 4.51404 9.24066 4.38842C9.19205 4.26279 9.05212 4.20092 8.92767 4.24998L8.37042 4.46873C8.24597 4.51498 8.18188 4.65435 8.2277 4.77998C8.2472 4.83342 8.28435 4.8781 8.33296 4.90623Z" fill="#848484"/>
</g>
<defs>
<clipPath id="clip0_2601_3059">
<rect width="17" height="17" fill="white"/>
</clipPath>
</defs>
</svg>
