<svg width="11" height="16" viewBox="0 0 11 16" fill="none" xmlns="http://www.w3.org/2000/svg">
<path d="M8.38529 2.93592V2.5963C8.38529 2.21066 8.07232 1.89817 7.68716 1.89817H6.54138C6.63682 1.7257 6.69108 1.51205 6.69108 1.295C6.6906 0.58137 6.1102 0 5.39705 0C4.6839 0 4.10399 0.58137 4.10399 1.295C4.10399 1.51205 4.15825 1.7257 4.25369 1.89817H3.31381C2.92817 1.89817 2.61568 2.21066 2.61568 2.5963V2.93592H1.05858C0.473816 2.93592 0 3.41022 0 3.99498V14.4335C0 15.0182 0.473816 15.493 1.05858 15.493H9.94094C10.5257 15.493 11 15.0187 11 14.4335V3.99498C11 3.41022 10.5257 2.93592 9.94094 2.93592H8.38529ZM4.62673 1.29549C4.62673 0.870117 4.97217 0.523233 5.39656 0.523233C5.82193 0.523233 6.16737 0.870117 6.16737 1.29549C6.16737 1.53869 6.054 1.7475 5.87668 1.89866H4.91694C4.7401 1.74702 4.62673 1.53869 4.62673 1.29549ZM9.94094 13.8037C9.94094 14.1631 9.64929 14.4548 9.2898 14.4548H1.70971C1.35023 14.4548 1.05858 14.1631 1.05858 13.8037V4.64611C1.05858 4.28615 1.35023 3.99498 1.70971 3.99498H2.61471C2.61471 4.2813 2.84677 4.51385 3.1331 4.51385H7.86593C8.15274 4.51385 8.38432 4.28179 8.38432 3.99498H9.2898C9.6488 3.99498 9.94094 4.28663 9.94094 4.64611V13.8037Z" fill="#231F20"/>
<path d="M3.01084 7.26557C3.51895 7.26557 3.93086 6.85367 3.93086 6.34555C3.93086 5.83744 3.51895 5.42554 3.01084 5.42554C2.50273 5.42554 2.09082 5.83744 2.09082 6.34555C2.09082 6.85367 2.50273 7.26557 3.01084 7.26557Z" fill="#231F20"/>
<path d="M8.24565 5.83203H5.10819C4.81945 5.83203 4.58496 6.06216 4.58496 6.3509C4.58496 6.63965 4.81896 6.86978 5.10819 6.86978H8.24662C8.53537 6.86978 8.76889 6.63965 8.76889 6.3509C8.76889 6.06216 8.53488 5.83203 8.24565 5.83203Z" fill="#231F20"/>
<path d="M3.01084 9.87544C3.51895 9.87544 3.93086 9.46353 3.93086 8.95542C3.93086 8.44731 3.51895 8.0354 3.01084 8.0354C2.50273 8.0354 2.09082 8.44731 2.09082 8.95542C2.09082 9.46353 2.50273 9.87544 3.01084 9.87544Z" fill="#231F20"/>
<path d="M8.24565 8.42554H5.10819C4.81945 8.42554 4.58496 8.66681 4.58496 8.95555C4.58496 9.2443 4.81896 9.4846 5.10819 9.4846H8.24662C8.53537 9.4846 8.76889 9.2443 8.76889 8.95555C8.76889 8.66681 8.53488 8.42554 8.24565 8.42554Z" fill="#231F20"/>
<path d="M3.01133 12.6643C3.51917 12.6643 3.93086 12.2526 3.93086 11.7447C3.93086 11.2369 3.51917 10.8252 3.01133 10.8252C2.50349 10.8252 2.0918 11.2369 2.0918 11.7447C2.0918 12.2526 2.50349 12.6643 3.01133 12.6643Z" fill="#231F20"/>
<path d="M8.24565 11.2131H5.10819C4.81945 11.2131 4.58496 11.4544 4.58496 11.7432C4.58496 12.0319 4.81896 12.2722 5.10819 12.2722H8.24662C8.53537 12.2722 8.76889 12.0314 8.76889 11.7432C8.76889 11.4544 8.53488 11.2131 8.24565 11.2131Z" fill="#231F20"/>
</svg>
