<svg width="87" height="81" viewBox="0 0 87 81" fill="none" xmlns="http://www.w3.org/2000/svg">
<g clip-path="url(#clip0)">
<path d="M82.5331 28.9751C82.9389 29.0769 83.3447 29.1787 83.7505 29.0973C84.1563 29.0362 84.562 28.7715 84.6635 28.3846C84.7649 28.0385 84.6432 27.6923 84.5012 27.3665C83.4664 25.0656 81.0317 23.457 78.4956 23.4163C75.9391 23.3756 75.4116 24.9638 77.2782 26.491C78.7796 27.7534 80.6665 28.4864 82.5331 28.9751Z" fill="#DEF9F6"/>
<path d="M3.20371 27.9369C5.4761 25.6767 8.6615 24.4753 10.6904 22.0319C13.0845 19.1405 13.47 15.1292 14.6265 11.5658C15.7221 8.18573 17.6496 5.02962 20.4292 2.85089C23.2088 0.672155 26.9015 -0.468117 30.3709 0.203829C36.7011 1.42555 40.6981 7.92103 46.6834 10.3441C51.7151 12.3803 59.0192 10.955 63.1785 14.9663C66.6683 18.3056 65.735 23.7219 66.5668 28.0183C67.2161 31.3577 68.9609 34.3509 70.0971 37.5681C71.2333 40.7649 71.6797 44.5523 69.8131 47.4029C68.2305 49.826 65.3292 51.0477 63.4626 53.2468C60.6627 56.5862 60.5206 61.7989 57.1932 64.6088C55.4686 66.0545 53.1354 66.5839 50.9036 66.4821C48.6718 66.3803 46.5008 65.7287 44.3704 65.0161C37.8576 62.817 31.4462 60.007 24.6291 59.3758C21.0176 59.05 17.3656 59.3351 13.815 58.6428C10.2643 57.9708 6.65287 56.0568 5.23263 52.7174C3.85297 49.5206 4.7254 45.6925 3.30516 42.5364C2.25012 40.2151 0.11976 38.464 0.0588921 35.7966C-0.062843 32.9459 1.19509 29.9323 3.20371 27.9369Z" fill="#DEF9F6"/>
<path d="M26.8399 55.6901C27.124 54.957 27.4283 54.2444 27.7529 53.5317C28.5036 51.8824 29.7616 50.5385 30.4108 48.8281C31.4861 45.9367 30.6949 42.7398 30.634 39.6652C30.5731 36.7534 31.2021 33.7806 32.7644 31.3371C34.3266 28.8937 36.8628 27 39.7236 26.5724C44.9582 25.7987 49.787 29.7285 55.0825 29.9729C58.1056 29.9729 60.946 28.9344 63.9083 28.5475C67.0125 28.1403 70.137 28.4864 73.2616 28.6493C74.7427 28.7308 76.2238 28.8122 77.6643 29.138C80.8497 29.8914 83.7105 32.0294 85.3539 34.8801C86.9974 37.7308 87.4234 41.2534 86.5104 44.4299C85.6177 47.5045 83.5076 50.1923 83.0815 53.3688C82.5337 57.3597 84.6235 61.7172 82.7366 65.2602C81.8642 66.8892 80.2613 68.0091 78.5368 68.6199C76.8122 69.2308 74.9456 69.353 73.1195 69.3733C70.4414 69.3937 67.7632 69.1493 65.1256 68.681C59.9316 67.724 54.8796 65.8303 49.6044 65.4435C43.9031 65.0159 38.2019 66.3801 32.4803 66.1561C31.4253 66.1154 30.3702 66.0136 29.3964 65.586C27.1646 64.5882 25.9878 62.0023 26.0081 59.5792C26.0284 58.1742 26.3733 56.9118 26.8399 55.6901Z" fill="#DEF9F6"/>
<path d="M67.6602 51.6381C67.8225 51.5974 67.9848 51.5567 68.1471 51.4956" stroke="#92D4D6" stroke-miterlimit="10"/>
<path d="M69.1211 51.2108C71.3935 50.4981 73.5847 49.6022 75.5122 48.2176C77.8454 46.5479 79.7323 44.1044 80.2801 41.2741C81.1526 36.6316 78.2918 31.9687 78.7179 27.2651C78.941 24.7198 80.1381 22.3375 80.3613 19.7719C80.6656 16.3918 79.2251 12.971 76.831 10.609C73.4021 7.20851 69.182 6.39403 64.6575 8.16553C61.5126 9.40761 58.8142 11.5456 56.0143 13.4596C53.2347 15.3737 50.1913 17.1655 46.8233 17.5117C43.3335 17.8782 39.9047 16.6972 36.4758 16.0253C33.0469 15.3533 29.1311 15.3329 26.4529 17.5931C23.1255 20.4031 23.1255 25.8397 25.4588 29.5049C26.5544 31.2153 28.1167 33.2108 27.2036 35.023C26.6355 36.1429 25.337 36.6112 24.1603 37.0388C20.9343 38.1995 17.7895 39.6655 15.091 41.7832C12.3925 43.9008 10.181 46.7311 9.18685 50.0094C8.61875 51.9031 8.3347 54.8759 9.20714 56.7289C10.2013 58.8058 13.0621 60.4144 15.1316 61.1067C16.633 61.5954 18.2358 61.7786 19.8184 61.7583C20.8328 61.7379 21.9487 61.5954 22.6183 60.842C23.3081 60.0886 23.1255 58.5818 22.1313 58.3782C21.6444 58.2764 21.1169 58.5207 20.7517 58.8669C19.1691 60.3126 19.7169 63.1429 21.3604 64.5072C23.0038 65.8714 25.3167 66.075 27.4471 65.9121C29.2123 65.79 30.9774 65.4438 32.6614 64.894C34.6701 64.2425 36.5772 63.3058 38.6467 62.8986C40.4525 62.532 42.3394 62.5931 44.1045 63.0411" stroke="#92D4D6" stroke-miterlimit="10" stroke-dasharray="4.99 4.99"/>
<path d="M44.5898 63.1836C44.7522 63.2243 44.9145 63.2854 45.0768 63.3465" stroke="#92D4D6" stroke-miterlimit="10"/>
<path opacity="0.1" d="M60.1269 80.9617C72.6073 81.2414 82.7836 78.8158 82.8564 75.544C82.9292 72.2722 72.8709 69.3931 60.3906 69.1134C47.9103 68.8337 37.7339 71.2593 37.6611 74.5311C37.5883 77.8029 47.6466 80.682 60.1269 80.9617Z" fill="#231F20"/>
<path d="M69.308 77.4574L44.332 71.5728C42.8306 71.2877 41.6133 69.8217 41.6133 68.2945L40.2539 14.4981C40.2539 12.9913 42.8306 11.6474 44.3523 11.9325L70.3022 17.023C71.8036 17.3081 73.0209 18.7741 73.0209 20.3013V74.4642C73.0209 75.971 70.8094 77.7628 69.308 77.4574Z" fill="#92D4D6"/>
<path d="M68.3327 77.8849L42.3828 72.7944C40.8814 72.5094 39.6641 71.0433 39.6641 69.5162V15.3533C39.6641 13.8465 40.8814 12.8487 42.3828 13.1542L68.3327 18.2447C69.8341 18.5297 71.0514 19.9958 71.0514 21.5229V75.6858C71.0514 77.1926 69.8341 78.1904 68.3327 77.8849Z" fill="white"/>
<path d="M59.3022 19.1205L51.4097 17.573C51.1865 17.5323 51.0039 17.3083 51.0039 17.0843C51.0039 16.8604 51.1865 16.6975 51.4097 16.7585L59.3022 18.3061C59.5253 18.3468 59.7079 18.5708 59.7079 18.7947C59.7282 19.0187 59.5253 19.1613 59.3022 19.1205Z" fill="#92D4D6"/>
<path d="M69.1643 71.2673L41.5508 65.7085V17.7764L69.1643 22.6225V71.2673Z" fill="#B1DAEB"/>
<path d="M44.959 41.8847C44.5735 42.4345 44.2691 43.0249 43.9648 43.6154C42.6054 46.3847 41.5504 49.3983 41.591 52.4729C41.591 53.0227 41.6721 53.6335 42.0576 54.0204C43.1938 55.12 45.7706 52.9005 46.5213 52.086C47.6169 50.8847 48.3879 49.3983 48.956 47.8915C49.8893 45.4073 50.2139 42.6788 49.7675 40.0521C49.6255 39.258 48.9965 39.0951 48.2864 39.3191C47.4343 39.6041 46.3792 40.2557 45.7503 40.8869C45.4459 41.2331 45.2025 41.5589 44.959 41.8847Z" fill="#EBF3F7"/>
<path d="M47.1711 28.1608C46.9073 30.3803 47.3131 32.559 47.6174 34.7377C47.9015 36.8147 48.2058 38.9323 48.9971 40.8667C49.058 41.0092 49.0985 41.1314 49.1594 41.2739C49.5043 42.0273 49.9913 42.9233 50.742 43.3305C51.4927 43.7581 52.4463 43.6766 53.2781 43.6563C54.5158 43.6156 55.6722 43.1472 56.8693 42.9436C57.9446 42.7604 59.0199 42.6382 60.1156 42.5771C60.9068 42.5364 61.9416 42.4549 62.4691 41.7626C62.5097 41.7015 62.1039 40.8463 62.0633 40.7242C61.9416 40.3576 61.8199 39.9708 61.7184 39.5839C61.5155 38.8305 61.3735 38.0364 61.272 37.2626C60.9677 35.1857 60.9677 33.1088 60.9677 31.0115C60.9677 29.0975 60.9474 27.0613 59.8924 25.3712C59.304 24.4142 58.4316 23.6608 57.4577 23.1517C55.6925 22.2558 53.623 22.0726 51.6956 22.4187C50.0724 22.7038 48.8551 23.7422 48.1044 25.2083C47.5971 26.1042 47.2928 27.1223 47.1711 28.1608Z" fill="#343A4A"/>
<path opacity="0.5" d="M59.1825 40.4388C59.2637 40.6628 59.3651 40.8868 59.3042 41.1311C59.2231 41.518 58.797 41.7012 58.4115 41.803C56.4434 42.3732 54.3537 42.3528 52.3045 42.3325C52.1016 42.3325 51.8987 42.3325 51.7161 42.2306C51.5335 42.1288 51.3914 41.9659 51.29 41.7827C50.8031 40.9275 50.7828 39.889 50.7625 38.8913C50.7625 38.0564 50.7625 37.2216 50.7422 36.3868C50.7422 35.8777 50.7422 35.3687 50.8842 34.9003C51.1074 34.208 51.6146 33.6379 52.203 33.1696C53.0957 32.4773 54.8609 31.4999 56.058 31.7646C57.3362 32.0293 57.7622 34.0451 57.7217 35.1039C57.6811 36.8551 58.5332 38.8302 59.1825 40.4388Z" fill="#343A4A"/>
<path d="M46.6609 43.8398C46.8232 42.8421 47.1072 41.7833 47.5536 40.8873C48.142 39.6452 49.1767 38.7086 50.5767 38.6068C51.7737 38.505 52.9505 38.4642 54.1476 38.4235C55.2432 38.3828 56.3794 38.2606 57.4547 38.4032C58.5909 38.5457 59.7068 38.9733 60.5995 39.686C61.5328 40.4394 61.6951 41.5185 61.7763 42.6588C62.243 48.238 62.5879 53.7968 63.2168 59.3557C63.4603 61.5547 64.7994 73.6498 64.8197 75.2787C61.6546 76.643 58.1242 76.7244 54.6751 76.6226C51.7129 76.5412 48.6695 76.3376 45.9102 75.2584C45.9102 70.0457 46.1942 64.833 46.1942 59.6204C46.1942 56.9326 46.1739 54.2244 46.2145 51.5366C46.2551 48.971 46.2551 46.3851 46.6609 43.8398Z" fill="white"/>
<path d="M53.2144 53.2469L50.0898 36.6519H57.1302L53.2144 53.2469Z" fill="#62B0A4"/>
<path d="M51.5087 39.3396C52.2594 40.4392 53.8623 40.826 54.9985 40.0116C55.526 39.6247 56.0129 38.9731 56.0129 38.3012C56.0535 36.6111 53.4768 36.7129 52.4217 37.0591C51.5899 37.3238 50.9001 38.0161 51.2856 38.9324C51.3464 39.0749 51.4276 39.2175 51.5087 39.3396Z" fill="#F99D6E"/>
<path d="M63.9686 48.4822C63.8671 48.4008 63.7454 48.299 63.644 48.2175C62.8324 47.566 62.0411 46.9144 61.3716 46.1203C59.7282 44.1655 59.018 41.4777 59.2615 38.9121C59.8702 38.9121 60.2151 39.0343 60.7426 39.299C61.2296 39.5433 61.6962 39.808 62.1629 40.0931C63.0759 40.6836 63.928 41.3759 64.7193 42.1089C66.1192 43.4121 67.3569 44.8985 68.5742 46.385C69.1829 47.118 69.3858 48.3397 69.0409 49.2356C68.5134 50.5592 66.9511 50.437 65.8758 49.8465C65.2062 49.48 64.5773 48.9709 63.9686 48.4822Z" fill="#EBF3F7"/>
<path d="M53.2969 53.0227L55.8736 47.1381L55.1229 45.8553H56.3403L59.0793 38.7897C59.0793 38.7897 57.8214 38.0566 56.604 38.3417C56.3605 39.3598 53.2969 53.0227 53.2969 53.0227Z" fill="#EBF3F7"/>
<path d="M53.2172 53.2466L50.7014 47.1176L51.4521 45.8348H50.2347L47.8203 39.2986C47.8203 39.2986 49.342 38.423 50.5796 38.6063C50.7622 39.7058 53.2172 53.2466 53.2172 53.2466Z" fill="#EBF3F7"/>
<path d="M53.2148 53.2466L53.8641 76.5814" stroke="#EBF3F7" stroke-miterlimit="10"/>
<path d="M54.6989 55.8736C54.867 55.8736 55.0032 55.7368 55.0032 55.5681C55.0032 55.3994 54.867 55.2627 54.6989 55.2627C54.5308 55.2627 54.3945 55.3994 54.3945 55.5681C54.3945 55.7368 54.5308 55.8736 54.6989 55.8736Z" fill="#EBF3F7"/>
<path d="M54.6989 61.249C54.867 61.249 55.0032 61.1123 55.0032 60.9436C55.0032 60.7749 54.867 60.6382 54.6989 60.6382C54.5308 60.6382 54.3945 60.7749 54.3945 60.9436C54.3945 61.1123 54.5308 61.249 54.6989 61.249Z" fill="#EBF3F7"/>
<path d="M48.7503 45.2445C48.6895 43.3305 48.6692 41.3147 49.6836 39.6246C50.7184 37.9549 52.9502 37.5681 54.7762 37.6902C56.095 37.7921 57.3529 38.4029 58.0428 39.5839C58.5703 40.4798 58.8138 41.5183 58.9558 42.5568C59.1181 43.6359 59.1587 44.7355 59.1181 45.835" stroke="#343A4A" stroke-width="2" stroke-miterlimit="10"/>
<path d="M36.9246 41.9458L46.8865 42.7603L49.2807 56.077L48.9155 56.4028L36.5391 42.2716L36.9246 41.9458Z" fill="#4AA69B"/>
<path d="M55.8934 34.0049H51.5312V38.5863H55.8934V34.0049Z" fill="#F99D6E"/>
<path d="M36.5391 42.2715L46.5214 43.086L48.9155 56.4027L40.0694 55.6697L36.5391 42.2715Z" fill="#62B0A4"/>
<path d="M39.3401 48.177C39.3603 48.177 39.3806 48.177 39.4009 48.1974C39.5632 48.2381 39.7053 48.2788 39.8473 48.3603C40.111 48.5435 40.1516 48.8693 39.8067 48.9915C39.5632 49.0729 39.2995 49.1137 39.0357 49.134C39.3401 49.1951 39.6241 49.2562 39.9284 49.3173C40.1516 49.358 40.4357 49.4598 40.456 49.6838C40.4965 49.9078 40.2328 50.091 40.0096 50.1318C39.7864 50.1725 39.5429 50.1318 39.3198 50.2132C39.6038 50.2539 39.8879 50.315 40.1516 50.4168C40.3342 50.4983 40.5574 50.6815 40.4762 50.8648C40.4357 50.9462 40.3342 50.987 40.2531 51.0073C40.0096 51.0888 39.7661 51.1091 39.5227 51.1091C39.8067 51.2109 40.0705 51.3738 40.3139 51.5775C40.3748 51.6386 40.456 51.6996 40.456 51.8014C40.456 51.9033 40.3545 51.9847 40.2734 52.0458C39.8676 52.2698 39.3603 52.2291 38.914 52.1476C38.6705 52.1069 38.4068 52.0254 38.2241 51.8218C38.0618 51.6386 38.0415 51.2924 38.2444 51.1295C37.9401 51.0277 37.7575 50.6408 37.8589 50.3354C37.6763 50.2132 37.514 50.0707 37.4329 49.8671C37.372 49.7245 37.3923 49.582 37.4735 49.4395C37.4937 49.3987 37.6763 49.1137 37.7575 49.1544C37.5343 49.0526 37.2503 48.849 37.2706 48.5639C37.2706 48.401 37.372 48.1974 37.5343 48.1363C37.6561 48.0956 37.7778 48.0752 37.8995 48.0752C38.3662 48.0956 38.8734 48.0752 39.3401 48.177Z" fill="#FAC39A"/>
<path d="M62.936 60.6382H58.8984C58.8984 60.6382 58.8782 65.3418 60.9882 65.3011C63.0983 65.2604 62.936 60.6382 62.936 60.6382Z" fill="#EBF3F7"/>
<path d="M52.3869 37.0273C55.1502 37.1826 57.5528 34.3959 57.7533 30.803C57.9537 27.2102 55.8761 24.1718 53.1128 24.0165C50.3495 23.8612 47.9469 26.6479 47.7465 30.2408C47.546 33.8336 49.6236 36.872 52.3869 37.0273Z" fill="#FAC39A"/>
<path d="M58.2896 32.0701C58.6751 30.8687 58.8577 29.6266 58.878 28.3642C58.8983 27.733 58.878 27.1221 58.8374 26.4909C58.7969 25.9411 58.8172 25.4321 58.5534 24.923C58.107 24.0067 57.194 23.4366 56.2404 23.0701C54.7999 22.5203 53.2173 22.3778 51.6957 22.6628C51.371 22.7239 51.0667 22.8054 50.7826 22.9479C50.458 23.1312 50.1943 23.3959 49.9305 23.6606C49.4436 24.19 48.5102 25.0655 49.0986 25.8597C49.2812 26.1244 49.5856 26.2669 49.8696 26.4094C50.8435 26.837 51.8782 27.061 52.913 27.3461C53.9275 27.6312 54.9622 27.9773 55.7941 28.6493C56.3419 29.0972 56.7679 29.647 57.1129 30.2579C57.4578 30.8484 57.5186 31.4999 57.7012 32.1515C57.7418 32.2737 57.7824 32.3959 57.8838 32.4366C58.0867 32.518 58.2288 32.2737 58.2896 32.0701Z" fill="#343A4A"/>
<path d="M73.6063 38.9528C73.4034 39.1767 73.1802 39.36 72.9367 39.5636C72.7136 39.7469 72.4498 39.9301 72.2469 40.1541C71.9223 40.4799 71.6991 40.8871 71.4151 41.2333C71.3948 41.2537 71.3745 41.2944 71.3339 41.3147C71.2933 41.3147 71.2527 41.3147 71.2324 41.2944C70.8672 41.1518 70.5629 40.9075 70.3194 40.5817C70.2789 40.541 70.2586 40.5003 70.2383 40.4392C70.2383 40.3781 70.2586 40.317 70.2789 40.2559C70.5223 39.584 70.4006 38.7695 70.4615 38.0568C70.502 37.5071 70.502 36.9776 70.4209 36.4279C70.3803 36.1224 70.3194 35.817 70.4615 35.5523C70.502 35.4709 70.5629 35.4098 70.6441 35.4098C70.6846 35.4098 70.7252 35.4301 70.7455 35.4301C71.2122 35.6134 71.4151 36.3668 71.5571 36.8147C71.7194 35.9595 72.0643 35.1451 72.4092 34.3509C72.531 34.0659 72.7338 33.7197 73.0382 33.7197C73.2411 33.9437 73.1802 34.2899 73.1193 34.5749C73.0179 35.0433 72.9164 35.5319 72.815 36.0003C72.9773 35.2672 73.2614 34.5749 73.6672 33.9641C73.728 33.8623 73.8295 33.7401 73.9512 33.7197C74.0932 33.7197 74.1947 33.8419 74.215 33.9844C74.2352 34.127 74.1947 34.2491 74.1541 34.3917C73.9918 34.9414 73.8092 35.4912 73.6469 36.041C73.8295 35.593 74.0729 35.1654 74.3773 34.7989C74.4584 34.6971 74.5802 34.5749 74.7019 34.5953C74.8236 34.6157 74.9048 34.7378 74.9048 34.8396C74.9251 34.9618 74.8642 35.0636 74.8236 35.1858C74.641 35.6745 74.4178 36.1428 74.1541 36.6111C74.2758 36.2242 74.5599 35.8985 74.9048 35.6948C74.9859 35.6541 75.0671 35.6134 75.1483 35.6338C75.2903 35.6541 75.3917 35.817 75.3917 35.9595C75.3917 36.2446 75.1685 36.6518 75.0265 36.8962C74.8642 37.2423 74.6613 37.5681 74.4381 37.8736C74.2352 38.2604 73.9309 38.627 73.6063 38.9528Z" fill="#FAC39A"/>
<path d="M59.042 31.1133C59.3463 31.3373 59.5898 31.7446 59.5898 32.1314C59.5898 32.4369 59.4478 32.7219 59.2652 32.9663C58.8594 33.4957 58.413 33.8419 57.7435 33.9437C57.2769 34.0047 56.6276 33.9844 56.5262 33.3939C56.445 32.8848 56.8508 32.1518 57.1348 31.7649C57.5812 31.1948 58.3319 30.6043 59.042 31.1133Z" fill="#FAC39A"/>
<path d="M72.6337 39.9506C72.0048 39.4823 71.3352 39.0954 70.6048 38.8307C70.057 38.6271 69.6107 38.4031 69.1846 38.8918C68.4136 39.8284 68.0687 41.2945 67.6832 42.4347C67.1354 44.023 66.5876 45.6723 66.3644 47.342C66.2427 48.2379 66.2427 49.3375 66.8513 49.8872C68.7179 51.5569 70.2599 48.1972 70.828 46.8737C71.2744 45.8148 71.6599 44.7357 72.0454 43.6361C72.4106 42.5976 72.8569 41.5388 72.9787 40.4393C72.9787 40.3578 72.999 40.2967 72.9584 40.2357C72.9381 40.1746 72.8772 40.1338 72.8366 40.1135C72.7555 40.032 72.6946 39.9913 72.6337 39.9506Z" fill="#EBF3F7"/>
<path d="M56.0594 51.7194C56.0392 49.7442 56.3638 45.9569 58.9405 45.6718C59.5898 45.5904 60.2593 45.7126 60.7463 46.1809C61.2129 46.6492 61.5173 47.2397 61.6999 47.8709C62.1056 49.2759 62.0245 50.8031 62.0853 52.2488" stroke="#343A4A" stroke-width="2" stroke-miterlimit="10"/>
<path d="M56.0556 52.5746C56.3582 52.5746 56.6034 52.3285 56.6034 52.0249C56.6034 51.7212 56.3582 51.4751 56.0556 51.4751C55.7531 51.4751 55.5078 51.7212 55.5078 52.0249C55.5078 52.3285 55.7531 52.5746 56.0556 52.5746Z" fill="#343A4A"/>
<path d="M62.1025 52.7988C62.405 52.7988 62.6503 52.5526 62.6503 52.249C62.6503 51.9454 62.405 51.6992 62.1025 51.6992C61.8 51.6992 61.5547 51.9454 61.5547 52.249C61.5547 52.5526 61.8 52.7988 62.1025 52.7988Z" fill="#343A4A"/>
<path d="M48.734 46.9549C49.3054 46.9549 49.7687 46.4899 49.7687 45.9164C49.7687 45.3429 49.3054 44.8779 48.734 44.8779C48.1625 44.8779 47.6992 45.3429 47.6992 45.9164C47.6992 46.4899 48.1625 46.9549 48.734 46.9549Z" fill="#343A4A"/>
<path opacity="0.5" d="M48.7329 46.5072C49.0579 46.5072 49.3213 46.2428 49.3213 45.9167C49.3213 45.5905 49.0579 45.3262 48.7329 45.3262C48.408 45.3262 48.1445 45.5905 48.1445 45.9167C48.1445 46.2428 48.408 46.5072 48.7329 46.5072Z" fill="#343A4A"/>
<path d="M49.8906 33.6382C49.8906 33.6382 49.9515 33.6789 50.0327 33.7604C50.1138 33.8418 50.2558 33.9436 50.4181 34.0251C50.4993 34.0658 50.6007 34.1065 50.7022 34.1472C50.8036 34.188 50.9051 34.2287 51.0268 34.249C51.25 34.3101 51.5138 34.3509 51.7775 34.3916C52.021 34.4119 52.2847 34.4323 52.5282 34.4119C52.7514 34.3916 52.9949 34.3305 53.1775 34.2898C53.3601 34.2287 53.5224 34.1472 53.6238 34.1065C53.7253 34.0454 53.7861 34.0251 53.7861 34.0251C53.7861 34.0251 53.7456 34.0861 53.6644 34.1676C53.5833 34.249 53.4615 34.3712 53.2789 34.4934C53.1775 34.5545 53.076 34.6156 52.9746 34.6563C52.8528 34.697 52.7311 34.7581 52.6094 34.7785C52.4673 34.7988 52.3253 34.8192 52.1833 34.8395C52.0413 34.8395 51.8993 34.8395 51.7572 34.8192C51.4732 34.7785 51.2094 34.7174 50.9457 34.6156C50.7022 34.5137 50.479 34.3916 50.3167 34.2287C50.2355 34.1472 50.1747 34.0861 50.1138 34.0047C50.0529 33.9436 50.0124 33.8622 49.9921 33.8214C49.9515 33.7604 49.9515 33.7196 49.9312 33.6993C49.9109 33.6382 49.8906 33.6382 49.8906 33.6382Z" fill="#D25961"/>
<path d="M53.707 28.7103C53.707 28.7103 53.7273 28.6899 53.7882 28.6695C53.8288 28.6492 53.9302 28.6084 54.0114 28.5881C54.1128 28.5677 54.2345 28.5474 54.3563 28.5474C54.478 28.5474 54.62 28.5677 54.7418 28.6085C54.8635 28.6492 54.9853 28.7103 55.107 28.7713C55.2084 28.8324 55.3099 28.9139 55.3707 28.9953C55.4316 29.0768 55.4722 29.1379 55.5128 29.1989C55.5331 29.26 55.5533 29.2804 55.5533 29.2804C55.5533 29.2804 55.5128 29.2804 55.4722 29.26C55.4113 29.2397 55.3505 29.2193 55.249 29.1786C55.0664 29.1175 54.8635 29.0361 54.6403 28.975C54.4171 28.9139 54.2143 28.8528 54.0317 28.7917C53.9505 28.7713 53.8693 28.751 53.8085 28.7306C53.7476 28.7306 53.707 28.7103 53.707 28.7103Z" fill="#192D4E"/>
<path d="M50.7431 28.5678C50.7431 28.5678 50.7025 28.5678 50.6417 28.5678C50.5808 28.5678 50.4997 28.5678 50.3982 28.5881C50.1953 28.6085 49.9721 28.6085 49.7287 28.6492C49.5055 28.6899 49.2823 28.7307 49.12 28.8121C49.0388 28.8528 48.9577 28.8732 48.9171 28.9139C48.8562 28.9343 48.8359 28.9546 48.8359 28.9546C48.8359 28.9546 48.8359 28.9139 48.8562 28.8528C48.8562 28.8121 48.8765 28.7918 48.8968 28.751C48.9171 28.7103 48.9374 28.6696 48.978 28.6289C49.0185 28.5881 49.0591 28.5474 49.0997 28.5067C49.1403 28.466 49.2011 28.4252 49.262 28.3845C49.3229 28.3438 49.3837 28.3234 49.4649 28.3031C49.5258 28.2827 49.6069 28.2623 49.6881 28.2623C49.8301 28.242 49.9721 28.242 50.1142 28.2623C50.2562 28.2827 50.3576 28.3234 50.4591 28.3845C50.5605 28.4252 50.6417 28.4863 50.6823 28.527C50.7025 28.527 50.7431 28.5678 50.7431 28.5678Z" fill="#192D4E"/>
<path d="M51.696 30.9297C51.696 30.9297 51.696 31.1333 51.6148 31.4387C51.5743 31.5813 51.5134 31.7645 51.412 31.9274C51.3714 32.0089 51.3308 32.1107 51.2699 32.1921C51.2294 32.2736 51.1482 32.3754 51.1279 32.4365C51.1279 32.4365 51.1076 32.4772 51.1076 32.4976C51.1076 32.5179 51.1076 32.5179 51.1076 32.5383C51.1076 32.579 51.1279 32.6197 51.1482 32.6401C51.1888 32.7012 51.2496 32.7826 51.3105 32.8233C51.3714 32.8844 51.4525 32.9252 51.5337 32.9455C51.6149 32.9659 51.6757 32.9862 51.7569 32.9862C51.8989 32.9862 52.0206 32.9455 52.1018 32.9048C52.1829 32.8641 52.2235 32.8437 52.2235 32.8437C52.2235 32.8437 52.2235 32.8437 52.2032 32.8641C52.1829 32.8844 52.1627 32.9048 52.1221 32.9455C52.0612 33.0066 51.9395 33.0881 51.7772 33.1084C51.696 33.1288 51.5946 33.1288 51.5134 33.0881C51.412 33.0677 51.3308 33.027 51.2294 32.9659C51.1482 32.9048 51.067 32.8233 51.0062 32.7215C50.9859 32.6604 50.9453 32.5994 50.9453 32.5383C50.9453 32.5179 50.9453 32.4568 50.9453 32.4365C50.9453 32.3957 50.9453 32.3957 50.9656 32.355C51.0062 32.2328 51.067 32.1514 51.1279 32.07C51.1888 31.9885 51.2294 31.9071 51.2902 31.8256C51.3917 31.6627 51.4728 31.5202 51.5337 31.3777C51.5946 31.2351 51.6554 31.1333 51.6757 31.0315C51.6757 30.9908 51.696 30.9297 51.696 30.9297Z" fill="#F99D6E"/>
<path d="M54.5561 33.1085C54.982 33.1085 55.3271 32.7621 55.3271 32.3348C55.3271 31.9075 54.982 31.561 54.5561 31.561C54.1303 31.561 53.7852 31.9075 53.7852 32.3348C53.7852 32.7621 54.1303 33.1085 54.5561 33.1085Z" fill="#E38371"/>
<path d="M54.6595 30.4208C54.6392 30.7873 54.3957 31.1131 54.1117 31.1538C53.8276 31.1946 53.6247 30.9299 53.6653 30.5633C53.6856 30.1968 53.9291 29.871 54.2131 29.8303C54.4769 29.7896 54.6798 30.0543 54.6595 30.4208Z" fill="#192D4E"/>
<path d="M50.5409 29.8911C50.6626 30.2373 50.5815 30.6445 50.338 30.787C50.0945 30.9296 49.8105 30.787 49.6887 30.4409C49.567 30.0947 49.6482 29.6875 49.8916 29.545C50.1351 29.3821 50.4192 29.545 50.5409 29.8911Z" fill="#192D4E"/>
<path d="M48.9976 33.1085C49.4234 33.1085 49.7685 32.7621 49.7685 32.3348C49.7685 31.9075 49.4234 31.561 48.9976 31.561C48.5717 31.561 48.2266 31.9075 48.2266 32.3348C48.2266 32.7621 48.5717 33.1085 48.9976 33.1085Z" fill="#E38371"/>
<path d="M58.9583 31.7446C58.8366 31.6632 58.6743 31.6428 58.5525 31.6632C58.4105 31.6836 58.2888 31.7446 58.167 31.8057C58.0453 31.8872 57.9439 31.9686 57.8424 32.0704C57.741 32.1722 57.6598 32.274 57.6192 32.3962L57.4975 32.274C57.6395 32.2333 57.8018 32.1926 57.9844 32.2333C58.0656 32.2537 58.167 32.2944 58.2279 32.3555C58.2685 32.3962 58.2888 32.4369 58.3091 32.4777C58.3293 32.5184 58.3294 32.5591 58.3496 32.5998C58.3496 32.6609 58.3496 32.6813 58.3699 32.722C58.3699 32.7627 58.3699 32.8035 58.3496 32.8442C58.3294 32.9256 58.3091 33.0071 58.2482 33.0682C58.167 33.2107 58.025 33.3125 57.883 33.3532C58.0047 33.2718 58.1062 33.17 58.167 33.0274C58.1873 32.9664 58.2076 32.9053 58.2076 32.8238C58.2076 32.7831 58.2076 32.7627 58.2076 32.722C58.2076 32.7017 58.1873 32.6406 58.1873 32.6202C58.1467 32.498 58.0656 32.4166 57.9439 32.3962C57.8221 32.3759 57.6801 32.4166 57.5381 32.4573L57.3555 32.5184L57.4163 32.3351C57.4772 32.1722 57.5786 32.0297 57.7004 31.9279C57.8221 31.8261 57.9439 31.7243 58.0859 31.6632C58.2279 31.5817 58.3902 31.541 58.5525 31.541C58.6946 31.5817 58.8569 31.6225 58.9583 31.7446Z" fill="#F99D6E"/>
<path opacity="0.3" d="M73.2199 74.2198L36.8008 66.6451V56.9121L73.2199 64.3442V74.2198Z" fill="#231F20"/>
<path d="M61.9616 66.0749C61.9616 67.6021 60.7239 68.5998 59.182 68.274C57.64 67.9482 56.4023 66.4618 56.4023 64.9346C56.4023 63.4075 57.64 62.4098 59.182 62.7355C60.7036 63.041 61.9616 64.5478 61.9616 66.0749Z" fill="#D8555F"/>
<path d="M59.707 66.0345C59.707 66.0345 59.8085 65.4847 60.1331 65.4236C60.7621 65.3218 61.1476 66.0141 60.8635 66.5842C60.1737 66.5028 59.707 66.0345 59.707 66.0345Z" fill="white"/>
<path d="M58.6328 65.7898C58.6328 65.7898 58.511 65.1993 58.1661 65.016C57.5371 64.6699 57.1719 65.24 57.4763 65.912C58.1864 66.0952 58.6328 65.7898 58.6328 65.7898Z" fill="white"/>
<path d="M58.0424 65.4234L57.5352 65.0161C57.9004 64.4867 58.4482 64.3034 59.138 64.446C59.8076 64.5885 60.3351 64.8329 60.7611 65.6677L60.2539 65.8713C59.9496 65.3012 59.6452 65.1383 59.138 65.0365C58.6714 64.9347 58.3061 65.0568 58.0424 65.4234Z" fill="white"/>
<path d="M53.8014 64.4055C53.8014 65.9326 52.5638 66.91 51.0218 66.6046C49.4798 66.2788 48.2422 64.7924 48.2422 63.2652C48.2422 61.738 49.4798 60.7607 51.0218 61.0661C52.5638 61.3715 53.8014 62.8783 53.8014 64.4055Z" fill="#76BBA0"/>
<path d="M50.8643 63.2241C50.8643 63.2241 50.3976 63.4685 50.073 63.2445C49.4643 62.8576 49.6469 62.1653 50.2759 62.0635C50.8034 62.6336 50.8643 63.2241 50.8643 63.2241Z" fill="white"/>
<path d="M51.6141 64.1606C51.6141 64.1606 51.3098 64.5679 51.4518 64.9344C51.7562 65.586 52.4663 65.5249 52.6692 64.9344C52.2025 64.3032 51.6141 64.1606 51.6141 64.1606Z" fill="white"/>
<path d="M51.8573 64.7918L51.9993 65.3823C51.3095 65.4027 50.7211 65.1176 50.2139 64.5271C49.7472 63.957 49.4835 63.4276 49.6863 62.6538L50.2544 62.9185C50.1124 63.4479 50.2544 63.7737 50.6196 64.2013C50.9849 64.6085 51.3704 64.7918 51.8573 64.7918Z" fill="white"/>
<path opacity="0.1" d="M51.3096 69.516L56.7674 70.5952C56.9298 70.6359 57.0515 70.7784 57.0515 70.9617V72.7128C57.0515 72.9368 56.8283 73.1201 56.6051 73.0793L51.1473 71.9187C50.985 71.878 50.8633 71.7355 50.8633 71.5522V69.8825C50.8836 69.6382 51.0865 69.4753 51.3096 69.516Z" fill="#231F20"/>
<path d="M17.2867 29.4233H33.3355C34.4514 29.4233 35.3644 28.507 35.3644 27.3871V21.7672C35.3644 20.6472 34.4514 19.731 33.3355 19.731H17.2867C16.1708 19.731 15.2578 20.6472 15.2578 21.7672V27.3871C15.2578 28.507 16.1708 29.4233 17.2867 29.4233Z" fill="#00BDD7"/>
<path d="M18.1782 22.887H32.6038C32.9285 22.887 33.1922 22.6223 33.1922 22.2965C33.1922 21.9708 32.9285 21.7061 32.6038 21.7061H18.1782C17.8536 21.7061 17.5898 21.9708 17.5898 22.2965C17.5898 22.6223 17.8536 22.887 18.1782 22.887Z" fill="#FFFDF9"/>
<path d="M18.1782 25.1678H32.6038C32.9285 25.1678 33.1922 24.9031 33.1922 24.5773C33.1922 24.2515 32.9285 23.9868 32.6038 23.9868H18.1782C17.8536 23.9868 17.5898 24.2515 17.5898 24.5773C17.5898 24.9031 17.8536 25.1678 18.1782 25.1678Z" fill="#FFFDF9"/>
<path d="M22.6235 27.4481H32.5855C32.9102 27.4481 33.1739 27.1834 33.1739 26.8576C33.1739 26.5318 32.9102 26.2671 32.5855 26.2671H22.6235C22.2989 26.2671 22.0352 26.5318 22.0352 26.8576C22.0554 27.1834 22.2989 27.4481 22.6235 27.4481Z" fill="#FFFDF9"/>
<path d="M33.172 29.0161V31.8872L29.1953 29.2605L33.172 29.0161Z" fill="#00BDD7"/>
<path d="M20.5511 43.4325H4.48204C3.36614 43.4325 2.45312 42.5163 2.45312 41.3963V35.7764C2.45312 34.6565 3.36614 33.7402 4.48204 33.7402H20.5308C21.6467 33.7402 22.5597 34.6565 22.5597 35.7764V41.3963C22.58 42.5163 21.667 43.4325 20.5511 43.4325Z" fill="#92D4D6"/>
<path d="M19.6585 36.8963H5.23292C4.90829 36.8963 4.64453 36.6316 4.64453 36.3058C4.64453 35.98 4.90829 35.7153 5.23292 35.7153H19.6585C19.9831 35.7153 20.2469 35.98 20.2469 36.3058C20.2469 36.6316 19.9831 36.8963 19.6585 36.8963Z" fill="#FFFDF9"/>
<path d="M19.6585 39.1771H5.23292C4.90829 39.1771 4.64453 38.9124 4.64453 38.5866C4.64453 38.2608 4.90829 37.9961 5.23292 37.9961H19.6585C19.9831 37.9961 20.2469 38.2608 20.2469 38.5866C20.2469 38.9124 19.9831 39.1771 19.6585 39.1771Z" fill="#FFFDF9"/>
<path d="M15.1949 41.4574H5.23292C4.90829 41.4574 4.64453 41.1927 4.64453 40.8669C4.64453 40.5411 4.90829 40.2764 5.23292 40.2764H15.1949C15.5195 40.2764 15.7833 40.5411 15.7833 40.8669C15.7833 41.1927 15.5195 41.4574 15.1949 41.4574Z" fill="#FFFDF9"/>
<path d="M4.66406 43.0254V45.8964L8.64074 43.2697L4.66406 43.0254Z" fill="#92D4D6"/>
<path d="M17.2867 55.0182H33.3355C34.4514 55.0182 35.3644 54.102 35.3644 52.982V49.9888C35.3644 48.8689 34.4514 47.9526 33.3355 47.9526H17.2867C16.1708 47.9526 15.2578 48.8689 15.2578 49.9888V52.982C15.2578 54.102 16.1708 55.0182 17.2867 55.0182Z" fill="#00BDD7"/>
<path d="M18.1782 50.7425H32.6038C32.9285 50.7425 33.1922 50.4778 33.1922 50.152C33.1922 49.8262 32.9285 49.5615 32.6038 49.5615H18.1782C17.8536 49.5615 17.5898 49.8262 17.5898 50.152C17.5898 50.4982 17.8536 50.7425 18.1782 50.7425Z" fill="#FFFDF9"/>
<path d="M22.6235 53.0228H32.5855C32.9102 53.0228 33.1739 52.7581 33.1739 52.4323C33.1739 52.1065 32.9102 51.8418 32.5855 51.8418H22.6235C22.2989 51.8418 22.0352 52.1065 22.0352 52.4323C22.0554 52.7784 22.2989 53.0228 22.6235 53.0228Z" fill="#FFFDF9"/>
<path d="M33.172 54.6113V57.4824L29.1953 54.8557L33.172 54.6113Z" fill="#00BDD7"/>
<path d="M50.5377 9.83486C51.1869 9.79414 53.8651 10.2217 53.7839 9.00002C53.7636 8.61314 53.4593 8.32808 53.1347 8.12446C52.7289 7.90048 52.2825 7.7783 51.8362 7.71722C51.1261 7.61541 49.2797 7.33034 48.6711 7.83939C48.0827 8.32808 48.0827 9.20364 48.8131 9.61088C49.3203 9.91631 49.9493 9.87559 50.5377 9.83486Z" fill="#DEF9F6"/>
<path d="M10.7911 14.7423C11.0143 14.8034 11.1766 15.0274 11.2781 15.2513C12.1099 17.0025 10.0607 21.9504 7.78835 20.0568C6.30724 18.8147 9.77669 14.4165 10.7911 14.7423Z" fill="#DEF9F6"/>
<path d="M11.0144 10.3234C12.1506 9.9976 13.1245 11.0361 12.9216 12.1763C12.7999 12.9094 12.0897 13.4999 11.3593 13.4184C9.97967 13.2759 9.65504 10.7103 11.0144 10.3234Z" fill="#DEF9F6"/>
<path d="M58.6547 8.38925C58.9388 9.54988 57.8635 10.4865 56.7475 10.2422C56.0374 10.0997 55.449 9.36662 55.5505 8.63359C55.7534 7.24897 58.3301 7.02499 58.6547 8.38925Z" fill="#DEF9F6"/>
</g>
<defs>
<clipPath id="clip0">
<rect width="87" height="81" fill="white"/>
</clipPath>
</defs>
</svg>
