<svg width="15" height="20" viewBox="0 0 15 20" fill="none" xmlns="http://www.w3.org/2000/svg">
<path d="M1.68457 13.8024C1.91935 13.8002 2.12862 13.6021 2.13035 13.3801C2.13209 13.1569 1.88978 12.941 1.65211 12.9538C1.46545 12.9639 1.24053 13.2121 1.24864 13.3996C1.25734 13.6105 1.46719 13.8041 1.68457 13.8019V13.8024Z" fill="#797979"/>
<path d="M0.406347 7.84204C0.511272 7.95921 0.507793 8.02839 0.404608 8.14388C0.137949 8.44238 0.00635901 8.7922 0.0150544 9.19224C0.0243295 9.6012 0.0225904 10.0107 0.0156341 10.4197C0.00925748 10.8097 0.133891 11.1528 0.405768 11.4379C0.518228 11.5556 0.500837 11.6198 0.395913 11.7319C0.140848 12.0031 0.0185326 12.3312 0.0179529 12.6994C0.0173732 13.1363 0.0208513 13.5737 0.0162138 14.0105C0.0121559 14.3899 0.139109 14.7247 0.393014 15.007C0.503156 15.1298 0.51417 15.2017 0.40171 15.3306C0.140268 15.6308 0.0104169 15.9828 0.0144747 16.3818C0.0220107 17.0323 0.0144747 17.6834 0.0167935 18.3345C0.019692 19.3143 0.721121 19.9938 1.74834 19.9966C3.8932 20.0016 6.03806 19.9972 8.18235 19.9988C8.53132 19.9988 8.85363 19.9179 9.13015 19.7132C9.25594 19.62 9.36203 19.6233 9.49883 19.6791C10.6953 20.169 11.8675 20.0859 13.0077 19.5123C14.5572 18.7329 15.5856 16.8052 14.6326 15.012C13.8216 13.4861 12.6645 12.2185 11.4721 10.9748C11.2263 10.7187 10.9562 10.7455 10.6936 11.0044C10.3574 11.3353 10.031 11.6756 9.69303 12.0193C9.63042 11.9328 9.58926 11.8424 9.51854 11.7844C9.34695 11.6438 9.36666 11.5411 9.51448 11.381C9.74288 11.1333 9.85708 10.8275 9.85187 10.4855C9.84549 10.086 9.83679 9.68545 9.85476 9.28597C9.87447 8.84688 9.7539 8.46023 9.4571 8.1277C9.37362 8.03397 9.36956 7.96869 9.44898 7.86324C10.0084 7.12287 10.0304 6.06614 9.50521 5.30736C9.05073 4.65011 8.59161 3.99566 8.1296 3.34288C7.90062 3.01928 7.69251 2.73529 7.78004 2.27165C7.88207 1.73157 7.80671 1.15969 7.80265 0.602312C7.79917 0.162103 7.62932 0.0025348 7.16615 0.00141894C6.32559 -0.00081279 5.48504 0.000861007 4.64448 0.000861007C3.97784 0.000861007 3.31119 -0.00192866 2.64454 0.0025348C2.38658 0.0042086 2.12804 0.0728343 2.10485 0.356822C2.04572 1.08827 2.03413 1.82418 2.11644 2.55508C2.13267 2.69846 2.12456 2.7961 2.04572 2.90769C1.5582 3.59952 1.09908 4.312 0.581414 4.98208C0.157659 5.53109 -0.0458134 6.10966 0.00867778 6.79536C0.0399812 7.19094 0.138529 7.54466 0.406347 7.8426V7.84204ZM8.42234 19.0928C8.38002 19.1759 8.2467 19.1463 8.15394 19.1463C7.07224 19.1491 5.98995 19.148 4.90824 19.148V19.1491C3.88451 19.1491 2.86019 19.1508 1.83645 19.1485C1.16401 19.1469 0.870681 18.8612 0.868942 18.2112C0.867203 17.6438 0.866623 17.0769 0.868942 16.5095C0.871261 15.8891 1.16748 15.5979 1.80341 15.5967C3.54249 15.5945 5.28099 15.5995 7.02007 15.5917C7.24267 15.5906 7.28614 15.6269 7.24035 15.8523C6.99862 17.0429 7.40788 18.0383 8.27104 18.8874C8.33249 18.9482 8.47509 18.989 8.42234 19.0928ZM10.9608 11.9501C11.0715 11.8329 11.1405 11.858 11.2368 11.9601C12.1985 12.9812 13.0837 14.0535 13.7944 15.2586C14.7682 16.9096 13.4819 18.7697 11.7336 19.0799C11.5046 19.1206 11.2756 19.1407 11.0397 19.1497C9.83158 19.0766 8.86755 18.6096 8.3064 17.5305C7.92149 16.7913 7.94757 16.0464 8.35684 15.3167C9.05421 14.0719 9.9765 12.989 10.9608 11.9501ZM6.52964 9.36966C6.45255 9.3652 6.37545 9.36799 6.29777 9.36799C4.58825 9.36799 2.87932 9.36297 1.1698 9.37301C0.903144 9.37468 0.828364 9.30438 0.887492 9.05387C0.990678 8.61589 1.24864 8.39719 1.71645 8.39663C3.86016 8.39551 6.00444 8.39551 8.14815 8.39663C8.65538 8.39663 8.98291 8.69568 8.99798 9.18499C9.01015 9.58447 9.00725 9.9845 8.99914 10.384C8.98928 10.875 8.69074 11.155 8.17887 11.1567C7.09716 11.1595 6.01546 11.1578 4.93433 11.1573C3.84335 11.1573 2.75179 11.1595 1.6608 11.1562C1.22893 11.155 0.978504 10.9492 0.893289 10.5452C0.831842 10.2518 0.85387 10.2216 1.16632 10.2211C2.84686 10.22 4.52681 10.2211 6.20734 10.22C6.34182 10.22 6.47515 10.2239 6.60964 10.1915C6.84384 10.1357 6.99456 10.0096 6.99746 9.77305C7.00036 9.5482 6.7992 9.38528 6.52964 9.36966ZM2.95874 1.07209C2.95468 0.920892 3.01033 0.857845 3.1767 0.858403C4.3529 0.862867 5.52967 0.862867 6.70587 0.858403C6.86992 0.857845 6.92615 0.913638 6.92036 1.06874C6.9105 1.32818 6.9076 1.58874 6.92094 1.84818C6.93079 2.03062 6.845 2.06242 6.68037 2.06019C6.10183 2.05294 5.5233 2.0574 4.94476 2.0574C4.36623 2.0574 3.7877 2.05015 3.20916 2.06131C3.01728 2.06521 2.95004 2.00384 2.95758 1.82363C2.96801 1.57367 2.96511 1.3226 2.95874 1.07209ZM1.13676 5.69289C1.76051 4.83256 2.35991 3.95549 2.96163 3.08065C3.0625 2.93391 3.16858 2.86975 3.35814 2.87142C4.41087 2.88091 5.46359 2.88147 6.51573 2.87142C6.70703 2.86975 6.81253 2.93782 6.91224 3.08232C7.52556 3.97222 8.14119 4.86101 8.76726 5.74254C9.07392 6.17494 9.05363 6.63747 8.93073 7.10557C8.85595 7.38956 8.58524 7.54299 8.238 7.54411C7.13716 7.5469 6.03633 7.54522 4.93491 7.54522C3.8532 7.54522 2.77149 7.5469 1.68979 7.54522C1.19241 7.54411 0.960534 7.36445 0.889232 6.88798C0.826045 6.46786 0.864884 6.06838 1.13618 5.694L1.13676 5.69289ZM0.901985 12.6163C0.959954 12.2341 1.2214 12.0232 1.61733 12.0221C3.82943 12.0182 6.04154 12.0182 8.25365 12.0221C8.65538 12.0226 8.91276 12.2536 8.98928 12.6391C9.03044 12.8467 8.97885 12.9499 8.72958 12.9471C7.81193 12.9382 6.89427 12.9438 5.97662 12.9438C5.11693 12.9438 4.25725 12.9427 3.39756 12.9454C3.29264 12.9454 3.18366 12.951 3.08395 12.9789C2.87236 13.0386 2.76686 13.2004 2.77265 13.3996C2.77787 13.5899 2.89613 13.7333 3.10018 13.7768C3.21148 13.8002 3.32916 13.8036 3.44452 13.8036C4.93201 13.8052 6.4195 13.8036 7.90758 13.8058C8.01018 13.8058 8.11742 13.7801 8.23742 13.8432C8.06699 14.1249 7.8954 14.4005 7.73309 14.6812C7.6728 14.785 7.58179 14.7788 7.48498 14.7788C5.56272 14.7788 3.64045 14.7822 1.71819 14.776C1.23589 14.7744 0.936766 14.5383 0.890971 14.0898C0.841697 13.601 0.828364 13.105 0.902564 12.6168L0.901985 12.6163Z" fill="#797979"/>
<path d="M8.06873 10.1999C8.28264 10.2054 8.49944 10.0063 8.5064 9.79815C8.51393 9.56996 8.31046 9.37078 8.07105 9.37078C7.83801 9.37078 7.62584 9.57386 7.62468 9.79815C7.62353 9.99176 7.84787 10.1943 8.06873 10.1999Z" fill="#797979"/>
<path d="M11.5851 18.368C12.6037 18.166 13.3718 17.3671 13.3863 16.495C13.3921 16.1368 13.2709 15.9694 12.995 15.9561C12.7353 15.9432 12.5753 16.0927 12.5364 16.4169C12.4129 17.4429 11.1226 17.8792 10.2826 17.3565C9.92549 17.1344 9.69245 16.8415 9.66231 16.4097C9.64086 16.1067 9.44376 15.9432 9.18638 15.9566C8.92146 15.97 8.769 16.153 8.7719 16.4582C8.7748 16.7221 8.84726 16.9704 8.97015 17.2047C9.43913 18.0963 10.5255 18.5789 11.5846 18.3691L11.5851 18.368Z" fill="#797979"/>
</svg>
