<svg width="832" height="974" viewBox="0 0 832 974" fill="none" xmlns="http://www.w3.org/2000/svg">
<path d="M827.265 974H-14.9995V0H374.427C467.589 16.7807 594.206 19.4573 613.971 81.0208C656.795 213.928 534.501 287.536 613.971 367.013C693.442 446.387 901.177 554.586 798.545 686.772C696.015 818.959 772.809 816.076 798.545 854.682C819.133 885.567 842.089 930.453 827.265 974Z" fill="#F1F1F1"/>
<path d="M164.632 901.112C172.25 901.112 178.735 895.141 179.25 887.42C179.765 879.39 173.691 872.492 165.662 871.978C165.25 871.978 147.853 870.639 124.794 861.168C94.1174 848.608 68.3822 828.327 48.3086 801.046C43.5733 794.56 34.4116 793.119 27.9263 797.854C21.441 802.59 19.9998 811.752 24.7351 818.238C80.941 895.141 160.412 900.906 163.809 901.112C164.015 901.112 164.323 901.112 164.632 901.112Z" fill="#74818E"/>
<path d="M731.427 637.666C731.427 630.048 725.456 623.562 717.736 623.047C709.706 622.532 702.809 628.606 702.294 636.636C702.294 637.048 700.956 654.446 691.486 677.507C678.927 708.186 658.647 733.923 631.368 753.998C624.883 758.734 623.441 767.896 628.177 774.382C632.912 780.868 642.074 782.309 648.559 777.573C725.456 721.363 731.221 641.887 731.427 638.489C731.427 638.283 731.427 637.975 731.427 637.666Z" fill="#74818E"/>
<path d="M296.397 61.5635C290.736 66.711 289.912 75.4616 294.75 81.5356C299.794 87.8155 308.956 88.9479 315.236 83.9034C315.544 83.6975 329.441 72.9909 352.809 64.549C384 53.3276 416.736 51.1657 449.883 58.0633C457.809 59.7104 465.53 54.6659 467.177 46.7389C468.824 38.8118 463.78 31.0906 455.853 29.4434C362.691 9.98608 299.691 58.8868 297.118 60.9458C296.912 61.1517 296.603 61.3576 296.397 61.5635Z" fill="#74818E"/>
<path d="M629.721 621.915C629.721 621.915 603.265 616.458 591.941 621.915C580.721 627.371 571.044 660.829 571.044 660.829L515.559 664.741L565.794 570.337L617.882 595.045L629.721 621.915Z" fill="#F4907C"/>
<path d="M611.397 309.465C654.015 328.201 673.471 377.926 654.735 420.65L511.853 745.968C493.118 788.589 443.397 808.046 400.677 789.31L-14.9999 606.781V34.385L611.397 309.465Z" fill="#D4D2D1"/>
<path opacity="0.4" d="M200.044 501.156L193.868 558.601L161.132 611.517L111.309 662.168L317.603 752.351L329.75 652.902L341.485 599.987L374.221 543.879L203.03 469.447C203.03 469.447 201.794 471.403 201.691 473.153C201.691 474.801 200.044 501.156 200.044 501.156Z" fill="#808080"/>
<path d="M202.515 504.45L349.103 567.763C352.088 568.999 353.426 572.499 352.088 575.381L310.294 672.153C309.059 675.139 305.559 676.477 302.676 675.139L156.088 611.825C153.103 610.59 151.765 607.09 153.103 604.207L194.897 507.435C196.132 504.553 199.529 503.214 202.515 504.45Z" fill="#E5E5E5"/>
<path d="M215.999 515.156L332.117 565.292C334.485 566.322 335.617 569.102 334.588 571.469L309.47 629.635C308.44 632.003 305.661 633.136 303.293 632.106L187.176 581.97C184.808 580.941 183.676 578.161 184.705 575.793L209.823 517.627C210.852 515.156 213.632 514.127 215.999 515.156Z" fill="#666666"/>
<path d="M233.397 607.399L253.059 615.943C255.529 616.973 256.662 619.856 255.632 622.326L248.632 638.592C247.603 641.063 244.72 642.195 242.25 641.166L222.588 632.621C220.117 631.592 218.985 628.709 220.014 626.238L227.014 609.972C228.044 607.399 230.926 606.266 233.397 607.399Z" fill="#CBCBCB"/>
<path d="M207.867 468.418L289.808 503.832L371.75 539.246C374.529 540.379 375.25 543.982 373.191 546.144L353.323 567.351C352.397 568.278 350.955 568.587 349.823 568.072L275.911 536.158L201.999 504.244C200.764 503.729 200.044 502.494 200.147 501.155L201.897 472.124C201.999 469.138 205.088 467.285 207.867 468.418Z" fill="white"/>
<path d="M200.043 501.155L201.793 472.227C202.925 471.197 204.675 470.785 206.425 471.609L288.367 507.023L370.308 542.438C372.058 543.159 372.984 544.703 372.984 546.247L353.117 567.352C352.19 568.278 350.749 568.587 349.617 568.072L275.705 536.158L201.793 504.244C200.764 503.729 199.94 502.494 200.043 501.155Z" fill="#808080"/>
<path d="M207.353 503.008L207.867 479.124C208.794 478.301 210.441 478.095 211.985 478.712L286.617 510.935L361.25 543.158C362.794 543.879 363.72 545.115 363.823 546.453L346.838 563.234C346.014 563.954 344.779 564.16 343.75 563.748L276.426 534.717L209.103 505.685C207.97 505.17 207.25 504.141 207.353 503.008Z" fill="#A5B4C2"/>
<path d="M279.927 677.919L286.618 646.005C286.618 646.005 280.338 625.724 280.853 621.915C281.368 618.003 288.162 593.81 288.162 593.81C288.162 593.81 292.794 593.295 293.721 595.766C294.75 598.236 293.721 610.075 293.721 610.075C293.721 610.075 297.118 606.369 298.147 604.104C298.868 602.457 300.515 585.78 301.235 577.852C301.441 575.485 303.5 573.632 305.868 573.632C308.235 573.632 310.191 575.382 310.5 577.75L311.735 587.118L319.662 588.662L323.368 597.31L331.706 615.017L326.456 634.989L314.721 650.431L312.25 677.919H279.927Z" fill="#EAC9B8"/>
<path d="M168.236 630.254L190.265 606.163C190.265 606.163 210.339 599.369 213.221 596.692C216.103 594.015 231.647 574.352 231.647 574.352C231.647 574.352 229.383 570.337 226.809 570.955C224.236 571.573 215.177 579.294 215.177 579.294C215.177 579.294 216.206 574.352 217.441 572.19C218.368 570.646 230.927 559.528 237 554.277C238.853 552.733 239.162 549.953 237.721 547.997C236.383 546.144 233.809 545.527 231.75 546.659L223.412 551.189L217.544 545.732L208.383 547.791L189.133 551.498L175.956 567.455L170.294 585.985L149.5 604.104L168.236 630.254Z" fill="#EAC9B8"/>
<path d="M411.788 498.594L546.771 546.672L512.338 643.359L377.355 595.281L411.788 498.594Z" fill="white"/>
<path d="M522.867 516.083L505.985 523.187C505.985 523.187 486.735 519.171 480.353 521.539C473.97 523.907 454.926 536.158 452.97 537.496C450.912 538.938 447.823 545.629 447.823 547.071C447.823 548.512 451.941 554.586 456.367 554.998C460.794 555.409 481.073 556.027 481.073 556.027C481.073 556.027 475.926 560.454 475 561.689C474.176 562.925 473.97 566.322 474.691 566.94C475.412 567.557 491.059 560.866 495.485 559.425C499.912 557.983 506.706 552.115 507.838 550.88C509.073 549.644 513.191 545.012 513.191 545.012L531.823 537.496L522.867 516.083Z" fill="#FAD1B1"/>
<path d="M416.529 653.005L404.794 639.004C404.794 639.004 385.75 633.754 381.221 628.709C376.691 623.665 378.132 615.635 377 613.37C375.868 611.208 377.515 597.001 376.588 595.971C373.088 592.265 368.147 588.559 365.265 585.368C360.118 579.705 363.823 577.235 366.397 578.264C370.515 579.911 397.691 598.339 397.691 598.339C397.691 598.339 395.118 591.956 394.912 590.515C394.706 589.074 396.147 585.882 396.971 585.677C397.897 585.471 408.706 598.545 412 601.84C415.294 605.134 418.588 613.473 419.103 615.12C419.618 616.767 421.162 622.841 421.162 622.841L434.235 638.078L416.529 653.005Z" fill="#FAD1B1"/>
<path d="M317.294 306.994L424.147 342.614C430.529 344.776 433.926 351.674 431.867 357.954L410.559 421.988C408.397 428.371 401.5 431.768 395.22 429.709L288.367 394.089C281.985 391.927 278.588 385.029 280.647 378.749L301.853 314.612C304.014 308.332 310.911 304.832 317.294 306.994Z" fill="#647889"/>
<path d="M287.235 397.074L394.088 432.695C402.117 435.371 410.764 431.047 413.441 423.017L434.75 358.983C437.426 350.953 433.103 342.305 425.073 339.629L318.22 304.008C310.191 301.332 301.544 305.656 298.867 313.686L277.559 377.72C274.985 385.75 279.309 394.398 287.235 397.074ZM418.382 343.85C423.117 345.394 425.691 350.541 424.147 355.277L402.838 419.311C401.294 424.047 396.147 426.621 391.412 425.076L289.294 391.103C284.559 389.559 281.985 384.411 283.529 379.676L304.838 315.642C306.382 310.906 311.529 308.332 316.264 309.876L418.382 343.85Z" fill="#F8FBFC"/>
<path d="M414.471 387.706C413.853 389.662 414.883 391.824 416.838 392.545C418.794 393.162 420.956 392.133 421.677 390.177C422.294 388.221 421.265 386.059 419.309 385.338C417.25 384.617 415.088 385.75 414.471 387.706Z" fill="#D4D2D1"/>
<path d="M417.044 248.416C417.044 248.416 423.221 250.989 428.985 251.71C434.75 252.431 442.059 249.239 446.897 250.063C451.735 250.887 463.985 259.328 463.985 259.328L468.618 270.653L471.5 289.287L450.603 297.831C450.603 297.831 445.25 300.199 436.5 295.566C427.75 290.934 412 277.344 412 277.344L401.5 271.888L417.044 248.416Z" fill="#EAC9B8"/>
<path d="M402.426 353.836L388.22 358.777C388.22 358.777 380.706 366.807 379.367 368.969C378.029 371.131 379.367 377.823 379.367 377.823C379.367 377.823 374.426 382.764 374.632 387.5C374.941 392.235 382.353 398.515 391.72 398.824C401.088 399.133 410.97 400.163 413.235 398.824C415.397 397.486 425.897 376.381 425.897 376.381L440.823 355.895L411.897 341.791L402.426 353.836Z" fill="#EAC9B8"/>
<path d="M704.044 650.02C704.044 650.02 708.676 601.222 697.662 586.088C686.544 570.852 626.735 465.741 621.691 461.52C616.647 457.299 510.617 515.774 510.617 515.774C510.617 515.774 522.559 543.673 523.794 544.188C525.029 544.703 603.676 516.186 603.676 516.186L617.264 560.042L596.882 552.218L578.662 593.81C578.662 593.81 600.279 607.399 637.029 625.518C673.779 643.637 704.044 650.02 704.044 650.02Z" fill="#80C1D8"/>
<path d="M663.176 729.702C663.691 730.938 610.367 770.161 589.882 763.058C569.397 755.954 489.205 736.085 478.294 728.364C467.382 720.643 407.367 649.402 407.367 649.402L426.411 626.239L489.72 683.478L533.367 696.964L553.955 650.02C553.955 650.02 642.485 676.684 663.176 729.702Z" fill="#80C1D8"/>
<path d="M321.411 667.727L274.161 661.447L256.352 725.996L135.602 672.977L177.499 631.489L148.779 596.486L56.0288 672.669C56.0288 672.669 28.8523 752.866 29.5729 761.719C30.2935 770.573 62.5141 838.004 111.308 860.756C160.102 883.508 226.293 854.064 235.146 852.006C243.896 849.947 296.088 783.75 297.117 781.486C298.044 779.324 321.411 667.727 321.411 667.727Z" fill="#F39475"/>
<path d="M272.926 217.222C278.897 185.205 281.676 113.45 287.647 103.258C295.47 89.9774 313.588 71.2407 342.103 60.1222C342.103 60.1222 464.088 49.6214 491.985 66.8139C519.882 84.0063 530.073 235.135 530.073 241.93C530.073 248.725 436.088 368.351 436.088 368.351L406.338 344.982L466.559 245.945L332.735 187.161L330.367 203.839L423.838 246.974L405.309 280.124L285.588 238.636C276.632 235.65 271.279 226.488 272.926 217.222Z" fill="#E74A5F"/>
<path d="M421.882 357.13L433.103 359.498L529.353 243.886L436.191 368.351L421.882 357.13Z" fill="#C9364F"/>
<path d="M272.823 223.296C273.029 223.605 278.691 231.429 287.338 234.724C296.191 238.121 399.646 269.726 399.646 269.726L411.896 268.285L405.205 280.227L285.485 238.739C278.588 236.268 273.852 230.194 272.823 223.296Z" fill="#C9364F"/>
<path d="M466.661 245.945L447.411 104.184C447.411 104.184 392.235 98.5223 376.793 104.184C361.352 109.847 338.293 120.142 338.293 120.142L332.632 187.161L466.661 245.945Z" fill="#C9364F"/>
<path d="M483.132 76.9028C483.132 76.9028 453.999 112.626 453.279 147.732C452.661 182.837 441.235 168.219 441.235 168.219L447.308 104.081C447.411 104.081 462.441 83.3886 483.132 76.9028Z" fill="#C9364F"/>
<path d="M337.162 134.863C337.162 134.863 343.647 97.1839 325.324 78.9619C325.324 78.9619 348.485 89.1539 355.382 115.509C362.279 141.864 337.162 134.863 337.162 134.863Z" fill="#C9364F"/>
<path d="M362.793 108.302C361.867 107.993 363.514 134.039 363.514 134.039L372.058 147.32C372.058 147.32 391.926 161.527 395.632 163.277C399.337 165.027 421.058 165.336 421.058 165.336C421.058 165.336 427.543 168.424 430.632 166.983C433.72 165.542 436.911 154.732 436.911 154.732C436.911 154.732 448.955 148.246 448.543 123.436C448.132 98.625 416.529 87.7124 416.529 87.7124L362.793 108.302Z" fill="#EAC9B8"/>
<path d="M440.205 62.0782C440.205 62.0782 447.617 59.0927 451.735 64.652C455.955 70.3141 448.852 80.712 448.852 80.712L440.205 62.0782Z" fill="#EAC9B8"/>
<path d="M342.102 109.538C342.102 109.538 336.646 111.082 336.543 115.715C336.44 120.347 347.146 131.569 354.455 130.745C361.867 129.819 342.102 109.538 342.102 109.538Z" fill="#EAC9B8"/>
<path d="M452.043 115.612C452.043 115.612 456.161 70.623 441.543 49.3125C426.823 27.8992 410.764 24.193 410.764 24.193C410.764 24.193 395.529 14.2069 376.382 21.0016C357.235 27.7962 340.455 45.6064 334.279 64.446C328.102 83.2857 336.955 110.464 347.352 123.745C357.749 137.025 372.058 147.32 372.058 147.32C372.058 147.32 366.088 129.922 373.088 128.789C373.088 128.789 400.985 149.894 419.514 148.761C438.146 147.629 441.646 143.82 441.646 143.82C441.646 143.82 418.896 138.363 409.426 130.539C409.426 130.539 435.985 138.466 448.029 138.157L439.073 126.833L445.249 129.819C445.352 129.819 451.632 124.362 452.043 115.612Z" fill="#393F4B"/>
<path d="M600.279 681.831C600.279 681.831 597.808 691.817 602.235 698.921C606.661 706.024 615.205 707.362 620.867 715.289C626.529 723.216 637.647 738.762 653.294 739.071C668.941 739.379 680.676 723.011 689.838 719.51C698.999 716.01 722.264 722.599 729.573 707.98C736.882 693.361 719.588 668.859 731.014 656.197C742.338 643.637 740.691 628.504 734.308 621.297C723.808 609.561 709.911 608.429 693.955 617.591C677.897 626.753 668.838 619.959 661.529 617.488C654.22 615.017 641.867 614.194 637.132 616.253C632.499 618.312 629.308 626.547 629.308 626.547L600.279 681.831Z" fill="#11114E"/>
<path d="M111.515 746.174C111.515 746.174 129.118 727.128 155.471 731.349C181.721 735.57 187.589 741.027 187.589 741.027L180.795 740.821L192.942 750.189C192.942 750.189 207.353 773.764 206.942 790.545C206.53 807.326 198.603 818.032 198.603 818.032C198.603 818.032 195.515 834.504 187.795 841.505C180.074 848.505 161.339 856.021 147.236 854.579C133.133 853.138 120.883 845.623 120.883 845.623C120.883 845.623 108.942 844.799 99.9857 834.092C91.0299 823.386 91.6475 811.855 91.6475 811.855C91.6475 811.855 83.1033 801.252 82.6916 795.075C82.2798 788.795 87.0151 773.044 87.0151 773.044C87.0151 773.044 92.8828 747.101 111.515 746.174Z" fill="#6F251E"/>
<path d="M256.353 725.893L249.044 756.057L228.97 780.044C228.97 780.044 223.514 746.38 197.367 724.761C171.22 703.142 125.514 708.598 118.823 708.907C112.132 709.215 86.6025 739.071 86.6025 739.071L100.602 701.803L135.808 672.875L256.353 725.893Z" fill="#E28166"/>
<path d="M83.618 339.32H226.912V441.96H83.618V339.32Z" fill="white"/>
<path d="M75.4 225.188L217.018 247.042L201.366 348.481L59.7486 326.627L75.4 225.188Z" fill="white"/>
<path d="M598.529 417.561C597.294 419.62 594.618 420.238 592.662 418.899L577.735 409.737L582.265 402.427L597.088 411.59C599.147 412.928 599.765 415.502 598.529 417.561Z" fill="#F16A44"/>
<path d="M545.439 414.794C535.148 404.502 535.148 387.815 545.439 377.523C555.731 367.231 572.416 367.231 582.708 377.523C592.999 387.815 592.999 404.502 582.708 414.794C572.416 425.086 555.731 425.086 545.439 414.794Z" fill="#F16A44"/>
<path d="M588.338 391.824C588.029 389.353 587.308 386.882 586.176 384.617C585.044 382.352 583.603 380.191 581.853 378.337C578.353 374.631 573.617 372.161 568.573 371.131C567.956 371.028 567.338 370.925 566.72 370.822C566.103 370.719 565.485 370.719 564.764 370.719C564.456 370.719 564.147 370.719 563.838 370.719H562.911C562.294 370.719 561.676 370.822 560.956 370.925C558.382 371.234 555.911 371.955 553.647 373.087C551.382 374.219 549.22 375.558 547.367 377.308C545.514 379.058 543.97 381.014 542.838 383.279C545.72 379.161 549.632 375.97 554.058 374.014C558.588 372.058 563.529 371.646 568.367 372.469C573.103 373.396 577.632 375.661 581.132 379.058C584.735 382.558 587.206 386.985 588.338 391.824Z" fill="#F8FBFC"/>
<path d="M564.044 417.458C552.275 417.458 542.735 407.917 542.735 396.147C542.735 384.378 552.275 374.837 564.044 374.837C575.812 374.837 585.353 384.378 585.353 396.147C585.353 407.917 575.812 417.458 564.044 417.458Z" fill="#93603D"/>
<path d="M584.529 402.222C581.956 411.075 573.72 417.458 564.044 417.458C553.235 417.458 544.279 409.428 542.941 399.03C545.515 390.177 553.75 383.794 563.426 383.794C574.132 383.794 583.088 391.824 584.529 402.222Z" fill="#A4704C"/>
<g opacity="0.5">
<path opacity="0.5" d="M549.118 386.779C549.221 386.573 549.427 386.573 549.633 386.676C549.839 386.779 549.839 386.985 549.736 387.191C547.986 389.867 547.162 393.059 547.162 396.25C547.162 405.619 554.78 413.134 564.045 413.134C564.971 413.134 565.897 413.031 566.721 412.928C566.927 412.928 567.03 413.031 567.133 413.237C567.133 413.443 567.03 413.546 566.824 413.649C565.898 413.752 564.971 413.855 564.045 413.855C554.368 413.855 546.442 405.927 546.442 396.25C546.442 392.853 547.368 389.559 549.118 386.779Z" fill="#F8FBFC"/>
<path opacity="0.5" d="M573.927 382.455C573.824 382.352 573.721 382.146 573.824 381.941C573.927 381.838 574.133 381.735 574.339 381.838C578.868 385.132 581.647 390.485 581.647 396.147C581.647 400.471 580 404.692 577.118 407.884C577.015 407.987 576.912 407.987 576.912 407.987C576.809 407.987 576.706 407.987 576.706 407.884C576.603 407.781 576.603 407.575 576.706 407.369C579.486 404.28 581.03 400.265 581.03 396.045C580.927 390.794 578.353 385.647 573.927 382.455Z" fill="#F8FBFC"/>
<path opacity="0.5" d="M564.044 385.235C563.53 385.235 562.912 385.235 562.397 385.338C562.191 385.338 562.089 385.235 561.986 385.029C561.986 384.823 562.088 384.72 562.294 384.617C562.809 384.514 563.427 384.514 564.044 384.514C570.427 384.514 575.677 389.765 575.677 396.147C575.677 396.662 575.677 397.28 575.574 397.795C575.574 398.001 575.368 398.103 575.265 398.103C575.059 398.103 574.956 397.898 574.956 397.692C575.059 397.177 575.059 396.662 575.059 396.147C574.956 390.176 570.118 385.235 564.044 385.235Z" fill="#F8FBFC"/>
<path opacity="0.5" d="M555.603 404.075C555.5 403.972 555.5 403.766 555.603 403.56C555.706 403.457 555.912 403.457 556.118 403.56C558.177 405.722 561.059 407.06 564.147 407.06C567.235 407.06 570.118 405.722 572.177 403.56C572.28 403.457 572.485 403.457 572.691 403.56C572.794 403.663 572.794 403.869 572.691 404.075C570.53 406.442 567.338 407.884 564.147 407.884C560.853 407.781 557.765 406.442 555.603 404.075Z" fill="#F8FBFC"/>
<path opacity="0.5" d="M559.104 386.47C555.398 388.323 553.133 392.133 553.133 396.251C553.133 396.559 553.133 396.765 553.133 397.074C553.133 397.28 553.03 397.383 552.824 397.486C552.618 397.486 552.516 397.383 552.516 397.177C552.516 396.868 552.516 396.559 552.516 396.251C552.516 391.824 554.986 387.912 558.898 385.853C559.104 385.75 559.31 385.853 559.31 385.956C559.31 386.162 559.31 386.367 559.104 386.47Z" fill="#F8FBFC"/>
<path opacity="0.5" d="M564.045 405.207C560.854 405.207 557.971 403.56 556.324 400.883C556.221 400.677 556.324 400.471 556.427 400.368C556.633 400.265 556.839 400.368 556.942 400.471C558.486 403.045 561.162 404.486 564.045 404.486C564.251 404.486 564.354 404.589 564.354 404.795C564.354 405.001 564.251 405.207 564.045 405.207Z" fill="#F8FBFC"/>
<path opacity="0.5" d="M558.177 390.279C558.074 390.382 557.868 390.382 557.663 390.279C557.56 390.176 557.56 389.97 557.663 389.765C559.413 388.014 561.574 387.088 564.045 387.088C567.236 387.088 570.221 388.838 571.868 391.515C571.971 391.721 571.868 391.926 571.766 392.029C571.663 392.029 571.663 392.029 571.56 392.029C571.457 392.029 571.354 391.927 571.251 391.824C569.81 389.25 567.03 387.706 564.045 387.706C561.78 387.809 559.721 388.735 558.177 390.279Z" fill="#F8FBFC"/>
</g>
<path d="M135.5 155.453C137.147 153.806 139.927 153.806 141.574 155.453L153.927 167.807L147.853 173.881L135.5 161.527C133.853 159.88 133.853 157.1 135.5 155.453Z" fill="#F16A44"/>
<path d="M139.275 191.133C135.918 176.97 144.679 162.767 158.842 159.41C173.004 156.054 187.206 164.815 190.563 178.979C193.919 193.142 185.158 207.345 170.996 210.702C156.833 214.058 142.631 205.297 139.275 191.133Z" fill="#F16A44"/>
<path d="M189.339 180.778C189.03 178.308 188.309 175.837 187.177 173.572C186.045 171.307 184.604 169.145 182.854 167.292C179.354 163.586 174.618 161.115 169.574 160.086C168.956 159.983 168.339 159.88 167.721 159.777C167.104 159.674 166.486 159.674 165.765 159.674C165.456 159.674 165.148 159.674 164.839 159.674H163.912C163.295 159.674 162.677 159.777 161.956 159.88C159.383 160.189 156.912 160.909 154.648 162.042C152.383 163.174 150.221 164.512 148.368 166.263C146.515 168.013 144.971 169.969 143.839 172.234C146.721 168.116 150.633 164.924 155.059 162.968C159.589 161.012 164.53 160.6 169.368 161.424C174.104 162.35 178.633 164.615 182.133 168.013C185.633 171.41 188.104 175.837 189.339 180.778Z" fill="#F8FBFC"/>
<path d="M164.941 206.413C153.173 206.413 143.632 196.872 143.632 185.102C143.632 173.333 153.173 163.792 164.941 163.792C176.71 163.792 186.25 173.333 186.25 185.102C186.25 196.872 176.71 206.413 164.941 206.413Z" fill="#93603D"/>
<path d="M185.427 191.176C182.853 200.03 174.618 206.413 164.942 206.413C154.133 206.413 145.177 198.383 143.839 187.985C146.412 179.131 154.647 172.748 164.324 172.748C175.133 172.645 183.986 180.778 185.427 191.176Z" fill="#A4704C"/>
<g opacity="0.5">
<path opacity="0.5" d="M150.117 175.631C150.22 175.425 150.426 175.425 150.632 175.528C150.838 175.631 150.838 175.837 150.735 176.043C148.985 178.719 148.161 181.911 148.161 185.102C148.161 194.47 155.779 201.986 165.044 201.986C165.97 201.986 166.897 201.883 167.72 201.78C167.926 201.78 168.029 201.883 168.132 202.089C168.132 202.295 168.029 202.397 167.823 202.5C166.897 202.603 165.97 202.706 165.044 202.706C155.367 202.706 147.441 194.779 147.441 185.102C147.338 181.705 148.264 178.513 150.117 175.631Z" fill="#F8FBFC"/>
<path opacity="0.5" d="M174.823 171.41C174.72 171.307 174.617 171.101 174.72 170.895C174.823 170.792 175.029 170.689 175.235 170.792C179.765 174.087 182.544 179.44 182.544 185.102C182.544 189.426 180.897 193.647 178.015 196.838C177.912 196.941 177.809 196.941 177.809 196.941C177.706 196.941 177.603 196.941 177.603 196.838C177.5 196.735 177.5 196.529 177.603 196.323C180.382 193.235 181.926 189.22 181.926 184.999C181.926 179.646 179.25 174.601 174.823 171.41Z" fill="#F8FBFC"/>
<path opacity="0.5" d="M164.941 174.189C164.426 174.189 163.809 174.189 163.294 174.292C163.088 174.292 162.985 174.189 162.882 173.983C162.882 173.778 162.985 173.675 163.191 173.572C163.706 173.469 164.323 173.469 164.941 173.469C171.323 173.469 176.573 178.719 176.573 185.102C176.573 185.617 176.573 186.234 176.47 186.749C176.47 186.955 176.264 187.058 176.162 187.058C175.956 187.058 175.853 186.852 175.853 186.646C175.956 186.131 175.956 185.617 175.956 185.102C175.853 179.028 171.014 174.189 164.941 174.189Z" fill="#F8FBFC"/>
<path opacity="0.5" d="M156.5 193.029C156.397 192.926 156.397 192.72 156.5 192.514C156.603 192.412 156.808 192.412 157.014 192.514C159.073 194.676 161.955 196.015 165.044 196.015C168.132 196.015 171.014 194.676 173.073 192.514C173.176 192.412 173.382 192.412 173.588 192.514C173.691 192.617 173.691 192.823 173.588 193.029C171.426 195.397 168.235 196.838 165.044 196.838C161.75 196.735 158.661 195.397 156.5 193.029Z" fill="#F8FBFC"/>
<path opacity="0.5" d="M160 175.322C156.294 177.175 154.03 180.984 154.03 185.102C154.03 185.411 154.03 185.617 154.03 185.926C154.03 186.132 153.927 186.235 153.721 186.338C153.515 186.338 153.412 186.235 153.412 186.029C153.412 185.72 153.412 185.411 153.412 185.102C153.412 180.675 155.882 176.763 159.794 174.704C160 174.601 160.206 174.704 160.206 174.807C160.206 175.013 160.206 175.219 160 175.322Z" fill="#F8FBFC"/>
<path opacity="0.5" d="M164.941 194.059C161.75 194.059 158.868 192.412 157.221 189.735C157.118 189.529 157.22 189.323 157.323 189.22C157.529 189.117 157.735 189.22 157.838 189.323C159.382 191.897 162.059 193.338 164.941 193.338C165.147 193.338 165.25 193.441 165.25 193.647C165.25 193.956 165.147 194.059 164.941 194.059Z" fill="#F8FBFC"/>
<path opacity="0.5" d="M159.074 179.234C158.971 179.337 158.765 179.337 158.559 179.234C158.456 179.131 158.456 178.925 158.559 178.719C160.309 176.969 162.574 176.042 164.941 176.042C168.133 176.042 171.118 177.793 172.765 180.469C172.868 180.675 172.765 180.881 172.662 180.984C172.559 180.984 172.559 180.984 172.456 180.984C172.353 180.984 172.25 180.881 172.147 180.778C170.706 178.204 167.927 176.66 164.941 176.66C162.78 176.763 160.618 177.587 159.074 179.234Z" fill="#F8FBFC"/>
</g>
<path d="M31.2207 590.824C29.2648 589.589 28.6472 586.912 29.8825 584.853L39.2502 570.131L46.4561 574.764L37.0884 589.486C35.8531 591.545 33.2795 592.163 31.2207 590.824Z" fill="#F16A44"/>
<path d="M27.2736 560.483C23.9174 546.319 32.6779 532.116 46.8407 528.759C61.0035 525.403 75.2055 534.164 78.5617 548.328C81.9179 562.492 73.1575 576.695 58.9947 580.051C44.8318 583.408 30.6298 574.647 27.2736 560.483Z" fill="#F16A44"/>
<path d="M77.3379 550.056C77.0291 547.585 76.3084 545.115 75.1761 542.85C74.0437 540.585 72.6025 538.423 70.8525 536.57C67.3525 532.864 62.6173 530.393 57.5732 529.363C56.9555 529.261 56.3379 529.158 55.7203 529.055C55.1026 528.952 54.4849 528.952 53.7643 528.952C53.4555 528.952 53.1467 528.952 52.8378 528.952H51.9114C51.2938 528.952 50.6761 529.055 49.9555 529.158C47.382 529.466 44.9114 530.187 42.6467 531.319C40.382 532.452 38.2202 533.79 36.3673 535.54C34.5143 537.29 32.9702 539.246 31.8379 541.511C34.7202 537.393 38.632 534.202 43.0584 532.246C47.5879 530.29 52.5291 529.878 57.3673 530.702C62.1026 531.628 66.632 533.893 70.132 537.29C73.632 540.791 76.2055 545.217 77.3379 550.056Z" fill="#F8FBFC"/>
<path d="M52.9412 575.794C41.1726 575.794 31.6323 566.253 31.6323 554.483C31.6323 542.714 41.1726 533.173 52.9412 533.173C64.7097 533.173 74.25 542.714 74.25 554.483C74.25 566.253 64.7097 575.794 52.9412 575.794Z" fill="#93603D"/>
<path d="M73.4258 560.557C70.8523 569.411 62.617 575.793 52.9405 575.793C42.1317 575.793 33.1758 567.763 31.8376 557.366C34.4111 548.512 42.6464 542.129 52.3228 542.129C63.1317 542.026 72.0875 550.056 73.4258 560.557Z" fill="#A4704C"/>
<g opacity="0.5">
<path opacity="0.5" d="M38.1172 545.012C38.2201 544.806 38.426 544.806 38.6319 544.909C38.8377 545.012 38.8378 545.218 38.7348 545.424C36.9848 548.1 36.1613 551.292 36.1613 554.483C36.1613 563.851 43.7789 571.367 53.0436 571.367C53.9701 571.367 54.8966 571.264 55.7201 571.161C55.926 571.161 56.0289 571.264 56.1318 571.47C56.1318 571.676 56.0289 571.778 55.823 571.881C54.8966 571.984 53.9701 572.087 53.0436 572.087C43.3671 572.087 35.4407 564.16 35.4407 554.483C35.3378 551.086 36.3672 547.894 38.1172 545.012Z" fill="#F8FBFC"/>
<path opacity="0.5" d="M62.9259 540.791C62.823 540.688 62.72 540.482 62.823 540.276C62.9259 540.173 63.1318 540.07 63.3377 540.173C67.8671 543.468 70.6465 548.821 70.6465 554.483C70.6465 558.807 68.9994 563.028 66.1171 566.219C66.0141 566.322 65.9112 566.322 65.9112 566.322C65.8082 566.322 65.7053 566.322 65.7053 566.219C65.6023 566.116 65.6023 565.91 65.7053 565.705C68.4847 562.616 70.0288 558.601 70.0288 554.38C69.9259 549.027 67.2494 543.879 62.9259 540.791Z" fill="#F8FBFC"/>
<path opacity="0.5" d="M52.9409 543.571C52.4262 543.571 51.8085 543.57 51.2938 543.673C51.0879 543.673 50.985 543.57 50.8821 543.365C50.8821 543.159 50.985 543.056 51.1909 542.953C51.7056 542.85 52.3233 542.85 52.9409 542.85C59.3233 542.85 64.5732 548.1 64.5732 554.483C64.5732 554.998 64.5733 555.616 64.4703 556.13C64.4703 556.336 64.2644 556.439 64.1615 556.439C63.9556 556.439 63.8526 556.233 63.8526 556.027C63.9556 555.513 63.9556 554.998 63.9556 554.483C63.9556 548.409 59.0144 543.571 52.9409 543.571Z" fill="#F8FBFC"/>
<path opacity="0.5" d="M44.4995 562.41C44.3966 562.307 44.3966 562.101 44.4995 561.895C44.6024 561.792 44.8083 561.792 45.0142 561.895C47.0731 564.057 49.9554 565.396 53.0437 565.396C56.1319 565.396 59.0143 564.057 61.0731 561.895C61.1761 561.792 61.3819 561.792 61.5878 561.895C61.6908 561.998 61.6908 562.204 61.5878 562.41C59.4261 564.778 56.2349 566.219 53.0437 566.219C49.7495 566.116 46.6613 564.778 44.4995 562.41Z" fill="#F8FBFC"/>
<path opacity="0.5" d="M47.9999 544.703C44.294 546.556 42.0292 550.365 42.0292 554.483C42.0292 554.792 42.0292 554.998 42.0292 555.307C42.0292 555.512 41.9263 555.615 41.7204 555.718C41.5145 555.718 41.4116 555.615 41.4116 555.409C41.4116 555.101 41.4116 554.792 41.4116 554.483C41.4116 550.056 43.8822 546.144 47.794 544.085C47.9999 543.982 48.2057 544.085 48.2057 544.188C48.3086 544.394 48.2058 544.6 47.9999 544.703Z" fill="#F8FBFC"/>
<path opacity="0.5" d="M52.9411 563.44C49.7499 563.44 46.8676 561.792 45.2205 559.116C45.1176 558.91 45.2205 558.704 45.3234 558.601C45.5293 558.498 45.7352 558.601 45.8381 558.704C47.3823 561.278 50.0588 562.719 52.9411 562.719C53.147 562.719 53.25 562.822 53.25 563.028C53.3529 563.337 53.147 563.44 52.9411 563.44Z" fill="#F8FBFC"/>
<path opacity="0.5" d="M47.0728 548.615C46.9698 548.718 46.7639 548.718 46.558 548.615C46.4551 548.512 46.4551 548.306 46.558 548.1C48.3081 546.35 50.4698 545.424 52.9404 545.424C56.1316 545.424 59.1169 547.174 60.764 549.85C60.8669 550.056 60.764 550.262 60.6611 550.365C60.5581 550.365 60.5581 550.365 60.4552 550.365C60.3522 550.365 60.2493 550.262 60.1464 550.159C58.7052 547.586 55.9258 546.041 52.9404 546.041C50.7787 546.144 48.7198 546.968 47.0728 548.615Z" fill="#F8FBFC"/>
</g>
<path d="M586.794 650.02C587.412 648.578 590.912 648.064 594.412 647.755C607.485 623.459 640.735 622.532 640.735 622.532C640.735 622.532 643.412 632.93 629.206 650.225C615 667.521 615.103 701.7 615.103 701.7C615.103 701.7 607.691 697.685 600.073 689.449C593.794 682.551 587.617 672.359 590.191 658.873C588.235 655.579 586.176 651.564 586.794 650.02Z" fill="#FAD1B1"/>
</svg>
