<svg width="17" height="17" viewBox="0 0 17 17" fill="none" xmlns="http://www.w3.org/2000/svg">
<g clip-path="url(#clip0_2601_2894)">
<path d="M17.3618 14.7646C17.3021 15.0591 17.0395 15.2684 16.7389 15.2615H16.4725C16.6492 15.2615 16.8165 15.3394 16.9304 15.4746C17.0443 15.6098 17.0926 15.7881 17.0626 15.9619C17.0029 16.2563 16.7403 16.4656 16.4397 16.4588H16.1732C16.3499 16.4588 16.5173 16.5367 16.6312 16.6719C16.7451 16.807 16.7934 16.9853 16.7634 17.1591C16.7037 17.4536 16.441 17.6629 16.1404 17.656H13.4509C13.2731 17.6546 13.0999 17.6029 12.9508 17.5063L12.5077 17.207C12.3586 17.1105 12.185 17.0588 12.0076 17.0574H3.59412C1.93993 17.0574 0.599121 15.7177 0.599121 14.0649V11.9701H5.39084V12.8677C5.39187 13.1977 5.65934 13.4653 5.98997 13.4663H11.8571C12.1242 13.4663 12.3775 13.348 12.5491 13.1432L13.5075 11.9942C13.6787 11.7894 13.9323 11.6711 14.1995 11.6711H15.2745C15.6048 11.6722 15.8726 11.9394 15.8737 12.2698V12.8684H16.772C17.103 12.8684 17.3712 13.1363 17.3712 13.467C17.3712 13.7977 17.103 14.0656 16.772 14.0656C16.9487 14.0656 17.1161 14.1436 17.23 14.2787C17.3436 14.4125 17.3919 14.5908 17.3618 14.7646Z" fill="#FDD7AD"/>
<path d="M10.1827 12.5681C9.19076 12.5671 8.38662 11.764 8.38559 10.7726V4.78807C8.38559 4.6229 8.25133 4.48876 8.08602 4.48876C7.9207 4.48876 7.78645 4.6229 7.78645 4.78807V7.18188C7.78645 7.84291 7.25013 8.37878 6.58852 8.37878H5.5459V7.78015H6.58852C6.9195 7.78015 7.18766 7.51222 7.18766 7.18153V4.78773C7.18766 4.29186 7.59007 3.89014 8.08602 3.89014C8.58196 3.89014 8.98438 4.29221 8.98438 4.78773V10.7726C8.98438 11.4336 9.5207 11.9695 10.1823 11.9695C10.8439 11.9695 11.3802 11.4336 11.3802 10.7726V9.95223H11.9794V10.7726C11.9787 11.764 11.1749 12.5674 10.1827 12.5681Z" fill="#7F8C8D"/>
<path d="M11.6801 4.48875C12.8381 4.48875 13.7768 3.55086 13.7768 2.39391C13.7768 1.23696 12.8381 0.299072 11.6801 0.299072C10.5222 0.299072 9.5835 1.23696 9.5835 2.39391C9.5835 3.55086 10.5222 4.48875 11.6801 4.48875Z" fill="#ECF0F1"/>
<path d="M5.39084 2.69288V5.38599H0.599121V2.69288C0.599121 1.3708 1.67177 0.299072 2.99498 0.299072C4.31819 0.299072 5.39084 1.3708 5.39084 2.69288Z" fill="#FDD7AD"/>
<path d="M0.599137 5.0874H5.39085C5.72183 5.0874 5.98999 5.35533 5.98999 5.68603V11.6709C5.98999 12.0016 5.72183 12.2695 5.39085 12.2695H0.599137C0.268162 12.2692 0 12.0012 0 11.6705V5.68568C0 5.35533 0.268162 5.0874 0.599137 5.0874Z" fill="#3F5C6C"/>
<path d="M15.8735 12.269V12.8677H14.6755C14.5102 12.8677 14.376 12.7335 14.376 12.5684C14.376 12.4032 14.5102 12.269 14.6755 12.269H15.8735Z" fill="#CBB292"/>
<path d="M10.7822 4.48877H12.5793C12.9103 4.48877 13.1784 4.7567 13.1784 5.08739C13.1784 5.41808 12.9103 5.68602 12.5793 5.68602H10.7822C10.4513 5.68602 10.1831 5.41808 10.1831 5.08739C10.1831 4.7567 10.4513 4.48877 10.7822 4.48877Z" fill="#95A5A5"/>
<path d="M13.4772 8.0796C13.4772 8.18132 13.4714 8.27994 13.4624 8.37891C13.4451 8.58925 13.4041 8.79719 13.3395 8.99822C13.2781 9.20064 13.1918 9.39477 13.0821 9.57581C12.807 10.102 12.2738 10.4434 11.6805 10.4734C11.0872 10.4434 10.554 10.102 10.279 9.57581C10.1692 9.39477 10.0826 9.20064 10.0215 8.99822C9.95696 8.79719 9.91589 8.58925 9.89863 8.37891C9.88966 8.28029 9.88379 8.18132 9.88379 8.0796C9.88379 7.97787 9.88966 7.87925 9.89863 7.78028C9.91934 7.56201 9.96248 7.34649 10.0274 7.13683C10.0898 6.94338 10.1744 6.75752 10.279 6.58338C10.554 6.05717 11.0872 5.71579 11.6805 5.68579C12.2738 5.71579 12.807 6.05717 13.0821 6.58338C13.1866 6.75786 13.2712 6.94338 13.3337 7.13683C13.3985 7.34614 13.4417 7.56201 13.4624 7.78028C13.471 7.8789 13.4772 7.97753 13.4772 8.0796Z" fill="#393F4A"/>
<path d="M11.3804 6.88246C11.3804 7.04764 11.2462 7.18177 11.0809 7.18177H10.1825C10.1273 7.18246 10.0731 7.16695 10.0269 7.13695C10.0893 6.9435 10.1739 6.75763 10.2785 6.5835H11.0812C11.2465 6.5835 11.3804 6.71729 11.3804 6.88246Z" fill="#464F5D"/>
<path d="M13.3336 7.13729C13.2873 7.16729 13.2331 7.18281 13.1779 7.18212H12.2795C12.1142 7.18212 11.98 7.04798 11.98 6.88281C11.98 6.71763 12.1142 6.5835 12.2795 6.5835H13.0823C13.1869 6.75798 13.2711 6.94384 13.3336 7.13729Z" fill="#464F5D"/>
<path d="M11.3808 8.07983C11.3808 8.245 11.2465 8.37914 11.0812 8.37914H9.89814C9.88917 8.28052 9.8833 8.18155 9.8833 8.07983C9.8833 7.9781 9.88917 7.87948 9.89814 7.78052H11.0812C11.2469 7.78052 11.3808 7.91431 11.3808 8.07983Z" fill="#464F5D"/>
<path d="M13.4775 8.07983C13.4775 8.18155 13.4716 8.28018 13.4626 8.37914H12.2795C12.1142 8.37914 11.98 8.245 11.98 8.07983C11.98 7.91466 12.1142 7.78052 12.2795 7.78052H13.4626C13.4713 7.87914 13.4775 7.97776 13.4775 8.07983Z" fill="#464F5D"/>
<path d="M11.3808 9.27662C11.3808 9.44179 11.2465 9.57593 11.0812 9.57593H10.2785C10.1687 9.3949 10.0821 9.20076 10.021 8.99834C10.0541 8.98386 10.0897 8.97696 10.1259 8.97731H11.0812C11.1606 8.97731 11.2369 9.00869 11.2931 9.06489C11.3494 9.1211 11.3808 9.19731 11.3808 9.27662Z" fill="#464F5D"/>
<path d="M13.3398 8.99838C13.2783 9.20079 13.1921 9.39493 13.0823 9.57596H12.2795C12.1142 9.57596 11.98 9.44182 11.98 9.27665C11.98 9.11148 12.1142 8.97734 12.2795 8.97734H13.2349C13.2707 8.97665 13.3066 8.98389 13.3398 8.99838Z" fill="#464F5D"/>
<path d="M11.6804 1.1969C11.5151 1.1969 11.3809 1.06276 11.3809 0.89759V0.299312C11.3809 0.134139 11.5151 0 11.6804 0C11.8457 0 11.98 0.134139 11.98 0.299312V0.897935C11.98 1.06311 11.8457 1.1969 11.6804 1.1969Z" fill="#7F8C8D"/>
<path d="M10.6214 1.63523C10.5421 1.63523 10.4658 1.60351 10.4095 1.54764L10.1207 1.25902C10.0071 1.14144 10.0089 0.954883 10.1245 0.83971C10.2401 0.724537 10.4268 0.722813 10.5441 0.835917L10.833 1.12454C10.9186 1.21006 10.9441 1.33868 10.8979 1.45075C10.8516 1.56282 10.7422 1.63523 10.6214 1.63523Z" fill="#7F8C8D"/>
<path d="M10.1829 2.69311H9.58375C9.41843 2.69311 9.28418 2.55897 9.28418 2.39379C9.28418 2.22862 9.41843 2.09448 9.58375 2.09448H10.1829C10.3482 2.09448 10.4825 2.22862 10.4825 2.39379C10.4825 2.55931 10.3482 2.69311 10.1829 2.69311Z" fill="#7F8C8D"/>
<path d="M10.3327 4.03989C10.2116 4.03989 10.1025 3.96678 10.056 3.85506C10.0097 3.74333 10.0352 3.61471 10.1208 3.52885L10.4097 3.24023C10.5274 3.12678 10.7141 3.1285 10.8294 3.24402C10.945 3.35954 10.9464 3.54609 10.8332 3.66333L10.5443 3.95196C10.4884 4.00851 10.4121 4.03989 10.3327 4.03989Z" fill="#7F8C8D"/>
<path d="M13.0282 4.03966C12.9488 4.03966 12.8725 4.00793 12.8163 3.95207L12.5274 3.66345C12.4139 3.54586 12.4156 3.35931 12.5312 3.24413C12.6468 3.12862 12.8335 3.12724 12.9509 3.24034L13.2397 3.52896C13.3253 3.61448 13.3509 3.7431 13.3046 3.85517C13.2584 3.9669 13.1493 4.03966 13.0282 4.03966Z" fill="#7F8C8D"/>
<path d="M13.7771 2.69311H13.178C13.0127 2.69311 12.8784 2.55897 12.8784 2.39379C12.8784 2.22862 13.0127 2.09448 13.178 2.09448H13.7771C13.9424 2.09448 14.0767 2.22862 14.0767 2.39379C14.0763 2.55931 13.9424 2.69311 13.7771 2.69311Z" fill="#7F8C8D"/>
<path d="M12.7395 1.63547C12.6183 1.63547 12.5093 1.56237 12.4627 1.45064C12.4164 1.33892 12.442 1.21029 12.5276 1.12443L12.8164 0.83581C12.8917 0.757879 13.0032 0.726844 13.1077 0.754086C13.2123 0.781327 13.2941 0.863052 13.3217 0.96788C13.349 1.07236 13.3179 1.18374 13.2399 1.25892L12.951 1.54754C12.8948 1.60374 12.8189 1.63547 12.7395 1.63547Z" fill="#7F8C8D"/>
<path d="M11.6804 2.69328C11.5593 2.69328 11.4502 2.62017 11.4036 2.50845C11.3574 2.39672 11.3829 2.2681 11.4685 2.18224L11.7681 1.88293C11.8433 1.805 11.9548 1.77396 12.0594 1.80121C12.1639 1.82845 12.2457 1.91017 12.2733 2.015C12.3006 2.11948 12.2695 2.23086 12.1915 2.30604L11.892 2.60535C11.8361 2.6619 11.7598 2.69328 11.6804 2.69328Z" fill="#E64C3C"/>
<path d="M1.19801 11.3711C1.03269 11.3711 0.898438 11.237 0.898438 11.0718V6.28418C0.898438 6.119 1.03269 5.98486 1.19801 5.98486C1.36332 5.98486 1.49757 6.119 1.49757 6.28418V11.0721C1.49757 11.2373 1.36332 11.3711 1.19801 11.3711Z" fill="#35495E"/>
<path d="M4.79176 11.3711C4.62644 11.3711 4.49219 11.237 4.49219 11.0718V6.28418C4.49219 6.119 4.62644 5.98486 4.79176 5.98486C4.95707 5.98486 5.09132 6.119 5.09132 6.28418V11.0721C5.09132 11.2373 4.95707 11.3711 4.79176 11.3711Z" fill="#35495E"/>
<path d="M3.59403 8.37865H2.39576C2.23044 8.37865 2.09619 8.24451 2.09619 8.07934C2.09619 7.91417 2.23044 7.78003 2.39576 7.78003H3.59369C3.759 7.78003 3.89326 7.91417 3.89326 8.07934C3.89326 8.24451 3.75935 8.37865 3.59403 8.37865Z" fill="#ECF0F1"/>
<path d="M3.2947 9.57567H2.69556C2.53025 9.57567 2.396 9.44154 2.396 9.27636C2.396 9.11119 2.53025 8.97705 2.69556 8.97705H3.2947C3.46002 8.97705 3.59427 9.11119 3.59427 9.27636C3.59427 9.44188 3.46002 9.57567 3.2947 9.57567Z" fill="#ECF0F1"/>
<path d="M11.6805 4.78795C10.3573 4.78795 9.28467 3.71622 9.28467 2.39415C9.28467 1.07207 10.3573 0 11.6805 0C13.0037 0 14.0764 1.07173 14.0764 2.3938C14.075 3.71553 13.003 4.78623 11.6805 4.78795ZM11.6805 0.598624C10.6879 0.598624 9.88346 1.40242 9.88346 2.39415C9.88346 3.38588 10.6879 4.18967 11.6805 4.18967C12.6731 4.18967 13.4776 3.38588 13.4776 2.39415C13.4766 1.40277 12.6728 0.599313 11.6805 0.598624Z" fill="#BDC3C7"/>
</g>
<defs>
<clipPath id="clip0_2601_2894">
<rect width="17" height="17" fill="white"/>
</clipPath>
</defs>
</svg>
