<svg width="17" height="17" viewBox="0 0 17 17" fill="none" xmlns="http://www.w3.org/2000/svg">
<g clip-path="url(#clip0_2601_3105)">
<path d="M14.4886 9.42805C13.9758 9.42805 13.4744 9.26658 13.0479 8.9645C11.7366 8.03584 10.1606 7.4939 8.4651 7.4939C6.78956 7.4939 5.23114 8.04518 3.92929 8.96636C3.50365 9.26751 3.00316 9.42773 2.49122 9.42773H1.38105C1.30032 9.42773 1.23486 9.49711 1.23486 9.58267V13.6124C1.23486 13.698 1.30032 13.7674 1.38105 13.7674H15.6178C15.6986 13.7674 15.764 13.698 15.764 13.6124V9.58298C15.764 9.49742 15.6986 9.42805 15.6178 9.42805H14.4886Z" fill="#FF7A7A"/>
<path d="M15.7639 9.58291V13.613C15.7639 13.6985 15.6984 13.7679 15.6177 13.7679H14.8674C15.0289 13.7679 15.1598 13.6292 15.1598 13.4581V9.73784C15.1598 9.56673 15.0292 9.42798 14.8674 9.42798H15.6177C15.6984 9.42798 15.7639 9.49736 15.7639 9.58291Z" fill="#FF5757"/>
<path d="M7.25997 2.36185C6.81526 2.15807 6.27309 2.21531 5.8269 2.38953C5.80929 2.39638 5.79138 2.40322 5.77348 2.40976C5.17935 2.62722 4.53091 2.62722 3.93678 2.40976C3.91888 2.40322 3.90097 2.39638 3.88336 2.38953C3.43718 2.21531 2.895 2.15807 2.45029 2.36185C1.39354 2.84624 1.08532 4.32866 1.27054 5.42469C1.37622 6.04877 1.61604 6.63583 1.8999 7.19022C2.2454 7.8647 2.61291 8.46171 2.78463 9.21925C2.82837 9.41152 2.86682 9.66445 3.03825 9.77893C3.21438 9.89653 3.4815 9.90867 3.65381 9.78454C3.97495 9.55338 3.98845 9.00117 3.98845 8.63344C3.98845 8.42313 4.00929 8.2122 4.06183 8.00874C4.10733 7.83296 4.17426 7.65781 4.28023 7.51252C4.31545 7.4643 4.36095 7.42044 4.4132 7.38155C4.6771 7.18586 5.03287 7.18586 5.29677 7.38155C5.34902 7.42044 5.39452 7.46399 5.42974 7.51252C5.53571 7.65781 5.60264 7.83296 5.64814 8.00874C5.70097 8.2122 5.72152 8.42282 5.72152 8.63344C5.72152 9.00117 5.73473 9.55307 6.05587 9.78454C6.22847 9.90867 6.4953 9.89653 6.67142 9.77893C6.84285 9.66445 6.8816 9.41152 6.92504 9.21925C7.09677 8.46171 7.46457 7.8647 7.80978 7.19022C8.09393 6.63583 8.33375 6.04877 8.43913 5.42469C8.62524 4.32866 8.31702 2.84624 7.25997 2.36185Z" fill="#EDEDED"/>
<path d="M8.44001 5.42496C8.33463 6.04904 8.09451 6.63579 7.81065 7.19049C7.46515 7.86497 7.09735 8.46198 6.92592 9.21984C6.88218 9.4121 6.84373 9.66503 6.672 9.77952C6.49588 9.89681 6.22876 9.90925 6.05674 9.78512C6.01917 9.75774 5.98541 9.72601 5.95605 9.69054C6.05204 9.56112 6.08316 9.37135 6.1178 9.21984C6.28981 8.46198 6.65703 7.86497 7.00253 7.19049C7.28639 6.63579 7.52621 6.04904 7.63189 5.42496C7.8174 4.32862 7.50919 2.8462 6.45214 2.36212C6.37259 2.32541 6.29011 2.29772 6.20527 2.27719C6.5587 2.20377 6.9356 2.2131 7.26026 2.36212C8.31731 2.8462 8.62523 4.32893 8.44001 5.42496Z" fill="#D6D4D4"/>
<path d="M5.77881 5.90106H3.93184C3.76452 5.90106 3.62891 5.75733 3.62891 5.58V4.3589C3.62891 4.18157 3.76452 4.03784 3.93184 4.03784H5.77881C5.94613 4.03784 6.08174 4.18157 6.08174 4.3589V5.58031C6.08174 5.75733 5.94613 5.90106 5.77881 5.90106Z" fill="#C9F0FF"/>
<path d="M6.08185 4.3589V5.58031C6.08185 5.75764 5.94623 5.90137 5.77891 5.90137H5.07471C5.24203 5.90137 5.37764 5.75764 5.37764 5.58031V4.3589C5.37764 4.18157 5.24232 4.03784 5.07471 4.03784H5.77891C5.94623 4.03784 6.08185 4.18157 6.08185 4.3589Z" fill="#9AE7FD"/>
<path d="M3.62896 4.47412V5.44322H1.27387C1.27269 5.437 1.27181 5.43077 1.27064 5.42455C1.22015 5.12682 1.20635 4.80078 1.23395 4.47412H3.62896Z" fill="#00D1FC"/>
<path d="M8.44014 5.42486C8.43896 5.43108 8.43808 5.43731 8.43691 5.44353H6.09033V4.47412H8.47654C8.50442 4.80109 8.49033 5.12713 8.44014 5.42486Z" fill="#00D1FC"/>
<path d="M8.49055 4.80563C8.49055 5.01905 8.47353 5.22811 8.44006 5.42504C8.43889 5.43126 8.43801 5.43748 8.43683 5.44371H7.62842C7.62959 5.43748 7.63047 5.43126 7.63165 5.42504C7.68214 5.12762 7.69593 4.80127 7.66893 4.47461H8.47675C8.4791 4.50261 8.48116 4.52999 8.48292 4.55799C8.48439 4.57945 8.48556 4.60092 8.48644 4.62176C8.48703 4.62892 8.48732 4.63607 8.48732 4.64323C8.4885 4.66718 8.48908 4.69052 8.48967 4.71416C8.48996 4.72132 8.49026 4.72878 8.48996 4.73625C8.49026 4.75927 8.49055 4.78229 8.49055 4.80563Z" fill="#00C1FB"/>
<path d="M14.5479 2.36185C14.1032 2.15807 13.5611 2.21531 13.1149 2.38953C13.0973 2.39638 13.0794 2.40322 13.0615 2.40976C12.4673 2.62722 11.8189 2.62722 11.2248 2.40976C11.2069 2.40322 11.1889 2.39638 11.1713 2.38953C10.7254 2.21531 10.183 2.15807 9.73826 2.36185C8.68121 2.84593 8.373 4.32866 8.55851 5.42469C8.66419 6.04877 8.90401 6.63583 9.18787 7.19022C9.53337 7.8647 9.90088 8.46171 10.0726 9.21925C10.1163 9.41152 10.1548 9.66445 10.3262 9.77893C10.5023 9.89653 10.7695 9.90867 10.9418 9.78454C11.2629 9.55338 11.2761 9.00117 11.2761 8.63344C11.2761 8.42313 11.297 8.2122 11.3495 8.00874C11.395 7.83296 11.4619 7.65781 11.5679 7.51252C11.6031 7.4643 11.6486 7.42044 11.7009 7.38155C11.9648 7.18586 12.3206 7.18586 12.5844 7.38155C12.6367 7.42044 12.6822 7.46399 12.7174 7.51252C12.8234 7.65781 12.8903 7.83296 12.9358 8.00874C12.9884 8.2122 13.0092 8.42282 13.0092 8.63344C13.0092 9.00117 13.0224 9.55307 13.3435 9.78454C13.5161 9.90867 13.783 9.89653 13.9591 9.77893C14.1305 9.66445 14.1693 9.41152 14.2127 9.21925C14.3847 8.46171 14.7523 7.8647 15.0975 7.19022C15.3816 6.63583 15.6214 6.04877 15.7271 5.42469C15.9132 4.32866 15.605 2.84624 14.5479 2.36185Z" fill="#EDEDED"/>
<path d="M15.7279 5.42496C15.6225 6.04904 15.3824 6.63579 15.0985 7.19049C14.753 7.86497 14.3852 8.46198 14.2138 9.21984C14.17 9.4121 14.1316 9.66503 13.9598 9.77952C13.7837 9.89681 13.5166 9.90925 13.3446 9.78512C13.307 9.75774 13.2733 9.72601 13.2439 9.69054C13.3399 9.56112 13.3713 9.37135 13.4056 9.21984C13.5777 8.46198 13.9449 7.86497 14.2904 7.19049C14.5742 6.63579 14.8143 6.04904 14.9197 5.42496C15.1052 4.32862 14.797 2.8462 13.74 2.36212C13.6604 2.32541 13.5779 2.29772 13.4931 2.27719C13.8465 2.20377 14.2234 2.2131 14.5481 2.36212C15.6049 2.8462 15.9131 4.32893 15.7279 5.42496Z" fill="#D6D4D4"/>
<path d="M13.0667 5.90106H11.2197C11.0524 5.90106 10.9167 5.75733 10.9167 5.58V4.3589C10.9167 4.18157 11.0524 4.03784 11.2197 4.03784H13.0667C13.234 4.03784 13.3696 4.18157 13.3696 4.3589V5.58031C13.3696 5.75733 13.234 5.90106 13.0667 5.90106Z" fill="#C9F0FF"/>
<path d="M13.3694 4.3589V5.58031C13.3694 5.75764 13.2338 5.90137 13.0665 5.90137H12.3623C12.5296 5.90137 12.6652 5.75764 12.6652 5.58031V4.3589C12.6652 4.18157 12.5299 4.03784 12.3623 4.03784H13.0665C13.2338 4.03784 13.3694 4.18157 13.3694 4.3589Z" fill="#9AE7FD"/>
<path d="M10.9166 4.47412V5.44322H8.56156C8.56038 5.437 8.5595 5.43077 8.55833 5.42455C8.50813 5.12682 8.49404 4.80078 8.52193 4.47412H10.9166Z" fill="#00D1FC"/>
<path d="M15.728 5.42486C15.7268 5.43108 15.7259 5.43731 15.7247 5.44353H13.3782V4.47412H15.7644C15.7923 4.80109 15.7782 5.12713 15.728 5.42486Z" fill="#00D1FC"/>
<path d="M15.7786 4.80563C15.7786 5.01905 15.7613 5.22811 15.7281 5.42504C15.727 5.43126 15.7261 5.43748 15.7249 5.44371H14.9165C14.9177 5.43748 14.9186 5.43126 14.9197 5.42504C14.9699 5.12762 14.984 4.80127 14.9567 4.47461H15.7645C15.7669 4.50261 15.769 4.52999 15.7707 4.55799C15.7722 4.57945 15.7734 4.60092 15.7742 4.62176C15.7748 4.62892 15.7751 4.63607 15.7751 4.64323C15.7763 4.66718 15.7769 4.69052 15.7775 4.71416C15.7778 4.72132 15.778 4.72878 15.7778 4.73625C15.778 4.75927 15.7786 4.78229 15.7786 4.80563Z" fill="#00C1FB"/>
<path d="M15.6178 9.19535H14.4888C14.4744 9.19535 14.46 9.19473 14.4456 9.19442C14.5531 8.76478 14.728 8.38834 14.8871 8.07412C14.9444 7.96088 14.9042 7.82026 14.7976 7.75959C14.691 7.69893 14.5581 7.74155 14.5008 7.85448C14.3188 8.21412 14.1169 8.65091 14.0006 9.16486C13.9962 9.18477 13.9915 9.20562 13.9871 9.22677C13.9578 9.3621 13.9211 9.53041 13.8436 9.58206C13.7341 9.65517 13.5621 9.65983 13.4682 9.59201C13.2298 9.42028 13.2298 8.8886 13.2298 8.63318C13.2298 8.38243 13.2034 8.15812 13.1485 7.94719C13.0877 7.71199 13.0038 7.52315 12.8922 7.37009C12.845 7.30507 12.7842 7.24502 12.7114 7.1912C12.3721 6.93921 11.9156 6.93921 11.5763 7.1912C11.5035 7.24502 11.4427 7.30507 11.3955 7.37009C11.2839 7.52315 11.2 7.71168 11.1392 7.94719C11.0846 8.15812 11.0582 8.38243 11.0582 8.63318C11.0582 8.8886 11.0582 9.42028 10.8198 9.59201C10.7259 9.65952 10.5539 9.65485 10.4441 9.58206C10.3666 9.53041 10.3299 9.36179 10.3005 9.22646C10.2958 9.20531 10.2914 9.18477 10.287 9.16486C10.14 8.51527 9.86404 7.99417 9.57197 7.44227C9.50944 7.32404 9.44457 7.20178 9.38175 7.0792C9.11668 6.56152 8.93968 6.10793 8.83547 5.67549H10.7068C10.75 5.93495 10.9637 6.13313 11.2205 6.13313H13.0675C13.3246 6.13313 13.5383 5.93495 13.5812 5.67549H15.4522C15.3583 6.06282 15.205 6.47192 14.9872 6.91774C14.9315 7.0316 14.9734 7.17191 15.0812 7.23102C15.1886 7.28982 15.321 7.24565 15.3768 7.13147C15.6656 6.54068 15.8497 6.00464 15.9395 5.49318C16.051 4.85759 16.0123 4.19929 15.8118 3.58734C15.5849 2.89451 15.1783 2.39674 14.6359 2.14817C14.1864 1.94221 13.6049 1.95061 13.0399 2.17119C13.0237 2.17741 13.0073 2.18363 12.9909 2.18985C12.4449 2.38958 11.8434 2.38958 11.2974 2.18985C11.281 2.18394 11.2645 2.17772 11.2481 2.17119C10.6833 1.95092 10.1018 1.94221 9.6524 2.14817C9.12813 2.38834 8.73126 2.86184 8.50025 3.5189C8.26952 2.86184 7.87236 2.38834 7.34809 2.14817C6.89868 1.94221 6.31717 1.95061 5.75211 2.17119C5.73596 2.17741 5.71952 2.18363 5.70308 2.18985C5.1571 2.38958 4.55563 2.38958 4.00964 2.18985C3.9932 2.18394 3.97676 2.17772 3.96032 2.17119C3.39467 1.95092 2.81287 1.94284 2.36346 2.14848C1.82099 2.39674 1.41443 2.89451 1.18753 3.58734C1.09124 3.88134 1.03166 4.18809 1.00964 4.49826C0.938896 5.48945 1.2662 6.43895 1.70739 7.30102C1.77167 7.42671 1.83713 7.55053 1.90054 7.66999C1.92696 7.72008 1.95367 7.77017 1.9798 7.81995C2.0388 7.93195 2.17236 7.97239 2.27803 7.90955C2.38371 7.84701 2.42187 7.70546 2.36257 7.59346C2.33616 7.54337 2.30974 7.49298 2.28302 7.44258C2.2205 7.32436 2.15563 7.20209 2.09281 7.0792C1.82774 6.56152 1.65074 6.10793 1.54653 5.67549H3.41815C3.4613 5.93495 3.67471 6.13313 3.93185 6.13313H5.77882C6.03596 6.13313 6.24966 5.93495 6.29252 5.67549H8.16385C8.05964 6.10762 7.88263 6.56152 7.61757 7.0792C7.55475 7.20209 7.49017 7.32436 7.42735 7.44227C7.13528 7.99417 6.85935 8.51527 6.71199 9.16486C6.70729 9.18508 6.70289 9.20562 6.69848 9.22677C6.66913 9.3621 6.63244 9.5301 6.55494 9.58206C6.44545 9.65517 6.27344 9.65983 6.17921 9.59201C5.94085 9.42028 5.94085 8.8886 5.94085 8.63318C5.94085 8.38243 5.91443 8.15812 5.85954 7.94719C5.79878 7.71199 5.71483 7.52346 5.60328 7.3704C5.55602 7.30538 5.49526 7.24533 5.42246 7.1912C5.08312 6.93921 4.62696 6.93921 4.28733 7.1912C4.21483 7.24502 4.15377 7.30538 4.10651 7.3704C3.99496 7.52346 3.9113 7.71199 3.85025 7.94719C3.79565 8.15812 3.76923 8.38274 3.76923 8.63318C3.76923 8.8886 3.76923 9.42028 3.53087 9.59201C3.43694 9.65983 3.26492 9.65517 3.15514 9.58206C3.07735 9.53041 3.04095 9.36179 3.0116 9.22677C3.0069 9.20562 3.0025 9.18508 2.99809 9.16517C2.95494 8.97509 2.89917 8.78842 2.82755 8.59429C2.78322 8.47483 2.65612 8.41603 2.5434 8.46269C2.43068 8.50936 2.3752 8.64438 2.41923 8.76385C2.47353 8.91038 2.51698 9.05193 2.5522 9.19411C2.53195 9.19473 2.51169 9.19566 2.49115 9.19566H1.38097C1.17931 9.19566 1.01551 9.36926 1.01551 9.58299V13.6128C1.01551 13.8265 1.17931 14.0001 1.38097 14.0001H15.6178C15.8194 14.0001 15.9832 13.8262 15.9832 13.6128V9.58268C15.9832 9.36926 15.8191 9.19535 15.6178 9.19535ZM11.7418 7.65475C11.7618 7.62737 11.7911 7.59875 11.827 7.572C12.016 7.43169 12.2702 7.43169 12.459 7.572C12.4948 7.59875 12.5244 7.62706 12.5444 7.65444C12.6204 7.75866 12.6794 7.89461 12.7246 8.07008C12.7604 8.2079 12.781 8.35536 12.7877 8.51714C12.4099 8.27945 12.0178 8.07381 11.6136 7.90239C11.6497 7.80502 11.6919 7.72288 11.7418 7.65475ZM10.6974 5.2107H8.75005C8.75005 5.20914 8.74976 5.20728 8.74946 5.20572C8.73126 5.04301 8.72393 4.8747 8.72862 4.70639H10.6974V5.2107ZM13.1502 5.57967C13.1502 5.62851 13.1127 5.66834 13.0666 5.66834H11.2196C11.1735 5.66834 11.136 5.62851 11.136 5.57967V5.44496C11.136 5.44434 11.136 5.44372 11.136 5.44309V4.474C11.136 4.47338 11.136 4.47275 11.136 4.47213V4.35827C11.136 4.30942 11.1735 4.2696 11.2196 4.2696H13.0666C13.113 4.2696 13.1502 4.30942 13.1502 4.35827V5.57967ZM15.537 5.20385C15.5367 5.20634 15.5364 5.20852 15.5362 5.21101H13.5973V4.70639H15.5579C15.5623 4.87408 15.5549 5.04177 15.537 5.20385ZM9.82529 2.575C10.1723 2.41603 10.6355 2.42785 11.0952 2.60736C11.1142 2.61483 11.1336 2.62229 11.1533 2.62945C11.7917 2.86278 12.4948 2.86309 13.1329 2.62945C13.1523 2.62229 13.1717 2.61514 13.1908 2.60767C13.651 2.42816 14.1137 2.41603 14.4609 2.57531C15.0627 2.85096 15.4026 3.51952 15.5162 4.24222H13.5768C13.526 3.99303 13.3167 3.80543 13.0666 3.80543H11.2196C10.9695 3.80543 10.7602 3.99303 10.7094 4.24222H8.77001C8.88361 3.51921 9.22353 2.85064 9.82529 2.575ZM2.53753 2.575C2.88449 2.41603 3.3477 2.42785 3.80739 2.60736C3.82647 2.61483 3.84584 2.62229 3.86551 2.62945C4.50396 2.86278 5.207 2.86309 5.84516 2.62945C5.86453 2.62229 5.88391 2.61514 5.90299 2.60767C6.36326 2.42816 6.82618 2.41603 7.17314 2.57531C7.7749 2.85096 8.11483 3.51952 8.22843 4.24222H6.28899C6.23821 3.99303 6.02892 3.80543 5.77882 3.80543H3.93185C3.68175 3.80543 3.47246 3.99303 3.42167 4.24222H1.48224C1.59584 3.51921 1.93576 2.85064 2.53753 2.575ZM1.46169 5.20572C1.44349 5.04301 1.43616 4.8747 1.44085 4.70639H3.40964V5.2107H1.46228C1.46199 5.20914 1.46199 5.20759 1.46169 5.20572ZM5.86248 5.57967C5.86248 5.62851 5.8249 5.66834 5.77882 5.66834H3.93185C3.88576 5.66834 3.84819 5.62851 3.84819 5.57967V5.44496C3.84819 5.44434 3.84819 5.44372 3.84819 5.44309V4.474C3.84819 4.47338 3.84819 4.47275 3.84819 4.47213V4.35827C3.84819 4.30942 3.88576 4.2696 3.93185 4.2696H5.77882C5.8249 4.2696 5.86248 4.30942 5.86248 4.35827V5.57967ZM6.30954 4.70639H8.27011C8.27451 4.87408 8.26747 5.04177 8.24927 5.20385C8.24897 5.20603 8.24868 5.20852 8.24839 5.2107H6.30954V4.70639ZM8.49907 6.11602C8.61209 6.48032 8.77148 6.86143 8.984 7.27893C8.81169 7.26773 8.6388 7.26151 8.46502 7.26151C8.31502 7.26151 8.16531 7.26649 8.0162 7.27489C8.22784 6.85925 8.38665 6.47939 8.49907 6.11602ZM4.27353 8.07039C4.31903 7.89461 4.37803 7.75866 4.45377 7.65475C4.47373 7.62737 4.50338 7.59875 4.53919 7.572C4.72823 7.43169 4.98214 7.43169 5.17119 7.572C5.207 7.59844 5.23665 7.62706 5.25631 7.65444C5.30475 7.72071 5.34614 7.80004 5.38166 7.89399C4.9798 8.06448 4.5885 8.26825 4.21072 8.505C4.21835 8.34821 4.2389 8.20479 4.27353 8.07039ZM15.5447 13.535H1.45377V9.66014H2.49144C2.55308 9.66014 2.61443 9.65765 2.67549 9.65361C2.72539 9.77681 2.79995 9.89441 2.92177 9.97561C3.05093 10.0618 3.20563 10.105 3.35798 10.105C3.50974 10.105 3.65856 10.0621 3.77715 9.97685C4.06747 9.76779 4.16199 9.39415 4.19281 9.0622C4.60729 8.78189 5.04056 8.54389 5.48762 8.35007C5.4976 8.43967 5.50259 8.53394 5.50259 8.6338C5.50259 8.995 5.50259 9.66699 5.93322 9.97685C6.17128 10.1483 6.53087 10.1476 6.7889 9.97592C7.01962 9.82192 7.08126 9.5385 7.12618 9.3313C7.13029 9.3117 7.13469 9.29242 7.1388 9.27375C7.26414 8.72091 7.50338 8.25052 7.76199 7.76084C7.99535 7.73844 8.2296 7.72631 8.46531 7.72631C8.7251 7.72631 8.98312 7.73999 9.23938 7.76582C9.49712 8.25363 9.73488 8.72247 9.85993 9.27344C9.86404 9.2921 9.86815 9.31108 9.87256 9.33068C9.91747 9.53757 9.97911 9.8213 10.2098 9.97529C10.4676 10.1473 10.8274 10.1476 11.0655 9.97654C11.4961 9.66668 11.4961 8.99438 11.4961 8.63318C11.4961 8.53705 11.5008 8.44652 11.5102 8.35941C11.9599 8.55447 12.3938 8.7934 12.8071 9.07526C12.8391 9.40379 12.9348 9.77028 13.2213 9.97654C13.3399 10.0621 13.489 10.1047 13.6405 10.1047C13.7928 10.1047 13.9475 10.0618 14.077 9.97529C14.1985 9.8941 14.2728 9.77712 14.3229 9.65423C14.3781 9.65765 14.4333 9.65983 14.4891 9.65983H15.5453V13.535H15.5447Z" fill="#5A5A5A"/>
</g>
<defs>
<clipPath id="clip0_2601_3105">
<rect width="15" height="12" fill="white" transform="translate(1 2)"/>
</clipPath>
</defs>
</svg>
