<svg width="58" height="58" viewBox="0 0 58 58" fill="none" xmlns="http://www.w3.org/2000/svg">
<path d="M14.5995 18.879C14.5995 18.879 11.4217 14.5981 11.2858 8.40621C11.2779 8.05957 11.5849 7.78996 11.9281 7.83754C12.6385 7.93496 13.8235 8.01879 14.9156 7.72426C18.253 6.82481 21.5384 0.202412 27.324 0.00983458C33.1108 -0.182743 34.2323 2.51674 34.2323 2.51674C34.2323 2.51674 36.361 1.25139 39.5399 1.68073C44.298 2.32303 48.4772 9.57187 44.2289 19.5281L14.5995 18.879Z" fill="#E5907B"/>
<path d="M13 20.833C13 23.0816 14.7446 24.245 16.2808 24.245C16.2808 24.245 17.9382 22.7712 17.9382 22.7996C17.9382 22.7905 17.9371 22.7814 17.9371 22.7724L18.9567 20.6676L17.9371 18.8665C17.4454 18.5957 16.8801 18.4417 16.2797 18.4417C14.7446 18.4405 13.4441 19.4453 13 20.833Z" fill="#EBBAA1"/>
<path d="M16.2805 23.2255C14.7455 23.2255 13.4449 22.2207 12.9997 20.833C12.8932 21.1649 12.8354 21.5184 12.8354 21.8854C12.8354 23.7874 14.3773 25.3303 16.2805 25.3303C16.9591 25.3303 17.5902 25.1331 18.1237 24.7956L19.0142 23.8837L17.9391 22.7996C17.4463 23.0703 16.8821 23.2255 16.2805 23.2255Z" fill="#E8A990"/>
<path d="M45.0003 20.833C45.0003 23.0816 43.2557 24.245 41.7195 24.245C41.7195 24.245 40.0621 22.7712 40.0609 22.7996C40.0609 22.7905 40.0621 22.7814 40.0621 22.7724L39.0425 20.6676L40.0621 18.8665C40.5537 18.5957 41.1191 18.4417 41.7195 18.4417C43.2557 18.4405 44.5551 19.4453 45.0003 20.833Z" fill="#EBBAA1"/>
<path d="M41.7195 23.2255C43.2545 23.2255 44.5551 22.2207 45.0003 20.833C45.1068 21.1649 45.1646 21.5184 45.1646 21.8854C45.1646 23.7874 43.6227 25.3303 41.7195 25.3303C41.042 25.3303 40.4099 25.1331 39.8763 24.7956L38.9858 23.8837L40.0609 22.7996C40.5537 23.0703 41.1179 23.2255 41.7195 23.2255Z" fill="#E8A990"/>
<path d="M28.9995 32.748C35.1091 32.748 40.0621 28.9984 40.0621 20.6666V17.4902C40.0621 16.5216 39.6678 15.5904 38.9564 14.9334C36.8911 13.028 34.5914 9.73156 33.6681 8.3552C33.4562 8.03915 33.0065 8.00969 32.7493 8.29063C28.0897 13.3792 22.0538 15.075 19.353 15.6029C18.5305 15.7638 17.938 16.4854 17.938 17.3236V20.6666C17.938 28.0208 22.891 32.748 28.9995 32.748Z" fill="#FDD4BB"/>
<path d="M34.1816 32.5464C32.6363 33.3677 30.8724 33.8333 29.0009 33.8333C27.1294 33.8333 25.3655 33.3677 23.8202 32.5464C16.3557 34.1097 10.749 40.7275 10.749 48.6561V55.8924L29.002 56.912L47.255 55.8924V48.6561C47.2528 40.7275 41.6461 34.1097 34.1816 32.5464Z" fill="#B3E59F"/>
<path d="M10.7476 57.9983L16.992 56.9459L20.3578 57.9983H37.6422L41.545 56.9459L47.2536 57.9983V55.8936H10.7476V57.9983Z" fill="#95D6A4"/>
<path d="M23.7847 32.5281C23.7745 32.664 23.7666 32.8011 23.7666 32.9393C23.7666 35.8291 26.1094 38.1729 29.0005 38.1729C31.8916 38.1729 34.2333 35.8302 34.2333 32.9393C34.2333 32.8011 34.2265 32.664 34.2152 32.5281H23.7847Z" fill="#EBBAA1"/>
<path d="M28.9995 24.4458C27.2571 24.4458 25.807 25.6919 25.4887 27.3413C25.4207 27.6936 25.6858 28.0209 26.0438 28.0209H31.9541C32.3121 28.0209 32.5771 27.6924 32.5092 27.3413C32.1931 25.6919 30.7419 24.4458 28.9995 24.4458Z" fill="#F4594E"/>
<path d="M42.4525 30.7463L45.0854 32.8046C45.0797 32.8273 45.0752 32.8511 45.0706 32.8737C45.0808 32.8703 45.091 32.8669 45.1024 32.8635C45.1341 34.2965 46.4584 35.3682 47.4735 35.418C47.9402 35.4407 48.3832 35.35 48.7774 35.1722C48.97 35.085 49.1932 35.1076 49.3631 35.2334C49.8956 35.6276 50.5538 35.8609 51.2664 35.8609C52.6961 35.8609 54.3172 34.6228 54.3172 32.6109C54.3263 32.6086 54.3342 32.6075 54.3433 32.6052C54.2526 32.3141 54.1201 32.04 53.9536 31.7919C54.145 31.4033 54.2402 30.9593 54.2028 30.4903C54.1088 29.3099 53.1707 28.3436 51.9937 28.2133C51.4839 28.1567 51.0047 28.2575 50.5889 28.4682C50.206 27.5812 49.3246 26.9604 48.2971 26.9604C46.9184 26.9604 45.8002 28.0785 45.8002 29.4572C45.8002 29.5399 45.8047 29.6214 45.8127 29.7018H42.8117C42.2566 29.7007 42.0141 30.4031 42.4525 30.7463Z" fill="#EBF2F8"/>
<path d="M15.1874 29.7006H12.1864C12.1944 29.6202 12.1989 29.5386 12.1989 29.4559C12.1989 28.0773 11.0807 26.9592 9.70201 26.9592C8.67449 26.9592 7.79311 27.58 7.41019 28.467C6.99442 28.2563 6.51522 28.1555 6.00542 28.2121C4.82835 28.3424 3.89033 29.3087 3.7963 30.4891C3.75891 30.9592 3.85407 31.4032 4.04553 31.7907C3.88466 32.0297 3.75665 32.2936 3.66602 32.5734C3.66602 34.6204 5.29283 35.828 6.72593 35.828C7.44191 35.828 8.10125 35.5935 8.63597 35.1981C8.8059 35.0724 9.03135 35.0497 9.22394 35.137C9.62045 35.316 10.0645 35.4066 10.5324 35.3839C11.5543 35.3341 12.916 34.131 12.916 32.8158C12.9149 32.8113 12.9137 32.8068 12.9126 32.8023L15.5466 30.7439C15.9861 30.403 15.7437 29.7006 15.1874 29.7006Z" fill="#EBF2F8"/>
<path d="M45.4274 55.8934L36.3621 45.2722C36.3621 45.2722 38.7321 42.1852 37.2355 40.6888C36.1944 39.6478 34.0748 40.6628 32.8807 41.3776C33.5979 43.5831 32.968 46.4843 29.7109 48.6037L35.8659 55.8945L41.545 56.9469L45.4274 55.8934Z" fill="#EBBAA1"/>
<path d="M28.9995 38.1731C24.9914 38.1731 23.2944 41.9873 23.2944 41.9873C23.2944 41.9873 21.6585 39.7081 20.1619 41.2045C18.6654 42.7009 21.066 45.943 21.066 45.943L12.5728 55.8936L16.9921 56.946L22.1411 55.8936L27.2764 49.8308C36.3497 46.3067 33.249 38.1731 28.9995 38.1731Z" fill="#FDD4BB"/>
<path d="M12.5726 55.8936L10.7759 57.9983H20.3578L22.141 55.8936H12.5726Z" fill="#F7C4A8"/>
<path d="M28.9996 31.7284C22.89 31.7284 17.937 26.7757 17.937 20.6665V22.7713C17.937 28.8805 22.89 33.8331 28.9996 33.8331C35.1092 33.8331 40.0622 28.8805 40.0622 22.7713V20.6665C40.0622 26.7757 35.1092 31.7284 28.9996 31.7284Z" fill="#F7C4A8"/>
<path d="M35.8647 55.8936L37.6422 57.9983H47.2242L45.4274 55.8936H35.8647Z" fill="#E8A990"/>
<path d="M10.5334 34.3645C10.0655 34.3871 9.62145 34.2965 9.22494 34.1175C9.03122 34.0303 8.80691 34.0518 8.63697 34.1787C8.10339 34.574 7.44292 34.8085 6.72693 34.8085C5.29384 34.8085 4.08052 33.8694 3.66702 32.5735C3.52314 33.0187 3.47443 33.5069 3.55146 34.0156C3.76671 35.4304 4.94378 36.5338 6.37008 36.6561C7.30131 36.7366 8.15663 36.4092 8.77858 35.8326C9.26119 36.1282 9.84123 36.28 10.4598 36.2291C11.5757 36.1362 12.5341 35.3568 12.8694 34.2886C13.0314 33.7697 13.028 33.2724 12.9181 32.817C12.4593 33.704 11.5553 34.3146 10.5334 34.3645Z" fill="#D6E3ED"/>
<path d="M51.2713 34.8164C50.5553 34.8164 49.8948 34.5819 49.3601 34.1854C49.1902 34.0597 48.9647 34.037 48.7721 34.1242C48.3756 34.3032 47.9304 34.3938 47.4625 34.3712C46.4441 34.3213 45.5411 33.713 45.0812 32.8294C44.9736 33.2837 44.9724 33.7787 45.1356 34.2953C45.4732 35.3613 46.4305 36.1372 47.5441 36.229C48.1615 36.28 48.7415 36.1282 49.223 35.8325C49.845 36.4091 50.7003 36.7376 51.6327 36.6561C53.0578 36.5326 54.2337 35.4315 54.449 34.0178C54.5272 33.5091 54.4785 33.0209 54.3346 32.5757C53.9211 33.875 52.7066 34.8164 51.2713 34.8164Z" fill="#D6E3ED"/>
<path d="M22.6415 20.9204C22.6619 20.9147 22.8296 20.8683 23.0902 20.7652V20.8887C23.0902 21.3735 23.4833 21.7677 23.9693 21.7677C24.4553 21.7677 24.8484 21.3746 24.8484 20.8887V19.7728C25.0603 19.6109 25.2732 19.4296 25.4806 19.2268C25.8272 18.887 25.8317 18.3308 25.4919 17.9841C25.152 17.6386 24.5958 17.633 24.2491 17.9728C23.3145 18.8915 22.2054 19.2178 22.1771 19.2257C21.7103 19.3548 21.4362 19.8374 21.5642 20.3041C21.6707 20.695 22.0253 20.9521 22.4116 20.9521C22.4863 20.9521 22.5634 20.9419 22.6415 20.9204Z" fill="#565E75"/>
<path d="M33.1518 19.7728V20.8886C33.1518 21.3734 33.5449 21.7677 34.0309 21.7677C34.5169 21.7677 34.9101 21.3746 34.9101 20.8886V20.7651C35.1706 20.8671 35.3383 20.9147 35.3587 20.9203C35.4357 20.9418 35.5139 20.952 35.5909 20.952C35.9772 20.952 36.3318 20.6949 36.4383 20.3041C36.5663 19.8362 36.2899 19.3525 35.822 19.2245C35.8107 19.2211 34.6959 18.8983 33.7534 17.9727C33.4079 17.6329 32.8505 17.6374 32.5106 17.9841C32.1707 18.3307 32.1753 18.8869 32.5219 19.2268C32.727 19.4307 32.94 19.6119 33.1518 19.7728Z" fill="#565E75"/>
</svg>
