<svg width="17" height="17" viewBox="0 0 17 17" fill="none" xmlns="http://www.w3.org/2000/svg">
<g clip-path="url(#clip0_2601_3320)">
<g clip-path="url(#clip1_2601_3320)">
<path d="M15.2162 2.03264C15.1525 2.03264 15.0887 2.0084 15.0402 1.95959C14.943 1.8623 14.943 1.70459 15.0402 1.6073L15.4792 1.16869C15.8079 0.839981 16.2176 0.597598 16.6642 0.467774C16.7964 0.429258 16.9345 0.505293 16.9727 0.637442C17.0112 0.76959 16.9352 0.907715 16.803 0.945899C16.4368 1.05215 16.1008 1.25104 15.8311 1.52064L15.3922 1.95959C15.3437 2.0084 15.28 2.03264 15.2162 2.03264Z" fill="#495059"/>
<path d="M8.77866 3.46309C9.73497 3.46309 10.5102 2.68785 10.5102 1.73154C10.5102 0.775238 9.73497 0 8.77866 0C7.82236 0 7.04712 0.775238 7.04712 1.73154C7.04712 2.68785 7.82236 3.46309 8.77866 3.46309Z" fill="#F5D7B7"/>
<path opacity="0.1" d="M8.77866 3.46309C9.73497 3.46309 10.5102 2.68785 10.5102 1.73154C10.5102 0.775238 9.73497 0 8.77866 0C7.82236 0 7.04712 0.775238 7.04712 1.73154C7.04712 2.68785 7.82236 3.46309 8.77866 3.46309Z" fill="black"/>
<path d="M15.2684 9.95308C16.2247 9.95308 17 9.17784 17 8.22153C17 7.26523 16.2247 6.48999 15.2684 6.48999C14.3121 6.48999 13.5369 7.26523 13.5369 8.22153C13.5369 9.17784 14.3121 9.95308 15.2684 9.95308Z" fill="#F5D7B7"/>
<path opacity="0.1" d="M15.2684 9.95308C16.2247 9.95308 17 9.17784 17 8.22153C17 7.26523 16.2247 6.48999 15.2684 6.48999C14.3121 6.48999 13.5369 7.26523 13.5369 8.22153C13.5369 9.17784 14.3121 9.95308 15.2684 9.95308Z" fill="black"/>
<path d="M3.33592 17C5.17829 17 6.67184 15.5064 6.67184 13.664C6.67184 11.8217 5.17829 10.3281 3.33592 10.3281C1.49354 10.3281 0 11.8217 0 13.664C0 15.5064 1.49354 17 3.33592 17Z" fill="#38648C"/>
<path opacity="0.1" d="M5.69463 16.0228C6.99752 14.7199 6.99752 12.6078 5.69463 11.3053C4.39174 10.0027 2.27969 10.0027 0.977129 11.3053C0.461484 11.8206 0.151035 12.4627 0.043457 13.1311C0.315059 13.3244 0.69457 13.5113 1.20855 13.7102C1.64285 13.8782 2.17344 14.0525 2.77408 14.2255C2.94707 14.8261 3.12139 15.3567 3.28939 15.791C3.48828 16.3053 3.67555 16.6849 3.86846 16.9561C4.53717 16.8489 5.17932 16.5381 5.69463 16.0228Z" fill="black"/>
<path d="M15.442 8.62999C17.4386 6.6334 17.474 3.43173 15.5212 1.47884C13.5683 -0.474041 10.3666 -0.438617 8.37001 1.55796C6.37343 3.55455 6.33801 6.75622 8.29089 8.70911C10.2438 10.662 13.4455 10.6266 15.442 8.62999Z" fill="#F5D7B7"/>
<path d="M10.4791 4.06018C10.7955 3.7438 10.7298 3.16515 10.3324 2.76772C9.93494 2.3703 9.35628 2.3046 9.0399 2.62099C8.72352 2.93737 8.78922 3.51602 9.18664 3.91345C9.58406 4.31087 10.1627 4.37657 10.4791 4.06018Z" fill="#F28B74"/>
<path d="M14.3792 7.96033C14.6956 7.64395 14.6299 7.06529 14.2325 6.66787C13.8351 6.27045 13.2564 6.20475 12.94 6.52113C12.6237 6.83752 12.6894 7.41617 13.0868 7.81359C13.4842 8.21102 14.0629 8.27671 14.3792 7.96033Z" fill="#F28B74"/>
<path d="M11.1449 3.72781C11.0811 3.72781 11.0174 3.70357 10.9689 3.65477C10.8716 3.55748 10.8716 3.39977 10.9689 3.30248C11.0134 3.25799 11.0379 3.19889 11.0379 3.13613C11.0379 3.07338 11.0134 3.01428 10.9689 2.96979C10.9244 2.92529 10.8653 2.90072 10.8025 2.90072C10.7398 2.90072 10.6807 2.92529 10.6362 2.96945C10.5389 3.06674 10.3812 3.06674 10.2839 2.96945C10.1866 2.87217 10.1866 2.71445 10.2839 2.61717C10.4224 2.47871 10.6066 2.40234 10.8025 2.40234C10.9984 2.40234 11.1827 2.47871 11.3212 2.61717C11.4596 2.75563 11.536 2.9399 11.536 3.1358C11.536 3.3317 11.4596 3.51564 11.3212 3.65443C11.2724 3.70357 11.2086 3.72781 11.1449 3.72781Z" fill="#495059"/>
<path d="M14.2061 6.78908C14.1424 6.78908 14.0786 6.76484 14.0302 6.71603C13.9329 6.61875 13.9329 6.46103 14.0302 6.36375C14.0747 6.31925 14.0992 6.26015 14.0992 6.1974C14.0992 6.13464 14.0747 6.07554 14.0302 6.03105C13.9385 5.93941 13.7891 5.93941 13.6975 6.03105C13.6002 6.12834 13.4425 6.12834 13.3452 6.03105C13.2479 5.93376 13.2479 5.77605 13.3452 5.67876C13.6311 5.39289 14.0962 5.39289 14.3821 5.67876C14.5206 5.81722 14.5969 6.0015 14.5969 6.1974C14.5969 6.3933 14.5206 6.57757 14.3821 6.71603C14.3336 6.76484 14.2699 6.78908 14.2061 6.78908Z" fill="#495059"/>
<path d="M12.2488 5.68122C12.0028 5.68122 11.766 5.58394 11.591 5.40896C11.4008 5.2187 11.3025 4.95574 11.3208 4.68712C11.3301 4.54999 11.4493 4.44607 11.5864 4.4557C11.7235 4.46499 11.8271 4.58386 11.8178 4.72132C11.8092 4.84617 11.855 4.96869 11.9433 5.05701C12.0316 5.14533 12.1538 5.19081 12.279 5.18251C12.4161 5.17355 12.535 5.27681 12.5446 5.41394C12.5539 5.55107 12.4503 5.66993 12.3132 5.67956C12.2916 5.68056 12.27 5.68122 12.2488 5.68122Z" fill="#495059"/>
<path opacity="0.05" d="M10.5476 0.253418C9.75301 0.491816 9.00096 0.926777 8.36977 1.55797C6.37326 3.55447 6.33774 6.75625 8.29074 8.70926C9.42297 9.84148 10.9752 10.3053 12.4687 10.1061C9.28186 9.0476 8.30569 3.7258 10.5476 0.253418Z" fill="black"/>
<path d="M4.32229 7.33369C6.35831 7.35826 10.9593 7.84269 13.6082 9.2256C14.0216 9.44142 14.2085 9.93017 14.0445 10.3668C13.6291 11.4738 12.5324 13.1094 11.529 14.0932C11.0217 14.5906 10.3251 14.8499 9.61586 14.8097C6.81651 14.6503 0.639399 13.2286 0.189165 12.3069C-0.268042 11.3709 1.16799 8.9623 2.88459 7.76931C3.30594 7.47646 3.80963 7.32738 4.32229 7.33369Z" fill="#76B7EB"/>
<path opacity="0.1" d="M4.32229 7.33369C6.35831 7.35826 10.9593 7.84269 13.6082 9.2256C14.0216 9.44142 14.2085 9.93017 14.0445 10.3668C13.6291 11.4738 12.5324 13.1094 11.529 14.0932C11.0217 14.5906 10.3251 14.8499 9.61586 14.8097C6.81651 14.6503 0.639399 13.2286 0.189165 12.3069C-0.268042 11.3709 1.16799 8.9623 2.88459 7.76931C3.30594 7.47646 3.80963 7.32738 4.32229 7.33369Z" fill="black"/>
<path opacity="0.1" d="M2.88461 7.76914C2.44467 8.07494 2.02332 8.46076 1.64746 8.88078C1.82111 10.1604 2.12027 11.7001 2.48418 13.147C2.50908 13.246 2.53398 13.3429 2.55922 13.4392C4.7141 14.0993 7.80564 14.7006 9.58102 14.8072C9.65705 14.7093 9.73043 14.6103 9.79982 14.5104C10.174 13.9721 10.3673 13.3353 10.3593 12.6689C10.3487 11.7834 10.2315 9.95623 9.88748 7.99127C7.76182 7.53439 5.56477 7.34812 4.32297 7.33318C3.80965 7.3272 3.30596 7.47629 2.88461 7.76914Z" fill="black"/>
<path d="M9.66636 12.6775C9.64212 10.6415 9.15735 6.04056 7.77444 3.39162C7.55862 2.97824 7.06987 2.79131 6.63325 2.955C5.52626 3.37037 3.89067 4.46707 2.90686 5.47047C2.40948 5.97781 2.15016 6.67441 2.19034 7.38363C2.34938 10.1833 3.77147 16.3604 4.69286 16.8103C5.62886 17.2675 8.03741 15.8315 9.2304 14.1149C9.52358 13.6939 9.67266 13.1902 9.66636 12.6775Z" fill="#76B7EB"/>
<g opacity="0.1">
<path d="M3.82859 10.7152C3.71238 10.7152 3.60846 10.6335 3.58455 10.515C3.5633 10.4091 3.46436 9.76061 3.46436 9.63477C3.46436 9.4973 3.57592 9.38574 3.71338 9.38574C3.85051 9.38574 3.96174 9.49664 3.9624 9.63344C3.96506 9.71578 4.04807 10.2919 4.07297 10.417C4.09986 10.5518 4.01254 10.683 3.87773 10.7102C3.86113 10.7135 3.84486 10.7152 3.82859 10.7152Z" fill="black"/>
<path d="M6.53906 6.18998C6.51283 6.18998 6.48627 6.18567 6.46004 6.17703C6.32955 6.13354 6.25916 5.99176 6.30266 5.86127C6.32092 5.80649 6.37039 5.70256 6.48162 5.47479C6.5125 5.4117 6.54139 5.35227 6.55201 5.32903C6.60879 5.20385 6.75621 5.14807 6.88172 5.20485C7.00689 5.26162 7.06268 5.40904 7.0059 5.53455C6.99229 5.56444 6.96439 5.62154 6.9292 5.6936C6.88039 5.7932 6.78975 5.97881 6.7748 6.02031C6.73994 6.12457 6.64299 6.18998 6.53906 6.18998Z" fill="black"/>
<path d="M7.6974 11.042C7.6549 11.042 7.61207 11.031 7.57256 11.0081C7.4507 10.9374 7.1107 10.7428 7.00047 10.6927C6.87529 10.6356 6.82017 10.4878 6.87728 10.363C6.93439 10.2381 7.08181 10.1827 7.20699 10.2398C7.35939 10.3092 7.77576 10.5506 7.82258 10.5778C7.94144 10.6468 7.98195 10.7993 7.91289 10.9181C7.86674 10.9975 7.7834 11.042 7.6974 11.042Z" fill="black"/>
<path d="M5.99115 15.2178C5.85368 15.2178 5.74212 15.1063 5.74212 14.9688C5.74212 14.8317 5.70626 14.314 5.689 14.0657C5.68335 13.986 5.67937 13.9256 5.67771 13.8993C5.66941 13.7619 5.774 13.644 5.91146 13.636C6.04925 13.6271 6.16679 13.7323 6.17476 13.8698C6.17642 13.8953 6.1804 13.9541 6.18572 14.0315C6.21195 14.4103 6.23984 14.8267 6.23984 14.9691C6.24017 15.1063 6.12894 15.2178 5.99115 15.2178Z" fill="black"/>
<path d="M10.9094 10.8786C10.8068 10.8786 10.7105 10.8145 10.6746 10.7122C10.6288 10.5824 10.6972 10.4403 10.8267 10.3945C10.922 10.3609 11.1461 10.2268 11.2942 10.1378C11.511 10.008 11.5831 9.96616 11.6541 9.95189C11.7889 9.92499 11.9201 10.0123 11.9473 10.1471C11.9726 10.2736 11.8972 10.3968 11.7767 10.434C11.7395 10.4516 11.6309 10.5167 11.5502 10.5651C11.3556 10.6817 11.1348 10.8138 10.9921 10.8643C10.9648 10.8739 10.937 10.8786 10.9094 10.8786Z" fill="black"/>
</g>
</g>
</g>
<defs>
<clipPath id="clip0_2601_3320">
<rect width="17" height="17" fill="white"/>
</clipPath>
<clipPath id="clip1_2601_3320">
<rect width="17" height="17" fill="white"/>
</clipPath>
</defs>
</svg>
