<svg width="33" height="35" viewBox="0 0 33 35" fill="none" xmlns="http://www.w3.org/2000/svg">
<path d="M31.76 3.89062H27.6503V8.96207C27.6503 10.0952 26.6306 11.0169 25.3773 11.0169H23.8278C22.5744 11.0169 21.5547 10.0952 21.5547 8.96207V3.89062H11.4386V8.96207C11.4386 10.0952 10.4189 11.0169 9.16555 11.0169H7.62052C6.36936 11.0169 5.34973 10.0952 5.34973 8.96207V3.89062H1.24003C0.556567 3.89062 0 4.44719 0 5.13066V33.5891C0 34.2725 0.556567 34.8246 1.24003 34.8246H31.76C32.4457 34.8246 33 34.2725 33 33.5891V5.13066C33 4.44719 32.4457 3.89062 31.76 3.89062ZM31.3236 21.8566V31.5387C31.3236 31.7524 31.15 31.9305 30.934 31.9305H16.0536H2.06598C1.85003 31.9305 1.67638 31.7524 1.67638 31.5387V23.6822V14.0001C1.67638 13.7864 1.85003 13.6083 2.06598 13.6083H16.9441H30.934C31.15 13.6083 31.3236 13.7864 31.3236 14.0001V21.8566Z" fill="white"/>
<path d="M7.62061 8.98993H9.1701C9.74002 8.98993 10.2031 8.62259 10.2031 8.17289V1.54751C10.2031 1.09558 9.74002 0.730469 9.1701 0.730469H7.62061C7.05292 0.730469 6.58985 1.09558 6.58985 1.54751V8.17289C6.58763 8.62259 7.05069 8.98993 7.62061 8.98993Z" fill="white"/>
<path d="M23.8315 8.98993H25.381C25.951 8.98993 26.414 8.62259 26.414 8.17289V1.54751C26.414 1.09558 25.951 0.730469 25.381 0.730469H23.8315C23.2616 0.730469 22.8008 1.09558 22.8008 1.54751V8.17289C22.8008 8.62259 23.2616 8.98993 23.8315 8.98993Z" fill="white"/>
<path d="M8.49539 20.6113H4.63281V24.4761H8.49539V20.6113Z" fill="white"/>
<path d="M15.0696 20.6113H11.207V24.4761H15.0696V20.6113Z" fill="white"/>
<path d="M21.5752 20.6113H17.7148V24.4761H21.5752V20.6113Z" fill="white"/>
<path d="M28.1539 20.6113H24.2891V24.4761H28.1539V20.6113Z" fill="white"/>
<path d="M8.57574 26.1816H4.71094V30.0464H8.57574V26.1816Z" fill="white"/>
<path d="M15.1516 26.1816H11.2891V30.0464H15.1516V26.1816Z" fill="white"/>
<path d="M21.6572 26.1816H17.7969V30.0464H21.6572V26.1816Z" fill="white"/>
<path d="M28.2337 26.1816H24.3711V30.0464H28.2337V26.1816Z" fill="white"/>
<path d="M21.6009 15.1348H17.7383V18.9973H21.6009V15.1348Z" fill="white"/>
<path d="M28.1807 15.1348H24.3203V18.9973H28.1807V15.1348Z" fill="white"/>
</svg>
