<svg width="17" height="17" viewBox="0 0 17 17" fill="none" xmlns="http://www.w3.org/2000/svg">
<path d="M10.4097 6.06722C10.4097 5.4782 9.91427 3.93384 9.30261 3.93384H3.76723C3.15592 3.93384 2.66016 5.47787 2.66016 6.06722V7.66725C2.6605 7.94159 2.77086 8.20526 2.96841 8.4026H2.9646C3.15626 9.88997 4.1938 11.1497 5.65376 11.6673C7.25452 12.2257 8.96218 11.0907 9.67867 9.7473C9.90285 9.32695 10.0475 8.87128 10.1056 8.4016H10.1035C10.3004 8.20393 10.41 7.94093 10.41 7.66725L10.4097 6.06722Z" fill="#FFDBD4"/>
<path d="M2.66038 6.33398C2.12068 6.33432 1.68374 6.75599 1.68408 7.276C1.68408 7.31501 1.6865 7.35367 1.69169 7.39234L1.69377 7.40901C1.79375 8.00135 2.31477 8.44236 2.93715 8.46236L3.76746 8.46736V6.33398H2.66038Z" fill="#FFDBD4"/>
<path d="M10.41 6.33398H9.85645V8.46736H10.1332C10.766 8.4677 11.3001 8.01402 11.3787 7.40901L11.3807 7.39234C11.4479 6.87633 11.0677 6.40565 10.5321 6.34132C10.4916 6.33665 10.4508 6.33398 10.41 6.33398Z" fill="#FFDBD4"/>
<path d="M8.47575 11.0019C7.55363 11.8857 6.27075 12.4038 5.04488 11.9528C4.47975 11.7432 3.96263 11.419 3.525 11L3 13.4762L6 15L9 13.4762L8.47575 11.0019Z" fill="#F9C7BD"/>
<path d="M6.85714 8.00031L6 7.25031L5.14286 8.00031H3.14286L2 7.00031V7.50031C2.00036 7.7575 2.11429 8.00469 2.31821 8.18969H2.31429C2.34321 8.39625 2.39214 8.60031 2.46071 8.79938C2.65714 8.92938 2.89643 8.99969 3.14286 9H8.85714C9.10429 8.99937 9.34429 8.92813 9.54072 8.79688C9.60786 8.59781 9.65571 8.39437 9.68357 8.18844H9.68143C9.88536 8.00344 9.99929 7.75688 10 7.5V7L8.85714 8H6.85714V8.00031Z" fill="#F9C7BD"/>
<path d="M10.35 2.89831V4.23245C10.35 4.90024 9.57973 5.27368 9.05544 4.86007C9.00203 4.81794 8.94346 4.78279 8.88115 4.75549L8.16581 4.44203C7.10534 3.97729 5.895 3.97729 4.83453 4.44203L4.11891 4.75548C4.05656 4.78279 3.99795 4.81795 3.94451 4.86011C3.42025 5.2737 2.65 4.90028 2.65 4.23251V2.89831C2.65 1.84983 3.51178 1 4.575 1H8.425C9.48822 1 10.35 1.85017 10.35 2.89831ZM4.025 9.99748C4.025 10.3487 4.15194 10.695 4.42404 10.917C4.78106 11.2083 5.18677 11.4385 5.62447 11.5963C6.66434 11.9676 7.74956 11.601 8.57525 10.9209C8.84714 10.6969 8.975 10.35 8.975 9.99777C8.975 9.23292 8.35496 8.61288 7.59011 8.61288H5.4096C4.64491 8.61288 4.025 9.23279 4.025 9.99748ZM10.3341 13.3598C9.6437 13.0875 8.87778 13.1485 8.16254 13.3466C7.07558 13.6476 5.92442 13.6476 4.83746 13.3466C4.12222 13.1485 3.3563 13.0875 2.6659 13.3598L2.12372 13.5737C1.44564 13.8412 1 14.496 1 15.2249C1 16.2053 1.79472 17 2.77506 17H10.2249C11.2053 17 12 16.2053 12 15.2249C12 14.496 11.5544 13.8412 10.8763 13.5737L10.3341 13.3598Z" fill="#3581EF"/>
<path d="M15 14.2061C14.2279 14.2973 13.4558 14.0363 12.9315 13.5068C12.7431 13.235 12.6824 12.9046 12.7636 12.5911C12.6366 12.5952 12.5113 12.5642 12.4032 12.5025L11.1382 12C10.9381 12.3677 10.9562 12.8042 11.1864 13.1571L11.781 14.0676V17H14.9948L15 14.2061Z" fill="#F9B5A7"/>
<path d="M13.12 13.0185C13.0123 13.1917 12.8259 13.2994 12.6235 13.3051C12.5473 13.6305 12.6045 13.9736 12.7819 14.2556C13.2761 14.8052 14.0046 15.0758 14.7334 14.9815C15.1882 14.8551 15.554 14.5132 15.7151 14.0652C15.8269 13.7628 15.9167 13.4527 15.983 13.1369C16.0539 12.8395 15.8974 12.5348 15.6158 12.4225L13.2128 11.4663L13.2144 9.64691C13.2216 9.33876 13.0089 9.06971 12.7103 9.00877C12.3801 8.95205 12.0667 9.17626 12.0106 9.51008C12.0049 9.54419 12.0019 9.57869 12.0019 9.61356L12 11.4663L12.9286 12.1734C13.2125 12.3531 13.2981 12.7318 13.12 13.0185Z" fill="#F9C7BD"/>
<path d="M13.168 13.9995C13.6411 13.9833 14.0136 13.5225 13.9996 12.9705C13.991 12.6373 13.841 12.331 13.5994 12.1534L12.286 11L11 13.0005L12.6874 13.847C12.831 13.9526 12.9981 14.0058 13.168 13.9995Z" fill="#FFDBD4"/>
<path d="M12 1H14V9H12V1Z" fill="#8A1E1A"/>
<path d="M16.5358 5.43878L16.9978 6C17.0035 5.74395 16.9981 5.48689 16.9819 5.23234C16.9263 4.69818 16.8021 4.2001 16.6208 3.7827C16.4919 3.48054 16.3407 3.21697 16.1718 3L16 3.16436V4.12644C15.9997 4.53984 16.1097 4.92467 16.291 5.14515L16.535 5.44079" fill="#AD2621"/>
<path d="M16.3754 5.13557L16.0447 4.91892C15.7999 4.75771 15.6514 4.47643 15.6514 4.17386V3.65059C15.6514 3.53933 15.7115 3.43761 15.8066 3.38804L16.7749 2.88129L16.2132 2L14.5279 2.58753L13.1379 2.88129C12.5094 2.88129 12 3.41411 12 4.07141V6.24857C12 7.36524 12.7535 8.32695 13.8008 8.54581L15.9323 8.98939C16.2486 9.05549 16.466 8.80322 16.5987 8.4966C16.8388 7.94653 16.9863 6.4252 17 5.5461L16.3754 5.13557Z" fill="#EA3232"/>
<path d="M14.6637 2.85003V2.75005C14.6637 2.61196 14.7626 2.50011 14.8848 2.50011C15.0069 2.50011 15.1058 2.61196 15.1058 2.75005L15.7007 2.5251L15.6496 2.37701C15.6245 2.30577 15.5927 2.23766 15.5554 2.17361L15.9237 1.85806C16.016 1.76745 16.026 1.60967 15.9458 1.50532C15.8734 1.41128 15.751 1.39159 15.6585 1.45939L15.2827 1.78182C15.2631 1.79932 15.2465 1.82088 15.2335 1.84493C15.1849 1.81838 15.1343 1.79713 15.0823 1.78151C15.0823 1.77464 15.0862 1.7687 15.0865 1.76151L15.1069 1.26162C15.1127 1.12384 15.0185 1.00667 14.8964 1.00011C14.8958 1.00011 14.8953 1.00011 14.8947 1.00011C14.7734 0.996052 14.6709 1.10165 14.6634 1.2385L14.643 1.73839C14.6438 1.7537 14.6458 1.76901 14.6491 1.78401C14.2678 1.89399 14.0008 2.28203 14 2.72693V3H14.0113L14.6637 2.85003Z" fill="#AD2621"/>
<path d="M14.1498 7.72404C14.2384 7.86292 14.4205 7.90223 14.557 7.81239C14.6935 7.72217 14.7321 7.53687 14.6438 7.39799L14.06 6.48347V5.35595C14.3032 5.27397 14.5136 5.11338 14.6596 4.89851L14.9488 4.46839C15.0404 4.33175 15.0058 4.14533 14.8715 4.05212C14.7373 3.95891 14.5541 3.9941 14.4625 4.13073L14.1737 4.56048C14.046 4.74877 13.8246 4.8476 13.602 4.8154L12.0993 4.59042C12.0662 4.5863 12.0324 4.58818 12 4.59604V5.17777C12.0052 5.17777 12.0088 5.18188 12.014 5.18301L13.4714 5.40087V6.57182C13.4714 6.62984 13.488 6.68636 13.5189 6.73503L13.6168 6.88814L13.1459 7.51928C13.0477 7.65142 13.0734 7.83934 13.2033 7.93929C13.3331 8.03924 13.5178 8.01303 13.616 7.88089L13.9578 7.42195L14.1498 7.72404Z" fill="#8A1E1A"/>
<path d="M16.0432 5.24462C15.7981 5.0711 15.6494 4.76835 15.6494 4.44267V4C15.494 4 15.3681 4.1415 15.3681 4.31619V4.44267C15.367 4.87783 15.5661 5.28295 15.8948 5.51338L16.0696 5.6367L16.0306 5.93313L15.2506 6.03115C15.0963 6.05012 14.9848 6.20663 15.0017 6.38015C15.0175 6.54022 15.1378 6.66156 15.2812 6.66156C15.2918 6.66156 15.3023 6.66077 15.3129 6.65958L15.9451 6.57974L15.9107 6.84297L15.4152 7.47813C15.3143 7.61093 15.328 7.81052 15.4461 7.92396C15.5622 8.03581 15.7366 8.02277 15.8386 7.89471L16.3882 7.18881C16.4237 7.14296 16.4469 7.08684 16.455 7.02676L16.5896 6.00308L16.8506 6.18727C16.8928 6.21691 16.9413 6.23312 16.9912 6.2343C16.9954 6.12363 16.9986 6.01692 17 5.91811L16.3748 5.47544L16.0432 5.24462Z" fill="#8A1E1A"/>
<path d="M12 14.1548V15L10.1977 14.2615C9.64497 14.0329 9.03069 14.0139 8.46522 14.2076C7.19025 14.6482 5.80941 14.6482 4.53444 14.2076C3.96897 14.0139 3.35469 14.0329 2.80194 14.2615L1 15V14.1548L3.75 13.0278C5.48113 13.9146 7.51888 13.9146 9.25 13.0278L12 14.1548ZM8.16581 3.36212C7.10534 2.87929 5.895 2.87929 4.83453 3.36212C4.29725 3.60688 3.79262 3.92102 3.33372 4.29749L2.65 4.85744V5.70266L4.025 4.57571L4.83419 4.20733C5.89466 3.72451 7.105 3.72451 8.16547 4.20733L8.975 4.57571L10.35 5.70266V4.85744L9.66663 4.29749C9.20737 3.92102 8.70309 3.60688 8.16581 3.36212Z" fill="#196AF9"/>
<path d="M6.85714 8L6 7.25L5.14286 8H3.14286L2 7V8C2 8.55219 2.51179 9 3.14286 9H8.85714C9.48821 9 10 8.55219 10 8V7L8.85714 8H6.85714Z" fill="white"/>
<path d="M2 6.83831V7.32935L3.14286 8H5.14286L6 7.49701L6.85714 8H8.85714L10 7.32935V6.67065C10 6.30033 9.48821 6 8.85714 6H3.14286C2.51179 6 2 6.30033 2 6.67065V6.83831Z" fill="#606060"/>
</svg>
