<svg width="21" height="21" viewBox="0 0 21 21" fill="none" xmlns="http://www.w3.org/2000/svg">
<path d="M13.1 7.5L11 5.4L8.9 7.5L7.5 6.1L9.6 4L7.5 1.9L8.9 0.5L11 2.6L13.1 0.5L14.5 1.9L12.4 4L14.5 6.1L13.1 7.5ZM6 17C7.1 17 8 17.9 8 19C8 20.1 7.1 21 6 21C4.9 21 4 20.1 4 19C4 17.9 4.9 17 6 17ZM16 17C17.1 17 18 17.9 18 19C18 20.1 17.1 21 16 21C14.9 21 14 20.1 14 19C14 17.9 14.9 17 16 17ZM6.2 13.8C6.2 13.9 6.3 14 6.4 14H18V16H6C4.9 16 4 15.1 4 14C4 13.6 4.1 13.3 4.2 13L5.5 10.6L2 3H0V1H3.3L7.6 10H14.6L18.5 3L20.2 4L16.3 11C16 11.6 15.3 12 14.6 12H7.1L6.2 13.6V13.8Z" fill="#231F20"/>
</svg>
