<svg width="17" height="17" viewBox="0 0 17 17" fill="none" xmlns="http://www.w3.org/2000/svg">
<g clip-path="url(#clip0_2601_3251)">
<g clip-path="url(#clip1_2601_3251)">
<path d="M16.7259 3.37517C16.7259 4.19772 16.3996 4.98737 15.8183 5.56863L15.2452 6.14168L14.7928 6.59408C14.6859 6.70101 14.557 6.77504 14.4144 6.81891C14.3349 6.84084 14.2499 6.85455 14.1622 6.85455C13.877 6.85455 13.611 6.7202 13.441 6.48989L12.8131 5.6317L10.9075 3.03519C10.8581 2.96938 10.817 2.8981 10.7868 2.82133C10.7238 2.68423 10.6936 2.53343 10.6936 2.37989C10.6936 2.08377 10.8115 1.80137 11.0172 1.59573L11.4312 1.18171C11.7218 0.891081 12.0646 0.663509 12.4375 0.509967C12.8104 0.356425 13.2134 0.27417 13.6247 0.27417C14.4802 0.27417 15.2562 0.622382 15.8155 1.18446C16.3776 1.74379 16.7259 2.51972 16.7259 3.37517Z" fill="#E6E9ED"/>
<path d="M16.5421 8.54344L16.0952 9.31115L15.9033 9.19874L15.895 9.16309C15.7387 8.45022 15.1766 7.95121 14.5323 7.95121C14.5323 7.67702 14.3294 7.44945 14.0662 7.40832C14.1676 7.27398 14.2581 7.12866 14.3349 6.97512L14.4144 6.81883C14.557 6.77496 14.6858 6.70093 14.7928 6.594L15.2452 6.1416L16.1199 6.72287C16.4983 6.97786 16.7258 7.40284 16.7258 7.85798C16.7258 8.09926 16.6628 8.33506 16.5421 8.54344Z" fill="#CF9E76"/>
<path d="M14.5323 9.32221C14.5323 9.27559 14.5296 9.22898 14.5214 9.18511L14.5323 9.18237C14.7599 9.2756 14.9985 9.32221 15.2397 9.32221C15.4646 9.32221 15.6867 9.28108 15.9033 9.19882L16.0952 9.31124L11.7904 16.7251H7.67749V16.7196C8.28894 16.695 8.88943 16.5688 9.45426 16.3522C9.89846 16.1823 10.318 15.9574 10.7073 15.675C10.8773 15.5571 11.0418 15.4255 11.1981 15.2829C11.5601 14.9567 11.8452 14.5618 12.0399 14.1259C12.2346 13.6899 12.3388 13.2129 12.3388 12.7248C12.3388 12.4205 12.3004 12.1216 12.2209 11.831L13.5754 9.79654C13.5918 9.82944 13.611 9.86235 13.633 9.89251L13.9839 10.4189L14.3815 9.82396C14.4802 9.6759 14.5323 9.50042 14.5323 9.32221Z" fill="#CF9E76"/>
<path d="M9.07306 14.2438C8.43693 14.7702 7.62531 15.0801 6.75338 15.0801H5.75806C5.75806 12.8263 7.2716 10.9235 9.33628 10.3367C9.76677 10.2106 10.2219 10.1448 10.6935 10.1448H11.2419L11.5847 10.5725C11.8835 10.9454 12.0974 11.3759 12.2208 11.831C12.3003 12.1216 12.3387 12.4205 12.3387 12.7248C12.3387 13.2129 12.2345 13.69 12.0398 14.1259C11.8452 14.5619 11.56 14.9567 11.1981 15.283C11.0418 15.4255 10.8772 15.5571 10.7072 15.675L9.07306 14.2438Z" fill="#FCD770"/>
<path d="M15.8951 9.16306L15.9033 9.1987C15.6867 9.28096 15.4646 9.32208 15.2397 9.32208C14.9984 9.32208 14.7599 9.27547 14.5323 9.18225L14.5213 9.18499C14.5021 9.05339 14.4555 8.93 14.3815 8.82033L14.1484 8.47486C14.3705 8.40357 14.5323 8.19519 14.5323 7.95117C15.1767 7.95117 15.7388 8.45018 15.8951 9.16306Z" fill="#656D78"/>
<path d="M14.5214 9.18502C14.5296 9.22889 14.5323 9.2755 14.5323 9.32211C14.5323 9.50033 14.4802 9.67581 14.3815 9.82387L13.9839 10.4188L13.633 9.89241C13.611 9.86225 13.5918 9.82935 13.5754 9.79645C13.4849 9.62646 13.4355 9.43453 13.4355 9.23986C13.4355 9.11373 13.4547 8.98761 13.4959 8.86697L13.6549 8.38989C13.7481 8.45844 13.8605 8.49957 13.9839 8.49957C14.0415 8.49957 14.0964 8.49134 14.1484 8.47489L14.3815 8.82036C14.4555 8.93003 14.5022 9.05341 14.5214 9.18502Z" fill="#656D78"/>
<path d="M14.0662 7.40832C14.3294 7.44944 14.5323 7.67701 14.5323 7.9512C14.5323 8.19522 14.3705 8.4036 14.1484 8.47489C14.0964 8.49134 14.0415 8.49956 13.9839 8.49956C13.8605 8.49956 13.7481 8.45843 13.6549 8.38989C13.5397 8.30215 13.4602 8.17329 13.441 8.02523C13.4383 8.00055 13.4355 7.97587 13.4355 7.9512C13.4355 7.6496 13.6823 7.40283 13.9839 7.40283C14.0114 7.40283 14.0388 7.40557 14.0662 7.40832Z" fill="#FCD770"/>
<path d="M13.441 6.48978C13.611 6.7201 13.8769 6.85445 14.1621 6.85445C14.2498 6.85445 14.3348 6.84074 14.4143 6.8188L14.3348 6.97509C14.258 7.12863 14.1676 7.27394 14.0661 7.40829C14.0387 7.40555 14.0113 7.40281 13.9839 7.40281C13.6822 7.40281 13.4355 7.64957 13.4355 7.95118C13.4355 7.97585 13.4382 8.00053 13.441 8.02521H13.4355C13.1284 8.24455 12.7774 8.40358 12.399 8.48583L12.3908 8.431C12.2482 7.46861 12.399 6.4843 12.813 5.63159L13.441 6.48978Z" fill="#656D78"/>
<path d="M9.43779 10.205C9.84908 9.6923 10.1562 9.10829 10.3481 8.48316C10.2659 8.49412 10.1809 8.49961 10.0986 8.49961C9.82714 8.49961 9.55569 8.43929 9.30618 8.32139C8.63714 8.00334 8.26698 7.33159 8.33827 6.6571C8.35472 6.48985 8.3986 6.32534 8.47263 6.16083L8.67005 5.7194L8.16279 5.3986C8.02569 5.31361 7.95166 5.17103 7.95166 5.02297C7.95166 4.95717 7.96811 4.88588 8.00102 4.82282C8.06408 4.70492 8.1765 4.61718 8.31085 4.58702L9.00456 4.42251C9.15537 4.38687 9.2815 4.29091 9.35279 4.15656C9.65166 3.589 10.137 3.13112 10.7347 2.84597L10.7868 2.82129C10.817 2.89806 10.8581 2.96935 10.9075 3.03515L12.8131 5.63166C12.3991 6.48437 12.2483 7.46868 12.3909 8.43106L12.3991 8.4859C12.3799 8.49138 12.358 8.49687 12.3388 8.49961L11.242 10.1447H10.6936C10.222 10.1447 9.76682 10.2105 9.33634 10.3366V10.3339L9.43779 10.205Z" fill="#F0D0B4"/>
<path d="M9.07295 14.2437L10.7071 15.6749C10.3178 15.9573 9.89827 16.1821 9.45408 16.3521C8.88924 16.5687 8.28875 16.6948 7.6773 16.7195C7.59779 16.7223 7.52101 16.725 7.44149 16.725C5.7223 16.725 3.40537 16.725 2.19069 16.725C1.73827 16.725 1.37085 16.3576 1.37085 15.9025C1.37085 15.6749 1.46408 15.4692 1.61214 15.3212C1.7602 15.1731 1.96585 15.0799 2.19343 15.0799H2.46762C2.46762 14.9291 2.52795 14.792 2.6294 14.6933C2.72811 14.5919 2.8652 14.5315 3.01601 14.5315C3.16682 14.5315 3.30391 14.5919 3.40262 14.6933C3.50408 14.792 3.5644 14.9291 3.5644 15.0799H4.11279H5.75795H6.75327C7.6252 15.0799 8.43682 14.7701 9.07295 14.2437Z" fill="#F0D0B4"/>
<path d="M1.91924 10.1448H3.01601H3.2902C3.44101 10.1448 3.5644 10.2682 3.5644 10.419V10.9673C3.5644 11.1181 3.44101 11.2415 3.2902 11.2415H3.01601H1.64504C1.49424 11.2415 1.37085 11.1181 1.37085 10.9673V10.419C1.37085 10.2682 1.49424 10.1448 1.64504 10.1448H1.91924Z" fill="#AAB2BD"/>
<path d="M4.66118 9.04804C4.75166 9.04804 4.84215 9.03707 4.92715 9.01514L4.93537 9.04804L5.16295 9.50318C5.19312 9.5635 5.20957 9.63205 5.20957 9.70059C5.20957 9.94736 5.01215 10.1448 4.76537 10.1448H4.55699C4.31021 10.1448 4.11279 9.94736 4.11279 9.70059C4.11279 9.63205 4.12924 9.5635 4.15941 9.50318L4.38699 9.04804H4.66118Z" fill="#CCD1D9"/>
<path d="M1.91943 9.0481H3.01621V10.1448H1.91943V9.0481Z" fill="#CCD1D9"/>
<path d="M5.75804 1.3709V7.95128C5.75804 8.464 5.40433 8.89721 4.92723 9.01511C4.84223 9.03704 4.75175 9.04801 4.66127 9.04801H4.38707H3.01611H1.91933H1.37094C0.764976 9.04801 0.27417 8.55722 0.27417 7.95128V1.3709C0.27417 0.764957 0.764976 0.27417 1.37094 0.27417H4.66127C5.26723 0.27417 5.75804 0.764957 5.75804 1.3709Z" fill="#E6E9ED"/>
<path d="M4.66117 2.74171V5.48354C4.66117 5.63434 4.53778 5.75772 4.38698 5.75772H1.64504C1.49424 5.75772 1.37085 5.63434 1.37085 5.48354V2.74171C1.37085 2.59091 1.49424 2.46753 1.64504 2.46753H4.38698C4.53778 2.46753 4.66117 2.59091 4.66117 2.74171Z" fill="#FF826E"/>
<path d="M3.29038 3.29028H2.74199V3.83865H2.1936V4.38701H2.74199V4.93538H3.29038V4.38701H3.83876V3.83865H3.29038V3.29028Z" fill="#5E5E5E"/>
<path d="M4.93539 5.48355V2.74172C4.93539 2.43944 4.6893 2.19336 4.387 2.19336H1.64507C1.34277 2.19336 1.09668 2.43944 1.09668 2.74172V5.48355C1.09668 5.78584 1.34277 6.03191 1.64507 6.03191H4.387C4.6893 6.03191 4.93539 5.78584 4.93539 5.48355ZM1.64507 5.48355V2.74172H4.387L4.38734 5.48355H1.64507Z" fill="#5E5E5E"/>
<path d="M11.1109 5.01551L10.8082 5.18002C10.7352 5.21978 10.652 5.21944 10.579 5.18002C10.4823 5.12724 10.4192 5.01311 10.4192 4.8887V4.66113H9.87085V4.88836C9.87085 5.21601 10.0419 5.51247 10.3174 5.6619C10.4353 5.72565 10.5642 5.75752 10.6934 5.75752C10.8226 5.75752 10.9519 5.72565 11.0698 5.6619L11.3727 5.49739L11.1109 5.01551Z" fill="#5E5E5E"/>
<path d="M16.271 6.49607L15.6756 6.09919L16.0112 5.76366C16.649 5.1255 17 4.27793 17 3.37587C17 1.51452 15.4858 0 13.624 0C12.7219 0 11.874 0.351296 11.2365 0.988771L10.8245 1.40039C10.563 1.66189 10.4194 2.00907 10.4194 2.37888C10.4194 2.48272 10.4348 2.58383 10.4571 2.68322C9.88228 2.99476 9.40758 3.46635 9.11008 4.0298C9.07718 4.09252 9.01514 4.13878 8.94042 4.15626L8.24877 4.32009C8.03696 4.37047 7.85873 4.50722 7.75968 4.69469C7.58522 5.02576 7.69593 5.42813 8.01708 5.63137L8.32314 5.82501L8.22238 6.04812C7.79121 7.00125 8.21621 8.10929 9.19028 8.57129C9.43123 8.68576 9.6924 8.74848 9.95631 8.76596C9.77706 9.22247 9.53371 9.64882 9.22524 10.0347L9.17349 10.0995C7.12458 10.726 5.61446 12.5846 5.49792 14.8072H4.3871V13.9847C4.3871 13.5312 4.01796 13.1621 3.56452 13.1621H1.37097C1.21948 13.1621 1.09677 13.0391 1.09677 12.8879C1.09677 12.7368 1.21948 12.6138 1.37097 12.6138H1.91935C2.58119 12.6138 3.13506 12.1418 3.26256 11.517H3.29032C3.59262 11.517 3.83871 11.271 3.83871 10.9687V10.4203C3.83871 10.118 3.59262 9.87194 3.29032 9.87194V9.32358H3.94359L3.9148 9.3815C3.8651 9.4802 3.83871 9.59125 3.83871 9.70195C3.83871 10.0978 4.16089 10.4196 4.55641 10.4196H4.76583C5.16135 10.4196 5.48353 10.0978 5.48353 9.70195C5.48353 9.59125 5.45714 9.4802 5.40778 9.38081L5.29708 9.15941C5.73202 8.92807 6.03226 8.47635 6.03226 7.95129V1.37091C6.03226 0.614854 5.41738 0 4.66129 0H1.37097C0.614879 0 0 0.614854 0 1.37091V7.95129C0 8.70735 0.614879 9.3222 1.37097 9.3222H1.64516V9.87057C1.34286 9.87057 1.09677 10.1166 1.09677 10.4189V10.9673C1.09677 11.2696 1.34286 11.5157 1.64516 11.5157H2.69155C2.5781 11.8341 2.27649 12.064 1.91935 12.064H1.37097C0.91752 12.064 0.548387 12.4331 0.548387 12.8866C0.548387 13.34 0.91752 13.7091 1.37097 13.7091H3.56452C3.71601 13.7091 3.83871 13.8322 3.83871 13.9833V14.8059H3.79175C3.67865 14.4868 3.37361 14.2575 3.01613 14.2575C2.65865 14.2575 2.35361 14.4868 2.2405 14.8059H2.19355C1.58861 14.8059 1.09677 15.2977 1.09677 15.9026C1.09677 16.5072 1.58792 16.9993 2.19149 16.9997C2.76558 17 3.58577 17.0003 4.47244 17.0003C5.46194 17.0003 6.53472 17.0003 7.44161 17C7.52044 17 7.59859 16.9925 7.67673 16.989V16.9993H14.2574V16.451H12.266L16.7782 8.68027C16.9232 8.43077 16.9997 8.1463 16.9997 7.85841C17 7.30971 16.7275 6.80041 16.271 6.49607ZM4.91766 9.62518C4.92931 9.64882 4.93548 9.67521 4.93548 9.70126C4.93548 9.79483 4.8594 9.87057 4.76617 9.87057H4.55675C4.46319 9.87057 4.38744 9.79448 4.38744 9.70126C4.38744 9.67521 4.39361 9.64882 4.40526 9.62552L4.55675 9.3222H4.66129C4.69522 9.3222 4.72744 9.31467 4.76069 9.31192L4.91766 9.62518ZM0.548387 7.95129V1.37091C0.548387 0.917483 0.91752 0.548365 1.37097 0.548365H4.66129C5.11474 0.548365 5.48387 0.917483 5.48387 1.37091V7.95129C5.48387 8.40472 5.11474 8.77384 4.66129 8.77384H1.37097C0.91752 8.77384 0.548387 8.40472 0.548387 7.95129ZM2.19355 9.3222H2.74194V9.87057H2.19355V9.3222ZM1.64482 10.4189H3.29032V10.9673H1.64516L1.64482 10.4189ZM11.2125 1.78836L11.6244 1.37674C12.1581 0.842426 12.8682 0.548365 13.624 0.548365C15.1831 0.548365 16.4516 1.8168 16.4516 3.37587C16.4516 4.1309 16.1575 4.84138 15.6232 5.37535L14.5998 6.39873C14.3438 6.65475 13.8766 6.61877 13.6627 6.3271L11.1295 2.8724C11.0236 2.72846 10.9677 2.55778 10.9677 2.37888C10.9677 2.15576 11.0545 1.94601 11.2125 1.78836ZM14.7475 8.25255C15.1088 8.3348 15.4158 8.61756 15.5656 9.01375C15.2952 9.07064 15.0152 9.05111 14.7499 8.96474C14.7167 8.86055 14.6697 8.76047 14.608 8.66794L14.5347 8.55758C14.6272 8.47361 14.7009 8.37045 14.7475 8.25255ZM14.1518 8.97194C14.221 9.07647 14.2581 9.19745 14.2581 9.3222C14.2581 9.44696 14.2214 9.56828 14.1518 9.67247L13.9839 9.92472L13.8619 9.74136C13.7621 9.59262 13.7097 9.41885 13.7097 9.23961C13.7097 9.14193 13.7254 9.04562 13.7559 8.95377L13.8211 8.75807C13.8739 8.76836 13.928 8.77418 13.9835 8.77418C13.9952 8.77418 14.0062 8.7711 14.0175 8.77076L14.1518 8.97194ZM11.7982 10.4011L11.5809 10.1304L12.5053 8.74402C12.7901 8.67616 13.0605 8.56923 13.3138 8.42597C13.3224 8.43797 13.333 8.44859 13.3423 8.46024L13.2357 8.77967C13.1863 8.92807 13.1609 9.08264 13.1609 9.23961C13.1609 9.42297 13.1986 9.60119 13.2648 9.76912L12.2948 11.224C12.1663 10.9306 12.0001 10.653 11.7982 10.4011ZM12.8796 6.18658L13.2209 6.65201C13.3961 6.89055 13.6562 7.05026 13.9424 7.10578C13.9359 7.11572 13.929 7.12532 13.9225 7.13526C13.5253 7.16542 13.2089 7.47593 13.1699 7.87075C13.0012 7.97905 12.8223 8.06645 12.6345 8.1326C12.5749 7.47079 12.6602 6.8011 12.8796 6.18658ZM13.9839 8.22548C13.8324 8.22548 13.7097 8.10244 13.7097 7.95129C13.7097 7.80015 13.8324 7.67711 13.9839 7.67711C13.9983 7.67711 14.0123 7.67814 14.0257 7.68019C14.1583 7.70042 14.2581 7.81694 14.2581 7.95129C14.2581 8.10244 14.1354 8.22548 13.9839 8.22548ZM10.5523 8.7238C10.7093 8.69021 10.8625 8.63949 11.0085 8.57026L11.3592 8.40404L11.124 7.90845L10.7738 8.07467C10.3511 8.27449 9.84663 8.27483 9.42472 8.07467C9.0405 7.89269 8.77968 7.57121 8.66794 7.20757C8.87496 7.33644 9.09843 7.40396 9.32224 7.40396C9.56353 7.40396 9.80482 7.32924 10.0249 7.17981L9.71639 6.72638C9.46619 6.89672 9.17829 6.89672 8.92774 6.72638L8.63607 6.52829C8.65561 6.4426 8.68337 6.35726 8.72141 6.27398L9.01891 5.61594L8.30944 5.168C8.23129 5.11864 8.20353 5.02748 8.24431 4.95071C8.26968 4.90273 8.31732 4.86742 8.37524 4.85372L9.06655 4.68989C9.2955 4.63574 9.48813 4.48837 9.59506 4.28547C9.83567 3.82964 10.2168 3.4451 10.6798 3.18497C10.6826 3.18874 10.6846 3.1932 10.6874 3.19662L12.4977 5.66564C12.131 6.49436 11.9936 7.43651 12.107 8.35263L11.0952 9.87057H10.6935C10.4492 9.87057 10.211 9.89319 9.9755 9.92609C10.2171 9.55149 10.408 9.14844 10.5523 8.7238ZM10.6935 10.4189H11.1103L11.3701 10.7435C11.8181 11.3035 12.0645 12.0068 12.0645 12.7238C12.0645 13.621 11.682 14.4796 11.015 15.0797C10.9201 15.1654 10.82 15.2435 10.7199 15.3217L9.48538 14.2417C9.9923 13.7475 10.3703 13.1145 10.5517 12.3886C10.5996 12.1974 10.7703 12.0644 10.9674 12.0644V11.516C10.5184 11.516 10.1287 11.82 10.0201 12.2556C9.6451 13.7571 8.30155 14.8059 6.75373 14.8059H6.04631C6.18923 12.3636 8.21587 10.4189 10.6935 10.4189ZM2.19218 16.4513C1.89056 16.451 1.64516 16.2049 1.64516 15.9026C1.64516 15.6003 1.89125 15.3542 2.19355 15.3542H2.74194V15.08C2.74194 14.9289 2.86464 14.8059 3.01613 14.8059C3.16762 14.8059 3.29032 14.9289 3.29032 15.08V15.3542H6.75373C7.60956 15.3542 8.40952 15.0763 9.0621 14.5995L10.2586 15.6462C9.41821 16.1689 8.4455 16.451 7.44196 16.4513C5.72208 16.452 3.40617 16.4523 2.19218 16.4513ZM9.91415 16.451C10.4437 16.2056 10.9403 15.8851 11.3818 15.4872C12.1639 14.7832 12.6129 13.776 12.6129 12.7238C12.6129 12.4403 12.5773 12.159 12.5135 11.8848L13.5726 10.2962L13.9839 10.9131L14.6083 9.97613C14.6961 9.84418 14.7533 9.69715 14.7828 9.54361C14.9343 9.57719 15.0878 9.59536 15.2414 9.59536C15.373 9.59536 15.5043 9.58268 15.6342 9.55834L11.6323 16.451H9.91415ZM16.3042 8.40541L16.0722 8.80469C15.8408 8.20628 15.3449 7.7885 14.7633 7.69904C14.7098 7.53625 14.607 7.39504 14.4709 7.29325C14.509 7.22916 14.5467 7.16439 14.5799 7.0979L14.6083 7.04101C14.7485 6.98309 14.8771 6.89775 14.9874 6.78705L15.2798 6.4947L15.9663 6.95224C16.27 7.15514 16.4509 7.49375 16.4509 7.85876C16.4516 8.05 16.4005 8.23918 16.3042 8.40541Z" fill="#5E5E5E"/>
</g>
</g>
<defs>
<clipPath id="clip0_2601_3251">
<rect width="17" height="17" fill="white"/>
</clipPath>
<clipPath id="clip1_2601_3251">
<rect width="17" height="17" fill="white"/>
</clipPath>
</defs>
</svg>
