<svg width="17" height="17" viewBox="0 0 17 17" fill="none" xmlns="http://www.w3.org/2000/svg">
<g clip-path="url(#clip0_2601_2709)">
<path d="M12.8059 15.867H10.4448V11.9015C10.4448 11.2759 10.9735 10.7686 11.6254 10.7686H12.8059V15.867Z" fill="#23AAE6"/>
<path d="M13.1011 17.0002H10.74C10.5769 17.0002 10.4448 16.8734 10.4448 16.7169V15.8672H12.8059C13.1321 15.8672 13.3962 16.1207 13.3962 16.4337V16.7169C13.3962 16.8734 13.2641 17.0002 13.1011 17.0002Z" fill="#F0915A"/>
<path d="M8.08313 10.7686C6.45322 10.7686 5.13173 12.0368 5.13173 13.601V14.734H3.95117V16.4335C3.95117 16.7465 4.21532 17 4.54145 17H6.31229C7.61644 17 8.6734 15.9856 8.6734 14.734V10.7686H8.08313Z" fill="#23AAE6"/>
<path d="M1.29514 16.9054H1.59028C1.91641 16.9054 2.18056 16.6519 2.18056 16.3389V14.4507H1.29514C1.13207 14.4507 1 14.5774 1 14.7339V16.6221C1 16.7786 1.13207 16.9054 1.29514 16.9054Z" fill="#FAB991"/>
<path d="M6.31213 10.7686C4.68222 10.7686 3.36073 12.0368 3.36073 13.601V14.4507H2.18018V16.4335C2.18018 16.7465 2.44433 17 2.77045 17H4.54129C5.84544 17 6.90241 15.9856 6.90241 14.734H8.67325V15.867H11.0344V14.4975C12.0766 14.0602 12.8052 13.0628 12.8052 11.9015V10.7686H6.31213Z" fill="#5AD7FF"/>
<path d="M11.3301 17.0002H8.96897C8.8059 17.0002 8.67383 16.8734 8.67383 16.7169V15.8672H11.0349C11.3611 15.8672 11.6252 16.1207 11.6252 16.4337V16.7169C11.6252 16.8734 11.4931 17.0002 11.3301 17.0002Z" fill="#FAB991"/>
<path d="M11.6254 11.9017C12.2774 11.9017 12.8059 11.3945 12.8059 10.7687C12.8059 10.143 12.2774 9.63574 11.6254 9.63574C10.9734 9.63574 10.4448 10.143 10.4448 10.7687C10.4448 11.3945 10.9734 11.9017 11.6254 11.9017Z" fill="#FFD205"/>
<path d="M10.4444 1.70459C7.83647 1.70459 5.72217 3.73369 5.72217 6.23652C5.72217 8.73935 7.83647 10.7684 10.4444 10.7684H12.2152C13.8451 10.7684 15.1666 9.50021 15.1666 7.93599V6.23652C15.1666 3.73369 13.0523 1.70459 10.4444 1.70459Z" fill="#FAB991"/>
<path d="M9.26427 6.23657V9.06903C8.44932 9.06903 7.78857 8.43491 7.78857 7.6528C7.78857 6.87069 8.44932 6.23657 9.26427 6.23657Z" fill="#F0915A"/>
<path d="M11.4774 7.08631C11.7219 7.08631 11.9201 6.89609 11.9201 6.66144C11.9201 6.42679 11.7219 6.23657 11.4774 6.23657C11.2329 6.23657 11.0347 6.42679 11.0347 6.66144C11.0347 6.89609 11.2329 7.08631 11.4774 7.08631Z" fill="#463C4B"/>
<path d="M13.8387 7.08631C14.0832 7.08631 14.2814 6.89609 14.2814 6.66144C14.2814 6.42679 14.0832 6.23657 13.8387 6.23657C13.5942 6.23657 13.396 6.42679 13.396 6.66144C13.396 6.89609 13.5942 7.08631 13.8387 7.08631Z" fill="#463C4B"/>
<path d="M13.002 8.7861C12.7847 8.7861 12.6084 8.61686 12.6084 8.40832V7.36987C13.043 7.36987 13.3953 7.708 13.3953 8.12508V8.40832C13.3957 8.61686 13.2193 8.7861 13.002 8.7861Z" fill="#F0915A"/>
<path d="M11.3302 8.21932H10.74C10.5769 8.21932 10.4448 8.09257 10.4448 7.93608C10.4448 7.77958 10.5769 7.65283 10.74 7.65283H11.3302C11.4933 7.65283 11.6254 7.77958 11.6254 7.93608C11.6254 8.09257 11.4933 8.21932 11.3302 8.21932Z" fill="#F0915A"/>
<path d="M14.5762 7.93608C14.5762 8.09257 14.7082 8.21932 14.8713 8.21932H15.1517C15.1613 8.12621 15.1665 8.03167 15.1665 7.93608V7.65283H14.8713C14.7082 7.65283 14.5762 7.77958 14.5762 7.93608Z" fill="#F0915A"/>
<path d="M11.9633 3.35717H11.6246C11.5431 3.35717 11.4771 3.29379 11.4771 3.21554C11.4771 3.1373 11.5431 3.07392 11.6246 3.07392H11.9633C12.997 3.07392 13.8382 2.26667 13.8382 1.2746C13.8382 0.727941 13.3748 0.283245 12.8052 0.283245C12.3983 0.283245 12.0673 0.600834 12.0673 0.991359C12.0673 1.22574 12.2658 1.41623 12.51 1.41623C12.5916 1.41623 12.6576 1.4796 12.6576 1.55785C12.6576 1.6361 12.5916 1.69947 12.51 1.69947C12.1031 1.69947 11.7722 1.38188 11.7722 0.991359C11.7722 0.444695 12.2356 0 12.8052 0C13.5375 0 14.1333 0.571802 14.1333 1.2746C14.1333 2.42281 13.1601 3.35717 11.9633 3.35717Z" fill="#463C4B"/>
</g>
<defs>
<clipPath id="clip0_2601_2709">
<rect width="17" height="17" fill="white"/>
</clipPath>
</defs>
</svg>
