<svg width="7" height="7" viewBox="0 0 7 7" fill="none" xmlns="http://www.w3.org/2000/svg">
<path d="M1.04371 0.171806L3.5 2.62799L5.94356 0.184532C5.99754 0.127084 6.06256 0.0811271 6.13473 0.0494179C6.2069 0.0177086 6.28473 0.000899973 6.36355 0C6.53232 0 6.69418 0.0670404 6.81352 0.186373C6.93285 0.305706 6.9999 0.467556 6.9999 0.636318C7.00138 0.714332 6.98691 0.791826 6.95736 0.864044C6.92782 0.936263 6.88382 1.00168 6.82808 1.05629L4.3527 3.49975L6.82808 5.97503C6.93296 6.07763 6.99446 6.21656 6.9999 6.36318C6.9999 6.53194 6.93285 6.69379 6.81352 6.81312C6.69418 6.93246 6.53232 6.9995 6.36355 6.9995C6.28245 7.00286 6.20154 6.98933 6.12595 6.95975C6.05036 6.93017 5.98175 6.8852 5.92447 6.82769L3.5 4.3715L1.05007 6.82133C0.996305 6.87686 0.932072 6.9212 0.861079 6.95178C0.790087 6.98236 0.713742 6.99858 0.636448 6.9995C0.467679 6.9995 0.305822 6.93246 0.186485 6.81312C0.0671468 6.69379 0.000103538 6.53194 0.000103538 6.36318C-0.0013801 6.28517 0.0130948 6.20767 0.04264 6.13545C0.0721852 6.06323 0.116177 5.99781 0.171917 5.94321L2.6473 3.49975L0.171917 1.02447C0.0670374 0.921871 0.00553768 0.782933 0.000103538 0.636318C0.000103538 0.467556 0.0671468 0.305706 0.186485 0.186373C0.305822 0.0670404 0.467679 0 0.636448 0C0.789171 0.00190895 0.935531 0.0636318 1.04371 0.171806Z" fill="#EA1938"/>
</svg>
