<svg width="15" height="16" viewBox="0 0 15 16" fill="none" xmlns="http://www.w3.org/2000/svg">
<path d="M7.46525 0.000834291C7.79146 0.0317031 7.97834 0.190218 7.99502 0.502243C8.01004 0.793411 8.01338 1.08708 7.99586 1.37741C7.98167 1.61352 8.04591 1.71697 8.30204 1.75535C10.8241 2.13745 12.6679 3.88279 13.2127 6.38566C13.3039 6.80392 13.5709 7.01305 14.0136 7.01305C14.1805 7.01305 14.3481 7.00304 14.5142 7.01722C14.8229 7.04309 15.0081 7.21912 14.9997 7.53031C14.9922 7.81981 14.8095 7.99167 14.5208 8.00753C14.2163 8.02421 13.9085 8.02588 13.604 8.01003C13.3779 7.99835 13.2944 8.07761 13.2586 8.30537C12.8406 10.9693 10.9334 12.8831 8.30788 13.2702C8.05593 13.3078 7.98084 13.4037 7.99669 13.6432C8.01421 13.9201 8.00503 14.1988 7.99836 14.4766C7.99085 14.8037 7.82566 15.0172 7.49194 15.0122C7.15739 15.0072 7.00305 14.7878 7.00055 14.4608C6.99804 14.1829 6.98303 13.9035 7.00472 13.6273C7.02391 13.3703 6.91211 13.3036 6.67684 13.2702C4.09888 12.9056 2.11494 10.9217 1.74201 8.3354C1.7078 8.09846 1.63522 7.99167 1.38076 8.01003C1.09043 8.03089 0.796759 8.02338 0.505591 8.01086C0.196903 7.99751 0.00167933 7.82815 1.07482e-05 7.51529C-0.00165783 7.20327 0.191063 7.03057 0.499751 7.01639C0.805102 7.00304 1.11212 7.00137 1.41664 7.01639C1.62771 7.0264 1.71031 6.94714 1.7345 6.7394C2.02734 4.21067 4.11974 2.0657 6.70855 1.74951C6.93714 1.72198 7.0164 1.6302 7.00305 1.40411C6.98636 1.11294 6.99638 0.820108 7.00138 0.528941C7.00722 0.213579 7.18826 0.0550632 7.46525 0V0.000834291ZM7.49695 2.68225C4.84474 2.68391 2.66807 4.86141 2.66891 7.51279C2.66891 10.1633 4.85141 12.345 7.49862 12.3433C10.1425 12.3408 12.33 10.1533 12.33 7.50945C12.33 4.86141 10.1467 2.68058 7.49695 2.68308V2.68225Z" fill="white"/>
<path d="M7.5146 5.35948C8.69095 5.37033 9.66457 6.35813 9.65289 7.5278C9.64121 8.70332 8.65341 9.67694 7.48373 9.66609C6.30822 9.65441 5.33544 8.66828 5.34628 7.49693C5.35713 6.32058 6.34409 5.34863 7.5146 5.35948Z" fill="white"/>
</svg>
