<svg width="24" height="20" viewBox="0 0 24 20" fill="none" xmlns="http://www.w3.org/2000/svg">
<path d="M7.17801 5.08578C7.17801 6.65067 7.16015 8.21987 7.1835 9.78763C7.20273 11.0802 8.08188 12.1679 9.28108 12.4588C10.494 12.7526 11.7701 12.1249 12.3347 10.9556C12.5339 10.5429 12.6122 10.0986 12.6191 9.64003C12.6259 9.21011 12.6616 8.77589 12.6122 8.35314C12.5339 7.67674 12.7399 7.45175 13.4227 7.47755C14.9529 7.5363 16.4873 7.49188 18.0189 7.49761C18.8692 7.50048 19.1851 7.82148 19.2044 8.69134C19.2154 9.14419 19.2099 9.59847 19.2044 10.0513C19.1989 10.6919 19.0121 11.1935 18.295 11.2236C17.9859 11.2365 17.9914 11.4442 17.9914 11.6649C17.9901 12.2854 17.9942 12.906 17.9887 13.5265C17.9791 14.478 17.6521 14.9051 16.7593 14.9911C16.3389 15.0312 16.1974 15.1974 16.0999 15.6058C15.8238 16.768 14.898 17.5089 13.7482 17.5204C12.2386 17.5347 10.7289 17.5333 9.21926 17.5175C8.81541 17.5132 8.46787 17.6064 8.12034 17.8242C7.10383 18.4648 6.07084 19.0796 5.04197 19.7001C4.17107 20.226 3.51859 20.0655 3.0227 19.177C2.08998 17.5075 1.16826 15.8323 0.253403 14.1513C-0.209519 13.3015 -0.039186 12.6738 0.772645 12.1751C1.55975 11.6907 2.34823 11.2064 3.15182 10.7521C3.47326 10.5701 3.65183 10.3551 3.59002 9.9682C3.24111 7.81575 4.1903 6.46294 6.02414 5.63894C6.35794 5.4899 6.65739 5.26204 6.97608 5.07574C7.00905 5.05712 7.06262 5.07861 7.17526 5.08578H7.17801Z" fill="#212121"/>
<path d="M20.5355 9.44083C20.3665 9.06394 20.4462 8.7501 20.4297 8.44629C20.361 7.18377 19.5437 6.25085 18.3431 6.22792C16.1686 6.18493 13.9941 6.22076 11.8196 6.20643C11.4267 6.20356 11.3732 6.40849 11.3759 6.73952C11.3841 7.67101 11.3855 8.6025 11.3759 9.53398C11.3649 10.5873 10.8155 11.2164 9.91433 11.2264C8.98712 11.2365 8.41018 10.5944 8.40331 9.50962C8.3937 7.98198 8.40881 6.45291 8.39644 4.92527C8.39095 4.34345 8.63134 3.96226 9.0764 3.61403C10.1643 2.75993 11.3388 2.29705 12.7166 2.48048C14.5147 2.72123 16.1411 2.29562 17.5972 1.13627C18.0478 0.776578 18.5725 0.514329 19.0725 0.226284C19.8019 -0.193601 20.4805 -0.0287996 20.9008 0.717822C21.8761 2.44609 22.835 4.18438 23.7773 5.93128C24.2017 6.71659 24.0136 7.34571 23.2635 7.80428C22.3624 8.35601 21.4531 8.89197 20.5355 9.44227V9.44083Z" fill="#212121"/>
</svg>
