<svg width="17" height="17" viewBox="0 0 17 17" fill="none" xmlns="http://www.w3.org/2000/svg">
<g clip-path="url(#clip0_2601_2797)">
<path d="M15.0878 4.78163H8.84344C8.54188 4.78163 8.3 4.52029 8.32031 4.20599C8.32906 4.07211 8.38969 3.94722 8.48219 3.85251L9.26594 3.04733C9.775 2.52466 9.77406 1.67645 9.26375 1.15443C9.06094 0.947352 8.72813 0.948957 8.52594 1.15667L4.79938 5.1916C4.43781 5.58296 3.93594 5.80449 3.41063 5.80449H0.321875C0.144063 5.80449 0 5.95249 0 6.13516V10.2333C0 10.416 0.144063 10.564 0.321875 10.564H3.09375C3.69156 10.564 4.24625 10.8613 4.60875 11.3496C5.01188 11.8928 5.64969 12.255 6.34938 12.2775L9.55594 12.2791V12.247C9.07 12.247 8.675 11.8408 8.675 11.3419C8.675 10.843 9.07031 10.4369 9.55594 10.4369V10.3727C9.07 10.3727 8.675 9.96655 8.675 9.46764C8.675 8.96873 9.07 8.56261 9.55594 8.56261V8.4984C9.07031 8.4984 8.675 8.09227 8.675 7.59336C8.675 7.09446 9.07031 6.68833 9.55594 6.68833H11.9588V6.65623H15.0875C15.5913 6.65623 15.9997 6.23662 15.9997 5.71909C16 5.20124 15.5916 4.78163 15.0878 4.78163Z" fill="#FFB09E"/>
<path d="M15.0877 5.97557H10.2183C9.85271 5.97557 9.55615 6.28024 9.55615 6.65587H15.0877C15.5915 6.65587 15.9999 6.23626 15.9999 5.71873C15.9999 5.59866 15.9777 5.48404 15.9377 5.37842C15.8049 5.72772 15.4746 5.97557 15.0877 5.97557Z" fill="#F89580"/>
<path d="M12.8712 9.46767C12.8712 8.95014 12.4628 8.53053 11.959 8.53053C12.4628 8.53053 12.8712 8.11092 12.8712 7.59339C12.8712 7.07586 12.4628 6.65625 11.959 6.65625H9.55623C9.05248 6.65625 8.64404 7.07586 8.64404 7.59339C8.64404 8.11092 9.05248 8.53053 9.55623 8.53053C9.05248 8.53053 8.64404 8.95014 8.64404 9.46767C8.64404 9.9852 9.05248 10.4048 9.55623 10.4048C9.05248 10.4048 8.64404 10.8244 8.64404 11.3419C8.64404 11.8595 9.05248 12.2791 9.55623 12.2791H11.959C12.4628 12.2791 12.8712 11.8595 12.8712 11.3419C12.8712 10.8244 12.4628 10.4048 11.959 10.4048C12.4628 10.4048 12.8712 9.9852 12.8712 9.46767Z" fill="#FFDFCF"/>
<path d="M8.48236 3.85251L9.26611 3.04733C9.77517 2.52466 9.77423 1.67645 9.26392 1.15443C9.06111 0.947352 8.7283 0.948957 8.52611 1.15667L8.38892 1.30532C8.76798 1.82863 8.72642 2.57217 8.26423 3.04733L7.48048 3.85251C7.38798 3.94754 7.32736 4.07211 7.31861 4.20599C7.29798 4.52029 7.54017 4.78163 7.84173 4.78163H8.84392C8.54236 4.78163 8.30048 4.52029 8.32111 4.20599C8.32955 4.07211 8.39017 3.94722 8.48236 3.85251Z" fill="#F89580"/>
<path d="M12.5383 6.86938C12.5386 6.87998 12.5389 6.89057 12.5389 6.90117C12.5389 7.4187 12.1305 7.83831 11.6267 7.83831H9.22391C9.00391 7.83831 8.80203 7.75837 8.64453 7.62481C8.66109 8.12757 9.06266 8.53017 9.55609 8.53017H11.9589C12.4627 8.53017 12.8711 8.11056 12.8711 7.59303C12.8711 7.30152 12.7414 7.04115 12.5383 6.86938Z" fill="#FFCEBF"/>
<path d="M12.5383 8.74365C12.5386 8.75425 12.5389 8.76484 12.5389 8.77544C12.5389 9.29297 12.1305 9.71258 11.6267 9.71258H9.22391C9.00391 9.71258 8.80203 9.63263 8.64453 9.49908C8.66109 10.0018 9.06266 10.4044 9.55609 10.4044H11.9589C12.4627 10.4044 12.8711 9.98482 12.8711 9.46729C12.8711 9.1761 12.7414 8.91573 12.5383 8.74365Z" fill="#FFCEBF"/>
<path d="M12.5383 10.6182C12.5386 10.6288 12.5389 10.6394 12.5389 10.6499C12.5389 11.1675 12.1305 11.5871 11.6267 11.5871H9.22391C9.00391 11.5871 8.80203 11.5071 8.64453 11.3736C8.66109 11.8764 9.06266 12.2789 9.55609 12.2789H11.9589C12.4627 12.2789 12.8711 11.8593 12.8711 11.3418C12.8711 11.0503 12.7414 10.7899 12.5383 10.6182Z" fill="#FFCEBF"/>
<path d="M5.31885 8.21842C5.18947 8.21842 5.08447 8.11055 5.08447 7.97764C5.08447 7.84472 5.18947 7.73685 5.31885 7.73685C6.30135 7.73685 7.10041 6.91561 7.10041 5.90656C7.10041 5.77364 7.20541 5.66577 7.33479 5.66577C7.46416 5.66577 7.56916 5.77364 7.56916 5.90656C7.56916 7.18112 6.55979 8.21842 5.31885 8.21842Z" fill="#F89580"/>
<path d="M14.888 7.74157L14.223 8.66009C13.7849 9.26559 14.2052 10.1254 14.9396 10.1254C15.6739 10.1254 16.0946 9.26559 15.6561 8.66009L14.9911 7.74157C14.9655 7.70593 14.9136 7.70593 14.888 7.74157Z" fill="#FD4755"/>
<path d="M15.6559 8.66009L14.9909 7.74157C14.9653 7.70593 14.9134 7.70593 14.8875 7.74157L14.605 8.13196L14.9875 8.66041C15.3537 9.16638 15.12 9.84925 14.605 10.0605C14.7062 10.1019 14.8184 10.1257 14.939 10.1257C15.6737 10.1254 16.0944 9.26526 15.6559 8.66009Z" fill="#FB2B3A"/>
<path d="M14.888 11.3558L14.223 12.2744C13.7849 12.8798 14.2052 13.7396 14.9396 13.7396C15.6739 13.7396 16.0946 12.8798 15.6561 12.2744L14.9911 11.3558C14.9655 11.3205 14.9136 11.3205 14.888 11.3558Z" fill="#FD4755"/>
<path d="M15.6559 12.2746L14.9909 11.3561C14.9653 11.3204 14.9134 11.3204 14.8875 11.3561L14.605 11.7465L14.9875 12.2749C15.3537 12.7809 15.12 13.4638 14.605 13.675C14.7062 13.7164 14.8184 13.7402 14.939 13.7402C15.6737 13.7395 16.0944 12.8798 15.6559 12.2746Z" fill="#FB2B3A"/>
<path d="M14.9764 5.9596H14.9023C14.773 5.9596 14.668 5.85173 14.668 5.71881C14.668 5.5859 14.773 5.47803 14.9023 5.47803H14.9764C15.1058 5.47803 15.2108 5.5859 15.2108 5.71881C15.2108 5.85173 15.1058 5.9596 14.9764 5.9596Z" fill="#FB2B3A"/>
<path d="M12.1848 13.5859H9.44824V15.8349H12.1848C12.4514 15.8349 12.6676 15.6127 12.6676 15.3389V14.082C12.6679 13.8078 12.4517 13.5859 12.1848 13.5859Z" fill="#D8ECFE"/>
<path d="M12.1849 13.5859H11.2192C11.4858 13.5859 11.7021 13.8081 11.7021 14.082V15.3389C11.7021 15.6127 11.4858 15.8349 11.2192 15.8349H12.1849C12.4514 15.8349 12.6677 15.6127 12.6677 15.3389V14.082C12.668 13.8078 12.4517 13.5859 12.1849 13.5859Z" fill="#C4E2FF"/>
<path d="M11.4769 14.4692H10.5522V14.9508H11.4769C11.6063 14.9508 11.7113 14.8429 11.7113 14.71C11.7113 14.5771 11.6063 14.4692 11.4769 14.4692Z" fill="#7A6D79"/>
<path d="M2.17309 13.7676H0.981836C0.715273 13.7676 0.499023 13.9897 0.499023 14.2636V15.1568C0.499023 15.4306 0.715273 15.6528 0.981836 15.6528H2.17309V13.7676Z" fill="#B9ACAC"/>
<path d="M1.43262 13.7676H2.17293V15.6528H1.43262V13.7676Z" fill="#9E9797"/>
<path d="M10.4225 14.2966H9.44873V15.1237H10.4225C10.5115 15.1237 10.5834 15.0495 10.5834 14.9583V14.4623C10.5834 14.3708 10.5115 14.2966 10.4225 14.2966Z" fill="#B9ACAC"/>
<path d="M10.4223 14.2966H9.96387C10.0529 14.2966 10.1248 14.3708 10.1248 14.462V14.958C10.1248 15.0495 10.0526 15.1233 9.96387 15.1233H10.4223C10.5114 15.1233 10.5832 15.0492 10.5832 14.958V14.462C10.5832 14.3708 10.5114 14.2966 10.4223 14.2966Z" fill="#9E9797"/>
<path d="M9.32017 16H2.30205C2.21299 16 2.14111 15.9259 2.14111 15.8347V13.5857C2.14111 13.4943 2.2133 13.4204 2.30205 13.4204H9.32017C9.40924 13.4204 9.48111 13.4946 9.48111 13.5857V15.8347C9.48111 15.9259 9.40892 16 9.32017 16Z" fill="#26A6FE"/>
<path d="M9.32012 13.4202H8.35449C8.44355 13.4202 8.51543 13.4943 8.51543 13.5855V15.8344C8.51543 15.9259 8.44324 15.9998 8.35449 15.9998H9.32012C9.40918 15.9998 9.48106 15.9256 9.48106 15.8344V13.5855C9.48106 13.4943 9.40887 13.4202 9.32012 13.4202Z" fill="#0593FC"/>
<path d="M7.21156 14.2637H5.55469L5.52344 14.3009V15.1106L5.55469 15.1565H7.21156C7.45062 15.1565 7.64625 14.9555 7.64625 14.7099C7.64625 14.4646 7.45062 14.2637 7.21156 14.2637Z" fill="white"/>
<path d="M4.68518 14.2637C4.44611 14.2637 4.25049 14.4646 4.25049 14.7102C4.25049 14.9559 4.44611 15.1568 4.68518 15.1568H5.55455V14.2637H4.68518Z" fill="#FD4755"/>
<path d="M7.21139 14.2634H6.79639C6.95389 14.3472 7.06264 14.5158 7.06264 14.71C7.06264 14.9039 6.95389 15.0728 6.79639 15.1566H7.21139C7.45045 15.1566 7.64607 14.9556 7.64607 14.71C7.64607 14.4644 7.45045 14.2634 7.21139 14.2634Z" fill="#FAF7F7"/>
</g>
<defs>
<clipPath id="clip0_2601_2797">
<rect width="16" height="15" fill="white" transform="translate(0 1)"/>
</clipPath>
</defs>
</svg>
