<svg width="20" height="20" viewBox="0 0 20 20" fill="none" xmlns="http://www.w3.org/2000/svg">
<path d="M10 2.22186L2.2221 9.99977L10 17.7777L17.7779 9.99977L10 2.22186ZM10.6481 0.276688L19.7231 9.35169C19.8949 9.52359 19.9915 9.7567 19.9915 9.99977C19.9915 10.2428 19.8949 10.476 19.7231 10.6479L10.6481 19.7229C10.4762 19.8947 10.2431 19.9912 10 19.9912C9.75695 19.9912 9.52383 19.8947 9.35193 19.7229L0.276933 10.6479C0.105084 10.476 0.00854492 10.2428 0.00854492 9.99977C0.00854492 9.7567 0.105084 9.52359 0.276933 9.35169L9.35193 0.276688C9.52383 0.10484 9.75695 0.00830078 10 0.00830078C10.2431 0.00830078 10.4762 0.10484 10.6481 0.276688ZM10.9167 8.16644V5.87477L14.125 9.0831L10.9167 12.2914V9.99977H8.16668V12.7498H6.33335V9.0831C6.33335 8.83999 6.42993 8.60683 6.60183 8.43492C6.77374 8.26302 7.0069 8.16644 7.25002 8.16644H10.9167Z" fill="white"/>
</svg>
