<svg width="20" height="20" viewBox="0 0 20 20" fill="none" xmlns="http://www.w3.org/2000/svg">
<path d="M7.25 12.75L12.75 7.25" stroke="white" stroke-width="2" stroke-linecap="round" stroke-linejoin="round"/>
<path d="M7.70833 8.16667C7.96146 8.16667 8.16667 7.96146 8.16667 7.70833C8.16667 7.4552 7.96146 7.25 7.70833 7.25C7.4552 7.25 7.25 7.4552 7.25 7.70833C7.25 7.96146 7.4552 8.16667 7.70833 8.16667Z" fill="white" stroke="white" stroke-width="2" stroke-linecap="round" stroke-linejoin="round"/>
<path d="M12.2923 12.7499C12.5454 12.7499 12.7507 12.5447 12.7507 12.2916C12.7507 12.0385 12.5454 11.8333 12.2923 11.8333C12.0392 11.8333 11.834 12.0385 11.834 12.2916C11.834 12.5447 12.0392 12.7499 12.2923 12.7499Z" fill="white" stroke="white" stroke-width="2" stroke-linecap="round" stroke-linejoin="round"/>
<path d="M1.75 10C1.75 11.0834 1.96339 12.1562 2.37799 13.1571C2.7926 14.1581 3.40029 15.0675 4.16637 15.8336C4.93245 16.5997 5.84193 17.2074 6.84286 17.622C7.8438 18.0366 8.91659 18.25 10 18.25C11.0834 18.25 12.1562 18.0366 13.1571 17.622C14.1581 17.2074 15.0675 16.5997 15.8336 15.8336C16.5997 15.0675 17.2074 14.1581 17.622 13.1571C18.0366 12.1562 18.25 11.0834 18.25 10C18.25 8.91659 18.0366 7.8438 17.622 6.84286C17.2074 5.84193 16.5997 4.93245 15.8336 4.16637C15.0675 3.40029 14.1581 2.7926 13.1571 2.37799C12.1562 1.96339 11.0834 1.75 10 1.75C8.91659 1.75 7.8438 1.96339 6.84286 2.37799C5.84193 2.7926 4.93245 3.40029 4.16637 4.16637C3.40029 4.93245 2.7926 5.84193 2.37799 6.84286C1.96339 7.8438 1.75 8.91659 1.75 10Z" stroke="white" stroke-width="2" stroke-linecap="round" stroke-linejoin="round"/>
</svg>
