<svg width="21" height="24" viewBox="0 0 21 24" fill="none" xmlns="http://www.w3.org/2000/svg">
<path d="M6.53334 11.1334C5.38407 11.1334 4.28187 10.6769 3.46921 9.86419C2.65655 9.05154 2.20001 7.94934 2.20001 6.80007V3.3334C2.20001 3.10354 2.29132 2.8831 2.45385 2.72057C2.61638 2.55804 2.83682 2.46673 3.06667 2.46673H3.93334C4.1632 2.46673 4.38364 2.37542 4.54617 2.21289C4.7087 2.05036 4.80001 1.82992 4.80001 1.60007C4.80001 1.37021 4.7087 1.14977 4.54617 0.987239C4.38364 0.824708 4.1632 0.733398 3.93334 0.733398H3.06667C2.37711 0.733398 1.71579 1.00733 1.2282 1.49492C0.740603 1.98252 0.466675 2.64384 0.466675 3.3334V6.80007C0.467789 7.77917 0.706544 8.74337 1.16243 9.60987C1.61833 10.4764 2.27773 11.2193 3.08401 11.7747C3.85866 12.4577 4.48689 13.2905 4.93078 14.223C5.37466 15.1554 5.625 16.1682 5.66667 17.2001C5.66668 18.809 6.30584 20.3521 7.44356 21.4898C8.58128 22.6276 10.1244 23.2667 11.7333 23.2667C13.3423 23.2667 14.8854 22.6276 16.0231 21.4898C17.1608 20.3521 17.8 18.809 17.8 17.2001V16.2121C18.617 16.0011 19.329 15.4995 19.8025 14.8011C20.2761 14.1028 20.4787 13.2557 20.3724 12.4187C20.2661 11.5816 19.8581 10.8121 19.225 10.2543C18.5919 9.69654 17.7771 9.38881 16.9333 9.38881C16.0896 9.38881 15.2748 9.69654 14.6417 10.2543C14.0086 10.8121 13.6006 11.5816 13.4943 12.4187C13.388 13.2557 13.5906 14.1028 14.0642 14.8011C14.5377 15.4995 15.2497 16.0011 16.0667 16.2121V17.2001C16.0667 18.3493 15.6101 19.4515 14.7975 20.2642C13.9848 21.0769 12.8826 21.5334 11.7333 21.5334C10.5841 21.5334 9.48187 21.0769 8.66921 20.2642C7.85655 19.4515 7.40001 18.3493 7.40001 17.2001C7.44388 16.1669 7.69692 15.1534 8.14382 14.2209C8.59072 13.2883 9.22219 12.4562 10 11.7747C10.8031 11.2173 11.4591 10.4736 11.9119 9.60721C12.3647 8.74084 12.6008 7.77763 12.6 6.80007V3.3334C12.6 2.64384 12.3261 1.98252 11.8385 1.49492C11.3509 1.00733 10.6896 0.733398 10 0.733398H9.13334C8.90349 0.733398 8.68305 0.824708 8.52052 0.987239C8.35798 1.14977 8.26667 1.37021 8.26667 1.60007C8.26667 1.82992 8.35798 2.05036 8.52052 2.21289C8.68305 2.37542 8.90349 2.46673 9.13334 2.46673H10C10.2299 2.46673 10.4503 2.55804 10.6128 2.72057C10.7754 2.8831 10.8667 3.10354 10.8667 3.3334V6.80007C10.8667 7.36913 10.7546 7.93262 10.5368 8.45836C10.319 8.9841 9.99986 9.46181 9.59747 9.86419C9.19508 10.2666 8.71738 10.5858 8.19164 10.8035C7.66589 11.0213 7.1024 11.1334 6.53334 11.1334ZM16.9333 14.6001C16.4736 14.6001 16.0328 14.4174 15.7077 14.0924C15.3826 13.7673 15.2 13.3264 15.2 12.8667C15.2 12.407 15.3826 11.9661 15.7077 11.6411C16.0328 11.316 16.4736 11.1334 16.9333 11.1334C17.3931 11.1334 17.8339 11.316 18.159 11.6411C18.4841 11.9661 18.6667 12.407 18.6667 12.8667C18.6667 13.3264 18.4841 13.7673 18.159 14.0924C17.8339 14.4174 17.3931 14.6001 16.9333 14.6001Z" fill="white"/>
</svg>
