<svg width="18" height="20" viewBox="0 0 18 20" fill="none" xmlns="http://www.w3.org/2000/svg">
<path d="M7.83978 0.675262H6.97578C6.07578 0.675262 5.17578 0.675262 5.17578 2.47526C5.17578 4.27526 6.07578 4.27526 6.97578 4.27526H10.5758C12.3758 4.27526 12.3758 3.37526 12.3758 2.47526C12.3758 0.675262 11.4758 0.675262 10.5758 0.675262M0.675781 7.87526C0.675781 3.77126 2.17878 2.65526 5.17578 2.49326M12.3758 2.49326C15.3728 2.65526 16.8758 3.76226 16.8758 7.87526V13.2753C16.8758 16.8753 15.9758 18.6753 11.4758 18.6753H6.07578C1.57578 18.6753 0.675781 16.8753 0.675781 13.2753V11.3943M8.77578 11.7904V14.1753M8.77578 14.1753L10.5758 12.3753M8.77578 14.1753L6.97578 12.3753M8.77578 8.77526V9.67526" stroke="#088F8F" stroke-width="1.35" stroke-linecap="round" stroke-linejoin="round"/>
</svg>
