<svg width="73" height="73" viewBox="0 0 73 73" fill="none" xmlns="http://www.w3.org/2000/svg">
<path d="M36.5 0.000976562C16.3437 0.000976562 0 16.3415 0 36.4994C0 56.6573 16.3421 72.9978 36.5 72.9978C56.6595 72.9978 73 56.6573 73 36.4994C73 16.3415 56.6595 0.000976562 36.5 0.000976562ZM36.5 10.9144C43.1696 10.9144 48.5742 16.3206 48.5742 22.987C48.5742 29.655 43.1696 35.0596 36.5 35.0596C29.8336 35.0596 24.429 29.655 24.429 22.987C24.429 16.3206 29.8336 10.9144 36.5 10.9144ZM36.492 63.4551C29.84 63.4551 23.7476 61.0326 19.0484 57.0228C17.9037 56.0464 17.2431 54.6147 17.2431 53.1124C17.2431 46.3514 22.7151 40.9404 29.4777 40.9404H43.5255C50.2897 40.9404 55.7408 46.3514 55.7408 53.1124C55.7408 54.6163 55.0835 56.0448 53.9371 57.0212C49.2396 61.0326 43.1455 63.4551 36.492 63.4551Z" fill="#282828"/>
</svg>
