<svg width="25" height="24" viewBox="0 0 25 24" fill="none" xmlns="http://www.w3.org/2000/svg">
<path d="M8.5746 23.9981C6.15894 23.9981 3.74328 24.0033 1.32931 23.9964C0.145924 23.993 0.0127513 23.8523 0.0110656 22.6825C0.00937983 21.4817 0.0346659 20.281 0.000951162 19.082C-0.0192777 18.3581 0.282469 17.9121 0.971934 18.0305C2.69307 18.3238 3.89163 17.5039 5.02613 16.3426C5.95328 15.394 7.15352 15.0012 8.47345 15.0046C10.6363 15.0098 12.799 15.0012 14.9618 15.0081C15.9665 15.0115 16.6223 15.5553 16.6644 16.3941C16.71 17.298 16.1065 17.9293 15.0579 17.9756C14.0482 18.0219 13.0367 17.9962 12.0253 17.9979C11.5111 17.9979 11.115 18.1729 11.1251 18.7647C11.1352 19.3616 11.5415 19.4937 12.054 19.4902C13.7397 19.4799 15.4237 19.4782 17.1095 19.4902C17.8023 19.4954 18.3451 19.1815 18.8508 18.7458C20.1168 17.6583 21.3811 16.5673 22.6572 15.4935C23.4276 14.8468 24.1188 14.8623 24.6548 15.4986C25.1572 16.0956 25.1184 17.1214 24.4913 17.6685C22.2746 19.6035 20.0342 21.5109 17.8023 23.4252C17.1499 23.9844 16.3543 23.993 15.567 23.9947C13.2357 24.0033 10.9043 23.9981 8.5746 23.9981Z" fill="#212121"/>
<path d="M13.4127 0.000573365C13.9386 -0.0131493 14.4005 0.216706 14.3196 0.986893C14.269 1.4689 14.5 1.63014 14.9079 1.72277C15.1759 1.78281 15.4406 1.90631 15.68 2.0504C15.98 2.23051 16.1486 2.55986 15.916 2.84632C15.4693 3.39694 15.095 4.08651 14.1476 3.82749C13.647 3.69198 13.089 3.77089 12.5563 3.7726C12.3237 3.7726 12.091 3.84293 12.0506 4.12425C12.0101 4.40899 12.2107 4.51706 12.445 4.58739C13.1699 4.80695 13.8948 5.02137 14.6146 5.25637C15.8435 5.65604 16.5785 6.57547 16.6122 7.72817C16.6459 8.89117 15.9918 9.87578 14.773 10.296C14.3179 10.4521 14.3145 10.706 14.3297 11.0525C14.3617 11.7901 13.9167 11.9805 13.3081 11.9856C12.6945 11.9908 12.1264 11.881 12.1804 11.0817C12.2175 10.5328 11.973 10.3646 11.5111 10.2257C11.0627 10.0902 10.4306 10.0302 10.5132 9.30114C10.5705 8.80541 11.5988 8.09697 12.0894 8.13471C12.6473 8.17931 13.2087 8.21018 13.7683 8.22048C14.0431 8.22562 14.3836 8.24106 14.4528 7.87398C14.5269 7.47945 14.1695 7.42627 13.9167 7.34565C13.2491 7.12952 12.5715 6.95112 11.9039 6.73499C10.6599 6.33017 9.94678 5.43648 9.91138 4.26662C9.8743 3.05559 10.4812 2.1396 11.7286 1.69018C12.1163 1.55124 12.1568 1.35912 12.1753 1.01948C12.2175 0.18583 12.4501 -0.011434 13.4127 0.000573365Z" fill="#212121"/>
</svg>
