<svg width="17" height="17" viewBox="0 0 17 17" fill="none" xmlns="http://www.w3.org/2000/svg">
<g clip-path="url(#clip0_2601_2719)">
<path d="M8.456 9.26034C9.0848 8.12241 9.68 7.01293 9.68 5.13793C9.68 2.85172 7.9616 1 5.84 1C3.7184 1 2 2.85172 2 5.13793V13.4138C2 14.8414 3.0752 16 4.4 16C5.636 16 6.656 15.3224 6.98 13.5483L8.456 9.26034Z" fill="#F9A38F"/>
<path d="M3.9201 7.46544C3.9201 7.46544 3.3177 6.8163 3.2145 5.51544C3.0921 3.95854 4.1169 2.46889 5.5593 2.30854C7.1409 2.13268 8.4801 3.46975 8.4801 5.13785C8.4801 6.82147 7.3689 8.3344 6.8241 9.39475C6.6321 9.76716 6.2289 9.9482 5.8473 9.83182C5.6745 9.77751 5.5209 9.66889 5.4105 9.5163L3.9201 7.46544Z" fill="#E08677"/>
<path d="M3.2242 5.59063C4.8802 5.13805 6.0802 6.10529 6.0802 7.54839C6.0802 9.41046 4.8922 10.807 4.5898 12.3458C4.5154 12.7234 4.189 12.9587 3.865 12.8812C3.565 12.8087 3.3634 12.5036 3.3634 12.1622C3.3634 12.1156 3.3682 12.0665 3.3754 12.0174C3.4306 11.6941 3.481 11.2984 3.481 10.9027C3.481 9.68201 3.2002 9.01736 3.2002 9.01736C4.6018 7.5665 3.889 7.74236 3.4738 6.67943C3.2362 6.07167 3.2242 5.59063 3.2242 5.59063Z" fill="#E08677"/>
<path d="M5.83979 2.03442C4.25099 2.03442 2.95979 3.4258 2.95979 5.13787C2.95979 6.77753 3.71819 7.61287 3.74939 7.64908C3.84299 7.74994 3.99419 7.74994 4.08779 7.64908C4.18139 7.54822 4.18379 7.38529 4.09019 7.28442C4.08539 7.27925 3.64139 6.77494 3.49019 5.79477C4.17899 5.65511 4.79099 5.77667 5.23259 6.14649C5.62379 6.47494 5.83979 6.97149 5.83979 7.54822C5.83979 8.59822 5.43179 9.51115 5.03819 10.3956C4.75259 11.0344 4.48379 11.6396 4.35419 12.2939C4.33019 12.4155 4.26779 12.5137 4.17659 12.5784C4.09739 12.6327 4.00379 12.6508 3.91499 12.6301C3.73259 12.5861 3.60059 12.3896 3.60059 12.162C3.60059 12.1284 3.60539 12.0922 3.60779 12.0637C3.67979 11.637 3.71819 11.2465 3.71819 10.9025C3.71819 9.64046 3.42779 8.9396 3.41579 8.91115C3.36059 8.78184 3.21899 8.72494 3.09899 8.78184C2.97899 8.84132 2.92379 8.99391 2.97899 9.12322C2.98139 9.12839 3.23819 9.76201 3.23819 10.9025C3.23819 11.2155 3.20459 11.5749 3.13499 11.9758C3.12539 12.0379 3.12059 12.1025 3.12059 12.162C3.12059 12.6353 3.40379 13.0361 3.80939 13.1344C3.87179 13.1474 3.92939 13.1551 3.98939 13.1551C4.14539 13.1551 4.30139 13.106 4.43579 13.0103C4.63499 12.8732 4.77179 12.656 4.82219 12.3974C4.93739 11.8051 5.19659 11.2284 5.46779 10.618C5.88779 9.68442 6.31979 8.7146 6.31979 7.54822C6.31979 6.80856 6.03899 6.16718 5.52779 5.73787C4.98539 5.2827 4.25099 5.12494 3.44459 5.27753C3.44219 5.23098 3.43979 5.18701 3.43979 5.13787C3.43979 3.71287 4.51739 2.55167 5.83979 2.55167C7.16219 2.55167 8.23979 3.71287 8.23979 5.13787C8.23979 6.40511 7.55819 7.59477 7.01099 8.55425C6.69419 9.1077 6.42059 9.58615 6.32699 9.9896C6.29339 10.1267 6.37259 10.2689 6.50219 10.3025C6.52139 10.3077 6.54059 10.3103 6.55979 10.3103C6.66779 10.3103 6.76379 10.2327 6.79259 10.1137C6.86939 9.78787 7.12379 9.34046 7.41899 8.8258C7.99739 7.81201 8.71979 6.54994 8.71979 5.13787C8.71979 3.4258 7.42859 2.03442 5.83979 2.03442Z" fill="#EF9684"/>
<path d="M13.2798 7.74734V10.3103H11.8398V7.4939L13.2798 7.74734Z" fill="#A5B9C8"/>
<path d="M10.6399 6.99235L7.95908 6.19579C7.69268 6.11562 7.69268 5.71217 7.95908 5.632L10.6399 4.83545L10.8799 4.87941V6.94838L10.6399 6.99235Z" fill="#313851"/>
<path d="M11.8401 10.0518H13.2801C13.4121 10.0518 13.5201 10.1681 13.5201 10.3104V15.4828C13.5201 15.7673 13.3041 16 13.0401 16H12.0801C11.8161 16 11.6001 15.7673 11.6001 15.4828V10.3104C11.6001 10.1681 11.7081 10.0518 11.8401 10.0518Z" fill="#D3E0E5"/>
<path d="M12.8001 3.93799L13.0401 4.10351V7.7242L12.8001 7.88971L11.0985 7.64402C10.8369 7.60523 10.6401 7.36213 10.6401 7.07764V4.75006C10.6401 4.46557 10.8369 4.22247 11.0985 4.18368L12.8001 3.93799Z" fill="#D3E0E5"/>
<path d="M13.9998 4.4164V7.41123C13.9998 7.75778 13.7166 8.02416 13.3974 7.97761L12.7998 7.88968V3.93795L13.3974 3.85002C13.7166 3.80347 13.9998 4.06985 13.9998 4.4164Z" fill="#BCCDD3"/>
</g>
<defs>
<clipPath id="clip0_2601_2719">
<rect width="12" height="15" fill="white" transform="translate(2 1)"/>
</clipPath>
</defs>
</svg>
