<svg width="22" height="23" viewBox="0 0 22 23" fill="none" xmlns="http://www.w3.org/2000/svg">
<path d="M10.031 19.4709C10.0227 19.347 10.0058 19.2248 9.98115 19.1047H0.0562239C0.0193572 19.284 0 19.4683 0 19.6556V22.2105H10.0374L10.031 19.4709Z" fill="#0E4D92"/>
<path d="M8.7794 17.3519L6.17924 15.6693V10.1123H3.8646V15.6693L1.26444 17.3519C1.06436 17.4814 0.884777 17.6334 0.728027 17.8033H9.31577C9.15902 17.6334 8.97948 17.4814 8.7794 17.3519Z" fill="#0E4D92"/>
<path d="M9.2207 0H16.5062V2.89086H9.2207V0Z" fill="#0E4D92"/>
<path d="M5.50822 2.89077H7.8958V1.26538H3.85986V8.81071H5.50822V2.89077Z" fill="#0E4D92"/>
<path d="M18.8893 4.19214H6.82861V8.81073H7.49494V14.9666L9.49938 16.2637C9.54043 16.2902 9.58068 16.3176 9.62054 16.3454H16.3484V17.6468H10.818C11.1053 18.1439 11.2852 18.7005 11.339 19.2835H18.8894V4.19214H18.8893ZM16.3484 14.7086H9.36956V13.4072H16.3484V14.7086ZM16.3484 11.7705H9.36956V10.4691H16.3484V11.7705ZM16.3484 8.24753H14.5217L13.6526 7.16204L12.6343 8.83237H11.5337L10.6115 7.69817H9.36956V6.39678H11.245L12.0075 7.33452L12.9141 5.84742H14.2815L15.1612 6.94614H16.3483V8.24753H16.3484Z" fill="#0E4D92"/>
<path d="M17.8203 1.26538V2.89077H20.2079V20.5849H11.355V22.2103H21.8563V1.26538H17.8203Z" fill="#0E4D92"/>
</svg>
