<svg width="17" height="15" viewBox="0 0 17 15" fill="none" xmlns="http://www.w3.org/2000/svg">
<path d="M12.8052 6.30525C12.8048 6.30214 12.8046 6.29899 12.8041 6.29592C12.8019 6.28061 12.799 6.26534 12.7949 6.25026C12.7949 6.25011 12.7948 6.24996 12.7947 6.24977C12.7909 6.23567 12.7859 6.22176 12.7804 6.208C12.7788 6.20406 12.777 6.20027 12.7753 6.19641C12.7709 6.18648 12.7661 6.1767 12.7607 6.16707C12.7584 6.16287 12.7562 6.15866 12.7537 6.15453C12.7524 6.15229 12.7513 6.14998 12.7499 6.14775C12.7443 6.13884 12.7382 6.13047 12.7319 6.12217C12.7308 6.12061 12.7298 6.11898 12.7286 6.11747C12.7192 6.10519 12.7089 6.09378 12.6982 6.08298C12.6962 6.08093 12.694 6.07904 12.6919 6.07707C12.6826 6.06809 12.6729 6.05967 12.6629 6.05175C12.6603 6.04975 12.6578 6.04774 12.6551 6.0458C12.6416 6.0358 12.6277 6.02648 12.6132 6.0184L7.03003 2.84479L10.2446 0.820563L15.6339 3.88385L13.3642 5.31307C13.187 5.42456 13.1339 5.65857 13.2454 5.83567C13.3569 6.0128 13.5909 6.06597 13.768 5.95443L16.5734 4.18794C16.6862 4.11696 16.7533 3.99194 16.7503 3.85869C16.7473 3.72545 16.6746 3.60364 16.5587 3.53778L10.4219 0.0495097C10.3005 -0.0195387 10.151 -0.0161279 10.0327 0.0582639L6.09311 2.53904C6.09231 2.53953 6.09148 2.54006 6.09068 2.54056L4.12204 3.78021C4.12113 3.78077 4.12022 3.78134 4.11935 3.78191L0.17704 6.26439C0.0642581 6.33537 -0.00293334 6.4604 9.84174e-05 6.59364C0.00309228 6.72689 0.0758167 6.84869 0.191706 6.91456L6.32852 10.4028C6.38666 10.4359 6.45123 10.4524 6.51577 10.4524C6.586 10.4524 6.65611 10.4328 6.71769 10.3941L9.52305 8.62754C9.70018 8.51605 9.75335 8.28203 9.64182 8.10494C9.53037 7.92781 9.29631 7.8746 9.11922 7.98617L6.50581 9.63181L1.11658 6.56844L4.33124 4.54417L10.0791 7.81135V12.1385C10.0791 12.2765 10.1541 12.4036 10.2749 12.4703C10.332 12.5018 10.3951 12.5175 10.458 12.5175C10.5283 12.5175 10.5984 12.498 10.66 12.4592L12.6311 11.218C12.7413 11.1486 12.8082 11.0275 12.8082 10.8973V6.34962C12.8082 6.34739 12.8078 6.34527 12.8077 6.34303C12.8075 6.33045 12.8067 6.31787 12.8052 6.30525ZM10.837 11.4521V7.5909C10.837 7.45459 10.7638 7.32881 10.6453 7.26146L5.05886 4.08604L6.30237 3.30297L11.6916 6.3663L11.2197 6.66341C11.0426 6.7749 10.9894 7.00892 11.1009 7.18601C11.1729 7.30046 11.2961 7.3631 11.422 7.3631C11.491 7.3631 11.5609 7.34427 11.6235 7.30478L12.0502 7.03613V10.6881L10.837 11.4521Z" fill="#231F20"/>
<path d="M16.17 5.0625L13.3646 6.829C13.1875 6.94049 13.1343 7.1745 13.2458 7.3516C13.3178 7.46604 13.441 7.52869 13.5669 7.52869C13.6359 7.52869 13.7058 7.50985 13.7684 7.47036L16.5738 5.70387C16.7509 5.59238 16.8041 5.35836 16.6926 5.18127C16.5811 5.00414 16.3471 4.95093 16.17 5.0625Z" fill="#231F20"/>
<path d="M9.11928 9.50199L6.50586 11.1476L0.566299 7.7715C0.384469 7.66811 0.152994 7.73163 0.0495732 7.91369C-0.0538478 8.09563 0.00978128 8.32699 0.191763 8.43041L6.32858 11.9187C6.38671 11.9518 6.45129 11.9682 6.51583 11.9682C6.58605 11.9682 6.65616 11.9487 6.71774 11.9099L9.52311 10.1434C9.70024 10.0319 9.75341 9.79789 9.64188 9.6208C9.53042 9.44363 9.29637 9.39042 9.11928 9.50199Z" fill="#231F20"/>
<path d="M16.17 6.57838L13.3646 8.34487C13.1875 8.45637 13.1343 8.69038 13.2458 8.86747C13.3178 8.98192 13.441 9.04457 13.5669 9.04457C13.6359 9.04457 13.7058 9.02573 13.7684 8.98624L16.5738 7.21975C16.7509 7.10826 16.8041 6.87424 16.6926 6.69715C16.5811 6.51998 16.3471 6.46681 16.17 6.57838Z" fill="#231F20"/>
<path d="M9.11928 11.0179L6.50586 12.6635L0.566299 9.28737C0.384469 9.18398 0.152994 9.2475 0.0495732 9.42956C-0.0538478 9.6115 0.00978128 9.84286 0.191763 9.94628L6.32858 13.4346C6.38671 13.4676 6.45129 13.4841 6.51583 13.4841C6.58605 13.4841 6.65616 13.4646 6.71774 13.4258L9.52311 11.6593C9.70024 11.5478 9.75341 11.3138 9.64188 11.1367C9.53042 10.9595 9.29637 10.9063 9.11928 11.0179Z" fill="#231F20"/>
<path d="M16.17 8.09422L13.3646 9.86072C13.1875 9.97221 13.1343 10.2062 13.2458 10.3833C13.3178 10.4978 13.441 10.5604 13.5669 10.5604C13.6359 10.5604 13.7058 10.5416 13.7684 10.5021L16.5738 8.73559C16.7509 8.6241 16.8041 8.39009 16.6926 8.21299C16.5811 8.03586 16.3471 7.98269 16.17 8.09422Z" fill="#231F20"/>
<path d="M9.11928 12.5337L6.50586 14.1794L0.566299 10.8032C0.384469 10.6999 0.152994 10.7634 0.0495732 10.9454C-0.0538478 11.1274 0.00978128 11.3587 0.191763 11.4621L6.32858 14.9504C6.38671 14.9835 6.45129 15 6.51583 15C6.58605 15 6.65616 14.9804 6.71774 14.9417L9.52311 13.1751C9.70024 13.0636 9.75341 12.8296 9.64188 12.6525C9.53042 12.4754 9.29637 12.4222 9.11928 12.5337Z" fill="#231F20"/>
</svg>
