<svg width="58" height="58" viewBox="0 0 58 58" fill="none" xmlns="http://www.w3.org/2000/svg">
<g clip-path="url(#clip0_2558_2520)">
<path d="M52.9216 29.7859C50.1202 29.7893 47.8467 27.5214 47.8433 24.7211C47.841 23.0694 48.6441 21.5197 49.9944 20.5682V2.93143C49.9956 1.3149 51.3062 0.00537109 52.9227 0.00537109C54.5381 0.00650391 55.8476 1.31604 55.8487 2.93143V20.5682C58.1381 22.1813 58.6875 25.3453 57.0744 27.6347C56.1228 28.985 54.5732 29.7881 52.9216 29.7859Z" fill="#F4F4F4"/>
<path d="M54.984 7.89971V2.93119C54.9829 1.79158 54.0585 0.869474 52.9189 0.870607C51.7816 0.871739 50.8595 1.79385 50.8584 2.93119V7.89971L52.9212 8.91924L54.984 7.89971Z" fill="#E4E4E4"/>
<path d="M52.9214 27.8667C54.888 27.8667 56.9995 25.5002 56.9995 23.6753C56.7152 22.5572 55.9856 21.6034 54.9797 21.0381V7.89746H50.862V21.0381C49.855 21.6034 49.1243 22.5561 48.8389 23.6753C48.8389 25.6407 50.9549 27.8667 52.9214 27.8667Z" fill="#FF748F"/>
<path d="M52.9213 26.8472C50.9978 26.8449 49.319 25.5399 48.8432 23.6753C48.2746 25.9307 49.6407 28.2201 51.8961 28.7899C54.1515 29.3597 56.4409 27.9924 57.0107 25.737C57.0956 25.4006 57.1387 25.0551 57.1387 24.7084C57.1387 24.3606 57.0945 24.014 57.0084 23.6764C56.5315 25.5422 54.8482 26.8483 52.9213 26.8472Z" fill="#FD5F7E"/>
<path d="M52.3041 25.242C53.043 25.242 53.642 24.6436 53.642 23.9053C53.642 23.1671 53.043 22.5686 52.3041 22.5686C51.5653 22.5686 50.9663 23.1671 50.9663 23.9053C50.9663 24.6436 51.5653 25.242 52.3041 25.242Z" fill="#FFAEC1"/>
<path d="M52.416 16.9452H49.9941V18.6727H52.416C52.893 18.6897 53.294 18.317 53.311 17.8401C53.3279 17.3632 52.9553 16.9622 52.4783 16.9452C52.458 16.9441 52.4364 16.9441 52.416 16.9452Z" fill="#F4F4F4"/>
<path d="M52.416 11.9902H49.9941V13.7189H52.416C52.893 13.7189 53.2804 13.3315 53.2804 12.8546C53.2804 12.3765 52.893 11.9902 52.416 11.9902Z" fill="#F4F4F4"/>
<path d="M11.6595 21.6817L43.3708 23.1906C44.2918 21.454 47.4636 14.9675 46.1359 10.3321C44.5931 4.93649 39.3471 5.862 39.3471 5.862C38.8079 4.01211 36.9569 1.15969 31.1718 0.466411C25.3866 -0.22687 21.0118 3.25426 17.0119 2.70711C15.1609 2.45336 13.9205 1.10079 13.3077 0.24438C13.1174 -0.0195653 12.7503 -0.0784716 12.4875 0.110708C12.4286 0.152622 12.3777 0.205864 12.338 0.267036C10.7442 2.69805 6.37953 10.9223 11.6583 21.6772L11.6595 21.6817Z" fill="#827981"/>
<path d="M54.3997 55.8779C53.9862 54.8493 53.2522 53.499 51.9494 51.947C48.9645 48.3911 34.2779 43.8882 34.2779 43.8882H20.5689C20.5689 43.8882 5.89019 48.3911 2.90189 51.947C1.59918 53.5001 0.862863 54.8493 0.45166 55.8779L27.4257 56.8974L54.3997 55.8779Z" fill="#FF748F"/>
<path d="M0.452909 55.8777C0.264866 56.3353 0.117603 56.8077 0.0122534 57.2903C-0.0534485 57.6098 0.151587 57.9213 0.471033 57.987C0.509548 57.9949 0.550329 57.9994 0.589976 57.9994H54.2604C54.5856 58.0006 54.8495 57.7366 54.8506 57.4115C54.8506 57.3707 54.8461 57.33 54.8382 57.2903C54.734 56.8077 54.5878 56.3342 54.3998 55.8777H0.452909Z" fill="#FD5F7E"/>
<path d="M34.2746 40.5543L20.5679 40.5464V43.8893C20.5679 43.8893 21.9589 47.5143 27.4247 47.5143C32.8904 47.5143 34.2826 43.8893 34.2826 43.8893V40.5464L34.2746 40.5543Z" fill="#F4B184"/>
<path d="M34.2746 40.5542V38.4301L20.5679 38.4233V40.5451C22.5956 42.2964 25.0911 43.6128 27.4247 43.6128C29.7582 43.6128 32.2481 42.2998 34.2746 40.5542Z" fill="#EAA678"/>
<path d="M15.0656 19.7275C13.6927 19.7275 12.1747 20.1546 11.6548 21.6816C11.8394 22.0589 12.0343 22.4384 12.2438 22.8213L43.1237 23.6323C43.1237 23.6323 43.2143 23.476 43.3661 23.1905C43.5066 20.4186 41.5231 19.7275 39.7774 19.7275H15.0656Z" fill="#706970"/>
<path d="M39.782 21.8492C39.6789 21.8492 39.5759 21.8559 39.4739 21.8695V21.8548C39.5272 20.961 39.2609 20.0774 38.7217 19.3626C37.2049 17.3689 36.3304 15.2517 35.8444 13.7122C35.8388 13.7122 15.1438 15.9597 15.1234 15.9461C15.1688 17.4414 15.2481 19.5779 15.3761 21.8729C15.2741 21.8593 15.1722 21.8525 15.0691 21.8525C13.2283 21.8525 11.1224 22.6195 11.52 25.7834C11.9109 28.8805 13.8502 30.4166 15.691 30.4166C15.8371 30.4166 15.9832 30.3974 16.1248 30.3588V30.3724C16.2698 30.9875 16.4647 32.0195 16.6403 32.365C18.3394 35.734 23.1232 40.3922 27.4222 40.3922C31.7211 40.3922 36.5887 35.512 38.2879 32.143C38.4623 31.7964 38.5779 30.9841 38.724 30.369V30.3588C38.8656 30.3974 39.0117 30.4166 39.1579 30.4166C40.9986 30.4166 42.9391 28.8805 43.3288 25.7834C43.7253 22.6161 41.6228 21.8492 39.782 21.8492Z" fill="#FFC89F"/>
<path d="M35.8457 13.7066C35.6407 13.0609 35.5059 12.5161 35.4198 12.1275C35.3496 11.8103 35.0369 11.6098 34.7197 11.6789C34.6982 11.6834 34.6778 11.6891 34.6563 11.697C26.0947 14.6129 18.0405 14.1145 15.7285 13.889C15.4057 13.8573 15.1179 14.0941 15.0862 14.4169C15.0839 14.4407 15.0828 14.4645 15.0839 14.4894C15.093 14.8519 15.1055 15.3458 15.1247 15.9428C15.9437 16.0414 25.9848 17.1493 35.8457 13.7066Z" fill="#F7BC94"/>
<path d="M22.7393 5.86416C22.251 5.87209 21.8489 5.48353 21.841 4.99529C21.833 4.5399 22.1729 4.15361 22.626 4.10264C24.0952 3.8874 25.5384 3.51697 26.9306 3.00041C27.3871 2.82596 27.8969 3.05478 28.0713 3.51131C28.2458 3.96783 28.0169 4.4776 27.5604 4.65205C26.0368 5.22185 24.4577 5.62514 22.848 5.85736C22.8118 5.86189 22.7755 5.86416 22.7393 5.86416Z" fill="#AAA0A9"/>
<path d="M48.9827 55.8778H44.2635C43.7753 55.8948 43.3652 55.5142 43.3482 55.0248C43.3312 54.5366 43.7118 54.1265 44.2012 54.1095C44.2227 54.1084 44.2431 54.1084 44.2646 54.1095H48.9838C49.4721 54.0925 49.8821 54.4731 49.8991 54.9625C49.9161 55.4507 49.5355 55.8608 49.0461 55.8778C49.0246 55.8778 49.0031 55.8778 48.9827 55.8778Z" fill="#FFBBCD"/>
<path d="M40.9048 55.8778H38.5452C38.057 55.8948 37.6469 55.5142 37.6299 55.0248C37.613 54.5366 37.9936 54.1265 38.4829 54.1095C38.5045 54.1084 38.5248 54.1084 38.5464 54.1095H40.906C41.3942 54.0925 41.8043 54.4731 41.8213 54.9625C41.8383 55.4507 41.4576 55.8608 40.9683 55.8778C40.9468 55.8778 40.9252 55.8778 40.9048 55.8778Z" fill="#FFBBCD"/>
<path d="M24.2856 33.993C24.7375 34.1743 25.2518 33.9545 25.4331 33.5025C25.4331 33.5025 25.4331 33.5025 25.4331 33.5014C25.9711 32.4026 27.2976 31.9472 28.3976 32.4853C28.8405 32.7016 29.1973 33.0596 29.4137 33.5014C29.604 33.9523 30.124 34.163 30.5748 33.9727C31.0143 33.7869 31.2273 33.2873 31.0574 32.841C31.0189 32.7458 30.0945 30.4893 27.4234 30.4893C24.7523 30.4893 23.8279 32.7436 23.7883 32.8387C23.607 33.2941 23.829 33.8107 24.2856 33.993Z" fill="#FF748F"/>
<path d="M23.8856 23.2358C24.0657 22.7804 23.8437 22.2661 23.3894 22.086C22.9352 21.9059 22.4198 22.1279 22.2397 22.5822C22.2397 22.5924 21.7786 23.5371 19.9129 23.4431C19.4247 23.4171 19.0078 23.792 18.9817 24.2814C18.9557 24.7696 19.3306 25.1865 19.82 25.2126C19.8211 25.2126 19.8223 25.2126 19.8245 25.2126C19.9378 25.2194 20.0511 25.2216 20.1644 25.2216C22.4685 25.2216 23.5854 23.9937 23.8856 23.2358Z" fill="#706970"/>
<path d="M11.5621 32.8807C11.1781 32.576 10.6207 32.6406 10.316 33.0246C10.2662 33.0892 9.06201 34.6388 9.06201 37.0551C9.06201 38.3261 9.48907 39.2585 9.86629 40.0809C10.2265 40.8682 10.5664 41.6113 10.5664 42.6739C10.5833 43.1633 10.9946 43.5461 11.4839 43.5292C11.9484 43.5122 12.3222 43.1395 12.3392 42.6739C12.3392 41.225 11.8861 40.2247 11.4771 39.3434C11.1373 38.5901 10.8348 37.9399 10.8348 37.0551C10.8246 36.0107 11.1316 34.9889 11.7127 34.1211C12.0118 33.736 11.945 33.182 11.5621 32.8807Z" fill="#FCCB88"/>
<path d="M4.32369 45.4864C4.32369 45.9758 4.72016 46.3723 5.20953 46.3723C5.69889 46.3723 6.09537 45.9758 6.09537 45.4864C6.09537 44.0364 5.64226 43.0373 5.23445 42.1559C4.88895 41.4015 4.59103 40.7513 4.59103 39.8665C4.58989 39.1834 4.71903 38.506 4.97051 37.8716C5.14609 37.4151 4.91954 36.902 4.46302 36.7264C4.01217 36.5531 3.50581 36.7717 3.32343 37.2191C2.98926 38.062 2.81821 38.9603 2.81934 39.8665C2.81934 41.1375 3.2464 42.0698 3.62249 42.8934C3.98272 43.6796 4.32369 44.4227 4.32369 45.4864Z" fill="#FCCB88"/>
<path d="M42.5122 42.6738C42.5122 43.1631 42.9087 43.5596 43.398 43.5596C43.8874 43.5596 44.2839 43.1631 44.2839 42.6738C44.2839 41.6112 44.6237 40.868 44.984 40.0807C45.3612 39.2583 45.7882 38.326 45.7882 37.055C45.7882 34.6387 44.5807 33.0902 44.5297 33.0245C44.2273 32.6404 43.6699 32.5736 43.2848 32.8761C42.9008 33.1785 42.8339 33.7359 43.1375 34.121C43.7198 34.9876 44.0256 36.0105 44.0166 37.055C44.0166 37.9397 43.7186 38.59 43.3731 39.3433C42.9699 40.2246 42.5122 41.2249 42.5122 42.6738Z" fill="#FCCB88"/>
<path d="M48.752 45.4865C48.752 45.9759 49.1484 46.3724 49.6378 46.3724C50.1272 46.3724 50.5236 45.9759 50.5236 45.4865C50.5236 44.4228 50.8635 43.674 51.2248 42.8935C51.6009 42.07 52.028 41.1377 52.028 39.8666C52.0291 38.9604 51.8592 38.0621 51.525 37.2193C51.3449 36.7639 50.8295 36.5407 50.3752 36.722C49.921 36.9032 49.6967 37.4175 49.8779 37.8718C50.1306 38.5061 50.2586 39.1836 50.2574 39.8666C50.2574 40.7514 49.9595 41.4016 49.6151 42.1561C49.2096 43.0374 48.752 44.0365 48.752 45.4865Z" fill="#FCCB88"/>
<path d="M34.6845 25.2215C34.7977 25.2215 34.911 25.2215 35.0243 25.2125C35.5137 25.1921 35.8932 24.7797 35.8728 24.2903C35.8524 23.801 35.44 23.4215 34.9507 23.4419C34.9461 23.4419 34.9405 23.4419 34.9359 23.443C33.0702 23.537 32.6115 22.5923 32.6081 22.5821C32.4279 22.1267 31.9125 21.9046 31.4583 22.0848C31.0029 22.2649 30.7809 22.7803 30.961 23.2357C31.2646 23.9936 32.3781 25.2215 34.6845 25.2215Z" fill="#706970"/>
<path d="M38.245 31.8314C36.5458 35.2004 31.7247 39.3703 27.4257 39.3703C23.1268 39.3703 18.3022 35.2004 16.6076 31.8314C16.3946 31.3636 16.2338 30.8731 16.1284 30.3701C16.355 31.9764 16.6359 33.2656 16.9701 33.9532C18.6081 37.3222 23.2718 41.4921 27.4257 41.4921C31.5797 41.4921 36.2434 37.3222 37.8814 33.9532C38.2156 33.2656 38.4931 31.9764 38.7242 30.3701C38.6177 30.8731 38.4568 31.3625 38.245 31.8314Z" fill="#F7BC94"/>
<path d="M20.8429 18.1359H32.761C33.7159 18.1359 34.4908 16.3438 34.4908 15.3888V12.7267C34.4908 11.7718 33.7171 10.998 32.7621 10.998H20.8429C19.888 10.998 19.1143 11.7718 19.1143 12.7267V15.3888C19.1097 16.3438 19.8834 18.1359 20.8429 18.1359Z" fill="#A4E6FF"/>
<path d="M32.7611 17.1162H20.8431C19.8881 17.1173 19.1144 16.3436 19.1133 15.3887V17.4617C19.1144 18.4167 19.8881 19.1904 20.8431 19.1904H32.7611C33.7161 19.1904 34.4898 18.4167 34.4909 17.4617V15.3887C34.4898 16.3436 33.7161 17.1162 32.7611 17.1162Z" fill="#81DDFD"/>
<path d="M22.0118 13.071H31.5862C31.9487 13.071 32.2421 13.3644 32.2421 13.7269V16.4604C32.2421 16.8229 31.9487 17.1163 31.5862 17.1163H22.0118C21.6494 17.1163 21.356 16.8229 21.356 16.4604V13.7269C21.356 13.3644 21.6494 13.071 22.0118 13.071Z" fill="#D7F7FF"/>
</g>
<defs>
<clipPath id="clip0_2558_2520">
<rect width="58" height="58" fill="white"/>
</clipPath>
</defs>
</svg>
