<svg width="24" height="20" viewBox="0 0 24 20" fill="none" xmlns="http://www.w3.org/2000/svg">
<path d="M0.00121966 8.17203C0.00121966 6.19642 -0.00152457 4.22224 0.00121966 2.24663C0.00670812 0.749562 0.615927 0.0553132 2.07449 0.0224578C3.90214 -0.0189686 5.73117 0.00960132 7.5602 0.00960132C9.47979 0.00960132 11.3994 -0.000398155 13.3203 0.0138868C14.982 0.0267433 15.5884 0.673852 15.6008 2.39519C15.6104 3.80369 15.6104 3.83083 16.9715 3.79512C17.6892 3.77654 18.2435 4.01082 18.7388 4.54508C19.8365 5.72358 20.9507 6.88638 22.084 8.02775C22.5986 8.54486 22.8291 9.14055 22.8195 9.87337C22.8058 10.9919 22.8291 12.1104 22.8113 13.2289C22.8044 13.6375 22.8936 13.8546 23.3409 13.816C23.8129 13.776 23.9844 14.0889 23.9927 14.5331C24.0283 16.4602 23.994 16.3059 22.4518 16.2445C21.8343 16.2202 21.612 16.3844 21.5023 17.0501C21.199 18.88 19.6979 20.0414 17.8456 19.9985C16.1249 19.9585 14.7158 18.68 14.4674 16.8701C14.4016 16.3916 14.2479 16.2373 13.7855 16.2487C12.5753 16.2802 11.3623 16.2745 10.1521 16.2516C9.75559 16.2445 9.6074 16.3673 9.54428 16.793C9.25202 18.7558 7.87167 19.9928 6.02343 20C4.17108 20.0071 2.75231 18.78 2.44907 16.8487C2.38184 16.4216 2.28168 16.2487 1.83162 16.2459C0.691394 16.2373 0.0382668 15.5145 0.00670812 14.3117C0.00670812 14.2646 0.00670812 14.216 0.00670812 14.1689C0.00670812 12.1704 0.00670812 10.1719 0.00670812 8.17203H0.00121966ZM18.3738 10.0076C19.0585 10.0076 19.7418 10.0148 20.4265 10.0034C20.6173 10.0005 20.8683 10.0962 20.9767 9.84765C21.0975 9.57052 20.8629 9.41482 20.7078 9.25197C19.8077 8.30916 18.8472 7.41921 18.0185 6.41355C17.449 5.72216 16.8041 5.60502 16.0248 5.65502C15.6955 5.67644 15.5926 5.80501 15.5953 6.12928C15.6049 7.24493 15.6118 8.36202 15.5926 9.47767C15.5857 9.88765 15.7421 10.0205 16.1167 10.0119C16.8686 9.99479 17.6219 10.0076 18.3752 10.0076H18.3738ZM5.96992 14.4017C4.99023 14.4131 4.19578 15.2459 4.19166 16.2673C4.18617 17.3315 4.98611 18.1544 6.0152 18.1429C7.05252 18.1315 7.80581 17.3115 7.78248 16.2202C7.75916 15.1945 6.95922 14.3903 5.96992 14.4017ZM18.0226 18.1415C19.0229 18.1315 19.7954 17.3301 19.8022 16.2916C19.8104 15.2459 18.9817 14.3874 17.9787 14.4017C16.9633 14.4146 16.1867 15.2659 16.2114 16.3359C16.2347 17.3815 17.0072 18.1515 18.0226 18.1415Z" fill="#212121"/>
</svg>
