<svg width="15" height="20" viewBox="0 0 15 20" fill="none" xmlns="http://www.w3.org/2000/svg">
<path d="M0.00155069 11.2486C0.00155069 9.03098 -0.00275678 6.81333 0.00298651 4.59424C0.00729399 3.13967 0.702233 2.45962 2.16103 2.45676C2.92633 2.45533 3.69162 2.44244 4.45691 2.46249C4.82305 2.47251 4.99248 2.38088 5.07863 1.98002C5.34856 0.723011 6.28185 -0.00427609 7.51809 1.89166e-05C8.71126 0.00431392 9.66465 0.743055 9.91161 1.94709C10.0006 2.38231 10.183 2.47537 10.5778 2.46392C11.3905 2.44101 12.2046 2.45103 13.0173 2.45819C14.2105 2.46965 14.9844 3.17975 14.9887 4.34656C15.0045 8.92504 15.003 13.5049 14.9887 18.0834C14.9858 19.1643 14.3684 19.8071 13.2887 19.9217C11.9534 20.062 10.6123 19.9689 9.27411 19.9789C6.95381 19.9947 4.63352 20.0004 2.31466 19.9761C0.60029 19.9589 0.00298651 19.3247 0.00155069 17.6167C0.00155069 15.4935 0.00155069 13.3718 0.00155069 11.2486ZM9.42774 7.4404C8.54471 7.4404 7.66167 7.45614 6.77864 7.43467C6.32349 7.42322 6.20288 7.63653 6.20862 8.0417C6.21436 8.43254 6.2359 8.75896 6.75998 8.7561C8.50163 8.74751 10.2447 8.74608 11.9864 8.7561C12.5004 8.75896 12.542 8.46117 12.555 8.05888C12.5693 7.59931 12.4056 7.41749 11.9333 7.43181C11.099 7.45901 10.2634 7.43896 9.42774 7.43896V7.4404ZM9.31431 12.4784C10.1973 12.4784 11.0818 12.457 11.9634 12.487C12.4688 12.5042 12.5578 12.2565 12.555 11.8313C12.5535 11.4047 12.4501 11.157 11.9577 11.1613C10.239 11.1756 8.5203 11.1756 6.80305 11.1613C6.30769 11.157 6.21149 11.4133 6.20718 11.8356C6.20431 12.268 6.31344 12.5028 6.80879 12.487C7.64301 12.4598 8.47866 12.4799 9.31431 12.4799V12.4784ZM9.37031 16.2108C10.2519 16.2108 11.1335 16.1936 12.0151 16.2179C12.4932 16.2308 12.5521 15.9803 12.555 15.5937C12.5578 15.1972 12.4688 14.9652 12.0065 14.9681C10.2677 14.981 8.52748 14.9824 6.78869 14.9681C6.29046 14.9638 6.20575 15.2158 6.20431 15.6381C6.20431 16.0705 6.36656 16.228 6.79731 16.2179C7.6545 16.1965 8.51312 16.2122 9.37031 16.2108ZM8.46286 2.44244C8.46286 1.93134 8.02494 1.4818 7.51666 1.47034C6.9854 1.45889 6.51445 1.94279 6.53455 2.47824C6.55322 2.98791 7.01412 3.426 7.51666 3.41455C8.02494 3.40309 8.46286 2.95355 8.46286 2.44244ZM4.68234 8.0961C4.68952 7.55779 4.29897 7.15693 3.75623 7.1469C3.21349 7.13545 2.78561 7.51914 2.76121 8.0374C2.73536 8.56855 3.19626 9.04386 3.73326 9.041C4.2559 9.03957 4.67516 8.62152 4.68234 8.09753V8.0961ZM4.68234 11.8499C4.68952 11.3216 4.28605 10.8964 3.76198 10.8793C3.22641 10.8621 2.75259 11.3231 2.76121 11.8557C2.76982 12.3796 3.18477 12.7719 3.73039 12.7734C4.27744 12.7734 4.67516 12.3897 4.68234 11.8514V11.8499ZM4.68234 15.5866C4.6766 15.0554 4.24441 14.6231 3.72177 14.6288C3.21062 14.6345 2.75833 15.0898 2.75833 15.598C2.75833 16.1235 3.18764 16.5343 3.73182 16.5329C4.28605 16.5315 4.68808 16.132 4.6809 15.5866H4.68234Z" fill="#212121"/>
</svg>
