<svg width="17" height="17" viewBox="0 0 17 17" fill="none" xmlns="http://www.w3.org/2000/svg">
<g clip-path="url(#clip0_2601_2873)">
<path d="M9.86501 11.7583H6.81201L6.95078 8.92505H9.72623L9.86501 11.7583Z" fill="url(#paint0_linear_2601_2873)"/>
<path d="M9.72693 8.92505H6.95148L6.91748 9.61672L9.01537 11.7583H9.86535L9.72693 8.92505Z" fill="url(#paint1_linear_2601_2873)"/>
<path d="M10.266 11.3333H6.41126C3.80789 11.3333 1.67773 13.5007 1.67773 16.1498V16.9998H14.9999V16.1498C14.9999 13.5007 12.8697 11.3333 10.266 11.3333Z" fill="url(#paint2_linear_2601_2873)"/>
<path d="M1.67773 16.1499V16.9999H7.50618L5.48253 11.4275C3.31976 11.8698 1.67773 13.8237 1.67773 16.1499Z" fill="url(#paint3_linear_2601_2873)"/>
<path d="M5.48208 11.4275C5.16291 11.4927 4.85587 11.5918 4.56306 11.719L4.31396 14.4495L5.42414 15.4412L4.45274 16.1495L5.32319 16.9995H7.50573L5.48208 11.4275Z" fill="url(#paint4_linear_2601_2873)"/>
<path d="M14.9998 16.1499V16.9999H9.17139L11.195 11.4275C13.3575 11.8698 14.9998 13.8237 14.9998 16.1499Z" fill="url(#paint5_linear_2601_2873)"/>
<path d="M11.195 11.4275C11.5142 11.4927 11.8212 11.5918 12.1141 11.719L12.3777 14.4495L11.253 15.4412L12.2244 16.1495L11.3539 16.9995H9.17139L11.195 11.4275Z" fill="url(#paint6_linear_2601_2873)"/>
<path d="M8.00244 11.8999L8.67618 11.9063L8.33931 11.3333L8.00244 11.8999Z" fill="url(#paint7_linear_2601_2873)"/>
<path d="M8.75569 13.1748H7.92305L7.64551 16.9997H9.03323L8.75569 13.1748Z" fill="url(#paint8_linear_2601_2873)"/>
<path d="M8.61653 11.7583H8.06144C8.06144 11.7583 7.50462 12.6047 7.50635 12.6083L7.92267 13.1749H8.7553L9.17162 12.6083C9.1685 12.5973 8.61653 11.7583 8.61653 11.7583Z" fill="url(#paint9_linear_2601_2873)"/>
<path d="M6.81292 10.3416L8.33941 11.3332L6.95169 13.4582L5.56396 11.3332L6.81292 10.3416Z" fill="url(#paint10_linear_2601_2873)"/>
<path d="M9.86536 10.3416L8.33887 11.3332L9.72659 13.4582L11.1143 11.3332L9.86536 10.3416Z" fill="url(#paint11_linear_2601_2873)"/>
<path d="M3.62072 16.4333C3.62072 16.1985 3.43442 16.0083 3.2044 16.0083C2.97439 16.0083 2.78809 16.1985 2.78809 16.4333C2.78809 16.6681 2.97439 16.8583 3.2044 16.8583C3.43442 16.8583 3.62072 16.6677 3.62072 16.4333Z" fill="#4D4D4D"/>
<path d="M5.00842 16.4333C5.00842 16.1985 4.82211 16.0083 4.5921 16.0083C4.36208 16.0083 4.17578 16.1985 4.17578 16.4333C4.17578 16.6681 4.36208 16.8583 4.5921 16.8583C4.82211 16.8583 5.00842 16.6677 5.00842 16.4333Z" fill="#4D4D4D"/>
<path d="M2.51025 16.1501H3.06534V16.7168H2.51025V16.1501Z" fill="#4D4D4D"/>
<path d="M4.73047 16.1501H5.28556V16.7168H4.73047V16.1501Z" fill="#4D4D4D"/>
<path d="M12.0854 13.3164H12.363V13.8831H12.0854V13.3164Z" fill="#BCBEC0"/>
<path d="M12.2242 15.4417C12.6841 15.4417 13.0569 15.0611 13.0569 14.5917C13.0569 14.1223 12.6841 13.7417 12.2242 13.7417C11.7644 13.7417 11.3916 14.1223 11.3916 14.5917C11.3916 15.0611 11.7644 15.4417 12.2242 15.4417Z" fill="#4D4D4D"/>
<path d="M12.2244 15.0167C11.9948 15.0167 11.8081 14.8262 11.8081 14.5917C11.8081 14.3573 11.9948 14.1667 12.2244 14.1667C12.4541 14.1667 12.6407 14.3573 12.6407 14.5917C12.6407 14.8262 12.4537 15.0167 12.2244 15.0167ZM12.2244 14.4501C12.1481 14.4501 12.0857 14.5138 12.0857 14.5917C12.0857 14.6697 12.1481 14.7334 12.2244 14.7334C12.3007 14.7334 12.3632 14.6697 12.3632 14.5917C12.3632 14.5138 12.3007 14.4501 12.2244 14.4501Z" fill="#BCBEC0"/>
<path d="M12.3633 13.3165H12.0858V11.0498C12.0858 10.2554 11.4151 9.63318 10.5589 9.63318H5.28592C4.42136 9.63318 4.07374 10.3691 4.03696 11.0576L3.75977 11.042C3.81458 10.0139 4.41373 9.34985 5.28592 9.34985H10.5589C11.5709 9.34985 12.3633 10.0964 12.3633 11.0498V13.3165Z" fill="#4D4D4D"/>
<path d="M5.81774 16.575H5.28555V16.2917H5.81774C5.91905 16.2917 5.99572 16.258 6.04637 16.1918C6.12096 16.094 6.139 15.929 6.09459 15.7505L5.25571 12.5255C5.15823 12.1104 5.09647 11.9907 5.06213 11.9628C5.05692 11.9599 5.05484 11.9585 5.05033 11.955L4.09801 11.2431C3.97242 11.1748 3.82428 11.1748 3.69869 11.2431L2.74636 11.955C2.74151 11.9585 2.73665 11.9617 2.73179 11.9645C2.69987 11.9904 2.63812 12.1104 2.54063 12.5255L2.52433 12.5932L1.70106 15.7523C1.65735 15.9294 1.67539 16.0944 1.74963 16.1921C1.80028 16.2584 1.87695 16.292 1.97826 16.292H2.51045V16.5753H1.97826C1.78987 16.5753 1.63514 16.5031 1.53072 16.3664C1.40235 16.1978 1.36627 15.9481 1.43219 15.6814L2.27037 12.4596C2.36404 12.0609 2.44661 11.8108 2.58747 11.7226L3.54188 11.0094C3.54639 11.0058 3.55124 11.0026 3.55645 10.9998C3.7705 10.8783 4.02584 10.8783 4.2399 10.9998C4.24476 11.0026 4.24961 11.0058 4.25447 11.0094L5.20888 11.7226C5.34973 11.8108 5.4323 12.0609 5.52597 12.4596L5.54124 12.5238L6.36347 15.6797C6.43008 15.9481 6.394 16.1978 6.26563 16.366C6.16086 16.5027 6.00613 16.575 5.81774 16.575Z" fill="#BCBEC0"/>
<path d="M5.3841 13.0249L5.25538 12.5251C5.1579 12.1101 5.09614 11.9904 5.0618 11.9624C5.05659 11.9595 5.05451 11.9581 5.05 11.9546L4.09768 11.2427C3.97209 11.1744 3.82395 11.1744 3.69836 11.2427L2.74603 11.9546C2.74118 11.9581 2.73632 11.9613 2.73146 11.9642C2.69954 11.99 2.63779 12.1101 2.5403 12.5251L2.524 12.5928L2.41124 13.0249L2.14307 12.9519L2.27004 12.4589C2.36371 12.0601 2.44628 11.8101 2.58714 11.7219L3.54155 11.0086C3.54606 11.0051 3.55091 11.0019 3.55612 10.9991C3.77017 10.8776 4.02551 10.8776 4.23957 10.9991C4.24443 11.0019 4.24928 11.0051 4.25414 11.0086L5.20855 11.7219C5.3494 11.8101 5.43197 12.0601 5.52564 12.4589L5.54091 12.523L5.65262 12.9519L5.3841 13.0249Z" fill="#4D4D4D"/>
<path d="M5.22277 5.44606C5.39797 6.05982 5.19501 6.65622 4.77002 6.77805C4.34503 6.89989 3.85829 6.5011 3.68343 5.88699C3.50858 5.27287 3.71119 4.67682 4.13618 4.55499C4.56117 4.43351 5.04791 4.8323 5.22277 5.44606Z" fill="url(#paint12_linear_2601_2873)"/>
<path d="M11.4546 5.44606C11.2794 6.05982 11.4823 6.65622 11.9073 6.77805C12.3323 6.89989 12.8191 6.5011 12.9939 5.88699C13.1688 5.27287 12.9662 4.67682 12.5412 4.55499C12.1162 4.43351 11.6298 4.8323 11.4546 5.44606Z" fill="url(#paint13_linear_2601_2873)"/>
<path d="M5.19137 5.53974C5.27602 5.84468 5.13829 6.14855 4.88365 6.21867C4.629 6.28879 4.35423 6.09826 4.26958 5.79332C4.18493 5.48839 4.32266 5.18452 4.57731 5.1144C4.83195 5.04427 5.10672 5.23446 5.19137 5.53974Z" fill="url(#paint14_linear_2601_2873)"/>
<path d="M11.4854 5.53974C11.4007 5.84468 11.5385 6.14855 11.7931 6.21867C12.0478 6.28879 12.3225 6.09826 12.4072 5.79332C12.4918 5.48839 12.3541 5.18452 12.0995 5.1144C11.8448 5.04427 11.57 5.23446 11.4854 5.53974Z" fill="url(#paint15_linear_2601_2873)"/>
<path d="M8.33904 9.91661C6.35459 9.91661 4.73096 8.25914 4.73096 6.23334V3.96672C4.73096 1.94092 6.35459 0.283447 8.33904 0.283447C10.3235 0.283447 11.9471 1.94092 11.9471 3.96672V6.23334C11.9471 8.25914 10.3235 9.91661 8.33904 9.91661Z" fill="url(#paint16_linear_2601_2873)"/>
<path d="M6.98731 5.66664H6.91411C6.78158 5.66664 6.67334 5.55614 6.67334 5.42049V5.06244C6.67334 4.92715 6.78158 4.81665 6.91446 4.81665H6.98766C7.12019 4.81665 7.22843 4.92715 7.22843 5.06279V5.42085C7.22843 5.55578 7.11984 5.66664 6.98731 5.66664Z" fill="#51251F"/>
<path d="M9.76319 5.66664H9.68999C9.55746 5.66664 9.44922 5.55614 9.44922 5.42049V5.06244C9.44922 4.92715 9.55746 4.81665 9.69034 4.81665H9.76354C9.89607 4.81665 10.0043 4.92715 10.0043 5.06279V5.42085C10.0043 5.55578 9.89572 5.66664 9.76319 5.66664Z" fill="#51251F"/>
<path d="M8.36054 7.36684H8.31682C8.09999 7.36684 7.92236 7.18551 7.92236 6.96416V5.78623C7.92236 5.56488 8.09999 5.38354 8.31682 5.38354H8.36054C8.57737 5.38354 8.755 5.56488 8.755 5.78623V6.96416C8.755 7.18551 8.57737 7.36684 8.36054 7.36684Z" fill="url(#paint17_linear_2601_2873)"/>
<path d="M7.36691 4.39173H6.53428C6.45761 4.39173 6.39551 4.32833 6.39551 4.25006C6.39551 4.17179 6.45761 4.1084 6.53428 4.1084H7.36691C7.44359 4.1084 7.50569 4.17179 7.50569 4.25006C7.50569 4.32833 7.44324 4.39173 7.36691 4.39173Z" fill="#7A5954"/>
<path d="M10.1428 4.39173H9.31016C9.23349 4.39173 9.17139 4.32833 9.17139 4.25006C9.17139 4.17179 9.23349 4.1084 9.31016 4.1084H10.1428C10.2195 4.1084 10.2816 4.17179 10.2816 4.25006C10.2816 4.32833 10.2191 4.39173 10.1428 4.39173Z" fill="#7A5954"/>
<path d="M8.32865 8.31409C7.83636 8.31409 7.40235 8.19155 7.19662 7.99428C7.14076 7.9408 7.13798 7.8512 7.19037 7.79383C7.24276 7.73681 7.33088 7.73433 7.38673 7.78745C7.51302 7.90857 7.85336 8.0304 8.329 8.0304C8.69987 8.0304 9.05304 7.94859 9.22894 7.8218C9.29139 7.77683 9.37812 7.79206 9.42253 7.8558C9.46659 7.91955 9.45167 8.00809 9.38922 8.05343C9.16233 8.21669 8.76613 8.31409 8.32865 8.31409Z" fill="#F09890"/>
<path d="M4.86973 1.98364C4.7764 2.26626 4.73096 2.59315 4.73096 2.94873V4.5336L6.11868 2.83363L4.86973 1.98364Z" fill="url(#paint18_linear_2601_2873)"/>
<path d="M8.6165 0.000208807C8.18943 -0.00616608 6.80552 0.135498 6.67369 0.141873C4.62818 0.240684 4.17578 0.000208807 4.17578 0.000208807C4.37527 1.99484 5.44902 2.64473 5.84105 2.83349C6.32675 3.06724 6.9495 3.11682 7.36755 3.11682C8.50999 3.11682 10.4205 2.69183 10.4205 2.69183L11.947 4.53346V3.11682C11.947 2.67235 11.9099 0.0497913 8.6165 0.000208807Z" fill="url(#paint19_linear_2601_2873)"/>
</g>
<defs>
<linearGradient id="paint0_linear_2601_2873" x1="6.91595" y1="8.96031" x2="9.81945" y2="11.8045" gradientUnits="userSpaceOnUse">
<stop stop-color="#F9DDD1"/>
<stop offset="0.5137" stop-color="#F8DBCE"/>
<stop offset="0.8222" stop-color="#F6D3C6"/>
<stop offset="1" stop-color="#F4CABD"/>
</linearGradient>
<linearGradient id="paint1_linear_2601_2873" x1="7.46079" y1="8.45174" x2="10.3521" y2="11.1964" gradientUnits="userSpaceOnUse">
<stop stop-color="#EEAE9A"/>
<stop offset="0.3161" stop-color="#EFB4A0"/>
<stop offset="0.7381" stop-color="#F4C3B1"/>
<stop offset="1" stop-color="#F7D0BF"/>
</linearGradient>
<linearGradient id="paint2_linear_2601_2873" x1="8.33867" y1="16.9997" x2="8.33867" y2="11.3331" gradientUnits="userSpaceOnUse">
<stop stop-color="#D0E3FF"/>
<stop offset="1" stop-color="#BFE6FF"/>
</linearGradient>
<linearGradient id="paint3_linear_2601_2873" x1="4.59182" y1="16.9997" x2="4.59182" y2="11.4275" gradientUnits="userSpaceOnUse">
<stop stop-color="#D0E3FF"/>
<stop offset="1" stop-color="#BFE6FF"/>
</linearGradient>
<linearGradient id="paint4_linear_2601_2873" x1="5.91006" y1="11.4275" x2="5.91006" y2="16.9997" gradientUnits="userSpaceOnUse">
<stop stop-color="#F1F7FF"/>
<stop offset="1" stop-color="#E7F4FF"/>
</linearGradient>
<linearGradient id="paint5_linear_2601_2873" x1="12.0855" y1="16.9997" x2="12.0855" y2="11.4275" gradientUnits="userSpaceOnUse">
<stop stop-color="#D0E3FF"/>
<stop offset="1" stop-color="#BFE6FF"/>
</linearGradient>
<linearGradient id="paint6_linear_2601_2873" x1="10.7744" y1="11.4275" x2="10.7744" y2="16.9997" gradientUnits="userSpaceOnUse">
<stop stop-color="#F1F7FF"/>
<stop offset="1" stop-color="#E7F4FF"/>
</linearGradient>
<linearGradient id="paint7_linear_2601_2873" x1="8.33919" y1="11.3331" x2="8.33919" y2="11.9061" gradientUnits="userSpaceOnUse">
<stop stop-color="#D0E3FF"/>
<stop offset="1" stop-color="#BFE6FF"/>
</linearGradient>
<linearGradient id="paint8_linear_2601_2873" x1="8.33923" y1="13.2051" x2="8.33923" y2="17.851" gradientUnits="userSpaceOnUse">
<stop stop-color="#198DC4"/>
<stop offset="1" stop-color="#12639B"/>
</linearGradient>
<linearGradient id="paint9_linear_2601_2873" x1="8.33885" y1="13.0918" x2="8.33885" y2="11.8048" gradientUnits="userSpaceOnUse">
<stop stop-color="#198DC4"/>
<stop offset="1" stop-color="#198DC4"/>
</linearGradient>
<linearGradient id="paint10_linear_2601_2873" x1="6.95155" y1="10.1622" x2="6.95155" y2="13.9129" gradientUnits="userSpaceOnUse">
<stop stop-color="#F1F7FF"/>
<stop offset="1" stop-color="#E7F4FF"/>
</linearGradient>
<linearGradient id="paint11_linear_2601_2873" x1="9.72645" y1="9.43078" x2="9.72645" y2="13.4482" gradientUnits="userSpaceOnUse">
<stop stop-color="#F1F7FF"/>
<stop offset="1" stop-color="#E7F4FF"/>
</linearGradient>
<linearGradient id="paint12_linear_2601_2873" x1="3.62042" y1="5.6665" x2="5.28574" y2="5.6665" gradientUnits="userSpaceOnUse">
<stop stop-color="#F9DDD1"/>
<stop offset="0.5137" stop-color="#F8DBCE"/>
<stop offset="0.8222" stop-color="#F6D3C6"/>
<stop offset="1" stop-color="#F4CABD"/>
</linearGradient>
<linearGradient id="paint13_linear_2601_2873" x1="13.057" y1="5.6665" x2="11.3917" y2="5.6665" gradientUnits="userSpaceOnUse">
<stop stop-color="#F9DDD1"/>
<stop offset="0.5137" stop-color="#F8DBCE"/>
<stop offset="0.8222" stop-color="#F6D3C6"/>
<stop offset="1" stop-color="#F4CABD"/>
</linearGradient>
<linearGradient id="paint14_linear_2601_2873" x1="4.25576" y1="5.8002" x2="5.17854" y2="5.55077" gradientUnits="userSpaceOnUse">
<stop stop-color="#F7D0BF"/>
<stop offset="1" stop-color="#F1BEAE"/>
</linearGradient>
<linearGradient id="paint15_linear_2601_2873" x1="12.4036" y1="5.79527" x2="11.4808" y2="5.54584" gradientUnits="userSpaceOnUse">
<stop stop-color="#F7D0BF"/>
<stop offset="1" stop-color="#F1BEAE"/>
</linearGradient>
<linearGradient id="paint16_linear_2601_2873" x1="5.2356" y1="1.93191" x2="11.5702" y2="8.13719" gradientUnits="userSpaceOnUse">
<stop stop-color="#F9DDD1"/>
<stop offset="0.5137" stop-color="#F8DBCE"/>
<stop offset="0.8222" stop-color="#F6D3C6"/>
<stop offset="1" stop-color="#F4CABD"/>
</linearGradient>
<linearGradient id="paint17_linear_2601_2873" x1="8.33854" y1="5.38339" x2="8.33854" y2="7.36669" gradientUnits="userSpaceOnUse">
<stop stop-color="#F7D0BF"/>
<stop offset="1" stop-color="#EEAE9A"/>
</linearGradient>
<linearGradient id="paint18_linear_2601_2873" x1="4.10996" y1="3.5207" x2="5.62015" y2="2.97016" gradientUnits="userSpaceOnUse">
<stop stop-color="#AC766A"/>
<stop offset="1" stop-color="#93634D"/>
</linearGradient>
<linearGradient id="paint19_linear_2601_2873" x1="4.44418" y1="-0.381162" x2="12.2472" y2="3.66749" gradientUnits="userSpaceOnUse">
<stop stop-color="#AC766A"/>
<stop offset="1" stop-color="#93634D"/>
</linearGradient>
<clipPath id="clip0_2601_2873">
<rect width="17" height="17" fill="white"/>
</clipPath>
</defs>
</svg>
