<svg width="19" height="19" viewBox="0 0 19 19" fill="none" xmlns="http://www.w3.org/2000/svg">
<path d="M16.5499 3.87171C15.5164 3.86754 14.4824 3.87119 13.449 3.86806C13.3671 3.86806 13.2572 3.90715 13.2118 3.81438C13.1722 3.73412 13.265 3.67732 13.3077 3.61582C14.004 2.61311 13.8482 1.3566 12.9288 0.563394C12.0491 -0.194892 10.7197 -0.160495 9.86079 0.638962C9.49858 0.976673 9.23592 1.38057 9.03736 1.83033C9.00713 1.89912 8.99462 2.0044 8.90811 2.00961C8.81222 2.01586 8.80805 1.90433 8.77834 1.83815C8.5876 1.41392 8.33796 1.03192 8.01068 0.699937C7.14764 -0.174567 5.82233 -0.237106 4.86965 0.554534C3.98733 1.2878 3.81066 2.65168 4.47045 3.6252C4.5111 3.68513 4.60803 3.74038 4.55539 3.82428C4.51005 3.8962 4.41208 3.86754 4.33651 3.86806C3.51985 3.87014 2.70372 3.86233 1.88706 3.87275C0.850478 3.8863 0.0343441 4.68784 0.0067227 5.72026C-0.00786974 6.25861 0.0067227 6.79749 0.000989952 7.33585C-0.00317932 7.73558 0.162028 8.0613 0.488794 8.26143C0.739472 8.41465 0.786376 8.60122 0.785855 8.86337C0.779601 11.417 0.787939 13.9707 0.778037 16.5244C0.775953 17.094 0.976599 17.5563 1.38467 17.9373C1.8214 18.3453 2.33422 18.5585 2.94032 18.5569C5.07707 18.5512 7.21382 18.5548 9.35057 18.5548C11.4785 18.5548 13.6074 18.5256 15.7342 18.5673C16.7823 18.5882 17.8772 17.7246 17.8319 16.4655C17.7954 15.4591 17.8246 14.4507 17.8246 13.4433C17.8246 11.897 17.8246 10.3513 17.8246 8.805C17.8246 8.62936 17.823 8.46572 18.0075 8.35263C18.4297 8.09309 18.6063 7.69441 18.6058 7.20817C18.6058 6.77404 18.6105 6.33939 18.6048 5.90527C18.5881 4.66231 17.7944 3.8764 16.5499 3.87171ZM9.30523 3.68513C9.34588 2.8247 9.63408 2.05026 10.1625 1.38318C10.84 0.528476 12.033 0.532124 12.6808 1.35816C13.0774 1.86368 13.1081 2.6152 12.724 3.15824C12.3874 3.63458 11.9788 4.00148 11.3232 3.92018C11.0928 3.89151 10.8557 3.91549 10.6212 3.91549V3.91392C10.2569 3.91392 9.89258 3.91236 9.52881 3.91496C9.37038 3.91601 9.2969 3.86598 9.30523 3.68565V3.68513ZM5.72383 0.880258C6.31066 0.599354 6.90165 0.66085 7.37069 1.10853C8.08416 1.78968 8.41509 2.66575 8.4792 3.645C8.49014 3.81594 8.37757 3.82116 8.25927 3.82116C7.87778 3.8222 7.49577 3.82116 7.11428 3.82116V3.82272C6.86256 3.82272 6.61136 3.82272 6.35964 3.82272C5.50234 3.82272 4.83213 3.17283 4.8191 2.31032C4.8092 1.64323 5.1344 1.16168 5.72331 0.879737L5.72383 0.880258ZM8.50786 13.1634C8.50786 14.5966 8.50838 16.0298 8.50786 17.4625C8.50786 17.8127 8.49327 17.8283 8.13836 17.8289C6.41854 17.8304 4.69923 17.8283 2.97941 17.8299C2.5505 17.8299 2.18152 17.6876 1.86361 17.4025C1.63117 17.1941 1.49984 16.9398 1.49932 16.6255C1.49828 14.0025 1.49932 11.3795 1.49619 8.75653C1.49619 8.55484 1.57489 8.48136 1.77449 8.48188C3.92844 8.48553 6.08239 8.48709 8.23634 8.48084C8.4917 8.48031 8.50994 8.61738 8.50942 8.81177C8.5063 10.2622 8.50786 11.7125 8.50786 13.1629V13.1634ZM17.7652 7.28217C17.7657 7.54379 17.6339 7.71161 17.3894 7.77831C17.1581 7.84137 17.0674 7.99564 17.0569 8.21661C17.0523 8.32084 17.0533 8.42507 17.0533 8.5293C17.0533 11.1695 17.0533 13.8097 17.0533 16.4499C17.0533 17.3812 16.5916 17.8424 15.6597 17.8424C13.6621 17.8434 11.6645 17.8429 9.66744 17.8424C9.2625 17.8424 9.26093 17.8408 9.26093 17.4411C9.26093 14.5925 9.26093 11.7438 9.26093 8.89516C9.26093 8.485 9.2625 8.48396 9.68359 8.48396C10.7603 8.48344 11.8375 8.48448 12.9143 8.4824C13.0263 8.4824 13.1415 8.47719 13.2488 8.44905C13.4234 8.4037 13.5006 8.27394 13.4896 8.09518C13.4787 7.91277 13.3781 7.80646 13.1988 7.78405C13.0961 7.77102 12.9909 7.77206 12.8866 7.77206C11.8011 7.77102 10.7155 7.77206 9.62992 7.7705C9.27553 7.76998 9.26198 7.75434 9.26041 7.40412C9.25885 6.99605 9.26198 6.58799 9.25781 6.1794C9.25677 6.08507 9.24791 5.98709 9.22133 5.89745C9.17546 5.74423 9.0728 5.64365 8.90186 5.63844C8.72049 5.6327 8.61261 5.73224 8.54695 5.8912C8.50578 5.99074 8.5089 6.09497 8.5089 6.1992C8.50838 6.61613 8.49796 7.03306 8.51203 7.44946C8.51985 7.68711 8.43125 7.77571 8.19673 7.77258C7.5974 7.76424 6.99806 7.7705 6.39925 7.7705C4.77532 7.7705 3.15139 7.7705 1.52694 7.7705C1.41437 7.7705 1.30024 7.7731 1.18871 7.75955C0.904158 7.72515 0.751979 7.59018 0.73895 7.31031C0.713935 6.773 0.693088 6.23204 0.746768 5.69681C0.808264 5.08861 1.23301 4.68628 1.83651 4.62218C2.00849 4.60394 2.18308 4.5982 2.35611 4.59768C4.6664 4.59612 6.97618 4.59664 9.28647 4.59664C11.5879 4.59664 13.8893 4.59612 16.1908 4.59768C16.3643 4.59768 16.5373 4.61123 16.7109 4.62009C17.3514 4.65293 17.7282 5.1621 17.7589 5.74475C17.786 6.25549 17.7642 6.76935 17.7657 7.28165L17.7652 7.28217Z" fill="#797979"/>
<path d="M15.5419 7.78769C15.4315 7.7705 15.3173 7.7731 15.2047 7.76633C15.0838 7.77206 14.9614 7.76945 14.8415 7.78613C14.6799 7.80854 14.5689 7.89818 14.5497 8.06912C14.5293 8.24631 14.5997 8.38546 14.7711 8.43549C15.05 8.51627 15.3376 8.51836 15.6154 8.43132C15.7739 8.38181 15.8411 8.2484 15.8234 8.08163C15.8056 7.91329 15.7056 7.81271 15.5419 7.78769Z" fill="#797979"/>
</svg>
