<svg width="40" height="40" viewBox="0 0 40 40" fill="none" xmlns="http://www.w3.org/2000/svg">
<rect x="1.05566" y="1.05566" width="37.8889" height="37.8889" rx="18.9444" fill="white"/>
<rect x="1.05566" y="1.05566" width="37.8889" height="37.8889" rx="18.9444" stroke="#E4E7EC"/>
<path d="M11.0427 27.7776H14.3415V19.7661L9.62891 16.2317V26.3638C9.62891 27.1461 10.2628 27.7776 11.0427 27.7776Z" fill="#4285F4"/>
<path d="M25.6514 27.7776H28.9502C29.7325 27.7776 30.364 27.1437 30.364 26.3638V16.2317L25.6514 19.7661" fill="#34A853"/>
<path d="M25.6514 13.64V19.7664L30.364 16.2319V14.3469C30.364 12.5985 28.3682 11.6018 26.9709 12.6503" fill="#FBBC04"/>
<path d="M14.3418 19.7665V13.6401L19.9969 17.8815L25.6521 13.6401V19.7665L19.9969 24.0079" fill="#EA4335"/>
<path d="M9.62891 14.3469V16.2319L14.3415 19.7664V13.64L13.022 12.6503C11.6223 11.6018 9.62891 12.5985 9.62891 14.3469Z" fill="#C5221F"/>
</svg>
