<svg width="17" height="17" viewBox="0 0 17 17" fill="none" xmlns="http://www.w3.org/2000/svg">
<g clip-path="url(#clip0_2601_2694)">
<path d="M8.31049 3.55722C8.31049 3.55722 6.13192 3.45338 5.71881 5.09459C5.3057 6.7358 6.6268 6.66712 6.77376 8.27399C6.84281 9.02671 6.29238 9.25904 6.26924 9.88368C6.24609 10.5083 7.41599 13.4388 7.41599 13.4388H8.31049L8.73131 13.4429H9.62581C9.62581 13.4429 10.7957 10.512 10.7726 9.88772C10.7494 9.26348 10.199 9.03116 10.268 8.27803C10.415 6.67116 11.7357 6.74065 11.323 5.09863C10.9107 3.45661 8.73131 3.56126 8.73131 3.56126L8.31049 3.55722Z" fill="#FF808C"/>
<path d="M9.62592 13.9999H8.73142L8.3052 13.9959H7.41572C7.20164 13.9959 7.00839 13.8614 6.92585 13.6541C6.56057 12.7385 5.71352 10.5369 5.73859 9.86257C5.75402 9.43671 5.92567 9.14217 6.06067 8.9058C6.19567 8.66944 6.26318 8.54742 6.24312 8.32802C6.19297 7.77853 5.97388 7.49893 5.71969 7.17489C5.35673 6.71227 4.90581 6.13651 5.20398 4.95348C5.70812 2.94903 8.10964 2.9955 8.32217 3.00075L8.72294 3.00479C8.9671 2.99671 11.3358 2.96843 11.8361 4.95752C12.1331 6.13974 11.6822 6.71307 11.3204 7.17893C11.0666 7.50217 10.8471 7.78257 10.797 8.33206C10.7769 8.55146 10.8421 8.67429 10.9794 8.90984C11.1167 9.1454 11.288 9.44035 11.3015 9.86661C11.3258 10.5418 10.4791 12.7426 10.1142 13.6581C10.0325 13.865 9.83961 13.9995 9.62592 13.9999ZM7.77174 12.8832H8.3106L8.73682 12.8872H9.27105C9.76015 11.6294 10.2419 10.2205 10.2423 9.90701C10.2377 9.77893 10.1779 9.6755 10.0722 9.48924C9.90865 9.20843 9.68532 8.82338 9.7397 8.2254C9.82109 7.33772 10.1972 6.85812 10.4996 6.46984C10.8116 6.07267 10.9686 5.87025 10.8116 5.24116C10.5092 4.04762 8.77347 4.11509 8.75611 4.11509H8.72718L8.30635 4.11105H8.28823C8.25737 4.11105 6.5301 4.05651 6.23348 5.23469C6.07417 5.86742 6.23348 6.06701 6.5436 6.4654C6.846 6.85085 7.22247 7.33085 7.30347 8.22095C7.35825 8.81893 7.13453 9.20398 6.97098 9.48479C6.86259 9.67105 6.80589 9.77449 6.80087 9.9054C6.80165 10.2165 7.28303 11.6258 7.77174 12.8836V12.8832Z" fill="#FFB0B0"/>
<path d="M2.02271 7.07261C1.99262 7.07261 1.96253 7.06978 1.93322 7.06453C1.06303 6.90938 0.404981 6.35584 0.128417 5.54574C-0.113817 4.83665 -0.00774298 4.06049 0.399196 3.56837C0.732461 3.16312 1.22927 2.99867 1.76157 3.1118C3.22076 3.42251 5.72797 4.04029 5.75304 4.04635C6.04233 4.09605 6.23867 4.38211 6.19122 4.68554C6.14378 4.98857 5.87069 5.19423 5.58101 5.14453C5.55671 5.14049 5.53279 5.13443 5.50926 5.12675C5.48419 5.12069 2.9955 4.50696 1.54981 4.19988C1.34615 4.15665 1.25705 4.22776 1.20227 4.29443C1.07344 4.45322 1.00362 4.80433 1.12821 5.16797C1.21269 5.41524 1.45029 5.84797 2.11181 5.96514C2.4011 6.01524 2.59705 6.3013 2.54922 6.60473C2.50679 6.87423 2.28384 7.0714 2.02348 7.07059L2.02271 7.07261Z" fill="#FFB0B0"/>
<path d="M3.70859 7.08418C3.80041 6.5555 3.40027 6.03648 2.81486 5.92492C2.22945 5.81336 1.68044 6.1515 1.58862 6.68019C1.4968 7.20887 1.89693 7.72789 2.48234 7.83945C3.06776 7.95101 3.61676 7.61287 3.70859 7.08418Z" fill="#FF808C"/>
<path d="M2.70407 8.41688C2.59606 8.41688 2.48806 8.40678 2.38199 8.38657C1.50909 8.22051 0.917008 7.40961 1.0605 6.58051C1.20399 5.75142 2.03252 5.21082 2.90464 5.37728C3.30425 5.45001 3.66606 5.67021 3.92372 5.99829C4.18447 6.32839 4.29479 6.76152 4.22613 7.18375C4.14899 7.60354 3.90135 7.96758 3.54726 8.18092C3.29114 8.33728 3.0003 8.41849 2.70407 8.41688ZM2.58989 6.4589C2.34881 6.4589 2.1386 6.589 2.10889 6.77809C2.07032 7.00031 2.28363 7.23466 2.57485 7.29001C2.72258 7.32152 2.8761 7.29769 3.00879 7.22253C3.09673 7.17324 3.16038 7.08678 3.18352 6.98496C3.19625 6.88112 3.16578 6.77688 3.1002 6.69809C3.00223 6.57809 2.86684 6.49849 2.71795 6.47264C2.67552 6.46455 2.63271 6.46051 2.58951 6.46051L2.58989 6.4589Z" fill="#FFB0B0"/>
<path d="M14.9736 7.07281C14.6804 7.07402 14.4417 6.82553 14.4405 6.51846C14.4397 6.24533 14.628 6.0122 14.8852 5.96776C15.5441 5.85018 15.7844 5.41745 15.8688 5.17058C15.9934 4.80654 15.9255 4.45543 15.7948 4.29705C15.74 4.22957 15.6505 4.1621 15.4472 4.2025C14.0027 4.50957 11.2841 5.1625 11.2579 5.16856C10.9717 5.23725 10.687 5.04978 10.6214 4.75038C10.5559 4.45099 10.7349 4.1524 11.0207 4.08372C11.0484 4.07685 13.7801 3.42149 15.2374 3.11159C15.7697 2.99806 16.2688 3.16412 16.5998 3.56816C17.0071 4.06109 17.1155 4.83685 16.8706 5.54553C16.5932 6.35563 15.9352 6.90877 15.0658 7.06473C15.0353 7.06998 15.0044 7.07281 14.9736 7.07281Z" fill="#FFB0B0"/>
<path d="M14.446 7.74523C15.0288 7.63306 15.4265 7.11531 15.3341 6.58882C15.2418 6.06233 14.6944 5.72646 14.1115 5.83863C13.5287 5.95081 13.131 6.46856 13.2234 6.99505C13.3157 7.52154 13.8631 7.85741 14.446 7.74523Z" fill="#FF808C"/>
<path d="M8.52186 7.22058C8.22871 7.22058 7.99072 6.97169 7.99072 6.66422V5.66785C7.99072 5.36038 8.22871 5.11108 8.52225 5.11108C8.81579 5.11108 9.05378 5.36038 9.05378 5.66785V6.66381C9.05416 6.97088 8.81656 7.22058 8.52341 7.22098C8.52264 7.22058 8.52225 7.22058 8.52186 7.22058Z" fill="white"/>
</g>
<defs>
<clipPath id="clip0_2601_2694">
<rect width="17" height="11" fill="white" transform="translate(0 3)"/>
</clipPath>
</defs>
</svg>
