<svg width="17" height="17" viewBox="0 0 17 17" fill="none" xmlns="http://www.w3.org/2000/svg">
<g clip-path="url(#clip0_2601_3142)">
<g clip-path="url(#clip1_2601_3142)">
<path d="M9.97925 11.3057L7.3396 8.66602L6.63536 9.37025L9.27501 12.0096L9.97925 11.3057Z" fill="#FF432E"/>
<path d="M9.68774 11.5967L9.27503 12.0095L6.63538 9.36981L7.05108 8.9541L9.68774 11.5967Z" fill="#DB0404"/>
<path d="M16.575 11.1597C15.4583 14.5514 12.2655 17.0001 8.49995 17.0001C4.73439 17.0001 1.54157 14.5514 0.424952 11.1597H16.575Z" fill="#FFBEAA"/>
<path d="M8.50293 11.1597V17.0001H8.49994C4.73438 17.0001 1.54156 14.5514 0.424941 11.1597H8.50293Z" fill="#FAA68E"/>
<path d="M10.0734 11.1753C9.6438 11.8104 9.38714 12.6973 9.38714 13.1877C9.38714 13.9039 9.96985 14.4863 10.6857 14.4863C11.4016 14.4863 11.9843 13.9039 11.9843 13.1877C11.9843 12.6697 11.7047 11.767 11.2874 11.1597H12.9512C13.2543 11.831 13.4456 12.5768 13.4456 13.1877C13.4456 14.7094 12.2074 15.9472 10.686 15.9472C9.16468 15.9472 7.92653 14.7091 7.92653 13.1877C7.92653 12.5897 8.11679 11.8373 8.42159 11.1597H10.0841C10.0801 11.165 10.0768 11.17 10.0734 11.1753Z" fill="white"/>
<path d="M7.92595 13.188C7.92595 12.5901 8.1162 11.8373 8.42101 11.1597H10.0835C10.0802 11.165 10.0768 11.17 10.0735 11.1753C9.64388 11.8104 9.38722 12.6973 9.38722 13.188C9.38722 13.9013 9.96528 14.4816 10.6775 14.4866V15.9476C9.15944 15.9426 7.92595 14.7068 7.92595 13.188Z" fill="#E9EDF5"/>
<path d="M9.76559 8.8672C9.39869 7.61378 8.61576 5.76105 7.00508 3.10181C7.00508 3.10181 10.1252 5.80288 11.2508 9.66905C11.3391 9.97253 11.4945 10.2518 11.6977 10.4935C12.3053 11.2153 12.7144 12.4359 12.7144 13.1879C12.7144 14.3085 11.8059 15.2173 10.6853 15.2173C9.56471 15.2173 8.65627 14.3089 8.65627 13.1879C8.65627 12.5239 8.97502 11.4949 9.46809 10.7661C9.84494 10.2089 9.95451 9.51233 9.76559 8.8672Z" fill="#0053BF"/>
<path d="M9.76582 8.8672C9.39893 7.61378 8.616 5.76105 7.00531 3.10181C7.00531 3.10181 9.31525 5.10163 10.6772 8.12278V15.217C9.56063 15.2123 8.6565 14.3059 8.6565 13.1879C8.6565 12.5239 8.97525 11.4946 9.46832 10.7658C9.84518 10.2089 9.95475 9.51233 9.76582 8.8672Z" fill="#27488F"/>
<path d="M2.75521 2.23584L8.02155 7.50219L8.24634 8.84924L6.95142 10.1442L5.52136 10.0024L0.680675 5.16203C1.15913 4.04242 1.87101 3.04699 2.75521 2.23584Z" fill="#4A7AFF"/>
<path d="M1.61932 3.5105L7.59521 9.50001L6.95141 10.1441L5.52135 10.0024L0.680664 5.16202C0.932012 4.57433 1.24811 4.02116 1.61932 3.5105Z" fill="#0053BF"/>
<path d="M8.02155 7.5022L8.24634 8.84925L6.95142 10.1442L5.52136 10.0024L8.02155 7.5022Z" fill="#0053BF"/>
<path d="M7.59521 9.49996L6.95141 10.1441L5.52135 10.0023L6.81029 8.71338L7.59521 9.49996Z" fill="#0053BF"/>
</g>
</g>
<defs>
<clipPath id="clip0_2601_3142">
<rect width="17" height="17" fill="white"/>
</clipPath>
<clipPath id="clip1_2601_3142">
<rect width="17" height="17" fill="white" transform="matrix(-1 0 0 1 17 0)"/>
</clipPath>
</defs>
</svg>
