<svg width="19" height="19" viewBox="0 0 19 19" fill="none" xmlns="http://www.w3.org/2000/svg">
<path d="M17.5225 11.282C17.5011 11.2049 17.4709 11.1345 17.4339 11.0689C17.3286 10.8797 17.1707 10.7286 17.0149 10.5748C16.6824 10.2465 16.352 9.9166 16.0236 9.5841C15.7964 9.35375 15.7959 9.27818 16.0231 9.04783C16.4244 8.64184 16.8278 8.23742 17.2338 7.83665C17.3083 7.76317 17.3698 7.68552 17.4131 7.59848C17.4506 7.52292 17.4746 7.44109 17.4792 7.34833C17.9165 6.86417 18.2422 6.31435 18.4053 5.68218C18.8051 4.13382 18.5351 2.72826 17.4735 1.50301C17.4469 1.4707 17.4193 1.43891 17.3917 1.40764C17.0092 0.978728 16.5391 0.667596 16.0247 0.416919C16.0044 0.407017 15.9846 0.397115 15.9642 0.387734C14.024 -0.361171 12.3281 0.0208387 10.8668 1.49051C10.4446 1.91525 10.023 2.34104 9.59411 2.75901C9.24911 3.09515 9.34187 3.09724 9.00625 2.7663C8.54294 2.30872 8.09318 1.8376 7.62205 1.38888C6.26078 0.0901527 4.68115 -0.361692 2.88628 0.306955C-0.0509674 1.40035 -0.94736 5.04585 1.13727 7.37491C1.68658 7.98831 2.28643 8.55689 2.87169 9.13694C3.00823 9.27244 3.01553 9.35531 2.8743 9.49237C2.36929 9.98122 1.87315 10.4794 1.37805 10.9787C0.397229 11.9689 -0.114549 13.1556 0.0240795 14.5549C0.198668 16.3185 1.11382 17.6136 2.75495 18.2775C4.42162 18.9519 5.99864 18.6752 7.36199 17.4765C7.96706 16.9444 8.52313 16.355 9.08546 15.7765C9.25745 15.5993 9.35542 15.616 9.51646 15.7833C9.99124 16.2779 10.4848 16.7542 10.9679 17.241C11.575 17.8523 12.2864 18.2796 13.126 18.4855C14.0948 18.7226 15.0361 18.6179 15.9559 18.2541C15.9726 18.2458 15.9893 18.2374 16.0059 18.2291C16.5245 17.9727 17.0024 17.6605 17.3901 17.2269C17.4183 17.1951 17.4464 17.1633 17.4735 17.13C18.4486 16.023 18.7436 14.7326 18.4929 13.302C18.3595 12.5401 17.9879 11.8871 17.5215 11.282H17.5225ZM17.5355 15.6707C17.2228 16.4389 16.7038 17.02 15.9689 17.4067C14.5915 18.2343 12.7685 17.9831 11.5386 16.7829C11.0106 16.268 10.5051 15.7296 9.98081 15.2105C9.84635 15.0771 9.86824 14.9969 9.99072 14.8744C11.6136 13.2567 13.2334 11.6359 14.85 10.012C14.9699 9.89158 15.0532 9.85666 15.1851 9.9979C15.4514 10.283 15.7328 10.5529 16.0085 10.8297C16.5161 11.3123 17.0524 11.7693 17.3979 12.3947C17.4521 12.4927 17.4891 12.5995 17.534 12.7022C17.9769 13.6913 17.9759 14.681 17.535 15.6702L17.5355 15.6707ZM8.30894 15.0182C7.40837 14.1265 6.51198 13.2306 5.6135 12.3363C5.56452 12.2873 5.51657 12.2368 5.46393 12.1915C5.29612 12.0481 5.11163 12.0247 4.94746 12.1769C4.77444 12.3369 4.81874 12.5219 4.95163 12.6892C5.01052 12.7637 5.08244 12.8283 5.14967 12.8955C6.05857 13.8034 6.96487 14.7144 7.88002 15.616C8.01969 15.7536 8.02282 15.8323 7.8795 15.9652C7.42193 16.3894 7.0347 16.8933 6.50573 17.2357C5.2242 18.0654 3.87805 18.1285 2.56629 17.3759C1.25558 16.6239 0.666147 15.4216 0.749011 13.9076C0.798521 13.0013 1.17063 12.2279 1.80488 11.5911C4.4951 8.892 7.19418 6.20126 9.88492 3.50218C10.0282 3.35886 10.1002 3.40785 10.2143 3.52302C11.1383 4.45277 12.067 5.37835 12.9942 6.30445C13.2777 6.58744 13.4825 6.63017 13.6571 6.44464C13.8311 6.25859 13.7936 6.09286 13.5065 5.80414C12.5814 4.87543 11.6579 3.94464 10.7266 3.02271C10.5828 2.88044 10.5713 2.79705 10.7266 2.65582C11.181 2.24097 11.575 1.75994 12.0785 1.39826C13.1854 0.602452 14.8484 0.531053 15.9689 1.22628C16.6813 1.63174 17.226 2.18886 17.5355 2.95913C17.9806 3.94881 17.9639 4.93797 17.5355 5.92713C17.3208 6.45975 16.9576 6.88502 16.5547 7.2811C16.3765 7.45621 16.1951 7.62871 16.0148 7.80226C15.9017 7.9216 15.7912 8.04355 15.675 8.15977C13.3845 10.4487 11.0945 12.7381 8.80143 15.0234C8.51063 15.3132 8.58411 15.2882 8.31102 15.0172L8.30894 15.0182ZM2.97384 1.04387C4.34501 0.433596 5.92464 0.752545 7.01438 1.81623C7.5543 2.34312 8.08067 2.88408 8.61955 3.41202C8.73733 3.52771 8.7514 3.59807 8.6258 3.72315C6.99301 5.35281 5.36491 6.98716 3.73786 8.62308C3.62945 8.732 3.5518 8.77682 3.42203 8.64393C2.83365 8.04303 2.20721 7.48018 1.64332 6.85479C1.02783 6.17207 0.761519 5.3575 0.741194 4.33603C0.811029 2.87053 1.51251 1.69428 2.97384 1.04387Z" fill="#797979"/>
<path d="M8.97289 6.09025C7.9681 6.99602 7.00239 7.94974 6.10027 8.95662C5.39775 9.74045 5.27579 10.6983 5.72295 11.6552C6.16645 12.6058 6.95236 13.1056 8.01448 13.1316C8.7144 13.1415 9.3106 12.8903 9.79997 12.4062C10.6943 11.5218 11.5902 10.6379 12.4594 9.72898C13.3616 8.78568 13.3267 7.26025 12.4146 6.30549C11.4958 5.34395 9.93964 5.21887 8.97289 6.09025ZM11.9331 9.21043C11.0419 10.1824 10.1038 11.1132 9.12768 11.9997C8.42151 12.6412 7.39013 12.5255 6.69595 11.8011C6.07212 11.1502 6.03356 10.098 6.65895 9.43713C7.51782 8.52927 8.40639 7.64956 9.29132 6.76776C9.63476 6.42536 10.0517 6.22471 10.5515 6.23878C11.3259 6.23878 11.8851 6.60307 12.2056 7.29204C12.5235 7.9758 12.4412 8.65644 11.9331 9.21043Z" fill="#797979"/>
<path d="M4.20064 11.0876C3.99635 11.0934 3.83948 11.2565 3.84574 11.4566C3.85147 11.6442 4.03856 11.8167 4.22774 11.8089C4.4237 11.8006 4.57692 11.6323 4.57379 11.4274C4.57119 11.2205 4.41797 11.0814 4.20012 11.0871L4.20064 11.0876Z" fill="#797979"/>
<path d="M14.3731 6.823C14.1928 6.82821 14.0292 6.99759 14.0276 7.17999C14.026 7.38064 14.1902 7.55366 14.3815 7.55314C14.567 7.55314 14.7447 7.37282 14.7468 7.18312C14.7489 6.99967 14.5597 6.81779 14.3731 6.823Z" fill="#797979"/>
<path d="M8.38607 9.15206C7.78257 9.14945 7.28382 9.6409 7.2859 10.2355C7.28799 10.8312 7.75964 11.3117 8.35584 11.3248C8.96299 11.3383 9.4534 10.862 9.45965 10.2527C9.46591 9.63569 8.99635 9.15466 8.38607 9.15206ZM8.38242 10.5873C8.18751 10.5832 8.0296 10.4127 8.0322 10.2095C8.03429 10.0213 8.18803 9.88168 8.39649 9.88845C8.59818 9.89523 8.72326 9.99321 8.72691 10.2069C8.73055 10.4153 8.56795 10.5915 8.38242 10.5873Z" fill="#797979"/>
<path d="M10.2159 7.30976C9.60193 7.31185 9.13341 7.78766 9.13601 8.40576C9.13862 9.01656 9.59933 9.48091 10.2018 9.48039C10.811 9.47987 11.3092 8.99363 11.3087 8.40107C11.3082 7.79288 10.8225 7.30768 10.2159 7.30976ZM10.2033 8.74451C10.0027 8.74451 9.8672 8.60328 9.86824 8.39534C9.86929 8.19677 10.009 8.06023 10.2164 8.05554C10.4379 8.05033 10.5598 8.16655 10.5614 8.38439C10.5629 8.59598 10.4155 8.74399 10.2033 8.74399V8.74451Z" fill="#797979"/>
</svg>
