<svg width="58" height="58" viewBox="0 0 58 58" fill="none" xmlns="http://www.w3.org/2000/svg">
<g clip-path="url(#clip0_2558_2521)">
<path d="M17.0079 17.4476H10.6865V1.13281C10.6865 0.5075 11.1904 0 11.8113 0H15.8819C16.5028 0 17.0067 0.5075 17.0067 1.13281V17.4476H17.0079Z" fill="#528FD8"/>
<path d="M28.7585 0H22.6261C19.5228 0 17.0078 2.53297 17.0078 5.6584V17.4476H22.1582V5.89402C22.1582 5.5032 22.4721 5.18715 22.8601 5.18715H28.7585C29.3794 5.18715 29.8833 4.67965 29.8833 4.05434V1.13281C29.8833 0.5075 29.3794 0 28.7585 0Z" fill="#FD8087"/>
<path d="M46.6212 29.0001C46.6212 18.5816 38.7601 11.3169 29.0633 11.3169C27.8406 11.3169 26.6461 11.4426 25.4932 11.6828V46.0387H47.962C45.51 36.5061 46.6212 33.187 46.6212 29.0001Z" fill="#FE646F"/>
<path d="M22.1582 8.13574C20.3642 8.32832 18.6376 8.75199 17.0078 9.37504V17.4463H22.1582V8.13574Z" fill="#FE646F"/>
<path d="M47.8791 45.9515C41.8041 39.7981 41.9402 29.0001 41.9402 29.0001C41.9402 19.2341 34.079 11.3169 24.3822 11.3169C14.6854 11.3169 6.82422 19.2341 6.82422 29.0001C6.82422 35.3393 8.92758 40.5491 11.8194 44.7156C17.638 53.0984 27.2324 58.0001 37.3871 58.0001H42.8682C46.7521 58.0001 49.8992 54.8294 49.8992 50.9189C49.8992 49.0599 49.1805 47.2701 47.8791 45.9515Z" fill="#FE99A0"/>
<path d="M47.879 45.9515C41.804 39.7981 41.9401 29.0001 41.9401 29.0001C41.9401 19.2341 34.0789 11.3169 24.3821 11.3169C23.4665 11.3169 22.5678 11.3883 21.6904 11.5242C30.1095 12.8292 36.5557 20.1562 36.5557 29.0001C36.5557 29.0001 36.4196 39.7981 42.4946 45.9515C43.796 47.269 44.5147 49.0599 44.5147 50.9178C44.5147 54.8294 41.3664 57.999 37.4836 57.999H42.868C46.7519 57.999 49.8991 54.8282 49.8991 50.9178C49.8991 49.0599 49.1803 47.2701 47.879 45.9515Z" fill="#FD8087"/>
<path d="M17.0079 9.375C16.6029 9.5302 16.2036 9.69672 15.8111 9.8757C15.5524 9.99352 15.2734 10.0592 14.99 10.0592H14.0373C12.881 10.0592 11.7506 10.2575 10.6865 10.6313V17.4474H17.0067V9.375H17.0079Z" fill="#0573CE"/>
<path d="M45.5776 33.5742H55.0236L49.2849 39.8523L52.0395 42.093L41.9321 50.4554L44.5551 43.1216L41.9321 40.6883L45.5776 33.5742Z" fill="#FFE177"/>
<path d="M28.634 50.2165C27.7938 49.9152 26.976 49.5731 26.1819 49.1925C26.5464 49.1166 26.9187 49.0067 27.2921 48.8492C27.7218 48.668 27.9242 48.1707 27.7443 47.7368C27.5643 47.3041 27.0705 47.1001 26.6397 47.2814C24.9357 48.0007 23.1742 47.4071 22.8795 47.2973C21.4916 46.3548 20.2037 45.2775 19.0305 44.0767C20.1474 44.4097 21.5062 44.6465 23.1146 44.6465C23.8075 44.6465 24.5476 44.6023 25.3338 44.5037C25.7961 44.446 26.1246 44.0212 26.0672 43.5556C26.0098 43.09 25.5869 42.7592 25.1258 42.817C23.983 42.9609 22.9594 42.971 22.054 42.9019C22.3239 42.6731 22.6523 42.4658 23.037 42.3514C23.4836 42.2177 23.7389 41.7453 23.6062 41.2956C23.4734 40.8459 23.0044 40.5899 22.5579 40.7224C21.324 41.0906 20.4927 41.9923 20.0563 42.5893C19.4107 42.4318 18.8629 42.2415 18.4198 42.0535C17.1791 41.5267 16.4784 40.9229 16.3029 40.7621C14.7844 38.5576 13.6889 36.2036 13.0489 33.7658C12.9296 33.3127 12.4674 33.0419 12.0174 33.162C11.5675 33.2821 11.2987 33.7466 11.4179 34.2008C12.1153 36.8573 13.3087 39.4151 14.9655 41.8031C18.1802 46.4341 22.7108 49.8982 28.0682 51.8194C28.1616 51.8534 28.2572 51.8693 28.3517 51.8693C28.6981 51.8693 29.0232 51.6518 29.1469 51.304C29.3021 50.86 29.0738 50.374 28.634 50.2165Z" fill="#528FD8"/>
<path d="M38.1283 36.4992C35.4535 35.2033 33.7731 31.2792 33.4694 30.5191C33.4582 30.0173 33.4537 29.5075 33.4593 28.9876C33.4942 25.1269 31.8396 21.3909 28.9174 18.739C28.5709 18.4252 28.0378 18.4524 27.7262 18.8013C27.4147 19.1502 27.4416 19.6872 27.7881 20.001C28.3842 20.5424 28.9196 21.1349 29.3909 21.7681C29.5743 22.4342 30.3414 25.7704 28.247 28.4801C27.9613 28.8505 28.0265 29.384 28.3943 29.6718C28.5484 29.793 28.7307 29.8508 28.9118 29.8508C29.1626 29.8508 29.4123 29.7386 29.5776 29.5234C30.6012 28.198 31.0815 26.7797 31.2704 25.4928C31.609 26.6154 31.7822 27.7879 31.771 28.974C31.7046 36.2319 33.1477 41.8325 36.0621 45.6195C36.2285 45.8359 36.4771 45.948 36.7291 45.948C36.9101 45.948 37.0912 45.8902 37.2453 45.7702C37.6131 45.4824 37.6806 44.9489 37.3949 44.5785C35.5098 42.1282 34.2961 38.7988 33.7652 34.6448C34.6696 35.9611 35.8832 37.299 37.3961 38.0319C37.5142 38.0886 37.6379 38.1158 37.7605 38.1158C38.0743 38.1158 38.3757 37.9379 38.5208 37.6343C38.7244 37.2095 38.5478 36.702 38.1283 36.4992Z" fill="#FE646F"/>
<path d="M51.7022 26.4715C51.4019 26.4715 51.1106 26.3095 50.9587 26.024C50.7383 25.6105 50.8912 25.0951 51.3018 24.8731C51.3063 24.8708 51.3097 24.8685 51.313 24.8663C51.3333 24.8244 51.3614 24.7054 51.3794 24.625C51.4638 24.2557 51.6032 23.6383 52.3017 23.2599C52.9991 22.8816 53.5885 23.1036 53.9406 23.2373C54.017 23.2667 54.1306 23.3087 54.1768 23.3143C54.179 23.3132 54.1835 23.3109 54.188 23.3087C54.1925 23.3064 54.1959 23.3041 54.1993 23.3019C54.2206 23.2599 54.2476 23.141 54.2656 23.0606C54.35 22.6913 54.4894 22.0739 55.1879 21.6955C55.5985 21.4735 56.1103 21.6276 56.3307 22.041C56.5512 22.4545 56.3982 22.9699 55.9877 23.192C55.9832 23.1942 55.9798 23.1965 55.9764 23.1988C55.9551 23.2407 55.9281 23.3596 55.9101 23.4401C55.8257 23.8094 55.6862 24.4267 54.9877 24.8051C54.2904 25.1835 53.701 24.9614 53.3489 24.8278C53.2724 24.7983 53.1588 24.7564 53.1127 24.7507C53.1105 24.7519 53.106 24.7541 53.1015 24.7564C53.097 24.7587 53.0936 24.7609 53.0902 24.7632C53.07 24.8051 53.0418 24.924 53.0238 25.0045C52.9395 25.3738 52.8 25.9912 52.1015 26.3695C51.9733 26.4386 51.8372 26.4715 51.7022 26.4715Z" fill="#FD8087"/>
<path d="M49.1578 23.0755C48.8575 23.0755 48.5661 22.9135 48.4143 22.628C48.1938 22.2145 48.3468 21.7002 48.7574 21.4771C48.7619 21.4748 48.7652 21.4725 48.7686 21.4703C48.79 21.4284 48.817 21.3094 48.835 21.229C48.9193 20.8597 49.0588 20.2423 49.7573 19.864C50.4547 19.4856 51.0441 19.7076 51.3961 19.8413C51.4726 19.8707 51.5862 19.9127 51.6323 19.9183C51.6346 19.9172 51.6391 19.9149 51.6436 19.9127C51.6481 19.9104 51.6526 19.9081 51.6548 19.9059C51.6751 19.864 51.7032 19.745 51.7212 19.6646C51.8055 19.2953 51.945 18.6779 52.6435 18.2995C53.0541 18.0775 53.5658 18.2316 53.7863 18.645C54.0068 19.0585 53.8538 19.5728 53.4432 19.796C53.4387 19.7982 53.4354 19.8005 53.432 19.8028C53.4106 19.8447 53.3836 19.9636 53.3656 20.0441C53.2813 20.4134 53.1418 21.0307 52.4433 21.4091C51.7459 21.7875 51.1565 21.5654 50.8045 21.4318C50.728 21.4023 50.6144 21.3604 50.5683 21.3547C50.566 21.3559 50.5615 21.3581 50.557 21.3604C50.5525 21.3627 50.5492 21.3649 50.5458 21.3672C50.5255 21.4091 50.4974 21.5281 50.4794 21.6085C50.3951 21.9778 50.2556 22.5952 49.5571 22.9735C49.43 23.0426 49.2928 23.0755 49.1578 23.0755Z" fill="#FD8087"/>
<path d="M55.5783 30.9541C55.4231 30.9541 55.2555 30.9315 55.0755 30.8771C54.3163 30.6471 54.0565 30.0705 53.9001 29.7262C53.8664 29.6514 53.8158 29.5392 53.7876 29.503C53.7854 29.5019 53.7809 29.5007 53.7764 29.4985C53.7719 29.4962 53.7674 29.4962 53.764 29.4951C53.7202 29.5098 53.6178 29.5744 53.5481 29.6185C53.2297 29.819 52.6966 30.1566 51.9385 29.9267C51.4919 29.7919 51.2389 29.3183 51.3727 28.8686C51.5066 28.4189 51.9779 28.164 52.4233 28.2988C52.4289 28.2999 52.4323 28.3011 52.4356 28.3022C52.4795 28.2875 52.583 28.2229 52.6516 28.1787C52.9699 27.9771 53.5031 27.6406 54.2623 27.8706C55.0215 28.1006 55.2814 28.6772 55.4377 29.0215C55.4715 29.0963 55.5221 29.2085 55.5502 29.2447C55.5524 29.2458 55.5569 29.247 55.5614 29.2492C55.5671 29.2504 55.5704 29.2515 55.5738 29.2526C55.6177 29.2379 55.7212 29.1733 55.7898 29.1292C56.1081 28.9275 56.6412 28.5911 57.4005 28.821C57.847 28.9558 58.1001 29.4294 57.9651 29.8791C57.8313 30.3288 57.36 30.5837 56.9146 30.4478C56.9089 30.4466 56.9056 30.4455 56.9022 30.4444C56.8583 30.4591 56.7548 30.5237 56.6862 30.5678C56.4421 30.7219 56.0755 30.9541 55.5783 30.9541Z" fill="#FD8087"/>
<path d="M4.39555 48.4844C3.95688 48.4844 3.61494 48.3021 3.38211 48.1786C3.309 48.1401 3.20214 48.0823 3.15715 48.071C3.1549 48.0721 3.1504 48.0732 3.1459 48.0755C2.71061 48.2443 2.22357 48.0245 2.05598 47.5861C1.88839 47.1477 2.10659 46.6572 2.54189 46.4884C3.282 46.203 3.83765 46.4986 4.17059 46.6753C4.2437 46.7139 4.35055 46.7716 4.39555 46.7818C4.3978 46.7807 4.40229 46.7796 4.40679 46.7773C4.41129 46.775 4.41579 46.7739 4.41804 46.7728C4.44391 46.7343 4.48553 46.6198 4.51365 46.5417C4.643 46.186 4.86121 45.5924 5.6002 45.3069C6.34031 45.0214 6.89596 45.3171 7.2289 45.4938C7.30201 45.5323 7.40886 45.5901 7.45385 45.6014C7.45723 45.6003 7.4606 45.5992 7.4651 45.5969C7.9004 45.4293 8.38856 45.6479 8.55503 46.0863C8.72149 46.5247 8.50441 47.0152 8.06912 47.184C7.329 47.4694 6.77336 47.1738 6.44042 46.9971C6.36731 46.9585 6.26045 46.9008 6.21546 46.8906C6.21208 46.8917 6.20871 46.8928 6.20421 46.8951C6.19971 46.8974 6.19521 46.8985 6.19296 46.8996C6.16709 46.9382 6.12548 47.0526 6.09736 47.1307C5.968 47.4864 5.7498 48.0812 5.01081 48.3666C4.78922 48.4516 4.58339 48.4844 4.39555 48.4844Z" fill="#FD8087"/>
<path d="M6.35946 54.2492C6.24473 54.2492 6.12775 54.2255 6.0164 54.1756C5.59123 53.9842 5.40001 53.4823 5.58898 53.0541C5.91179 52.3246 6.51243 52.1377 6.87124 52.0267C6.94998 52.0029 7.06583 51.9666 7.1052 51.9417C7.10632 51.9394 7.10857 51.9349 7.11082 51.9304C7.11307 51.9258 7.1142 51.9213 7.11532 51.919C7.10632 51.8737 7.05571 51.7616 7.02084 51.6868C6.86337 51.3436 6.59904 50.7681 6.92186 50.0386C7.24467 49.3102 7.84531 49.1233 8.20524 49.0111C8.28285 48.9873 8.39983 48.9511 8.4392 48.9273C8.44033 48.925 8.44257 48.9216 8.44482 48.916C8.63491 48.4878 9.1332 48.2952 9.55837 48.4855C9.98354 48.6769 10.1748 49.1788 9.98579 49.607C9.66297 50.3354 9.06234 50.5223 8.7024 50.6344C8.62367 50.6582 8.50781 50.6945 8.46844 50.7183C8.46732 50.7205 8.46507 50.7251 8.46282 50.7296C8.46057 50.7341 8.45945 50.7387 8.45832 50.7409C8.46732 50.7862 8.51794 50.8984 8.5528 50.9731C8.71028 51.3164 8.9746 51.8919 8.65179 52.6214C8.32897 53.3498 7.72833 53.5367 7.3684 53.6489C7.28966 53.6726 7.17381 53.7089 7.13444 53.7338C7.13332 53.7361 7.13107 53.7406 7.12882 53.7451C6.99047 54.0623 6.68228 54.2492 6.35946 54.2492Z" fill="#FD8087"/>
<path d="M10.636 57.3803C10.6046 57.3803 10.5731 57.3781 10.5404 57.3747C10.077 57.3226 9.74409 56.9023 9.79583 56.4356C9.88469 55.6426 10.401 55.2812 10.7092 55.0649C10.7766 55.0173 10.8768 54.9482 10.9071 54.9131C10.9071 54.9097 10.9082 54.9063 10.9094 54.9006C10.9094 54.895 10.9105 54.8916 10.9105 54.8882C10.888 54.8474 10.8059 54.7567 10.7508 54.6956C10.4977 54.4158 10.0725 53.9479 10.1614 53.155C10.2502 52.362 10.7665 52.0006 11.0747 51.7842C11.1422 51.7367 11.2423 51.6676 11.2727 51.6325C11.2727 51.6302 11.2738 51.6257 11.2749 51.62C11.3267 51.1544 11.7451 50.818 12.2074 50.8701C12.6708 50.9222 13.0037 51.3425 12.952 51.8092C12.8631 52.6021 12.3469 52.9635 12.0375 53.1799C11.97 53.2275 11.8699 53.2966 11.8396 53.3317C11.8396 53.3339 11.8384 53.3385 11.8373 53.3441C11.8373 53.3498 11.8362 53.3532 11.8362 53.3566C11.8587 53.3974 11.9408 53.488 11.9959 53.5492C12.249 53.829 12.6742 54.2968 12.5853 55.0898C12.4965 55.8828 11.9802 56.2441 11.672 56.4605C11.6045 56.5081 11.5044 56.5772 11.474 56.6123C11.474 56.6157 11.4729 56.6191 11.4718 56.6248C11.4245 57.0598 11.059 57.3803 10.636 57.3803ZM11.8407 53.3271C11.8407 53.3283 11.8407 53.3283 11.8407 53.3271Z" fill="#FD8087"/>
<path d="M4.01562 29.0001C4.01562 30.4422 4.11461 31.8627 4.31145 33.2595C4.74224 36.3102 8.31458 37.7568 10.6969 35.823C13.393 33.6356 16.3073 32.3442 18.4579 31.6124C20.3858 30.9565 21.6906 29.144 21.6906 27.0936V18.1229C21.6906 15.4925 19.5726 13.3594 16.9609 13.3594H14.0386C12.0163 13.3594 10.0962 14.2566 8.79486 15.8153C5.81304 19.3825 4.01562 23.984 4.01562 29.0001Z" fill="#FFC4C8"/>
<path d="M18.0358 13.4851C18.1168 13.8329 18.1607 14.1954 18.1607 14.5692V23.54C18.1607 25.5903 16.8559 27.4028 14.928 28.0587C12.7774 28.7905 9.86309 30.0819 7.16696 32.2694C6.29637 32.9751 5.26831 33.2289 4.29199 33.1201C4.29874 33.1666 4.30436 33.2142 4.31111 33.2606C4.74191 36.3113 8.31425 37.7579 10.6966 35.8242C13.3927 33.6367 16.307 32.3453 18.4576 31.6135C20.3855 30.9576 21.6903 29.1451 21.6903 27.0947V18.124C21.6891 15.8651 20.1291 13.9756 18.0358 13.4851Z" fill="#FDB4BA"/>
</g>
<defs>
<clipPath id="clip0_2558_2521">
<rect width="56" height="58" fill="white" transform="translate(2)"/>
</clipPath>
</defs>
</svg>
