<svg width="17" height="17" viewBox="0 0 17 17" fill="none" xmlns="http://www.w3.org/2000/svg">
<path d="M4.28805 4.81319H2.48193V0.312504C2.48193 0.140002 2.62591 0 2.80331 0H3.96636C4.14376 0 4.28773 0.140002 4.28773 0.312504V4.81319H4.28805Z" fill="#528FD8"/>
<path d="M7.64547 0H5.89335C5.00668 0 4.28809 0.69876 4.28809 1.56096V4.81319H5.75965V1.62596C5.75965 1.51815 5.84932 1.43096 5.96019 1.43096H7.64547C7.82287 1.43096 7.96685 1.29096 7.96685 1.11845V0.312504C7.96685 0.140002 7.82287 0 7.64547 0Z" fill="#FD8087"/>
<path d="M12.7491 8.00026C12.7491 5.12616 10.503 3.12207 7.73244 3.12207C7.38311 3.12207 7.04181 3.15676 6.7124 3.22301V12.7006H13.1322C12.4316 10.0709 12.7491 9.15528 12.7491 8.00026Z" fill="#FE646F"/>
<path d="M5.75965 2.24438C5.24706 2.29751 4.75376 2.41439 4.28809 2.58626V4.81286H5.75965V2.24438Z" fill="#FE646F"/>
<path d="M13.1081 12.6766C11.3723 10.9791 11.4112 8.00026 11.4112 8.00026C11.4112 5.30616 9.16513 3.12207 6.39457 3.12207C3.62401 3.12207 1.37793 5.30616 1.37793 8.00026C1.37793 9.74904 1.9789 11.1862 2.80515 12.3356C4.46761 14.6482 7.20893 16.0004 10.1103 16.0004H11.6763C12.786 16.0004 13.6852 15.1257 13.6852 14.0469C13.6852 13.5341 13.4799 13.0403 13.1081 12.6766Z" fill="#FE99A0"/>
<path d="M13.108 12.6766C11.3723 10.9791 11.4112 8.00026 11.4112 8.00026C11.4112 5.30616 9.1651 3.12207 6.39454 3.12207C6.13294 3.12207 5.87616 3.14176 5.62549 3.17926C8.03097 3.53926 9.87276 5.56054 9.87276 8.00026C9.87276 8.00026 9.83387 10.9791 11.5696 12.6766C11.9414 13.04 12.1468 13.5341 12.1468 14.0466C12.1468 15.1257 11.2473 16.0001 10.1379 16.0001H11.6763C12.786 16.0001 13.6852 15.1254 13.6852 14.0466C13.6852 13.5341 13.4799 13.0403 13.108 12.6766Z" fill="#FD8087"/>
<path d="M4.28805 2.58643C4.17236 2.62924 4.05827 2.67518 3.94611 2.72455C3.87219 2.75705 3.79249 2.77518 3.71151 2.77518H3.4393C3.10893 2.77518 2.78595 2.82987 2.48193 2.93299V4.81333H4.28773V2.58643H4.28805Z" fill="#0573CE"/>
<path d="M12.4508 9.26196H15.1496L13.51 10.9939L14.297 11.612L11.4092 13.9189L12.1586 11.8957L11.4092 11.2245L12.4508 9.26196Z" fill="#FFE177"/>
<path d="M7.60964 13.8532C7.36957 13.7701 7.13593 13.6757 6.90904 13.5707C7.01317 13.5498 7.11954 13.5195 7.22624 13.476C7.349 13.426 7.40685 13.2888 7.35543 13.1692C7.30401 13.0498 7.16293 12.9935 7.03984 13.0435C6.55296 13.242 6.04969 13.0782 5.96549 13.0479C5.56892 12.7879 5.20094 12.4907 4.86575 12.1595C5.18487 12.2513 5.57309 12.3166 6.03266 12.3166C6.23062 12.3166 6.44209 12.3045 6.66673 12.2773C6.79881 12.2613 6.89265 12.1441 6.87626 12.0157C6.85987 11.8873 6.73904 11.796 6.60727 11.812C6.28076 11.8516 5.98831 11.8545 5.7296 11.8354C5.80673 11.7723 5.90057 11.7151 6.01048 11.6835C6.13807 11.6466 6.21102 11.5163 6.1731 11.3923C6.13518 11.2682 6.00116 11.1976 5.87358 11.2341C5.52103 11.3357 5.28354 11.5845 5.15884 11.7491C4.97438 11.7057 4.81787 11.6532 4.69124 11.6013C4.33677 11.456 4.13655 11.2894 4.08642 11.2451C3.65257 10.6369 3.33955 9.98756 3.15669 9.31505C3.12262 9.19004 2.99054 9.11536 2.86199 9.14848C2.73344 9.18161 2.65663 9.30973 2.6907 9.43505C2.88995 10.1679 3.23092 10.8735 3.70431 11.5323C4.62279 12.8098 5.91728 13.7654 7.44799 14.2954C7.47466 14.3048 7.50198 14.3092 7.52897 14.3092C7.62795 14.3092 7.72083 14.2492 7.75618 14.1532C7.80053 14.0307 7.73529 13.8967 7.60964 13.8532Z" fill="#528FD8"/>
<path d="M10.3221 10.0688C9.55791 9.71134 9.07777 8.62883 8.991 8.41914C8.98779 8.2807 8.9865 8.14007 8.98811 7.99663C8.99807 6.93162 8.52533 5.90098 7.6904 5.1694C7.59142 5.08284 7.43909 5.09034 7.35007 5.18659C7.26105 5.28284 7.26876 5.43097 7.36775 5.51753C7.53807 5.66691 7.69105 5.83035 7.8257 6.00504C7.87809 6.18879 8.09726 7.10912 7.49887 7.85663C7.41724 7.95882 7.43588 8.10601 7.54097 8.18538C7.58499 8.21882 7.63706 8.23476 7.6888 8.23476C7.76046 8.23476 7.83181 8.20382 7.87905 8.14445C8.1715 7.77882 8.30873 7.38756 8.36272 7.03256C8.45945 7.34225 8.50894 7.66569 8.50573 7.99288C8.48677 9.9951 8.89909 11.5401 9.73177 12.5848C9.77933 12.6445 9.85036 12.6754 9.92234 12.6754C9.97408 12.6754 10.0258 12.6595 10.0699 12.6264C10.1749 12.547 10.1942 12.3998 10.1126 12.2976C9.57397 11.6217 9.22721 10.7032 9.07552 9.55728C9.33391 9.92041 9.68067 10.2895 10.1129 10.4917C10.1467 10.5073 10.182 10.5148 10.217 10.5148C10.3067 10.5148 10.3928 10.4657 10.4343 10.382C10.4925 10.2648 10.442 10.1248 10.3221 10.0688Z" fill="#FE646F"/>
<path d="M14.2007 7.30256C14.1149 7.30256 14.0317 7.25787 13.9883 7.17912C13.9253 7.06506 13.969 6.92287 14.0863 6.86162C14.0876 6.86099 14.0885 6.86037 14.0895 6.85974C14.0953 6.84818 14.1033 6.81537 14.1085 6.79318C14.1326 6.6913 14.1724 6.52099 14.372 6.41661C14.5712 6.31223 14.7396 6.37348 14.8402 6.41036C14.8621 6.41849 14.8946 6.43005 14.9077 6.43161C14.9084 6.4313 14.9097 6.43067 14.9109 6.43005C14.9122 6.42942 14.9132 6.4288 14.9142 6.42817C14.9203 6.41661 14.928 6.3838 14.9331 6.36161C14.9572 6.25973 14.9971 6.08942 15.1966 5.98504C15.3139 5.92379 15.4602 5.96629 15.5232 6.08036C15.5861 6.19442 15.5424 6.33661 15.4251 6.39786C15.4239 6.39848 15.4229 6.39911 15.4219 6.39973C15.4158 6.4113 15.4081 6.44411 15.403 6.4663C15.3789 6.56817 15.339 6.73849 15.1394 6.84287C14.9402 6.94724 14.7718 6.88599 14.6712 6.84912C14.6493 6.84099 14.6169 6.82943 14.6037 6.82787C14.6031 6.82818 14.6018 6.8288 14.6005 6.82943C14.5992 6.83005 14.5982 6.83068 14.5973 6.8313C14.5915 6.84287 14.5835 6.87568 14.5783 6.89787C14.5542 6.99974 14.5144 7.17006 14.3148 7.27443C14.2782 7.2935 14.2393 7.30256 14.2007 7.30256Z" fill="#FD8087"/>
<path d="M13.4737 6.36579C13.3878 6.36579 13.3046 6.3211 13.2612 6.24235C13.1982 6.12829 13.2419 5.98641 13.3592 5.92485C13.3605 5.92422 13.3615 5.9236 13.3625 5.92297C13.3686 5.91141 13.3763 5.8786 13.3814 5.85641C13.4055 5.75453 13.4454 5.58422 13.6449 5.47984C13.8442 5.37547 14.0126 5.43672 14.1132 5.47359C14.135 5.48172 14.1675 5.49328 14.1807 5.49484C14.1813 5.49453 14.1826 5.49391 14.1839 5.49328C14.1852 5.49266 14.1865 5.49203 14.1871 5.49141C14.1929 5.47984 14.2009 5.44703 14.2061 5.42484C14.2302 5.32297 14.27 5.15265 14.4696 5.04827C14.5869 4.98702 14.7331 5.02952 14.7961 5.14359C14.8591 5.25765 14.8154 5.39953 14.6981 5.46109C14.6968 5.46172 14.6958 5.46234 14.6949 5.46297C14.6888 5.47453 14.6811 5.50734 14.6759 5.52953C14.6518 5.63141 14.612 5.80172 14.4124 5.9061C14.2131 6.01048 14.0447 5.94922 13.9441 5.91235C13.9223 5.90422 13.8898 5.89266 13.8767 5.8911C13.876 5.89141 13.8747 5.89204 13.8734 5.89266C13.8722 5.89329 13.8712 5.89391 13.8702 5.89454C13.8644 5.9061 13.8564 5.93891 13.8513 5.9611C13.8272 6.06298 13.7873 6.23329 13.5877 6.33767C13.5514 6.35673 13.5122 6.36579 13.4737 6.36579Z" fill="#FD8087"/>
<path d="M15.3085 8.53922C15.2642 8.53922 15.2163 8.53297 15.1649 8.51797C14.9479 8.45454 14.8737 8.29547 14.829 8.20047C14.8194 8.17984 14.8049 8.14891 14.7969 8.13891C14.7963 8.13859 14.795 8.13828 14.7937 8.13766C14.7924 8.13703 14.7911 8.13703 14.7901 8.13672C14.7776 8.14078 14.7484 8.15859 14.7284 8.17078C14.6375 8.22609 14.4852 8.31922 14.2686 8.25578C14.141 8.21859 14.0687 8.08797 14.1069 7.9639C14.1452 7.83984 14.2798 7.76953 14.4071 7.80671C14.4087 7.80703 14.4096 7.80734 14.4106 7.80765C14.4231 7.80359 14.4527 7.78578 14.4723 7.77359C14.5633 7.71796 14.7156 7.62515 14.9325 7.68859C15.1494 7.75203 15.2237 7.91109 15.2684 8.00609C15.278 8.02672 15.2925 8.05765 15.3005 8.06765C15.3011 8.06797 15.3024 8.06828 15.3037 8.0689C15.3053 8.06922 15.3063 8.06953 15.3072 8.06984C15.3198 8.06578 15.3493 8.04797 15.3689 8.03578C15.4599 7.98015 15.6122 7.88734 15.8291 7.95078C15.9567 7.98797 16.029 8.11859 15.9905 8.24266C15.9522 8.36672 15.8176 8.43703 15.6903 8.39953C15.6887 8.39922 15.6877 8.39891 15.6868 8.3986C15.6742 8.40266 15.6447 8.42047 15.6251 8.43266C15.5553 8.47516 15.4506 8.53922 15.3085 8.53922Z" fill="#FD8087"/>
<path d="M0.68459 13.3752C0.559255 13.3752 0.461557 13.3249 0.395033 13.2908C0.374144 13.2802 0.343613 13.2643 0.330758 13.2611C0.330116 13.2614 0.32883 13.2618 0.327545 13.2624C0.203173 13.3089 0.0640184 13.2483 0.0161338 13.1274C-0.0317508 13.0064 0.0305956 12.8711 0.154967 12.8246C0.366431 12.7458 0.525189 12.8274 0.620316 12.8761C0.641205 12.8868 0.671736 12.9027 0.68459 12.9055C0.685233 12.9052 0.686519 12.9049 0.687804 12.9043C0.68909 12.9036 0.690375 12.9033 0.691018 12.903C0.698409 12.8924 0.7103 12.8608 0.718335 12.8393C0.755293 12.7411 0.817639 12.5774 1.02878 12.4986C1.24024 12.4199 1.399 12.5014 1.49413 12.5502C1.51502 12.5608 1.54555 12.5768 1.5584 12.5799C1.55937 12.5796 1.56033 12.5793 1.56162 12.5786C1.68599 12.5324 1.82547 12.5927 1.87303 12.7136C1.92059 12.8346 1.85857 12.9699 1.7342 13.0164C1.52273 13.0952 1.36397 13.0136 1.26885 12.9649C1.24796 12.9543 1.21743 12.9383 1.20457 12.9355C1.20361 12.9358 1.20264 12.9361 1.20136 12.9368C1.20007 12.9374 1.19879 12.9377 1.19815 12.938C1.19075 12.9486 1.17886 12.9802 1.17083 13.0018C1.13387 13.0999 1.07152 13.2639 0.860382 13.3427C0.797071 13.3661 0.73826 13.3752 0.68459 13.3752Z" fill="#FD8087"/>
<path d="M1.24535 14.9655C1.21257 14.9655 1.17915 14.9589 1.14734 14.9452C1.02586 14.8924 0.971223 14.7539 1.02521 14.6358C1.11745 14.4345 1.28906 14.383 1.39158 14.3524C1.41408 14.3458 1.44718 14.3358 1.45842 14.3289C1.45875 14.3283 1.45939 14.327 1.46003 14.3258C1.46067 14.3245 1.461 14.3233 1.46132 14.3227C1.45875 14.3102 1.44428 14.2792 1.43432 14.2586C1.38933 14.1639 1.31381 14.0052 1.40604 13.8039C1.49828 13.603 1.66989 13.5514 1.77273 13.5205C1.7949 13.5139 1.82833 13.5039 1.83957 13.4973C1.8399 13.4967 1.84054 13.4958 1.84118 13.4942C1.89549 13.3761 2.03786 13.323 2.15934 13.3755C2.28082 13.4283 2.33545 13.5667 2.28146 13.6848C2.18923 13.8858 2.01761 13.9374 1.91478 13.9683C1.89228 13.9749 1.85918 13.9849 1.84793 13.9914C1.84761 13.992 1.84697 13.9933 1.84632 13.9945C1.84568 13.9958 1.84536 13.997 1.84504 13.9977C1.84761 14.0102 1.86207 14.0411 1.87203 14.0617C1.91702 14.1564 1.99255 14.3152 1.90031 14.5164C1.80808 14.7174 1.63647 14.7689 1.53363 14.7999C1.51113 14.8064 1.47803 14.8164 1.46678 14.8233C1.46646 14.8239 1.46582 14.8252 1.46517 14.8264C1.42564 14.9139 1.33759 14.9655 1.24535 14.9655Z" fill="#FD8087"/>
<path d="M2.46717 15.8292C2.45817 15.8292 2.44917 15.8285 2.43985 15.8276C2.30744 15.8132 2.21232 15.6973 2.2271 15.5685C2.25249 15.3498 2.4 15.2501 2.48806 15.1904C2.50734 15.1773 2.53594 15.1582 2.54462 15.1485C2.54462 15.1476 2.54494 15.1467 2.54526 15.1451C2.54526 15.1435 2.54558 15.1426 2.54558 15.1417C2.53915 15.1304 2.51569 15.1054 2.49995 15.0885C2.42764 15.0113 2.30616 14.8823 2.33155 14.6635C2.35693 14.4448 2.50445 14.3451 2.5925 14.2854C2.61178 14.2723 2.64039 14.2532 2.64906 14.2435C2.64906 14.2429 2.64938 14.2416 2.64971 14.2401C2.66449 14.1116 2.78404 14.0188 2.91612 14.0332C3.04853 14.0476 3.14366 14.1635 3.12887 14.2923C3.10349 14.511 2.95597 14.6107 2.8676 14.6704C2.84831 14.6835 2.81971 14.7026 2.81104 14.7123C2.81104 14.7129 2.81071 14.7142 2.81039 14.7157C2.81039 14.7173 2.81007 14.7182 2.81007 14.7192C2.8165 14.7304 2.83996 14.7554 2.85571 14.7723C2.92802 14.8495 3.04949 14.9785 3.02411 15.1973C2.99872 15.416 2.85121 15.5157 2.76315 15.5754C2.74387 15.5885 2.71527 15.6076 2.70659 15.6173C2.70659 15.6182 2.70627 15.6192 2.70595 15.6207C2.69245 15.7407 2.588 15.8292 2.46717 15.8292ZM2.81136 14.711C2.81136 14.7113 2.81136 14.7113 2.81136 14.711V14.711Z" fill="#FD8087"/>
<path d="M0.575684 8.00005C0.575684 8.39787 0.603964 8.78975 0.660205 9.17507C0.783291 10.0166 1.80397 10.4157 2.48464 9.88226C3.25497 9.27882 4.08765 8.92256 4.70212 8.72068C5.25295 8.53974 5.62575 8.03974 5.62575 7.4741V4.99938C5.62575 4.27375 5.0206 3.6853 4.27437 3.6853H3.43944C2.86161 3.6853 2.31303 3.93281 1.9412 4.36281C1.08924 5.34689 0.575684 6.61628 0.575684 8.00005Z" fill="#FFC4C8"/>
<path d="M4.58165 3.72021C4.60479 3.81615 4.61732 3.91615 4.61732 4.01928V6.494C4.61732 7.05964 4.24453 7.55964 3.69369 7.74058C3.07923 7.94246 2.24655 8.29871 1.47622 8.90216C1.22747 9.09685 0.933737 9.16685 0.654785 9.13685C0.656713 9.14966 0.65832 9.16279 0.660249 9.1756C0.783335 10.0172 1.80402 10.4162 2.48469 9.8828C3.25502 9.27935 4.0877 8.9231 4.70216 8.72122C5.253 8.54028 5.62579 8.04027 5.62579 7.47464V4.99992C5.62547 4.37679 5.17972 3.85553 4.58165 3.72021Z" fill="#FDB4BA"/>
</svg>
