<svg width="18" height="21" viewBox="0 0 18 21" fill="none" xmlns="http://www.w3.org/2000/svg">
<path d="M11.3371 9.37741C11.1271 9.36686 10.8883 9.60189 10.8895 9.81932C10.8906 10.0579 11.0994 10.2806 11.3209 10.2776C11.5309 10.2747 11.7316 10.0608 11.7339 9.83691C11.7362 9.61595 11.5389 9.38738 11.3371 9.37741Z" fill="#797979"/>
<path d="M17.9974 13.1014C18.0003 11.4492 16.774 10.4816 15.5806 10.4658C15.2686 10.4617 15.2345 10.3615 15.2362 10.0919C15.2472 8.45081 15.2414 6.81035 15.2414 5.1693C15.2414 4.74849 15.4464 4.53789 15.8563 4.5375C16.436 4.5375 16.5554 4.415 16.556 3.81192C16.5571 2.77689 16.5571 1.74127 16.556 0.706236C16.5554 0.131284 16.425 0 15.8586 0C13.3299 0 10.8018 0 8.27366 0C5.77495 0 3.27566 0 0.776377 0C0.107862 0 0 0.107254 0 0.774223C0 1.72134 0 2.66905 0 3.61617C0 4.4912 0.0455674 4.53515 0.910772 4.53867C1.35837 4.54043 1.31799 4.48651 1.31799 4.94073C1.31915 9.24789 1.31799 13.5551 1.31915 17.8622C1.31915 18.4184 1.45066 18.5497 1.99978 18.5497C4.17202 18.5497 6.34426 18.5526 8.51707 18.545C8.72761 18.5444 8.84008 18.5937 8.92257 18.807C9.67645 20.7505 11.9462 21.5763 13.7573 20.5682C13.9252 20.4744 14.0405 20.4867 14.1997 20.5875C14.7944 20.9644 15.4393 21.0916 16.1257 20.9093C17.2637 20.6069 17.983 19.6474 17.9934 18.375C18.0072 16.6174 17.9945 14.8591 17.998 13.1008L17.9974 13.1014ZM15.7715 11.3437C16.4879 11.4229 17.1074 12.149 17.1201 12.9315C17.1253 13.2726 17.1212 13.6142 17.1212 13.9553C17.1212 14.3357 17.1166 14.7161 17.1241 15.0965C17.127 15.2494 17.0728 15.2993 16.924 15.2975C16.2906 15.2905 15.6573 15.291 15.024 15.2946C14.908 15.2951 14.8256 15.2617 14.7546 15.1668C14.6087 14.9716 14.4397 14.7888 14.2338 14.6674C13.9615 14.508 13.8946 14.2894 13.9194 13.9911C13.9575 13.5369 13.879 13.078 13.9782 12.6238C14.1628 11.7792 14.9006 11.2476 15.7715 11.3432V11.3437ZM13.0882 0.902576C13.4914 0.907851 13.8946 0.904334 14.2972 0.904334C14.6906 0.904334 15.084 0.908437 15.4774 0.90199C15.6256 0.899646 15.6792 0.95298 15.6781 1.10536C15.6729 1.88545 15.6729 2.66553 15.6781 3.44561C15.6792 3.60444 15.6083 3.64664 15.4699 3.64664C14.6733 3.6443 13.8767 3.64371 13.0802 3.64664C12.9342 3.64664 12.8789 3.58979 12.88 3.43799C12.8852 2.65791 12.8858 1.87783 12.88 1.09774C12.8789 0.936569 12.9487 0.900818 13.0882 0.90199V0.902576ZM8.97275 0.901404C9.43361 0.910195 9.89505 0.904334 10.3565 0.904334C10.8179 0.904334 11.2788 0.911367 11.7402 0.900818C11.9341 0.896129 12.0177 0.95298 12.0154 1.1628C12.0073 1.90479 12.009 2.64678 12.0142 3.38876C12.0154 3.57338 11.9519 3.65074 11.7627 3.64957C10.8306 3.64371 9.89852 3.64371 8.96698 3.64957C8.78356 3.65074 8.71146 3.58921 8.71319 3.39697C8.72068 2.64502 8.72126 1.89365 8.71319 1.1417C8.71088 0.938914 8.79798 0.898474 8.9739 0.90199L8.97275 0.901404ZM4.54751 1.17745C4.54578 0.985801 4.59539 0.897887 4.80592 0.900232C5.73688 0.909609 6.66784 0.909609 7.59823 0.900232C7.79607 0.898473 7.83702 0.977009 7.83529 1.1587C7.82722 1.89951 7.82549 2.64091 7.83587 3.38173C7.83875 3.58686 7.773 3.65485 7.57342 3.65016C7.11313 3.63961 6.65227 3.64664 6.1914 3.64664C5.74034 3.64664 5.28928 3.63961 4.83822 3.65016C4.63461 3.65485 4.5429 3.59565 4.54578 3.37118C4.55501 2.63974 4.55271 1.9083 4.54694 1.17745H4.54751ZM1.08208 3.64723C0.936151 3.64723 0.880201 3.59038 0.881355 3.43858C0.886546 2.6585 0.887123 1.87841 0.881355 1.09833C0.880201 0.937155 0.950571 0.900818 1.09016 0.902576C1.49334 0.907851 1.89653 0.904334 2.29914 0.904334C2.69252 0.904334 3.0859 0.908437 3.47928 0.90199C3.62751 0.899646 3.68058 0.952394 3.68 1.10536C3.67423 1.88545 3.67423 2.66553 3.68 3.44561C3.68116 3.60444 3.61136 3.64723 3.47235 3.64664C2.67579 3.6443 1.87922 3.64371 1.08266 3.64664L1.08208 3.64723ZM8.6457 17.3588C8.63935 17.5868 8.57994 17.66 8.35326 17.6588C6.40251 17.6512 4.45119 17.6518 2.50044 17.6583C2.28414 17.6588 2.20108 17.6055 2.20108 17.3646C2.208 13.1846 2.208 9.00525 2.20108 4.82527C2.20108 4.58849 2.27549 4.53339 2.4964 4.53398C6.3506 4.53984 10.2042 4.54043 14.0584 4.53281C14.3059 4.53281 14.3595 4.61369 14.3584 4.8493C14.3497 6.73416 14.3514 8.61902 14.3572 10.5039C14.3572 10.6768 14.3157 10.7823 14.1634 10.8813C13.8663 11.0747 13.6495 11.3625 13.3893 11.6954C13.3893 11.5207 13.3893 11.4164 13.3893 11.3121C13.3893 10.2378 13.3922 9.16349 13.3876 8.08919C13.3859 7.66545 13.2169 7.49607 12.8154 7.49607C9.78777 7.49548 6.76071 7.49548 3.73307 7.49607C3.35872 7.49607 3.17588 7.66428 3.17357 8.04113C3.16665 9.22269 3.16665 10.4042 3.17357 11.5858C3.17645 12.0195 3.33219 12.1637 3.7521 12.1637C6.76994 12.1643 9.78777 12.1637 12.8056 12.1637H13.1973C13.0075 12.7082 13.0905 13.2755 13.0796 13.8364C13.0761 14.011 13.0559 14.0708 12.8517 14.0251C10.7233 13.5521 8.70569 15.151 8.6457 17.3582V17.3588ZM12.5051 11.0149C12.5091 11.2423 12.4497 11.3121 12.2184 11.3103C10.9022 11.2992 9.58589 11.3051 8.26962 11.3051C6.96317 11.3051 5.65613 11.301 4.34967 11.3092C4.13972 11.3103 4.0457 11.2763 4.04858 11.0273C4.05723 10.2823 4.0457 10.2823 4.78689 10.2823C6.41059 10.2823 8.03429 10.2829 9.65857 10.2817C10.0035 10.2817 10.1938 10.1528 10.2284 9.91134C10.2717 9.6095 10.0698 9.38738 9.72548 9.38093C9.26461 9.37273 8.80317 9.378 8.34172 9.378C7.01565 9.378 5.68958 9.37273 4.36409 9.38269C4.13625 9.38445 4.04454 9.33873 4.04916 9.08203C4.06127 8.39337 4.04916 8.39337 4.73382 8.39337C7.20312 8.39337 9.67241 8.39806 12.1417 8.38692C12.4295 8.38575 12.5178 8.45843 12.5085 8.76026C12.4849 9.51104 12.4924 10.2636 12.5057 11.0149H12.5051ZM12.1013 20.1093C10.6276 20.0935 9.4861 18.9049 9.52302 17.4027C9.55705 16.0119 10.6213 14.831 12.1169 14.8134C13.5191 14.797 14.7431 15.9434 14.7344 17.4725C14.7258 19.0567 13.4539 20.1239 12.1007 20.1087L12.1013 20.1093ZM17.0641 18.9266C16.804 19.9012 15.7704 20.3924 14.8682 19.978C14.7315 19.9153 14.6698 19.8707 14.795 19.7137C15.591 18.7138 15.794 17.5926 15.422 16.3648C15.3747 16.2083 15.3908 16.1397 15.5789 16.145C16.0207 16.1567 16.4631 16.1567 16.9049 16.1426C17.0953 16.1368 17.1276 16.2194 17.1236 16.3847C17.1149 16.7557 17.1207 17.1267 17.1207 17.5868C17.0849 17.973 17.1893 18.4559 17.0641 18.926V18.9266Z" fill="#797979"/>
<path d="M12.5397 16.1356C12.5362 15.8285 12.3724 15.6439 12.1232 15.6474C11.8798 15.6509 11.6976 15.8472 11.6958 16.135C11.6906 17.0212 11.6912 17.9073 11.6958 18.7935C11.697 19.0895 11.8977 19.3122 12.1371 19.3057C12.3661 19.2999 12.5362 19.0907 12.5397 18.7941C12.5443 18.3557 12.5408 17.9179 12.5414 17.4795C12.5414 17.0317 12.5455 16.5834 12.5403 16.1356H12.5397Z" fill="#797979"/>
</svg>
