<svg width="34" height="22" viewBox="0 0 34 22" fill="none" xmlns="http://www.w3.org/2000/svg">
<path d="M11.9531 9.36719L11.9536 13.2344C11.9536 15.9354 14.2177 18.1328 17.0005 18.1328C19.7834 18.1328 22.0474 15.9354 22.0474 13.2344L22.0469 9.36719C22.0469 6.6662 19.7828 4.46875 17 4.46875C14.2174 4.46875 11.9531 6.6662 11.9531 9.36719Z" fill="white"/>
<path d="M24.0398 9.36719L24.0403 13.2344C24.0403 15.1539 23.2204 16.8906 21.9026 18.1328H30.0169V4.46875H21.9023C23.2198 5.71098 24.0398 7.44769 24.0398 9.36719ZM26.0325 10.334H28.0247V12.2676H26.0325V10.334Z" fill="white"/>
<path d="M9.96094 13.2344L9.96042 9.36719C9.96042 7.44769 10.7806 5.71098 12.0981 4.46875H3.98438V18.1328H12.0986C10.7809 16.8906 9.96094 15.1539 9.96094 13.2344ZM7.96875 12.2676H5.97656V10.334H7.96875V12.2676Z" fill="white"/>
<path d="M0 0.601562V22H34V0.601562H0ZM32.0078 20.0664H1.99219V2.53516H32.0078V20.0664Z" fill="white"/>
</svg>
