<svg width="17" height="17" viewBox="0 0 17 17" fill="none" xmlns="http://www.w3.org/2000/svg">
<path d="M15.1157 15.6059C15.1157 16.4945 8.80737 16.4945 8.80737 15.6059C8.80772 15.2515 15.1157 15.2515 15.1157 15.6059Z" fill="#A88B79"/>
<path d="M16.6959 15.8599H15.7059C15.5126 14.7527 15.5309 13.7203 15.4925 12.8009C15.4809 12.5128 15.3108 11.6631 15.3108 11.6631L16.4825 11.5303C16.4825 11.5303 16.724 12.2667 16.7557 12.5207C16.8608 13.3482 16.6959 15.8599 16.6959 15.8599Z" fill="#F8BC80"/>
<path d="M16.5939 13.0988C15.644 13.162 15.9389 14.9536 15.7238 15.86H15.7055C15.5104 14.7529 15.5287 13.7205 15.4903 12.7994C15.4787 12.513 15.3086 11.6633 15.3086 11.6633L15.4935 11.6421C15.6173 12.3266 15.5807 13.1668 16.5939 13.0988Z" fill="#ECA065"/>
<path d="M15.6907 12.6586C15.5325 12.6538 15.3789 12.6261 15.2407 12.5729C15.1926 12.5534 15.1606 12.5015 15.1641 12.4466C15.1672 12.3899 15.2059 12.3431 15.2558 12.3315L16.8575 11.9478C16.9092 11.9365 16.9609 11.9608 16.9858 12.0109C17.0108 12.0611 17.001 12.1226 16.9626 12.1615C16.6455 12.4872 16.1474 12.6715 15.6907 12.6586Z" fill="#A88B79"/>
<path d="M7.31917 15.8599H8.30915C8.50251 14.7527 8.48422 13.7203 8.52254 12.8009C8.53415 12.5128 8.7043 11.6631 8.7043 11.6631L7.53257 11.5303C7.53257 11.5303 7.29105 12.2667 7.25941 12.5207C7.15253 13.3482 7.31917 15.8599 7.31917 15.8599Z" fill="#F8BC80"/>
<path d="M7.41943 13.0988C8.36933 13.162 8.07438 14.9536 8.28953 15.86H8.30781C8.50293 14.7529 8.48464 13.7205 8.52296 12.7994C8.53457 12.513 8.70472 11.6633 8.70472 11.6633L8.5198 11.6421C8.39746 12.3266 8.43261 13.1668 7.41943 13.0988Z" fill="#ECA065"/>
<path d="M8.23611 12.6586C8.39431 12.6538 8.54794 12.6261 8.6861 12.5729C8.73426 12.5534 8.76625 12.5015 8.76274 12.4466C8.75957 12.3899 8.7209 12.3431 8.67098 12.3315L7.0693 11.9478C7.01762 11.9365 6.96594 11.9608 6.94098 12.0109C6.91602 12.0611 6.92586 12.1226 6.96418 12.1615C7.28093 12.4872 7.77944 12.6715 8.23611 12.6586Z" fill="#A88B79"/>
<path d="M16.9406 12.045C16.5373 12.4414 15.7804 12.6421 15.219 12.4625L14.8509 10.5756L15.1142 15.6075C15.1142 16.166 8.80593 16.166 8.80593 15.6075L9.06924 10.5756L8.70081 12.4629C8.13903 12.6407 7.38248 12.4417 6.97925 12.0454C6.97925 12.0454 7.85603 7.90046 8.3693 7.42797C8.71593 7.10911 10.4593 6.63184 10.4593 6.63184H13.4577C13.4577 6.63184 15.2011 7.10945 15.5477 7.42797C16.0624 7.90012 16.9406 12.045 16.9406 12.045Z" fill="#CAB1AC"/>
<path d="M15.0091 11.6438C15.0959 13.1278 15.1441 14.1199 15.1156 15.6057C14.9057 13.7703 14.8073 12.4187 14.7623 10.5738C14.7574 10.4718 14.924 10.4588 14.9374 10.5609C14.9374 10.5656 14.9391 10.5673 14.9391 10.5721V10.5769C15.0309 11.1354 15.1557 11.9104 15.219 12.4641C15.1525 12.2231 15.0808 11.9367 15.0091 11.6438Z" fill="#A88B79"/>
<path d="M9.15755 10.5805V10.5935C9.11255 12.4336 9.01587 13.777 8.80599 15.6058C8.77928 14.1184 8.82427 13.1263 8.91251 11.6405C8.84256 11.914 8.77576 12.1909 8.70264 12.4643C8.73779 12.1455 8.78771 11.8283 8.83095 11.5111L8.98247 10.5627C8.99935 10.4542 9.16915 10.4736 9.15755 10.5805Z" fill="#A88B79"/>
<path d="M13.686 6.69607C13.686 8.16885 10.2375 8.16885 10.2375 6.69607C11.0257 6.4308 11.6174 6.07951 11.6174 5.2605H12.3057C12.3057 6.08121 12.8725 6.45334 13.686 6.69607Z" fill="#F8BC80"/>
<path d="M13.6842 6.69601C13.6842 7.13607 13.3758 7.44538 12.9441 7.62188C12.9441 7.62188 13.2841 7.31428 13.269 7.21391C13.2257 6.9227 12.2906 7.55394 12.209 7.47303C12.1025 7.36788 12.5739 7.16236 12.524 6.9681C12.4639 6.73493 11.7274 6.98108 11.6606 7.00224C11.2338 7.13163 10.3623 6.84042 11.2739 6.13646C11.4222 6.12827 11.8304 6.04429 11.9355 5.94221C12.0389 5.84013 12.1138 5.71416 12.189 5.59091C12.2291 5.52605 12.2674 5.44684 12.3089 5.3772C12.3609 6.11359 12.9107 6.46318 13.6842 6.69601Z" fill="#ECA065"/>
<path d="M13.9041 6.7608C13.6176 7.59927 12.764 7.98744 11.9607 7.98744C11.1574 7.98744 10.3074 7.60064 10.0173 6.76388C10.1105 6.73486 10.1956 6.70891 10.2641 6.68945C10.5208 7.40809 11.2625 7.73993 11.9607 7.73993C12.6589 7.73993 13.4007 7.40639 13.6608 6.68945C13.729 6.70891 13.8092 6.73315 13.9041 6.7608Z" fill="#A88B79"/>
<path d="M14.0509 4.39958C14.001 4.94821 13.5777 4.76215 13.5777 4.76215C13.5777 5.58423 12.8595 6.379 11.9743 6.379C11.1126 6.379 10.4626 5.64909 10.4278 4.85262C10.1096 4.87208 9.9929 4.6471 9.9929 4.6471C9.79638 4.16334 10.168 4.06604 10.168 4.06604C10.4162 2.63525 11.0996 2.54785 11.0996 2.54785C12.0945 3.23235 13.4729 2.80048 13.4729 2.80048C13.4828 3.67446 13.7746 4.05648 13.7746 4.05648C14.0727 4.04999 14.0509 4.39958 14.0509 4.39958Z" fill="#F8BC80"/>
<path d="M13.776 4.05648C13.776 4.05648 13.4828 3.67446 13.4726 2.80049C13.4726 2.80049 12.0959 3.23099 11.0975 2.54786C10.6275 2.0542 10.7108 1.66432 10.7108 1.66432C10.7108 1.66432 11.7858 0.453731 13.1376 1.30517C13.2975 1.40384 14.5526 2.26006 13.776 4.05648Z" fill="#552817"/>
<path d="M11.0991 2.54808C11.0991 2.54808 10.4157 2.63548 10.1675 4.06627C10.1675 4.06627 9.22741 2.25038 10.7124 1.66284C10.7124 1.6625 10.6291 2.05442 11.0991 2.54808Z" fill="#552817"/>
<path d="M9.40755 12.5323C9.57243 12.9789 9.67754 13.4452 9.72078 13.9177C9.77914 14.5571 9.85895 15.3758 9.9623 15.8599H11.2321C11.2553 14.9132 11.1938 13.9017 11.0254 13.3821C10.9203 13.0584 10.8753 12.7201 10.8721 12.3801C10.8623 11.1855 10.7403 10.1886 10.3205 9.70966C9.74891 8.98625 8.34902 10.0268 8.92065 10.7502C9.04088 11.3866 9.20435 11.9789 9.40755 12.5323Z" fill="#F8BC80"/>
<path d="M10.1894 15.8599H9.96122C9.85786 15.3762 9.77806 14.5572 9.71794 13.916C9.67611 13.4449 9.56959 12.9789 9.40611 12.5324C9.20292 11.979 9.03944 11.3866 8.91781 10.7503C8.72269 10.5028 8.75961 10.2194 8.91288 9.98145C9.11784 10.1095 9.24967 10.3423 9.2662 10.5867C9.2778 10.7615 9.30803 10.9831 9.37448 11.2016C9.51615 11.6662 9.83958 12.2179 9.94435 12.2811C10.0477 12.3442 10.4745 12.4835 10.4745 12.4835C10.4745 12.4835 9.99602 12.6358 10.0094 13.0485C10.021 13.4644 9.98442 13.9403 10.0094 14.2673C10.0393 14.5944 10.2295 15.7306 10.1894 15.8599Z" fill="#ECA065"/>
<path d="M2.82963 12.5323C2.66475 12.9789 2.55964 13.4452 2.5164 13.9177C2.45804 14.5571 2.37823 15.3758 2.27488 15.8599H1.00471C0.981508 14.9132 1.04303 13.9017 1.21142 13.3821C1.31654 13.0584 1.36154 12.7201 1.3647 12.3801C1.37455 11.1855 1.49654 10.1886 1.91629 9.70966C2.48792 8.98625 3.88781 10.0268 3.31618 10.7502C3.1963 11.3866 3.03283 11.9789 2.82963 12.5323Z" fill="#F8BC80"/>
<path d="M2.0461 15.8599H2.27426C2.37761 15.3762 2.45742 14.5572 2.51753 13.916C2.55937 13.4449 2.66589 12.9789 2.82936 12.5324C3.03256 11.979 3.19603 11.3866 3.31767 10.7503C3.51278 10.5028 3.47587 10.2194 3.32259 9.98145C3.11764 10.1095 2.9858 10.3423 2.96928 10.5867C2.95768 10.7615 2.92745 10.9831 2.861 11.2016C2.71932 11.6662 2.39589 12.2179 2.29113 12.2811C2.18777 12.3442 1.76099 12.4835 1.76099 12.4835C1.76099 12.4835 2.23945 12.6358 2.22609 13.0485C2.21449 13.4644 2.25105 13.9403 2.22609 14.2673C2.19797 14.5944 2.00778 15.7306 2.0461 15.8599Z" fill="#ECA065"/>
<path d="M3.03955 15.8163C3.82774 16.258 8.40779 16.258 9.19598 15.8163C9.19598 15.1836 3.03955 15.1836 3.03955 15.8163Z" fill="#9D1820"/>
<path d="M3.03098 10.4448L3.20113 11.7397C3.34949 12.8677 3.31785 14.2223 3.11113 15.3425C3.08125 15.5012 3.0577 15.6596 3.03625 15.8184C3.03625 16.1048 9.20112 16.1048 9.20112 15.8184C9.17932 15.6596 9.15436 15.5012 9.12624 15.3425C8.91952 14.2223 8.88788 12.8694 9.03624 11.7397L9.20639 10.4448L10.5746 10.113C10.7314 8.38754 10.2881 7.18515 8.61648 7.16262L7.80966 6.80347H4.42771L3.62089 7.16262C1.94924 7.18378 1.50418 8.39096 1.66097 10.1164L3.03098 10.4448Z" fill="#C32E34"/>
<path d="M8.42109 1.59464C8.49105 3.69218 6.1061 3.63073 5.00433 2.69359C4.44782 2.92677 4.30438 3.83147 4.45942 4.46441C3.83928 4.22475 3.80447 3.29582 3.81607 2.82503C3.91943 2.08693 4.29103 1.57552 4.8609 1.26144C5.4958 0.911846 6.27239 0.924819 6.93085 1.229C7.52603 1.50246 8.0495 1.66599 8.42109 1.59464Z" fill="#552817"/>
<path d="M7.81241 6.80489C7.81241 8.25343 4.42236 8.25343 4.42236 6.80489C5.19578 6.5427 5.77901 6.19959 5.77901 5.39526H6.45576C6.45576 6.19959 7.01438 6.56523 7.81241 6.80489Z" fill="#F8BC80"/>
<path d="M7.81263 6.80464C7.81263 7.23855 7.50924 7.5523 7.08421 7.72402C7.08421 7.72402 7.41748 7.4212 7.40237 7.32254C7.35913 7.03611 6.44086 7.65745 6.36071 7.57654C6.25559 7.47309 6.71894 7.27235 6.67078 7.08117C6.61242 6.85141 5.88752 7.09414 5.82248 7.1136C5.40237 7.24163 4.54598 6.95485 5.44245 6.26216C5.58729 6.25397 5.98912 6.17169 6.09247 6.07132C6.19407 5.97095 6.26931 5.84634 6.34067 5.7248C6.38075 5.65994 6.41731 5.58415 6.45914 5.51587C6.51117 6.24304 7.05292 6.57488 7.81263 6.80464Z" fill="#ECA065"/>
<path d="M8.16953 2.56905L7.7561 2.45264V4.56485C8.09114 4.34465 8.45289 3.49014 8.16953 2.56905Z" fill="#552817"/>
<path d="M8.09456 4.59549C8.0478 5.11509 7.64633 4.93859 7.64633 4.93859C7.64633 5.71561 6.96818 6.46497 6.13288 6.46497C5.31974 6.46497 4.70627 5.77535 4.67288 5.02292C4.373 5.04067 4.26121 4.82695 4.26121 4.82695C4.09105 4.40294 4.37968 4.29438 4.42292 4.27833C4.26789 3.65358 4.44788 2.89602 5.00474 2.66455C5.74793 3.29101 7.07786 3.51907 7.84144 2.96737L7.83476 4.27014C8.1146 4.26536 8.09456 4.59549 8.09456 4.59549Z" fill="#F8BC80"/>
<path d="M3.10627 10.3718C3.24794 11.1697 3.38786 11.9709 3.40614 12.78C3.41774 13.5714 3.3295 14.5765 3.11119 15.3405C3.14634 14.9455 3.1713 14.3467 3.18291 13.9551C3.23283 12.7964 3.05635 11.6698 2.94807 10.5111C2.5146 10.3882 2.08641 10.2619 1.66138 10.1147C2.14793 10.184 2.62604 10.2779 3.10627 10.3718Z" fill="#9D1820"/>
<path d="M10.5744 10.113C10.3543 10.1922 10.1294 10.2602 9.90611 10.3315C9.70116 10.3947 9.49444 10.4514 9.28949 10.5111C9.11617 12.0566 8.95129 13.7885 9.12601 15.3405C8.66618 13.7868 8.82438 11.9385 9.13094 10.3718C9.38089 10.3233 9.62768 10.2714 9.8794 10.2247C10.1111 10.1892 10.341 10.1438 10.5744 10.113Z" fill="#9D1820"/>
<path d="M8.00289 6.8887C7.87457 7.65753 6.96791 8.0119 6.11961 8.0119C5.6313 8.0119 5.17463 7.89855 4.83292 7.69474C4.49472 7.4957 4.29117 7.21883 4.23633 6.8887L4.42968 6.80301L4.468 6.79004C4.54464 7.45371 5.36306 7.77087 6.12137 7.77087C6.87791 7.77087 7.69141 7.45371 7.76805 6.79004L7.81129 6.80301L8.00289 6.8887Z" fill="#9D1820"/>
<path d="M8.30426 8.89574H12.3341C12.454 8.89574 12.5507 8.80185 12.5507 8.68544V8.187C12.5507 8.09311 12.6674 8.04634 12.7356 8.11257L13.9706 9.30848C14.0557 9.3911 14.0557 9.52527 13.9706 9.60618L12.7356 10.8021C12.6674 10.8683 12.5507 10.8216 12.5507 10.7277V10.2292C12.5507 10.1128 12.454 10.0189 12.3341 10.0189H8.15942" fill="#EDE9DD"/>
<path d="M10.5377 8.89575H8.30426L8.15942 10.0172H12.196C11.6493 9.63214 11.104 9.25012 10.5377 8.89575Z" fill="#D3CFC5"/>
<path d="M12.8025 15.0427L11.6891 16.1205C11.629 16.1788 11.5225 16.1365 11.5225 16.0525V15.6043C11.5225 15.4974 11.4357 15.4134 11.326 15.4134H6.94946L8.10959 14.4036H11.3277C11.4378 14.4036 11.5242 14.3193 11.5242 14.2127V13.7645C11.5242 13.6802 11.6308 13.6382 11.6909 13.6965L12.8043 14.7743C12.8791 14.8484 12.8791 14.9682 12.8025 15.0427Z" fill="#EDE9DD"/>
<path d="M10.3591 14.9421C10.1492 14.795 9.90907 14.6475 9.8159 14.4031H8.10911L6.94897 15.4129H11.0604C10.8224 15.2627 10.5893 15.1057 10.3591 14.9421Z" fill="#D3CFC5"/>
<path d="M11.5076 11.851C11.5076 13.8741 9.81944 15.5152 7.73437 15.5152C5.65106 15.5152 3.96289 13.8741 3.96289 11.851C3.96289 9.82786 5.65106 8.18677 7.73437 8.18677C9.81909 8.18847 11.5076 9.82957 11.5076 11.851Z" fill="#EDE9DD"/>
<path d="M7.81237 14.3612C7.80394 14.3612 7.79409 14.3595 7.78565 14.3582C7.71886 14.3435 7.67738 14.2803 7.69073 14.2158C8.01909 12.7478 8.01733 11.1958 7.68757 9.7278C7.67245 9.66293 7.71605 9.59841 7.78249 9.58543C7.84929 9.57075 7.91573 9.61309 7.92909 9.67761C8.26728 11.178 8.26728 12.7655 7.93225 14.2677C7.921 14.324 7.86932 14.3612 7.81237 14.3612Z" fill="#045AA9"/>
<path d="M8.15599 11.4497C8.12083 11.4497 8.08427 11.448 8.04595 11.4449C7.97775 11.4401 7.92748 11.3817 7.93275 11.3155C7.93943 11.2493 7.99779 11.2005 8.06599 11.2056C8.27763 11.2233 8.45762 11.1766 8.65942 11.1004C8.87105 11.0212 9.07425 10.9096 9.27288 10.7993C9.333 10.7669 9.40788 10.7863 9.44127 10.8447C9.47467 10.9031 9.45463 10.9758 9.39452 11.0082C9.18956 11.1216 8.97792 11.238 8.74801 11.3237C8.57434 11.3896 8.38274 11.4497 8.15599 11.4497Z" fill="#045AA9"/>
<path d="M6.67101 11.5594C6.56589 11.5594 6.46113 11.5512 6.35777 11.5352C6.29098 11.5239 6.24457 11.4625 6.25617 11.3976C6.26778 11.3328 6.33106 11.2891 6.39785 11.299C6.94276 11.3881 7.52107 11.2051 7.90954 10.8213C7.9577 10.7746 8.0361 10.7729 8.08461 10.8196C8.13277 10.8664 8.13453 10.9425 8.08637 10.9897C7.71583 11.3539 7.19588 11.5594 6.67101 11.5594Z" fill="#045AA9"/>
<path d="M7.401 13.9581C7.39256 13.9581 7.38272 13.9564 7.37428 13.9551C7.30748 13.9404 7.266 13.8772 7.27936 13.8127C7.60771 12.3447 7.60595 10.7927 7.27619 9.32472C7.26108 9.25985 7.30467 9.19533 7.37111 9.18236C7.43791 9.16768 7.50435 9.21001 7.51771 9.27453C7.85591 10.775 7.85591 12.3625 7.52088 13.8646C7.50963 13.9192 7.45795 13.9581 7.401 13.9581Z" fill="#ED0707"/>
<path d="M7.74437 11.0451C7.70921 11.0451 7.67265 11.0434 7.63433 11.0404C7.56613 11.0356 7.51586 10.9772 7.52113 10.911C7.52781 10.8447 7.58617 10.7959 7.65437 10.801C7.86601 10.8188 8.046 10.772 8.2478 10.6959C8.45943 10.6167 8.66263 10.505 8.86126 10.3948C8.92137 10.3623 8.99626 10.3818 9.02965 10.4402C9.06305 10.4986 9.04301 10.5713 8.9829 10.6037C8.77794 10.7171 8.5663 10.8335 8.33639 10.9192C8.16272 10.9868 7.96936 11.0451 7.74437 11.0451Z" fill="#ED0707"/>
<path d="M6.25939 11.1566C6.15427 11.1566 6.04951 11.1484 5.94615 11.1324C5.87936 11.1211 5.83295 11.0597 5.84455 10.9948C5.85615 10.9299 5.91943 10.8862 5.98623 10.8961C6.53114 10.9852 7.10945 10.8022 7.49792 10.4185C7.54608 10.3717 7.62448 10.37 7.67299 10.4168C7.7215 10.4636 7.72291 10.5397 7.67475 10.5868C7.30456 10.9494 6.78285 11.1566 6.25939 11.1566Z" fill="#ED0707"/>
<path d="M8.98763 11.1143C8.65752 11.187 8.42584 11.5123 8.34112 11.8506C8.2564 12.189 8.28628 12.545 8.29612 12.8963C8.31124 13.4402 8.27432 13.9871 8.18433 14.5245H8.45924C8.63432 14.3043 8.69267 13.9888 8.69408 13.6959C8.69408 13.3463 8.6308 12.9936 8.68424 12.6471C8.73767 12.3006 8.95107 11.9462 9.28083 11.8817L8.98763 11.1143Z" fill="#EDE9DD"/>
<g opacity="0.3">
<path d="M8.27581 14.4907C8.29585 14.4924 8.31764 14.4825 8.33733 14.4552C8.39393 14.3791 8.43049 14.2708 8.46389 14.1834C8.53209 13.9974 8.57041 13.7997 8.57569 13.5993C8.58237 13.3419 8.53244 13.0845 8.52576 12.8274C8.51909 12.57 8.56233 12.2948 8.7258 12.0992C8.79084 12.02 8.87732 11.9487 8.89595 11.8466C8.91107 11.7527 8.86431 11.6636 8.82599 11.5762C8.78767 11.4905 8.7592 11.3854 8.80595 11.3044C8.5008 11.6151 8.30253 12.0326 8.29761 12.4761C8.29585 12.6362 8.31589 12.7967 8.331 12.9568C8.3528 13.2159 8.35772 13.4747 8.34436 13.7338C8.33768 13.8601 8.32784 13.9878 8.31272 14.1124C8.30604 14.1691 8.29936 14.1998 8.2744 14.2452C8.24593 14.2954 8.21112 14.3309 8.21605 14.3941C8.21745 14.4501 8.24417 14.4873 8.27581 14.4907Z" fill="white"/>
</g>
<path d="M8.97737 10.5349C8.24895 10.4069 8.20922 9.3776 9.01921 9.38579C9.82919 9.39398 10.3541 9.92963 10.4676 10.8603C10.5808 11.7909 10.1959 12.3979 9.40275 12.5338C8.60964 12.6697 8.40117 11.6533 9.086 11.4137C8.81425 11.1727 8.81566 10.8715 8.97737 10.5349Z" fill="#754030"/>
<path d="M8.97729 10.5349C9.05745 10.5445 9.1355 10.551 9.21565 10.551C9.2958 10.5527 9.37385 10.5479 9.454 10.5493C9.37561 10.5653 9.2958 10.5718 9.21565 10.5718C9.13409 10.5691 9.05393 10.5609 8.97729 10.5349Z" fill="#552817"/>
<path d="M9.56069 11.4268C9.48054 11.4172 9.40249 11.4107 9.32234 11.4107C9.24218 11.409 9.16414 11.4138 9.08398 11.4124C9.16238 11.3964 9.24218 11.3899 9.32234 11.3899C9.40425 11.393 9.48405 11.4012 9.56069 11.4268Z" fill="#552817"/>
<path d="M6.78579 12.6474C6.83922 12.9939 6.77594 13.3448 6.77594 13.6961C6.77594 13.9891 6.8343 14.3048 7.00938 14.5247H7.28429C7.19429 13.9874 7.15773 13.4418 7.1725 12.8966C7.18234 12.547 7.21258 12.1909 7.1275 11.8509C7.04242 11.5126 6.81075 11.1859 6.48099 11.1145L6.18604 11.8816C6.52072 11.9465 6.73235 12.3009 6.78579 12.6474Z" fill="#EDE9DD"/>
<path d="M6.49258 11.1162C7.221 10.9882 7.26073 9.9589 6.45074 9.96709C5.64076 9.97528 5.11589 10.5109 5.00234 11.4416C4.88914 12.3722 5.27409 12.9792 6.0672 13.1151C6.86066 13.2493 7.06878 12.2346 6.38395 11.995C6.6557 11.754 6.65429 11.4528 6.49258 11.1162Z" fill="#754030"/>
<path d="M6.49282 11.1162C6.41267 11.1258 6.33462 11.1323 6.25447 11.1323C6.17431 11.134 6.09627 11.1292 6.01611 11.1305C6.09451 11.1466 6.17431 11.1531 6.25447 11.1531C6.33603 11.1504 6.41618 11.1422 6.49282 11.1162Z" fill="#552817"/>
<path d="M5.90942 12.0078C5.98958 11.9983 6.06762 11.9918 6.14778 11.9918C6.22793 11.9901 6.30598 11.9948 6.38613 11.9935C6.30774 11.9774 6.22793 11.9709 6.14778 11.9709C6.06587 11.974 5.98606 11.9819 5.90942 12.0078Z" fill="#552817"/>
<g opacity="0.3">
<path d="M7.19435 14.4697C7.17431 14.4714 7.15251 14.4615 7.13282 14.4342C7.07622 14.3581 7.03966 14.2498 7.00626 14.1624C6.93806 13.9764 6.89974 13.7787 6.89447 13.5783C6.88779 13.3209 6.93771 13.0635 6.94439 12.8064C6.95107 12.549 6.90783 12.2738 6.74436 12.0782C6.67932 11.999 6.59284 11.9277 6.5742 11.8256C6.55909 11.7317 6.60584 11.6426 6.64416 11.5552C6.68248 11.4695 6.71096 11.3644 6.6642 11.2834C6.96935 11.5941 7.16763 12.0116 7.17255 12.4551C7.17431 12.6152 7.15427 12.7757 7.13915 12.9358C7.11735 13.1949 7.11243 13.4537 7.12579 13.7128C7.13247 13.8391 7.14232 13.9668 7.15743 14.0914C7.16411 14.1481 7.17079 14.1788 7.19575 14.2242C7.22423 14.2744 7.25903 14.3099 7.25411 14.3731C7.25095 14.4291 7.22599 14.4663 7.19435 14.4697Z" fill="white"/>
</g>
<g opacity="0.1">
<path d="M8.97918 11.6034C9.05266 11.5385 9.13914 11.4593 9.12578 11.3637C9.11418 11.2845 9.03754 11.2309 9.00414 11.1582C8.91415 10.9608 9.16902 10.726 9.07094 10.5334C9.02102 10.4365 8.9043 10.3975 8.81079 10.3392C8.69407 10.2664 8.60407 10.1514 8.57243 10.0186C8.54255 9.8875 8.57419 9.74036 8.6656 9.63999C8.77739 9.51538 8.95739 9.47168 9.12719 9.47168C9.32054 9.47168 9.51214 9.52186 9.68053 9.61575C9.91221 9.74514 10.0887 9.95407 10.2005 10.1903C10.3105 10.4266 10.3555 10.687 10.3555 10.9462C10.3555 11.1582 10.327 11.3719 10.2704 11.5774C10.2272 11.7375 10.1671 11.8963 10.0655 12.0291C9.91045 12.2329 9.66225 12.3657 9.4021 12.3852C9.23863 12.3964 9.06531 12.3609 8.94227 12.2558C8.72571 12.0694 8.78266 11.7751 8.97918 11.6034Z" fill="white"/>
</g>
<g opacity="0.1">
<path d="M9.55442 10.4835C9.68625 10.956 9.75621 11.4237 9.88769 11.3899C10.0178 11.3558 10.1594 10.8314 10.0276 10.3589C9.89578 9.88642 9.5393 9.64369 9.40923 9.67919C9.27775 9.71299 9.42259 10.0107 9.55442 10.4835Z" fill="white"/>
</g>
<g opacity="0.1">
<path d="M6.4945 12.1502C6.42103 12.0854 6.33454 12.0062 6.3479 11.9106C6.3595 11.8314 6.43614 11.7778 6.46954 11.7051C6.55954 11.5077 6.30466 11.2728 6.40275 11.0803C6.45267 10.9833 6.56938 10.9444 6.6629 10.886C6.77961 10.8133 6.86961 10.6983 6.90125 10.5655C6.93113 10.4344 6.89949 10.2872 6.80809 10.1869C6.69629 10.0623 6.5163 10.0186 6.3465 10.0186C6.15314 10.0186 5.96154 10.0687 5.79315 10.1626C5.56147 10.292 5.38499 10.5009 5.2732 10.7372C5.16316 10.9734 5.11816 11.2339 5.11816 11.493C5.11816 11.7051 5.14664 11.9188 5.20324 12.1243C5.24648 12.2844 5.3066 12.4431 5.4082 12.576C5.56323 12.7798 5.81143 12.9126 6.07158 12.932C6.23505 12.9433 6.40837 12.9078 6.53141 12.8026C6.74762 12.6166 6.69102 12.322 6.4945 12.1502Z" fill="white"/>
</g>
<g opacity="0.1">
<path d="M5.91942 11.0321C5.78759 11.5046 5.71763 11.9723 5.58615 11.9385C5.45607 11.9044 5.31439 11.38 5.44623 10.9075C5.57806 10.435 5.93454 10.1923 6.06461 10.2278C6.19609 10.2616 6.0509 10.5593 5.91942 11.0321Z" fill="white"/>
</g>
<g opacity="0.7">
<path d="M5.9028 10.0787C5.31114 10.3685 5.11954 11.1742 4.84603 11.0821C4.40588 10.9349 4.80771 10.1012 5.23274 9.61884C5.98612 8.76603 6.64283 8.72712 6.9761 9.02959C7.30762 9.32934 6.4892 9.79227 5.9028 10.0787Z" fill="white"/>
<path d="M4.76279 11.6877C4.60108 11.9353 4.62604 12.0534 4.57295 12.0438C4.3578 12.0001 4.32476 11.8448 4.35956 11.6345C4.40772 11.3399 4.5494 11.1569 4.65944 11.2767C4.75436 11.3819 4.87951 11.5078 4.76279 11.6877Z" fill="white"/>
</g>
</svg>
