<svg width="17" height="17" viewBox="0 0 17 17" fill="none" xmlns="http://www.w3.org/2000/svg">
<path d="M10.224 16.4435C10.168 16.6395 9.98866 16.7654 9.79578 16.7654C9.74606 16.7654 9.6954 16.7573 9.64569 16.7398C8.99624 16.5098 7.78229 16.0886 6.97425 15.8573C6.13065 15.6154 5.50983 15.6729 4.78392 15.5251C4.05863 15.3773 3.93749 14.1233 4.63383 13.3652C4.69361 12.9864 4.29022 10.5465 3.67443 9.45086C2.68326 7.68683 2.317 6.38873 2.84405 5.03938C2.62505 5.19813 1.90449 5.73 1.23584 6.22499V1.74445C2.79025 1.26383 4.13069 0.98696 4.83269 1.5482C5.69579 2.23881 6.43461 9.15681 6.46859 12.3624C6.47394 12.863 6.70836 13.3342 7.1042 13.6448L10.0717 15.9751C10.2133 16.0861 10.2734 16.2707 10.224 16.4435Z" fill="#F9C295"/>
<path d="M10.0712 15.9752L7.10368 13.6449C6.70784 13.3343 6.47342 12.8631 6.46807 12.3625C6.43441 9.15689 5.69528 2.23859 4.83249 1.54829C4.47535 1.26267 3.95239 1.19423 3.32056 1.25923C3.61004 1.2986 3.85862 1.39016 4.05654 1.54829C4.91965 2.2389 5.65846 9.15689 5.69244 12.3625C5.69779 12.8631 5.93221 13.3343 6.32805 13.6449L9.29559 15.9752C9.43718 16.0861 9.49728 16.2708 9.44788 16.4436C9.4268 16.5171 9.38841 16.5808 9.33838 16.6318C9.45008 16.6708 9.55361 16.7074 9.64548 16.7399C9.69489 16.7574 9.74555 16.7655 9.79558 16.7655C9.98878 16.7655 10.1678 16.6396 10.2238 16.4436C10.2732 16.2708 10.2131 16.0861 10.0712 15.9752Z" fill="#E8A26A"/>
<path d="M16.3258 7.18471C16.4816 7.02253 16.4888 6.76972 16.3425 6.5991C15.8482 6.02161 14.751 4.80507 14.1286 4.6157C13.1811 4.32727 10.2998 4.75663 9.25926 4.92663C9.03994 4.96257 8.87915 5.15069 8.87915 5.37162V8.36282C8.87915 8.61187 9.08242 8.81374 9.3332 8.81374H12.8816C13.077 8.81374 13.2466 8.9478 13.29 9.13718L14.1364 12.813C14.2434 13.2774 14.7088 13.5674 15.1764 13.4615C15.644 13.3552 15.936 12.893 15.8293 12.4287L15.0323 8.96812C14.9819 8.74937 15.0452 8.52 15.2012 8.3575L16.3258 7.18471Z" fill="#D8E6F0"/>
<path d="M16.326 7.1846C16.4818 7.02242 16.489 6.76961 16.3427 6.59899C15.8483 6.0215 14.7511 4.80496 14.1287 4.61559C13.8242 4.52278 13.3194 4.50434 12.7405 4.52778C12.9815 4.5409 13.1879 4.56871 13.3424 4.61559C13.9651 4.80496 15.0623 6.02181 15.5563 6.59899C15.7027 6.76992 15.6951 7.02242 15.5397 7.1846L14.4151 8.35739C14.2593 8.51989 14.1958 8.74926 14.2461 8.96801L15.0431 12.4286C15.1338 12.8223 14.9371 13.2148 14.5903 13.3895C15.2423 13.7189 15.9934 13.1392 15.8298 12.4286L15.0328 8.96801C14.9824 8.74926 15.0457 8.51989 15.2017 8.35739L16.326 7.1846Z" fill="#AAC0D1"/>
<path d="M13.3867 9.5564H12.9856C12.7156 9.5564 12.4966 9.77389 12.4966 10.042C12.4966 10.3101 12.7156 10.5276 12.9856 10.5276H13.6105L13.3867 9.5564Z" fill="#78BAF6"/>
<path d="M7.89038 5.88492V7.64145C7.89038 7.74738 7.97691 7.83301 8.08327 7.83301H8.87903V5.69336H8.08327C7.97691 5.69305 7.89038 5.77898 7.89038 5.88492Z" fill="#78BAF6"/>
<path d="M14.1369 12.8129C14.2439 13.2773 14.7093 13.5673 15.1768 13.4613C15.6444 13.3551 15.9364 12.8929 15.8297 12.4285L15.4443 10.7551C15.1951 11.4682 14.7476 12.177 14.0947 12.6298L14.1369 12.8129Z" fill="#606572"/>
<path d="M15.4443 10.7551C15.3162 11.1214 15.1356 11.4861 14.9022 11.816L15.0431 12.4285C15.1337 12.8223 14.9371 13.2148 14.5903 13.3895C15.247 13.7223 15.9931 13.137 15.8298 12.4285L15.4443 10.7551Z" fill="#3B4254"/>
<path d="M10.2177 15.7915L7.25019 13.4612C6.90784 13.1928 6.70898 12.7915 6.70426 12.3603C6.6838 10.4353 6.39463 6.91164 5.94562 4.34607C5.92328 4.21857 5.80119 4.13295 5.67281 4.15545C5.54443 4.17763 5.45853 4.29888 5.48087 4.42638C5.9258 6.96852 6.21245 10.4591 6.23259 12.3653C6.23856 12.939 6.50319 13.4725 6.95787 13.829L9.92572 16.1596C9.99243 16.2118 10.0204 16.2983 9.99715 16.3799C9.97166 16.4693 9.8889 16.5315 9.79577 16.5315C9.77154 16.5315 9.74794 16.5274 9.72497 16.5193C9.07174 16.288 7.85433 15.8655 7.04 15.6324C6.5227 15.4843 6.09099 15.4443 5.67313 15.4055C5.38773 15.379 5.11838 15.3543 4.83173 15.2959C4.61493 15.2518 4.51047 15.0618 4.46075 14.9099C4.3437 14.5521 4.40254 13.9656 4.80876 13.5234C4.83991 13.4893 4.86037 13.4471 4.8676 13.4015C4.94092 12.9372 4.50575 10.4481 3.88115 9.33691C2.83617 7.47695 2.60742 6.29603 3.06462 5.12418C3.10237 5.0273 3.07154 4.91699 2.98847 4.85356C2.9054 4.79012 2.79023 4.78887 2.70559 4.85012C2.46865 5.02168 1.69019 5.59667 1.09549 6.03697C0.991023 6.11447 0.969312 6.26103 1.04735 6.36478C1.12538 6.46853 1.27296 6.49009 1.37742 6.41259C1.71285 6.16416 2.1068 5.87291 2.42869 5.63573C2.19144 6.90977 2.6735 8.14881 3.46895 9.56503C4.05044 10.5991 4.41041 12.8 4.40506 13.2693C3.98153 13.7721 3.82325 14.479 4.01173 15.0543C4.13477 15.4305 4.39908 15.6855 4.7367 15.7543C5.04853 15.8177 5.34368 15.8449 5.62907 15.8715C6.02491 15.908 6.43428 15.9462 6.9091 16.0821C7.71148 16.3118 8.9185 16.7308 9.56607 16.9599C9.6397 16.9861 9.7171 16.9993 9.79577 16.9993C10.0988 16.9993 10.3684 16.7968 10.4512 16.5071C10.5267 16.2427 10.4352 15.9615 10.2177 15.7915Z" fill="#538DFF"/>
<path d="M1.30617 1.96813C2.6828 1.54251 4.04463 1.21908 4.68433 1.73032C4.75135 1.78376 4.99333 2.07 5.30232 3.50466C5.32592 3.61466 5.42378 3.68997 5.53296 3.68997C5.54932 3.68997 5.566 3.68841 5.58268 3.68466C5.71011 3.65747 5.7913 3.5331 5.76424 3.40654C5.43416 1.87501 5.15883 1.50814 4.98042 1.36564C4.2136 0.752215 2.90085 0.984085 1.16583 1.52064C1.04154 1.55907 0.972004 1.69063 1.01071 1.81407C1.04941 1.93782 1.18157 2.00657 1.30617 1.96813Z" fill="#538DFF"/>
<path d="M13.6643 7.50864C13.691 7.50864 13.7184 7.50396 13.7448 7.49458C13.8672 7.45021 13.9305 7.31583 13.8858 7.19427L13.4321 5.95648C13.3874 5.83492 13.2521 5.77211 13.1297 5.81649C13.0073 5.86086 12.944 5.99523 12.9887 6.11679L13.4424 7.35458C13.4774 7.44958 13.568 7.50864 13.6643 7.50864Z" fill="#538DFF"/>
<path d="M12.1241 7.35427C12.159 7.44927 12.2493 7.50864 12.3459 7.50864C12.3727 7.50864 12.4 7.50396 12.4265 7.49458C12.5489 7.45021 12.6121 7.31583 12.5674 7.19427L12.1137 5.95648C12.069 5.83492 11.9337 5.77211 11.8113 5.81649C11.6889 5.86086 11.6257 5.99523 11.6703 6.11679L12.1241 7.35427Z" fill="#538DFF"/>
<path d="M16.7636 14.4901H16.6755C16.1214 14.4901 15.6296 14.1298 15.4631 13.6082C15.9128 13.3935 16.1774 12.8895 16.0594 12.3764L15.2624 8.91582C15.2297 8.77332 15.2706 8.62488 15.3722 8.51895L16.4968 7.34616C16.7363 7.09616 16.7476 6.70992 16.5226 6.44711C15.2325 4.94027 14.5466 4.49746 14.1979 4.39121C13.7882 4.26653 13.062 4.25028 11.978 4.34121C11.8481 4.35215 11.7518 4.46559 11.7628 4.59433C11.7738 4.72339 11.8877 4.81839 12.0177 4.80808C13.2741 4.70246 13.8216 4.76683 14.0598 4.83902C14.4556 4.95933 15.2416 5.674 16.1633 6.75023C16.2312 6.82961 16.2281 6.94679 16.1554 7.02241L15.0308 8.1952C14.8197 8.4152 14.7347 8.72332 14.8027 9.01956L15.1985 10.7392C14.9811 11.3326 14.6482 11.8429 14.2407 12.2123L13.8408 10.4752V10.4748L13.6476 9.63549L13.5208 9.08425C13.4522 8.78676 13.1898 8.57863 12.8823 8.57863H9.33331C9.21311 8.57863 9.11494 8.48145 9.11494 8.36176V7.83209V5.69244V5.37057C9.11494 5.26401 9.19171 5.17401 9.29744 5.15682C9.72286 5.08745 10.3792 4.98683 11.0913 4.90245C11.2206 4.88714 11.3131 4.77058 11.2977 4.64183C11.2823 4.5134 11.1646 4.42153 11.0353 4.43684C10.3147 4.52215 9.6508 4.62402 9.22066 4.69402C8.88587 4.74871 8.64295 5.03308 8.64295 5.37026V5.45776H8.08318C7.84655 5.45776 7.6543 5.64869 7.6543 5.88369V7.64022C7.6543 7.87521 7.84655 8.06614 8.08318 8.06614H8.64295V8.36145C8.64295 8.73926 8.95257 9.04675 9.33299 9.04675H12.8811C12.967 9.04675 13.0403 9.10487 13.0595 9.188L13.09 9.3205H12.9849C12.5853 9.3205 12.2599 9.64361 12.2599 10.0405C12.2599 10.4373 12.5853 10.7605 12.9849 10.7605H13.4217C13.9301 12.9679 13.9138 12.9414 13.9858 13.0917C14.168 13.4729 14.5657 13.7242 15.0028 13.7154C15.2205 14.4479 15.9034 14.957 16.6749 14.957H16.763C16.8933 14.957 16.999 14.852 16.999 14.7226C16.9996 14.5948 16.8942 14.4901 16.7636 14.4901ZM8.12628 7.59865V5.92775H8.64327V7.59865H8.12628ZM15.3738 11.5005L15.5997 12.4807C15.6044 12.5011 15.6082 12.5217 15.6107 12.5423C15.6696 12.9998 15.225 13.3617 14.7847 13.216C14.5821 13.1489 14.4179 12.9823 14.3669 12.7607L14.359 12.727C14.7605 12.417 15.1076 11.9961 15.3738 11.5005ZM12.9855 10.2933C12.8461 10.2933 12.7326 10.1805 12.7326 10.042C12.7326 9.90361 12.8461 9.7908 12.9855 9.7908H13.1986L13.2017 9.80486L13.3144 10.2933H12.9855Z" fill="#538DFF"/>
</svg>
