<svg width="34" height="34" viewBox="0 0 34 34" fill="none" xmlns="http://www.w3.org/2000/svg">
<path d="M17 27.625C22.868 27.625 27.625 22.868 27.625 17C27.625 11.132 22.868 6.375 17 6.375C11.132 6.375 6.375 11.132 6.375 17C6.375 22.868 11.132 27.625 17 27.625Z" stroke="#4CB1CD" stroke-width="2.125" stroke-linecap="round" stroke-linejoin="round"/>
<path d="M17 21.25C19.3472 21.25 21.25 19.3472 21.25 17C21.25 14.6528 19.3472 12.75 17 12.75C14.6528 12.75 12.75 14.6528 12.75 17C12.75 19.3472 14.6528 21.25 17 21.25Z" stroke="#4CB1CD" stroke-width="2.125" stroke-linecap="round" stroke-linejoin="round"/>
<path d="M17 5.66683V2.8335" stroke="#4CB1CD" stroke-width="2.125" stroke-linecap="round" stroke-linejoin="round"/>
<path d="M5.66667 17H2.83334" stroke="#4CB1CD" stroke-width="2.125" stroke-linecap="round" stroke-linejoin="round"/>
<path d="M17 28.3335V31.1668" stroke="#4CB1CD" stroke-width="2.125" stroke-linecap="round" stroke-linejoin="round"/>
<path d="M28.3333 17H31.1667" stroke="#4CB1CD" stroke-width="2.125" stroke-linecap="round" stroke-linejoin="round"/>
</svg>
