<svg width="30" height="30" viewBox="0 0 30 30" fill="none" xmlns="http://www.w3.org/2000/svg">
<g clip-path="url(#clip0_149_3498)">
<path d="M20 17.5C21.6106 17.5001 23.159 18.1219 24.3222 19.2358C25.4855 20.3497 26.1739 21.8697 26.2438 23.4788L26.25 23.75V25C26.2502 25.6307 26.012 26.2382 25.5831 26.7007C25.1543 27.1632 24.5664 27.4464 23.9375 27.4938L23.75 27.5H6.25C5.61928 27.5002 5.01179 27.262 4.54931 26.8331C4.08684 26.4043 3.80355 25.8164 3.75625 25.1875L3.75 25V23.75C3.75009 22.1394 4.37193 20.591 5.48582 19.4278C6.59972 18.2645 8.11969 17.5761 9.72875 17.5063L10 17.5H20ZM15 2.5C16.6576 2.5 18.2473 3.15848 19.4194 4.33058C20.5915 5.50269 21.25 7.0924 21.25 8.75C21.25 10.4076 20.5915 11.9973 19.4194 13.1694C18.2473 14.3415 16.6576 15 15 15C13.3424 15 11.7527 14.3415 10.5806 13.1694C9.40848 11.9973 8.75 10.4076 8.75 8.75C8.75 7.0924 9.40848 5.50269 10.5806 4.33058C11.7527 3.15848 13.3424 2.5 15 2.5Z" fill="#0E4D92"/>
</g>
<defs>
<clipPath id="clip0_149_3498">
<rect width="30" height="30" fill="white"/>
</clipPath>
</defs>
</svg>
