<svg width="20" height="23" viewBox="0 0 20 23" fill="none" xmlns="http://www.w3.org/2000/svg">
<path d="M2.32478 17.7092C2.57168 17.4771 2.81457 17.2405 3.04545 16.9942C3.16823 16.864 3.26698 16.8588 3.40978 16.962C3.74142 17.2018 4.11043 17.3811 4.51146 17.4804C6.00084 17.8485 7.30337 17.5294 8.39638 16.4701C10.4136 14.5165 12.4301 12.5623 14.446 10.6081C14.5807 10.4772 14.6722 10.354 14.9037 10.5262C15.591 11.0394 16.5412 10.9311 17.0957 10.3102C17.6302 9.71187 17.5855 8.8434 16.9836 8.2425C16.5666 7.826 16.1475 7.41014 15.7178 7.00589C15.5677 6.86469 15.5396 6.7712 15.7105 6.62355C15.9754 6.39532 16.2196 6.14387 16.4725 5.90273C16.9236 5.47204 16.9329 5.46431 17.3486 5.91369C17.7036 6.29731 18.12 6.51975 18.6638 6.48042C19.2837 6.40757 19.7208 6.09551 19.919 5.52233C20.1232 4.93111 19.9283 4.43079 19.4806 4.00332C19.1576 3.69449 18.844 3.37728 18.5257 3.06329C18.443 2.99172 18.3576 2.92402 18.2788 2.84859C17.4434 2.04653 16.5933 1.25737 15.7792 0.434676C15.1413 -0.210711 14.1523 -0.0617756 13.6819 0.390188C13.1247 0.925324 13.1414 1.77767 13.7306 2.38631C13.8521 2.51203 13.9682 2.64356 14.101 2.75704C14.2805 2.91048 14.2938 3.03234 14.1036 3.19997C13.776 3.48946 13.4597 3.79314 13.1621 4.11164C12.9853 4.30119 12.8765 4.26767 12.7124 4.10068C12.2906 3.67321 11.8636 3.25026 11.4165 2.84794C10.7999 2.29282 9.86506 2.3083 9.23515 2.86148C8.65862 3.36761 8.58455 4.28636 9.09435 4.90983C9.23448 5.08069 9.20779 5.16708 9.06433 5.30312C8.43708 5.89693 7.81851 6.49847 7.19861 7.09937C5.72325 8.52877 4.21919 9.93172 2.7832 11.3966C1.49669 12.7086 1.38725 14.5094 2.4142 16.0174C2.52497 16.1806 2.51095 16.2721 2.37082 16.3953C2.1246 16.6119 1.88905 16.8408 1.6555 17.0703C1.40794 17.314 1.38925 17.5829 1.59411 17.7769C1.81031 17.9813 2.05587 17.9633 2.32545 17.7099L2.32478 17.7092ZM13.8574 9.89433C13.1441 10.5855 12.4221 11.2689 11.7194 11.9704C11.5099 12.1793 11.4125 12.0233 11.3024 11.8995C11.1983 11.7821 10.9421 11.7048 11.1849 11.4746C11.9143 10.7834 12.6309 10.0807 13.3549 9.38434C13.4117 9.32954 13.4704 9.22122 13.5725 9.2973C13.7293 9.41464 13.8761 9.54552 13.9829 9.70155C13.9782 9.79762 13.9108 9.84275 13.8574 9.89433ZM13.794 4.74026C14.2558 4.30635 14.7089 3.86341 15.1619 3.42048C15.5356 3.05555 15.5356 2.8905 15.17 2.53331C14.9277 2.29669 14.6768 2.06781 14.4399 1.82667C14.1717 1.5533 14.149 1.22255 14.3719 1.0259C14.5834 0.838929 14.907 0.87439 15.1713 1.131C16.315 2.24189 17.4541 3.35665 18.5951 4.46947C18.6992 4.56489 18.8113 4.65387 18.9054 4.75767C19.0462 4.91241 19.1056 5.091 19.0095 5.29216C18.9154 5.48945 18.7586 5.58423 18.5304 5.55651C18.3429 5.57133 18.2201 5.45722 18.0993 5.34632C17.8504 5.11679 17.6055 4.88211 17.358 4.65064C16.981 4.29797 16.8235 4.30055 16.4418 4.66547C15.984 5.10325 15.5216 5.53781 15.0732 5.98461C14.9244 6.13291 14.8263 6.14644 14.6742 5.98848C14.3872 5.68932 14.0903 5.39854 13.778 5.12388C13.6025 4.96915 13.6492 4.87566 13.7934 4.74026H13.794ZM9.76297 3.70932C9.86506 3.46883 10.0713 3.35149 10.3435 3.34375C10.5417 3.34504 10.7018 3.43273 10.8406 3.56683C12.6503 5.3115 14.462 7.0536 16.2683 8.80149C16.5999 9.12193 16.6106 9.51264 16.325 9.77183C16.0461 10.0246 15.6738 10.0014 15.3468 9.68672C13.5445 7.94979 11.7481 6.2077 9.94647 4.47076C9.71626 4.24897 9.64086 3.99752 9.76297 3.70932ZM7.59297 7.98976C7.74511 7.84212 7.83453 7.91433 7.94663 8.02522C8.21821 8.29408 8.49313 8.56036 8.77273 8.82148C8.93087 8.96913 9.11904 9.01103 9.32457 8.91497C9.48805 8.83889 9.58214 8.7151 9.58414 8.53457C9.5748 8.37467 9.49205 8.25088 9.37862 8.14192C9.11904 7.89176 8.86481 7.63644 8.59723 7.39402C8.4591 7.26894 8.46244 7.18254 8.5979 7.05553C8.99693 6.68223 9.38863 6.30118 9.77365 5.91434C9.90043 5.78732 9.98184 5.77378 10.1186 5.90853C10.9761 6.74992 11.8402 7.58486 12.7084 8.41594C12.8305 8.53328 12.8338 8.60936 12.7104 8.72735C11.973 9.42689 11.2397 10.1303 10.5117 10.8389C10.3875 10.9601 10.3095 10.9511 10.1914 10.8357C9.33191 9.9962 8.46844 9.16061 7.60098 8.3289C7.47019 8.20382 7.45751 8.12193 7.59364 7.98912L7.59297 7.98976ZM3.28233 12.1999C3.43647 11.9936 3.55792 11.9278 3.75877 12.1574C3.95161 12.3779 4.17649 12.5739 4.39736 12.7699C4.62957 12.9768 4.90916 12.9949 5.08666 12.8292C5.28551 12.6442 5.2735 12.383 5.04529 12.1438C4.81908 11.9072 4.58954 11.6732 4.35265 11.4462C4.23855 11.3373 4.20385 11.258 4.33864 11.1322C4.72366 10.775 5.10067 10.4101 5.47168 10.04C5.59313 9.91883 5.67654 9.91819 5.79598 10.0413C6.02352 10.2767 6.25974 10.5049 6.50197 10.726C6.74752 10.9498 6.99442 10.9517 7.21062 10.7493C7.39545 10.5765 7.38211 10.3211 7.15857 10.0916C6.93036 9.85694 6.69614 9.62676 6.45058 9.40948C6.24907 9.23089 6.4359 9.14901 6.53466 9.06003C6.63876 8.9659 6.71816 8.74798 6.92569 8.94978C7.8025 9.80342 8.68131 10.6558 9.56412 11.5043C9.71359 11.6474 9.60683 11.726 9.51074 11.8182C9.10903 12.2044 8.70666 12.5906 8.30563 12.9781C8.2349 13.0465 8.15749 13.1116 8.10211 13.1903C7.95397 13.3991 7.93996 13.6164 8.13013 13.8073C8.33098 14.0084 8.55719 13.9723 8.75671 13.8092C8.95156 13.65 9.12572 13.4675 9.30722 13.2941C9.60749 13.0071 9.9011 12.7131 10.2067 12.432C10.465 12.1941 10.531 12.5178 10.6711 12.6029C10.7999 12.6809 10.882 12.7834 10.7205 12.9349C9.61217 13.9749 8.57921 15.091 7.41214 16.0703C6.53266 16.8085 5.4917 16.9543 4.42138 16.4907C3.289 16 2.73649 15.1084 2.70113 14.2109C2.69779 13.2818 2.89931 12.7151 3.283 12.2012L3.28233 12.1999Z" fill="#797979"/>
<path d="M1.88104 23C2.5977 22.9923 3.1769 22.7182 3.56926 22.136C3.95895 21.5577 3.91958 20.96 3.57794 20.3707C3.23962 19.7866 2.80389 19.2734 2.32078 18.7976C2.02584 18.5074 1.79363 18.5042 1.49735 18.8072C1.0476 19.2676 0.643232 19.7621 0.298247 20.3037C-0.55187 21.6383 0.553149 22.9729 1.88104 23ZM1.09899 20.7595C1.30784 20.4558 1.52671 20.1606 1.76493 19.8775C1.87637 19.7453 1.95844 19.7344 2.07455 19.8743C2.3101 20.1593 2.5303 20.4533 2.73916 20.7569C3.23028 21.472 2.54632 22.0832 1.92108 22.098C1.29383 22.0851 0.609868 21.47 1.09899 20.7589V20.7595Z" fill="#797979"/>
<path d="M7.1866 15.1019C7.48287 15.1193 7.66771 14.951 7.67505 14.6635C7.68105 14.4178 7.48087 14.2193 7.21796 14.2102C6.99509 14.2025 6.73952 14.441 6.7542 14.6667C6.77088 14.9188 6.90567 15.0864 7.1866 15.1026V15.1019Z" fill="#797979"/>
</svg>
