<svg width="17" height="17" viewBox="0 0 17 17" fill="none" xmlns="http://www.w3.org/2000/svg">
<g clip-path="url(#clip0_2601_3305)">
<path d="M13.0208 5.12381C12.9208 5.12381 12.8401 5.04193 12.8401 4.94121V1.54246C12.8401 1.4414 12.9211 1.35986 13.0208 1.35986C13.1209 1.35986 13.2016 1.44174 13.2016 1.54246V4.94087C13.2016 5.04193 13.1209 5.12381 13.0208 5.12381Z" fill="#3E3668"/>
<path d="M15.2017 5.12381C15.1017 5.12381 15.021 5.04193 15.021 4.94121V1.54246C15.021 1.4414 15.102 1.35986 15.2017 1.35986C15.3018 1.35986 15.3825 1.44174 15.3825 1.54246V4.94087C15.3825 5.04193 15.3018 5.12381 15.2017 5.12381Z" fill="#3E3668"/>
<path d="M3.76136 12.2239H8.66053C8.89823 12.2239 9.09084 12.4185 9.09084 12.6586V15.4578H3.33105V12.6586C3.33105 12.4185 3.52366 12.2239 3.76136 12.2239Z" fill="#7A6DBD"/>
<path d="M3.76136 12.2239H7.3096C7.5473 12.2239 7.7399 12.4185 7.7399 12.6586V15.4578H3.33105V12.6586C3.33105 12.4185 3.52366 12.2239 3.76136 12.2239Z" fill="#574A9A"/>
<path d="M7.0294 14.4548C8.70438 14.4548 10.0622 11.8216 10.0622 8.57334C10.0622 5.32511 8.70438 2.69189 7.0294 2.69189C5.35442 2.69189 3.99658 5.32511 3.99658 8.57334C3.99658 11.8216 5.35442 14.4548 7.0294 14.4548Z" fill="#84AEEA"/>
<path d="M9.08916 8.57326C9.10238 9.59107 8.94199 10.6034 8.61545 11.566C8.18514 12.7791 7.53036 13.4773 7.02749 13.4773C6.75995 13.4492 6.51343 13.3184 6.33846 13.1118C5.62773 12.4102 5.23879 11.1204 5.08349 10.1228C5.00482 9.60785 4.96548 9.08713 4.96582 8.56606C4.96582 5.70105 6.13602 3.66406 7.02749 3.66406C7.87047 3.67126 9.08916 5.57669 9.08916 8.57326Z" fill="#5C63A4"/>
<path d="M7.23353 11.5661C7.04873 12.1447 6.73982 12.6747 6.32918 13.119C5.91922 12.674 5.61065 12.144 5.42483 11.5661C4.46079 8.82544 5.06302 5.28075 6.32918 4.0293C7.59534 5.26978 8.20129 8.83469 7.23353 11.5661Z" fill="#4D408B"/>
<path d="M7.37658 11.1182C7.18126 11.8071 6.85031 12.6163 6.33862 13.1281C6.51359 13.3347 6.76011 13.4655 7.02765 13.4936C7.53595 13.4936 8.18497 12.7958 8.61561 11.5824C8.66614 11.4416 8.71157 11.2901 8.75667 11.1346L7.37658 11.1182Z" fill="#3E3668"/>
<path d="M8.79799 10.9669C8.74204 11.1769 8.68236 11.378 8.61725 11.5661C8.18695 12.7792 7.53217 13.4773 7.02929 13.4773C6.52642 13.4773 5.87368 12.7795 5.44134 11.5661C5.1114 10.5839 4.95135 9.55169 4.96763 8.5147C4.96763 8.2444 4.75061 8.02515 4.48307 8.02515C4.21553 8.02515 3.99851 8.2444 3.99851 8.5147C3.9785 11.7689 5.3369 14.4564 7.02963 14.4564C8.26494 14.4564 9.32629 13.022 9.7983 10.9666H8.79799V10.9669Z" fill="#668BE5"/>
<path d="M5.26411 3.79522C5.1183 4.02338 5.1834 4.32759 5.4089 4.47456C5.61846 4.61125 5.89651 4.56569 6.05249 4.3687C6.37802 3.91752 6.72694 3.67086 7.02738 3.67086C7.62044 3.67086 8.39832 4.61536 8.80861 6.2159C8.86253 6.43139 9.05513 6.58212 9.2752 6.58144C9.54376 6.58212 9.76214 6.36287 9.76315 6.0912C9.76315 6.04872 9.75807 6.00659 9.74722 5.96548C8.93374 2.77947 6.81036 1.63764 5.26411 3.79522Z" fill="#A7EAFF"/>
<path d="M6.64584 3.18892C6.64109 3.44312 6.83098 3.65826 7.08157 3.68224C7.4071 3.70793 7.69837 3.96556 7.94252 4.28518C8.10426 4.50101 8.40877 4.54383 8.62239 4.38008C8.83602 4.21667 8.87841 3.90903 8.71632 3.6932C8.30399 3.14507 7.77603 2.74494 7.15753 2.69937C6.89134 2.68327 6.66245 2.88814 6.64652 3.15706C6.64618 3.16734 6.64584 3.1783 6.64584 3.18892Z" fill="white"/>
<path d="M8.66809 11.4108C8.65181 11.4639 8.63384 11.5149 8.61553 11.566C8.18522 12.7791 7.53044 13.4772 7.02757 13.4772C6.5247 13.4772 5.87195 12.7794 5.43961 11.566C5.42164 11.5166 5.40536 11.4656 5.38909 11.4125C5.29245 11.1604 5.01168 11.035 4.76211 11.1326C4.52949 11.2237 4.40301 11.4783 4.47049 11.7212C5.66239 15.3645 8.39478 15.3755 9.58838 11.7212C9.67315 11.4642 9.53616 11.1867 9.28184 11.1007C9.02786 11.0151 8.75286 11.1539 8.66809 11.4108Z" fill="#5763D6"/>
<path d="M9.36589 12.3132C9.44557 12.1306 9.51949 11.9312 9.58663 11.7267C9.67141 11.4701 9.53441 11.1926 9.28078 11.1069C9.23127 11.0901 9.17939 11.0816 9.12751 11.0816C8.91998 11.0792 8.73484 11.2121 8.66804 11.4105C8.61379 11.5787 8.54495 11.763 8.47272 11.9329C8.36794 12.1795 8.48086 12.4653 8.72467 12.5715C8.78604 12.5982 8.8525 12.6115 8.91931 12.6109C9.1136 12.6098 9.28857 12.493 9.36589 12.3132Z" fill="#5745BD"/>
<path d="M5.03083 12.995C3.65108 10.6473 3.65447 6.49798 5.03083 4.15369C5.56253 3.24003 6.26071 2.69189 7.02027 2.69189H3.03258C1.35781 2.69189 -0.000244141 5.32669 -0.000244141 8.57334C-0.000244141 11.82 1.35781 14.4565 3.03258 14.4565H7.02943C6.26071 14.4565 5.56253 13.9049 5.03083 12.995Z" fill="#D1D3D4"/>
<path d="M3.4703 4.48036C3.50828 4.38718 3.54626 4.29777 3.58593 4.20253C3.62594 4.12476 3.5961 4.02884 3.51913 3.98807C3.49336 3.97471 3.46454 3.96855 3.43571 3.9706H3.03254C2.81552 4.00657 2.62088 4.12648 2.48999 4.30496C2.43099 4.36937 2.43506 4.47009 2.49881 4.5297C2.52797 4.55676 2.56595 4.57183 2.60562 4.57183H3.3289C3.3896 4.57081 3.44419 4.53552 3.4703 4.48036Z" fill="white"/>
<path d="M1.54219 10.8756C1.60017 11.1003 1.66527 11.3103 1.73581 11.5042C1.75886 11.5665 1.8182 11.6076 1.88399 11.6066H2.9094C2.9962 11.6063 3.06639 11.5347 3.06606 11.447C3.06606 11.4343 3.06436 11.4216 3.06131 11.4093C3.01248 11.2137 2.97077 11.0129 2.93279 10.8081C2.91889 10.733 2.85446 10.6789 2.77919 10.6782H1.6941C1.60627 10.6799 1.53642 10.7532 1.53812 10.842C1.53846 10.8533 1.53981 10.8646 1.54219 10.8756Z" fill="white"/>
<path d="M5.03083 12.995C3.6565 10.6545 3.65108 6.5014 5.03083 4.15369C5.56253 3.24003 6.26071 2.69189 7.02027 2.69189H3.03258C1.35781 2.69189 -0.000244141 5.32669 -0.000244141 8.57334C-0.000244141 11.82 1.35781 14.4565 3.03258 14.4565H7.02943C6.26071 14.4565 5.56253 13.9049 5.03083 12.995ZM3.04173 13.7258C1.94037 13.7258 0.723374 11.6062 0.723374 8.57334C0.723374 5.54046 1.94037 3.42262 3.03258 3.42262H4.63681C2.82844 6.00432 2.82844 11.1441 4.63681 13.7258H3.04173Z" fill="#9AA6BB"/>
<path d="M4.32742 11.241H3.58413C3.77945 12.1279 4.13651 12.9707 4.63667 13.7257H3.03243C2.30916 13.7257 1.51501 12.7774 1.07385 11.241H0.330566C0.831402 13.1485 1.85342 14.4568 3.03243 14.4568H7.02929C5.59324 14.4564 4.70177 12.6497 4.32742 11.241Z" fill="#63749D"/>
<path d="M1.88782 4.1626C2.24963 3.68744 2.64738 3.42262 3.03258 3.42262H4.63682C4.55713 3.53602 4.48118 3.6566 4.40895 3.78816C4.31706 3.95259 4.37436 4.16088 4.53713 4.25372C4.58731 4.2825 4.64428 4.29757 4.70192 4.29792C4.84163 4.31368 4.97794 4.24584 5.05085 4.12423C5.70733 3.02797 6.44688 2.69189 7.03113 2.69189H3.03258C2.3995 2.69189 1.81186 3.0701 1.32527 3.71519C1.20625 3.87723 1.24015 4.10607 1.40054 4.22632C1.4609 4.27154 1.53381 4.29655 1.60908 4.29792C1.71793 4.29929 1.82102 4.24927 1.88782 4.1626Z" fill="#E5F0FF"/>
<path d="M2.95668 5.05054H2.05233C1.83124 5.05088 1.63219 5.18654 1.54946 5.39415C1.01607 6.74632 0.904169 8.42702 1.0849 9.84668C1.11305 10.0663 1.29819 10.2304 1.51724 10.2304H2.61861C2.86038 10.2307 3.05637 10.0327 3.05671 9.78844C3.05671 9.77371 3.05603 9.75898 3.05468 9.74425C2.91362 8.35542 3.02145 6.95221 3.37308 5.60209C3.43717 5.37085 3.30323 5.13104 3.07434 5.0663C3.03569 5.05602 2.99635 5.05054 2.95668 5.05054Z" fill="#4895EF"/>
<path d="M3.00538 8.03223H1.01594C0.985082 8.63791 1.00814 9.24497 1.08477 9.84654C1.11292 10.0661 1.29806 10.2302 1.51711 10.2302H2.61848C2.86025 10.2306 3.05624 10.0326 3.05658 9.7883C3.05658 9.77357 3.0559 9.75884 3.05455 9.74411C2.99724 9.17542 2.98097 8.60331 3.00538 8.03223Z" fill="#84AEEA"/>
<path d="M5.98563 12.6586V15.4578H0.227543V12.6586C0.226526 12.4195 0.417773 12.2249 0.654457 12.2239C0.655135 12.2239 0.655814 12.2239 0.656153 12.2239H5.55702C5.7937 12.2239 5.98563 12.4178 5.98563 12.6569C5.98563 12.6576 5.98563 12.6583 5.98563 12.6586Z" fill="#8486D6"/>
<path d="M0.227783 14.5188H5.98587V15.4578H0.227783V14.5188Z" fill="#6668B3"/>
<path d="M5.24452 13.32V15.4577H0.97266V13.32C0.971643 13.0809 1.16289 12.8863 1.39957 12.8853C1.40025 12.8853 1.40093 12.8853 1.40127 12.8853H4.81387C5.05056 12.8842 5.24316 13.0774 5.24418 13.3166C5.24452 13.3176 5.24452 13.3186 5.24452 13.32Z" fill="#ACA9D6"/>
<path d="M16.9995 10.1299V10.7071C17.0005 11.1802 16.6214 11.565 16.1531 11.566H5.43993C5.27548 11.0997 5.15442 10.6187 5.07812 10.1299H16.9995Z" fill="#4377D1"/>
<path d="M16.9867 10.8298C17.0046 10.7075 16.9992 10.7822 16.9992 10.1299H5.08325C5.12123 10.3748 5.17006 10.6085 5.22262 10.8298H16.9867Z" fill="#61A9F4"/>
<path d="M14.1061 10.1299V10.7071C14.1071 11.1802 13.728 11.565 13.2597 11.566C13.259 11.566 13.2583 11.566 13.258 11.566H5.43993C5.27548 11.0997 5.15442 10.6187 5.07812 10.1299H14.1061Z" fill="#70C2EF"/>
<path d="M14.1058 10.6013V10.1299H5.08325C5.10868 10.2926 5.1392 10.4478 5.17175 10.6013H14.1058Z" fill="#9DE5EF"/>
<path d="M6.80884 11.566H5.43993C5.27548 11.0997 5.15442 10.6187 5.07812 10.1299H6.36565C6.45076 10.6259 6.59996 11.109 6.80884 11.566Z" fill="#5781D6"/>
<path d="M13.6719 15.4579H11.1528L12.4132 11.5662H14.9306L13.6719 15.4579Z" fill="#84AEEA"/>
<path d="M14.681 12.3373L14.9305 11.5662H12.4131L12.1619 12.3373H14.681Z" fill="#615ED1"/>
<path d="M13.6718 15.4579H12.4131L13.6718 11.5662H14.9305L13.6718 15.4579Z" fill="#5C63A4"/>
<path d="M14.3771 13.2746L14.9305 11.5662H13.6718L13.1184 13.2746H14.3771Z" fill="#484586"/>
<path d="M8.09825 9.50335V9.74076C8.09825 9.95556 7.92566 10.1299 7.71305 10.1299H5.0834C5.01253 9.67087 4.97388 9.2077 4.96777 8.74316H7.34581C7.7612 8.74316 8.09825 9.08335 8.09825 9.50335Z" fill="#CDD7FF"/>
<path d="M11.8852 4.94092H16.3377C16.5205 4.94092 16.6687 5.09063 16.6687 5.27528V8.01593C16.6687 8.20058 16.5205 8.35029 16.3377 8.35029H11.8852C11.7024 8.35029 11.5542 8.20058 11.5542 8.01593V5.27528C11.5542 5.09063 11.7024 4.94092 11.8852 4.94092Z" fill="#84AEEA"/>
<path d="M15.8946 5.71924V7.57021H12.3247V5.71924H15.8946Z" fill="#5C63A4"/>
<path d="M16.6667 5.27528V6.32221H15.8962V5.71926H12.3246V6.32221H11.5542V5.27528C11.5542 5.09063 11.7024 4.94092 11.8852 4.94092H16.3357C16.5185 4.94092 16.6667 5.09063 16.6667 5.27528Z" fill="#A7CCEA"/>
<path d="M16.6667 7.42779V8.016C16.6667 8.20065 16.5185 8.35036 16.3357 8.35036H11.8852C11.7024 8.35036 11.5542 8.20065 11.5542 8.016V7.42779C11.5542 7.21436 11.7244 7.04067 11.9357 7.03862C12.1483 7.03862 12.3209 7.21299 12.3209 7.42779V7.5703H15.8962V7.42779C15.8962 7.21504 16.0655 7.0417 16.276 7.03862C16.4886 7.03553 16.6636 7.20751 16.6667 7.42231C16.6667 7.42402 16.6667 7.42607 16.6667 7.42779Z" fill="#6181DB"/>
<path d="M4.96575 13.4697H1.24763C1.1476 13.4697 1.06689 13.3878 1.06689 13.2871C1.06689 13.186 1.14794 13.1045 1.24763 13.1045H4.96575C5.06578 13.1045 5.14649 13.1864 5.14649 13.2871C5.14682 13.3882 5.06578 13.4697 4.96575 13.4697Z" fill="#3E3668"/>
<path d="M4.96575 14.5769H1.24763C1.1476 14.5769 1.06689 14.495 1.06689 14.3943C1.06689 14.2932 1.14794 14.2117 1.24763 14.2117H4.96575C5.06578 14.2117 5.14649 14.2935 5.14649 14.3943C5.14682 14.4953 5.06578 14.5769 4.96575 14.5769Z" fill="#3E3668"/>
<path d="M2.96201 11.343H1.49714C1.39711 11.343 1.31641 11.2611 1.31641 11.1604C1.31641 11.0597 1.39745 10.9778 1.49714 10.9778H2.96201C3.06204 10.9778 3.14274 11.0597 3.14274 11.1604C3.14274 11.2611 3.06204 11.343 2.96201 11.343Z" fill="#3E3668"/>
<path d="M15.2685 15.6401H10.3568C10.2567 15.6401 10.176 15.5582 10.176 15.4575C10.176 15.3568 10.2571 15.2749 10.3568 15.2749H15.2685C15.3685 15.2749 15.4492 15.3568 15.4492 15.4575C15.4492 15.5582 15.3685 15.6401 15.2685 15.6401Z" fill="#3E3668"/>
</g>
<defs>
<clipPath id="clip0_2601_3305">
<rect width="17" height="17" fill="white"/>
</clipPath>
</defs>
</svg>
