<svg width="17" height="17" viewBox="0 0 17 17" fill="none" xmlns="http://www.w3.org/2000/svg">
<path d="M13.6703 14.9506C13.746 15.1188 13.7358 15.3166 13.6435 15.4747C13.5512 15.6328 13.3895 15.7288 13.2153 15.7288H8.11723C7.90024 15.7278 7.70802 15.5781 7.63957 15.3572C7.49627 14.8806 7.27346 14.4359 6.9825 14.0447C6.85377 13.8784 6.69358 13.7434 6.51242 13.6488C6.50746 13.6459 6.50484 13.6434 6.49989 13.6406C5.7802 13.9203 5.04682 14.1584 4.30354 14.3538C3.94122 14.4366 3.58269 14.1969 3.49211 13.8113C3.27716 13.1441 3.57541 12.9625 3.47958 12.5638C3.41376 12.2872 3.17115 12.2194 2.97921 12.0728C2.82514 11.9563 3.10299 11.5738 3.10299 11.5738C3.10299 11.5738 2.80737 11.3378 2.70106 11.2347C2.5898 11.1344 2.74417 10.9663 2.88542 10.6491C2.94309 10.5122 2.95911 10.3594 2.93086 10.2125C2.88018 9.91969 2.47097 9.81125 2.26855 9.64844C1.84652 9.3125 1.8238 9.23125 2.92562 7.95375C3.15629 7.66594 3.3025 7.31094 3.34532 6.93406C3.36541 6.80656 3.48687 6.66844 3.48424 6.51375C3.47929 6.12594 2.95591 5.96594 2.90785 5.58906C2.86999 5.29625 3.22124 4.76188 3.33512 4.23844C3.39745 3.91813 3.47755 3.60188 3.57512 3.29188C3.78482 2.6675 4.11073 2.09563 4.53305 1.61063C5.15226 0.905625 6.01175 0.601875 6.88114 0.385C10.0608 -0.40125 11.6557 0.0296874 13.4679 1.55938C14.1514 2.10531 14.6501 2.87563 14.8883 3.75313C15.0706 4.47781 15.156 5.22656 15.1411 5.97688C15.1158 7.9675 13.9356 8.66438 13.4099 9.9525C13.0884 10.7463 12.9681 11.6175 13.061 12.4772C13.1309 13.33 13.3359 14.1638 13.6677 14.9422L13.6703 14.9506Z" fill="#FDD7AD"/>
<path d="M12.8033 16C12.6976 16 12.6029 15.9291 12.5663 15.8225C12.0525 14.3284 11.53 12.5831 11.8294 10.7753C11.8495 10.655 11.8731 10.5313 11.8972 10.4088C11.9674 10.1059 12.007 9.79563 12.0152 9.48376V8.69532C12.0152 8.54563 12.1285 8.42407 12.268 8.42407C12.4075 8.42407 12.5208 8.54563 12.5208 8.69532V9.48188C12.5135 9.83251 12.4704 10.1809 12.3921 10.5213C12.3691 10.6391 12.3461 10.7559 12.3274 10.8709C12.0493 12.5459 12.5499 14.2088 13.0407 15.6359C13.0687 15.7191 13.0573 15.8116 13.0101 15.8838C12.9626 15.9566 12.8858 15.9997 12.8033 16Z" fill="#F29C1F"/>
<path d="M11.6544 16C11.5487 16 11.454 15.929 11.4173 15.8225C10.9035 14.3281 10.381 12.5828 10.6804 10.7753C10.7002 10.6553 10.7238 10.5334 10.748 10.4103C10.8799 9.7359 11.0049 9.0984 10.5112 8.45152C10.4524 8.37683 10.4358 8.27371 10.4675 8.18183C10.4993 8.08996 10.5747 8.02402 10.665 8.00871C10.755 7.99339 10.8459 8.03152 10.9027 8.10808C11.5492 8.95621 11.3867 9.78933 11.2431 10.5215C11.2201 10.6387 11.1974 10.755 11.1788 10.8696C10.9006 12.544 11.4013 14.2068 11.892 15.6343C11.9206 15.7175 11.9095 15.8106 11.8623 15.8831C11.8143 15.9565 11.7371 16 11.6544 16Z" fill="#3B97D3"/>
<path d="M8.80962 12.3961C8.82477 13.0767 8.28391 13.6029 7.20219 13.9636C7.15675 13.9798 7.08074 14.007 6.98229 14.0448C6.85356 13.8786 6.69337 13.7436 6.51221 13.6489C6.57541 13.6245 6.63366 13.6026 6.689 13.5811C6.85589 13.5186 6.98229 13.4698 7.04782 13.4482C7.86683 13.1745 8.31158 12.8054 8.304 12.407C8.30109 12.2573 8.41206 12.1332 8.55157 12.1304C8.69137 12.1273 8.80671 12.2464 8.80962 12.3961Z" fill="#F9C795"/>
<path d="M13.627 5.66245C13.6268 5.99901 13.5158 6.32463 13.3137 6.58182L13.3061 6.58995C13.2991 6.60276 13.2906 6.61463 13.2807 6.62526H13.2781C13.2336 6.88963 13.1389 7.14182 13 7.36557C12.8299 7.64588 12.5969 7.8762 12.3225 8.03526C12.4699 8.25432 12.5826 8.49807 12.656 8.75651C12.6729 8.81245 12.6816 8.8712 12.6813 8.92995C12.6808 9.15526 12.5555 9.3587 12.363 9.44776C12.144 9.54432 11.892 9.47463 11.7438 9.27682C11.5772 9.06932 11.3602 8.91526 11.117 8.83213C10.3233 8.54745 10.0857 8.25995 10.0327 7.77182H10.0175C9.74608 7.77213 9.47667 7.71776 9.22386 7.61182C8.9128 7.99932 8.43252 8.1787 7.96448 8.08245C7.49643 7.9862 7.11197 7.6287 6.95674 7.14526H6.95178C6.79247 7.20838 6.62587 7.24682 6.45636 7.25901C6.41325 7.26182 6.37306 7.26432 6.32996 7.26432C5.64784 7.26182 5.02485 6.84745 4.71932 6.19307C4.41379 5.5387 4.47758 4.75526 4.88417 4.16745C4.85592 4.07838 4.84135 3.98495 4.84106 3.89088C4.84019 3.48807 5.10494 3.14057 5.47279 3.0612C5.47017 3.0287 5.46784 2.9962 5.46784 2.96088C5.46784 2.35682 5.92336 1.86651 6.48636 1.86526C6.63956 1.86432 6.79101 1.9012 6.92878 1.9737C7.19789 1.48776 7.68575 1.18963 8.21262 1.18995C8.57495 1.18901 8.92474 1.33088 9.1959 1.5887C9.35085 1.32057 9.63278 1.16807 9.92578 1.1937C10.2188 1.21932 10.4739 1.41901 10.5861 1.71057C10.6574 1.70182 10.7291 1.69745 10.801 1.69713C11.7811 1.69776 12.5975 2.50401 12.679 3.55213H12.684C12.9633 3.55401 13.2207 3.71432 13.3608 3.97338C13.5009 4.23245 13.5033 4.55182 13.3664 4.81307C13.5362 5.05901 13.6276 5.35682 13.627 5.66245Z" fill="#FB7B76"/>
<path d="M6.93681 6.62239C6.92283 6.69739 6.91613 6.77364 6.91671 6.8502C6.91671 6.94989 6.92866 7.04926 6.95196 7.14582C6.79264 7.20895 6.62604 7.24739 6.45653 7.25957C6.42595 7.12832 6.41051 6.99364 6.4111 6.85832C5.9646 6.80832 5.62529 6.40457 5.625 5.9227C5.62529 5.7727 5.73801 5.65051 5.87781 5.64895C5.94421 5.64801 6.00829 5.67551 6.05577 5.7252C6.10324 5.7752 6.13004 5.84332 6.13062 5.91457V5.9227C6.13528 6.13676 6.29285 6.31051 6.49206 6.32145C6.52818 6.19957 6.57653 6.08239 6.63624 5.97176C6.70876 5.84364 6.86429 5.80301 6.9837 5.88082C7.10312 5.95864 7.14098 6.12551 7.06846 6.25364C7.0038 6.36676 6.95924 6.49176 6.93681 6.62239Z" fill="#DF4D60"/>
<path d="M13.3062 6.58968C13.2992 6.60249 13.2908 6.61436 13.2809 6.62499H13.2783C13.2337 6.88936 13.139 7.14155 13.0001 7.3653C12.8664 7.40749 12.7275 7.42874 12.588 7.4278C12.3372 7.42843 12.0902 7.36405 11.8677 7.24061C11.7611 7.18155 11.6618 7.10874 11.5721 7.02374C11.4719 7.0678 11.3644 7.09093 11.2561 7.09155C10.9217 7.09311 10.6156 6.88999 10.4674 6.56811C10.4368 6.50374 10.4315 6.42905 10.4528 6.36061C10.4744 6.29218 10.5204 6.23593 10.581 6.20468C10.7053 6.1378 10.8565 6.19093 10.9197 6.32405C10.9969 6.49155 11.1716 6.57968 11.3408 6.53686C11.5101 6.49405 11.6301 6.33186 11.6298 6.14499C11.6306 6.08186 11.6167 6.01936 11.5893 5.96343C11.529 5.82936 11.5794 5.6678 11.7032 5.59999C11.7632 5.56718 11.8328 5.56155 11.8966 5.58436C11.9603 5.60718 12.0128 5.65686 12.0419 5.72186C12.1031 5.85311 12.1351 5.99811 12.1354 6.14499C12.1333 6.33561 12.0768 6.52124 11.9737 6.67655C12.0136 6.70624 12.055 6.73343 12.0975 6.7578C12.4951 6.97218 12.9733 6.90561 13.3062 6.58968Z" fill="#DF4D60"/>
<path d="M8.52048 3.35987C8.52048 3.21019 8.40718 3.08862 8.26767 3.08862C7.62603 3.08956 7.10585 3.64737 7.10498 4.33612C7.10498 4.48581 7.21828 4.60737 7.35779 4.60737C7.4973 4.60737 7.6106 4.48581 7.6106 4.33612C7.6106 3.94675 7.90477 3.63112 8.26767 3.63112C8.40747 3.63112 8.52048 3.50956 8.52048 3.35987Z" fill="#DF4D60"/>
<path d="M9.59339 5.79866C10.2219 5.6871 10.7197 5.16804 10.8414 4.4971C10.8603 4.40116 10.8292 4.30179 10.7604 4.2371C10.6917 4.17241 10.5959 4.15273 10.5097 4.18554C10.4235 4.21835 10.3605 4.29835 10.3451 4.39491C10.2953 4.6746 10.145 4.9221 9.92658 5.08335C9.5063 5.38741 8.94243 5.31898 8.59613 4.9221C8.50264 4.81085 8.34274 4.80241 8.23905 4.90273C8.13537 5.00304 8.1275 5.1746 8.22099 5.28585C8.43507 5.5396 8.71787 5.71491 9.02981 5.78679C8.88855 6.00085 8.65904 6.12804 8.41468 6.12741C8.27517 6.12741 8.16187 6.24898 8.16187 6.39866C8.16187 6.54835 8.27517 6.66991 8.41468 6.66991C8.93865 6.6721 9.40873 6.32491 9.59339 5.79866Z" fill="#DF4D60"/>
</svg>
