<svg width="21" height="24" viewBox="0 0 21 24" fill="none" xmlns="http://www.w3.org/2000/svg">
<path d="M20.7911 8.71399C20.7898 7.96186 20.4774 7.35615 19.8629 6.91222L19.3293 6.52713C18.4267 5.87596 17.4938 5.20205 16.5716 4.54486C16.4171 4.43522 16.3591 4.32423 16.3632 4.14907C16.3645 4.09692 16.3652 4.05013 16.3659 4.00868C16.3679 3.85558 16.3692 3.77134 16.3989 3.73925C16.4272 3.70849 16.5014 3.70916 16.6377 3.70983C16.6816 3.70983 16.7321 3.70983 16.7895 3.70983C17.2199 3.70448 17.3514 3.57211 17.3528 3.14222C17.3534 2.7578 17.3534 2.37338 17.3528 1.98963C17.3528 1.49623 17.3528 1.00284 17.3548 0.509441C17.3555 0.284137 17.2894 0.12502 17.1457 0.00735414C17.1396 0.00267423 17.1322 0 17.1241 0H7.24818C7.24143 0 7.23536 0.00200567 7.22929 0.00534847C7.03636 0.131706 7.01207 0.323582 7.01275 0.477351C7.01477 0.994815 7.01477 1.51295 7.0141 2.03041C7.0141 2.4135 7.0141 2.79658 7.0141 3.18033C7.01477 3.5681 7.15239 3.70649 7.53892 3.70983H7.62122C7.75884 3.7105 7.83507 3.7105 7.86475 3.7359C7.89241 3.7593 7.89578 3.82415 7.90118 3.94182C7.9032 3.98394 7.90522 4.03274 7.90927 4.0889C7.92748 4.36301 7.84114 4.53015 7.58884 4.70598C6.89807 5.18801 6.20325 5.68876 5.53136 6.1728C5.16911 6.4342 4.80686 6.69494 4.44326 6.95501C4.22402 7.11145 4.04458 7.31269 3.87796 7.58747C3.58384 8.07217 3.54539 8.60568 3.54471 9.01551C3.54336 9.98759 3.54337 10.9603 3.54404 11.9324C3.54404 12.8631 3.54404 13.793 3.54336 14.7237C3.54336 14.7878 3.54336 14.844 3.54471 14.8935C3.54674 15.068 3.54741 15.1642 3.51368 15.1983C3.46984 15.2425 3.33155 15.2231 3.04687 15.2318C2.03432 15.2632 1.29835 15.7145 0.859871 16.5722C0.783643 16.7213 0.69932 16.7708 0.526627 16.7674C0.300642 16.7634 0.164376 16.8002 0.0847747 16.8885C0.00652304 16.9747 -0.0164128 17.1084 0.0112451 17.321C0.0867985 17.904 0.169772 18.4957 0.248699 19.068C0.285126 19.3307 0.321554 19.5928 0.357981 19.8555C0.40048 20.1664 0.443653 20.4773 0.486152 20.7875C0.606902 21.66 0.731026 22.5618 0.848403 23.4497C0.901021 23.8481 1.00963 23.9458 1.40359 23.9458C2.29539 23.9458 3.18718 23.9458 4.07966 23.9458C4.8615 23.9458 5.64334 23.9458 6.42519 23.9458H7.68059C7.7359 23.9458 7.79054 23.9458 7.84586 23.9444C8.05431 23.9417 8.19125 23.8314 8.21351 23.6489C8.23442 23.4764 8.31672 23.457 8.48806 23.4577H8.73901C9.89727 23.4617 11.0953 23.4644 12.2732 23.4577C13.0152 23.4537 13.7694 23.4577 14.4993 23.4604C15.8579 23.4664 17.2624 23.4731 18.6439 23.431C19.8076 23.3955 20.7918 22.3853 20.7925 21.2247C20.7952 17.2181 20.7972 12.9513 20.7904 8.71265L20.7911 8.71399ZM12.8479 1.58047C12.8479 1.67073 12.8486 1.76031 12.8486 1.85057C12.8486 1.94082 12.8486 2.02573 12.8479 2.11331C12.8465 2.31655 12.8459 2.52715 12.8513 2.7344C12.8533 2.81664 12.8405 2.86878 12.8101 2.89887C12.7811 2.92762 12.7312 2.94099 12.659 2.93898C12.5079 2.93497 12.3575 2.93363 12.2064 2.93363C12.037 2.93363 11.8677 2.93564 11.6964 2.93764C11.6289 2.93831 11.5837 2.92561 11.5561 2.89887C11.5291 2.87279 11.5163 2.82867 11.5169 2.76516C11.5203 2.13337 11.5196 1.50827 11.5169 0.905896C11.5169 0.836366 11.5291 0.791573 11.5554 0.765499C11.581 0.740763 11.6229 0.728728 11.6876 0.730066C12.0688 0.736751 12.3824 0.736751 12.6739 0.729397C12.7413 0.727391 12.7858 0.739425 12.8121 0.765499C12.8398 0.79291 12.8526 0.842383 12.8506 0.920605C12.8459 1.14056 12.8472 1.36453 12.8479 1.58114V1.58047ZM14.962 1.55975C14.962 1.65 14.9627 1.73959 14.9627 1.82984C14.9627 1.9201 14.9627 2.01102 14.9627 2.10128C14.962 2.31722 14.9614 2.54052 14.9647 2.76048C14.9661 2.828 14.9539 2.87413 14.927 2.90021C14.9013 2.92561 14.8582 2.93898 14.7941 2.93698C14.6396 2.93497 14.4784 2.93363 14.309 2.93363C14.1505 2.93363 13.9839 2.9343 13.8078 2.93631H13.8024C13.739 2.93631 13.6958 2.92361 13.6689 2.89753C13.6419 2.87079 13.6284 2.82666 13.6291 2.76248C13.6318 2.09593 13.6318 1.48754 13.6291 0.902554C13.6291 0.837035 13.6412 0.79291 13.6682 0.766836C13.6952 0.740763 13.7397 0.728728 13.8058 0.730066C14.1471 0.736083 14.479 0.735414 14.792 0.730066C14.8588 0.728728 14.9047 0.740094 14.9303 0.766168C14.956 0.791573 14.9674 0.835029 14.9661 0.900548C14.9614 1.1205 14.9627 1.34447 14.9634 1.56108L14.962 1.55975ZM1.84814 23.2043C1.62957 23.2077 1.56414 23.1488 1.5466 22.9416C1.51287 22.5398 1.44946 22.1346 1.38874 21.7422L1.36716 21.6031C1.35502 21.5242 1.35974 21.4748 1.38267 21.4494C1.40426 21.4246 1.44878 21.4133 1.52164 21.4133C1.52703 21.4133 1.53243 21.4133 1.5385 21.4133C1.79215 21.4186 2.04916 21.4179 2.29808 21.4173C2.52677 21.4166 2.76355 21.4153 2.9956 21.4199C3.11096 21.4213 3.18516 21.4012 3.23441 21.3531C3.28298 21.3049 3.30524 21.2301 3.30389 21.1171V21.0903C3.29782 20.6551 3.28432 20.6424 2.82089 20.6424C2.69002 20.6424 2.55847 20.6424 2.42693 20.6411C2.1011 20.6397 1.76449 20.6384 1.43327 20.6451C1.28149 20.6504 1.22617 20.6023 1.21065 20.4565C1.18704 20.2332 1.15264 20.0079 1.11891 19.7893L1.09058 19.6035C1.08046 19.5366 1.08721 19.4905 1.11082 19.4637C1.13578 19.435 1.18637 19.4236 1.26395 19.4223C1.50612 19.425 1.75235 19.4236 1.99047 19.4223C2.3453 19.4209 2.71228 19.4189 3.07251 19.4296C3.18179 19.433 3.25869 19.4116 3.30726 19.3641C3.37404 19.2993 3.37809 19.1997 3.37674 19.0766C3.37337 18.7283 3.35448 18.6782 3.0752 18.6775H3.06104C2.4411 18.6748 1.80092 18.6728 1.17085 18.6789C1.01907 18.6815 0.948916 18.6521 0.937448 18.481C0.920584 18.2389 0.879434 17.9949 0.840308 17.7589L0.822095 17.6493C0.813325 17.5944 0.816698 17.5583 0.834237 17.5383C0.850427 17.5202 0.882133 17.5095 0.931377 17.5122C0.97455 17.5122 1.0184 17.5122 1.06157 17.5122C1.08856 17.5122 1.11621 17.5122 1.1432 17.5122H9.37312C11.4481 17.5122 13.5232 17.5122 15.5982 17.5142C15.6211 17.5142 15.6467 17.5109 15.6717 17.5075C15.7533 17.4975 15.7918 17.4975 15.8032 17.5289C15.8194 17.5731 15.7864 17.6011 15.7135 17.6499C15.6926 17.664 15.6704 17.6787 15.6521 17.6947C15.4592 17.8619 15.2427 17.9394 14.9708 17.9394H14.9661C13.3363 17.9341 11.6795 17.9347 10.0774 17.9354H8.8321C8.35517 17.9354 8.25263 18.0263 8.18652 18.5044C8.04823 19.5018 7.90185 20.5147 7.76086 21.4948C7.70555 21.8792 7.65023 22.263 7.59491 22.6467C7.59491 22.6501 7.59357 22.6528 7.59289 22.6561C7.59222 22.6608 7.59087 22.6648 7.59019 22.6688C7.53308 23.0231 7.32733 23.2003 6.97295 23.2003H5.77691C4.48981 23.199 3.15818 23.1983 1.84949 23.2043H1.84814ZM1.7402 16.5869C2.0721 16.1871 2.53284 15.9879 3.14873 15.9779C3.30524 15.9752 3.44757 15.9739 3.58047 15.9739C3.71336 15.9739 3.84693 15.9752 3.96903 15.9779C4.14577 15.9832 4.27259 15.9137 4.36838 15.7626C4.70432 15.2318 5.17721 14.9356 5.77556 14.8828C6.28015 14.838 6.7645 14.9998 7.13957 15.3381C7.50857 15.6703 7.72106 16.131 7.72376 16.6003C7.72376 16.6625 7.71229 16.7046 7.68868 16.7287C7.65765 16.7594 7.60233 16.7661 7.52206 16.7654C6.80025 16.7628 6.07845 16.7634 5.35665 16.7634H4.19231C3.39968 16.7634 2.60704 16.7634 1.81441 16.7621C1.79754 16.7621 1.77663 16.7641 1.75707 16.7668C1.69433 16.7741 1.66398 16.7748 1.65048 16.7467C1.63092 16.7066 1.65925 16.6732 1.70715 16.623C1.71929 16.6103 1.73076 16.5983 1.74088 16.5863L1.7402 16.5869ZM4.32858 13.1332C4.32858 12.3142 4.32858 11.4671 4.32318 10.6348C4.32251 10.5244 4.33802 10.4623 4.37445 10.4255C4.41021 10.3894 4.47294 10.3733 4.57818 10.3733H4.57953C9.63553 10.3794 14.7536 10.3787 19.7907 10.3733H19.7921C19.8986 10.3733 19.9627 10.3894 19.9985 10.4262C20.0342 10.4623 20.0491 10.5264 20.0457 10.6328C20.0315 11.1475 20.0376 11.6683 20.0437 12.1718C20.045 12.3182 20.0194 12.3717 19.8642 12.3991C18.932 12.5622 18.2027 13.0429 17.6975 13.8278C17.6239 13.9421 17.5524 13.9769 17.4243 13.9595C16.6242 13.8552 15.9517 14.1266 15.4255 14.7664C15.3688 14.8346 15.331 14.8654 15.2973 14.8687C15.2636 14.8721 15.2231 14.8493 15.1556 14.7919C14.7516 14.4489 14.2773 14.122 13.706 13.7917C13.5677 13.7115 13.5441 13.6459 13.6088 13.5203C13.6709 13.4006 13.6979 13.2635 13.6965 13.0743C13.6952 12.8891 13.6965 12.7033 13.6965 12.5174C13.6972 12.2721 13.6979 12.0187 13.6952 11.7693C13.6878 11.1816 13.2412 10.727 12.6563 10.7123C12.0856 10.6983 11.4913 10.6983 10.8916 10.7123C10.3169 10.7257 9.85679 11.1923 9.84398 11.774C9.83318 12.252 9.83521 12.738 9.83723 13.208C9.83858 13.4681 9.83925 13.7282 9.83858 13.9882C9.8379 14.1868 9.9573 14.3272 10.0531 14.4402L10.3243 14.7604C10.8437 15.3728 11.3625 15.9859 11.8812 16.599C11.892 16.6117 11.9042 16.6244 11.9156 16.6364C11.9514 16.6738 11.9831 16.7073 11.9898 16.7541C11.9608 16.7721 11.9278 16.7694 11.8893 16.7661C11.8745 16.7648 11.859 16.7634 11.8448 16.7634C11.5156 16.7634 11.1864 16.7634 10.8572 16.7634C10.1637 16.7628 9.44665 16.7621 8.74103 16.7694C8.63782 16.7694 8.56969 16.7527 8.52989 16.7133C8.49279 16.6765 8.47592 16.6163 8.47659 16.5241C8.48874 15.441 7.56456 14.2135 6.05214 14.12C6.00155 14.1166 5.95095 14.1153 5.90036 14.1153C5.41871 14.1153 4.95459 14.259 4.51814 14.5431C4.47294 14.5726 4.42842 14.6026 4.3839 14.6334L4.34679 14.6588C4.31846 14.622 4.32251 14.5806 4.32723 14.5331C4.32926 14.5151 4.3306 14.497 4.3306 14.4803C4.32993 14.0317 4.32993 13.5831 4.3306 13.1345L4.32858 13.1332ZM4.3839 8.32355C4.50397 7.96453 4.68544 7.70915 4.95392 7.51861C5.46728 7.15491 5.98671 6.78119 6.4886 6.42017C7.08425 5.99229 7.69948 5.54903 8.3093 5.11915C8.58588 4.92393 8.69111 4.71802 8.66143 4.42853C8.65199 4.33894 8.65469 4.24601 8.65738 4.15576C8.65941 4.07754 8.66143 3.99731 8.65671 3.91775C8.65131 3.83552 8.66278 3.7827 8.69314 3.75128C8.72417 3.71986 8.77813 3.70582 8.86381 3.70782C9.14646 3.71518 9.4345 3.71317 9.71243 3.71184C9.82981 3.71184 9.94651 3.7105 10.0639 3.7105H10.9382C12.3946 3.7105 13.851 3.7105 15.3074 3.7105C15.4552 3.7105 15.5402 3.7125 15.5705 3.7466C15.5988 3.77869 15.5962 3.85558 15.58 3.98594C15.5152 4.51277 15.7041 4.88382 16.2107 5.22478C16.9521 5.7242 17.6867 6.26105 18.397 6.77985C18.735 7.02655 19.0844 7.28194 19.4298 7.52997C19.7995 7.79539 19.9978 8.16376 20.0363 8.65582C20.0477 8.80291 20.0457 8.954 20.0437 9.10041C20.0423 9.20605 20.0403 9.31569 20.0437 9.42333C20.0457 9.4942 20.0329 9.54166 20.0039 9.56974C19.9749 9.59782 19.9256 9.60919 19.8541 9.60518C19.8292 9.60384 19.8042 9.60317 19.7792 9.60317C19.7556 9.60317 19.732 9.60317 19.7091 9.60384C19.6861 9.60384 19.6632 9.60451 19.6403 9.60451H5.01463C4.66385 9.60451 4.48778 9.60451 4.40683 9.52428C4.32521 9.44339 4.32588 9.26555 4.32723 8.91054V8.84101C4.32723 8.6605 4.32723 8.49002 4.38322 8.32088L4.3839 8.32355ZM7.76828 0.865783C7.76828 0.815641 7.7784 0.780876 7.79931 0.760151C7.82023 0.740094 7.85395 0.731403 7.90387 0.731403C8.11367 0.734077 8.28839 0.735414 8.46917 0.730734C8.52449 0.728729 8.56227 0.739425 8.5852 0.762156C8.61084 0.787562 8.62298 0.831018 8.62231 0.899211C8.62028 1.1205 8.62028 1.3418 8.62096 1.56376V1.83118C8.62096 1.91943 8.62096 2.00835 8.62096 2.0966C8.62028 2.31522 8.61961 2.54052 8.62298 2.76248C8.62365 2.82867 8.61084 2.87346 8.58385 2.90021C8.55687 2.92628 8.51235 2.93898 8.44759 2.93698C8.36596 2.93497 8.28299 2.9343 8.20136 2.9343C8.14875 2.9343 8.0968 2.9343 8.04486 2.9343H7.90657C7.85733 2.9343 7.8236 2.92427 7.80201 2.90288C7.78042 2.88149 7.77031 2.84672 7.77031 2.79725C7.77233 2.11465 7.77166 1.48219 7.77031 0.865114L7.76828 0.865783ZM10.7331 1.56777C10.7331 1.65869 10.7338 1.74895 10.7338 1.83987C10.7338 1.92812 10.7338 2.01637 10.7324 2.10462C10.7311 2.30786 10.7297 2.51712 10.7364 2.72371C10.7391 2.80995 10.7257 2.86544 10.6933 2.89686C10.6609 2.92829 10.609 2.94099 10.53 2.93831C10.3809 2.93363 10.2319 2.9323 10.0862 2.9323C9.91616 2.9323 9.75021 2.9343 9.59033 2.93764C9.52017 2.93831 9.47093 2.92628 9.4426 2.8982C9.41427 2.87012 9.40077 2.82265 9.40145 2.75179C9.40617 2.13805 9.40617 1.5203 9.40145 0.915925C9.40145 0.841046 9.41359 0.79291 9.44192 0.765499C9.46891 0.739425 9.51545 0.726723 9.58494 0.728729C9.89457 0.736083 10.2184 0.736083 10.5476 0.728729C10.6231 0.726723 10.6703 0.739425 10.698 0.766836C10.725 0.793579 10.7371 0.840378 10.7358 0.909908C10.7304 1.12919 10.7317 1.35249 10.7324 1.56777H10.7331ZM19.7975 17.9053C19.2868 17.9013 18.7687 17.8993 18.2459 17.8993C17.7231 17.8993 17.2131 17.9013 16.6944 17.9053C16.5642 17.904 16.5406 17.8859 16.5365 17.8766C16.5311 17.8659 16.5325 17.8338 16.6047 17.7355C16.7065 17.5965 16.749 17.4327 16.7773 17.2903C16.8091 17.1298 16.7861 16.9968 16.7099 16.9052C16.635 16.8142 16.5089 16.7661 16.347 16.7654H16.2896C15.2912 16.7621 14.2591 16.7587 13.2439 16.7688C13.055 16.7728 12.9349 16.7133 12.8175 16.5642C12.2077 15.79 11.5203 14.9683 10.7169 14.0524C10.6265 13.9495 10.5867 13.8458 10.588 13.7175C10.5914 13.3698 10.5907 13.0168 10.5907 12.6752C10.5907 12.4325 10.5907 12.1898 10.5907 11.9465C10.5921 11.5808 10.7155 11.4564 11.0785 11.4551C11.4994 11.4531 11.9986 11.4517 12.512 11.4551C12.8175 11.4571 12.9376 11.5741 12.9403 11.8716C12.9417 12.0153 12.9403 12.1591 12.9403 12.3035C12.9396 12.5134 12.9383 12.73 12.9437 12.944C12.9491 13.1572 12.8843 13.3324 12.7413 13.4942C12.6219 13.6299 12.5713 13.7563 12.5909 13.8692C12.6104 13.9822 12.7002 14.0825 12.8567 14.1681C13.7141 14.6381 14.446 15.1482 15.0949 15.7265C15.2238 15.8415 15.3749 15.8896 15.5098 15.8589C15.6386 15.8295 15.7425 15.7325 15.8026 15.5861C16.0987 14.8627 16.8738 14.5218 17.6455 14.7758C17.9012 14.86 18.051 14.7805 18.1987 14.4823C18.5346 13.8024 19.0777 13.3625 19.8123 13.1753C19.9169 13.1485 19.9924 13.1312 20.0153 13.1485C20.0396 13.1673 20.0396 13.2582 20.0403 13.3458C20.041 13.8612 20.041 14.3773 20.0403 14.8935V15.5126C20.0403 15.7118 20.0403 15.9117 20.039 16.1116C20.0376 16.6177 20.0363 17.1418 20.0444 17.6566C20.0457 17.7582 20.0309 17.8198 19.9951 17.8552C19.9594 17.8906 19.8986 17.906 19.7968 17.9053H19.7975ZM8.3835 22.4582L8.41386 22.2583C8.52719 21.5175 8.64389 20.7514 8.73901 19.9952C8.76194 19.8141 8.82873 19.7947 8.98726 19.7947H8.99198C10.4066 19.798 11.8455 19.7973 13.2365 19.7973H19.7563C19.9007 19.7973 19.9796 19.7973 20.0099 19.8281C20.0403 19.8589 20.0403 19.9404 20.0403 20.0875V20.3656C20.041 20.6297 20.0417 20.8945 20.0396 21.1585C20.0322 22.0277 19.3772 22.6835 18.5164 22.6849C16.917 22.6875 15.3175 22.6875 13.7188 22.6875C12.0121 22.6875 10.3054 22.6875 8.59869 22.6909H8.59735C8.49683 22.6909 8.43612 22.6748 8.40576 22.6407C8.37676 22.6073 8.37001 22.5491 8.3835 22.4575V22.4582ZM19.8022 19.0539C18.4348 19.0479 17.0445 19.0486 15.6994 19.0492H13.451C12.0424 19.0499 10.586 19.0499 9.15388 19.0466C9.12959 19.0466 9.10598 19.0492 9.08035 19.0519C9.02301 19.0579 8.96364 19.0639 8.93126 19.0359C8.90833 19.0165 8.89618 18.9784 8.89484 18.9229C8.89281 18.8453 8.90765 18.7912 8.94206 18.7571C8.97848 18.7203 9.04055 18.7036 9.14106 18.7036C9.14781 18.7036 9.15455 18.7036 9.16197 18.7036C9.40077 18.7089 9.64362 18.7069 9.87838 18.7063L12.0944 18.6989C14.6585 18.6902 17.2226 18.6815 19.7867 18.6748C19.8069 18.6748 19.8278 18.6735 19.8487 18.6722C19.956 18.6648 20.0336 18.6595 20.045 18.8099C20.0525 18.9062 20.0403 18.967 20.0073 19.0024C19.9728 19.0392 19.9067 19.0546 19.8035 19.0546L19.8022 19.0539ZM15.7162 0.891188C15.7149 0.827675 15.7263 0.784887 15.7506 0.761488C15.7722 0.740094 15.808 0.730066 15.8592 0.730066C15.864 0.730066 15.868 0.730066 15.8727 0.730066C16.0454 0.735414 16.2228 0.736083 16.4151 0.730066C16.4711 0.72806 16.5095 0.738757 16.5331 0.762156C16.5588 0.786893 16.5709 0.831018 16.5709 0.896537C16.5682 1.58783 16.5682 2.19688 16.5709 2.75914C16.5709 2.88683 16.5284 2.93029 16.3942 2.93831H16.3841C16.0427 2.95971 15.8714 2.9704 15.7938 2.8982C15.7162 2.826 15.7162 2.65418 15.7162 2.31121V1.57847C15.7183 1.35316 15.7189 1.11984 15.7149 0.89052L15.7162 0.891188Z" fill="#797979"/>
</svg>
