<svg width="17" height="17" viewBox="0 0 17 17" fill="none" xmlns="http://www.w3.org/2000/svg">
<g clip-path="url(#clip0_2601_3266)">
<path d="M5.56511 0.607178V1.58697C5.56511 2.90418 5.46861 3.9898 5.14334 4.90536V4.9084L5.11702 4.94356L0.660346 6.45754C0.575316 5.02876 1.20191 4.19266 1.91657 3.70546C2.46117 3.33288 2.60761 2.47041 2.63697 2.01263C2.66025 1.66068 2.63697 1.18802 2.63697 0.607178H5.56511Z" fill="#DF4D60"/>
<path d="M4.10104 1.21443C4.90962 1.21443 5.56511 0.942571 5.56511 0.607215C5.56511 0.27186 4.90962 0 4.10104 0C3.29245 0 2.63696 0.27186 2.63696 0.607215C2.63696 0.942571 3.29245 1.21443 4.10104 1.21443Z" fill="#802D40"/>
<path d="M11.5005 5.12286C9.83428 4.59475 8.86824 4.87943 8.39079 5.15497C8.3891 5.15497 8.38776 5.15633 8.38776 5.15802C9.38349 5.05524 10.1474 5.96775 10.581 6.74807C11.3891 8.20931 11.5676 9.93156 11.404 11.5716C11.2896 12.6748 11.0264 13.7578 10.6222 14.7903C10.3731 15.549 9.87714 16.2018 9.21376 16.6444C8.3999 17.1198 7.40991 17.0521 6.5316 16.8263C5.77948 16.6217 5.05099 16.3377 4.35893 15.9784C0.118889 13.8572 -0.829942 9.06604 0.660451 6.45765C1.06637 5.71046 1.73548 5.14111 2.53753 4.86151C3.03759 4.68333 3.5697 4.61436 4.09811 4.65899C4.45206 4.69213 4.79725 4.78848 5.11712 4.94367L5.14344 4.9085V4.90546C5.74675 4.08694 7.87825 1.66044 11.2751 2.77548C11.602 2.88366 11.9202 3.01721 12.2266 3.17443L11.5005 5.12286Z" fill="#FF5364"/>
<path d="M7.3204 13.7725H3.95597C3.79434 13.7725 3.66309 13.641 3.66309 13.479C3.66309 13.3171 3.79434 13.1855 3.95597 13.1855H7.3204C7.48203 13.1855 7.61329 13.3171 7.61329 13.479C7.61295 13.6413 7.48203 13.7725 7.3204 13.7725Z" fill="#802D40"/>
<path d="M9.36992 13.7725H8.49161C8.32999 13.7725 8.19873 13.641 8.19873 13.479C8.19873 13.3171 8.32999 13.1855 8.49161 13.1855H9.36992C9.53155 13.1855 9.6628 13.3171 9.6628 13.479C9.6628 13.6413 9.53155 13.7725 9.36992 13.7725Z" fill="#802D40"/>
<path d="M12.4348 4.35972C12.2414 4.89086 11.8345 5.23098 11.521 5.12854C11.516 5.12888 11.5109 5.12786 11.5065 5.1255C11.5035 5.1255 11.5035 5.12245 11.5008 5.12245C11.1934 5.00209 11.0996 4.47399 11.2987 3.94014C11.4978 3.40021 11.9135 3.05704 12.2269 3.17436C12.5404 3.29168 12.6339 3.82282 12.4348 4.35972Z" fill="#802D40"/>
<path d="M7.31609 7.83061C7.18551 7.83061 7.07079 7.74406 7.03468 7.61828C7.02895 7.598 6.43542 5.58229 4.91601 4.84423C4.77058 4.77357 4.70985 4.5981 4.78037 4.45204C4.85089 4.30599 5.02601 4.24547 5.17178 4.31613C6.92873 5.17049 7.57287 7.36404 7.59784 7.45532C7.62315 7.5439 7.60527 7.63891 7.54993 7.71261C7.49459 7.78598 7.40787 7.82925 7.31609 7.82925V7.83061Z" fill="#DF4D60"/>
<path d="M1.18648 9.07821H1.16556C1.08795 9.0728 1.01608 9.03662 0.965129 8.9778C0.914178 8.91897 0.888871 8.84222 0.89427 8.7648C1.00393 7.20991 1.7223 6.06107 2.81555 5.69525C2.91509 5.66212 3.02442 5.68443 3.10303 5.75408C3.18132 5.82372 3.21675 5.92989 3.19583 6.03267C3.17491 6.13545 3.10067 6.21929 3.00147 6.25243C2.14037 6.54048 1.57114 7.49559 1.47869 8.80706C1.46721 8.96021 1.33967 9.07855 1.18648 9.07821Z" fill="white"/>
<path d="M8.71702 11.393L7.4139 12.3261C5.70081 13.5524 3.54569 14.3976 2.67919 13.1798C2.64309 13.1308 2.62824 13.0689 2.63836 13.0088C2.64849 12.9486 2.68189 12.8948 2.73183 12.86L7.38758 9.52707C7.48644 9.45641 7.6096 9.42801 7.72939 9.44829C7.84917 9.46858 7.9558 9.53586 8.02598 9.6356L8.8223 10.7533C8.96908 10.9596 8.92184 11.2453 8.71702 11.393Z" fill="#BDC3C7"/>
<path d="M9.94977 9.94355L9.93796 9.95538L8.82244 10.7533L8.02612 9.63555L9.14164 8.8346L9.15615 8.82886C9.16931 8.86909 9.18888 8.90696 9.21486 8.94043L9.86507 9.8499C9.88937 9.88438 9.91805 9.91583 9.94977 9.94355Z" fill="#95A5A5"/>
<path d="M16.7549 5.68937L10.6819 9.98789C10.4579 10.1471 10.1535 10.1289 9.95007 9.94393C9.91801 9.91621 9.88967 9.88477 9.86504 9.84994L9.21482 8.94047C9.18918 8.907 9.16927 8.86914 9.15611 8.8289C9.04544 8.57635 9.12743 8.28085 9.35216 8.12195L15.4251 3.82648C15.5509 3.73519 15.7082 3.698 15.8617 3.72336C16.0152 3.74871 16.1522 3.83425 16.242 3.96138L16.8892 4.87085C16.9803 4.99696 17.0174 5.15451 16.9921 5.30834C16.9668 5.46217 16.8817 5.5991 16.7549 5.68937Z" fill="#3B97D3"/>
</g>
<defs>
<clipPath id="clip0_2601_3266">
<rect width="17" height="17" fill="white"/>
</clipPath>
</defs>
</svg>
