<svg width="196" height="126" viewBox="0 0 196 126" fill="none" xmlns="http://www.w3.org/2000/svg">
<path d="M102.576 95.8158C102.689 96.5388 102.231 97.0694 101.921 97.6311C100.627 99.9805 98.9645 102.077 97.4145 104.254C95.7014 106.661 93.652 108.749 91.5038 110.715C88.7522 113.234 85.7735 115.484 82.5381 117.397C79.7518 119.044 76.8927 120.52 73.8706 121.652C69.0211 123.467 64.0328 124.677 58.8382 125.017C56.7056 125.156 54.5799 125.203 52.449 125.163C46.925 125.061 41.5692 124.034 36.3607 122.212C35.7157 121.986 35.3637 121.452 34.9424 120.984C34.75 120.769 34.587 120.528 34.3841 120.324C34.2419 120.181 34.1275 119.873 33.8362 120.11C33.6351 120.275 33.5709 120.474 33.7305 120.719C33.8068 120.837 33.8432 120.979 33.9611 121.263C32.6867 120.832 31.584 120.331 30.5142 119.765C27.4037 118.12 24.3556 116.369 21.5658 114.21C17.9525 111.413 14.6825 108.27 11.8251 104.69C10.1485 102.59 8.60016 100.404 7.28417 98.0715C4.8568 93.7681 2.9253 89.2601 1.70294 84.4418C0.426831 79.4015 -0.122797 74.2954 0.0228458 69.1146C0.113006 65.9486 0.489249 62.8121 1.1325 59.6947C1.71161 56.8893 2.5872 54.1897 3.48186 51.4867C3.64137 51.0047 3.86331 50.6336 4.45455 50.729C4.86373 50.7949 5.0978 50.5521 5.33707 50.2314C5.05792 49.9366 4.37999 50.0961 4.38346 49.5656C4.38693 49.1841 4.59672 48.794 4.76144 48.4282C6.96688 43.5751 9.79304 39.1192 13.3231 35.1175C17.0838 30.8522 21.2572 27.0638 26.1432 24.118C31.5042 20.8861 37.2398 18.594 43.3862 17.3543C47.218 16.5827 51.0741 16.1232 54.9908 16.3434C54.9007 17.0006 54.8365 17.6629 54.7134 18.3131C54.2921 20.5445 53.7407 22.7326 52.0398 24.3919C51.5127 24.9051 51.5249 25.1496 52.2097 25.4721C54.2869 26.45 56.5062 26.7898 58.7567 26.9684C59.5682 27.0326 59.993 27.2597 60.2305 28.1301C60.8564 30.4188 62.9908 31.9168 65.3592 31.8995C67.7086 31.8821 69.8429 30.3321 70.4394 28.0503C70.6544 27.2233 71.0046 26.9823 71.8178 26.9181C73.8932 26.7569 75.946 26.4015 77.8966 25.6299C79.0028 25.193 79.0149 25.1236 78.2347 24.1943C77.4267 23.2303 76.858 22.1449 76.4645 20.9589C77.8411 21.0439 78.9439 21.831 80.0951 22.4448C83.5559 24.2896 86.7947 26.4812 89.7925 29.0143C91.7084 30.6355 93.4613 32.4283 95.2108 34.2245C95.431 34.4499 95.4812 34.7204 95.5853 34.984C94.9802 34.9944 94.3733 35.0152 93.7682 35.0152C77.4788 35.0152 61.1876 35.0152 44.8981 35.0186C38.4084 35.0204 33.5952 39.6705 33.5675 46.1482C33.5103 59.0011 33.5189 71.8524 33.5675 84.7053C33.5883 90.0265 37.0456 94.2692 42.1725 95.4569C44.1023 95.9042 46.0824 95.7204 48.0451 95.7291C48.4993 95.7308 48.8617 95.7881 49.1738 96.1903C50.944 98.4703 52.7472 100.724 54.5244 102.997C55.0827 103.71 55.8213 103.715 56.3658 102.966C56.4802 102.808 56.4906 102.573 56.7247 102.51C57.1235 102.633 57.5465 102.782 57.843 102.347C58.0511 102.04 57.8014 101.841 57.576 101.666C57.7997 101.269 57.9522 100.799 58.2609 100.487C59.53 99.2072 60.5842 97.7577 61.6384 96.3117C61.9747 95.8522 62.3232 95.7274 62.8538 95.7274C75.7796 95.7395 88.7071 95.7378 101.633 95.743C101.947 95.743 102.262 95.7915 102.576 95.8193V95.8158ZM40.404 101.321C40.6051 101.321 40.808 101.319 41.0091 101.321C41.479 101.328 41.824 101.132 41.8327 100.639C41.8396 100.149 41.4877 99.9475 41.0317 99.9163C40.8583 99.9042 40.6849 99.9094 40.5133 99.8955C36.307 99.554 33.0768 97.6121 30.8974 93.9849C29.8501 92.2423 29.3647 90.3282 29.2988 88.3013C29.2814 87.7898 29.1098 87.3373 28.5099 87.3893C27.9776 87.4344 27.8354 87.8627 27.877 88.3499C27.9134 88.7816 27.9516 89.2116 27.9932 89.6416C28.6052 95.8765 34.1657 101.102 40.404 101.321Z" fill="#F2F2F2"/>
<path d="M102.576 95.8158C102.262 95.7898 101.947 95.7395 101.633 95.7395C88.7073 95.7343 75.7798 95.7378 62.854 95.7239C62.3235 95.7239 61.975 95.847 61.6386 96.3082C60.5844 97.7543 59.5302 99.2037 58.2611 100.483C57.9507 100.795 57.7999 101.265 57.5762 101.662C57.1653 101.815 56.8948 102.111 56.7249 102.507C56.4908 102.569 56.4804 102.807 56.366 102.963C55.8216 103.713 55.0829 103.708 54.5246 102.994C52.7475 100.721 50.9443 98.4669 49.174 96.1869C48.8619 95.7846 48.4995 95.7274 48.0453 95.7257C46.0843 95.717 44.1025 95.9008 42.1728 95.4535C37.0458 94.264 33.5885 90.0213 33.5677 84.7019C33.5174 71.8489 33.5105 58.9977 33.5677 46.1447C33.5954 39.6671 38.4086 35.0169 44.8984 35.0152C61.1878 35.01 77.479 35.0152 93.7684 35.0117C94.3735 35.0117 94.9804 34.9909 95.5855 34.9805C95.797 34.9927 96.0103 35.0031 96.2218 35.0152H96.2877C112.957 35.0187 129.624 35.0221 146.293 35.0256C152.447 35.0256 158.6 35.0256 164.754 35.0273C165.302 35.0273 165.851 35.0603 166.397 35.0776C166.444 35.0845 166.491 35.0915 166.539 35.0984C170.968 35.811 174.009 38.2332 175.578 42.4516C176.025 43.6549 176.18 44.9154 176.18 46.1933C176.183 53.3298 176.19 60.4645 176.169 67.601C176.167 68.298 176.246 68.5147 177.059 68.4125C183.306 67.6374 189.166 71.7657 190.59 77.9885C191.105 80.2425 190.815 82.5363 190.876 84.8111C190.905 85.9416 190.883 85.9433 191.975 85.9503C194.234 85.9659 195.488 87.2368 195.488 89.5185C195.489 96.2493 195.491 102.982 195.488 109.713C195.488 111.911 194.184 113.227 191.994 113.227C183.703 113.232 175.41 113.231 167.119 113.227C166.806 113.227 166.477 113.298 166.207 113.066C166.519 112.22 167.158 111.797 168.124 111.798C176.039 111.798 183.954 111.8 191.869 111.798C193.383 111.798 194.061 111.223 194.062 109.862C194.075 103.016 194.075 96.1695 194.062 89.3243C194.061 88.017 193.385 87.3581 192.074 87.3356C190.95 87.3165 189.825 87.3408 188.7 87.3408C180.842 87.3373 172.986 87.3321 165.128 87.3321C163.493 87.3321 162.864 87.9563 162.864 89.5757C162.862 95.9597 162.862 102.344 162.867 108.726C162.867 109.04 162.924 109.354 162.954 109.666C162.879 109.829 162.803 109.993 162.728 110.158C162.208 110.434 162.155 111.049 161.796 111.443C161.52 110.885 161.458 110.293 161.459 109.676C161.47 105.4 161.465 101.127 161.465 96.8509C161.465 96.095 161.1 95.717 160.37 95.717C141.536 95.717 122.701 95.717 103.866 95.7205C103.436 95.7205 103.005 95.7811 102.575 95.8141L102.576 95.8158ZM111.511 94.3143C127.486 94.3143 143.462 94.3143 159.438 94.3143C160.791 94.3143 161.468 93.6422 161.468 92.2979C161.468 91.4032 161.468 90.5068 161.468 89.6104C161.468 87.1518 162.656 85.9399 165.135 85.9676C165.836 85.9763 166.085 85.8202 166.059 85.0729C166.004 83.4865 165.978 81.8913 166.071 80.3083C166.39 74.9456 169.114 71.2386 174.018 69.1407C174.624 68.8806 174.76 68.5997 174.758 68.0102C174.742 60.6431 174.749 53.2777 174.746 45.9107C174.746 45.2483 174.727 44.586 174.562 43.9323C173.392 39.2804 169.747 36.43 164.936 36.43C153.328 36.4265 141.72 36.43 130.113 36.43C110.795 36.43 91.4745 36.43 72.1561 36.43C63.1141 36.43 54.0721 36.43 45.0284 36.4265C39.0414 36.4248 34.9756 40.4837 34.9756 46.4828C34.9738 59.0497 34.9756 71.6149 34.9773 84.1817C34.9773 84.6724 34.9894 85.1648 35.0259 85.6538C35.331 89.6381 38.3982 93.1492 42.2959 94.0386C44.3557 94.5085 46.4397 94.2554 48.5134 94.2918C49.1861 94.3039 49.6387 94.4894 50.0513 95.0269C51.7054 97.1769 53.408 99.287 55.0708 101.43C55.376 101.824 55.5545 101.919 55.8892 101.465C56.3799 100.795 57.0491 100.228 57.486 99.5626C58.5159 97.9883 59.7955 96.6186 60.8549 95.0789C61.2537 94.4998 61.7409 94.2935 62.457 94.2935C78.8088 94.3143 95.159 94.3091 111.511 94.3091V94.3143ZM189.497 82.2069C189.523 80.8233 189.516 79.0981 188.984 77.4128C187.538 72.8355 183.198 69.6643 178.387 69.7076C173.518 69.7492 169.267 72.9985 167.885 77.6556C167.278 79.6998 167.474 81.7786 167.446 83.8488C167.417 86.004 167.439 85.9849 169.565 85.9537C170.096 85.9468 170.267 85.7942 170.259 85.2654C170.233 83.7639 170.245 82.2624 170.253 80.7609C170.269 77.718 171.618 75.3565 174.135 73.7457C178.498 70.9543 184.457 73.0904 186.198 77.9486C186.895 79.894 186.652 81.8879 186.685 83.8679C186.721 86.0872 186.692 86.0734 188.93 85.9537C189.398 85.9295 189.518 85.7613 189.508 85.3295C189.485 84.4054 189.501 83.4813 189.501 82.2069H189.497ZM176.18 80.2112H176.154C176.154 81.9434 176.174 83.6755 176.138 85.4058C176.129 85.8428 176.244 85.9607 176.655 85.9589C179.34 85.9485 182.024 85.9468 184.71 85.9624C185.166 85.9641 185.303 85.8029 185.296 85.3538C185.272 83.7379 185.334 82.1185 185.274 80.5043C185.116 76.2702 181.149 73.1736 177.088 74.0544C176.441 74.1948 176.121 74.4202 176.155 75.1883C176.232 76.8597 176.18 78.5364 176.18 80.2112ZM174.579 75.145C173.442 75.9685 172.611 77.014 172.098 78.3318C171.405 80.1141 171.663 81.9763 171.635 83.8107C171.604 85.9572 171.628 85.9225 173.775 85.9745C174.52 85.9919 174.773 85.8098 174.763 85.0348C174.725 81.9486 174.749 78.8623 174.744 75.7778C174.744 75.5888 174.808 75.379 174.578 75.1467L174.579 75.145Z" fill="#282F39"/>
<path d="M162.956 109.671C162.927 109.357 162.87 109.043 162.87 108.731C162.865 102.347 162.865 95.9632 162.866 89.5809C162.866 87.9615 163.496 87.3373 165.131 87.3373C172.988 87.3373 180.844 87.3442 188.702 87.346C189.828 87.346 190.951 87.3217 192.076 87.3408C193.387 87.3616 194.063 88.0204 194.065 89.3295C194.077 96.1747 194.077 103.022 194.065 109.867C194.063 111.228 193.385 111.804 191.872 111.804C183.957 111.807 176.042 111.804 168.127 111.804C167.16 111.804 166.521 112.226 166.209 113.071C165.923 113.095 165.639 113.12 165.353 113.146C165.757 112.78 165.666 112.371 165.45 111.953C165.63 111.75 165.98 111.996 166.155 111.635C165.403 110.848 164.602 111.358 163.82 111.563C163.478 111.438 163.262 111.186 163.118 110.862C163.34 110.508 163.712 110.345 164.047 110.132C164.252 110.002 164.252 109.803 164.179 109.603C164.083 109.348 163.9 109.381 163.69 109.458C163.451 109.544 163.203 109.602 162.958 109.673L162.956 109.671ZM178.514 103.259C178.956 103.259 179.274 103.261 179.591 103.259C179.967 103.256 180.083 103.072 180.031 102.703C179.839 101.317 179.683 99.9267 179.473 98.5431C179.405 98.0941 179.501 97.8201 179.856 97.5098C180.891 96.603 180.924 95.2315 179.998 94.3108C179.123 93.4422 177.748 93.4543 176.907 94.342C175.993 95.306 176.068 96.603 177.108 97.5479C177.3 97.723 177.533 97.8357 177.493 98.1565C177.327 99.4534 177.207 100.757 176.995 102.047C176.869 102.817 177.165 103.278 177.954 103.287C178.183 103.289 178.414 103.264 178.518 103.259H178.514Z" fill="#088F8F"/>
<path d="M76.4641 20.9572C76.8577 22.1431 77.4264 23.2303 78.2343 24.1925C79.0128 25.1219 79.0024 25.1912 77.8962 25.6282C75.9457 26.3997 73.8928 26.7534 71.8174 26.9164C71.0025 26.9806 70.654 27.2216 70.439 28.0486C69.8426 30.3303 67.7082 31.8804 65.3588 31.8977C62.9921 31.9151 60.8578 30.417 60.2301 28.1284C59.9926 27.258 59.5678 27.0308 58.7564 26.9667C56.5076 26.7881 54.2883 26.4483 52.2094 25.4704C51.5262 25.1479 51.5124 24.9052 52.0395 24.3902C53.7404 22.7309 54.2917 20.5428 54.713 18.3114C54.8362 17.6612 54.8986 16.9988 54.9905 16.3417C55.3632 14.1848 55.5228 11.9932 56.1071 9.86928C57.3797 5.23819 61.3831 2.16929 66.016 2.49525C70.0905 2.78134 72.6202 5.19311 74.0783 8.85672C74.9296 10.998 75.0996 13.2849 75.37 15.5459C75.5885 17.3785 75.7862 19.2164 76.4641 20.9555V20.9572ZM64.9254 25.8224C66.5743 25.8744 68.2145 25.7183 69.8547 25.6143C71.8729 25.486 73.8755 25.2346 75.8382 24.7352C76.0809 24.6728 76.7519 24.7335 76.3306 24.0868C74.7528 21.6681 74.2864 18.9199 73.9518 16.1267C73.6847 13.897 73.5304 11.6447 72.7467 9.50691C71.4221 5.88665 68.5942 3.82511 65.0571 3.91874C61.6068 4.01063 58.531 6.6478 57.5045 10.3773C56.9341 12.4458 56.7711 14.5784 56.4729 16.6885C56.1209 19.1817 55.7273 21.6698 54.3489 23.844C53.912 24.5341 54.1218 24.6711 54.7859 24.8323C58.1218 25.6368 61.5218 25.7253 64.9236 25.8206L64.9254 25.8224ZM65.3692 27.3013V27.3083C64.3029 27.3083 63.2349 27.3308 62.1703 27.2979C61.6519 27.2823 61.4976 27.3967 61.6848 27.9255C62.1842 29.3299 63.7446 30.4274 65.3103 30.4274C66.9089 30.4274 68.4745 29.3022 68.9722 27.851C69.1299 27.3898 68.9947 27.2909 68.5699 27.2961C67.5036 27.3083 66.4373 27.2996 65.371 27.2996L65.3692 27.3013Z" fill="#282F39"/>
<path d="M138.075 21.4704C135.561 21.4496 133.366 19.2615 133.356 16.77C133.345 14.1293 135.599 11.8701 138.186 11.9274C140.771 11.9846 142.904 14.112 142.893 16.6243C142.881 19.3343 140.736 21.493 138.075 21.4704Z" fill="#0E4D92"/>
<path d="M181.501 42.0771C181.501 42.2505 181.492 42.4239 181.501 42.5955C181.527 43.0689 181.331 43.4313 180.849 43.4434C180.317 43.4573 180.128 43.0793 180.121 42.5713C180.09 40.2011 179.413 38.0234 178.054 36.085C175.769 32.8288 172.613 31.121 168.643 30.9164C168.261 30.8973 167.875 30.9251 167.661 30.5228C167.389 30.0096 167.795 29.512 168.518 29.5241C171.311 29.5675 173.844 30.4222 176.084 32.0833C179.438 34.5679 181.187 37.9367 181.499 42.0789L181.501 42.0771Z" fill="#282F39"/>
<path d="M116.563 115.667C114.375 115.66 112.598 113.893 112.586 111.712C112.574 109.498 114.387 107.694 116.607 107.715C118.767 107.736 120.589 109.574 120.565 111.712C120.541 113.874 118.72 115.674 116.565 115.668L116.563 115.667ZM116.51 114.278C117.919 114.304 119.107 113.159 119.142 111.741C119.175 110.335 118.016 109.123 116.615 109.099C115.197 109.076 114.009 110.221 113.982 111.635C113.954 113.048 115.105 114.25 116.51 114.278Z" fill="#282F39"/>
<path d="M78.424 6.9183C78.3842 7.29628 78.216 7.5893 77.8276 7.67079C77.46 7.74881 77.2017 7.54075 77.0855 7.21479C76.952 6.83681 76.8983 6.43109 76.7717 6.04964C76.1094 4.03492 74.7743 2.57156 72.985 1.49137C72.5567 1.23303 72.0192 0.990295 72.3556 0.385184C72.7058 -0.245935 73.2138 0.0245447 73.6924 0.308895C76.0885 1.73411 77.7045 3.73843 78.3235 6.49177C78.3547 6.63222 78.3894 6.77266 78.4223 6.91657L78.424 6.9183Z" fill="#282F39"/>
<path d="M52.0703 6.92177C52.1847 6.21089 52.3633 5.5451 52.6407 4.90704C53.5371 2.84897 55.0022 1.31106 56.9407 0.204866C57.3932 -0.053476 57.8527 -0.133233 58.1336 0.395589C58.4023 0.901871 58.0313 1.19142 57.6342 1.42376C55.4669 2.6912 53.9619 4.45104 53.4765 6.98245C53.395 7.40378 53.1418 7.75401 52.6355 7.66385C52.2385 7.59277 52.0929 7.27547 52.0703 6.92004V6.92177Z" fill="#282F39"/>
<path d="M161.799 111.446C162.158 111.053 162.211 110.437 162.731 110.16C162.783 110.354 162.834 110.552 162.886 110.748C162.77 111.101 162.438 111.467 162.863 111.812C163.208 112.093 163.548 111.937 163.86 111.71C164.086 111.786 164.311 111.864 164.538 111.942C164.304 112.488 163.498 112.365 163.324 112.981C162.785 112.499 162.197 112.067 161.797 111.446H161.799Z" fill="#282F39"/>
<path d="M163.324 112.981C163.498 112.365 164.304 112.488 164.538 111.942C164.841 111.946 169.427 111.8 169.731 111.804C169.947 112.221 169.36 112.778 168.956 113.144C168.262 113.335 163.978 113.309 163.324 112.981Z" fill="#282F39"/>
<path d="M166.539 35.1001C166.49 35.0932 166.443 35.0862 166.396 35.0793C166.457 34.9996 166.504 35.0048 166.539 35.1001Z" fill="#D9D9D9"/>
<path d="M40.4045 101.322C34.1661 101.104 28.6039 95.8782 27.9936 89.6433C27.952 89.2133 27.9139 88.7816 27.8774 88.3516C27.8376 87.8644 27.978 87.4379 28.5103 87.391C29.1102 87.339 29.2819 87.7916 29.2992 88.3031C29.3651 90.3299 29.8506 92.2441 30.8978 93.9866C33.0772 97.6138 36.3074 99.5574 40.5137 99.8972C40.6853 99.9111 40.8605 99.9059 41.0321 99.9181C41.4881 99.9493 41.8401 100.15 41.8331 100.641C41.8262 101.132 41.4794 101.328 41.0096 101.322C40.8084 101.319 40.6056 101.322 40.4045 101.322Z" fill="#282F39"/>
<path d="M56.7244 102.508C56.896 102.113 57.1648 101.817 57.5757 101.664C57.7994 101.841 58.0508 102.039 57.841 102.347C57.5462 102.782 57.1232 102.633 56.7227 102.51L56.7244 102.508Z" fill="#E8E7E8"/>
<path d="M111.511 94.3143C95.1591 94.3143 78.809 94.3195 62.4571 94.2987C61.7411 94.2987 61.2539 94.5051 60.8551 95.0842C59.7957 96.6238 58.5161 97.9935 57.4862 99.5679C57.051 100.234 56.3818 100.802 55.8893 101.47C55.5564 101.924 55.3779 101.829 55.071 101.435C53.4082 99.2922 51.7056 97.1804 50.0515 95.0321C49.6371 94.4947 49.1846 94.3091 48.5136 94.297C46.4399 94.2606 44.3576 94.5137 42.296 94.0439C38.3966 93.1544 35.3295 89.6434 35.026 85.659C34.9879 85.1701 34.9775 84.6776 34.9775 84.187C34.974 71.6201 34.974 59.0549 34.9757 46.488C34.9757 40.489 39.0416 36.43 45.0286 36.4318C54.0705 36.4352 63.1125 36.4352 72.1562 36.4352C91.4747 36.4352 110.795 36.4352 130.113 36.4352C141.721 36.4352 153.33 36.4318 164.936 36.4352C169.747 36.4352 173.392 39.2857 174.562 43.9376C174.727 44.5895 174.746 45.2518 174.746 45.9159C174.749 53.283 174.742 60.6483 174.758 68.0154C174.758 68.6032 174.623 68.8858 174.018 69.1459C169.113 71.2438 166.391 74.9508 166.072 80.3136C165.978 81.8966 166.004 83.4917 166.059 85.0782C166.085 85.8254 165.836 85.9815 165.135 85.9728C162.656 85.9451 161.468 87.157 161.468 89.6156C161.468 90.5103 161.468 91.4067 161.468 92.3031C161.468 93.6462 160.791 94.3184 159.438 94.3195C143.462 94.3195 127.487 94.3195 111.511 94.3195V94.3143Z" fill="#E8E7E8"/>
<path d="M189.497 82.2069C189.497 83.4813 189.482 84.4054 189.504 85.3295C189.515 85.7613 189.395 85.9277 188.927 85.9537C186.688 86.0733 186.718 86.089 186.681 83.8679C186.648 81.8879 186.891 79.8939 186.194 77.9486C184.453 73.0921 178.494 70.956 174.132 73.7457C171.614 75.3565 170.267 77.7162 170.25 80.7609C170.243 82.2624 170.229 83.7639 170.255 85.2654C170.264 85.7925 170.092 85.945 169.561 85.9537C167.436 85.9849 167.415 86.004 167.443 83.8488C167.47 81.7786 167.275 79.6997 167.881 77.6555C169.263 72.9984 173.516 69.751 178.383 69.7076C183.195 69.666 187.534 72.8355 188.98 77.4128C189.513 79.0981 189.52 80.8233 189.494 82.2069H189.497Z" fill="#088F8F"/>
<path d="M174.58 75.145C174.809 75.3773 174.747 75.5871 174.747 75.7761C174.752 78.8623 174.726 81.9486 174.766 85.0331C174.776 85.8081 174.523 85.9902 173.778 85.9728C171.631 85.9225 171.607 85.9555 171.638 83.809C171.666 81.9746 171.408 80.1142 172.101 78.33C172.614 77.0123 173.445 75.9668 174.582 75.1432L174.58 75.145Z" fill="#E8E7E8"/>
<path d="M162.885 110.748C162.833 110.552 162.782 110.354 162.73 110.16C162.805 109.997 162.881 109.834 162.956 109.669C163.2 109.6 163.448 109.541 163.688 109.454C163.897 109.378 164.081 109.347 164.176 109.6C164.251 109.799 164.251 109.997 164.045 110.129C163.71 110.342 163.339 110.503 163.117 110.859C163.041 110.822 162.963 110.784 162.885 110.748Z" fill="#088F8F"/>
<path d="M178.514 103.257C178.41 103.263 178.18 103.287 177.951 103.285C177.162 103.277 176.867 102.815 176.992 102.045C177.203 100.756 177.323 99.4517 177.489 98.1548C177.531 97.834 177.297 97.7196 177.105 97.5462C176.064 96.603 175.99 95.3061 176.903 94.3403C177.744 93.4543 179.119 93.4404 179.995 94.3091C180.921 95.2298 180.888 96.6012 179.853 97.508C179.499 97.8184 179.402 98.0923 179.47 98.5414C179.679 99.9233 179.835 101.316 180.028 102.701C180.08 103.07 179.962 103.254 179.587 103.257C179.27 103.259 178.955 103.257 178.511 103.257H178.514Z" fill="#282F39"/>
<path d="M165.449 111.951C165.146 111.947 164.844 111.946 164.54 111.942C164.313 111.864 164.088 111.788 163.862 111.71C163.826 111.667 163.812 111.616 163.821 111.561C164.603 111.356 165.404 110.847 166.156 111.634C165.981 111.994 165.631 111.748 165.451 111.951H165.449Z" fill="#088F8F"/>
<path d="M163.818 111.561C163.81 111.616 163.824 111.667 163.86 111.71C163.546 111.937 163.208 112.093 162.863 111.812C162.438 111.467 162.768 111.101 162.886 110.748C162.964 110.784 163.042 110.822 163.118 110.859C163.26 111.183 163.477 111.434 163.818 111.559V111.561Z" fill="#282F39"/>
<path d="M64.9252 25.8224C61.5234 25.727 58.1234 25.6368 54.7875 24.8341C54.1234 24.6746 53.9136 24.5359 54.3505 23.8458C55.7289 21.6715 56.1225 19.1818 56.4745 16.6902C56.7727 14.5784 56.9357 12.4458 57.5061 10.379C58.5343 6.64955 61.6101 4.01237 65.0587 3.92048C68.594 3.82512 71.4219 5.88839 72.7483 9.50865C73.532 11.6482 73.6846 13.8987 73.9533 16.1285C74.288 18.9234 74.7544 21.6698 76.3322 24.0885C76.7535 24.7352 76.0842 24.6763 75.8398 24.737C73.8771 25.2363 71.8745 25.4877 69.8563 25.616C68.2161 25.7201 66.5758 25.8761 64.927 25.8241L64.9252 25.8224Z" fill="#088F8F"/>
<path d="M65.3689 27.3013C66.4352 27.3013 67.5015 27.31 68.5678 27.2979C68.9944 27.2927 69.1296 27.3915 68.9701 27.8527C68.4725 29.3039 66.9068 30.4309 65.3082 30.4292C63.7443 30.4292 62.1838 29.3317 61.6828 27.9272C61.4938 27.3984 61.6498 27.284 62.1682 27.2996C63.2345 27.3325 64.3009 27.31 65.3672 27.31V27.3031L65.3689 27.3013Z" fill="#D9D9D9"/>
<path d="M116.509 114.278C115.104 114.252 113.955 113.048 113.981 111.635C114.009 110.221 115.196 109.076 116.615 109.099C118.016 109.121 119.174 110.333 119.141 111.741C119.106 113.158 117.918 114.304 116.509 114.278Z" fill="#E8E7E8"/>
<path d="M67.3843 55.6878C69.4753 55.6843 69.4874 55.6861 69.4059 57.7753C69.3678 58.7844 69.3175 59.7953 69.1961 60.7957C69.0973 61.6158 69.4285 61.6141 70.0145 61.3523C71.1744 60.8338 72.3517 60.3518 73.4943 59.8005C74.1168 59.5005 74.3803 59.6808 74.5485 60.2946C74.7791 61.1286 75.0409 61.9556 75.327 62.7723C75.5593 63.4311 75.3409 63.7276 74.6751 63.8594C73.4579 64.1004 72.2477 64.3778 71.0427 64.6743C70.1428 64.8962 70.1064 65.0297 70.6942 65.7094C71.62 66.7774 72.539 67.8542 73.5013 68.8893C73.9746 69.3973 74.0873 69.7458 73.4042 70.1688C72.7193 70.5936 72.0778 71.0947 71.4484 71.601C70.8641 72.0726 70.4584 72.0275 70.0683 71.353C69.3903 70.1775 68.6569 69.0349 67.9547 67.875C67.3895 66.9404 67.36 66.9404 66.7757 67.9148C66.0631 69.1043 65.3245 70.2763 64.6465 71.4848C64.3119 72.0813 63.9946 72.0899 63.4953 71.6998C62.8381 71.1831 62.1706 70.6664 61.4545 70.2382C60.7194 69.8013 60.8616 69.4042 61.3314 68.8841C62.2209 67.8992 63.0861 66.8919 63.9547 65.888C64.7454 64.9742 64.7072 64.8685 63.5057 64.5963C62.4081 64.3483 61.3141 64.0692 60.2062 63.875C59.4207 63.7363 59.2664 63.3739 59.5213 62.6682C59.797 61.9088 60.031 61.1338 60.2426 60.3536C60.4142 59.7138 60.6691 59.5022 61.3418 59.8317C62.481 60.39 63.66 60.8702 64.8338 61.3557C65.6175 61.6799 65.7284 61.5724 65.6435 60.7159C65.5117 59.367 65.406 58.0146 65.2603 56.6674C65.184 55.96 65.4354 55.6306 66.1688 55.6843C66.5711 55.7138 66.9768 55.6895 67.3808 55.6878H67.3843Z" fill="#0E4D92"/>
<path d="M93.0815 55.6878C95.1725 55.6844 95.1847 55.6861 95.1032 57.7754C95.065 58.7845 95.0148 59.7953 94.8934 60.7957C94.7946 61.6158 95.1257 61.6141 95.7118 61.3523C96.8717 60.8339 98.049 60.3519 99.1916 59.8005C99.814 59.5005 100.078 59.6809 100.246 60.2946C100.476 61.1286 100.738 61.9557 101.024 62.7723C101.257 63.4312 101.038 63.7276 100.372 63.8594C99.1552 64.1004 97.945 64.3778 96.7399 64.6743C95.8401 64.8963 95.8037 65.0298 96.3914 65.7094C97.3173 66.7775 98.2362 67.8542 99.1985 68.8893C99.6719 69.3973 99.7846 69.7458 99.1014 70.1689C98.4166 70.5937 97.775 71.0947 97.1457 71.601C96.5613 72.0726 96.1556 72.0275 95.7655 71.3531C95.0876 70.1775 94.3542 69.0349 93.652 67.875C93.0867 66.9405 93.0573 66.9405 92.473 67.9149C91.7603 69.1043 91.0217 70.2764 90.3438 71.4849C90.0092 72.0813 89.6919 72.09 89.1925 71.6998C88.5354 71.1832 87.8679 70.6665 87.1518 70.2382C86.4166 69.8013 86.5588 69.4042 87.0287 68.8841C87.9182 67.8993 88.7833 66.8919 89.652 65.888C90.4426 64.9743 90.4045 64.8685 89.2029 64.5963C88.1054 64.3484 87.0114 64.0692 85.9034 63.875C85.118 63.7363 84.9637 63.3739 85.2186 62.6683C85.4942 61.9088 85.7283 61.1338 85.9398 60.3536C86.1115 59.7138 86.3664 59.5023 87.0391 59.8317C88.1782 60.39 89.3572 60.8703 90.5311 61.3557C91.3148 61.68 91.4257 61.5725 91.3408 60.716C91.209 59.367 91.1032 58.0146 90.9576 56.6674C90.8813 55.96 91.1327 55.6306 91.8661 55.6844C92.2684 55.7138 92.6741 55.6896 93.0781 55.6878H93.0815Z" fill="#0E4D92"/>
<path d="M118.777 55.6878C120.868 55.6844 120.88 55.6861 120.799 57.7754C120.76 58.7845 120.71 59.7953 120.589 60.7957C120.49 61.6158 120.821 61.6141 121.407 61.3523C122.567 60.8339 123.744 60.3519 124.887 59.8005C125.509 59.5005 125.773 59.6809 125.941 60.2946C126.172 61.1286 126.433 61.9557 126.72 62.7723C126.952 63.4312 126.733 63.7276 126.068 63.8594C124.85 64.1004 123.64 64.3778 122.435 64.6743C121.535 64.8963 121.499 65.0298 122.087 65.7094C123.013 66.7775 123.932 67.8542 124.894 68.8893C125.367 69.3973 125.48 69.7458 124.797 70.1689C124.112 70.5937 123.47 71.0947 122.841 71.601C122.257 72.0726 121.851 72.0275 121.461 71.3531C120.783 70.1775 120.049 69.0349 119.347 67.875C118.782 66.9405 118.753 66.9405 118.168 67.9149C117.456 69.1043 116.717 70.2764 116.039 71.4849C115.704 72.0813 115.387 72.09 114.888 71.6998C114.231 71.1832 113.563 70.6665 112.847 70.2382C112.112 69.8013 112.254 69.4042 112.724 68.8841C113.613 67.8993 114.479 66.8919 115.347 65.888C116.138 64.9743 116.1 64.8685 114.898 64.5963C113.801 64.3484 112.707 64.0692 111.599 63.875C110.813 63.7363 110.659 63.3739 110.914 62.6683C111.19 61.9088 111.424 61.1338 111.635 60.3536C111.807 59.7138 112.062 59.5023 112.734 59.8317C113.874 60.39 115.053 60.8703 116.226 61.3557C117.01 61.68 117.121 61.5725 117.036 60.716C116.904 59.367 116.799 58.0146 116.653 56.6674C116.577 55.96 116.828 55.6306 117.561 55.6844C117.964 55.7138 118.369 55.6896 118.773 55.6878H118.777Z" fill="#0E4D92"/>
<path d="M144.474 55.6878C146.565 55.6844 146.577 55.6861 146.496 57.7754C146.458 58.7845 146.407 59.7953 146.286 60.7957C146.187 61.6158 146.518 61.6141 147.104 61.3523C148.264 60.8339 149.442 60.3519 150.584 59.8005C151.207 59.5005 151.47 59.6809 151.638 60.2946C151.869 61.1286 152.131 61.9557 152.417 62.7723C152.649 63.4312 152.431 63.7276 151.765 63.8594C150.548 64.1004 149.338 64.3778 148.133 64.6743C147.233 64.8963 147.196 65.0298 147.784 65.7094C148.71 66.7775 149.629 67.8542 150.591 68.8893C151.064 69.3973 151.177 69.7458 150.494 70.1689C149.809 70.5937 149.168 71.0947 148.538 71.601C147.954 72.0726 147.548 72.0275 147.158 71.3531C146.48 70.1775 145.747 69.0349 145.045 67.875C144.479 66.9405 144.45 66.9405 143.866 67.9149C143.153 69.1043 142.414 70.2764 141.736 71.4849C141.402 72.0813 141.084 72.09 140.585 71.6998C139.928 71.1832 139.26 70.6665 138.544 70.2382C137.809 69.8013 137.951 69.4042 138.421 68.8841C139.311 67.8993 140.176 66.8919 141.045 65.888C141.835 64.9743 141.797 64.8685 140.596 64.5963C139.498 64.3484 138.404 64.0692 137.296 63.875C136.511 63.7363 136.356 63.3739 136.611 62.6683C136.887 61.9088 137.121 61.1338 137.332 60.3536C137.504 59.7138 137.759 59.5023 138.432 59.8317C139.571 60.39 140.75 60.8703 141.924 61.3557C142.707 61.68 142.818 61.5725 142.733 60.716C142.602 59.367 142.496 58.0146 142.35 56.6674C142.274 55.96 142.525 55.6306 143.259 55.6844C143.661 55.7138 144.067 55.6896 144.471 55.6878H144.474Z" fill="#0E4D92"/>
</svg>
