<svg width="20" height="27" viewBox="0 0 20 27" fill="none" xmlns="http://www.w3.org/2000/svg">
<path d="M10 3.375C9.11594 3.375 8.2681 3.73058 7.64298 4.36351C7.01786 4.99645 6.66667 5.85489 6.66667 6.75C6.66667 7.64511 7.01786 8.50355 7.64298 9.13649C8.2681 9.76942 9.11594 10.125 10 10.125C10.8841 10.125 11.7319 9.76942 12.357 9.13649C12.9821 8.50355 13.3333 7.64511 13.3333 6.75C13.3333 5.85489 12.9821 4.99645 12.357 4.36351C11.7319 3.73058 10.8841 3.375 10 3.375ZM4.16667 21.0938C3.94565 21.0938 3.73369 21.1826 3.57741 21.3409C3.42113 21.4991 3.33333 21.7137 3.33333 21.9375C3.33333 22.1613 3.42113 22.3759 3.57741 22.5341C3.73369 22.6924 3.94565 22.7812 4.16667 22.7812H15.8333C16.0543 22.7812 16.2663 22.6924 16.4226 22.5341C16.5789 22.3759 16.6667 22.1613 16.6667 21.9375C16.6667 21.7137 16.5789 21.4991 16.4226 21.3409C16.2663 21.1826 16.0543 21.0938 15.8333 21.0938H4.16667ZM0 3.375C0 2.47989 0.351189 1.62145 0.976311 0.988514C1.60143 0.355579 2.44928 0 3.33333 0H16.6667C17.5507 0 18.3986 0.355579 19.0237 0.988514C19.6488 1.62145 20 2.47989 20 3.375V23.625C20 24.5201 19.6488 25.3785 19.0237 26.0115C18.3986 26.6444 17.5507 27 16.6667 27H3.33333C2.44928 27 1.60143 26.6444 0.976311 26.0115C0.351189 25.3785 0 24.5201 0 23.625V3.375ZM16.6667 1.6875H3.33333C2.89131 1.6875 2.46738 1.86529 2.15482 2.18176C1.84226 2.49822 1.66667 2.92745 1.66667 3.375V16.875H5V13.5C5 13.0524 5.17559 12.6232 5.48816 12.3068C5.80072 11.9903 6.22464 11.8125 6.66667 11.8125H13.3333C13.7754 11.8125 14.1993 11.9903 14.5118 12.3068C14.8244 12.6232 15 13.0524 15 13.5V16.875H18.3333V3.375C18.3333 2.92745 18.1577 2.49822 17.8452 2.18176C17.5326 1.86529 17.1087 1.6875 16.6667 1.6875ZM1.66667 18.5625V23.625C1.66667 24.0726 1.84226 24.5018 2.15482 24.8182C2.46738 25.1347 2.89131 25.3125 3.33333 25.3125H16.6667C17.1087 25.3125 17.5326 25.1347 17.8452 24.8182C18.1577 24.5018 18.3333 24.0726 18.3333 23.625V18.5625H1.66667Z" fill="#0E4D92"/>
</svg>
