<svg width="17" height="22" viewBox="0 0 17 22" fill="none" xmlns="http://www.w3.org/2000/svg">
<path d="M16.9945 11.0328C16.9945 7.91462 16.9964 4.79705 16.9933 1.67886C16.9921 0.590202 16.4165 0.00153939 15.3556 0.000923634C10.7853 -0.000307878 6.21367 -0.000307878 1.64269 0.000923634C0.610218 0.000923634 0.00437487 0.604365 0.00316801 1.65854C-0.001056 7.8943 -0.001056 14.1307 0.00316801 20.3664C0.00377144 21.4052 0.580047 21.9957 1.592 21.997C6.20341 22.0019 10.8148 22 15.4262 21.997C15.6972 21.997 15.9675 21.9742 16.2143 21.8332C16.7827 21.5093 17.0024 21.0124 17 20.3554C16.9885 17.2476 16.9945 14.1399 16.9945 11.0322V11.0328ZM16.1479 20.2987C16.1479 20.9422 15.9524 21.1417 15.3176 21.1417C10.7768 21.1423 6.2366 21.1423 1.69579 21.1417C1.05072 21.1417 0.861849 20.9533 0.861849 20.3061C0.861245 14.1221 0.861245 7.93802 0.861849 1.75398C0.861849 1.09204 1.064 0.885149 1.70424 0.885149C6.23479 0.885149 10.7653 0.885149 15.2959 0.885149C15.9367 0.885149 16.1473 1.09759 16.1473 1.74659C16.1479 4.84384 16.1473 7.9411 16.1473 11.0384C16.1473 14.1251 16.1473 17.2119 16.1473 20.2993L16.1479 20.2987Z" fill="#797979"/>
<path d="M12.4543 14.0242C11.1546 14.0285 10.0123 15.167 10.0177 16.4527C10.0237 17.8973 11.1081 19.0019 12.5195 19.0013C13.8042 19.0013 14.8825 17.8652 14.8807 16.5155C14.8789 15.1448 13.7831 14.0192 12.4537 14.0235L12.4543 14.0242ZM10.9675 17.0604C10.9011 16.8751 10.8752 16.6842 10.8758 16.4884C10.8734 15.3597 12.0042 14.5789 13.0294 14.9946C13.2104 15.0679 13.2159 15.1294 13.0825 15.2637C12.4688 15.8813 11.8569 16.5013 11.2535 17.1294C11.0978 17.2914 11.0315 17.2384 10.9681 17.0611L10.9675 17.0604ZM13.6304 17.574C13.2243 18.053 12.5261 18.2482 11.9638 18.0321C11.8497 17.9884 11.6373 17.9675 11.8407 17.7636C12.4972 17.1054 13.1543 16.4472 13.8265 15.7735C14.1458 16.3622 14.0685 17.0561 13.6298 17.574H13.6304Z" fill="#797979"/>
<path d="M12.4537 8.02053C13.8096 8.02299 14.8771 6.93249 14.8813 5.53965C14.8856 4.14927 13.8253 3.05384 12.4688 3.04768C11.1135 3.04091 10.0261 4.13265 10.0165 5.50886C10.0068 6.90416 11.0876 8.01807 12.4537 8.02053ZM13.9515 4.97377C14.0136 5.15973 14.0492 5.35 14.0462 5.49224C14.051 6.67326 12.9136 7.47805 11.9269 7.05318C11.7399 6.97251 11.7212 6.90909 11.8696 6.76069C12.4797 6.15048 13.0837 5.53411 13.6835 4.91343C13.8235 4.76811 13.8941 4.80136 13.9515 4.97439V4.97377ZM12.9829 4.00457C13.2002 4.08154 13.2279 4.15112 13.0535 4.32476C12.4574 4.91712 11.8744 5.52241 11.2843 6.12092C11.0767 6.33151 11.0447 6.31858 10.9427 6.02363C10.8878 5.86538 10.8836 5.70344 10.8746 5.54027C10.8679 4.41589 11.9432 3.63635 12.9829 4.00519V4.00457Z" fill="#797979"/>
<path d="M4.5645 8.53777C3.20979 8.5353 2.13086 9.62334 2.11698 11.0063C2.1031 12.3912 3.19712 13.5155 4.55846 13.5149C5.91135 13.5149 6.98123 12.4164 6.98184 11.0279C6.98244 9.63258 5.92161 8.53961 4.5645 8.53715V8.53777ZM3.05652 11.5667C2.99497 11.3789 2.97627 11.1874 2.97506 10.9922C2.99558 9.8678 4.10408 9.10857 5.12327 9.51497C5.29223 9.5827 5.32964 9.63689 5.18603 9.78159C4.57113 10.3992 3.95925 11.0211 3.35522 11.6498C3.18143 11.8308 3.11807 11.7551 3.05652 11.5661V11.5667ZM4.02382 12.5389C3.83917 12.4638 3.77581 12.4066 3.949 12.2341C4.55122 11.6344 5.14801 11.0279 5.73575 10.4127C5.92161 10.2188 5.98919 10.2994 6.04471 10.502C6.09359 10.6794 6.13703 10.8579 6.13281 11.0445C6.12738 12.1442 5.0044 12.9373 4.02382 12.5383V12.5389Z" fill="#797979"/>
<path d="M4.55062 8.02053C5.91678 8.0273 6.98666 6.92325 6.98184 5.51256C6.97701 4.12895 5.90109 3.04153 4.54217 3.04768C3.1923 3.05384 2.09828 4.17575 2.11638 5.53595C2.13509 6.93372 3.1929 8.01376 4.55062 8.02053ZM4.56329 3.91713C5.44912 3.92021 6.14005 4.6351 6.13583 5.54396C6.1316 6.45774 5.45093 7.14 4.54519 7.13754C3.64185 7.13507 2.97144 6.44604 2.97747 5.52487C2.9829 4.61232 3.67263 3.91344 4.56329 3.91652V3.91713Z" fill="#797979"/>
<path d="M12.4507 8.53777C11.0996 8.53777 10.0231 9.63751 10.0183 11.0211C10.0135 12.3967 11.0948 13.5094 12.4429 13.5155C13.8121 13.5217 14.8874 12.4189 14.8819 11.0143C14.8765 9.62211 13.8121 8.53715 12.4513 8.53777H12.4507ZM12.464 12.6436C11.5613 12.6486 10.88 11.9601 10.877 11.0402C10.874 10.135 11.5667 9.41152 12.4441 9.4029C13.3148 9.3949 14.0287 10.1203 14.0347 11.0205C14.0408 11.9349 13.3595 12.6387 12.4634 12.6436H12.464Z" fill="#797979"/>
<path d="M4.57294 14.0242C3.27074 14.0198 2.13267 15.1374 2.11759 16.4342C2.10129 17.8634 3.19531 18.9951 4.6013 19.0019C5.89023 19.0081 6.97761 17.8812 6.98123 16.5352C6.98546 15.1602 5.89989 14.0291 4.57294 14.0248V14.0242ZM4.54398 18.1171C3.67142 18.1097 2.98351 17.404 2.97747 16.5106C2.97144 15.5968 3.65875 14.8844 4.55001 14.8813C5.42559 14.8782 6.12617 15.5795 6.13583 16.4705C6.14608 17.3905 5.43645 18.1245 4.54398 18.1171Z" fill="#797979"/>
<path d="M8.51515 17.1436C8.77523 17.1374 8.92428 16.9305 8.92428 16.5734C8.92428 14.994 8.92428 13.4146 8.92428 11.8351H8.92307C8.92307 10.297 8.92307 8.75821 8.92307 7.22005C8.92307 7.0969 8.9279 6.97251 8.911 6.85183C8.88143 6.64493 8.75713 6.5224 8.55075 6.50146C8.3474 6.48114 8.20197 6.56981 8.11568 6.75946C8.0668 6.86599 8.07404 6.97929 8.07404 7.09197C8.07404 10.2508 8.07344 13.4096 8.07404 16.5685C8.07404 16.9317 8.24481 17.1503 8.51636 17.1436H8.51515Z" fill="#797979"/>
<path d="M9.16565 19.4896C8.72635 19.4791 8.28645 19.4767 7.84715 19.4902C7.57621 19.4988 7.40424 19.6965 7.41691 19.9379C7.43018 20.1823 7.6094 20.3449 7.88457 20.3523C8.09456 20.3572 8.30455 20.3535 8.51394 20.3535C8.72394 20.3535 8.93393 20.3597 9.14332 20.3523C9.41849 20.3418 9.58684 20.1731 9.5796 19.9151C9.57236 19.6454 9.42392 19.4964 9.16504 19.4902L9.16565 19.4896Z" fill="#797979"/>
<path d="M7.8375 2.56062C8.02637 2.57232 8.21706 2.56308 8.40653 2.56308V2.56432C8.60627 2.56432 8.80661 2.57417 9.00574 2.56185C9.26763 2.54523 9.41064 2.37713 9.41305 2.1222C9.41547 1.87159 9.25194 1.72135 9.01479 1.71088C8.62618 1.69364 8.23576 1.69979 7.84595 1.70903C7.58708 1.71519 7.42596 1.87159 7.42234 2.13021C7.41872 2.39006 7.57863 2.544 7.83629 2.56001L7.8375 2.56062Z" fill="#797979"/>
<path d="M11.8195 19.5013C11.5208 19.4767 11.2173 19.4785 10.918 19.5001C10.6821 19.5173 10.565 19.694 10.5662 19.9237C10.5674 20.1558 10.6953 20.3129 10.9277 20.3443C11.0658 20.3627 11.2083 20.348 11.3489 20.348C11.3489 20.348 11.3489 20.3486 11.3489 20.3492C11.4991 20.3492 11.6524 20.3658 11.8002 20.3455C12.0277 20.3141 12.1593 20.1688 12.1641 19.9293C12.1689 19.6916 12.0531 19.521 11.8201 19.5019L11.8195 19.5013Z" fill="#797979"/>
<path d="M10.9084 2.55015C11.0544 2.57294 11.2064 2.55446 11.3561 2.55446C11.3561 2.5557 11.3561 2.55693 11.3561 2.55816C11.5057 2.55816 11.6578 2.57602 11.8044 2.55385C12.0289 2.5206 12.1623 2.37589 12.1629 2.1376C12.1635 1.8993 12.0344 1.73859 11.8087 1.7195C11.5118 1.69487 11.2089 1.69425 10.9126 1.72135C10.6851 1.74228 10.5614 1.91716 10.5656 2.14806C10.5698 2.36543 10.6947 2.51629 10.9078 2.54954L10.9084 2.55015Z" fill="#797979"/>
<path d="M6.05557 19.4939C5.78644 19.4773 5.5155 19.4773 5.24637 19.4939C5.00017 19.5093 4.8644 19.6663 4.86681 19.9188C4.86923 20.1873 5.01948 20.3301 5.27715 20.351C5.39662 20.3609 5.51731 20.3529 5.63739 20.3529C5.76713 20.3529 5.89807 20.3615 6.02721 20.351C6.28548 20.3307 6.43452 20.186 6.43694 19.9182C6.43875 19.6657 6.30298 19.5093 6.05617 19.4939H6.05557Z" fill="#797979"/>
<path d="M5.72429 2.56124C5.83411 2.56124 5.94514 2.57294 6.05316 2.55877C6.29272 2.52737 6.43754 2.38698 6.43573 2.13329C6.43392 1.88021 6.2891 1.74105 6.04833 1.71088C5.93971 1.69733 5.82928 1.70472 5.71946 1.7041C5.22887 1.7041 5.02672 1.83157 5.03577 2.13513C5.04483 2.44732 5.2337 2.56616 5.72429 2.56124Z" fill="#797979"/>
<path d="M8.5411 5.86169C8.76135 5.85676 8.92307 5.6745 8.92066 5.43374C8.91885 5.20037 8.73118 5.02303 8.488 5.02488C8.25749 5.02672 8.08309 5.22254 8.09154 5.46945C8.09939 5.69667 8.2955 5.86785 8.5411 5.86169Z" fill="#797979"/>
</svg>
