<svg width="58" height="58" viewBox="0 0 58 58" fill="none" xmlns="http://www.w3.org/2000/svg">
<g clip-path="url(#clip0_3278_2080)">
<path d="M16.7922 24.8908C16.4877 25.0521 16.1664 25.184 15.8388 25.2821C14.7184 25.6174 13.5571 25.5489 12.5197 25.1555C12.4347 25.2356 12.3496 25.3158 12.2646 25.397C12.6342 27.576 12.8935 28.9914 13.0731 29.91C14.5378 30.7316 15.7453 31.5975 16.7155 32.8737C17.4652 33.8609 18.0732 35.0938 18.5467 36.7455L12.3538 42.2256C11.5033 42.9776 11.2261 44.1915 11.665 45.241L15.5983 54.6583C16.0236 55.6739 17.0032 56.2856 18.0343 56.2856C18.3745 56.2856 18.721 56.2192 19.0549 56.0789C20.3989 55.5126 21.0321 53.958 20.4682 52.608L17.2678 44.9467L21.0468 41.6033L19.5936 44.7874C19.1851 45.6818 19.3038 46.7291 19.9012 47.5085L25.7088 55.0917C26.2285 55.771 27.0118 56.1264 27.8035 56.1264C28.3653 56.1264 28.9312 55.9471 29.4111 55.5758C30.5671 54.6825 30.7824 53.0182 29.8941 51.8581L25.0578 45.5426L28.4598 38.087C28.507 37.9837 28.5438 37.8792 28.5774 37.7738C28.7716 37.3329 28.8126 36.7813 28.6425 36.2308C27.6954 33.1711 26.6916 30.1347 25.3476 27.2923C24.7123 25.9486 23.9983 24.6492 23.1793 23.4121C25.0305 23.9437 26.8617 25.1038 27.9274 25.9085L28.4787 33.6204C28.6225 34.0602 28.7643 34.5021 28.905 34.9462L29.3964 34.4325L29.8174 34.4969L30.9735 34.8396L31.761 34.2986L33.6111 39.5488L32.7249 39.7102L32.0844 40.3082L31.4407 39.9601L30.4642 40.5371H30.0222L29.3176 40.651L28.8934 38.6703L28.4524 39.6374L28.8252 41.3798L30.0474 41.1751H30.6354L31.4533 40.6921L32.182 41.0865L33.0189 40.305L34.4553 40.0424L32.0823 33.3072L31.8555 33.4633L31.2454 24.9266C31.2129 24.4742 31.0018 24.0523 30.6574 23.758C30.4254 23.5587 24.9129 18.8896 19.8697 19.8736C19.7626 19.8947 19.6597 19.9264 19.5621 19.9654C19.6692 21.9429 18.6507 23.9046 16.7922 24.8908Z" fill="black"/>
<path d="M49.9995 37.7147C49.9995 37.0766 49.4839 36.5598 48.8497 36.5598H43.9095C43.2742 36.5598 42.7597 37.0766 42.7597 37.7147V43.2307C42.7597 44.1683 41.547 44.4573 41.547 44.4573H28.6162V45.9972C28.6162 49.0442 32.6388 49.7497 32.6388 49.7497L33.9156 55.907H49.9995V37.7147Z" fill="black"/>
<path d="M9.85999 19.4128C10.1288 19.4423 10.3703 19.5752 10.5404 19.7882C10.8701 20.2017 10.8323 20.7912 10.4532 21.1583C10.4333 21.1783 10.4123 21.1962 10.3902 21.2152C10.3839 21.2205 10.364 21.2384 10.3346 21.2669C10.2317 21.366 10.0479 21.5717 9.88309 21.8639C9.89149 21.8881 9.90094 21.9134 9.91039 21.9377C10.4784 21.8923 11.0433 21.9514 11.4098 22.1855C11.709 22.3775 11.8067 22.6296 11.835 22.8067C11.9327 23.4005 12.024 23.949 12.1101 24.4647C13.4562 25.1893 15.1257 25.2494 16.5768 24.4784C18.8963 23.2476 19.7825 20.3599 18.5571 18.0301C17.3307 15.7003 14.4569 14.8101 12.1374 16.0409C10.7966 16.7528 9.93559 18.0195 9.68359 19.4107C9.74029 19.4064 9.80014 19.4064 9.85999 19.4128ZM17.4725 21.1941L17.2499 21.79C15.7431 21.2226 13.6116 22.792 13.5906 22.8078L13.2126 22.2973C13.3113 22.2235 15.6423 20.5044 17.4725 21.1941Z" fill="black"/>
<path d="M31.8999 38.5911C31.9482 38.7672 32.132 38.8706 32.3063 38.821C32.4806 38.7714 32.5845 38.5879 32.5352 38.4129L31.7834 35.7055C31.7351 35.5293 31.5513 35.426 31.377 35.4756C31.2017 35.5241 31.0988 35.7086 31.1481 35.8837L31.8999 38.5911Z" fill="black"/>
<path d="M31.1193 37.101C31.071 36.9248 30.8872 36.8215 30.7129 36.8711C30.5376 36.9196 30.4347 37.1041 30.484 37.2792L31.0552 39.3348C31.1035 39.5109 31.2873 39.6143 31.4616 39.5647C31.6359 39.5152 31.7398 39.3316 31.6905 39.1566L31.1193 37.101Z" fill="black"/>
<path d="M29.9181 36.716C29.8698 36.5398 29.6861 36.4365 29.5118 36.486C29.3364 36.5346 29.2335 36.7191 29.2829 36.8942L29.8541 38.9498C29.9024 39.1259 30.0861 39.2293 30.2604 39.1797C30.4347 39.1302 30.5387 38.9466 30.4893 38.7716L29.9181 36.716Z" fill="black"/>
<path d="M29.9345 36.0884C30.1421 36.0884 30.3104 35.9194 30.3104 35.7108C30.3104 35.5023 30.1421 35.3333 29.9345 35.3333C29.7269 35.3333 29.5586 35.5023 29.5586 35.7108C29.5586 35.9194 29.7269 36.0884 29.9345 36.0884Z" fill="black"/>
<path d="M8.15193 24.2336C9.25863 30.9172 9.62298 32.4011 9.83298 32.9506C10.1658 33.826 11.1434 34.2658 12.0149 33.9315C12.2343 33.8471 12.4265 33.7216 12.585 33.5676C13.0575 33.1099 13.2392 32.3969 12.9903 31.7419C12.9126 31.5257 12.564 30.2474 11.3555 22.8857C11.2652 22.3362 10.0503 22.3088 9.11163 22.5704C9.31008 21.4957 10.0377 20.8744 10.0829 20.8365C10.3097 20.6508 10.3443 20.3197 10.1627 20.0919C9.97998 19.863 9.64818 19.8271 9.42033 20.0096C9.33948 20.0739 7.46523 21.6222 8.15193 24.2283C8.15088 24.2315 8.15193 24.2326 8.15193 24.2336Z" fill="black"/>
<path d="M19.1807 15.5473C19.5356 15.6253 19.7949 15.4112 19.86 15.1159C19.9262 14.8121 19.7655 14.5316 19.3949 14.4504C19.0631 14.3776 18.7806 14.5864 18.7197 14.867C18.6536 15.1697 18.7953 15.4629 19.1807 15.5473Z" fill="black"/>
<path d="M21.5977 16.0682C21.9526 16.1462 22.214 15.9247 22.2749 15.6442C22.3421 15.3331 22.1794 15.0599 21.8182 14.9797C21.4853 14.907 21.2071 15.1 21.143 15.3963C21.0769 15.7001 21.2281 15.987 21.5977 16.0682Z" fill="black"/>
<path d="M36.5137 21.211L34.5859 33.516L38.452 21.7594C38.9949 21.8533 39.5524 21.9049 40.1215 21.9049C45.5154 21.9049 49.8876 17.5132 49.8876 12.0953C49.8876 6.67736 45.5154 2.28564 40.1215 2.28564C34.7277 2.28564 30.3555 6.67736 30.3555 12.0953C30.3555 16.2328 32.907 19.7692 36.5137 21.211ZM39.7719 4.10287C44.373 4.10287 48.1026 7.84912 48.1026 12.4708C48.1026 17.0924 44.373 20.8387 39.7719 20.8387C35.1708 20.8387 31.4412 17.0924 31.4412 12.4708C31.4412 7.84912 35.1708 4.10287 39.7719 4.10287Z" fill="black"/>
<path d="M39.8826 17.9393C41.9091 17.9393 43.5513 16.2887 43.5513 14.2543C43.5513 12.2198 39.8826 6.58984 39.8826 6.58984C39.8826 6.58984 36.2139 12.2187 36.2139 14.2543C36.2139 16.2898 37.8571 17.9393 39.8826 17.9393Z" fill="#C00000"/>
</g>
<defs>
<clipPath id="clip0_3278_2080">
<rect width="42" height="54" fill="white" transform="translate(8 2.28564)"/>
</clipPath>
</defs>
</svg>
