<svg width="17" height="17" viewBox="0 0 17 17" fill="none" xmlns="http://www.w3.org/2000/svg">
<path d="M4.51218 7.53082C4.42517 7.57744 4.33337 7.61553 4.23976 7.64387C3.91963 7.74077 3.58781 7.72096 3.29138 7.6073C3.26708 7.63046 3.24278 7.65362 3.21848 7.67708C3.32408 8.30662 3.39819 8.71554 3.44949 8.98095C3.86803 9.21832 4.21306 9.46849 4.49028 9.83719C4.7045 10.1224 4.87821 10.4786 5.01352 10.9558L3.24398 12.5391C3.00096 12.7563 2.92175 13.1071 3.04716 13.4103L4.17105 16.131C4.29256 16.4245 4.57249 16.6012 4.86711 16.6012C4.96432 16.6012 5.06333 16.582 5.15874 16.5415C5.54277 16.3778 5.72368 15.9287 5.56257 15.5387L4.64809 13.3252L5.72788 12.3593L5.31265 13.2792C5.19594 13.5376 5.22984 13.8402 5.40056 14.0654L7.05999 16.2563C7.2085 16.4525 7.43232 16.5552 7.65854 16.5552C7.81905 16.5552 7.98077 16.5034 8.11788 16.3961C8.44821 16.138 8.50971 15.6572 8.25589 15.322L6.87398 13.4974L7.84606 11.3434C7.85956 11.3135 7.87006 11.2834 7.87966 11.2529C7.93516 11.1255 7.94687 10.9662 7.89826 10.8071C7.62764 9.92312 7.34082 9.04585 6.95678 8.22465C6.77527 7.83645 6.57125 7.46104 6.33723 7.10361C6.86618 7.25719 7.38942 7.59237 7.69394 7.82487L7.85146 10.0529C7.89256 10.18 7.93306 10.3077 7.97327 10.436L8.11368 10.2876L8.23399 10.3061L8.56432 10.4052L8.78933 10.2489L9.31798 11.7657L9.06476 11.8123L8.88174 11.9851L8.69783 11.8846L8.4188 12.0512H8.29249L8.09118 12.0841L7.96997 11.5119L7.84396 11.7913L7.95047 12.2947L8.29969 12.2356H8.46771L8.70143 12.096L8.90964 12.21L9.14876 11.9842L9.5592 11.9083L8.88114 9.96243L8.81634 10.0075L8.64202 7.54118C8.63272 7.41046 8.57242 7.28858 8.47401 7.20356C8.4077 7.14597 6.83257 5.79701 5.39155 6.0813C5.36095 6.0874 5.33155 6.09654 5.30365 6.10781C5.33425 6.67915 5.04323 7.24592 4.51218 7.53082Z" fill="black"/>
<path d="M14.0001 11.236C14.0001 11.0517 13.8528 10.9023 13.6716 10.9023H12.26C12.0785 10.9023 11.9315 11.0517 11.9315 11.236V12.8297C11.9315 13.1005 11.5849 13.184 11.5849 13.184H7.89014V13.6289C7.89014 14.5092 9.03953 14.7131 9.03953 14.7131L9.40436 16.492H14.0001V11.236Z" fill="black"/>
<path d="M2.53136 5.94832C2.60817 5.95685 2.67717 5.99525 2.72578 6.0568C2.81998 6.17625 2.80918 6.34658 2.70088 6.45262C2.69517 6.45841 2.68917 6.46359 2.68287 6.46908C2.68107 6.4706 2.67537 6.47578 2.66697 6.48401C2.63757 6.51265 2.58507 6.57207 2.53796 6.65648C2.54036 6.66348 2.54306 6.6708 2.54576 6.67781C2.70808 6.6647 2.86949 6.68177 2.9742 6.74941C3.0597 6.80487 3.08761 6.8777 3.09571 6.92889C3.12361 7.10044 3.14971 7.25889 3.17431 7.4079C3.55895 7.61723 4.03599 7.6346 4.45062 7.41186C5.11337 7.05626 5.36659 6.22195 5.01647 5.54884C4.66604 4.87573 3.84487 4.61856 3.18211 4.97416C2.79898 5.17984 2.55296 5.5458 2.48096 5.94771C2.49716 5.94649 2.51426 5.94649 2.53136 5.94832ZM4.70654 6.46298L4.64294 6.63515C4.2124 6.47121 3.60335 6.92462 3.59735 6.92919L3.48934 6.78171C3.51754 6.76038 4.1836 6.2637 4.70654 6.46298Z" fill="black"/>
<path d="M8.82821 11.4892C8.84201 11.54 8.89452 11.5699 8.94432 11.5556C8.99413 11.5413 9.02383 11.4882 9.00973 11.4377L8.79491 10.6555C8.78111 10.6046 8.7286 10.5747 8.6788 10.589C8.6287 10.6031 8.59929 10.6564 8.6134 10.707L8.82821 11.4892Z" fill="black"/>
<path d="M8.60546 11.0585C8.59166 11.0077 8.53915 10.9778 8.48935 10.9921C8.43924 11.0061 8.40984 11.0595 8.42394 11.11L8.58716 11.7039C8.60096 11.7548 8.65346 11.7847 8.70326 11.7703C8.75307 11.756 8.78277 11.703 8.76867 11.6524L8.60546 11.0585Z" fill="black"/>
<path d="M8.2622 10.9475C8.24839 10.8966 8.19589 10.8667 8.14609 10.881C8.09598 10.895 8.06658 10.9484 8.08068 10.999L8.24389 11.5928C8.25769 11.6437 8.3102 11.6736 8.36 11.6593C8.40981 11.6449 8.43951 11.5919 8.42541 11.5413L8.2622 10.9475Z" fill="black"/>
<path d="M8.26659 10.766C8.32591 10.766 8.374 10.7172 8.374 10.6569C8.374 10.5967 8.32591 10.5479 8.26659 10.5479C8.20727 10.5479 8.15918 10.5967 8.15918 10.6569C8.15918 10.7172 8.20727 10.766 8.26659 10.766Z" fill="black"/>
<path d="M2.04313 7.34113C2.35936 9.27209 2.46347 9.70082 2.52347 9.85958C2.61858 10.1125 2.8979 10.2396 3.14692 10.143C3.20963 10.1186 3.26453 10.0823 3.30984 10.0378C3.44485 9.90559 3.49675 9.6996 3.42565 9.51038C3.40345 9.44791 3.30384 9.0786 2.95851 6.95171C2.93271 6.79295 2.58558 6.78503 2.31736 6.8606C2.37406 6.55009 2.58198 6.37062 2.59488 6.35965C2.65968 6.30602 2.66958 6.21034 2.61768 6.14452C2.56548 6.0784 2.47067 6.06804 2.40556 6.12075C2.38246 6.13934 1.84692 6.58666 2.04313 7.33961C2.04283 7.34052 2.04313 7.34082 2.04313 7.34113Z" fill="black"/>
<path d="M5.19477 4.83137C5.29618 4.85392 5.37029 4.79206 5.38889 4.70674C5.40779 4.61899 5.36189 4.53793 5.25598 4.51447C5.16117 4.49345 5.08047 4.55378 5.06306 4.63483C5.04416 4.72228 5.08467 4.80699 5.19477 4.83137Z" fill="black"/>
<path d="M5.8852 4.982C5.98661 5.00454 6.06132 4.94055 6.07872 4.8595C6.09792 4.76961 6.05141 4.69069 5.94821 4.66753C5.8531 4.64651 5.77359 4.70227 5.75529 4.78789C5.73639 4.87565 5.77959 4.95853 5.8852 4.982Z" fill="black"/>
<path d="M10.1469 6.46776L9.59601 10.0228L10.7007 6.62621C10.8558 6.65333 11.0151 6.66826 11.1777 6.66826C12.719 6.66826 13.9683 5.39944 13.9683 3.83413C13.9683 2.26882 12.719 1 11.1777 1C9.63651 1 8.38721 2.26882 8.38721 3.83413C8.38721 5.02952 9.11627 6.05122 10.1469 6.46776ZM11.0778 1.52502C12.3925 1.52502 13.4582 2.60736 13.4582 3.94261C13.4582 5.27786 12.3925 6.3602 11.0778 6.3602C9.76312 6.3602 8.69743 5.27786 8.69743 3.94261C8.69743 2.60736 9.76312 1.52502 11.0778 1.52502Z" fill="black"/>
<path d="M11.1093 5.52242C11.6884 5.52242 12.1576 5.04555 12.1576 4.45775C12.1576 3.86996 11.1093 2.24341 11.1093 2.24341C11.1093 2.24341 10.061 3.86966 10.061 4.45775C10.061 5.04585 10.5306 5.52242 11.1093 5.52242Z" fill="#C00000"/>
</svg>
