<svg width="17" height="17" viewBox="0 0 17 17" fill="none" xmlns="http://www.w3.org/2000/svg">
<g clip-path="url(#clip0_2601_2963)">
<path d="M5.12622 15.2013C5.19042 15.0269 5.26834 14.8572 5.3593 14.6938C5.3506 14.691 5.34459 14.6856 5.33556 14.6828C4.00127 13.9766 3.0034 12.705 3.0034 10.6553C2.93685 9.17596 3.72873 7.77752 5.07572 6.99752L6.84106 6.79346L11.4168 9.22939C11.3689 10.0028 11.5208 10.776 11.8595 11.4831C12.8163 13.2713 13.3854 15.7835 13.567 16.6725C13.5837 16.7535 13.5606 16.8369 13.5045 16.9003C13.4483 16.9638 13.3647 17.0003 13.2767 17.0003H5.08509C5.00316 17.0006 4.92457 16.9688 4.86872 16.9128C4.81288 16.8569 4.78412 16.7816 4.79014 16.705C4.8316 16.1919 4.94463 15.6866 5.12622 15.2013Z" fill="#2FA8CC"/>
<path d="M9.32997 15.5435C9.339 15.616 9.31659 15.6888 9.26777 15.7457C9.21894 15.8026 9.14772 15.8392 9.07013 15.847C8.79859 15.8767 8.52572 15.8913 8.25251 15.891C7.16602 15.9013 6.09324 15.6648 5.12646 15.2013C5.19067 15.027 5.26859 14.8573 5.35955 14.6938C6.48115 15.2326 7.75056 15.4442 9.00225 15.3007C9.08016 15.2923 9.15842 15.3129 9.21995 15.3585C9.28148 15.4042 9.32127 15.4707 9.32997 15.5435Z" fill="#2980BA"/>
<path d="M13.6311 9.55181C13.6311 9.55181 9.79348 9.27587 6.54639 7.62087C6.14209 7.27587 5.61774 7.07993 5.07031 7.069C5.09138 6.71337 5.31744 6.39649 5.66088 6.24149C5.9809 6.10212 6.34173 6.06837 6.68517 6.14493C5.03487 5.62899 4.8904 3.71743 6.25111 3.20712C6.44339 3.13556 6.62731 3.04618 6.8002 2.93962C7.47337 2.50056 8.03651 1.93024 8.4505 1.26774C8.55818 1.10181 8.75047 1.00024 8.95813 1.00024H12.4356C13.3302 1.00024 13.9442 1.92993 13.9264 2.65556C13.9264 4.03431 14.2214 7.34462 13.6311 9.55181Z" fill="#FDD7AD"/>
<path d="M12.4501 7.6035C12.3863 7.60381 12.3241 7.58444 12.2729 7.54819C11.5733 7.05788 10.6199 6.99163 9.77855 6.93288C9.35318 6.921 8.93049 6.8635 8.51917 6.76194C8.41885 6.73069 8.34427 6.65194 8.32287 6.55538C8.3018 6.45881 8.33725 6.35881 8.41617 6.29319C8.49509 6.22756 8.60545 6.20663 8.70577 6.23788C9.07128 6.32319 9.44548 6.37163 9.82236 6.38194C10.6988 6.44319 11.7893 6.51975 12.6267 7.10663C12.7284 7.17788 12.7698 7.30194 12.7297 7.41444C12.6896 7.52694 12.5769 7.60319 12.4498 7.60319L12.4501 7.6035Z" fill="#F9C795"/>
<path d="M11.5796 7.20969C10.5168 6.88969 9.29758 7.00562 8.61272 6.79312C7.94557 6.58344 7.29314 6.25531 6.68519 6.145C5.03489 5.62906 4.89043 3.7175 6.25113 3.20719C6.44341 3.13562 6.62734 3.04625 6.80023 2.93969C7.48643 3.11812 8.19571 3.20812 8.908 3.20719C10.679 3.20687 10.679 1 10.679 1H11.8598C11.0923 3.87187 11.3228 6.04281 11.5796 7.20969Z" fill="#2FA8CC"/>
</g>
<defs>
<clipPath id="clip0_2601_2963">
<rect width="11" height="16" fill="white" transform="translate(3 1)"/>
</clipPath>
</defs>
</svg>
