<svg width="58" height="58" viewBox="0 0 58 58" fill="none" xmlns="http://www.w3.org/2000/svg">
<g clip-path="url(#clip0_2558_2666)">
<g clip-path="url(#clip1_2558_2666)">
<path d="M54.6985 18.1185C50.4856 20.117 45.149 24.2776 45.0546 31.2033C45.0522 31.4108 44.9529 31.6025 44.7857 31.7221C43.0759 32.9491 42.3094 35.2479 43.1522 37.3684C44.0047 39.5098 46.3152 40.7294 48.5469 40.2191C51.2364 39.6038 52.8034 36.8398 52.0235 34.2224C51.6566 32.9918 50.838 32.0237 49.8063 31.445C49.6125 31.3364 49.4854 31.1386 49.4757 30.9152C49.3268 27.5542 50.4881 22.6746 55.1017 18.7497C55.4359 18.4652 55.0932 17.9305 54.6985 18.1185Z" fill="#685E68"/>
<path d="M44.8547 4.13515C40.2495 4.82614 33.9514 7.26046 31.882 13.8663C31.8202 14.0641 31.67 14.2191 31.4763 14.2851C29.4891 14.9626 28.0966 16.9428 28.2988 19.2172C28.5034 21.5148 30.3671 23.3533 32.6509 23.5133C35.4021 23.7049 37.6932 21.5123 37.6932 18.7801C37.6932 17.4958 37.1859 16.3312 36.3636 15.4766C36.2098 15.3167 36.1432 15.0896 36.1977 14.8723C37.0151 11.6102 39.5205 7.27511 45.0606 4.85544C45.4614 4.68086 45.2858 4.07045 44.8547 4.13515Z" fill="#685E68"/>
<path d="M21.806 14.312C21.7612 14.312 21.7164 14.3084 21.6703 14.3023C21.1593 14.2278 20.8045 13.7492 20.8784 13.2341C21.1327 11.4565 22.2758 7.01152 27.3726 4.12061C27.8231 3.86546 28.3935 4.02661 28.6465 4.48076C28.8996 4.9349 28.7398 5.50991 28.2893 5.76506C23.9178 8.24455 22.9455 12.0035 22.7299 13.5039C22.6633 13.9739 22.2637 14.312 21.806 14.312Z" fill="#FFA78F"/>
<path d="M49.7847 14.312C49.7399 14.312 49.6951 14.3084 49.6503 14.3023C49.1393 14.2278 48.7845 13.7492 48.8584 13.2341C49.1139 11.4565 50.257 7.01152 55.3526 4.12061C55.8031 3.86546 56.3734 4.02661 56.6265 4.48076C56.8796 4.9349 56.7198 5.50991 56.2693 5.76506C51.8978 8.24455 50.9254 12.0035 50.7099 13.5039C50.6421 13.9739 50.2425 14.312 49.7847 14.312Z" fill="#FFA78F"/>
<path d="M-2 42.9562V52.6886C-2 53.4125 -1.41754 53.9997 -0.699453 53.9997H58.6982C59.4163 53.9997 59.9988 53.4125 59.9988 52.6886V44.2039L51.3975 34.1418L29 40.6867L8.97836 34.6058L-2 42.9562Z" fill="#FEE97D"/>
<path d="M57.1311 40.8113V52.6874C57.1311 53.4114 56.5487 53.9986 55.8306 53.9986H58.6993C59.4174 53.9986 59.9998 53.4114 59.9998 52.6874V44.2027L57.1311 40.8113Z" fill="#FEC165"/>
<path d="M60 31.6637V44.2028C57.5224 43.2371 55.798 41.9345 51.1529 41.9345C43.7674 41.9345 43.7674 45.2222 36.3843 45.2222C29.0012 45.2222 29 41.9357 21.6145 41.9357C14.2302 41.9357 14.2302 45.2234 6.84711 45.2234C2.20074 45.2234 0.477578 43.9208 -2 42.9551V31.6637C-2 30.9398 -1.41754 30.3525 -0.699453 30.3525H23.9867C24.3863 30.3525 24.643 30.7786 24.4602 31.1363C24.1005 31.8407 23.8971 32.6404 23.8971 33.4876C23.8971 36.3077 26.1482 38.598 28.937 38.6322C31.7428 38.6676 34.0847 36.3541 34.1029 33.5242C34.1102 32.6636 33.9043 31.8505 33.5386 31.1363C33.3557 30.7786 33.6137 30.3538 34.0121 30.3538H58.6982C59.4175 30.3538 60 30.9398 60 31.6637Z" fill="#FFA78F"/>
<path d="M58.6996 30.3538H55.8394C56.5538 30.3586 57.1314 30.9434 57.1314 31.6649V42.9795C58.1256 43.3702 59.0023 43.8145 60.0001 44.204V31.6649C60.0001 30.9398 59.4177 30.3538 58.6996 30.3538Z" fill="#F89580"/>
<path d="M14.6541 18.1185C10.4412 20.117 5.10463 24.2776 5.01018 31.2033C5.00776 31.4108 4.90846 31.6025 4.74135 31.7221C3.03151 32.9491 2.26377 35.2479 3.1078 37.3684C3.95909 39.5098 6.27077 40.7294 8.50252 40.2191C11.192 39.6038 12.759 36.8398 11.9791 34.2224C11.6122 32.9918 10.7936 32.0237 9.7619 31.445C9.56815 31.3364 9.441 31.1386 9.43131 30.9152C9.28237 27.5542 10.4437 22.6746 15.0573 18.7497C15.3915 18.4652 15.0489 17.9305 14.6541 18.1185Z" fill="#685E68"/>
</g>
</g>
<defs>
<clipPath id="clip0_2558_2666">
<rect width="58" height="58" fill="white"/>
</clipPath>
<clipPath id="clip1_2558_2666">
<rect width="62" height="50" fill="white" transform="translate(-2 4)"/>
</clipPath>
</defs>
</svg>
