<svg width="26" height="21" viewBox="0 0 26 21" fill="none" xmlns="http://www.w3.org/2000/svg">
<path d="M16.0597 10.1388C16.0962 10.1674 16.1362 10.1959 16.1777 10.224V8.91724C15.7969 9.28616 15.7914 9.92895 16.0597 10.1388Z" fill="#0E4D92"/>
<path d="M17.6787 12.5073V14.6367C18.4039 14.1599 18.6218 12.9556 17.6787 12.5073Z" fill="#0E4D92"/>
<path d="M18.6381 3.17971C15.1747 2.44047 11.807 3.76462 9.76545 6.36755C5.21067 12.1711 9.42746 20.607 16.7334 20.607C21.6093 20.607 25.5761 16.6517 25.5761 11.7901C25.5761 7.75544 22.8009 4.11912 18.6381 3.17971ZM17.679 16.2379V16.7157C17.679 17.1236 17.3433 17.4546 16.9297 17.4546C16.5156 17.4546 16.1804 17.1236 16.1804 16.7157V16.3084C15.598 16.2508 15.1284 16.0862 14.487 15.6671C14.1418 15.442 14.0474 14.9834 14.2757 14.643C14.504 14.3032 14.9691 14.2096 15.3142 14.4352C15.6659 14.6647 15.8937 14.7721 16.1804 14.8209V11.9118C15.7378 11.7079 15.4052 11.5109 15.1309 11.2966C13.8226 10.2726 14.2462 7.79745 16.1804 7.2778V6.86454C16.1804 6.4567 16.5156 6.1257 16.9297 6.1257C17.3433 6.1257 17.679 6.4567 17.679 6.86454V7.22657C18.5212 7.39897 19.0163 7.85656 19.0163 7.87084C19.5068 8.32695 19.1826 9.14657 18.5033 9.14657C18.1191 9.14657 18.0747 8.93625 17.679 8.76829V10.9257C17.7949 10.9685 17.9108 11.0104 18.0252 11.0503C20.6667 11.9822 20.2042 15.5759 17.679 16.2379Z" fill="#0E4D92"/>
<path d="M18.6795 1.67897C18.5226 0.847042 17.7858 0.215088 16.9031 0.215088H1.8073C0.81074 0.215088 0 1.02042 0 2.00997V3.83836C0 4.74811 0.685357 5.50124 1.56953 5.61699C1.45269 6.00163 1.48061 6.15915 1.48061 7.51482C1.48061 8.01674 1.66244 8.47728 1.96416 8.83488C1.66244 9.19248 1.48061 9.65302 1.48061 10.1549C1.48061 11.494 1.44784 11.6837 1.58351 12.0951C0.675866 12.3138 0 13.1275 0 14.0954V15.3958C0 16.5311 0.929628 17.4547 2.07256 17.4547H8.1014C3.13921 9.98747 9.61049 -0.0499584 18.6795 1.67897Z" fill="#0E4D92"/>
<ellipse cx="17.0532" cy="11.1434" rx="5.11523" ry="7.56575" fill="#0E4D92"/>
<path d="M10.8696 7.14966H13.521C14.0646 7.14966 14.5317 7.23104 14.9224 7.3938C15.3162 7.55656 15.619 7.79744 15.8306 8.11646C16.0422 8.43547 16.1479 8.82772 16.1479 9.29321C16.1479 9.67407 16.0828 10.0012 15.9526 10.2747C15.8257 10.5448 15.645 10.7711 15.4106 10.9534C15.1795 11.1324 14.9077 11.2756 14.5952 11.3831L14.1313 11.6272H11.8267L11.8169 10.4846H13.5308C13.7879 10.4846 14.0011 10.439 14.1704 10.3479C14.3397 10.2568 14.4666 10.1298 14.5513 9.96704C14.6392 9.80428 14.6831 9.61548 14.6831 9.40063C14.6831 9.17277 14.6408 8.97583 14.5562 8.80981C14.4715 8.6438 14.3429 8.51685 14.1704 8.42896C13.9979 8.34106 13.7814 8.29712 13.521 8.29712H12.3345V14.259H10.8696V7.14966ZM14.8442 14.259L13.2231 11.0901L14.771 11.0803L16.4116 14.1907V14.259H14.8442ZM20.0444 12.7991C20.0444 12.6982 20.0151 12.607 19.9565 12.5256C19.8979 12.4443 19.7889 12.3694 19.6294 12.301C19.4731 12.2294 19.2469 12.1643 18.9507 12.1057C18.6838 12.0471 18.4347 11.9739 18.2036 11.886C17.9757 11.7948 17.7772 11.6858 17.6079 11.5588C17.4419 11.4319 17.3117 11.2821 17.2173 11.1096C17.1229 10.9338 17.0757 10.7336 17.0757 10.509C17.0757 10.2877 17.1229 10.0793 17.2173 9.88403C17.3149 9.68872 17.4533 9.51619 17.6323 9.36646C17.8146 9.21346 18.036 9.09465 18.2964 9.01001C18.5601 8.92212 18.8563 8.87817 19.1851 8.87817C19.644 8.87817 20.0379 8.95142 20.3667 9.0979C20.6987 9.24438 20.9526 9.44621 21.1284 9.70337C21.3075 9.95728 21.397 10.247 21.397 10.5725H19.9907C19.9907 10.4358 19.9614 10.3137 19.9028 10.2063C19.8475 10.0956 19.7596 10.0094 19.6392 9.94751C19.522 9.88241 19.369 9.84985 19.1802 9.84985C19.0239 9.84985 18.8888 9.87752 18.7749 9.93286C18.661 9.98494 18.5731 10.0566 18.5112 10.1477C18.4526 10.2356 18.4233 10.3333 18.4233 10.4407C18.4233 10.5221 18.4396 10.5953 18.4722 10.6604C18.508 10.7222 18.5649 10.7792 18.6431 10.8313C18.7212 10.8834 18.8221 10.9322 18.9458 10.9778C19.0728 11.0201 19.229 11.0592 19.4146 11.095C19.7954 11.1731 20.1356 11.2756 20.4351 11.4026C20.7345 11.5263 20.9722 11.6956 21.1479 11.9104C21.3237 12.122 21.4116 12.4003 21.4116 12.7454C21.4116 12.9797 21.3595 13.1946 21.2554 13.3899C21.1512 13.5852 21.0015 13.7561 20.8062 13.9026C20.6108 14.0458 20.3765 14.1581 20.103 14.2395C19.8328 14.3176 19.5285 14.3567 19.1899 14.3567C18.6984 14.3567 18.2817 14.2688 17.9399 14.093C17.6014 13.9172 17.3442 13.6943 17.1685 13.4241C16.9959 13.1506 16.9097 12.8707 16.9097 12.5842H18.2427C18.2492 12.7763 18.298 12.9309 18.3892 13.0481C18.4836 13.1653 18.6024 13.2499 18.7456 13.302C18.8921 13.3541 19.05 13.3801 19.2192 13.3801C19.4015 13.3801 19.5529 13.3557 19.6733 13.3069C19.7938 13.2548 19.8849 13.1864 19.9468 13.1018C20.0119 13.0139 20.0444 12.913 20.0444 12.7991Z" fill="white"/>
</svg>
