<svg width="34" height="33" viewBox="0 0 34 33" fill="none" xmlns="http://www.w3.org/2000/svg">
<path d="M11.9531 20.3672L11.9536 24.2344C11.9536 26.9354 14.2177 29.1328 17.0005 29.1328C19.7834 29.1328 22.0474 26.9354 22.0474 24.2344L22.0469 20.3672C22.0469 17.6662 19.7828 15.4688 17 15.4688C14.2174 15.4688 11.9531 17.6662 11.9531 20.3672Z" fill="#545ED2"/>
<path d="M24.0398 20.3672L24.0403 24.2344C24.0403 26.1539 23.2204 27.8906 21.9026 29.1328H30.0169V15.4688H21.9023C23.2198 16.711 24.0398 18.4477 24.0398 20.3672ZM26.0325 21.334H28.0247V23.2676H26.0325V21.334Z" fill="#545ED2"/>
<path d="M9.96094 24.2344L9.96042 20.3672C9.96042 18.4477 10.7806 16.711 12.0981 15.4688H3.98438V29.1328H12.0986C10.7809 27.8906 9.96094 26.1539 9.96094 24.2344ZM7.96875 23.2676H5.97656V21.334H7.96875V23.2676Z" fill="#545ED2"/>
<path d="M0 11.6016V33H34V11.6016H0ZM32.0078 31.0664H1.99219V13.5352H32.0078V31.0664Z" fill="#545ED2"/>
<path d="M5.97656 0H28.0234V1.93359H5.97656V0Z" fill="#545ED2"/>
<path d="M3.98438 3.86719H30.0156V5.80078H3.98438V3.86719Z" fill="#545ED2"/>
<path d="M1.99219 7.73438H32.0078V9.66797H1.99219V7.73438Z" fill="#545ED2"/>
</svg>
