<svg width="20" height="16" viewBox="0 0 20 16" fill="none" xmlns="http://www.w3.org/2000/svg">
<path d="M9.91565 0.00111802C12.5129 0.00111802 15.1102 0.00111802 17.7075 0.00111802C19.1578 0.00237579 19.7741 0.617426 19.7753 2.06009C19.7753 5.82963 19.7753 9.60044 19.7753 13.37C19.7753 14.829 19.1791 15.4227 17.7113 15.4239C12.4966 15.4252 7.28061 15.4252 2.06589 15.4239C0.598071 15.4239 0.00314443 14.8315 0.00188666 13.37C-0.000628886 9.60044 -0.000628886 5.82963 0.00188666 2.06009C0.00314443 0.59856 0.599328 0.00363356 2.06212 0.00111802C4.67954 -0.00139752 7.29822 0.00111802 9.91565 0.00111802ZM9.89804 7.70623C7.34099 7.70623 4.78394 7.71378 2.22689 7.69868C1.79044 7.69617 1.58794 7.77667 1.59674 8.27978C1.62693 9.91362 1.62064 11.5487 1.59926 13.1838C1.59297 13.6442 1.73635 13.8052 2.20802 13.8039C7.32212 13.7913 12.4362 13.7888 17.5491 13.8064C18.0748 13.8077 18.178 13.6052 18.1717 13.1373C18.149 11.545 18.1415 9.95135 18.1754 8.35901C18.1868 7.82698 18.0195 7.68988 17.5038 7.69491C14.9681 7.71881 12.4324 7.70623 9.89552 7.70623H9.89804ZM9.83892 3.31661C12.396 3.31661 14.953 3.31661 17.5101 3.31409C17.7151 3.31409 18.0321 3.3971 18.0975 3.21221C18.2509 2.77828 18.2207 2.29152 18.1264 1.84879C18.0509 1.49284 17.6711 1.63371 17.422 1.63371C12.3922 1.62616 7.36237 1.62868 2.33254 1.62868C2.22814 1.62868 2.12249 1.63371 2.0181 1.62993C1.72503 1.62239 1.60177 1.7708 1.61058 2.05506C1.61687 2.26385 1.63196 2.47641 1.60555 2.68269C1.54392 3.17322 1.73007 3.33044 2.23317 3.32541C4.76884 3.30151 7.30451 3.31409 9.84144 3.31409L9.83892 3.31661Z" fill="#212121"/>
<path d="M10.4502 9.92117C11.1634 9.92117 11.8753 9.93123 12.5884 9.91739C12.9834 9.90985 13.1695 10.0671 13.1632 10.4708C13.1343 12.282 13.4223 12.0959 11.6551 12.1072C10.586 12.1147 9.51693 12.0971 8.44909 12.1122C7.93591 12.1198 7.69065 11.9575 7.69945 11.3902C7.72587 9.66836 7.60638 9.94129 9.1308 9.92117C9.57102 9.91614 10.0112 9.92117 10.4515 9.92117H10.4502Z" fill="#212121"/>
<path d="M5.01034 9.92117C5.07323 9.92117 5.13486 9.92117 5.19774 9.92117C6.56117 9.92117 6.88693 10.3626 6.55865 11.7399C6.49702 11.9965 6.3398 12.0845 6.11592 12.0871C5.3449 12.0971 4.57389 12.1009 3.80287 12.0971C3.47963 12.0959 3.29851 11.9336 3.30857 11.594C3.30857 11.5726 3.30605 11.5525 3.30605 11.5311C3.30605 9.54132 3.12997 9.96645 5.00782 9.92117H5.01034Z" fill="#212121"/>
</svg>
