<svg width="22" height="22" viewBox="0 0 22 22" fill="none" xmlns="http://www.w3.org/2000/svg">
<path d="M20.75 20.7502L16.0451 16.0453M16.0451 16.0453C16.8499 15.2405 17.4883 14.2851 17.9238 13.2336C18.3594 12.182 18.5835 11.055 18.5835 9.91689C18.5835 8.77874 18.3594 7.65173 17.9238 6.60021C17.4883 5.5487 16.8499 4.59327 16.0451 3.78847C15.2403 2.98368 14.2848 2.34528 13.2333 1.90973C12.1818 1.47418 11.0548 1.25 9.91665 1.25C8.77849 1.25 7.65149 1.47418 6.59997 1.90973C5.54846 2.34528 4.59302 2.98368 3.78823 3.78847C2.16287 5.41383 1.24976 7.61829 1.24976 9.91689C1.24976 12.2155 2.16287 14.4199 3.78823 16.0453C5.41359 17.6707 7.61804 18.5838 9.91665 18.5838C12.2152 18.5838 14.4197 17.6707 16.0451 16.0453Z" stroke="white" stroke-width="2.5" stroke-linecap="round" stroke-linejoin="round"/>
</svg>
