<svg width="58" height="58" viewBox="0 0 58 58" fill="none" xmlns="http://www.w3.org/2000/svg">
<g clip-path="url(#clip0_2558_2706)">
<path d="M24.4366 32.2065C25.0881 33.0719 25.8889 33.7929 26.791 34.3485C24.0235 35.423 21.4922 37.0267 19.3455 39.0722L20.2506 31.4326L22.3093 29.3882L24.4366 32.2065Z" fill="#656D78"/>
<path d="M52.4575 28.8946C52.4575 29.1759 52.4248 29.4552 52.3603 29.7264C52.2959 29.9986 52.1998 30.2627 52.0719 30.5145L51.6096 31.4327L50.3108 33.406C46.9562 29.6553 44.3206 25.3176 42.5431 20.6081L42.2107 19.7266L42.6597 20.2618C44.6376 22.617 47.1976 24.4228 50.0899 25.5004C50.8017 25.7655 51.3938 26.2357 51.807 26.8288C52.2212 27.424 52.4575 28.139 52.4575 28.8946Z" fill="#656D78"/>
<path d="M35.835 20.3034C35.3472 20.7178 34.8133 21.0692 34.2436 21.3525C33.1698 21.8857 31.9711 22.1742 30.7377 22.1742C28.8855 22.1742 27.0886 21.5486 25.6424 20.3989L23.6389 18.8074C23.6389 20.7289 22.9547 22.5794 21.7192 24.0389C21.4022 23.9221 21.0585 23.8581 20.6985 23.8581C19.4211 23.8581 18.2879 24.6787 17.8993 25.8873L17.4677 27.2269L17.4636 27.2259L16.4675 23.7657C16.1637 22.7104 16.0093 21.6186 16.0093 20.5207C16.0093 17.2596 17.3409 14.3051 19.4937 12.1682C21.6456 10.0304 24.6207 8.70801 27.9047 8.70801C30.9535 8.70801 33.8438 9.64746 36.24 11.2958C38.6363 12.9442 40.5365 15.3025 41.6073 18.1381L42.2067 19.7265L42.2077 19.7275L42.5401 20.6091C44.3176 25.3186 46.9542 29.6563 50.3078 33.407C50.8478 34.0123 51.4072 34.6024 51.985 35.1752C52.6774 35.8628 53.2195 36.6743 53.5867 37.5558C53.9538 38.4374 54.1492 39.3911 54.1492 40.364C54.1492 41.7534 53.7544 43.0839 53.0456 44.2224C52.3379 45.3609 51.3162 46.3064 50.0643 46.928L49.0641 47.4246V45.7418V41.988C49.0641 40.3945 48.4904 38.9137 47.5218 37.762C46.5533 36.6103 45.189 35.7836 43.6099 35.4992C41.2238 35.0686 39.2643 33.3806 38.4972 31.0954L38.4031 30.8141C38.7202 29.9874 38.894 29.0896 38.894 28.1521C38.894 27.6809 38.849 27.2117 38.76 26.7516L39.479 26.2763C39.8257 26.0468 40.1029 25.74 40.2941 25.3856C40.4844 25.0321 40.5887 24.632 40.5887 24.2186C40.5887 23.655 40.3586 23.1431 39.9863 22.7744C39.614 22.4037 39.0996 22.1762 38.532 22.1762C38.2129 22.1762 37.8989 22.2504 37.6125 22.3915L37.0296 22.681L35.835 20.3034Z" fill="#656D78"/>
<path d="M27.5827 34.7823L29.1086 37.0562C29.9288 38.276 31.3075 39.0093 32.7843 39.0093C34.0034 39.0093 35.109 38.5187 35.9077 37.7245C36.7075 36.9313 37.2015 35.8334 37.2015 34.6228V32.8841C37.7078 32.2686 38.1169 31.5708 38.4063 30.8142L38.5004 31.0955C39.2674 33.3807 41.227 35.0697 43.613 35.4993C45.1921 35.7847 46.5565 36.6104 47.525 37.7621C48.4935 38.9138 49.0673 40.3946 49.0673 41.9881V45.7419H42.2865V54.1583H27.0304L25.6579 45.3051L23.3219 47.1099L18.9109 42.7295L19.3445 39.0723C21.4923 37.0268 24.0235 35.4221 26.79 34.3486C27.0468 34.506 27.3116 34.6512 27.5827 34.7812V34.7823Z" fill="#75B1F2"/>
<path d="M49.0671 47.4246V54.1582H42.2864V45.7417H49.0671V47.4246Z" fill="#F0D0B4"/>
<path d="M18.9108 42.7294L23.3219 47.1098L19.9223 49.7362C19.0356 50.4208 17.9454 50.7925 16.8224 50.7925C15.4284 50.7925 14.1663 50.2319 13.253 49.3239C12.3387 48.4169 11.7742 47.1637 11.7742 45.7794V45.6839C11.7742 45.1649 11.855 44.65 12.0145 44.1564L17.4698 27.228L17.9014 25.8883C18.29 24.6798 19.4232 23.8591 20.7006 23.8591C21.0596 23.8591 21.4043 23.9231 21.7213 24.0399C22.1232 24.1872 22.4832 24.4187 22.7798 24.7143C23.3127 25.2424 23.641 25.9716 23.641 26.778V26.8583C23.641 27.2787 23.55 27.6901 23.3771 28.0669C23.2329 28.3817 23.0314 28.6722 22.7798 28.922L22.3094 29.3892L20.2506 31.4337L19.3455 39.0732L18.9108 42.7294Z" fill="#F0D0B4"/>
<path d="M40.5909 24.2175C40.5909 24.6309 40.4865 25.031 40.2963 25.3845C40.1061 25.7389 39.8279 26.0467 39.4812 26.2752L38.7622 26.7505C38.7418 26.6428 38.7203 26.5362 38.6947 26.4295C38.5607 25.8669 38.3623 25.3205 38.0995 24.8005L37.0317 22.6788L37.6147 22.3894C37.9011 22.2472 38.215 22.1741 38.5341 22.1741C39.1018 22.1741 39.6172 22.4026 39.9885 22.7723C40.3618 23.142 40.5909 23.6538 40.5909 24.2175Z" fill="#F0D0B4"/>
<path d="M37.2004 32.8828V34.6216C37.2004 35.8322 36.7064 36.9301 35.9066 37.7233C35.1079 38.5175 34.0023 39.008 32.7832 39.008C31.3063 39.008 29.9277 38.2748 29.1075 37.055L27.5815 34.781V34.78C28.7413 35.3396 30.0279 35.6402 31.3524 35.6402C33.4357 35.6402 35.3216 34.8013 36.6859 33.4465C36.868 33.2677 37.0398 33.0798 37.2004 32.8828Z" fill="#F0D0B4"/>
<path d="M23.376 28.0658C23.5489 27.689 23.6399 27.2777 23.6399 26.8572V26.777C23.6399 25.9696 23.3116 25.2414 22.7787 24.7132C22.4822 24.4177 22.1222 24.1861 21.7202 24.0389C22.9557 22.5794 23.6399 20.7289 23.6399 18.8074L25.6434 20.3989C27.0896 21.5475 28.8865 22.1742 30.7387 22.1742C31.9721 22.1742 33.1697 21.8857 34.2446 21.3525C34.8143 21.0692 35.3482 20.7178 35.836 20.3034L37.0326 22.6789L38.1004 24.8006C38.3632 25.3206 38.5626 25.866 38.6956 26.4296C38.7212 26.5363 38.7437 26.6429 38.7631 26.7506C38.8521 27.2107 38.8971 27.6799 38.8971 28.1511C38.8971 29.0885 38.7232 29.9864 38.4062 30.8131C38.1167 31.5697 37.7076 32.2675 37.2014 32.8829C37.0408 33.08 36.869 33.2678 36.688 33.4476C35.3236 34.8025 33.4377 35.6414 31.3544 35.6414C30.0299 35.6414 28.7433 35.3407 27.5836 34.7811C27.3125 34.6521 27.0476 34.5069 26.7909 34.3485C25.8889 33.7929 25.0881 33.0708 24.4366 32.2065L22.3083 29.3892L22.7787 28.922C23.0303 28.6711 23.2318 28.3807 23.376 28.0658Z" fill="#F0D0B4"/>
<path d="M33.8621 16.7242C33.0561 17.5245 31.9843 17.9653 30.844 17.9653C29.7036 17.9653 28.6318 17.5245 27.8259 16.7242L26.7817 15.6873L25.583 16.8776L26.6272 17.9145C27.7533 19.0327 29.2505 19.6492 30.844 19.6492C32.4374 19.6492 33.9347 19.0337 35.0607 17.9145L35.2571 17.7195L34.0584 16.5292L33.8621 16.7242Z" fill="black"/>
<path d="M52.5874 34.5797C49.2758 31.2912 46.6095 27.5283 44.6326 23.3622C46.179 24.6002 47.9217 25.5925 49.7913 26.2882C50.8784 26.6934 51.6087 27.7395 51.6087 28.8933C51.6087 29.3229 51.5064 29.7535 51.3131 30.1374L50.8508 31.0555L52.3675 31.8081L52.8298 30.89C53.1407 30.2735 53.3044 29.5829 53.3044 28.8933C53.3044 27.0428 52.1323 25.3619 50.3865 24.7119C47.6374 23.6882 45.19 21.9626 43.3102 19.7222L42.9522 19.2956L42.403 17.8412C41.2913 14.8969 39.3277 12.3944 36.7248 10.6029C34.1219 8.81232 31.0731 7.86475 27.9068 7.86475C20.8806 7.86475 15.1635 13.5411 15.1635 20.5194C15.1635 21.6955 15.3281 22.8645 15.6534 23.9959L16.581 27.2185L11.2065 43.8981C11.0204 44.476 10.9263 45.0762 10.9263 45.6826V45.778C10.9263 49.0067 13.5711 51.6331 16.8223 51.6331C18.1263 51.6331 19.4119 51.1954 20.4418 50.4001L25.04 46.8485L26.3031 54.9999H49.915V47.9454L50.4468 47.6813C53.2553 46.2869 55.0001 43.4837 55.0001 40.3647C55.0001 38.1791 54.143 36.1255 52.5874 34.5797ZM19.4007 49.0707C18.6674 49.6374 17.751 49.9492 16.8213 49.9492C14.5048 49.9492 12.6209 48.0774 12.6209 45.778V45.6826C12.6209 45.2509 12.6884 44.8223 12.8204 44.411L18.7072 26.144C18.9854 25.2797 19.7862 24.6997 20.6995 24.6997C21.8532 24.6997 22.7921 25.6321 22.7921 26.7777V26.858C22.7921 27.4125 22.5742 27.9345 22.1794 28.3265L19.4416 31.0444L17.9924 43.2786C17.8338 44.6162 17.2181 45.8776 16.2598 46.8292L17.4585 48.0195C18.4403 47.0445 19.1399 45.8166 19.4845 44.4882L22.0434 47.0293L19.4007 49.0707ZM22.2163 30.6696L23.7585 32.711C24.1584 33.2401 24.6115 33.7215 25.1065 34.1501C23.4394 34.92 21.8798 35.8747 20.4428 37.0061L21.0575 31.8213L22.2163 30.6696ZM38.8572 24.4245L38.1761 23.0717C38.2916 23.0362 38.4123 23.0158 38.534 23.0158C39.2008 23.0158 39.7439 23.5551 39.7439 24.2173C39.7439 24.6561 39.568 25.0684 39.2622 25.3721C39.1466 25.0481 39.0126 24.7312 38.8572 24.4245ZM35.5302 21.5797L37.3415 25.1781C37.8038 26.0962 38.0482 27.1251 38.0482 28.1519C38.0482 31.8183 35.0444 34.8001 31.3534 34.8001C28.9121 34.8001 26.5792 33.6423 25.1137 31.7025L23.4251 29.4671C23.5939 29.2934 23.7442 29.1065 23.8741 28.9085H24.2863C25.7784 28.9085 27.1203 28.0848 27.7871 26.7594L26.2704 26.0069C25.9196 26.7036 25.2395 27.1545 24.4683 27.2165C24.4796 27.0976 24.4857 26.9778 24.4857 26.8569V26.7767C24.4857 25.5508 23.8915 24.459 22.9741 23.7725C23.6501 22.7629 24.1124 21.6275 24.3343 20.4382L25.1126 21.0567C26.703 22.3201 28.7004 23.0158 30.7367 23.0158C32.4549 23.0158 34.1229 22.5019 35.5302 21.5797ZM36.3454 34.8428C36.2298 36.6943 34.6773 38.1659 32.7842 38.1659C31.5876 38.1659 30.4779 37.5758 29.8142 36.5876L29.6372 36.3246C30.1997 36.4282 30.7735 36.482 31.3524 36.482C33.2219 36.483 34.9493 35.8726 36.3454 34.8428ZM26.2653 43.6909C26.21 43.3334 26.1814 42.9688 26.1814 42.6062V42.5727C26.1814 41.4718 26.4432 40.3688 26.9392 39.3837L25.4225 38.6311C24.8099 39.8488 24.4857 41.2118 24.4857 42.5727V42.6062C24.4857 43.0541 24.5205 43.5051 24.589 43.9469L24.7434 44.9432L23.3904 45.9883L19.7995 42.4224L20.1483 39.4761C22.0782 37.6886 24.2873 36.2789 26.7265 35.2815C26.8145 35.3303 26.9045 35.378 26.9935 35.4237L28.4018 37.521C29.3805 38.9784 31.0179 39.8488 32.7821 39.8488C35.6847 39.8488 38.0462 37.5037 38.0462 34.6214V33.165C38.1464 33.034 38.2415 32.8999 38.3336 32.7628C39.4238 34.6143 41.2831 35.9326 43.4585 36.3256C46.2158 36.8233 48.2163 39.2039 48.2163 41.9867V44.8985H41.4355V40.1972C41.4355 39.6548 41.6482 39.144 42.0348 38.7601L40.8362 37.5697C40.1295 38.2715 39.7408 39.2049 39.7408 40.1972V44.8985C39.7408 45.8268 40.5018 46.5814 41.4355 46.5814V53.315H27.7574L26.2653 43.6909ZM43.1343 53.317V46.5834H48.2193V53.317H43.1343ZM49.914 46.0573V41.9877C49.914 40.2215 49.2891 38.5813 48.2326 37.2925C49.4507 37.8338 50.3793 38.8484 50.8048 40.1159L52.4125 39.5837C51.7928 37.7363 50.3844 36.286 48.5486 35.6025C45.9959 34.6519 43.9177 32.7943 42.6986 30.372L42.1954 29.3737L40.6787 30.1262L41.1819 31.1246C41.8661 32.4835 42.7845 33.688 43.885 34.6945C43.8441 34.6864 43.8042 34.6772 43.7633 34.6701C41.681 34.2944 39.972 32.8227 39.3031 30.828L39.299 30.8169C39.5844 29.979 39.7419 29.0832 39.7419 28.1498C39.7419 27.8167 39.7204 27.4836 39.6805 27.1535L39.9505 26.9747C40.8812 26.3583 41.4376 25.3274 41.4376 24.2163C41.4376 22.6258 40.1346 21.3319 38.533 21.3319C38.1495 21.3319 37.7659 21.4091 37.4131 21.5564L36.8762 20.491C37.1666 20.2036 37.4387 19.8948 37.6872 19.5647L37.8784 19.3119L36.5223 18.3023L36.331 18.5552C35.0178 20.294 32.9263 21.3329 30.7377 21.3329C29.0849 21.3329 27.4629 20.7683 26.1722 19.7425L22.791 17.0562V18.8071C22.791 20.3437 22.297 21.8418 21.395 23.0798C21.169 23.0382 20.9368 23.0148 20.6995 23.0148C19.4354 23.0148 18.29 23.6293 17.5966 24.6185L17.2846 23.5328C17.0023 22.5527 16.8592 21.5381 16.8592 20.5194C16.8592 14.4704 21.8153 9.54865 27.9068 9.54865C33.6218 9.54865 38.8091 13.1186 40.8157 18.4323L41.7485 20.9033C43.8706 26.5238 47.1137 31.5258 51.3878 35.7701C52.6232 36.9969 53.3044 38.629 53.3044 40.3637C53.3044 42.7565 52.0126 44.9147 49.914 46.0573Z" fill="black"/>
<path d="M19.8864 18.4609C19.6542 19.382 19.0303 20.1549 18.1743 20.5795L18.9322 22.0856C20.231 21.4407 21.1781 20.2687 21.5299 18.8692L21.9175 17.3284L20.273 16.9202L19.8864 18.4609Z" fill="black"/>
<path d="M9.95256 20.0168L13.7367 18.7645L13.2008 17.168L6.81378 19.2815L8.4205 20.877L3.09204 22.1994L3.50318 23.8325L11.7362 21.7891L9.95256 20.0168Z" fill="black"/>
<path d="M10.5703 13.4051L14.0476 14.5558L14.5835 12.9593L7.89072 10.7432L8.713 13.1918L3.59523 11.2855L3 12.8628L11.4437 16.0071L10.5703 13.4051Z" fill="black"/>
<path d="M10.0272 7.55609L15.4815 11.8898L16.54 10.5755L13.5188 8.17562L16.0614 7.33367L10.6081 3L9.54858 4.31422L12.5697 6.71414L10.0272 7.55609Z" fill="black"/>
<path d="M30.4207 26.3828H31.0681C32.5603 26.3828 33.9021 25.5592 34.5689 24.2338L33.0522 23.4812C32.6738 24.2328 31.9129 24.6989 31.0671 24.6989H30.4197V26.3828H30.4207Z" fill="black"/>
<path d="M29.1525 32.2256L28.8682 32.6501L30.2785 33.5835L30.5628 33.159C31.289 32.0783 32.503 31.4324 33.811 31.4324V29.7495C31.9343 29.7495 30.1926 30.6747 29.1525 32.2256Z" fill="black"/>
</g>
<defs>
<clipPath id="clip0_2558_2706">
<rect width="52" height="52" fill="white" transform="translate(3 3)"/>
</clipPath>
</defs>
</svg>
