<svg width="21" height="22" viewBox="0 0 21 22" fill="none" xmlns="http://www.w3.org/2000/svg">
<path d="M17.7233 8.50347C17.5083 8.55007 17.3565 8.54602 17.2959 8.49266C17.249 8.45147 17.2 8.33057 17.232 7.98749C17.334 6.90624 17.2497 5.94047 16.9754 5.03414C16.8025 4.46278 16.4711 4.24262 15.9014 4.31893C14.922 4.4513 13.8882 4.6404 12.964 5.12869C12.6516 5.29415 12.5924 5.24958 12.4324 4.95107C11.9717 4.09471 11.2965 3.30319 10.3675 2.53193C10.0075 2.23342 9.68423 2.23072 9.31943 2.52382C8.36865 3.28698 7.6901 4.07715 7.245 4.93891C7.16129 5.10033 7.08778 5.18947 7.01904 5.21041C6.94894 5.2327 6.8312 5.19893 6.65833 5.10843C5.72933 4.62217 4.68871 4.4486 3.78693 4.32366C3.1744 4.23856 2.83138 4.46886 2.6728 5.06993C2.38764 6.15051 2.30392 7.11628 2.41758 8.02261C2.45774 8.34611 2.40805 8.44809 2.37539 8.47983C2.3189 8.53454 2.15964 8.54331 1.90306 8.5055L1.89149 8.50414C1.46272 8.44134 0.814116 8.34611 0.587479 9.166C0.0852049 10.9854 -0.0046328 12.6941 0.319328 14.2467C0.624912 15.7082 1.30754 17.0772 2.34952 18.3232C2.12833 18.2239 1.88196 18.174 1.62674 18.18C0.710666 18.2017 0.0117013 18.8871 0.000131322 19.7739C-0.00531339 20.2331 0.158709 20.6539 0.462251 20.9585C0.762391 21.259 1.17619 21.4251 1.62878 21.4251H1.63218C2.11268 21.4245 2.54077 21.2597 2.83887 20.9612C3.13356 20.666 3.28738 20.2669 3.28397 19.8063C3.28193 19.5584 3.23021 19.3221 3.13424 19.1093C3.4514 19.3221 3.80054 19.4214 4.21774 19.4214C4.23612 19.4214 4.25381 19.4214 4.27219 19.4214C5.59049 19.395 6.93261 19.3997 8.23117 19.4045C8.74298 19.4065 9.25546 19.4078 9.76726 19.4078H9.77475C10.2893 19.4078 10.8038 19.4072 11.3183 19.4065C12.6856 19.4045 14.0999 19.4024 15.4897 19.4153C16.0416 19.42 16.4479 19.2572 16.8093 18.8858C19.2601 16.3707 20.0333 13.2938 19.1737 9.48004C18.9872 8.65205 18.5121 8.3326 17.722 8.50414L17.7233 8.50347ZM1.32047 9.59553C1.38717 9.35915 1.48518 9.2646 1.68527 9.2646C1.7227 9.2646 1.76354 9.26798 1.80914 9.27406C3.35748 9.49152 4.50359 9.82718 5.52447 10.3614C5.80692 10.5093 5.87838 10.6092 5.77493 10.9442C4.97728 13.5173 5.25019 15.9912 6.58755 18.2969C6.70597 18.5008 6.73115 18.5913 6.73524 18.6271C6.70325 18.6379 6.61818 18.6541 6.41468 18.64C6.16082 18.6217 5.90288 18.6258 5.6041 18.6298C5.45301 18.6319 5.28763 18.6346 5.10183 18.6346C5.08005 18.6346 5.05895 18.6379 5.03853 18.6447C3.97749 18.9878 3.30371 18.3766 2.49925 17.2035C0.935941 14.9248 0.539838 12.3652 1.32183 9.59553H1.32047ZM9.57057 3.38761C9.80061 3.1904 9.8639 3.18027 10.0218 3.3167C11.6185 4.69376 12.4406 6.29909 12.5325 8.22184C11.8417 7.40871 11.2877 6.82114 10.7174 6.29504C10.4097 6.01139 10.1246 5.86956 9.83804 5.86956C9.55151 5.86956 9.27383 6.00666 8.96961 6.28153C8.35096 6.8387 7.76701 7.45463 7.19123 8.15768C7.12045 7.84432 7.18307 7.54446 7.2484 7.23109L7.26269 7.16355C7.56283 5.7122 8.33939 4.44185 9.57125 3.38761H9.57057ZM15.8442 5.17597C16.1253 5.16313 16.19 5.22797 16.241 5.4299C16.469 6.32813 16.5323 7.2446 16.4343 8.2313C16.3989 8.58451 16.2363 8.76146 15.8728 8.84317C15.229 8.9877 14.577 9.23286 13.7589 9.63807C13.5091 9.76167 13.4309 9.7306 13.4179 9.7225C13.4043 9.71439 13.3342 9.65969 13.3172 9.3632C13.307 9.17748 13.3097 8.985 13.3124 8.81549C13.3138 8.74592 13.3145 8.67974 13.3145 8.61693C13.4268 7.77948 13.2335 7.0278 13.0436 6.38824C12.9565 6.09581 12.9817 6.02422 13.2117 5.91008C14.1251 5.45624 14.986 5.21581 15.8442 5.17461V5.17597ZM6.61614 6.44362C6.37657 7.19259 6.27516 7.97128 6.31532 8.75673C6.31532 8.76146 6.31532 8.76618 6.31668 8.77091C6.32416 8.83102 6.33301 8.89045 6.34254 8.95056C6.3616 9.07077 6.37929 9.18423 6.37793 9.29229C6.37589 9.50503 6.33233 9.65766 6.26087 9.70021C6.19145 9.74141 6.04036 9.70899 5.85796 9.61309C5.1134 9.22408 4.31098 8.97487 3.61814 8.77226C3.40988 8.71148 3.34182 8.63854 3.28874 8.41837C3.05734 7.45531 3.20298 6.52736 3.40171 5.50081C3.45004 5.25363 3.53715 5.16313 3.75426 5.16313C3.78557 5.16313 3.82028 5.16516 3.85703 5.16854C4.71321 5.25161 5.53808 5.47988 6.37929 5.86618C6.66786 5.99856 6.71822 6.12282 6.61614 6.44362ZM8.99275 18.6562C8.08893 18.821 7.53901 18.4867 7.03061 17.4642C5.22365 13.8307 6.3228 9.2673 9.58827 6.84951C9.6924 6.77184 9.76862 6.73672 9.83872 6.73672C9.91291 6.73672 9.98029 6.7759 10.0688 6.84748C13.7188 9.77382 14.5749 14.4784 12.1514 18.2874C11.9771 18.5609 11.7893 18.6622 11.4783 18.6447C11.0822 18.6238 10.682 18.6285 10.2947 18.6332C10.1287 18.6352 9.96191 18.6373 9.79585 18.6373C9.77543 18.6373 9.75569 18.64 9.73732 18.646C9.68083 18.6447 9.62298 18.642 9.5624 18.6393C9.37728 18.6305 9.18604 18.6217 8.99343 18.6568L8.99275 18.6562ZM14.7641 18.6143C14.6621 18.6143 14.56 18.6217 14.4613 18.6433C14.2986 18.6433 14.1469 18.6433 14.0026 18.644C13.6779 18.6447 13.3975 18.646 13.1144 18.642C13.0055 18.6406 12.949 18.6305 12.9218 18.6224C12.9279 18.5947 12.947 18.5407 13.0001 18.4482C14.4341 15.9547 14.7226 13.3965 13.8569 10.8443C13.778 10.6113 13.8283 10.541 14.0414 10.4208C15.0799 9.83528 16.2819 9.48139 17.9364 9.27271C18.1283 9.24839 18.229 9.28284 18.3243 9.55095C19.3663 12.4867 18.4298 16.2857 16.1471 18.3867C15.8225 18.6852 15.4645 18.6589 15.0847 18.6305C14.9785 18.6224 14.8703 18.615 14.7635 18.615L14.7641 18.6143ZM1.61585 18.9695C1.62197 18.9695 1.62878 18.9695 1.63491 18.9695C1.83704 18.9695 2.0487 19.0627 2.21953 19.2282C2.39308 19.3964 2.49245 19.6078 2.49177 19.809C2.48973 20.2325 2.10519 20.6201 1.66894 20.6384C1.45863 20.6465 1.24016 20.5614 1.07206 20.4013C0.901231 20.2392 0.802546 20.0217 0.802546 19.8063C0.801865 19.3964 1.20477 18.9817 1.61653 18.9695H1.61585Z" fill="#797979"/>
<path d="M19.5616 0.630787C19.1696 0.230973 18.6347 0.00742897 18.0555 0C18.0453 0 18.0351 0 18.0248 0C16.8005 0 15.9007 0.872566 15.881 2.08551C15.8606 3.31062 16.7419 4.22101 17.9758 4.25005C17.9942 4.25005 18.0133 4.25005 18.0317 4.25005C18.5993 4.25005 19.1267 4.04406 19.5215 3.66721C19.9278 3.27955 20.1558 2.74602 20.1646 2.16588C20.1728 1.58034 19.9591 1.03465 19.5623 0.630787H19.5616ZM17.1122 1.15217C17.3728 0.90836 17.7138 0.774639 18.0453 0.784769C18.7476 0.807732 19.3976 1.47431 19.3833 2.1571C19.369 2.84057 18.7136 3.45447 18.0031 3.45447C17.9969 3.45447 17.9901 3.45447 17.984 3.45447C17.641 3.44907 17.3014 3.29846 17.053 3.04115C16.8032 2.78249 16.665 2.43805 16.6746 2.09564C16.6834 1.74851 16.8433 1.40475 17.1129 1.15284L17.1122 1.15217Z" fill="#797979"/>
<path d="M10.0749 9.35983C11.0059 10.2074 11.5722 11.1421 11.8049 12.2173C11.8655 12.4962 11.9152 12.7799 11.9683 13.0811C11.9941 13.2263 12.0207 13.3762 12.0493 13.5329C12.0608 13.5957 12.101 13.649 12.1582 13.6774C12.1868 13.6916 12.2187 13.699 12.25 13.699C12.2814 13.699 12.312 13.6923 12.3406 13.6781C12.719 13.4924 12.7571 13.2492 12.7421 13.0135C12.6237 11.184 11.7913 9.65226 10.2682 8.46092C9.8292 8.11716 9.46916 8.40419 9.27588 8.55885C8.22709 9.3963 7.51383 10.4282 7.1572 11.6277C7.04763 11.9944 7.00339 12.3773 6.96051 12.7481C6.94758 12.8609 6.93465 12.973 6.91968 13.0851C6.90743 13.179 6.90334 13.3559 7.01632 13.491C7.08642 13.5741 7.18443 13.6214 7.30013 13.6274C7.63634 13.643 7.69691 13.3316 7.71937 13.2134C7.72209 13.1993 7.72481 13.1844 7.72754 13.1709C7.74591 13.0844 7.75136 13.002 7.75612 12.9224L7.75953 12.8677C7.84868 11.5905 8.43058 10.4566 9.5379 9.40102C9.77611 9.17343 9.86186 9.16735 10.0742 9.36118L10.0749 9.35983Z" fill="#797979"/>
</svg>
