<svg width="18" height="20" viewBox="0 0 18 20" fill="none" xmlns="http://www.w3.org/2000/svg">
<path d="M14.5 19.1668C13.7361 19.1668 13.0868 18.8995 12.5521 18.3647C12.0174 17.83 11.75 17.1807 11.75 16.4168C11.75 16.3099 11.7576 16.199 11.7729 16.0841C11.7882 15.9692 11.8111 15.8662 11.8417 15.7752L5.37917 12.0168C5.11944 12.246 4.82917 12.4257 4.50833 12.5558C4.1875 12.686 3.85139 12.7508 3.5 12.7502C2.73611 12.7502 2.08681 12.4828 1.55208 11.9481C1.01736 11.4134 0.75 10.7641 0.75 10.0002C0.75 9.23627 1.01736 8.58697 1.55208 8.05225C2.08681 7.51752 2.73611 7.25016 3.5 7.25016C3.85139 7.25016 4.1875 7.31525 4.50833 7.44541C4.82917 7.57558 5.11944 7.75494 5.37917 7.9835L11.8417 4.22516C11.8111 4.1335 11.7882 4.03052 11.7729 3.91625C11.7576 3.80197 11.75 3.69105 11.75 3.5835C11.75 2.81961 12.0174 2.1703 12.5521 1.63558C13.0868 1.10086 13.7361 0.833496 14.5 0.833496C15.2639 0.833496 15.9132 1.10086 16.4479 1.63558C16.9826 2.1703 17.25 2.81961 17.25 3.5835C17.25 4.34738 16.9826 4.99669 16.4479 5.53141C15.9132 6.06613 15.2639 6.3335 14.5 6.3335C14.1486 6.3335 13.8125 6.26872 13.4917 6.13916C13.1708 6.00961 12.8806 5.82994 12.6208 5.60016L6.15833 9.3585C6.18889 9.45016 6.21181 9.55344 6.22708 9.66833C6.24236 9.78322 6.25 9.89383 6.25 10.0002C6.25 10.1071 6.24236 10.218 6.22708 10.3329C6.21181 10.4478 6.18889 10.5508 6.15833 10.6418L12.6208 14.4002C12.8806 14.171 13.1708 13.9916 13.4917 13.8621C13.8125 13.7325 14.1486 13.6674 14.5 13.6668C15.2639 13.6668 15.9132 13.9342 16.4479 14.4689C16.9826 15.0036 17.25 15.6529 17.25 16.4168C17.25 17.1807 16.9826 17.83 16.4479 18.3647C15.9132 18.8995 15.2639 19.1668 14.5 19.1668Z" fill="white"/>
</svg>
