<svg width="13" height="13" viewBox="0 0 13 13" fill="none" xmlns="http://www.w3.org/2000/svg">
<path d="M8.26234 4.89995L7.00234 3.63995L5.74234 4.89995L4.90234 4.05995L6.16234 2.79995L4.90234 1.53995L5.74234 0.699951L7.00234 1.95995L8.26234 0.699951L9.10234 1.53995L7.84234 2.79995L9.10234 4.05995L8.26234 4.89995ZM4.00234 10.6C4.66234 10.6 5.20234 11.14 5.20234 11.8C5.20234 12.46 4.66234 13 4.00234 13C3.34234 13 2.80234 12.46 2.80234 11.8C2.80234 11.14 3.34234 10.6 4.00234 10.6ZM10.0023 10.6C10.6623 10.6 11.2023 11.14 11.2023 11.8C11.2023 12.46 10.6623 13 10.0023 13C9.34234 13 8.80234 12.46 8.80234 11.8C8.80234 11.14 9.34234 10.6 10.0023 10.6ZM4.12234 8.67995C4.12234 8.73995 4.18234 8.79995 4.24234 8.79995H11.2023V9.99995H4.00234C3.34234 9.99995 2.80234 9.45995 2.80234 8.79995C2.80234 8.55995 2.86234 8.37995 2.92234 8.19995L3.70234 6.75995L1.60234 2.19995H0.402344V0.999951H2.38234L4.96234 6.39995H9.16234L11.5023 2.19995L12.5223 2.79995L10.1823 6.99995C10.0023 7.35995 9.58234 7.59995 9.16234 7.59995H4.66234L4.12234 8.55995V8.67995Z" fill="white"/>
</svg>
