<svg width="58" height="58" viewBox="0 0 58 58" fill="none" xmlns="http://www.w3.org/2000/svg">
<g clip-path="url(#clip0_3278_2064)">
<path d="M46.5 6.79688C45.1189 6.79688 44 7.93762 44 9.3457V25.6016C44 26.5395 43.2533 27.3008 42.3333 27.3008C41.4133 27.3008 40.6667 26.5395 40.6667 25.6016V5.94727C40.6667 4.53918 39.5478 3.39844 38.1667 3.39844C36.7856 3.39844 35.6667 4.53918 35.6667 5.94727V25.6016C35.6667 26.5395 34.92 27.3008 34 27.3008C33.08 27.3008 32.3333 26.5395 32.3333 25.6016V2.54883C32.3333 1.14074 31.2144 0 29.8333 0C28.4522 0 27.3333 1.14074 27.3333 2.54883V25.6016C27.3333 26.5395 26.5867 27.3008 25.6667 27.3008C24.7467 27.3008 24 26.5395 24 25.6016V5.94727C24 4.53918 22.8811 3.39844 21.5 3.39844C20.1189 3.39844 19 4.53918 19 5.94727V32.3984C19 33.3364 18.2533 34.0977 17.3333 34.0977C16.4133 34.0977 15.6667 33.3364 15.6667 32.3984V25.6016C15.6667 22.7865 13.4278 20.5039 10.6667 20.5039C9.74667 20.5039 9 21.2652 9 22.2031V34.9948C9 39.9702 14.8622 44.4765 19 46.997V56.3008C19 57.2399 19.7456 58 20.6667 58H34H44C44.9211 58 45.6667 57.2399 45.6667 56.3008V46.6673C47.7922 44.2431 49 41.0475 49 37.7884V9.3457C49 7.93762 47.8811 6.79688 46.5 6.79688Z" fill="#FFCEBF"/>
<path d="M45.6667 56.3008V46.6673C47.7922 44.2431 49 41.0475 49 37.7884V9.3457C49 7.93762 47.8811 6.79688 46.5 6.79688C45.1189 6.79688 44 7.93762 44 9.3457V25.6016C44 26.5395 43.2533 27.3008 42.3333 27.3008C41.4133 27.3008 40.6667 26.5395 40.6667 25.6016V5.94727C40.6667 4.53918 39.5478 3.39844 38.1667 3.39844C36.7856 3.39844 35.6667 4.53918 35.6667 5.94727V25.6016C35.6667 26.5395 34.92 27.3008 34 27.3008V58H44C44.9211 58 45.6667 57.2399 45.6667 56.3008Z" fill="#FFBFAB"/>
<path d="M25.6667 34.0977C26.5871 34.0977 27.3333 33.3369 27.3333 32.3984C27.3333 31.46 26.5871 30.6992 25.6667 30.6992C24.7462 30.6992 24 31.46 24 32.3984C24 33.3369 24.7462 34.0977 25.6667 34.0977Z" fill="#FE8598"/>
<path d="M30.6667 40.8945C31.5871 40.8945 32.3333 40.1338 32.3333 39.1953C32.3333 38.2569 31.5871 37.4961 30.6667 37.4961C29.7462 37.4961 29 38.2569 29 39.1953C29 40.1338 29.7462 40.8945 30.6667 40.8945Z" fill="#FE8598"/>
<path d="M37.3337 40.8945C38.2541 40.8945 39.0003 40.1338 39.0003 39.1953C39.0003 38.2569 38.2541 37.4961 37.3337 37.4961C36.4132 37.4961 35.667 38.2569 35.667 39.1953C35.667 40.1338 36.4132 40.8945 37.3337 40.8945Z" fill="#FE5570"/>
<path d="M42.3337 34.0977C43.2541 34.0977 44.0003 33.3369 44.0003 32.3984C44.0003 31.46 43.2541 30.6992 42.3337 30.6992C41.4132 30.6992 40.667 31.46 40.667 32.3984C40.667 33.3369 41.4132 34.0977 42.3337 34.0977Z" fill="#FE5570"/>
<path d="M33.9997 34.0977C34.9201 34.0977 35.6663 33.3369 35.6663 32.3984C35.6663 31.46 34.9201 30.6992 33.9997 30.6992C33.0792 30.6992 32.333 31.46 32.333 32.3984C32.333 33.3369 33.0792 34.0977 33.9997 34.0977Z" fill="#FE8598"/>
<path d="M33.9997 47.6914C34.9201 47.6914 35.6663 46.9306 35.6663 45.9922C35.6663 45.0537 34.9201 44.293 33.9997 44.293C33.0792 44.293 32.333 45.0537 32.333 45.9922C32.333 46.9306 33.0792 47.6914 33.9997 47.6914Z" fill="#FE8598"/>
<path d="M35.6667 32.3984C35.6667 31.4605 34.92 30.6992 34 30.6992V34.0977C34.92 34.0977 35.6667 33.3364 35.6667 32.3984Z" fill="#FE5570"/>
<path d="M35.6667 45.9922C35.6667 45.0542 34.92 44.293 34 44.293V47.6914C34.92 47.6914 35.6667 46.9302 35.6667 45.9922Z" fill="#FE5570"/>
</g>
<defs>
<clipPath id="clip0_3278_2064">
<rect width="40" height="58" fill="white" transform="translate(9)"/>
</clipPath>
</defs>
</svg>
