<svg width="17" height="17" viewBox="0 0 17 17" fill="none" xmlns="http://www.w3.org/2000/svg">
<g clip-path="url(#clip0_2601_2693)">
<path d="M13.3125 1.875C12.9327 1.875 12.625 2.18969 12.625 2.57812V7.0625C12.625 7.32125 12.4197 7.53125 12.1667 7.53125C11.9137 7.53125 11.7083 7.32125 11.7083 7.0625V1.64062C11.7083 1.25219 11.4006 0.9375 11.0208 0.9375C10.641 0.9375 10.3333 1.25219 10.3333 1.64062V7.0625C10.3333 7.32125 10.128 7.53125 9.875 7.53125C9.622 7.53125 9.41667 7.32125 9.41667 7.0625V0.703125C9.41667 0.314687 9.10897 0 8.72917 0C8.34936 0 8.04167 0.314687 8.04167 0.703125V7.0625C8.04167 7.32125 7.83633 7.53125 7.58333 7.53125C7.33033 7.53125 7.125 7.32125 7.125 7.0625V1.64062C7.125 1.25219 6.81731 0.9375 6.4375 0.9375C6.05769 0.9375 5.75 1.25219 5.75 1.64062V8.9375C5.75 9.19625 5.54467 9.40625 5.29167 9.40625C5.03867 9.40625 4.83333 9.19625 4.83333 8.9375V7.0625C4.83333 6.28594 4.21764 5.65625 3.45833 5.65625C3.20533 5.65625 3 5.86625 3 6.125V9.65375C3 11.0263 4.61211 12.2694 5.75 12.9647V15.5312C5.75 15.7903 5.95503 16 6.20833 16H9.875H12.625C12.8783 16 13.0833 15.7903 13.0833 15.5312V12.8737C13.6679 12.205 14 11.3234 14 10.4244V2.57812C14 2.18969 13.6923 1.875 13.3125 1.875Z" fill="#FFCEBF"/>
<path d="M13.0833 15.5312V12.8737C13.6679 12.205 14 11.3234 14 10.4244V2.57812C14 2.18969 13.6923 1.875 13.3125 1.875C12.9327 1.875 12.625 2.18969 12.625 2.57812V7.0625C12.625 7.32125 12.4197 7.53125 12.1667 7.53125C11.9137 7.53125 11.7083 7.32125 11.7083 7.0625V1.64062C11.7083 1.25219 11.4006 0.9375 11.0208 0.9375C10.641 0.9375 10.3333 1.25219 10.3333 1.64062V7.0625C10.3333 7.32125 10.128 7.53125 9.875 7.53125V16H12.625C12.8783 16 13.0833 15.7903 13.0833 15.5312Z" fill="#FFBFAB"/>
<path d="M7.58333 9.40625C7.83646 9.40625 8.04167 9.19638 8.04167 8.9375C8.04167 8.67862 7.83646 8.46875 7.58333 8.46875C7.3302 8.46875 7.125 8.67862 7.125 8.9375C7.125 9.19638 7.3302 9.40625 7.58333 9.40625Z" fill="#FE8598"/>
<path d="M8.95833 11.2812C9.21146 11.2812 9.41667 11.0714 9.41667 10.8125C9.41667 10.5536 9.21146 10.3438 8.95833 10.3438C8.7052 10.3438 8.5 10.5536 8.5 10.8125C8.5 11.0714 8.7052 11.2812 8.95833 11.2812Z" fill="#FE8598"/>
<path d="M10.7918 11.2812C11.045 11.2812 11.2502 11.0714 11.2502 10.8125C11.2502 10.5536 11.045 10.3438 10.7918 10.3438C10.5387 10.3438 10.3335 10.5536 10.3335 10.8125C10.3335 11.0714 10.5387 11.2812 10.7918 11.2812Z" fill="#FE5570"/>
<path d="M12.1668 9.40625C12.42 9.40625 12.6252 9.19638 12.6252 8.9375C12.6252 8.67862 12.42 8.46875 12.1668 8.46875C11.9137 8.46875 11.7085 8.67862 11.7085 8.9375C11.7085 9.19638 11.9137 9.40625 12.1668 9.40625Z" fill="#FE5570"/>
<path d="M9.87484 9.40625C10.128 9.40625 10.3332 9.19638 10.3332 8.9375C10.3332 8.67862 10.128 8.46875 9.87484 8.46875C9.62171 8.46875 9.4165 8.67862 9.4165 8.9375C9.4165 9.19638 9.62171 9.40625 9.87484 9.40625Z" fill="#FE8598"/>
<path d="M9.87484 13.1562C10.128 13.1562 10.3332 12.9464 10.3332 12.6875C10.3332 12.4286 10.128 12.2188 9.87484 12.2188C9.62171 12.2188 9.4165 12.4286 9.4165 12.6875C9.4165 12.9464 9.62171 13.1562 9.87484 13.1562Z" fill="#FE8598"/>
<path d="M10.3333 8.9375C10.3333 8.67875 10.128 8.46875 9.875 8.46875V9.40625C10.128 9.40625 10.3333 9.19625 10.3333 8.9375Z" fill="#FE5570"/>
<path d="M10.3333 12.6875C10.3333 12.4288 10.128 12.2188 9.875 12.2188V13.1562C10.128 13.1562 10.3333 12.9462 10.3333 12.6875Z" fill="#FE5570"/>
</g>
<defs>
<clipPath id="clip0_2601_2693">
<rect width="11" height="16" fill="white" transform="translate(3)"/>
</clipPath>
</defs>
</svg>
