<svg width="58" height="58" viewBox="0 0 58 58" fill="none" xmlns="http://www.w3.org/2000/svg">
<g clip-path="url(#clip0_2558_2726)">
<path d="M57.1169 12.172C57.1169 18.8561 51.7376 24.273 45.1025 24.273C39.2411 24.273 34.3602 20.0441 33.3033 14.4501C33.1622 13.7129 33.0894 12.9512 33.0894 12.172C33.0894 5.48916 38.4686 0.0722656 45.1025 0.0722656C50.3685 0.0722656 54.8435 3.48476 56.4659 8.23313C56.8879 9.46884 57.1169 10.7931 57.1169 12.172Z" fill="#FFB09E"/>
<path d="M56.4657 8.23313C54.8433 3.48476 50.3695 0.0722656 45.1024 0.0722656C44.6445 0.0722656 44.1923 0.0990531 43.7483 0.149134C48.4199 0.674401 52.2832 3.89589 53.7645 8.23313C54.1865 9.46768 54.4155 10.7931 54.4155 12.172C54.4155 18.3926 49.7566 23.5148 43.761 24.1961C44.2016 24.245 44.6491 24.2742 45.1024 24.2742C51.7386 24.2742 57.1167 18.8561 57.1167 12.1732C57.1167 10.7931 56.8877 9.46884 56.4657 8.23313Z" fill="#FFA78F"/>
<path d="M49.1531 50.1369L48.5564 51.1525L44.4225 58.1918C44.0872 58.7636 43.3691 58.9767 42.7782 58.6798L7.48449 40.8952C3.51016 38.8931 0.999756 34.8016 0.999756 30.3246V1.63176C0.999756 0.769904 1.69356 0.0722656 2.54809 0.0722656H17.9436C18.7992 0.0722656 19.4919 0.771069 19.4919 1.63176V8.02349C19.4919 10.7616 19.3265 13.4986 18.9958 16.2158L17.6232 27.4956C17.6163 27.5562 17.6128 27.6156 17.6128 27.675C17.6128 28.34 18.0638 28.9328 18.7195 29.0959L42.4845 43.9769L48.7958 48.4586C49.3323 48.8394 49.4861 49.5697 49.1531 50.1369Z" fill="#FFCEBF"/>
<path d="M49.1532 50.1369L48.5566 51.1525C48.5739 51.0558 48.582 50.9591 48.582 50.8636C48.582 50.3314 48.3218 49.8259 47.8755 49.5208L39.7823 43.9769L23.9705 32.7495C21.5688 31.0432 18.8723 29.804 16.0173 29.0971C15.3616 28.934 14.9106 28.3412 14.9106 27.6762C14.9106 27.6168 14.9141 27.5574 14.9211 27.4968L16.2936 16.217C16.6243 13.4998 16.7897 10.7628 16.7897 8.02465V2.12675C16.7897 1.12396 16.082 0.260943 15.1038 0.0722656H17.9426C18.7982 0.0722656 19.4909 0.771069 19.4909 1.63176V8.02349C19.4909 10.7616 19.3255 13.4986 18.9948 16.2158L17.6223 27.4956C17.6153 27.5562 17.6118 27.6156 17.6118 27.675C17.6118 28.34 18.0628 28.9328 18.7185 29.0959L42.4846 43.9769L48.7959 48.4586C49.3325 48.8394 49.4863 49.5697 49.1532 50.1369Z" fill="#FFA78F"/>
<path d="M57.1167 12.1534C57.126 18.6872 51.9167 24.0925 45.432 24.2683C39.4236 24.4302 34.3797 20.1489 33.302 14.4501L38.7657 12.1138C39.5485 11.7796 40.2065 11.2042 40.6459 10.4716L41.4507 9.12992C42.5712 7.26179 44.9544 6.61656 46.8543 7.66593L49.4248 9.08566C50.373 9.60977 51.4889 9.72856 52.5249 9.4176L56.4646 8.23312C56.8855 9.46302 57.1144 10.7814 57.1167 12.1534Z" fill="#FFEEE6"/>
<path d="M56.4657 8.23291L53.9888 8.97714C54.2652 9.99506 54.4143 11.0654 54.4143 12.1718C54.4143 18.3958 49.7497 23.5216 43.7483 24.1971C44.2987 24.2588 44.8607 24.2844 45.4308 24.2693C51.9143 24.0946 57.1248 18.6882 57.1155 12.1544C57.1144 10.7812 56.8854 9.4628 56.4657 8.23291Z" fill="#FFDFCF"/>
<path d="M43.368 19.7201H41.904C41.2114 19.7201 40.6494 19.154 40.6494 18.4564V16.9819C40.6494 16.2843 41.2114 15.7183 41.904 15.7183H43.368C44.0606 15.7183 44.6226 16.2843 44.6226 16.9819V18.4564C44.6226 19.1552 44.0606 19.7201 43.368 19.7201Z" fill="#FD8087"/>
<path d="M52.4624 17.0148H50.9985C50.3059 17.0148 49.7439 16.4487 49.7439 15.7511V14.2766C49.7439 13.579 50.3059 13.0129 50.9985 13.0129H52.4624C53.1551 13.0129 53.7171 13.579 53.7171 14.2766V15.7511C53.7182 16.4487 53.1562 17.0148 52.4624 17.0148Z" fill="#FE99A0"/>
<path d="M42.4844 43.977C41.3477 44.819 39.8676 45.7904 38.687 46.5439C37.4601 47.3254 35.9095 47.3755 34.6352 46.6755C33.8685 46.2551 33.0256 45.9965 32.1572 45.915L28.7633 45.5994C27.0034 45.4351 25.4782 44.3042 24.8017 42.6597L24.7497 42.5351C24.212 41.2295 23.2649 40.1382 22.0519 39.4278L20.5418 38.5426C17.9493 37.0239 16.8519 33.8234 17.9608 31.0165L18.7194 29.0959C21.5732 29.8041 24.271 31.0421 26.6727 32.7484L42.4844 43.977Z" fill="#FFEEE6"/>
<path d="M23.9715 32.7493L39.7832 43.9768L41.1326 44.9353C41.6079 44.6104 42.0693 44.2854 42.4844 43.9768L26.6727 32.7493C24.2709 31.0431 21.5744 29.8039 18.7194 29.0969L18.428 29.8353C20.3926 30.5539 22.2578 31.5323 23.9715 32.7493Z" fill="#FFDFCF"/>
<path d="M24.2779 35.9849C24.0512 35.9849 23.8246 35.8975 23.6512 35.724C23.3054 35.3757 23.3054 34.8109 23.6512 34.4615L37.0011 21.0153C37.3468 20.6671 37.9076 20.6671 38.2545 21.0153C38.6003 21.3636 38.6003 21.9284 38.2545 22.2778L24.9046 35.7228C24.7323 35.8975 24.5045 35.9849 24.2779 35.9849Z" fill="#B3DAFE"/>
<path d="M8.23721 36.5429C8.08227 36.5429 7.92616 36.5021 7.78393 36.4171C5.83666 35.2477 4.62598 33.1024 4.62598 30.8185V30.5564C4.62598 30.0638 5.0226 29.6643 5.51173 29.6643C6.00086 29.6643 6.39748 30.0638 6.39748 30.5564V30.8185C6.39748 32.477 7.2763 34.0342 8.6905 34.8844C9.11141 35.1371 9.24901 35.6845 8.99808 36.1073C8.83273 36.3868 8.53902 36.5429 8.23721 36.5429Z" fill="#FFA78F"/>
<path d="M30.0076 42.494C30.4897 42.494 30.8806 42.1003 30.8806 41.6147C30.8806 41.129 30.4897 40.7354 30.0076 40.7354C29.5254 40.7354 29.1345 41.129 29.1345 41.6147C29.1345 42.1003 29.5254 42.494 30.0076 42.494Z" fill="#FD8087"/>
<path d="M36.1767 44.0035C36.6589 44.0035 37.0498 43.6098 37.0498 43.1242C37.0498 42.6386 36.6589 42.2449 36.1767 42.2449C35.6946 42.2449 35.3037 42.6386 35.3037 43.1242C35.3037 43.6098 35.6946 44.0035 36.1767 44.0035Z" fill="#FD8087"/>
<path d="M26.4751 38.1312C26.9572 38.1312 27.3481 37.7375 27.3481 37.2519C27.3481 36.7662 26.9572 36.3726 26.4751 36.3726C25.9929 36.3726 25.6021 36.7662 25.6021 37.2519C25.6021 37.7375 25.9929 38.1312 26.4751 38.1312Z" fill="#FD8087"/>
<path d="M48.6418 20.7997C49.124 20.7997 49.5149 20.406 49.5149 19.9203C49.5149 19.4347 49.124 19.041 48.6418 19.041C48.1597 19.041 47.7688 19.4347 47.7688 19.9203C47.7688 20.406 48.1597 20.7997 48.6418 20.7997Z" fill="#FE99A0"/>
<path d="M45.1035 12.172C45.5857 12.172 45.9765 11.7783 45.9765 11.2927C45.9765 10.807 45.5857 10.4133 45.1035 10.4133C44.6213 10.4133 44.2305 10.807 44.2305 11.2927C44.2305 11.7783 44.6213 12.172 45.1035 12.172Z" fill="#FE99A0"/>
<path d="M57.7828 14.5629C58.1737 12.3512 58.0673 10.0254 57.2151 7.69952C56.0437 4.48037 53.6894 1.93439 50.7488 0.492528C47.414 -1.14267 43.1251 -1.35814 39.4561 0.492528C36.5166 1.93439 34.1623 4.48037 32.9898 7.69952C32.2382 9.76099 31.9607 12.2534 32.4348 14.6328C33.5796 20.6239 38.8235 25.1649 45.1001 25.1661H45.1013C45.1013 25.1661 45.1013 25.1661 45.1024 25.1661C51.3802 25.1649 56.623 20.6251 57.7678 14.6328C57.777 14.6014 57.7724 14.6247 57.7828 14.5629ZM45.1036 23.3807C39.6723 23.3807 35.1371 19.4394 34.1681 14.2485C33.8999 12.5993 33.8501 11.1295 34.404 9.09247C35.2782 6.01541 37.429 3.47525 40.2401 2.09395C43.0604 0.712651 46.7444 0.477387 49.9683 2.09395C52.7794 3.47525 54.9302 6.01541 55.8043 9.09247C56.0934 9.94035 56.4554 12.4048 56.0402 14.2485C55.0689 19.4394 50.5349 23.3795 45.1036 23.3807Z" fill="#8AC9FE"/>
</g>
<defs>
<clipPath id="clip0_2558_2726">
<rect width="58" height="58" fill="white"/>
</clipPath>
</defs>
</svg>
