<svg width="58" height="58" viewBox="0 0 58 58" fill="none" xmlns="http://www.w3.org/2000/svg">
<g clip-path="url(#clip0_2558_2599)">
<g clip-path="url(#clip1_2558_2599)">
<path d="M58.9697 48.1753C58.7669 49.176 57.8749 49.8874 56.8539 49.8639H55.9489C56.5491 49.8639 57.1176 50.1288 57.5044 50.5881C57.8913 51.0475 58.0554 51.6533 57.9534 52.244C57.7506 53.2447 56.8585 53.956 55.8375 53.9326H54.9326C55.5328 53.9326 56.1013 54.1974 56.4881 54.6568C56.875 55.1162 57.0391 55.722 56.9371 56.3126C56.7343 57.3134 55.8422 58.0247 54.8212 58.0013H45.6862C45.0825 57.9966 44.494 57.8208 43.9876 57.4927L42.4825 56.4755C41.9761 56.1474 41.3865 55.9716 40.7839 55.9669H12.2077C6.58922 55.9669 2.03516 51.4143 2.03516 45.7976V38.6786H18.3102V41.7289C18.3137 42.8504 19.2222 43.7597 20.3452 43.7633H40.2729C41.1802 43.7633 42.0406 43.3613 42.6232 42.6652L45.8784 38.7606C46.4598 38.0645 47.3214 37.6626 48.2287 37.6626H51.8801C53.002 37.6661 53.9116 38.5743 53.9151 39.6969V41.7313H56.9664C58.0905 41.7313 59.0014 42.6418 59.0014 43.7656C59.0014 44.8894 58.0905 45.7999 56.9664 45.7999C57.5666 45.7999 58.1351 46.0648 58.5219 46.5241C58.9076 46.9788 59.0717 47.5847 58.9697 48.1753Z" fill="#FDD7AD"/>
<path d="M34.5861 40.7106C31.2172 40.707 28.4859 37.9778 28.4824 34.6087V14.2712C28.4824 13.7099 28.0264 13.2541 27.4649 13.2541C26.9034 13.2541 26.4474 13.7099 26.4474 14.2712V22.4062C26.4474 24.6527 24.6258 26.4737 22.3787 26.4737H18.8374V24.4394H22.3787C23.5028 24.4394 24.4136 23.5289 24.4136 22.4051V14.2701C24.4136 12.5849 25.7804 11.2197 27.4649 11.2197C29.1494 11.2197 30.5162 12.5861 30.5162 14.2701V34.6087C30.5162 36.8552 32.3378 38.6762 34.585 38.6762C36.8321 38.6762 38.6537 36.8552 38.6537 34.6087V31.8209H40.6887V34.6087C40.6863 37.9778 37.9563 40.7082 34.5861 40.7106Z" fill="#7F8C8D"/>
<path d="M39.6725 13.2541C43.6054 13.2541 46.7937 10.0668 46.7937 6.13511C46.7937 2.2034 43.6054 -0.983887 39.6725 -0.983887C35.7395 -0.983887 32.5513 2.2034 32.5513 6.13511C32.5513 10.0668 35.7395 13.2541 39.6725 13.2541Z" fill="#ECF0F1"/>
<path d="M18.3102 7.15209V16.3043H2.03516V7.15209C2.03516 2.65921 5.6784 -0.98291 10.1727 -0.98291C14.667 -0.98291 18.3102 2.65921 18.3102 7.15209Z" fill="#FDD7AD"/>
<path d="M2.03497 15.2883H18.31C19.4342 15.2883 20.345 16.1989 20.345 17.3227V37.6613C20.345 38.7851 19.4342 39.6957 18.31 39.6957H2.03497C0.910812 39.6945 0 38.784 0 37.6602V17.3215C0 16.1989 0.910812 15.2883 2.03497 15.2883Z" fill="#3F5C6C"/>
<path d="M53.9139 39.6946V41.7289H49.8451C49.2836 41.7289 48.8276 41.2731 48.8276 40.7118C48.8276 40.1504 49.2836 39.6946 49.8451 39.6946H53.9139Z" fill="#CBB292"/>
<path d="M36.6214 13.2539H42.7251C43.8493 13.2539 44.7601 14.1644 44.7601 15.2882C44.7601 16.412 43.8493 17.3226 42.7251 17.3226H36.6214C35.4972 17.3226 34.5864 16.412 34.5864 15.2882C34.5864 14.1644 35.4972 13.2539 36.6214 13.2539Z" fill="#95A5A5"/>
<path d="M45.7764 25.4578C45.7764 25.8034 45.7565 26.1386 45.726 26.4749C45.6674 27.1897 45.5279 27.8964 45.3087 28.5796C45.1 29.2674 44.807 29.9272 44.4342 30.5424C43.5 32.3307 41.6889 33.4908 39.6738 33.5927C37.6588 33.4908 35.8477 32.3307 34.9135 30.5424C34.5407 29.9272 34.2465 29.2674 34.039 28.5796C33.8198 27.8964 33.6803 27.1897 33.6217 26.4749C33.5912 26.1398 33.5713 25.8034 33.5713 25.4578C33.5713 25.1121 33.5912 24.7769 33.6217 24.4406C33.692 23.6988 33.8386 22.9664 34.0589 22.2539C34.2711 21.5965 34.5583 20.9649 34.9135 20.3731C35.8477 18.5848 37.6588 17.4247 39.6738 17.3228C41.6889 17.4247 43.5 18.5848 44.4342 20.3731C44.7894 20.966 45.0766 21.5965 45.2888 22.2539C45.5091 22.9652 45.6557 23.6988 45.726 24.4406C45.7553 24.7757 45.7764 25.1109 45.7764 25.4578Z" fill="#393F4A"/>
<path d="M38.6551 21.389C38.6551 21.9504 38.1991 22.4062 37.6376 22.4062H34.5863C34.3987 22.4086 34.2147 22.3558 34.0576 22.2539C34.2698 21.5965 34.557 20.9648 34.9122 20.373H37.6387C38.2002 20.373 38.6551 20.8277 38.6551 21.389Z" fill="#464F5D"/>
<path d="M45.2874 22.2538C45.1303 22.3558 44.9463 22.4085 44.7587 22.4062H41.7074C41.1459 22.4062 40.6899 21.9503 40.6899 21.389C40.6899 20.8277 41.1459 20.3718 41.7074 20.3718H44.434C44.7892 20.9648 45.0752 21.5964 45.2874 22.2538Z" fill="#464F5D"/>
<path d="M38.6551 25.4576C38.6551 26.0189 38.1991 26.4748 37.6376 26.4748H33.6193C33.5888 26.1396 33.5688 25.8033 33.5688 25.4576C33.5688 25.1119 33.5888 24.7768 33.6193 24.4404H37.6376C38.2003 24.4404 38.6551 24.8951 38.6551 25.4576Z" fill="#464F5D"/>
<path d="M45.7762 25.4576C45.7762 25.8033 45.7563 26.1384 45.7258 26.4748H41.7074C41.1459 26.4748 40.6899 26.0189 40.6899 25.4576C40.6899 24.8963 41.1459 24.4404 41.7074 24.4404H45.7258C45.7551 24.7756 45.7762 25.1107 45.7762 25.4576Z" fill="#464F5D"/>
<path d="M38.6552 29.5253C38.6552 30.0866 38.1992 30.5424 37.6377 30.5424H34.9111C34.5383 29.9272 34.2441 29.2675 34.0366 28.5796C34.1492 28.5304 34.2699 28.5069 34.393 28.5081H37.6377C37.9073 28.5081 38.1663 28.6147 38.3574 28.8057C38.5485 28.9968 38.6552 29.2557 38.6552 29.5253Z" fill="#464F5D"/>
<path d="M45.3085 28.5795C45.0998 29.2673 44.8068 29.9271 44.434 30.5423H41.7074C41.1459 30.5423 40.6899 30.0864 40.6899 29.5251C40.6899 28.9638 41.1459 28.508 41.7074 28.508H44.9521C45.074 28.5056 45.1959 28.5302 45.3085 28.5795Z" fill="#464F5D"/>
<path d="M39.6723 2.0675C39.1108 2.0675 38.6548 1.61165 38.6548 1.05033V-0.982832C38.6548 -1.54415 39.1108 -2 39.6723 -2C40.2338 -2 40.6898 -1.54415 40.6898 -0.982832V1.0515C40.6898 1.61282 40.2338 2.0675 39.6723 2.0675Z" fill="#7F8C8D"/>
<path d="M36.0762 3.55701C35.8066 3.55701 35.5475 3.4492 35.3565 3.25936L34.3753 2.27852C33.9897 1.87892 33.9955 1.24495 34.3882 0.853552C34.7809 0.462154 35.4151 0.456294 35.8136 0.840662L36.7948 1.8215C37.0855 2.11212 37.1722 2.54922 37.0152 2.93007C36.8581 3.31093 36.4865 3.55701 36.0762 3.55701Z" fill="#7F8C8D"/>
<path d="M34.5861 7.15201H32.5512C31.9897 7.15201 31.5337 6.69616 31.5337 6.13484C31.5337 5.57353 31.9897 5.11768 32.5512 5.11768H34.5861C35.1476 5.11768 35.6036 5.57353 35.6036 6.13484C35.6036 6.69733 35.1476 7.15201 34.5861 7.15201Z" fill="#7F8C8D"/>
<path d="M35.095 11.728C34.6836 11.728 34.3132 11.4796 34.1549 11.0999C33.9978 10.7202 34.0846 10.2831 34.3753 9.99133L35.3564 9.01049C35.7562 8.62495 36.3903 8.63081 36.7819 9.02338C37.1745 9.41595 37.1792 10.0499 36.7948 10.4483L35.8136 11.4292C35.6237 11.6214 35.3646 11.728 35.095 11.728Z" fill="#7F8C8D"/>
<path d="M44.25 11.7283C43.9804 11.7283 43.7214 11.6205 43.5303 11.4307L42.5491 10.4499C42.1635 10.0503 42.1693 9.41628 42.562 9.02488C42.9547 8.63231 43.5889 8.62763 43.9875 9.01199L44.9686 9.99283C45.2593 10.2835 45.3461 10.7206 45.189 11.1014C45.0319 11.4811 44.6615 11.7283 44.25 11.7283Z" fill="#7F8C8D"/>
<path d="M46.7937 7.15201H44.7587C44.1972 7.15201 43.7412 6.69616 43.7412 6.13484C43.7412 5.57353 44.1972 5.11768 44.7587 5.11768H46.7937C47.3552 5.11768 47.8111 5.57353 47.8111 6.13484C47.81 6.69733 47.3552 7.15201 46.7937 7.15201Z" fill="#7F8C8D"/>
<path d="M43.2698 3.55703C42.8584 3.55703 42.488 3.3086 42.3297 2.92892C42.1726 2.54924 42.2594 2.11214 42.5501 1.82035L43.5312 0.839505C43.7868 0.574667 44.1654 0.4692 44.5206 0.561777C44.8758 0.654353 45.1536 0.932082 45.2474 1.28832C45.34 1.6434 45.2345 2.0219 44.9696 2.27737L43.9884 3.25821C43.7973 3.44922 43.5395 3.55703 43.2698 3.55703Z" fill="#7F8C8D"/>
<path d="M39.6727 7.15195C39.2612 7.15195 38.8908 6.90352 38.7326 6.52384C38.5755 6.14416 38.6622 5.70706 38.9529 5.41527L39.9704 4.3981C40.226 4.13326 40.6046 4.02779 40.9598 4.12037C41.3149 4.21295 41.5928 4.49068 41.6865 4.84692C41.7791 5.20199 41.6736 5.5805 41.4087 5.83596L40.3912 6.85313C40.2013 7.04531 39.9423 7.15195 39.6727 7.15195Z" fill="#E64C3C"/>
<path d="M4.06875 36.643C3.50726 36.643 3.05127 36.1871 3.05127 35.6258V19.3558C3.05127 18.7945 3.50726 18.3386 4.06875 18.3386C4.63024 18.3386 5.08624 18.7945 5.08624 19.3558V35.627C5.08624 36.1883 4.63024 36.643 4.06875 36.643Z" fill="#35495E"/>
<path d="M16.2763 36.643C15.7148 36.643 15.2588 36.1871 15.2588 35.6258V19.3558C15.2588 18.7945 15.7148 18.3386 16.2763 18.3386C16.8378 18.3386 17.2938 18.7945 17.2938 19.3558V35.627C17.2938 36.1883 16.8378 36.643 16.2763 36.643Z" fill="#35495E"/>
<path d="M12.2075 26.4735H8.1376C7.57611 26.4735 7.12012 26.0177 7.12012 25.4564C7.12012 24.8951 7.57611 24.4392 8.1376 24.4392H12.2064C12.7679 24.4392 13.2238 24.8951 13.2238 25.4564C13.2238 26.0177 12.769 26.4735 12.2075 26.4735Z" fill="#ECF0F1"/>
<path d="M11.1901 30.5412H9.15518C8.59369 30.5412 8.1377 30.0853 8.1377 29.524C8.1377 28.9627 8.59369 28.5068 9.15518 28.5068H11.1901C11.7516 28.5068 12.2076 28.9627 12.2076 29.524C12.2076 30.0865 11.7516 30.5412 11.1901 30.5412Z" fill="#ECF0F1"/>
<path d="M39.6727 14.2712C35.1784 14.2712 31.5352 10.6291 31.5352 6.13617C31.5352 1.64329 35.1784 -2 39.6727 -2C44.167 -2 47.8102 1.64212 47.8102 6.135C47.8055 10.6267 44.1646 14.2653 39.6727 14.2712ZM39.6727 0.0343354C36.3014 0.0343354 33.569 2.76592 33.569 6.13617C33.569 9.50642 36.3014 12.238 39.6727 12.238C43.044 12.238 45.7764 9.50642 45.7764 6.13617C45.7729 2.76709 43.0428 0.036679 39.6727 0.0343354Z" fill="#BDC3C7"/>
</g>
</g>
<defs>
<clipPath id="clip0_2558_2599">
<rect width="58" height="58" fill="white"/>
</clipPath>
<clipPath id="clip1_2558_2599">
<rect width="59" height="60" fill="white" transform="translate(0 -2)"/>
</clipPath>
</defs>
</svg>
