<svg width="58" height="58" viewBox="0 0 58 58" fill="none" xmlns="http://www.w3.org/2000/svg">
<g clip-path="url(#clip0_2558_2553)">
<path d="M18.1525 51.4795C18.3685 50.8474 18.6305 50.2323 18.9365 49.6399C18.9072 49.6297 18.887 49.6104 18.8566 49.6002C14.3686 47.04 11.0121 42.4306 11.0121 35.0005C10.7883 29.6378 13.4518 24.5684 17.9826 21.7409L23.9206 21.0012L39.3116 29.8315C39.1507 32.6352 39.6614 35.4378 40.8008 38.0013C44.019 44.4833 45.9334 53.59 46.5442 56.8128C46.6004 57.1062 46.5228 57.4087 46.3339 57.6386C46.1449 57.8686 45.8637 58.0011 45.5679 58.0011H18.0141C17.7386 58.0023 17.4742 57.8867 17.2864 57.684C17.0985 57.4812 17.0018 57.2082 17.022 56.9306C17.1615 55.0706 17.5417 53.2388 18.1525 51.4795Z" fill="#2FA8CC"/>
<path d="M32.2914 52.72C32.3218 52.9828 32.2464 53.2468 32.0822 53.4529C31.918 53.6591 31.6784 53.7916 31.4174 53.82C30.5041 53.9276 29.5862 53.9808 28.6672 53.9797C25.0127 54.0171 21.4042 53.1595 18.1523 51.4796C18.3683 50.8475 18.6304 50.2324 18.9363 49.6399C22.709 51.5929 26.9788 52.3598 31.1891 51.8398C31.4512 51.8092 31.7144 51.884 31.9213 52.0494C32.1283 52.2148 32.2622 52.4561 32.2914 52.72Z" fill="#2980BA"/>
<path d="M46.7589 31.0004C46.7589 31.0004 33.8504 30.0001 22.9284 24.0007C21.5684 22.7501 19.8047 22.0398 17.9634 22.0002C18.0342 20.7111 18.7946 19.5624 19.9498 19.0005C21.0263 18.4953 22.24 18.3729 23.3952 18.6505C17.8441 16.7802 17.3582 9.85078 21.9351 8.0009C22.5819 7.74148 23.2006 7.4175 23.7821 7.03121C26.0464 5.43961 27.9406 3.37223 29.3331 0.970664C29.6953 0.369141 30.3421 0.000976562 31.0406 0.000976562H42.7377C45.7466 0.000976562 47.8117 3.37109 47.7521 6.00148C47.7521 10.9995 48.7442 22.9993 46.7589 31.0004Z" fill="#FDD7AD"/>
<path d="M42.7875 23.9376C42.5726 23.9387 42.3634 23.8685 42.1913 23.7371C39.8382 21.9597 36.6313 21.7195 33.8012 21.5066C32.3705 21.4635 30.9487 21.2551 29.5651 20.8869C29.2277 20.7736 28.9769 20.4882 28.9049 20.1381C28.834 19.7881 28.9532 19.4256 29.2187 19.1877C29.4842 18.9498 29.8554 18.8739 30.1928 18.9872C31.4222 19.2964 32.6809 19.472 33.9486 19.5094C36.8968 19.7314 40.5648 20.009 43.3814 22.1364C43.7233 22.3947 43.8628 22.8444 43.7278 23.2522C43.5928 23.66 43.2138 23.9364 42.7863 23.9364L42.7875 23.9376Z" fill="#F9C795"/>
<path d="M39.8585 22.5101C36.2838 21.3501 32.1827 21.7704 29.879 21.0001C27.635 20.24 25.4405 19.0505 23.3956 18.6506C17.8445 16.7804 17.3586 9.85094 21.9355 8.00105C22.5823 7.74164 23.201 7.41766 23.7825 7.03137C26.0906 7.6782 28.4764 8.00445 30.8723 8.00105C36.8293 7.99992 36.8293 0 36.8293 0H40.8011C38.2196 10.4105 38.9946 18.2802 39.8585 22.5101Z" fill="#2FA8CC"/>
</g>
<defs>
<clipPath id="clip0_2558_2553">
<rect width="37" height="58" fill="white" transform="translate(11)"/>
</clipPath>
</defs>
</svg>
