<svg width="32" height="26" viewBox="0 0 32 26" fill="none" xmlns="http://www.w3.org/2000/svg">
<path d="M28.9119 7.43676C26.7834 8.44533 24.0872 10.545 24.0395 14.0402C24.0383 14.1449 23.9881 14.2417 23.9037 14.3021C23.0398 14.9212 22.6526 16.0814 23.0784 17.1516C23.5091 18.2322 24.6764 18.8477 25.804 18.5902C27.1628 18.2797 27.9544 16.8848 27.5604 15.5638C27.3751 14.9428 26.9615 14.4542 26.4402 14.1622C26.3423 14.1074 26.2781 14.0076 26.2732 13.8948C26.198 12.1987 26.7847 9.73607 29.1156 7.75529C29.2845 7.61173 29.1113 7.34188 28.9119 7.43676Z" fill="#685E68"/>
<path d="M23.9383 0.379976C21.6117 0.728694 18.4297 1.95721 17.3841 5.29098C17.3529 5.39079 17.2771 5.46903 17.1792 5.5023C16.1752 5.84424 15.4716 6.84357 15.5738 7.99138C15.6772 9.1509 16.6188 10.0788 17.7726 10.1595C19.1626 10.2562 20.3202 9.14967 20.3202 7.77082C20.3202 7.12267 20.0638 6.5349 19.6484 6.10363C19.5707 6.02292 19.5371 5.90832 19.5646 5.79865C19.9775 4.15241 21.2434 1.96461 24.0423 0.74348C24.2449 0.655377 24.1561 0.347323 23.9383 0.379976Z" fill="#685E68"/>
<path d="M12.2934 5.51579C12.2707 5.51579 12.2481 5.51394 12.2249 5.51086C11.9667 5.47328 11.7874 5.23177 11.8247 4.97177C11.9532 4.07471 12.5308 1.83146 15.1058 0.372518C15.3334 0.243751 15.6216 0.325077 15.7494 0.55427C15.8773 0.783462 15.7965 1.07365 15.569 1.20242C13.3604 2.45373 12.8691 4.35073 12.7602 5.10793C12.7265 5.34513 12.5246 5.51579 12.2934 5.51579Z" fill="#FFA78F"/>
<path d="M26.429 5.51579C26.4064 5.51579 26.3837 5.51394 26.3611 5.51086C26.1029 5.47328 25.9236 5.23177 25.961 4.97177C26.0901 4.07471 26.6676 1.83146 29.2421 0.372518C29.4696 0.243751 29.7578 0.325077 29.8857 0.55427C30.0135 0.783462 29.9328 1.07365 29.7052 1.20242C27.4966 2.45373 27.0053 4.35073 26.8964 5.10793C26.8622 5.34513 26.6603 5.51579 26.429 5.51579Z" fill="#FFA78F"/>
<path d="M0.266113 19.9716V24.8832C0.266113 25.2486 0.560389 25.5449 0.923186 25.5449H30.9326C31.2954 25.5449 31.5897 25.2486 31.5897 24.8832V20.6013L27.244 15.5233L15.9282 18.8263L5.81269 15.7574L0.266113 19.9716Z" fill="#FEE97D"/>
<path d="M30.141 18.889V24.8825C30.141 25.2479 29.8467 25.5442 29.4839 25.5442H30.9332C31.296 25.5442 31.5903 25.2479 31.5903 24.8825V20.6006L30.141 18.889Z" fill="#FEC165"/>
<path d="M31.5903 14.2725V20.6006C30.3385 20.1133 29.4673 19.4559 27.1205 19.4559C23.3891 19.4559 23.3891 21.115 19.6589 21.115C15.9288 21.115 15.9282 19.4565 12.1968 19.4565C8.46607 19.4565 8.46607 21.1157 4.73592 21.1157C2.38845 21.1157 1.51786 20.4583 0.266113 19.9709V14.2725C0.266113 13.9072 0.560389 13.6108 0.923186 13.6108H13.3953C13.5972 13.6108 13.7269 13.8259 13.6346 14.0064C13.4528 14.3619 13.3501 14.7654 13.3501 15.193C13.3501 16.6162 14.4874 17.772 15.8964 17.7893C17.3139 17.8072 18.4971 16.6396 18.5063 15.2115C18.51 14.7771 18.406 14.3668 18.2212 14.0064C18.1288 13.8259 18.2591 13.6115 18.4604 13.6115H30.9326C31.296 13.6115 31.5903 13.9072 31.5903 14.2725Z" fill="#FFA78F"/>
<path d="M30.9331 13.6115H29.488C29.849 13.6139 30.1408 13.909 30.1408 14.2732V19.9832C30.6431 20.1804 31.0861 20.4047 31.5902 20.6012V14.2732C31.5902 13.9072 31.2959 13.6115 30.9331 13.6115Z" fill="#F89580"/>
<path d="M8.68023 7.43676C6.55178 8.44533 3.85557 10.545 3.80785 14.0402C3.80663 14.1449 3.75646 14.2417 3.67203 14.3021C2.80817 14.9212 2.42029 16.0814 2.84672 17.1516C3.27681 18.2322 4.44474 18.8477 5.57228 18.5902C6.93109 18.2797 7.72276 16.8848 7.32876 15.5638C7.14339 14.9428 6.72981 14.4542 6.20856 14.1622C6.11067 14.1074 6.04643 14.0076 6.04153 13.8948C5.96628 12.1987 6.553 9.73607 8.88396 7.75529C9.05281 7.61173 8.87967 7.34188 8.68023 7.43676Z" fill="#685E68"/>
</svg>
