<svg width="58" height="58" viewBox="0 0 58 58" fill="none" xmlns="http://www.w3.org/2000/svg">
<g clip-path="url(#clip0_2558_2590)">
<g clip-path="url(#clip1_2558_2590)">
<path d="M4.73289 39.5025C5.47941 39.5025 6.07641 38.8817 6.05148 38.1329C6.0073 36.8596 5.96992 35.285 5.96992 34.8953C5.96992 33.5269 7.22055 32.8064 8.3409 32.8053H8.34316C9.46352 32.8064 10.7141 33.5269 10.7141 34.8953C10.7141 35.285 10.6756 36.8596 10.6314 38.1329C10.6054 38.8817 11.2035 39.5013 11.95 39.5013C12.6048 39.5013 13.1621 39.0199 13.255 38.3685C13.4827 36.7849 13.6674 34.5702 13.9698 33.9676C14.8104 32.2899 16.6818 30.4105 16.6818 25.5088C16.6818 20.7216 12.5266 20.0249 10.3188 20.6774C9.70367 20.8598 9.19617 21.0184 8.85066 21.1294C8.51988 21.2359 8.16418 21.2359 7.8334 21.1294C7.48676 21.0184 6.98039 20.8598 6.36414 20.6774C4.15516 20.026 0 20.7227 0 25.51C0 30.4117 1.87141 32.291 2.71195 33.9687C3.01441 34.5725 3.19906 36.786 3.42676 38.3697C3.52078 39.021 4.07812 39.5025 4.73289 39.5025Z" fill="#EAF6FF"/>
<path d="M10.319 20.6786C10.242 20.7013 10.1672 20.7239 10.0947 20.7455C11.735 21.2847 13.1816 22.6848 13.1816 25.5101C13.1816 30.3948 11.3227 32.2786 10.4776 33.9518C10.626 34.2214 10.7132 34.5363 10.7132 34.8965C10.7132 35.2862 10.6747 36.8608 10.6305 38.1341C10.6045 38.8829 11.2026 39.5026 11.9491 39.5026C12.6039 39.5026 13.1612 39.0211 13.2541 38.3698C13.4818 36.7861 13.6665 34.5714 13.9689 33.9688C14.8095 32.2911 16.682 30.4117 16.682 25.5101C16.682 20.7228 12.5269 20.0261 10.319 20.6786Z" fill="#D5E3F4"/>
<path d="M8.3068 13.1455C8.30114 13.1455 8.29547 13.1455 8.29094 13.1455C7.82196 13.1546 7.44813 13.542 7.45719 14.011L7.48325 15.4315C7.49231 15.896 7.87067 16.2653 8.33286 16.2653C8.33852 16.2653 8.34418 16.2653 8.34872 16.2653C8.8177 16.2562 9.19153 15.8688 9.18247 15.3998L9.15641 13.9793C9.14735 13.5148 8.76786 13.1455 8.3068 13.1455Z" fill="#FFD15B"/>
<path d="M13.468 15.1789C13.1304 14.8538 12.5924 14.8629 12.2672 15.2016L11.2817 16.2245C10.9566 16.5621 10.9656 17.1002 11.3044 17.4253C11.4697 17.5839 11.6816 17.6632 11.8934 17.6632C12.1166 17.6632 12.3386 17.5759 12.5051 17.4026L13.4907 16.3797C13.8158 16.0421 13.8056 15.504 13.468 15.1789Z" fill="#FFD15B"/>
<path d="M4.39312 15.3466C4.05554 15.0215 3.51746 15.0306 3.19234 15.3693C2.86722 15.7069 2.87628 16.245 3.215 16.5701L4.23793 17.5556C4.40332 17.7142 4.61515 17.7935 4.82699 17.7935C5.05015 17.7935 5.27218 17.7063 5.43871 17.533C5.76382 17.1954 5.75476 16.6573 5.41605 16.3322L4.39312 15.3466Z" fill="#FFD15B"/>
<path d="M54.8236 54.6743V56.7224H24.0654V54.6743C24.0654 50.3571 26.9269 46.5633 31.0764 45.375L34.7388 44.3271C35.7039 44.0507 36.3689 43.1694 36.3689 42.1657V39.0029H42.5201V42.1669C42.5201 43.1705 43.185 44.053 44.1502 44.3283L47.8126 45.3761C51.9632 46.5633 54.8236 50.3571 54.8236 54.6743Z" fill="#FFB09E"/>
<path d="M47.8124 45.3761L44.15 44.3283C43.1849 44.0519 42.5199 43.1705 42.5199 42.1669V39.0029H39.0195V42.1669C39.0195 43.1705 39.6845 44.053 40.6496 44.3283L44.312 45.3761C48.4627 46.5633 51.323 50.3582 51.323 54.6754V56.7235H54.8234V54.6754C54.8234 50.3571 51.963 46.5633 47.8124 45.3761Z" fill="#FFA78F"/>
<path d="M28.3578 24.1746C28.3578 27.0927 26.5725 29.4569 24.3703 29.4569C22.1681 29.4569 20.8892 26.7404 20.8892 23.8234C20.8892 20.9064 22.1681 18.8911 24.3703 18.8911C26.5725 18.8911 28.3578 21.2564 28.3578 24.1746Z" fill="#FFA78F"/>
<path d="M50.5327 24.1746C50.5327 27.0927 52.318 29.4569 54.5202 29.4569C56.7224 29.4569 58.0002 26.7404 58.0002 23.8234C58.0002 20.9064 56.7213 18.8911 54.5191 18.8911C52.3169 18.8911 50.5316 21.2564 50.5327 24.1746Z" fill="#FFA78F"/>
<path d="M26.5825 27.1844V18.4323C26.5825 11.3284 32.3406 5.57031 39.4445 5.57031C46.5483 5.57031 52.3064 11.3284 52.3064 18.4323V27.1357C52.3064 34.2531 46.537 40.0225 39.4196 40.0225C32.3304 40.0225 26.5825 34.2747 26.5825 27.1844Z" fill="#FFCEBF"/>
<path d="M39.4447 5.57031C38.8511 5.57031 38.2666 5.61109 37.6945 5.68926C43.9703 6.5434 48.8063 11.9231 48.8063 18.4323V27.1357C48.8063 33.6584 43.9601 39.0483 37.6719 39.9025C38.2439 39.9806 38.8273 40.0214 39.4209 40.0214C46.5384 40.0214 52.3078 34.252 52.3078 27.1345V18.4311C52.3067 11.3284 46.5486 5.57031 39.4447 5.57031Z" fill="#FFB09E"/>
<path d="M32.9783 20.5836C33.1686 20.5836 33.36 20.5201 33.5175 20.3898C34.4838 19.5946 35.0207 19.3465 36.2521 19.1245C36.7143 19.0418 37.0213 18.6 36.9374 18.1378C36.8548 17.6756 36.413 17.3698 35.9508 17.4525C34.4237 17.7277 33.6353 18.0925 32.4368 19.078C32.0743 19.376 32.0222 19.9118 32.3212 20.2743C32.49 20.4782 32.7324 20.5836 32.9783 20.5836Z" fill="#7A6D79"/>
<path d="M42.6472 19.1879C43.8865 19.3658 44.4314 19.5946 45.4249 20.3558C45.5789 20.4736 45.7602 20.5303 45.9403 20.5303C46.1963 20.5303 46.4478 20.4159 46.6154 20.1972C46.9009 19.8245 46.8295 19.291 46.4568 19.0066C45.2243 18.063 44.4246 17.7266 42.8885 17.5068C42.4252 17.4411 41.9936 17.7628 41.9267 18.2273C41.8599 18.6906 42.1827 19.1211 42.6472 19.1879Z" fill="#7A6D79"/>
<path d="M37.2459 28.8552C37.4045 28.9889 37.5982 29.0535 37.7908 29.0535C38.0332 29.0535 38.2745 28.9504 38.4433 28.7488C38.6676 28.4803 38.9984 28.3489 39.4515 28.3489C39.9012 28.3489 40.2252 28.4769 40.4416 28.742C40.7395 29.1056 41.2742 29.1577 41.6367 28.8609C41.9992 28.563 42.0524 28.0283 41.7556 27.6647C41.3761 27.2013 40.6681 26.6497 39.4515 26.6497C38.2382 26.6497 37.5246 27.1979 37.1405 27.6579C36.8381 28.0181 36.8857 28.5539 37.2459 28.8552Z" fill="#FFA78F"/>
<path d="M35.7755 22.6419C34.8239 22.9001 34.3867 22.9001 33.4351 22.6419C32.982 22.5184 32.5153 22.7869 32.3929 23.2389C32.2706 23.692 32.5379 24.1587 32.9899 24.281C33.6084 24.4487 34.1069 24.5337 34.6053 24.5337C35.1038 24.5337 35.6022 24.4498 36.2207 24.281C36.6738 24.1576 36.9412 23.6908 36.8177 23.2389C36.6954 22.7869 36.2286 22.5195 35.7755 22.6419Z" fill="#7A6D79"/>
<path d="M42.4611 24.2821C43.0796 24.4498 43.5781 24.5347 44.0765 24.5347C44.5749 24.5347 45.0734 24.4509 45.6919 24.2821C46.145 24.1586 46.4124 23.6919 46.2889 23.2399C46.1654 22.7868 45.6998 22.5194 45.2467 22.6429C44.2951 22.9012 43.8579 22.9012 42.9063 22.6429C42.4532 22.5194 41.9865 22.7879 41.8641 23.2399C41.7418 23.6919 42.0091 24.1586 42.4611 24.2821Z" fill="#7A6D79"/>
<path d="M46.8871 32.9279C46.1111 32.1168 45.6829 31.7169 44.8095 30.984C44.5773 30.7892 44.259 30.7325 43.9735 30.8356C43.0797 31.1596 42.5586 31.3726 41.8257 31.7249C41.1675 31.2525 40.6918 30.9512 39.8705 30.4765C39.6065 30.3236 39.2825 30.3236 39.0186 30.4765C38.1984 30.9512 37.7238 31.2525 37.0634 31.7249C36.3293 31.3726 35.8071 31.1596 34.9144 30.8356C34.6289 30.7325 34.3106 30.788 34.0784 30.984C33.205 31.7169 32.7779 32.1168 32.0008 32.9279C31.6768 33.2666 31.6882 33.8047 32.0269 34.1287C32.3656 34.4527 32.9037 34.4414 33.2277 34.1026C33.8416 33.4615 34.2087 33.1069 34.7955 32.6028C35.5148 32.8735 35.9793 33.0809 36.7722 33.4728C37.0577 33.6133 37.3964 33.5838 37.6524 33.3958C38.3638 32.8724 38.7841 32.5881 39.4434 32.195C40.1027 32.5881 40.5241 32.8724 41.2332 33.3958C41.4893 33.5838 41.8291 33.6144 42.1134 33.4728C42.9053 33.0809 43.3697 32.8735 44.0891 32.6028C44.6759 33.1069 45.0429 33.4615 45.6569 34.1026C45.8234 34.2771 46.0466 34.3643 46.2709 34.3643C46.4816 34.3643 46.6934 34.2862 46.8588 34.1287C47.1998 33.8047 47.2122 33.2666 46.8871 32.9279Z" fill="#FFA78F"/>
<path d="M54.5912 12.3851C54.2491 12.6774 54.0814 13.1248 54.1177 13.5746C54.4122 17.2449 53.2329 20.6241 52.961 21.2063C52.5612 22.0661 52.3063 24.4156 52.3063 24.4156C52.3063 24.4156 50.0021 22.1987 50.0905 21.3581C50.2321 20.0157 51.0092 11.7677 47.6164 12.5448C44.2248 13.3219 42.1653 13.894 39.3299 13.894C36.4945 13.894 34.597 13.3287 31.2065 12.5516C27.8137 11.7745 28.592 20.0225 28.7336 21.3649C28.8208 22.2043 26.5824 24.4065 26.5824 24.4065C26.5824 24.4065 26.0998 22.065 25.701 21.2052C25.3748 20.504 22.0364 10.3438 29.3691 5.63242C29.5662 5.50554 29.6432 5.25859 29.5537 5.04222C29.4269 4.73297 29.3464 4.35347 29.3464 3.88562C29.3464 1.64945 38.7057 -2.34711 48.1862 1.80918C52.372 3.64433 55.8055 4.96519 56.9757 5.40699C57.2306 5.50328 57.3847 5.76496 57.3416 6.03457C57.1457 7.29879 56.449 10.798 54.5912 12.3851Z" fill="#7A6D79"/>
<path d="M56.9758 5.40842C55.8056 4.96662 52.372 3.64576 48.1863 1.8106C43.169 -0.389319 38.1847 -0.304358 34.605 0.593962C37.6285 0.390056 41.1481 0.804665 44.6859 2.35549C48.8716 4.19064 52.3052 5.5115 53.4754 5.9533C53.7303 6.04959 53.8843 6.31127 53.8413 6.58088C53.6442 7.84396 52.9475 11.3432 51.0897 12.9314C50.7476 13.2237 50.5799 13.6711 50.6162 14.1209C50.7634 15.9606 50.5414 17.7266 50.248 19.1041C50.2106 20.1474 50.1279 21.0004 50.0905 21.3607C50.0022 22.2001 52.3063 24.4181 52.3063 24.4181C52.3063 24.4181 52.5612 22.0687 52.9611 21.2089C53.2329 20.6266 54.4111 17.2474 54.1177 13.5771C54.0814 13.1285 54.2491 12.6811 54.5912 12.3877C56.449 10.7995 57.1457 7.30021 57.3428 6.03713C57.3847 5.76638 57.2318 5.5047 56.9758 5.40842Z" fill="#685E68"/>
<path d="M55.1998 53.0284V55.7925C55.1998 57.0114 54.2108 58.0003 52.9919 58.0003H25.8973C24.6784 58.0003 23.6895 57.0114 23.6895 55.7925V53.0284C23.6895 48.6954 26.5294 44.8733 30.6789 43.6249L34.7978 42.3856C34.9632 42.3358 35.1343 42.4389 35.1671 42.6077C35.3823 43.6963 36.3192 47.2193 39.4435 47.2193C42.5678 47.2193 43.5046 43.6974 43.7198 42.6077C43.7527 42.4389 43.9249 42.3358 44.0891 42.3856L48.208 43.6249C52.3587 44.8733 55.1998 48.6954 55.1998 53.0284Z" fill="#62DBFB"/>
<path d="M48.2091 43.6249L44.0902 42.3856C43.9248 42.3358 43.7538 42.4389 43.7209 42.6077C43.6869 42.7787 43.6348 43.0109 43.5601 43.2794L44.7087 43.6249C48.8582 44.8733 51.6993 48.6954 51.6993 53.0284V58.0003H52.993C54.2119 58.0003 55.2008 57.0114 55.2008 55.7925V53.0284C55.1997 48.6954 52.3586 44.8733 48.2091 43.6249Z" fill="#01D0FB"/>
<path d="M27.4593 41.1417C30.3072 41.1417 32.6159 38.8331 32.6159 35.9852C32.6159 33.1373 30.3072 30.8286 27.4593 30.8286C24.6114 30.8286 22.3027 33.1373 22.3027 35.9852C22.3027 38.8331 24.6114 41.1417 27.4593 41.1417Z" fill="#FFCEBF"/>
<path d="M27.4592 30.8286C26.8441 30.8286 26.255 30.9362 25.709 31.1345C27.6948 31.8515 29.1154 33.7524 29.1154 35.9852C29.1154 38.2179 27.6959 40.1199 25.709 40.8359C26.255 41.033 26.8452 41.1417 27.4592 41.1417C30.3071 41.1417 32.6157 38.8331 32.6157 35.9852C32.6157 33.1373 30.3071 30.8286 27.4592 30.8286Z" fill="#FFB09E"/>
<path d="M26.039 58.0002C23.813 58.0002 22.0073 56.1956 22.0073 53.9685V39.5319C22.0073 39.1309 22.3936 38.8443 22.7776 38.9587L29.4692 40.9615C29.826 41.068 30.0707 41.3965 30.0707 41.7692V53.9685C30.0696 56.1956 28.265 58.0002 26.039 58.0002Z" fill="#62DBFB"/>
<path d="M29.4692 40.9615L22.7776 38.9587C22.3936 38.8443 22.0073 39.1309 22.0073 39.5319V39.7766L25.9676 40.9615C26.3245 41.068 26.5692 41.3965 26.5692 41.7692V53.9685C26.5692 55.568 25.638 56.9489 24.2888 57.6014C24.8178 57.8574 25.4114 58.0002 26.039 58.0002C28.265 58.0002 30.0707 56.1956 30.0707 53.9685V41.7692C30.0696 41.3965 29.826 41.0692 29.4692 40.9615Z" fill="#01D0FB"/>
<path d="M46.1372 54.3299H40.9127C40.4868 54.3299 40.1401 53.9844 40.1401 53.5573V51.6009C40.1401 51.175 40.4856 50.8284 40.9127 50.8284H46.1372C46.5632 50.8284 46.9098 51.1739 46.9098 51.6009V53.5573C46.9087 53.9844 46.5632 54.3299 46.1372 54.3299Z" fill="#FE76A8"/>
</g>
</g>
<defs>
<clipPath id="clip0_2558_2590">
<rect width="58" height="58" fill="white"/>
</clipPath>
<clipPath id="clip1_2558_2590">
<rect width="58" height="58" fill="white"/>
</clipPath>
</defs>
</svg>
