<svg width="330" height="107" viewBox="0 0 330 107" fill="none" xmlns="http://www.w3.org/2000/svg">
<path d="M114.824 52.4772C114.855 52.4694 114.878 52.4435 114.881 52.4098C114.907 52.1144 114.94 51.8139 114.987 51.5185C114.992 51.477 114.961 51.4407 114.92 51.4356C114.881 51.4304 114.845 51.4563 114.837 51.4952C114.79 51.7931 114.757 52.0937 114.731 52.3969C114.728 52.4383 114.759 52.4746 114.798 52.4772C114.806 52.4772 114.814 52.4772 114.821 52.4772H114.824ZM115.277 49.8006C115.238 49.7902 115.215 49.7488 115.226 49.7073C115.391 49.1191 115.588 48.5413 115.816 47.9765C115.832 47.9376 115.873 47.9169 115.912 47.9324C115.951 47.948 115.972 47.9894 115.956 48.0283C115.956 48.0283 115.956 48.0309 115.956 48.0335C115.731 48.5932 115.534 49.1684 115.371 49.7488C115.363 49.7747 115.342 49.7954 115.316 49.8006C115.303 49.8032 115.29 49.8032 115.277 49.8006ZM116.614 46.4192C116.578 46.4011 116.563 46.3545 116.583 46.3182C116.866 45.7767 117.169 45.2507 117.498 44.735C117.519 44.6988 117.565 44.6858 117.602 44.7065C117.638 44.7273 117.651 44.7739 117.63 44.8102C117.63 44.8102 117.63 44.8128 117.627 44.8154C117.304 45.3258 117 45.8492 116.721 46.3881C116.702 46.4244 116.656 46.44 116.62 46.4192H116.614ZM135.734 41.3563C135.716 41.32 135.729 41.2734 135.768 41.2552C136.309 40.978 136.729 40.5634 137.009 40.0271C137.027 39.9908 137.073 39.9752 137.11 39.996C137.146 40.0141 137.162 40.0607 137.141 40.097C136.843 40.6619 136.405 41.0972 135.835 41.3874C135.799 41.4055 135.752 41.3926 135.734 41.3537V41.3563ZM134.042 41.8045C133.835 41.8097 133.627 41.8045 133.42 41.7864C133.008 41.7553 132.617 41.6257 132.251 41.4003C132.215 41.3796 132.205 41.333 132.226 41.2967C132.246 41.2604 132.293 41.25 132.329 41.2708C132.674 41.4806 133.044 41.605 133.433 41.6335C133.635 41.6491 133.837 41.6568 134.039 41.6517C134.081 41.6517 134.114 41.6828 134.117 41.7242C134.12 41.7657 134.086 41.7994 134.045 41.8019L134.042 41.8045ZM174.255 31.676C173.675 31.8082 173.074 31.9299 172.465 32.0388C172.424 32.0439 172.385 32.0154 172.38 31.974C172.374 31.9351 172.4 31.8988 172.437 31.8911C173.043 31.7822 173.641 31.6605 174.219 31.5309C174.261 31.5205 174.299 31.5465 174.31 31.5879C174.32 31.6294 174.294 31.6682 174.253 31.6786L174.255 31.676ZM175.932 31.1733C175.921 31.1345 175.945 31.093 175.984 31.0801C176.214 31.0153 176.447 30.9479 176.678 30.8754C177.028 30.7665 177.38 30.6551 177.722 30.5385C177.761 30.5256 177.805 30.5463 177.818 30.5852C177.831 30.624 177.81 30.6681 177.772 30.681C177.43 30.7976 177.077 30.9091 176.725 31.0179C176.494 31.0878 176.261 31.1578 176.028 31.2226C175.989 31.2329 175.947 31.2096 175.937 31.1708L175.932 31.1733ZM170.662 32.3212C170.058 32.4041 169.454 32.4767 168.85 32.5362C168.809 32.5414 168.773 32.5103 168.768 32.4689C168.762 32.4274 168.793 32.3911 168.835 32.386C169.449 32.3238 170.058 32.2512 170.641 32.1709C170.682 32.1657 170.721 32.1916 170.726 32.2331C170.732 32.272 170.708 32.3082 170.669 32.3186H170.662V32.3212ZM179.383 30.0151C179.368 29.9763 179.386 29.9322 179.425 29.9167C179.989 29.6938 180.547 29.458 181.098 29.2067C181.137 29.1886 181.181 29.2067 181.197 29.243C181.215 29.2819 181.197 29.3259 181.161 29.3414C180.604 29.5954 180.039 29.8338 179.471 30.0566C179.435 30.0644 179.396 30.0462 179.383 30.0099V30.0151ZM167.029 32.6917C166.423 32.7332 165.814 32.7669 165.205 32.7928C165.163 32.7928 165.127 32.7617 165.127 32.7202C165.127 32.6788 165.158 32.6425 165.2 32.6425C165.816 32.6166 166.428 32.5829 167.019 32.5414C167.06 32.5388 167.096 32.5699 167.099 32.6114C167.101 32.6528 167.07 32.6891 167.029 32.6917ZM182.7 28.5097C182.682 28.4734 182.695 28.4268 182.731 28.4087C183.267 28.1262 183.796 27.8309 184.314 27.5173C184.35 27.4966 184.397 27.507 184.418 27.5432C184.438 27.5795 184.428 27.6262 184.392 27.6469C183.871 27.9604 183.34 28.2584 182.801 28.5408C182.765 28.5589 182.718 28.546 182.7 28.5097ZM163.381 32.8446C162.772 32.855 162.163 32.8601 161.557 32.8575C161.515 32.8575 161.481 32.8239 161.481 32.7824C161.481 32.7409 161.515 32.7073 161.557 32.7073C162.176 32.7073 162.79 32.7047 163.378 32.6943C163.42 32.6943 163.453 32.7254 163.453 32.7669C163.453 32.8083 163.422 32.842 163.381 32.8446ZM185.822 26.6338C185.799 26.6001 185.806 26.5535 185.84 26.5301C186.343 26.1829 186.833 25.8176 187.299 25.4471C187.333 25.4212 187.379 25.4263 187.405 25.46C187.431 25.4937 187.426 25.5403 187.392 25.5663C186.915 25.9471 186.428 26.3099 185.926 26.6571C185.892 26.6804 185.845 26.6726 185.822 26.639V26.6338ZM118.547 43.3333C118.514 43.3074 118.508 43.2607 118.532 43.227C118.9 42.7399 119.283 42.2683 119.685 41.8071C119.713 41.776 119.76 41.7734 119.791 41.7994C119.822 41.8253 119.825 41.8745 119.799 41.9056C119.4 42.3616 119.016 42.8306 118.651 43.3151C118.625 43.3488 118.578 43.354 118.545 43.3307L118.547 43.3333ZM131.008 40.0374C130.826 39.698 130.689 39.3378 130.598 38.9673C130.541 38.7393 130.503 38.5087 130.477 38.2755C130.471 38.234 130.503 38.1978 130.544 38.1926C130.585 38.1874 130.622 38.2185 130.627 38.2599C130.65 38.4854 130.689 38.7108 130.743 38.931C130.832 39.2912 130.964 39.641 131.14 39.9675C131.161 40.0037 131.148 40.0504 131.111 40.0711C131.075 40.0918 131.028 40.0789 131.008 40.0426C131.008 40.0426 131.008 40.0426 131.008 40.04V40.0374ZM159.73 32.8368C159.121 32.8239 158.515 32.8083 157.908 32.7876C157.867 32.7876 157.833 32.7513 157.836 32.7099C157.836 32.6684 157.872 32.6373 157.914 32.6373C158.541 32.658 159.152 32.6762 159.735 32.6865C159.776 32.6865 159.81 32.7228 159.808 32.7643C159.808 32.8057 159.771 32.8394 159.73 32.8368ZM137.449 38.3714C137.408 38.3714 137.371 38.3429 137.371 38.3014C137.361 38.1071 137.333 37.9127 137.286 37.7236C137.244 37.5474 137.18 37.3764 137.099 37.2157C136.998 37.0214 136.887 36.8348 136.765 36.6535C136.739 36.6198 136.747 36.5731 136.781 36.5472C136.814 36.5213 136.861 36.5291 136.887 36.5628C136.887 36.5628 136.887 36.5654 136.89 36.568C137.014 36.7493 137.13 36.9437 137.234 37.1458C137.317 37.3064 137.384 37.4878 137.434 37.6847C137.48 37.8765 137.511 38.0812 137.522 38.291C137.522 38.3325 137.493 38.3688 137.452 38.3714H137.449ZM156.084 32.715C155.478 32.6865 154.872 32.658 154.265 32.6243C154.224 32.6243 154.193 32.5855 154.195 32.544C154.195 32.5026 154.234 32.4715 154.276 32.4741C154.879 32.5077 155.486 32.5388 156.095 32.5648C156.136 32.5648 156.167 32.601 156.167 32.6425C156.167 32.6839 156.131 32.715 156.089 32.715H156.084ZM188.67 24.3666C188.641 24.3355 188.644 24.2888 188.672 24.2603C189.115 23.8484 189.543 23.4182 189.95 22.97C189.978 22.9389 190.025 22.9363 190.056 22.9648C190.087 22.9933 190.09 23.04 190.061 23.071C189.649 23.5219 189.221 23.9546 188.773 24.3692C188.742 24.3977 188.696 24.3951 188.667 24.364L188.67 24.3666ZM120.939 40.5841C120.91 40.5556 120.91 40.5064 120.939 40.4779C121.372 40.0504 121.82 39.6358 122.281 39.2368C122.312 39.2109 122.359 39.2135 122.387 39.2446C122.413 39.2756 122.411 39.3223 122.379 39.3508C121.921 39.7472 121.475 40.1566 121.045 40.5841C121.035 40.5945 121.024 40.5997 121.011 40.6049C120.985 40.61 120.96 40.6049 120.939 40.5841ZM152.446 32.5181C151.84 32.4818 151.234 32.443 150.627 32.4041C150.586 32.4015 150.555 32.3652 150.557 32.3238C150.56 32.2823 150.596 32.2512 150.638 32.2538C151.241 32.2927 151.848 32.329 152.457 32.3678C152.498 32.3678 152.529 32.4067 152.527 32.4482C152.527 32.4896 152.488 32.5207 152.446 32.5181ZM148.808 32.2901C148.197 32.2512 147.591 32.215 146.99 32.1787C146.948 32.1787 146.917 32.1398 146.92 32.0984C146.92 32.0569 146.958 32.0258 147 32.0284C147.601 32.0647 148.207 32.1009 148.819 32.1398C148.86 32.1424 148.891 32.1787 148.889 32.2201C148.886 32.2616 148.85 32.2927 148.808 32.2901ZM135.49 35.4175C135.003 35.1118 134.446 34.8941 133.827 34.7749C133.785 34.7698 133.757 34.7309 133.765 34.6894C133.77 34.648 133.809 34.6195 133.85 34.6272H133.855C134.493 34.7516 135.068 34.9745 135.571 35.2906C135.607 35.3139 135.617 35.3579 135.594 35.3942C135.584 35.4098 135.568 35.4227 135.547 35.4279C135.527 35.4331 135.506 35.4279 135.49 35.4175ZM130.676 36.5343C130.637 36.5239 130.611 36.4825 130.622 36.4436C130.78 35.8476 131.047 35.2828 131.407 34.7801C131.43 34.7464 131.477 34.7387 131.513 34.762C131.547 34.7853 131.554 34.8319 131.531 34.8656C131.181 35.3527 130.925 35.8995 130.769 36.4799C130.759 36.5187 130.718 36.5446 130.679 36.5343H130.676ZM123.696 38.2003C123.67 38.1667 123.678 38.12 123.711 38.0941C124.201 37.7314 124.704 37.3842 125.219 37.0603C125.253 37.0369 125.3 37.0473 125.323 37.0836C125.346 37.1199 125.333 37.1639 125.3 37.1872C124.787 37.5111 124.287 37.8531 123.802 38.2159C123.768 38.2418 123.722 38.234 123.698 38.2003H123.696ZM145.171 32.075C144.564 32.0439 143.958 32.0154 143.349 31.9921C143.308 31.9921 143.277 31.9558 143.277 31.9144C143.277 31.8729 143.313 31.8418 143.354 31.8418C143.924 31.8652 144.52 31.8911 145.176 31.9248C145.217 31.9273 145.248 31.9636 145.246 32.0051C145.243 32.0439 145.209 32.075 145.168 32.075H145.171ZM126.774 36.2519C126.756 36.2156 126.769 36.1689 126.805 36.1508C127.347 35.871 127.904 35.617 128.469 35.3916C128.507 35.3761 128.551 35.3916 128.567 35.4305C128.583 35.4693 128.567 35.5134 128.528 35.5289C128.528 35.5289 128.526 35.5289 128.523 35.5289C127.961 35.7518 127.409 36.0031 126.872 36.2829C126.836 36.3011 126.789 36.2881 126.771 36.2519H126.774ZM132.031 34.6791C131.477 34.7179 130.889 34.8138 130.282 34.9641L130.249 34.9719C130.207 34.9822 130.168 34.9563 130.158 34.9174C130.148 34.8786 130.173 34.8371 130.212 34.8268L130.246 34.819C130.86 34.6661 131.459 34.5702 132.021 34.5314C132.062 34.5262 132.099 34.5573 132.104 34.5962C132.109 34.6376 132.078 34.6739 132.039 34.6791C132.039 34.6791 132.034 34.6791 132.031 34.6791ZM141.528 31.9351C140.921 31.9222 140.312 31.917 139.706 31.9196C139.665 31.9196 139.631 31.8859 139.631 31.8444C139.631 31.803 139.665 31.7693 139.706 31.7693C140.279 31.7693 140.893 31.7719 141.53 31.7874C141.572 31.7874 141.605 31.8237 141.603 31.8652C141.603 31.8988 141.579 31.9273 141.546 31.9351C141.541 31.9351 141.533 31.9351 141.525 31.9351H141.528ZM132.687 33.5805C132.663 33.5468 132.669 33.5001 132.702 33.4768C133.174 33.1322 133.713 32.8342 134.309 32.5907C134.348 32.5751 134.392 32.5933 134.407 32.6321C134.423 32.671 134.405 32.715 134.366 32.7306C133.78 32.969 133.252 33.2592 132.79 33.596C132.757 33.6219 132.71 33.6141 132.687 33.5805ZM137.892 31.9688C137.289 32.0103 136.69 32.0932 136.099 32.2124C136.058 32.2201 136.019 32.1942 136.011 32.1528C136.003 32.1113 136.029 32.0724 136.068 32.0647C136.667 31.9429 137.273 31.86 137.882 31.8185C137.923 31.8159 137.96 31.847 137.962 31.8885C137.965 31.9248 137.941 31.9584 137.905 31.9688C137.9 31.9688 137.897 31.9688 137.892 31.9688ZM191.193 21.677C191.211 21.6719 191.224 21.6615 191.235 21.6485C191.577 21.177 191.732 20.9023 191.74 20.8919C191.761 20.8557 191.748 20.809 191.712 20.7883C191.675 20.7676 191.629 20.7805 191.608 20.8168C191.608 20.8168 191.45 21.0966 191.113 21.5604C191.09 21.5941 191.095 21.6408 191.129 21.6641C191.147 21.677 191.17 21.6822 191.191 21.677H191.193Z" fill="#656E96"/>
<path d="M193.314 18.1972L197.186 15.3548L194.524 14.4091L193.317 18.1972H193.314Z" fill="#46517A"/>
<path d="M197.388 16.184L201.013 10.779L194.839 15.4585L197.388 16.184ZM201.013 10.7686L190.766 13.4866L193.243 14.321L201.013 10.7686Z" fill="#656E96"/>
<path d="M201.013 10.779L194.838 15.4844L193.315 18.1972L193.219 14.2951L201.013 10.779Z" fill="#7882A8"/>
<path d="M311.691 41.9237C311.74 41.9237 311.74 41.9989 311.691 41.9989C311.642 41.9989 311.642 41.9237 311.691 41.9237Z" fill="#30334D"/>
<path d="M295.069 25.8953C298.678 23.1488 303.386 22.0268 307.907 22.4051C310.83 22.6513 313.742 23.5193 316.124 25.2294C318.505 26.9395 320.308 29.5461 320.72 32.4481C321.132 35.3501 320.021 38.5035 317.665 40.2499C315.175 42.0947 311.796 42.1699 308.731 41.7164C304.852 41.1438 301.101 39.8534 297.216 39.3249C295.61 39.1046 293.91 39.0295 292.426 39.6824C290.941 40.3354 289.762 41.1049 289.277 43.2685C286.878 34.0106 291.462 28.6444 295.071 25.8979L295.069 25.8953Z" fill="#243562"/>
<path d="M315.248 33.7203C316.017 33.7203 316.642 33.0962 316.642 32.3263C316.642 31.5564 316.017 30.9323 315.248 30.9323C314.478 30.9323 313.854 31.5564 313.854 32.3263C313.854 33.0962 314.478 33.7203 315.248 33.7203Z" fill="white"/>
<path d="M309.621 33.7203C310.39 33.7203 311.015 33.0962 311.015 32.3263C311.015 31.5564 310.39 30.9323 309.621 30.9323C308.851 30.9323 308.227 31.5564 308.227 32.3263C308.227 33.0962 308.851 33.7203 309.621 33.7203Z" fill="white"/>
<path d="M303.994 33.7203C304.763 33.7203 305.388 33.0962 305.388 32.3263C305.388 31.5564 304.763 30.9323 303.994 30.9323C303.224 30.9323 302.6 31.5564 302.6 32.3263C302.6 33.0962 303.224 33.7203 303.994 33.7203Z" fill="white"/>
<path d="M298.363 33.7203C299.133 33.7203 299.757 33.0962 299.757 32.3263C299.757 31.5564 299.133 30.9323 298.363 30.9323C297.593 30.9323 296.969 31.5564 296.969 32.3263C296.969 33.0962 297.593 33.7203 298.363 33.7203Z" fill="white"/>
<path d="M301.578 41.9859C301.952 42.0688 302.296 42.2502 302.656 42.3823C303.016 42.517 303.382 42.6388 303.747 42.758C304.48 43.0016 305.211 43.2451 305.96 43.4395C307.45 43.8255 308.981 44.0535 310.52 44.0795C313.228 44.1235 315.948 43.5172 318.278 42.1102C319.542 41.3485 320.701 40.3354 321.597 39.1616C321.641 39.1046 321.737 39.1564 321.696 39.2186C320.973 40.3431 320.079 41.2759 319.001 42.0688C317.913 42.8694 316.697 43.4861 315.42 43.9266C312.533 44.9216 309.445 44.906 306.486 44.2375C305.61 44.0406 304.737 43.797 303.895 43.4861C303.478 43.3332 303.071 43.1544 302.667 42.9705C302.252 42.7813 301.793 42.6181 301.428 42.3408C301.257 42.2113 301.35 41.934 301.578 41.9833V41.9859ZM287.46 32.4507C287.82 30.9531 288.499 29.5461 289.442 28.3257C289.916 27.7142 290.452 27.1545 291.048 26.6571C291.325 26.4239 291.613 26.2062 291.914 26.0015C292.214 25.7968 292.572 25.5636 292.919 25.46C293.002 25.4341 293.072 25.5481 293.004 25.6077C292.745 25.8409 292.424 26.03 292.144 26.2399C291.833 26.4679 291.538 26.7141 291.253 26.9732C290.717 27.4681 290.232 28.0122 289.802 28.603C288.931 29.7948 288.317 31.1552 287.999 32.5984C287.921 32.9482 287.377 32.8005 287.462 32.4507H287.46ZM298.086 41.0349C298.244 40.952 298.466 40.9805 298.643 40.9961C298.819 41.0116 298.992 41.0401 299.163 41.0842C299.329 41.1256 299.49 41.1826 299.645 41.2552C299.811 41.3303 299.995 41.4132 300.101 41.5687C300.19 41.6983 300.076 41.9185 299.912 41.9004C299.85 41.8926 299.798 41.8874 299.739 41.8589C299.702 41.8408 299.669 41.8226 299.632 41.8045C299.581 41.7786 299.529 41.7553 299.474 41.7345C299.332 41.6775 299.187 41.6309 299.039 41.592C298.967 41.5739 298.894 41.5583 298.821 41.5454C298.762 41.535 298.702 41.5272 298.643 41.5221C298.568 41.5169 298.495 41.5117 298.42 41.5117C298.329 41.5117 298.231 41.5298 298.145 41.4962C298.049 41.4599 297.977 41.3951 297.964 41.2863C297.953 41.1904 297.995 41.0816 298.083 41.0349H298.086Z" fill="#656E96"/>
<path d="M132.668 106.144H27.2555C27.1545 106.144 27.0716 106.061 27.0716 105.96V105.921C27.0716 105.82 27.1545 105.737 27.2555 105.737H132.668C132.769 105.737 132.852 105.82 132.852 105.921V105.96C132.852 106.061 132.769 106.144 132.668 106.144ZM147.419 106.144H138.703C138.602 106.144 138.519 106.061 138.519 105.962V105.923C138.519 105.822 138.602 105.739 138.703 105.739H147.419C147.52 105.739 147.603 105.822 147.603 105.923V105.962C147.603 106.063 147.52 106.146 147.419 106.146V106.144ZM309.258 99.1658H17.5338C17.4276 99.1658 17.3421 99.0803 17.3421 98.9741V98.9326C17.3421 98.8264 17.4276 98.7409 17.5338 98.7409H309.261C309.367 98.7409 309.452 98.8264 309.452 98.9326V98.9741C309.452 99.0803 309.367 99.1658 309.263 99.1658H309.258ZM14.624 99.1658H0.19174C0.0855056 99.1658 0 99.0803 0 98.9741V98.9326C0 98.8264 0.0855056 98.7409 0.19174 98.7409H14.6266C14.7329 98.7409 14.8184 98.8264 14.8184 98.9326V98.9741C14.8184 99.0803 14.7329 99.1658 14.6266 99.1658H14.624ZM329.248 99.1658H313.466C313.36 99.1658 313.274 99.0803 313.274 98.9741V98.9326C313.274 98.8264 313.36 98.7409 313.466 98.7409H329.248C329.354 98.7409 329.44 98.8264 329.44 98.9326V98.9741C329.44 99.0803 329.354 99.1658 329.248 99.1658Z" fill="#202A5E"/>
<path d="M14.1451 32.3471H51.042C51.042 32.3471 53.2133 30.9738 48.3033 30.3597C43.3932 29.7457 44.7898 26.2088 43.6004 26.8229C42.4111 27.437 41.2711 29.4736 39.1567 26.7504C36.1071 22.8249 33.5756 19.8244 31.9743 23.9779C30.373 28.1288 28.5178 27.2634 27.6861 26.3384C26.1884 24.6723 23.6025 23.6463 22.2603 26.3384C20.9182 29.0305 18.8453 25.9135 17.3502 25.7476C15.9537 25.5948 16.1609 29.4373 13.9922 29.8985C11.8209 30.3597 9.85685 29.8985 9.91126 30.8987C9.96308 31.8988 13.6839 32.3497 14.1477 32.3497L14.1451 32.3471ZM127.787 10.3696H164.684C164.684 10.3696 166.855 8.99632 161.945 8.38223C157.035 7.76814 158.432 4.23132 157.243 4.84541C156.053 5.4595 154.913 7.49608 152.799 4.77286C149.749 0.847377 147.218 -2.15309 145.616 2.00041C144.015 6.15131 142.16 5.28589 141.328 4.36088C139.83 2.69482 137.245 1.66875 135.902 4.36088C134.56 7.05301 132.487 3.93594 130.992 3.77011C129.596 3.61724 129.803 7.45981 127.634 7.92102C125.463 8.38223 123.499 7.92102 123.551 8.92117C123.603 9.92133 127.323 10.3722 127.787 10.3722V10.3696ZM245.94 47.7614H282.837C282.837 47.7614 285.009 46.3882 280.098 45.7741C275.188 45.16 276.585 41.6232 275.396 42.2372C274.206 42.8513 273.066 44.8879 270.952 42.1647C267.902 38.2392 265.371 35.2387 263.769 39.3922C262.168 43.5432 260.313 42.6777 259.481 41.7527C257.984 40.0867 255.398 39.0606 254.056 41.7527C252.713 44.4448 250.64 41.3278 249.145 41.1619C247.749 41.0091 247.956 44.8516 245.787 45.3129C243.616 45.7741 241.652 45.3129 241.704 46.313C241.756 47.3132 245.476 47.764 245.94 47.764V47.7614Z" fill="#C8CBE3"/>
<path d="M91.3232 31.0075L86.7059 43.2322C86.4986 43.7815 86.0296 44.1883 85.457 44.3153C85.1253 44.3904 84.7807 44.3645 84.4646 44.2453L66.581 37.4904C66.2104 37.3505 65.8969 37.0862 65.6948 36.7442C65.4279 36.2907 65.3813 35.7414 65.5679 35.2491L70.1852 23.0244C70.3199 22.6694 70.566 22.3689 70.8873 22.1668C71.3485 21.8766 71.9186 21.8196 72.4264 22.0113L90.3101 28.7662C90.8179 28.958 91.2092 29.3777 91.362 29.8985C91.4709 30.2613 91.4553 30.6525 91.3206 31.0075H91.3232Z" fill="#FFBA61"/>
<path d="M91.4365 30.3519C91.4236 29.743 91.0893 29.186 90.5607 28.8828C90.5426 29.0098 90.5115 29.1341 90.4649 29.2533L85.8476 41.478C85.6403 42.0273 85.1713 42.4341 84.5987 42.5611C84.267 42.6362 83.9224 42.6103 83.6063 42.4911L65.7227 35.7362C65.6372 35.7025 65.5543 35.6636 65.4739 35.6196C65.4195 36.0083 65.4972 36.4047 65.6968 36.7441C65.8963 37.0861 66.2098 37.3504 66.5829 37.4904L84.4665 44.2453C84.7826 44.3645 85.1273 44.3904 85.4589 44.3153C86.0315 44.1883 86.5005 43.7815 86.7078 43.2322L91.3251 31.0075C91.4054 30.7976 91.4417 30.5774 91.4365 30.3519Z" fill="#F5AC4F"/>
<path d="M78.7589 32.3056L65.6973 36.7415C65.7802 36.884 65.8838 37.0162 66.0082 37.1302L78.5438 32.873L84.9464 44.3515C85.1174 44.3645 85.291 44.3515 85.4594 44.3152L78.7615 32.3056H78.7589Z" fill="#EBA347"/>
<path d="M91.3216 31.0075L90.337 32.1424L81.0454 34.5884C80.053 34.8501 79.0218 34.7957 78.0605 34.4329C77.0992 34.0702 76.2908 33.4276 75.7181 32.5777L70.3624 24.5998L70.1836 23.0244C70.3183 22.6694 70.5645 22.3689 70.8858 22.1668C71.347 21.8766 71.917 21.8196 72.4249 22.0113L90.3085 28.7662C90.8163 28.958 91.2076 29.3777 91.3605 29.8985C91.4693 30.2613 91.4538 30.6525 91.319 31.0049L91.3216 31.0075Z" fill="#EBA347"/>
<path d="M91.4369 30.352L89.9004 31.7537L80.9431 34.1609C79.0956 34.6609 77.1368 33.9199 76.0822 32.3238L70.9545 24.5946L70.7031 22.2989C70.7627 22.2497 70.8275 22.203 70.8923 22.1616C71.3535 21.8714 71.9235 21.8144 72.4314 22.0061L90.315 28.7611C90.8228 28.9528 91.2141 29.3725 91.367 29.8934C91.411 30.041 91.4343 30.1939 91.4395 30.3468L91.4369 30.352Z" fill="#FFC57A"/>
<path d="M68.6034 31.9636C69.0439 30.6862 69.5103 29.4165 70 28.1573C70.1736 27.7142 70.456 27.1986 70.4327 26.714C70.4249 26.5793 70.228 26.5482 70.1555 26.6441C69.8083 26.9628 69.6398 27.5328 69.4611 27.9526C69.2382 28.4734 69.0258 28.9968 68.8185 29.5254C68.5205 30.2923 68.2381 31.0619 67.9712 31.8418C67.8831 32.0983 67.7898 32.2719 67.9479 32.5155C68.0075 32.6062 68.1344 32.6139 68.2251 32.5802C68.492 32.487 68.5205 32.202 68.6034 31.9636ZM68.0722 33.5208C68.0567 33.4301 68.0049 33.3472 67.9297 33.2928C67.8261 33.2177 67.6888 33.2047 67.5722 33.2565L67.5566 33.2669L67.4789 33.3135C67.44 33.342 67.4115 33.3783 67.3934 33.4198C67.3752 33.4457 67.3623 33.4768 67.3597 33.5079C67.3441 33.5519 67.3416 33.5985 67.3519 33.6452C67.3649 33.7048 67.3882 33.7592 67.4245 33.8084C67.453 33.8473 67.4892 33.8758 67.5307 33.8939C67.5696 33.9198 67.6162 33.9354 67.6629 33.938H67.681C67.8028 33.9457 67.9323 33.8991 68.0023 33.7955C68.0541 33.7151 68.0826 33.6219 68.0645 33.526L68.0722 33.5208Z" fill="#FFD59E"/>
<path d="M232.489 12.5435L237.845 24.4624C238.086 24.9962 238.039 25.6181 237.723 26.1104C237.542 26.3954 237.28 26.6234 236.969 26.7607L219.534 34.5987C219.171 34.762 218.764 34.7956 218.381 34.6946C217.873 34.5625 217.451 34.2049 217.236 33.7255L211.88 21.8066C211.724 21.4594 211.685 21.0733 211.771 20.7028C211.893 20.1716 212.255 19.7311 212.753 19.5083L230.188 11.6703C230.683 11.4475 231.256 11.4682 231.735 11.7299C232.069 11.9113 232.334 12.1963 232.489 12.5435Z" fill="#FFBA61"/>
<path d="M232.108 11.9993C231.997 11.8931 231.872 11.8024 231.738 11.7299C231.344 11.5148 230.883 11.4604 230.45 11.577C230.525 11.678 230.59 11.7869 230.644 11.9061L236 23.825C236.241 24.3588 236.194 24.9806 235.878 25.4729C235.697 25.758 235.435 25.986 235.124 26.1233L217.689 33.9613C217.606 33.9976 217.518 34.0287 217.43 34.0546C217.917 34.7049 218.793 34.933 219.534 34.5987L236.969 26.7607C237.277 26.6208 237.539 26.3954 237.723 26.1103C238.039 25.6154 238.083 24.9962 237.845 24.4624L232.489 12.5435C232.398 12.3388 232.269 12.1548 232.106 12.0019L232.108 11.9993Z" fill="#F5AC4F"/>
<path d="M224.507 22.33L218.387 34.692C218.547 34.7334 218.713 34.7542 218.882 34.749L224.756 22.8844L237.392 26.4964C237.524 26.385 237.638 26.2528 237.732 26.1077L224.509 22.3274L224.507 22.33Z" fill="#EBA347"/>
<path d="M232.489 12.5435L232.593 14.0437L227.737 22.3352C227.224 23.2161 226.444 23.9157 225.514 24.3303C224.584 24.7501 223.545 24.8692 222.545 24.6671L213.118 22.7938L211.88 21.804C211.724 21.4594 211.685 21.0707 211.771 20.7002C211.893 20.169 212.255 19.7285 212.753 19.5057L230.188 11.6677C230.683 11.4449 231.256 11.4656 231.735 11.7273C232.069 11.9087 232.334 12.1937 232.489 12.5409V12.5435Z" fill="#EBA347"/>
<path d="M232.109 11.9994L232.01 14.0774L227.364 22.1046C226.408 23.7603 224.499 24.6205 222.625 24.2344L213.538 22.3792L211.74 20.9308C211.797 20.3064 212.186 19.7622 212.759 19.5057L230.194 11.6677C230.689 11.4449 231.261 11.4656 231.741 11.7273C231.875 11.7999 232 11.8905 232.111 11.9968L232.109 11.9994Z" fill="#FFC57A"/>
<path d="M217.071 29.2559C216.721 28.533 216.379 27.8049 216.045 27.0743C215.817 26.5768 215.594 26.0741 215.374 25.574C215.182 25.1387 215.021 24.5739 214.661 24.2474C214.56 24.1567 214.4 24.2759 214.415 24.3951C214.394 24.8641 214.677 25.3875 214.845 25.8124C215.361 27.1002 215.926 28.3698 216.535 29.6187C216.654 29.8649 216.711 30.0514 216.993 30.1136C217.1 30.1369 217.193 30.0514 217.234 29.9659C217.356 29.712 217.177 29.4891 217.066 29.2611L217.071 29.2559ZM217.794 30.7355C217.719 30.6836 217.625 30.6603 217.532 30.6733C217.467 30.6836 217.41 30.7095 217.359 30.751C217.312 30.7899 217.276 30.8417 217.252 30.8987L217.247 30.9168L217.226 31.0049C217.219 31.0516 217.226 31.0982 217.242 31.1397C217.247 31.1708 217.26 31.1993 217.281 31.2252C217.302 31.2666 217.333 31.3003 217.372 31.3262C217.423 31.3599 217.478 31.3806 217.537 31.3884C217.584 31.3962 217.631 31.3884 217.675 31.3729C217.721 31.3625 217.763 31.3418 217.799 31.3107L217.812 31.2977C217.903 31.2174 217.962 31.093 217.936 30.9686C217.918 30.8754 217.872 30.7899 217.791 30.7329L217.794 30.7355Z" fill="#FFD59E"/>
<path d="M16.0625 59.7944H45.365V69.4073H35.5344V98.7227H25.8956V69.4073H16.0651V59.7944H16.0625ZM49.7698 59.7944H59.4086V73.4156H69.9414V59.7944H79.6242V98.7201H69.9414V82.9741H59.4086V98.7201H49.7698V59.7944ZM105.211 92.2968H94.2664L92.7454 98.7227H82.9019L94.6266 59.7969H105.141L116.863 98.7227H106.768L105.209 92.2968H105.211ZM103.211 83.8784L99.7673 69.884L96.36 83.8784H103.211ZM119.993 59.7944H128.995L140.743 81.3314V59.7944H149.829V98.7201H140.743L129.059 77.3463V98.7201H119.993V59.7944ZM156.276 59.7944H165.915V74.5039L176.012 59.7944H188.833L177.448 74.4884L189.343 98.7227H177.471L170.892 82.715L165.912 89.2238V98.7227H156.273V59.7969L156.276 59.7944ZM203.923 59.7944H214.632L220.918 72.9259L227.217 59.7944H237.867L225.738 82.417V98.7201H216.076V82.417L203.923 59.7944ZM237.141 79.2844C237.141 72.9285 238.558 67.9822 241.398 64.4428C244.235 60.9033 248.187 59.131 253.25 59.131C258.313 59.131 262.443 60.8697 265.252 64.3495C268.06 67.8293 269.465 72.7005 269.465 78.9683C269.465 83.5183 268.851 87.2494 267.625 90.1618C266.397 93.0742 264.625 95.3388 262.306 96.9582C259.987 98.5776 257.095 99.3886 253.633 99.3886C250.172 99.3886 247.202 98.689 244.899 97.2898C242.593 95.8907 240.724 93.6779 239.292 90.6515C237.859 87.6251 237.144 83.837 237.144 79.287L237.141 79.2844ZM246.78 79.3389C246.78 83.2695 247.365 86.0938 248.537 87.8091C249.708 89.527 251.299 90.3846 253.315 90.3846C255.33 90.3846 256.989 89.5451 258.124 87.8635C259.258 86.1819 259.826 83.1633 259.826 78.8077C259.826 75.1439 259.233 72.4647 258.048 70.7753C256.864 69.086 255.258 68.2387 253.229 68.2387C251.2 68.2387 249.726 69.0989 248.547 70.8142C247.368 72.5321 246.78 75.3719 246.78 79.3389ZM294.958 59.7969H304.576V82.9897C304.576 85.2906 304.289 87.4619 303.714 89.5036C303.138 91.548 302.239 93.3333 301.011 94.8646C299.783 96.3959 298.495 97.4686 297.148 98.0879C295.274 98.9533 293.025 99.3886 290.403 99.3886C288.885 99.3886 287.229 99.2565 285.434 98.9922C283.638 98.7253 282.138 98.2019 280.933 97.4142C279.728 96.6265 278.624 95.5072 277.624 94.0588C276.624 92.6078 275.94 91.1127 275.569 89.5736C274.973 87.0965 274.675 84.9045 274.675 82.9923V59.7995H284.293V83.5442C284.293 85.6663 284.765 87.3246 285.708 88.519C286.651 89.7135 287.96 90.3095 289.634 90.3095C291.307 90.3095 292.595 89.7213 293.538 88.545C294.482 87.3686 294.953 85.7025 294.953 83.5442V59.7995L294.958 59.7969Z" fill="#088F8F"/>
<path d="M111.914 30.3079L111.167 26.4912C111.154 26.429 111.108 26.3798 111.046 26.3669L107.244 25.5403C107.076 25.504 107.079 25.2605 107.247 25.2268L111.064 24.4806C111.126 24.4676 111.175 24.421 111.188 24.3588L112.015 20.5577C112.051 20.3892 112.295 20.3918 112.328 20.5603L113.074 24.3769C113.087 24.4391 113.134 24.4883 113.199 24.5013L117 25.3278C117.168 25.3641 117.166 25.6077 116.997 25.6414L113.181 26.3876C113.118 26.4005 113.069 26.4472 113.056 26.5094L112.23 30.3105C112.193 30.4815 111.95 30.4789 111.916 30.3079H111.914ZM269.257 30.3079L268.508 26.4912C268.495 26.429 268.448 26.3798 268.386 26.3669L264.585 25.5403C264.414 25.504 264.417 25.2605 264.588 25.2268L268.404 24.4806C268.467 24.4676 268.516 24.421 268.529 24.3588L269.355 20.5577C269.392 20.3892 269.635 20.3918 269.669 20.5603L270.415 24.3769C270.428 24.4391 270.475 24.4883 270.537 24.5013L274.338 25.3278C274.509 25.3641 274.506 25.6077 274.335 25.6414L270.519 26.3876C270.456 26.4005 270.407 26.4472 270.394 26.5094L269.568 30.3105C269.531 30.4815 269.288 30.4789 269.254 30.3079H269.257ZM183.528 50.3939L183.008 47.7277C183 47.6837 182.966 47.65 182.922 47.6396L180.269 47.0618C180.15 47.0359 180.152 46.8675 180.269 46.8441L182.935 46.3233C182.979 46.3156 183.013 46.2819 183.023 46.2378L183.598 43.5846C183.624 43.4654 183.793 43.468 183.816 43.5846L184.337 46.2508C184.345 46.2948 184.378 46.3285 184.422 46.3389L187.076 46.9167C187.195 46.9426 187.192 47.111 187.076 47.1344L184.409 47.6552C184.365 47.6629 184.332 47.6966 184.321 47.7407L183.746 50.3939C183.72 50.5131 183.552 50.5105 183.528 50.3939ZM30.5667 50.3939L30.0459 47.7277C30.0382 47.6837 30.0045 47.65 29.9604 47.6396L27.3072 47.0618C27.188 47.0359 27.1906 46.8675 27.3072 46.8441L29.9734 46.3233C30.0174 46.3156 30.0511 46.2819 30.0615 46.2378L30.6393 43.5846C30.6652 43.4654 30.8336 43.468 30.8569 43.5846L31.3778 46.2508C31.3855 46.2948 31.4192 46.3285 31.4633 46.3389L34.1165 46.9167C34.2357 46.9426 34.2331 47.111 34.1165 47.1344L31.4503 47.6552C31.4063 47.6629 31.3726 47.6966 31.3622 47.7407L30.7844 50.3939C30.7585 50.5131 30.5901 50.5105 30.5667 50.3939Z" fill="#C8CBE3"/>
<path d="M228.056 50.4821C228.807 50.4821 229.416 49.873 229.416 49.1217C229.416 48.3705 228.807 47.7614 228.056 47.7614C227.304 47.7614 226.695 48.3705 226.695 49.1217C226.695 49.873 227.304 50.4821 228.056 50.4821Z" fill="#29ABE2"/>
<path d="M85.456 11.7299C86.2073 11.7299 86.8163 11.1208 86.8163 10.3696C86.8163 9.61828 86.2073 9.00925 85.456 9.00925C84.7047 9.00925 84.0957 9.61828 84.0957 10.3696C84.0957 11.1208 84.7047 11.7299 85.456 11.7299Z" fill="#29ABE2"/>
<path d="M164.427 24.3096C165.178 24.3096 165.787 23.7005 165.787 22.9493C165.787 22.198 165.178 21.5889 164.427 21.5889C163.675 21.5889 163.066 22.198 163.066 22.9493C163.066 23.7005 163.675 24.3096 164.427 24.3096Z" fill="#FFBC47"/>
<path d="M92.7978 51.8424C93.5491 51.8424 94.1581 51.2333 94.1581 50.4821C94.1581 49.7308 93.5491 49.1217 92.7978 49.1217C92.0465 49.1217 91.4375 49.7308 91.4375 50.4821C91.4375 51.2333 92.0465 51.8424 92.7978 51.8424Z" fill="#FFBC47"/>
<path d="M284.675 10.3696C285.426 10.3696 286.035 9.76054 286.035 9.00926C286.035 8.25798 285.426 7.64894 284.675 7.64894C283.923 7.64894 283.314 8.25798 283.314 9.00926C283.314 9.76054 283.923 10.3696 284.675 10.3696Z" fill="#FFBC47"/>
<path d="M18.8603 43.9292C19.6116 43.9292 20.2206 43.3202 20.2206 42.5689C20.2206 41.8176 19.6116 41.2086 18.8603 41.2086C18.109 41.2086 17.5 41.8176 17.5 42.5689C17.5 43.3202 18.109 43.9292 18.8603 43.9292Z" fill="#FFBC47"/>
</svg>
