<svg width="18" height="18" viewBox="0 0 18 18" fill="none" xmlns="http://www.w3.org/2000/svg">
<path d="M16.364 4.07456C13.6394 3.80456 10.8985 3.66547 8.16581 3.66547C6.54581 3.66547 4.92581 3.74728 3.30581 3.91092L1.63672 4.07456" stroke="#E41717" stroke-width="1.22727" stroke-linecap="round" stroke-linejoin="round"/>
<path d="M6.13672 3.24818L6.31672 2.17636C6.44763 1.39909 6.54581 0.818176 7.92854 0.818176H10.0722C11.4549 0.818176 11.5613 1.43181 11.684 2.18454L11.864 3.24818" stroke="#E41717" stroke-width="1.22727" stroke-linecap="round" stroke-linejoin="round"/>
<path d="M14.6046 6.66L14.0728 14.8991C13.9828 16.1836 13.9091 17.1818 11.6264 17.1818H6.37369C4.09096 17.1818 4.01733 16.1836 3.92733 14.8991L3.39551 6.66" stroke="#E41717" stroke-width="1.22727" stroke-linecap="round" stroke-linejoin="round"/>
<path d="M7.63379 12.6818H10.3583" stroke="#E41717" stroke-width="1.22727" stroke-linecap="round" stroke-linejoin="round"/>
<path d="M6.9541 9.40909H11.045" stroke="#E41717" stroke-width="1.22727" stroke-linecap="round" stroke-linejoin="round"/>
</svg>
