<svg width="106" height="93" viewBox="0 0 106 93" fill="none" xmlns="http://www.w3.org/2000/svg">
<path d="M5.67969 78.4688H7.14453V84.1699C7.14453 84.8184 7.00391 85.3613 6.72266 85.7988C6.44141 86.2363 6.05859 86.5664 5.57422 86.7891C5.09375 87.0078 4.55664 87.1172 3.96289 87.1172C3.34961 87.1172 2.80273 87.0078 2.32227 86.7891C1.8418 86.5664 1.46289 86.2363 1.18555 85.7988C0.912109 85.3613 0.775391 84.8184 0.775391 84.1699V78.4688H2.24023V84.1699C2.24023 84.5801 2.31055 84.918 2.45117 85.1836C2.5918 85.4453 2.79102 85.6387 3.04883 85.7637C3.30664 85.8887 3.61133 85.9512 3.96289 85.9512C4.31445 85.9512 4.61719 85.8887 4.87109 85.7637C5.12891 85.6387 5.32812 85.4453 5.46875 85.1836C5.60938 84.918 5.67969 84.5801 5.67969 84.1699V78.4688ZM10.0215 81.8789V89.4375H8.60938V80.6602H9.91016L10.0215 81.8789ZM14.1523 83.7715V83.8945C14.1523 84.3555 14.0977 84.7832 13.9883 85.1777C13.8828 85.5684 13.7246 85.9102 13.5137 86.2031C13.3066 86.4922 13.0508 86.7168 12.7461 86.877C12.4414 87.0371 12.0898 87.1172 11.6914 87.1172C11.2969 87.1172 10.9512 87.0449 10.6543 86.9004C10.3613 86.752 10.1133 86.543 9.91016 86.2734C9.70703 86.0039 9.54297 85.6875 9.41797 85.3242C9.29688 84.957 9.21094 84.5547 9.16016 84.1172V83.6426C9.21094 83.1777 9.29688 82.7559 9.41797 82.377C9.54297 81.998 9.70703 81.6719 9.91016 81.3984C10.1133 81.125 10.3613 80.9141 10.6543 80.7656C10.9473 80.6172 11.2891 80.543 11.6797 80.543C12.0781 80.543 12.4316 80.6211 12.7402 80.7773C13.0488 80.9297 13.3086 81.1484 13.5195 81.4336C13.7305 81.7148 13.8887 82.0547 13.9941 82.4531C14.0996 82.8477 14.1523 83.2871 14.1523 83.7715ZM12.7402 83.8945V83.7715C12.7402 83.4785 12.7129 83.207 12.6582 82.957C12.6035 82.7031 12.5176 82.4805 12.4004 82.2891C12.2832 82.0977 12.1328 81.9492 11.9492 81.8438C11.7695 81.7344 11.5527 81.6797 11.2988 81.6797C11.0488 81.6797 10.834 81.7227 10.6543 81.8086C10.4746 81.8906 10.3242 82.0059 10.2031 82.1543C10.082 82.3027 9.98828 82.4766 9.92188 82.6758C9.85547 82.8711 9.80859 83.084 9.78125 83.3145V84.4512C9.82812 84.7324 9.9082 84.9902 10.0215 85.2246C10.1348 85.459 10.2949 85.6465 10.502 85.7871C10.7129 85.9238 10.9824 85.9922 11.3105 85.9922C11.5645 85.9922 11.7812 85.9375 11.9609 85.8281C12.1406 85.7188 12.2871 85.5684 12.4004 85.377C12.5176 85.1816 12.6035 84.957 12.6582 84.7031C12.7129 84.4492 12.7402 84.1797 12.7402 83.8945ZM16.8652 78V87H15.4473V78H16.8652ZM18.1426 83.9004V83.7656C18.1426 83.3086 18.209 82.8848 18.3418 82.4941C18.4746 82.0996 18.666 81.7578 18.916 81.4688C19.1699 81.1758 19.4785 80.9492 19.8418 80.7891C20.209 80.625 20.623 80.543 21.084 80.543C21.5488 80.543 21.9629 80.625 22.3262 80.7891C22.6934 80.9492 23.0039 81.1758 23.2578 81.4688C23.5117 81.7578 23.7051 82.0996 23.8379 82.4941C23.9707 82.8848 24.0371 83.3086 24.0371 83.7656V83.9004C24.0371 84.3574 23.9707 84.7812 23.8379 85.1719C23.7051 85.5625 23.5117 85.9043 23.2578 86.1973C23.0039 86.4863 22.6953 86.7129 22.332 86.877C21.9688 87.0371 21.5566 87.1172 21.0957 87.1172C20.6309 87.1172 20.2148 87.0371 19.8477 86.877C19.4844 86.7129 19.1758 86.4863 18.9219 86.1973C18.668 85.9043 18.4746 85.5625 18.3418 85.1719C18.209 84.7812 18.1426 84.3574 18.1426 83.9004ZM19.5547 83.7656V83.9004C19.5547 84.1855 19.584 84.4551 19.6426 84.709C19.7012 84.9629 19.793 85.1855 19.918 85.377C20.043 85.5684 20.2031 85.7188 20.3984 85.8281C20.5938 85.9375 20.8262 85.9922 21.0957 85.9922C21.3574 85.9922 21.584 85.9375 21.7754 85.8281C21.9707 85.7188 22.1309 85.5684 22.2559 85.377C22.3809 85.1855 22.4727 84.9629 22.5312 84.709C22.5938 84.4551 22.625 84.1855 22.625 83.9004V83.7656C22.625 83.4844 22.5938 83.2188 22.5312 82.9688C22.4727 82.7148 22.3789 82.4902 22.25 82.2949C22.125 82.0996 21.9648 81.9473 21.7695 81.8379C21.5781 81.7246 21.3496 81.668 21.084 81.668C20.8184 81.668 20.5879 81.7246 20.3926 81.8379C20.2012 81.9473 20.043 82.0996 19.918 82.2949C19.793 82.4902 19.7012 82.7148 19.6426 82.9688C19.584 83.2188 19.5547 83.4844 19.5547 83.7656ZM28.7949 85.7285V82.7051C28.7949 82.4785 28.7539 82.2832 28.6719 82.1191C28.5898 81.9551 28.4648 81.8281 28.2969 81.7383C28.1328 81.6484 27.9258 81.6035 27.6758 81.6035C27.4453 81.6035 27.2461 81.6426 27.0781 81.7207C26.9102 81.7988 26.7793 81.9043 26.6855 82.0371C26.5918 82.1699 26.5449 82.3203 26.5449 82.4883H25.1387C25.1387 82.2383 25.1992 81.9961 25.3203 81.7617C25.4414 81.5273 25.6172 81.3184 25.8477 81.1348C26.0781 80.9512 26.3535 80.8066 26.6738 80.7012C26.9941 80.5957 27.3535 80.543 27.752 80.543C28.2285 80.543 28.6504 80.623 29.0176 80.7832C29.3887 80.9434 29.6797 81.1855 29.8906 81.5098C30.1055 81.8301 30.2129 82.2324 30.2129 82.7168V85.5352C30.2129 85.8242 30.2324 86.084 30.2715 86.3145C30.3145 86.541 30.375 86.7383 30.4531 86.9062V87H29.0059C28.9395 86.8477 28.8867 86.6543 28.8477 86.4199C28.8125 86.1816 28.7949 85.9512 28.7949 85.7285ZM29 83.1445L29.0117 84.0176H27.998C27.7363 84.0176 27.5059 84.043 27.3066 84.0938C27.1074 84.1406 26.9414 84.2109 26.8086 84.3047C26.6758 84.3984 26.5762 84.5117 26.5098 84.6445C26.4434 84.7773 26.4102 84.9277 26.4102 85.0957C26.4102 85.2637 26.4492 85.418 26.5273 85.5586C26.6055 85.6953 26.7188 85.8027 26.8672 85.8809C27.0195 85.959 27.2031 85.998 27.418 85.998C27.707 85.998 27.959 85.9395 28.1738 85.8223C28.3926 85.7012 28.5645 85.5547 28.6895 85.3828C28.8145 85.207 28.8809 85.041 28.8887 84.8848L29.3457 85.5117C29.2988 85.6719 29.2188 85.8438 29.1055 86.0273C28.9922 86.2109 28.8438 86.3867 28.6602 86.5547C28.4805 86.7188 28.2637 86.8535 28.0098 86.959C27.7598 87.0645 27.4707 87.1172 27.1426 87.1172C26.7285 87.1172 26.3594 87.0352 26.0352 86.8711C25.7109 86.7031 25.457 86.4785 25.2734 86.1973C25.0898 85.9121 24.998 85.5898 24.998 85.2305C24.998 84.8945 25.0605 84.5977 25.1855 84.3398C25.3145 84.0781 25.502 83.8594 25.748 83.6836C25.998 83.5078 26.3027 83.375 26.6621 83.2852C27.0215 83.1914 27.4316 83.1445 27.8926 83.1445H29ZM35.5566 85.6875V78H36.9746V87H35.6914L35.5566 85.6875ZM31.4316 83.9004V83.7773C31.4316 83.2969 31.4883 82.8594 31.6016 82.4648C31.7148 82.0664 31.8789 81.7246 32.0938 81.4395C32.3086 81.1504 32.5703 80.9297 32.8789 80.7773C33.1875 80.6211 33.5352 80.543 33.9219 80.543C34.3047 80.543 34.6406 80.6172 34.9297 80.7656C35.2188 80.9141 35.4648 81.127 35.668 81.4043C35.8711 81.6777 36.0332 82.0059 36.1543 82.3887C36.2754 82.7676 36.3613 83.1895 36.4121 83.6543V84.0469C36.3613 84.5 36.2754 84.9141 36.1543 85.2891C36.0332 85.6641 35.8711 85.9883 35.668 86.2617C35.4648 86.5352 35.2168 86.7461 34.9238 86.8945C34.6348 87.043 34.2969 87.1172 33.9102 87.1172C33.5273 87.1172 33.1816 87.0371 32.873 86.877C32.5684 86.7168 32.3086 86.4922 32.0938 86.2031C31.8789 85.9141 31.7148 85.5742 31.6016 85.1836C31.4883 84.7891 31.4316 84.3613 31.4316 83.9004ZM32.8438 83.7773V83.9004C32.8438 84.1895 32.8691 84.459 32.9199 84.709C32.9746 84.959 33.0586 85.1797 33.1719 85.3711C33.2852 85.5586 33.4316 85.707 33.6113 85.8164C33.7949 85.9219 34.0137 85.9746 34.2676 85.9746C34.5879 85.9746 34.8516 85.9043 35.0586 85.7637C35.2656 85.623 35.4277 85.4336 35.5449 85.1953C35.666 84.9531 35.748 84.6836 35.791 84.3867V83.3262C35.7676 83.0957 35.7188 82.8809 35.6445 82.6816C35.5742 82.4824 35.4785 82.3086 35.3574 82.1602C35.2363 82.0078 35.0859 81.8906 34.9062 81.8086C34.7305 81.7227 34.5215 81.6797 34.2793 81.6797C34.0215 81.6797 33.8027 81.7344 33.623 81.8438C33.4434 81.9531 33.2949 82.1035 33.1777 82.2949C33.0645 82.4863 32.9805 82.709 32.9258 82.9629C32.8711 83.2168 32.8438 83.4883 32.8438 83.7773ZM44.8203 83.8184H42.5996V82.6523H44.8203C45.207 82.6523 45.5195 82.5898 45.7578 82.4648C45.9961 82.3398 46.1699 82.168 46.2793 81.9492C46.3926 81.7266 46.4492 81.4727 46.4492 81.1875C46.4492 80.918 46.3926 80.666 46.2793 80.4316C46.1699 80.1934 45.9961 80.002 45.7578 79.8574C45.5195 79.7129 45.207 79.6406 44.8203 79.6406H43.0508V87H41.5801V78.4688H44.8203C45.4805 78.4688 46.041 78.5859 46.502 78.8203C46.9668 79.0508 47.3203 79.3711 47.5625 79.7812C47.8047 80.1875 47.9258 80.6523 47.9258 81.1758C47.9258 81.7266 47.8047 82.1992 47.5625 82.5938C47.3203 82.9883 46.9668 83.291 46.502 83.502C46.041 83.7129 45.4805 83.8184 44.8203 83.8184ZM50.5215 81.8672V87H49.1094V80.6602H50.457L50.5215 81.8672ZM52.4609 80.6191L52.4492 81.9316C52.3633 81.916 52.2695 81.9043 52.168 81.8965C52.0703 81.8887 51.9727 81.8848 51.875 81.8848C51.6328 81.8848 51.4199 81.9199 51.2363 81.9902C51.0527 82.0566 50.8984 82.1543 50.7734 82.2832C50.6523 82.4082 50.5586 82.5605 50.4922 82.7402C50.4258 82.9199 50.3867 83.1211 50.375 83.3438L50.0527 83.3672C50.0527 82.9688 50.0918 82.5996 50.1699 82.2598C50.248 81.9199 50.3652 81.6211 50.5215 81.3633C50.6816 81.1055 50.8809 80.9043 51.1191 80.7598C51.3613 80.6152 51.6406 80.543 51.957 80.543C52.043 80.543 52.1348 80.5508 52.2324 80.5664C52.334 80.582 52.4102 80.5996 52.4609 80.6191ZM56.0234 87.1172C55.5547 87.1172 55.1309 87.041 54.752 86.8887C54.377 86.7324 54.0566 86.5156 53.791 86.2383C53.5293 85.9609 53.3281 85.6348 53.1875 85.2598C53.0469 84.8848 52.9766 84.4805 52.9766 84.0469V83.8125C52.9766 83.3164 53.0488 82.8672 53.1934 82.4648C53.3379 82.0625 53.5391 81.7188 53.7969 81.4336C54.0547 81.1445 54.3594 80.9238 54.7109 80.7715C55.0625 80.6191 55.4434 80.543 55.8535 80.543C56.3066 80.543 56.7031 80.6191 57.043 80.7715C57.3828 80.9238 57.6641 81.1387 57.8867 81.416C58.1133 81.6895 58.2812 82.0156 58.3906 82.3945C58.5039 82.7734 58.5605 83.1914 58.5605 83.6484V84.252H53.6621V83.2383H57.166V83.127C57.1582 82.873 57.1074 82.6348 57.0137 82.4121C56.9238 82.1895 56.7852 82.0098 56.5977 81.873C56.4102 81.7363 56.1602 81.668 55.8477 81.668C55.6133 81.668 55.4043 81.7188 55.2207 81.8203C55.041 81.918 54.8906 82.0605 54.7695 82.248C54.6484 82.4355 54.5547 82.6621 54.4883 82.9277C54.4258 83.1895 54.3945 83.4844 54.3945 83.8125V84.0469C54.3945 84.3242 54.4316 84.582 54.5059 84.8203C54.584 85.0547 54.6973 85.2598 54.8457 85.4355C54.9941 85.6113 55.1738 85.75 55.3848 85.8516C55.5957 85.9492 55.8359 85.998 56.1055 85.998C56.4453 85.998 56.748 85.9297 57.0137 85.793C57.2793 85.6562 57.5098 85.4629 57.7051 85.2129L58.4492 85.9336C58.3125 86.1328 58.1348 86.3242 57.916 86.5078C57.6973 86.6875 57.4297 86.834 57.1133 86.9473C56.8008 87.0605 56.4375 87.1172 56.0234 87.1172ZM63.2188 85.2832C63.2188 85.1426 63.1836 85.0156 63.1133 84.9023C63.043 84.7852 62.9082 84.6797 62.709 84.5859C62.5137 84.4922 62.2246 84.4062 61.8418 84.3281C61.5059 84.2539 61.1973 84.166 60.916 84.0645C60.6387 83.959 60.4004 83.832 60.2012 83.6836C60.002 83.5352 59.8477 83.3594 59.7383 83.1562C59.6289 82.9531 59.5742 82.7188 59.5742 82.4531C59.5742 82.1953 59.6309 81.9512 59.7441 81.7207C59.8574 81.4902 60.0195 81.2871 60.2305 81.1113C60.4414 80.9355 60.6973 80.7969 60.998 80.6953C61.3027 80.5938 61.6426 80.543 62.0176 80.543C62.5488 80.543 63.0039 80.6328 63.3828 80.8125C63.7656 80.9883 64.0586 81.2285 64.2617 81.5332C64.4648 81.834 64.5664 82.1738 64.5664 82.5527H63.1543C63.1543 82.3848 63.1113 82.2285 63.0254 82.084C62.9434 81.9355 62.8184 81.8164 62.6504 81.7266C62.4824 81.6328 62.2715 81.5859 62.0176 81.5859C61.7754 81.5859 61.5742 81.625 61.4141 81.7031C61.2578 81.7773 61.1406 81.875 61.0625 81.9961C60.9883 82.1172 60.9512 82.25 60.9512 82.3945C60.9512 82.5 60.9707 82.5957 61.0098 82.6816C61.0527 82.7637 61.123 82.8398 61.2207 82.9102C61.3184 82.9766 61.4512 83.0391 61.6191 83.0977C61.791 83.1562 62.0059 83.2129 62.2637 83.2676C62.748 83.3691 63.1641 83.5 63.5117 83.6602C63.8633 83.8164 64.1328 84.0195 64.3203 84.2695C64.5078 84.5156 64.6016 84.8281 64.6016 85.207C64.6016 85.4883 64.541 85.7461 64.4199 85.9805C64.3027 86.2109 64.1309 86.4121 63.9043 86.584C63.6777 86.752 63.4062 86.8828 63.0898 86.9766C62.7773 87.0703 62.4258 87.1172 62.0352 87.1172C61.4609 87.1172 60.9746 87.0156 60.5762 86.8125C60.1777 86.6055 59.875 86.3418 59.668 86.0215C59.4648 85.6973 59.3633 85.3613 59.3633 85.0137H60.7285C60.7441 85.2754 60.8164 85.4844 60.9453 85.6406C61.0781 85.793 61.2422 85.9043 61.4375 85.9746C61.6367 86.041 61.8418 86.0742 62.0527 86.0742C62.3066 86.0742 62.5195 86.041 62.6914 85.9746C62.8633 85.9043 62.9941 85.8105 63.084 85.6934C63.1738 85.5723 63.2188 85.4355 63.2188 85.2832ZM68.4277 85.9922C68.6582 85.9922 68.8652 85.9473 69.0488 85.8574C69.2363 85.7637 69.3867 85.6348 69.5 85.4707C69.6172 85.3066 69.6816 85.1172 69.6934 84.9023H71.0234C71.0156 85.3125 70.8945 85.6855 70.6602 86.0215C70.4258 86.3574 70.1152 86.625 69.7285 86.8242C69.3418 87.0195 68.9141 87.1172 68.4453 87.1172C67.9609 87.1172 67.5391 87.0352 67.1797 86.8711C66.8203 86.7031 66.5215 86.4727 66.2832 86.1797C66.0449 85.8867 65.8652 85.5488 65.7441 85.166C65.627 84.7832 65.5684 84.373 65.5684 83.9355V83.7305C65.5684 83.293 65.627 82.8828 65.7441 82.5C65.8652 82.1133 66.0449 81.7734 66.2832 81.4805C66.5215 81.1875 66.8203 80.959 67.1797 80.7949C67.5391 80.627 67.959 80.543 68.4395 80.543C68.9473 80.543 69.3926 80.6445 69.7754 80.8477C70.1582 81.0469 70.459 81.3262 70.6777 81.6855C70.9004 82.041 71.0156 82.4551 71.0234 82.9277H69.6934C69.6816 82.6934 69.623 82.4824 69.5176 82.2949C69.416 82.1035 69.2715 81.9512 69.084 81.8379C68.9004 81.7246 68.6797 81.668 68.4219 81.668C68.1367 81.668 67.9004 81.7266 67.7129 81.8438C67.5254 81.957 67.3789 82.1133 67.2734 82.3125C67.168 82.5078 67.0918 82.7285 67.0449 82.9746C67.002 83.2168 66.9805 83.4688 66.9805 83.7305V83.9355C66.9805 84.1973 67.002 84.4512 67.0449 84.6973C67.0879 84.9434 67.1621 85.1641 67.2676 85.3594C67.377 85.5508 67.5254 85.7051 67.7129 85.8223C67.9004 85.9355 68.1387 85.9922 68.4277 85.9922ZM73.5254 81.8672V87H72.1133V80.6602H73.4609L73.5254 81.8672ZM75.4648 80.6191L75.4531 81.9316C75.3672 81.916 75.2734 81.9043 75.1719 81.8965C75.0742 81.8887 74.9766 81.8848 74.8789 81.8848C74.6367 81.8848 74.4238 81.9199 74.2402 81.9902C74.0566 82.0566 73.9023 82.1543 73.7773 82.2832C73.6562 82.4082 73.5625 82.5605 73.4961 82.7402C73.4297 82.9199 73.3906 83.1211 73.3789 83.3438L73.0566 83.3672C73.0566 82.9688 73.0957 82.5996 73.1738 82.2598C73.252 81.9199 73.3691 81.6211 73.5254 81.3633C73.6855 81.1055 73.8848 80.9043 74.123 80.7598C74.3652 80.6152 74.6445 80.543 74.9609 80.543C75.0469 80.543 75.1387 80.5508 75.2363 80.5664C75.3379 80.582 75.4141 80.5996 75.4648 80.6191ZM77.8613 80.6602V87H76.4434V80.6602H77.8613ZM76.3496 78.9961C76.3496 78.7812 76.4199 78.6035 76.5605 78.4629C76.7051 78.3184 76.9043 78.2461 77.1582 78.2461C77.4082 78.2461 77.6055 78.3184 77.75 78.4629C77.8945 78.6035 77.9668 78.7812 77.9668 78.9961C77.9668 79.207 77.8945 79.3828 77.75 79.5234C77.6055 79.6641 77.4082 79.7344 77.1582 79.7344C76.9043 79.7344 76.7051 79.6641 76.5605 79.5234C76.4199 79.3828 76.3496 79.207 76.3496 78.9961ZM80.8262 81.8789V89.4375H79.4141V80.6602H80.7148L80.8262 81.8789ZM84.957 83.7715V83.8945C84.957 84.3555 84.9023 84.7832 84.793 85.1777C84.6875 85.5684 84.5293 85.9102 84.3184 86.2031C84.1113 86.4922 83.8555 86.7168 83.5508 86.877C83.2461 87.0371 82.8945 87.1172 82.4961 87.1172C82.1016 87.1172 81.7559 87.0449 81.459 86.9004C81.166 86.752 80.918 86.543 80.7148 86.2734C80.5117 86.0039 80.3477 85.6875 80.2227 85.3242C80.1016 84.957 80.0156 84.5547 79.9648 84.1172V83.6426C80.0156 83.1777 80.1016 82.7559 80.2227 82.377C80.3477 81.998 80.5117 81.6719 80.7148 81.3984C80.918 81.125 81.166 80.9141 81.459 80.7656C81.752 80.6172 82.0938 80.543 82.4844 80.543C82.8828 80.543 83.2363 80.6211 83.5449 80.7773C83.8535 80.9297 84.1133 81.1484 84.3242 81.4336C84.5352 81.7148 84.6934 82.0547 84.7988 82.4531C84.9043 82.8477 84.957 83.2871 84.957 83.7715ZM83.5449 83.8945V83.7715C83.5449 83.4785 83.5176 83.207 83.4629 82.957C83.4082 82.7031 83.3223 82.4805 83.2051 82.2891C83.0879 82.0977 82.9375 81.9492 82.7539 81.8438C82.5742 81.7344 82.3574 81.6797 82.1035 81.6797C81.8535 81.6797 81.6387 81.7227 81.459 81.8086C81.2793 81.8906 81.1289 82.0059 81.0078 82.1543C80.8867 82.3027 80.793 82.4766 80.7266 82.6758C80.6602 82.8711 80.6133 83.084 80.5859 83.3145V84.4512C80.6328 84.7324 80.7129 84.9902 80.8262 85.2246C80.9395 85.459 81.0996 85.6465 81.3066 85.7871C81.5176 85.9238 81.7871 85.9922 82.1152 85.9922C82.3691 85.9922 82.5859 85.9375 82.7656 85.8281C82.9453 85.7188 83.0918 85.5684 83.2051 85.377C83.3223 85.1816 83.4082 84.957 83.4629 84.7031C83.5176 84.4492 83.5449 84.1797 83.5449 83.8945ZM89.0645 80.6602V81.6914H85.4902V80.6602H89.0645ZM86.5215 79.1074H87.9336V85.248C87.9336 85.4434 87.9609 85.5938 88.0156 85.6992C88.0742 85.8008 88.1543 85.8691 88.2559 85.9043C88.3574 85.9395 88.4766 85.957 88.6133 85.957C88.7109 85.957 88.8047 85.9512 88.8945 85.9395C88.9844 85.9277 89.0566 85.916 89.1113 85.9043L89.1172 86.9824C89 87.0176 88.8633 87.0488 88.707 87.0762C88.5547 87.1035 88.3789 87.1172 88.1797 87.1172C87.8555 87.1172 87.5684 87.0605 87.3184 86.9473C87.0684 86.8301 86.873 86.6406 86.7324 86.3789C86.5918 86.1172 86.5215 85.7695 86.5215 85.3359V79.1074ZM91.666 80.6602V87H90.248V80.6602H91.666ZM90.1543 78.9961C90.1543 78.7812 90.2246 78.6035 90.3652 78.4629C90.5098 78.3184 90.709 78.2461 90.9629 78.2461C91.2129 78.2461 91.4102 78.3184 91.5547 78.4629C91.6992 78.6035 91.7715 78.7812 91.7715 78.9961C91.7715 79.207 91.6992 79.3828 91.5547 79.5234C91.4102 79.6641 91.2129 79.7344 90.9629 79.7344C90.709 79.7344 90.5098 79.6641 90.3652 79.5234C90.2246 79.3828 90.1543 79.207 90.1543 78.9961ZM92.9434 83.9004V83.7656C92.9434 83.3086 93.0098 82.8848 93.1426 82.4941C93.2754 82.0996 93.4668 81.7578 93.7168 81.4688C93.9707 81.1758 94.2793 80.9492 94.6426 80.7891C95.0098 80.625 95.4238 80.543 95.8848 80.543C96.3496 80.543 96.7637 80.625 97.127 80.7891C97.4941 80.9492 97.8047 81.1758 98.0586 81.4688C98.3125 81.7578 98.5059 82.0996 98.6387 82.4941C98.7715 82.8848 98.8379 83.3086 98.8379 83.7656V83.9004C98.8379 84.3574 98.7715 84.7812 98.6387 85.1719C98.5059 85.5625 98.3125 85.9043 98.0586 86.1973C97.8047 86.4863 97.4961 86.7129 97.1328 86.877C96.7695 87.0371 96.3574 87.1172 95.8965 87.1172C95.4316 87.1172 95.0156 87.0371 94.6484 86.877C94.2852 86.7129 93.9766 86.4863 93.7227 86.1973C93.4688 85.9043 93.2754 85.5625 93.1426 85.1719C93.0098 84.7812 92.9434 84.3574 92.9434 83.9004ZM94.3555 83.7656V83.9004C94.3555 84.1855 94.3848 84.4551 94.4434 84.709C94.502 84.9629 94.5938 85.1855 94.7188 85.377C94.8438 85.5684 95.0039 85.7188 95.1992 85.8281C95.3945 85.9375 95.627 85.9922 95.8965 85.9922C96.1582 85.9922 96.3848 85.9375 96.5762 85.8281C96.7715 85.7188 96.9316 85.5684 97.0566 85.377C97.1816 85.1855 97.2734 84.9629 97.332 84.709C97.3945 84.4551 97.4258 84.1855 97.4258 83.9004V83.7656C97.4258 83.4844 97.3945 83.2188 97.332 82.9688C97.2734 82.7148 97.1797 82.4902 97.0508 82.2949C96.9258 82.0996 96.7656 81.9473 96.5703 81.8379C96.3789 81.7246 96.1504 81.668 95.8848 81.668C95.6191 81.668 95.3887 81.7246 95.1934 81.8379C95.002 81.9473 94.8438 82.0996 94.7188 82.2949C94.5938 82.4902 94.502 82.7148 94.4434 82.9688C94.3848 83.2188 94.3555 83.4844 94.3555 83.7656ZM101.422 82.0137V87H100.01V80.6602H101.34L101.422 82.0137ZM101.17 83.5957L100.713 83.5898C100.717 83.1406 100.779 82.7285 100.9 82.3535C101.025 81.9785 101.197 81.6562 101.416 81.3867C101.639 81.1172 101.904 80.9102 102.213 80.7656C102.521 80.6172 102.865 80.543 103.244 80.543C103.549 80.543 103.824 80.5859 104.07 80.6719C104.32 80.7539 104.533 80.8887 104.709 81.0762C104.889 81.2637 105.025 81.5078 105.119 81.8086C105.213 82.1055 105.26 82.4707 105.26 82.9043V87H103.842V82.8984C103.842 82.5938 103.797 82.3535 103.707 82.1777C103.621 81.998 103.494 81.8711 103.326 81.7969C103.162 81.7188 102.957 81.6797 102.711 81.6797C102.469 81.6797 102.252 81.7305 102.061 81.832C101.869 81.9336 101.707 82.0723 101.574 82.248C101.445 82.4238 101.346 82.627 101.275 82.8574C101.205 83.0879 101.17 83.334 101.17 83.5957Z" fill="#121212"/>
<path d="M23.0062 42.5915C22.8562 36.6915 25.4362 32.6815 29.5662 30.9815C30.9462 30.4115 32.3962 30.2115 33.9062 30.2215C37.0062 30.2515 39.5062 31.5015 41.6362 33.6715C44.0862 36.1615 46.5562 38.6315 49.0462 41.0715C49.5862 41.6015 49.5962 42.5015 49.1662 42.9515C48.6762 43.4615 47.9162 43.5115 47.3262 43.0015C47.0662 42.7715 46.9362 42.8615 46.7462 43.0515C45.2962 44.5015 43.8362 45.9515 42.3862 47.4015C40.5862 49.2015 38.7862 51.0115 36.9762 52.8115C36.6062 53.1915 36.2462 53.5815 35.8462 53.9315C35.5762 54.1715 35.5862 54.3315 35.8462 54.5815C36.9162 55.6215 37.9562 56.6815 39.0162 57.7315C39.9662 58.6715 40.8962 59.6215 41.8562 60.5415C43.1162 61.7315 44.6962 62.2015 46.3762 62.3915C46.6462 62.4215 46.9262 62.4216 47.1962 62.4715C47.8262 62.6115 48.2362 63.1615 48.1962 63.7715C48.1562 64.3915 47.6962 64.9715 47.0862 64.9915C45.3662 65.0315 43.7262 64.6415 42.1962 63.8415C40.2662 62.8316 38.8262 61.2215 37.3162 59.7015C33.5862 55.9615 29.8362 52.2315 26.1062 48.4915C24.0962 46.4715 23.0562 44.0315 23.0062 42.5915ZM25.5362 41.2715C25.5662 42.9415 26.1662 44.7915 27.5862 46.2715C29.5162 48.2815 31.5162 50.2315 33.4762 52.2115C33.7262 52.4615 33.8462 52.2915 34.0062 52.1315C37.6362 48.5015 41.2562 44.8715 44.8962 41.2515C45.1462 41.0015 45.1662 40.8715 44.9062 40.6115C43.0062 38.7315 41.1362 36.8315 39.2362 34.9615C38.1762 33.9215 36.8862 33.2715 35.4362 32.9515C32.9162 32.3915 30.6462 33.0215 28.5962 34.4615C27.8262 35.0015 27.2162 35.7515 26.7362 36.6115C25.9862 37.9615 25.5462 39.3615 25.5462 41.2815L25.5362 41.2715Z" fill="#0E4D92"/>
<path d="M56.4157 65.0116C50.0057 65.0216 44.7757 59.8316 44.8157 53.3916C44.8457 47.0716 49.9557 41.9216 56.3257 41.9116C62.7457 41.9016 67.9657 47.0416 67.9657 53.3816C67.9657 59.8116 62.8157 65.0016 56.4257 65.0116H56.4157ZM56.3857 62.4116C61.1857 62.4916 65.7257 58.4316 65.3457 52.7816C65.0457 48.2916 61.3157 44.4716 56.3457 44.4816C51.3057 44.4916 47.3957 48.6416 47.4257 53.4316C47.4557 58.4316 51.4157 62.4216 56.3957 62.4016L56.3857 62.4116Z" fill="#0E4D92"/>
<path d="M65.6154 16.2117C65.6454 16.4317 65.4754 16.5517 65.3754 16.7017C64.4754 18.0117 63.5754 19.3317 62.6654 20.6317C62.4154 20.9817 62.4354 21.2317 62.6854 21.5817C63.8154 23.1717 64.9154 24.7817 66.0254 26.3917C66.2854 26.7717 66.5854 27.1517 66.5254 27.6517C66.4654 28.1817 66.1954 28.5817 65.6654 28.7617C65.1354 28.9517 64.6554 28.8417 64.3154 28.4217C63.8554 27.8517 63.4454 27.2317 63.0254 26.6317C62.3754 25.6917 61.7254 24.7417 61.0954 23.7917C60.8554 23.4317 60.7254 23.4617 60.4954 23.8017C59.5954 25.1417 58.6854 26.4617 57.7754 27.7817C57.6254 27.9917 57.4954 28.2117 57.3254 28.4017C56.8554 28.9117 56.1254 28.9817 55.6054 28.5917C55.0554 28.1817 54.9054 27.4517 55.2954 26.8517C55.9354 25.8817 56.5954 24.9217 57.2554 23.9617C57.8354 23.1117 58.4154 22.2717 59.0154 21.4317C59.1954 21.1817 59.1854 21.0017 59.0154 20.7517C57.9554 19.2317 56.9054 17.7117 55.8754 16.1817C55.6854 15.8917 55.4354 15.8617 55.1654 15.9317C54.8754 16.0017 54.9754 16.2617 54.9754 16.4517C54.9754 18.0117 54.9754 19.5717 54.9654 21.1317C54.9654 21.7417 54.4954 22.2617 53.9254 22.3617C53.2854 22.4717 52.7254 22.1517 52.4854 21.5517C52.4054 21.3717 52.4154 21.1817 52.4154 21.0017C52.4154 16.7717 52.4154 12.5417 52.4154 8.31167C52.4154 7.54167 52.8754 6.99167 53.5954 6.95167C54.9654 6.88167 56.3354 6.86167 57.6954 6.99167C60.0254 7.21167 61.7654 9.40167 61.5854 11.7317C61.4454 13.4817 60.5554 14.7017 59.0454 15.5017C58.7454 15.6617 58.7354 15.7717 58.9154 16.0217C59.4754 16.8217 60.0254 17.6217 60.5654 18.4417C60.7654 18.7417 60.8854 18.7717 61.0954 18.4417C61.9054 17.2317 62.7354 16.0417 63.5654 14.8517C63.6654 14.7117 63.7154 14.4817 63.9554 14.5017C64.5154 15.0717 65.0854 15.6517 65.6454 16.2217L65.6154 16.2117ZM56.2854 9.52167C55.9754 9.52167 55.6654 9.53167 55.3654 9.52167C55.0554 9.50167 54.9354 9.62167 54.9454 9.93167C54.9554 10.9417 54.9554 11.9417 54.9454 12.9517C54.9454 13.2617 55.0754 13.3717 55.3754 13.3617C55.9754 13.3417 56.5754 13.3717 57.1654 13.3517C58.2054 13.3117 58.9954 12.4317 58.9754 11.3817C58.9554 10.3717 58.1354 9.55167 57.1054 9.52167C56.8354 9.52167 56.5554 9.52167 56.2854 9.52167Z" fill="#4CB1CD"/>
<path d="M51.8255 2.42153C51.8955 2.54153 51.8555 2.62153 51.7155 2.62153C51.5055 2.62153 51.3055 2.62153 51.0955 2.62153C46.9455 2.62153 42.8055 2.62153 38.6555 2.62153C38.1055 2.62153 37.6755 2.78153 37.2855 3.18153C35.7155 4.78153 34.1155 6.35153 32.5355 7.94153C32.4255 8.05153 32.2055 8.15154 32.2955 8.34153C32.3655 8.49153 32.5755 8.41153 32.7255 8.41153C33.8355 8.41153 34.9555 8.39153 36.0655 8.43153C36.5655 8.45154 36.6855 8.26153 36.6655 7.81153C36.6355 7.18153 36.6555 6.54153 36.6655 5.91153C36.6855 5.13153 37.2055 4.61153 37.9455 4.61153C38.6855 4.61153 39.2055 5.13153 39.2155 5.92153C39.2155 6.84153 39.2255 7.77153 39.2155 8.69153C39.1955 9.94153 38.1655 10.9615 36.9055 10.9715C34.9155 10.9815 32.9355 10.9715 30.9455 10.9715C30.4922 10.9715 30.2655 11.1915 30.2655 11.6315C30.2655 17.1115 30.2655 22.5915 30.2655 28.0715C30.2655 29.1615 29.3855 29.8415 28.4755 29.4415C27.8855 29.1915 27.6655 28.6915 27.6655 28.0715C27.6655 27.2115 27.6655 26.3615 27.6655 25.5015C27.6755 22.0615 27.7055 18.6215 27.6955 15.1815C27.6955 13.5615 27.6055 11.9315 27.7255 10.3115C27.7855 9.41154 28.1855 8.64153 28.8255 8.00153C31.1255 5.70153 33.4255 3.40153 35.7355 1.11153C36.4955 0.351534 37.4655 0.0215343 38.5255 0.0215343C42.0155 0.0115343 45.5155 0.0215343 49.0055 0.0215343C49.1955 0.0215343 49.3855 0.0115343 49.5455 0.131534C50.3055 0.901534 51.0555 1.66153 51.8155 2.43153L51.8255 2.42153Z" fill="#909090"/>
<path d="M51.8255 2.42153C51.0655 1.65153 50.3157 0.8913 49.5557 0.1213C49.6957 -0.0686998 49.9057 0.0213002 50.0757 0.0213002C54.3257 0.0213002 58.5657 0.0413002 62.8157 0.0413002C64.9557 0.0413002 67.0957 0.0113002 69.2357 0.0213002C71.7257 0.0213002 73.3557 1.6313 73.3957 4.1113C73.4157 5.3413 73.3957 6.5813 73.3957 7.8113C73.3957 12.1113 73.3957 16.4013 73.3957 20.7013C73.3957 23.4213 73.4357 26.1313 73.3957 28.8413C73.3757 30.0513 73.4557 31.2613 73.4157 32.4613C73.4057 32.8413 73.3557 33.2113 73.0957 33.5213C72.7457 33.9313 72.1957 34.0813 71.7057 33.9113C71.1657 33.7213 70.8257 33.2413 70.8157 32.6013C70.8157 31.0213 70.8157 29.4513 70.8157 27.8713C70.8157 26.1613 70.8157 24.4513 70.8157 22.7413C70.8157 16.5613 70.8157 10.3813 70.8157 4.2013C70.8157 3.0713 70.3557 2.6113 69.2357 2.6113C63.7057 2.6113 58.1757 2.6113 52.6457 2.6113C52.3557 2.6113 52.0557 2.6613 51.8357 2.4013L51.8255 2.42153Z" fill="#919191"/>
<path d="M30.2659 57.0515C30.2659 57.9115 30.2659 58.7615 30.2659 59.6215C30.2659 60.5415 30.7759 61.0415 31.7059 61.0515C33.3259 61.0615 34.9559 61.0515 36.5759 61.0915C37.4959 61.1115 37.9759 61.5315 38.0459 62.2515C38.1059 62.9215 37.5859 63.5415 36.9059 63.5616C35.7659 63.5816 34.6259 63.6815 33.4759 63.5915C32.8859 63.5515 32.2859 63.6015 31.6859 63.6215C29.5259 63.7015 27.7059 62.0115 27.6759 59.7115C27.6559 58.0315 27.6759 56.3615 27.6759 54.6815C27.6759 54.1315 27.8159 53.6216 28.3059 53.3116C29.1459 52.7915 30.2559 53.3915 30.2759 54.3815C30.2959 55.2715 30.2759 56.1615 30.2759 57.0515H30.2659Z" fill="#909090"/>
<path d="M73.4062 57.2616C73.3762 58.1316 73.4662 59.1916 73.3562 60.2516C73.1662 61.9816 71.6562 63.4816 69.9162 63.5816C68.9062 63.6416 67.8962 63.6216 66.8862 63.6016C66.1962 63.5816 65.6562 62.9916 65.6662 62.3316C65.6762 61.6516 66.2562 61.0616 66.9562 61.0516C67.7562 61.0416 68.5662 61.0516 69.3662 61.0516C70.2762 61.0516 70.8062 60.5216 70.8062 59.6216C70.8062 57.8416 70.8062 56.0616 70.8062 54.2816C70.8062 53.6516 71.1562 53.1716 71.7162 52.9916C72.2262 52.8216 72.7962 53.0116 73.1362 53.4416C73.3662 53.7316 73.3962 54.0616 73.3962 54.4116C73.3962 55.3016 73.3962 56.1916 73.3962 57.2716L73.4062 57.2616Z" fill="#909090"/>
<path d="M41.0155 15.9614C42.9655 15.9614 44.9155 15.9614 46.8655 15.9614C47.6555 15.9614 48.2155 16.5314 48.2055 17.2714C48.1955 17.9914 47.6155 18.5414 46.8055 18.5414C45.0955 18.5514 43.3855 18.5514 41.6755 18.5514C39.5055 18.5514 37.3255 18.5514 35.1555 18.5514C34.5555 18.5514 34.0855 18.3114 33.8255 17.7614C33.5855 17.2614 33.7055 16.7914 34.0555 16.3814C34.3555 16.0214 34.7655 15.9414 35.2055 15.9414C37.1355 15.9414 39.0755 15.9414 41.0055 15.9414V15.9614H41.0155Z" fill="#909090"/>
<path d="M40.9161 23.1016C38.9461 23.1016 36.9861 23.1016 35.0161 23.1016C34.3361 23.1016 33.8761 22.7016 33.7361 22.0616C33.6161 21.5316 33.9361 20.9216 34.4561 20.6516C34.6761 20.5316 34.9161 20.5316 35.1561 20.5416C37.1061 20.5716 39.0561 20.5416 41.0061 20.5716C42.9561 20.6016 44.9061 20.5316 46.8461 20.5416C47.7461 20.5416 48.2961 21.1916 48.1761 22.0416C48.0861 22.6816 47.5561 23.1016 46.8161 23.1016C44.8461 23.1016 42.8761 23.1016 40.9161 23.1016Z" fill="#909090"/>
<path d="M39.7658 27.6913C38.9558 27.6413 37.8558 27.6613 36.7658 27.6713C36.1358 27.6713 35.5158 27.4713 34.8558 27.6513C34.4058 27.7813 33.8858 27.2013 33.7458 26.6213C33.6258 26.1113 33.9158 25.4913 34.4058 25.2413C34.6058 25.1413 34.8158 25.0713 35.0458 25.0713C37.6458 25.0713 40.2458 25.0713 42.8458 25.0713C43.9058 25.0713 44.5558 26.0313 44.1158 26.9313C43.8658 27.4413 43.4258 27.6713 42.8658 27.6813C41.9258 27.6813 40.9858 27.6813 39.7658 27.6813V27.6913Z" fill="#909090"/>
<path d="M65.6154 16.2117C65.0554 15.6417 64.4858 15.0614 63.9258 14.4914C64.0358 13.7214 64.8158 13.2014 65.5658 13.3814C66.2558 13.5514 66.6958 14.3414 66.4458 15.0214C66.2758 15.4814 66.0358 15.9014 65.6258 16.2114L65.6154 16.2117Z" fill="#4CB1CD"/>
<path d="M26.3955 41.0113C26.4555 38.9913 27.0755 37.3313 28.3655 35.9413C28.9755 35.2913 29.7655 35.1913 30.3155 35.7013C30.8955 36.2413 30.8755 37.0213 30.2655 37.7013C28.6055 39.5513 28.5755 42.1013 30.1955 43.9913C30.5055 44.3513 30.7955 44.7113 30.7455 45.2113C30.6855 45.7213 30.4255 46.1013 29.9355 46.3013C29.3955 46.5213 28.9155 46.3813 28.5255 45.9813C27.4055 44.8513 26.7355 43.5013 26.5055 41.9313C26.4555 41.5813 26.4255 41.2213 26.4055 41.0013L26.3955 41.0113Z" fill="#0E4D92"/>
<path d="M51.296 59.8915C50.646 59.9015 50.246 59.6315 50.036 59.1315C49.816 58.6115 49.896 58.1215 50.296 57.7115C51.486 56.5115 52.686 55.3115 53.886 54.1215C56.086 51.9215 58.286 49.7315 60.486 47.5215C61.126 46.8815 61.936 46.8015 62.476 47.3515C63.046 47.9315 62.936 48.7415 62.286 49.3815C60.886 50.7515 59.506 52.1615 58.126 53.5515C56.156 55.5215 54.186 57.4915 52.216 59.4615C51.936 59.7415 51.626 59.9215 51.306 59.8815L51.296 59.8915Z" fill="#0E4D92"/>
<path d="M71.7475 44.4985C71.3375 44.4985 70.9975 44.1585 70.9975 43.7485V39.5585L70.2775 40.2785C69.9875 40.5685 69.5075 40.5685 69.2175 40.2785C68.9275 39.9885 68.9275 39.5085 69.2175 39.2185L71.2175 37.2185C71.4275 37.0085 71.7575 36.9385 72.0375 37.0585C72.3175 37.1685 72.4975 37.4485 72.4975 37.7485V43.7485C72.4975 44.1585 72.1575 44.4985 71.7475 44.4985Z" fill="#4CB1CD"/>
<path d="M73.7475 40.4985C73.5575 40.4985 73.3675 40.4285 73.2175 40.2785L71.2175 38.2785C70.9275 37.9885 70.9275 37.5085 71.2175 37.2185C71.5075 36.9285 71.9875 36.9285 72.2775 37.2185L74.2775 39.2185C74.5675 39.5085 74.5675 39.9885 74.2775 40.2785C74.1275 40.4285 73.9375 40.4985 73.7475 40.4985Z" fill="#4CB1CD"/>
<path d="M70 47H74" stroke="#4CB1CD" stroke-width="2" stroke-linecap="round" stroke-linejoin="round"/>
</svg>
