<svg width="31" height="37" viewBox="0 0 31 37" fill="none" xmlns="http://www.w3.org/2000/svg">
<path d="M4.27721 9.49401C3.99979 9.49401 3.72236 9.38821 3.51077 9.17654L1.7472 7.41297C1.32386 6.98964 1.32386 6.30333 1.74712 5.88C2.17046 5.45667 2.85683 5.45667 3.28009 5.88L5.04366 7.64357C5.467 8.0669 5.467 8.75321 5.04374 9.17654C4.83207 9.38821 4.55464 9.49401 4.27721 9.49401Z" fill="white"/>
<path d="M26.7246 9.49402C26.4471 9.49402 26.1697 9.38822 25.9581 9.17649C25.5348 8.75315 25.5348 8.06685 25.9581 7.64352L27.7217 5.87994C28.145 5.45669 28.8314 5.45669 29.2547 5.87994C29.678 6.30328 29.678 6.98958 29.2547 7.41292L27.4911 9.17649C27.2794 9.38815 27.0019 9.49402 26.7246 9.49402Z" fill="white"/>
<path d="M15.498 4.662C14.8994 4.662 14.4141 4.17666 14.4141 3.57802V1.08398C14.4141 0.485336 14.8994 0 15.498 0C16.0967 0 16.582 0.485336 16.582 1.08398V3.57802C16.582 4.17666 16.0967 4.662 15.498 4.662Z" fill="white"/>
<path d="M15.5005 20.2177C16.5988 20.2177 17.4892 19.3273 17.4892 18.229C17.4892 17.1306 16.5988 16.2402 15.5005 16.2402C14.4021 16.2402 13.5117 17.1306 13.5117 18.229C13.5117 19.3273 14.4021 20.2177 15.5005 20.2177Z" fill="white"/>
<path d="M14.4157 30.1848V22.2406C12.6477 21.7625 11.3429 20.1452 11.3429 18.2282C11.3429 15.9361 13.2076 14.0714 15.4996 14.0714C17.7917 14.0714 19.6564 15.9361 19.6564 18.2282C19.6564 20.1451 18.3516 21.7624 16.5836 22.2406V30.1848H27.5696V18.6285C27.5696 12.422 22.5382 7.39062 16.3317 7.39062H14.6676C8.46104 7.39062 3.42969 12.422 3.42969 18.6285V30.1847H14.4157V30.1848Z" fill="white"/>
<path d="M29.4419 36.9999H1.55664C0.957992 36.9999 0.472656 36.5146 0.472656 35.9159V33.4375C0.472656 32.8389 0.957992 32.3535 1.55664 32.3535H29.4419C30.0405 32.3535 30.5258 32.8389 30.5258 33.4375V35.9159C30.5259 36.5146 30.0406 36.9999 29.4419 36.9999Z" fill="white"/>
</svg>
