<svg width="16" height="14" viewBox="0 0 16 14" fill="none" xmlns="http://www.w3.org/2000/svg">
<path d="M11.6216 8.37457V11.0779L15.2572 12.9879V6.4646L11.6216 8.37457Z" fill="white"/>
<path d="M8.04528 5.28914C9.52651 5.28914 10.7273 4.10512 10.7273 2.64457C10.7273 1.18401 9.52651 0 8.04528 0C6.56405 0 5.36328 1.18401 5.36328 2.64457C5.36328 4.10512 6.56405 5.28914 8.04528 5.28914Z" fill="white"/>
<path d="M2.682 5.28914C4.16323 5.28914 5.364 4.10512 5.364 2.64457C5.364 1.18401 4.16323 0 2.682 0C1.20077 0 0 1.18401 0 2.64457C0 4.10512 1.20077 5.28914 2.682 5.28914Z" fill="white"/>
<path d="M1.11523 7.15479H9.48741V12.108H1.11523V7.15479Z" fill="white"/>
<path d="M0 6.17065V13.2816H10.728V6.17065H0ZM9.38701 7.49294V11.9593H1.341V7.49294H9.38701Z" fill="white"/>
</svg>
