<svg width="21" height="17" viewBox="0 0 21 17" fill="none" xmlns="http://www.w3.org/2000/svg">
<path d="M20.9971 4.15557C20.9971 4.15557 20.9965 4.15437 20.9959 4.15376C20.9965 4.17181 20.9971 4.18986 20.9977 4.20791C20.9977 4.19046 20.9977 4.17301 20.9971 4.15557Z" fill="white"/>
<path d="M20.9994 4.31499C20.9994 4.34446 20.9994 4.37454 20.9982 4.40402C20.9988 4.37454 20.9994 4.34507 20.9994 4.31499Z" fill="white"/>
<path d="M20.9982 4.40402C20.9971 4.44914 20.9959 4.49366 20.9936 4.53817C20.9959 4.49366 20.9971 4.44854 20.9982 4.40402Z" fill="white"/>
<path d="M20.9982 4.20791C20.9994 4.244 21 4.27949 21 4.31499C21 4.27949 20.9994 4.2434 20.9982 4.20791Z" fill="white"/>
<path d="M10.448 14.3169C9.71671 14.3109 9.15187 14.8848 9.1472 15.6391C9.14252 16.3845 9.70853 16.9891 10.4217 16.9993C11.1256 17.0096 11.7167 16.402 11.7208 15.6638C11.7255 14.8962 11.1834 14.3223 10.4486 14.3163L10.448 14.3169ZM10.4363 16.1367C10.1682 16.1385 9.96262 15.9213 9.96671 15.641C9.97021 15.3835 10.1805 15.1687 10.4305 15.1669C10.6793 15.1651 10.8931 15.3781 10.9001 15.6355C10.9077 15.9153 10.7039 16.1355 10.4357 16.1367H10.4363Z" fill="white"/>
<path d="M14.1723 14.3169C13.441 14.3151 12.882 14.8896 12.8791 15.647C12.8762 16.3917 13.448 16.9957 14.16 16.9999C14.8645 17.0041 15.4539 16.3929 15.4544 15.6572C15.4544 14.8938 14.9048 14.3193 14.1729 14.3175L14.1723 14.3169ZM14.1495 16.1373C13.8954 16.13 13.7027 15.9219 13.7009 15.6518C13.6992 15.3769 13.9165 15.1567 14.1805 15.1669C14.427 15.1765 14.6379 15.4033 14.6343 15.6548C14.6303 15.9339 14.4182 16.1451 14.1495 16.1373Z" fill="white"/>
<path d="M6.71495 14.3169C5.98773 14.3115 5.41998 14.8902 5.41414 15.6416C5.40829 16.3803 5.98423 16.9921 6.69276 16.9999C7.39953 17.0077 7.9854 16.4032 7.98832 15.662C7.99182 14.892 7.45269 14.3223 6.71495 14.3169ZM6.69217 16.1367C6.43516 16.1312 6.23949 15.9267 6.23306 15.6584C6.22722 15.3943 6.45444 15.1615 6.71203 15.1669C6.96495 15.1723 7.16647 15.3859 7.16647 15.6488C7.16647 15.9309 6.96087 16.1427 6.69217 16.1367Z" fill="white"/>
<path d="M9.86565 12.7311C9.86624 11.9791 9.30315 11.3914 8.58002 11.3884C7.8604 11.3854 7.27687 11.9773 7.2722 12.7149C7.26752 13.4524 7.8347 14.0401 8.56308 14.0528C9.28154 14.0654 9.86507 13.4735 9.86565 12.7311ZM8.56776 13.1919C8.28037 13.1901 8.08411 12.9892 8.0958 12.7088C8.10631 12.4423 8.30724 12.2468 8.56951 12.248C8.84638 12.2486 9.04439 12.4562 9.03972 12.7407C9.03563 13.0078 8.84054 13.1943 8.56776 13.1925V13.1919Z" fill="white"/>
<path d="M13.5958 12.7317C13.5975 11.9912 13.0304 11.4004 12.3067 11.389C11.5981 11.3775 11.0029 11.9827 11.0023 12.7143C11.0023 13.435 11.5841 14.0558 12.2617 14.0564C13.0082 14.0576 13.594 13.4759 13.5958 12.7317ZM12.3049 13.1925C12.0193 13.1973 11.8213 12.9988 11.8283 12.7161C11.8353 12.4454 12.028 12.2516 12.2932 12.248C12.5666 12.2444 12.7734 12.4538 12.7728 12.7335C12.7728 12.9976 12.5783 13.1877 12.3043 13.1919L12.3049 13.1925Z" fill="white"/>
<path d="M20.9982 4.20791C20.9982 4.18986 20.9971 4.17181 20.9965 4.15376C20.9895 3.95344 20.9685 3.75371 20.9346 3.55639C20.9282 3.50887 20.9188 3.46195 20.9083 3.41502C20.8657 3.20688 20.8084 3.00234 20.7366 2.80201C20.7266 2.7599 20.7179 2.71779 20.7114 2.67508C20.6104 2.4182 20.5053 2.16373 20.3534 1.93333C20.2675 1.85211 20.2395 1.72638 20.1612 1.64517C20.0245 1.5032 19.6799 1.17654 19.6507 1.14887C18.715 0.289808 17.5847 -0.0849767 16.4772 0.0160889C15.4013 0.0630122 14.4375 0.524425 13.5835 1.41657C12.6203 2.42241 11.6262 3.39758 10.66 4.40041C10.5993 4.46358 10.5479 4.50328 10.5006 4.52253C10.4533 4.50328 10.4019 4.46358 10.3411 4.40041C9.37442 3.39758 8.38084 2.42301 7.41764 1.41657C6.56308 0.524425 5.5993 0.0630122 4.52336 0.0160889C3.41589 -0.0849767 2.28563 0.29041 1.34988 1.14887C1.32009 1.17594 1.29206 1.20421 1.26343 1.23249C0.808411 1.67645 0.473131 2.21727 0.263435 2.80201C0.191589 3.00174 0.134346 3.20688 0.0917056 3.41502C0.0811916 3.46195 0.0724299 3.50887 0.0654206 3.55639C0.0315421 3.75371 0.0110981 3.95344 0.00350467 4.15376C0.00350467 4.15437 0.00292056 4.15497 0.00233645 4.15557C0.00175234 4.17301 0.00233645 4.19046 0.00175234 4.20791C0.000584112 4.244 0 4.27949 0 4.31499C0 4.34446 0 4.37454 0.00116822 4.40402C0.00233645 4.44914 0.00350467 4.49366 0.00584112 4.53817C0.00584112 4.5478 0.00700935 4.55742 0.00759346 4.56705C0.0186916 4.76677 0.0438084 4.9653 0.0823598 5.16141C0.130257 5.40686 0.199182 5.64809 0.290304 5.8815C0.346379 6.02528 0.411215 6.16545 0.483645 6.30201C0.633762 6.58535 0.817757 6.85306 1.03914 7.0967C1.09346 7.15625 1.14836 7.21521 1.20327 7.27477C2.35105 8.52545 3.55841 9.71899 4.73773 10.939C4.74474 10.9462 4.75175 10.9528 4.75876 10.9594C4.91063 11.096 5.02687 11.1495 5.1507 11.1195C5.31717 11.167 5.46087 11.0509 5.73481 10.7706C7.25876 9.20825 8.78622 7.64895 10.302 6.07822C10.3779 6.00002 10.4398 5.94708 10.4994 5.92422C10.559 5.94708 10.6209 6.00002 10.6968 6.07822C12.2126 7.64955 13.7401 9.20825 15.264 10.7706C15.5374 11.0509 15.6811 11.1664 15.8481 11.1195C15.972 11.1489 16.0882 11.0954 16.2401 10.9594C16.2477 10.9528 16.2541 10.9456 16.2611 10.939C17.4404 9.71899 18.6478 8.52545 19.7956 7.27477C19.8925 7.23627 20.3908 6.58415 20.5152 6.30201C20.5876 6.16485 20.6525 6.02468 20.7085 5.8815C20.7453 5.83037 20.882 5.3461 20.9165 5.16141C20.955 4.9653 20.9796 4.76677 20.9912 4.56705C20.9912 4.55742 20.9924 4.5478 20.993 4.53817C20.9953 4.49366 20.9965 4.44854 20.9977 4.40402C20.9982 4.37454 20.9988 4.34446 20.9988 4.31499C20.9988 4.27949 20.9988 4.2434 20.9971 4.20791H20.9982ZM3.41939 0.921468C3.66647 0.854693 3.91764 0.839052 4.17231 0.836645C4.30549 0.836645 4.43575 0.843864 4.56308 0.858302C5.35047 0.947938 6.02453 1.32032 6.6028 1.90024C7.28914 2.58845 7.96787 3.28568 8.64778 3.98111C8.63143 4.02984 8.59287 4.07977 8.53446 4.13872C8.34638 4.33003 7.14077 5.57229 6.89369 5.82857C6.63026 6.10168 6.36682 6.3748 6.10397 6.64852C6.01519 6.74056 5.92173 6.8326 5.85397 6.94029C5.74124 7.11896 5.74474 7.30364 5.90187 7.45825C6.00409 7.55931 6.11858 7.60263 6.23657 7.58458C6.29264 7.57616 6.34988 7.5545 6.40771 7.5172C6.4965 7.45885 6.57477 7.38064 6.65012 7.30304C7.38435 6.54445 8.11682 5.78345 8.85047 5.02365C9.08294 4.78302 9.19918 4.6633 9.31484 4.6615C9.44159 4.79084 9.56834 4.92018 9.69568 5.04892C9.82944 5.18427 9.8382 5.26488 9.69918 5.40565C8.22313 6.90299 6.75117 8.40514 5.28446 9.9121C5.23189 9.96564 5.18692 9.99933 5.14428 10.0138C5.11858 9.99993 5.09112 9.97767 5.06016 9.94518C4.8896 9.76471 2.4375 7.39147 1.84054 6.76041C-0.0403038 4.77399 0.813084 1.62772 3.41939 0.921468ZM19.1606 6.76102C18.5631 7.39207 16.6665 9.18358 16.4533 9.40617C16.2821 9.58544 16.111 9.76531 15.9404 9.94579C15.91 9.97827 15.882 10.0005 15.8563 10.0144C15.8137 9.99993 15.7687 9.96624 15.7161 9.9127C14.2494 8.40574 12.7775 6.90359 11.3014 5.40626C11.1624 5.26549 11.1711 5.18427 11.3049 5.04952C11.4322 4.92078 11.5584 4.79144 11.6857 4.6621C11.8014 4.6639 11.9176 4.78302 12.1501 5.02425C12.8838 5.78405 13.6162 6.54505 14.3505 7.30364C14.4252 7.38125 14.5041 7.45945 14.5929 7.51781C14.6507 7.5557 14.7074 7.57676 14.764 7.58518C14.8826 7.60323 14.9965 7.55992 15.0987 7.45885C15.2558 7.30364 15.2593 7.11896 15.1466 6.94089C15.0783 6.83321 14.9854 6.74116 14.8966 6.64912C14.6332 6.376 14.3697 6.10289 14.1069 5.82917C13.5619 5.26368 13.0164 4.6994 12.4661 4.13933C12.4077 4.08037 12.3692 4.03044 12.3528 3.98171C13.0327 3.28628 13.7114 2.58905 14.3978 1.90084C14.9766 1.32092 15.6507 0.94854 16.4375 0.858904C16.5648 0.844466 16.6951 0.836645 16.8283 0.837247C17.0824 0.839653 17.3335 0.855294 17.5812 0.92207C20.1875 1.62833 21.0409 4.7746 19.1606 6.76162V6.76102Z" fill="white"/>
<path d="M10.4387 8.44183C9.72547 8.43762 9.14369 9.05725 9.1472 9.81765C9.1507 10.5468 9.71787 11.1315 10.4264 11.1351C11.1314 11.1393 11.7243 10.5263 11.7208 9.7972C11.7173 9.05184 11.1443 8.44544 10.4393 8.44123L10.4387 8.44183ZM10.4346 10.2881C10.1659 10.2887 9.9632 10.0727 9.96554 9.78757C9.96787 9.52468 10.1711 9.32195 10.4317 9.32134C10.6922 9.32134 10.8972 9.52287 10.9013 9.78456C10.906 10.0673 10.7021 10.2869 10.4346 10.2881Z" fill="white"/>
<path d="M3.15888 5.30579C3.8604 5.57229 4.566 5.82556 5.26519 6.09807C5.48072 6.1823 5.64311 6.13176 5.79147 5.97475C5.941 5.81653 6.03213 5.6505 5.94393 5.41047C5.67874 4.69037 5.43049 3.96427 5.17056 3.24237C5.05783 2.92894 4.89252 2.8754 4.54381 3.02219C4.23189 3.15394 4.15537 3.32418 4.28096 3.62377C4.45736 4.04488 4.63843 4.46418 4.85572 4.97312C4.35105 4.75655 3.93341 4.57307 3.51285 4.3974C3.23131 4.27949 3.03797 4.3962 2.9007 4.75414C2.79206 5.03628 2.8604 5.19149 3.15946 5.30519L3.15888 5.30579Z" fill="white"/>
<path d="M15.8744 7.83724C15.6565 7.83604 15.4685 8.02193 15.4597 8.24752C15.4515 8.46409 15.6443 8.66743 15.8592 8.66983C16.0812 8.67224 16.2652 8.48755 16.2693 8.25835C16.2734 8.02374 16.0999 7.83845 15.8744 7.83785V7.83724Z" fill="white"/>
<path d="M5.09229 7.77468C4.87442 7.77348 4.68633 7.95937 4.67757 8.18496C4.66939 8.40153 4.86215 8.60486 5.0771 8.60727C5.29907 8.60968 5.48306 8.42499 5.48715 8.19579C5.49124 7.96117 5.31776 7.77588 5.09229 7.77528V7.77468Z" fill="white"/>
</svg>
