<svg width="23" height="20" viewBox="0 0 23 20" fill="none" xmlns="http://www.w3.org/2000/svg">
<path d="M15.1242 7.92199C16.6491 6.71305 18.7113 5.07801 18.8992 1.17188H20.2607V0H2.74121V1.17188H4.10275C4.2907 5.07801 6.35288 6.71305 7.8778 7.92199C8.90072 8.73297 9.47949 9.22934 9.47949 10C9.47949 10.7707 8.90072 11.267 7.8778 12.078C6.35288 13.287 4.2907 14.922 4.10275 18.8281H2.74121V20H20.2607V18.8281H18.8992C18.7113 14.922 16.6491 13.287 15.1242 12.078C14.1012 11.267 13.5225 10.7707 13.5225 10C13.5225 9.22934 14.1012 8.73297 15.1242 7.92199ZM10.8271 14.3921C10.619 14.4295 10.4134 14.4838 10.2128 14.556L6.08546 16.0411C6.75947 14.5509 7.84506 13.6898 8.78576 12.944C9.83559 12.1117 10.8271 11.3256 10.8271 10V14.3921ZM14.2162 12.944C15.1569 13.6898 16.2424 14.5509 16.9165 16.0411L12.7892 14.5559C12.5885 14.4837 12.3829 14.4294 12.1748 14.3921V10C12.1748 11.3256 13.1664 12.1117 14.2162 12.944ZM6.06179 3.90625C5.73597 3.16801 5.51096 2.27664 5.45207 1.17188H17.5498C17.4909 2.27664 17.266 3.16801 16.9401 3.90625H6.06179Z" fill="#0E4D92"/>
</svg>
