<svg width="19" height="19" viewBox="0 0 19 19" fill="none" xmlns="http://www.w3.org/2000/svg">
<path d="M18.6137 6.00324C18.5397 5.34658 18.2473 5.05004 17.6126 4.99063C17.587 4.98802 17.5615 4.98542 17.5344 4.98385L15.9751 4.98021C15.9485 4.98021 15.9225 4.98021 15.8959 4.98021C15.2371 4.98281 14.5779 4.97969 13.9191 4.9948C13.6955 5.00001 13.62 4.94008 13.6221 4.70556C13.6335 3.4996 13.6294 2.29311 13.6262 1.08715C13.6241 0.389321 13.2447 0.00991769 12.5459 0.00366378C12.0513 -0.00102665 11.5567 0.00262146 11.0621 0.00262146C9.40484 0.00262146 7.74704 0.00626958 6.08975 1.56718e-05C5.69576 -0.0015478 5.37472 0.113628 5.15584 0.454987C5.01773 0.670226 5.0047 0.912564 5.0047 1.15699C5.00366 2.32855 4.99793 3.50012 5.00887 4.67116C5.01096 4.91819 4.94164 4.99845 4.68784 4.99584C3.49908 4.98333 2.31031 4.98959 1.12103 4.99063C0.372645 4.99115 0.00574968 5.35753 0.00262273 6.11164C-0.00102538 6.94445 0.00158041 7.77779 0.00158041 8.6106C0.00158041 9.91245 0.00470737 11.2138 1.69392e-05 12.5156C-0.00154654 12.9154 0.10477 13.2515 0.46489 13.4699C0.682735 13.6017 0.926637 13.6116 1.1695 13.6122C2.34106 13.6142 3.51263 13.6195 4.68419 13.6085C4.93539 13.6059 5.01096 13.6846 5.00887 13.9342C4.99793 15.1141 5.0021 16.2946 5.00522 17.4745C5.00731 18.2729 5.35179 18.6127 6.15281 18.6132C8.25308 18.6142 10.3528 18.6142 12.4531 18.6132C13.2817 18.6132 13.6267 18.2682 13.6273 17.4442C13.6278 16.2555 13.6288 15.0667 13.6262 13.8779C13.6262 13.7232 13.6356 13.609 13.8409 13.6127C14.5268 13.6236 15.2126 13.6241 15.8985 13.6283C15.924 13.6283 15.9496 13.6283 15.9746 13.6283C16.4962 13.6064 17.0174 13.6023 17.5391 13.6304C17.5631 13.6262 17.586 13.6221 17.6089 13.6179C18.3943 13.4688 18.6137 13.1921 18.6278 12.3676C18.6278 12.3504 18.6278 12.3332 18.6278 12.3155C18.6278 10.3064 18.6278 8.29738 18.6273 6.28832C18.6273 6.19346 18.6241 6.09757 18.6137 6.00324ZM12.8716 13.4907C12.87 14.8098 12.8716 16.1288 12.8705 17.4474C12.8705 17.8612 12.8408 17.8893 12.425 17.8893C10.3424 17.8893 8.25986 17.8898 6.17731 17.8893C5.77966 17.8893 5.74683 17.8575 5.74683 17.4594C5.74579 16.1752 5.74683 14.8911 5.74631 13.6069C5.74631 12.932 5.68064 12.8679 4.99532 12.8679C3.71953 12.8679 2.44425 12.8679 1.16845 12.8674C0.765599 12.8674 0.744231 12.8455 0.74371 12.4385C0.743189 10.356 0.743189 8.27341 0.74371 6.19086C0.74371 5.76872 0.762472 5.75048 1.18305 5.74996C2.49324 5.74892 3.80343 5.74996 5.11415 5.74892C5.62749 5.74892 5.74527 5.63218 5.74579 5.12248C5.74683 3.80343 5.74579 2.48438 5.74683 1.16585C5.74683 0.777063 5.77445 0.749963 6.15855 0.749963C8.2583 0.749442 10.3586 0.749442 12.4583 0.749963C12.8419 0.749963 12.87 0.777584 12.8705 1.16637C12.8721 2.48542 12.8705 3.80447 12.8716 5.123C12.8716 5.63374 12.9883 5.74631 13.5032 5.74944C14.3272 5.75413 15.1511 5.75882 15.9751 5.76403C16.4968 5.74214 17.0179 5.73797 17.5396 5.76611C17.8393 5.75673 17.8976 5.95008 17.8976 6.19242C17.8982 7.12738 17.8992 8.06234 17.8992 8.9973C17.8992 10.1313 17.9008 11.2654 17.8966 12.3994C17.8956 12.7528 17.8424 12.8096 17.5391 12.8518C17.0174 12.8805 16.4962 12.8758 15.9746 12.8539C15.1506 12.8586 14.3267 12.8638 13.5022 12.8679C12.9784 12.8705 12.8711 12.9737 12.8705 13.4912L12.8716 13.4907Z" fill="#797979"/>
<path d="M11.9742 11.9168C11.7792 11.9132 11.6255 12.0779 11.6083 12.3129C11.6026 12.3906 11.6057 12.4693 11.6057 12.5469C11.6057 13.7966 11.6005 15.0464 11.6099 16.2961C11.6114 16.527 11.5541 16.6078 11.3081 16.6057C9.9802 16.5937 8.65229 16.5937 7.3249 16.6057C7.07422 16.6078 7.0023 16.54 7.00439 16.2878C7.01637 14.9166 7.01012 13.5454 7.00908 12.1743C7.00908 11.7183 6.89599 11.6062 6.43997 11.6062C5.086 11.6052 3.73203 11.6062 2.37858 11.6062C2.1385 11.6062 2.01829 11.4824 2.01794 11.2346C2.01794 9.94164 2.01794 8.64864 2.01794 7.35565C2.01794 7.12738 2.13017 7.0129 2.35461 7.01221C2.77988 7.01116 3.20514 7.01742 3.63041 7.00856C3.90089 7.00335 4.05619 6.86055 4.05202 6.64844C4.04733 6.43007 3.89359 6.29196 3.63666 6.27737C3.59341 6.27477 3.55015 6.27581 3.50637 6.27581C2.95082 6.27581 2.39526 6.27477 1.84023 6.27581C1.40089 6.27685 1.28988 6.38838 1.28988 6.83293C1.28884 8.48187 1.28884 10.1308 1.28988 11.7798C1.28988 12.2373 1.3962 12.3416 1.86264 12.3421C3.21661 12.3431 4.57058 12.3421 5.92403 12.3426C6.27685 12.3426 6.27789 12.3437 6.27789 12.7064C6.27789 14.0687 6.27737 15.4315 6.27841 16.7938C6.27841 17.2415 6.37952 17.341 6.83293 17.3421C7.6574 17.3437 8.48187 17.3421 9.30634 17.3421C10.1136 17.3421 10.9204 17.3426 11.7276 17.3421C12.2535 17.3421 12.3369 17.2597 12.3374 16.7443C12.3379 15.8766 12.3374 15.0089 12.3374 14.1406C12.3374 13.5329 12.3405 12.9258 12.3332 12.3181C12.3306 12.0846 12.1717 11.9205 11.9742 11.9168Z" fill="#797979"/>
<path d="M15.9756 7.02159C16.0048 7.05286 16.0397 7.10549 16.0632 7.11018C16.0694 7.11175 16.0814 7.11487 16.0814 7.11487C16.0762 7.08204 16.0699 7.04921 16.0632 7.01637C16.5974 6.98458 16.5979 7.01429 16.5984 7.60893C16.5984 8.81958 16.5984 10.0302 16.5984 11.2409C16.5984 11.4841 16.4771 11.6053 16.2346 11.6047C16.1768 11.6047 16.1189 11.6015 16.0606 11.5989C16.0606 11.5963 16.0611 11.5942 16.0616 11.5916C16.0705 11.5614 16.0772 11.5312 16.083 11.5004C16.0371 11.514 16.0168 11.5692 15.9756 11.5948C15.6551 11.5989 15.3335 11.5963 15.0136 11.6099C14.766 11.6208 14.6201 11.7657 14.619 11.9726C14.618 12.1748 14.7686 12.315 15.0141 12.3369C15.0829 12.3431 15.1527 12.3411 15.222 12.3411C15.8203 12.3405 16.4191 12.3395 17.0174 12.3384C17.0435 12.3301 17.0674 12.3207 17.0898 12.3103C17.267 12.229 17.3416 12.0826 17.341 11.8684C17.3369 10.1605 17.3384 8.45321 17.3395 6.74537C17.3395 6.53534 17.2712 6.37587 17.0831 6.29718C17.0622 6.28832 17.0409 6.2805 17.0169 6.27372C15.5764 6.27372 14.1359 6.27372 12.6949 6.27372C12.3379 6.27372 12.3374 6.27268 12.3374 5.91412C12.3374 4.54296 12.3384 3.17179 12.3364 1.80062C12.3358 1.41913 12.2181 1.27738 11.884 1.27633C10.1657 1.27216 8.44748 1.27268 6.72922 1.27633C6.42121 1.27685 6.28258 1.41392 6.28154 1.72453C6.27737 3.26038 6.27789 4.79676 6.28154 6.33261C6.28206 6.58277 6.44362 6.74641 6.65573 6.74068C6.85742 6.73547 6.9924 6.58069 7.00804 6.33366C7.01273 6.256 7.01012 6.17731 7.01012 6.09966C7.01012 4.84106 7.01742 3.58298 7.00439 2.3249C7.00178 2.06797 7.08256 2.00804 7.32855 2.01012C8.6476 2.02159 9.96665 2.02472 11.2857 2.00856C11.564 2.00491 11.613 2.09924 11.6109 2.34888C11.6005 3.69399 11.6057 5.0391 11.6062 6.38421C11.6062 6.90693 11.7089 7.00908 12.2269 7.01012C13.4767 7.01325 14.7259 7.0169 15.9756 7.02054V7.02159Z" fill="#797979"/>
<path d="M10.5889 7.02054C10.2142 7.07474 9.85929 7.18367 9.55598 7.4135C9.3866 7.54222 9.25162 7.55577 9.07495 7.4161C8.70805 7.12634 8.27237 7.02159 7.70378 7.00439C7.32959 6.98198 6.93195 7.17793 6.58381 7.48698C5.59726 8.36253 5.55869 9.9703 6.52232 10.9933C7.27018 11.7876 8.17074 12.3958 9.08329 12.9826C9.224 13.0733 9.37566 13.0988 9.52315 12.9977C10.4107 12.3911 11.3128 11.8011 12.0648 11.0225C12.5844 10.4847 12.819 9.82855 12.7887 9.0812C12.7418 7.92892 11.7537 6.85117 10.5889 7.02054ZM11.4811 10.5801C10.8641 11.1799 10.1558 11.6677 9.45331 12.1607C9.35585 12.229 9.27403 12.2394 9.17136 12.1675C8.45477 11.6641 7.73088 11.169 7.10497 10.5524C6.45978 9.91662 6.379 8.84616 6.9111 8.20462C7.14093 7.92736 7.42444 7.74078 7.80593 7.74235C8.24944 7.7559 8.62102 7.9383 8.94258 8.24058C9.21566 8.49751 9.36836 8.49907 9.65917 8.25308C9.80561 8.12957 9.96248 8.02482 10.1324 7.9357C10.9678 7.49792 11.8334 7.90756 12.0112 8.84251C12.1378 9.50803 11.9705 10.1042 11.4811 10.5801Z" fill="#797979"/>
<path d="M5.16313 7.00491C5.35284 7.00856 5.51804 6.85638 5.52586 6.67085C5.53472 6.46499 5.38515 6.29248 5.19023 6.28206C4.98386 6.27112 4.80093 6.43789 4.79259 6.64375C4.78477 6.82719 4.96353 7.00126 5.16313 7.00491Z" fill="#797979"/>
<path d="M13.8357 11.9788C13.8336 11.7886 13.6606 11.6119 13.4735 11.6083C13.2864 11.6047 13.1139 11.7787 13.1108 11.9736C13.1077 12.1748 13.2661 12.3353 13.4688 12.3369C13.6679 12.3379 13.8378 12.1717 13.8357 11.9788Z" fill="#797979"/>
</svg>
