<svg width="40" height="40" viewBox="0 0 40 40" fill="none" xmlns="http://www.w3.org/2000/svg">
<g clip-path="url(#clip0_3851_2229)">
<path d="M1.38596 19.7675C1.38505 23.0349 2.24546 26.2253 3.88153 29.0373L1.22949 38.6453L11.1389 36.0672C13.8797 37.5477 16.9505 38.3235 20.0712 38.3236H20.0794C30.3811 38.3236 38.767 30.0058 38.7714 19.7821C38.7734 14.828 36.8308 10.1694 33.3013 6.66462C29.7724 3.1601 25.0792 1.22907 20.0786 1.22681C9.77563 1.22681 1.39036 9.54421 1.38611 19.7675" fill="url(#paint0_linear_3851_2229)"/>
<path d="M0.718207 19.7613C0.717144 23.1463 1.6084 26.4508 3.3028 29.3636L0.555664 39.316L10.8204 36.6455C13.6486 38.1755 16.8329 38.9823 20.0732 38.9835H20.0815C30.7529 38.9835 39.44 30.3664 39.4446 19.7767C39.4464 14.6446 37.4339 9.81861 33.7783 6.18822C30.1223 2.55829 25.2612 0.557774 20.0815 0.555664C9.40835 0.555664 0.722461 9.17151 0.718207 19.7613ZM6.83106 28.862L6.44779 28.2583C4.83663 25.7163 3.98624 22.7789 3.98746 19.7626C3.99095 10.9606 11.2103 3.79942 20.0876 3.79942C24.3867 3.80123 28.4268 5.46411 31.4656 8.48116C34.5043 11.4985 36.1764 15.5095 36.1753 19.7755C36.1714 28.5775 28.9518 35.7396 20.0815 35.7396H20.0752C17.1869 35.738 14.3542 34.9684 11.8839 33.514L11.296 33.1681L5.20471 34.7527L6.83106 28.8618V28.862Z" fill="url(#paint1_linear_3851_2229)"/>
<path d="M15.2415 11.7323C14.8791 10.9329 14.4976 10.9168 14.153 10.9028C13.8707 10.8907 13.548 10.8916 13.2257 10.8916C12.903 10.8916 12.3788 11.0121 11.9357 11.4921C11.4921 11.9727 10.2422 13.1339 10.2422 15.4957C10.2422 17.8577 11.9759 20.1402 12.2176 20.4608C12.4596 20.7808 15.5646 25.7827 20.4823 27.707C24.5692 29.3061 25.401 28.9881 26.288 28.9079C27.1751 28.828 29.1505 27.7469 29.5536 26.6259C29.9569 25.5051 29.9569 24.5443 29.836 24.3436C29.715 24.1435 29.3924 24.0234 28.9085 23.7834C28.4246 23.5433 26.046 22.3819 25.6025 22.2217C25.159 22.0616 24.8365 21.9817 24.5138 22.4624C24.1911 22.9423 23.2646 24.0234 22.9822 24.3436C22.7002 24.6645 22.4177 24.7044 21.9341 24.4643C21.4499 24.2234 19.8918 23.7171 18.0432 22.0818C16.6049 20.8093 15.6339 19.238 15.3517 18.7573C15.0694 18.2773 15.3214 18.0172 15.564 17.778C15.7814 17.5629 16.048 17.2174 16.2902 16.9372C16.5314 16.6568 16.6119 16.4568 16.7732 16.1366C16.9347 15.8162 16.8539 15.5358 16.7331 15.2957C16.6119 15.0556 15.6717 12.6814 15.2415 11.7323Z" fill="white"/>
</g>
<defs>
<linearGradient id="paint0_linear_3851_2229" x1="1878.32" y1="3743.08" x2="1878.32" y2="1.22681" gradientUnits="userSpaceOnUse">
<stop stop-color="#1FAF38"/>
<stop offset="1" stop-color="#60D669"/>
</linearGradient>
<linearGradient id="paint1_linear_3851_2229" x1="1945" y1="3876.59" x2="1945" y2="0.555664" gradientUnits="userSpaceOnUse">
<stop stop-color="#F9F9F9"/>
<stop offset="1" stop-color="white"/>
</linearGradient>
<clipPath id="clip0_3851_2229">
<rect width="38.8889" height="38.8889" fill="white" transform="translate(0.555664 0.555664)"/>
</clipPath>
</defs>
</svg>
