<svg width="19" height="19" viewBox="0 0 19 19" fill="none" xmlns="http://www.w3.org/2000/svg">
<path d="M6.773 1.53748L3.98999 4.32817" stroke="white" stroke-width="1.06447" stroke-miterlimit="10" stroke-linecap="round" stroke-linejoin="round"/>
<path d="M11.6777 1.53748L14.4607 4.32817" stroke="white" stroke-width="1.06447" stroke-miterlimit="10" stroke-linecap="round" stroke-linejoin="round"/>
<path d="M1.5376 6.03501C1.5376 4.61275 2.2987 4.49744 3.2443 4.49744H15.2066C16.1522 4.49744 16.9133 4.61275 16.9133 6.03501C16.9133 7.6879 16.1522 7.57258 15.2066 7.57258H3.2443C2.2987 7.57258 1.5376 7.6879 1.5376 6.03501Z" stroke="white" stroke-width="1.06447"/>
<path d="M7.50342 10.7629V13.4921" stroke="white" stroke-width="1.06447" stroke-linecap="round"/>
<path d="M11.0398 10.7629V13.4921" stroke="white" stroke-width="1.06447" stroke-linecap="round"/>
<path d="M2.69067 7.68787L3.77466 14.3302C4.02067 15.8216 4.61264 16.9133 6.81137 16.9133H11.4471C13.8381 16.9133 14.1917 15.8678 14.4685 14.4224L15.76 7.68787" stroke="white" stroke-width="1.06447" stroke-linecap="round"/>
</svg>
