<svg width="80" height="80" viewBox="0 0 80 80" fill="none" xmlns="http://www.w3.org/2000/svg">
<circle cx="40" cy="40" r="40" fill="#FDFCFC"/>
<path d="M66.5024 62.8463L62.2981 39.6832C62.2562 39.452 62.1128 39.2518 61.9073 39.1375L51.3254 33.2519C51.188 33.1754 51.0341 33.145 50.8828 33.1567L52.808 57.9918L52.7435 58.0206L65.4077 63.7021C65.5108 63.7482 65.6203 63.771 65.7293 63.771C65.9019 63.771 66.0729 63.7142 66.2135 63.6042C66.4432 63.4248 66.5543 63.133 66.5024 62.8463Z" fill="#44C868"/>
<path d="M39.7573 38.8788L28.9347 33.2418C28.805 33.1742 28.6612 33.1466 28.5195 33.1561C28.5571 33.1538 28.5948 33.154 28.6322 33.157L26.707 57.992L39.4357 63.7024C39.5385 63.7484 39.6481 63.7713 39.7573 63.7713V38.8788Z" fill="#44C868"/>
<path d="M28.6322 33.1587C28.4809 33.147 28.327 33.1774 28.1896 33.2538L17.6076 39.1394C17.4021 39.2536 17.2587 39.4538 17.2168 39.6851L13.0126 62.8481C12.9606 63.1347 13.0718 63.4266 13.3014 63.6061C13.4422 63.7162 13.6131 63.7729 13.7856 63.7729C13.8946 63.7729 14.0042 63.7503 14.1072 63.7041L26.7024 58.0535L28.6322 33.1587Z" fill="#4CE166"/>
<path d="M50.8829 33.1621C50.7788 33.1702 50.6759 33.1979 50.5805 33.2476L39.7578 38.8844V63.777C39.7578 63.777 39.7578 63.777 39.7579 63.777C39.8671 63.777 39.9769 63.7542 40.0795 63.7081L52.8082 57.9977L50.8829 33.1621Z" fill="#4CE166"/>
<path d="M15.9439 46.7025L15.0898 51.4079L27.7363 44.7284L28.0299 40.9407L28.0786 40.3125L15.9439 46.7025Z" fill="#FFDB56"/>
<path d="M27.8489 43.2598L27.7351 44.7285L15.0886 51.408L13.0126 62.8461C12.9606 63.1327 13.0718 63.4245 13.3014 63.6041C13.4422 63.7141 13.6131 63.7709 13.7856 63.7709C13.8946 63.7709 14.0042 63.7482 14.1072 63.702L26.7024 58.0515L27.8489 43.2598Z" fill="#A8EEFC"/>
<path d="M39.7559 41.985L28.0728 40.3145L27.7305 44.7304L39.7528 62.988V56.3491L32.5788 45.0526L39.7559 45.911V41.985Z" fill="#FFBB24"/>
<path d="M61.0676 38.6751L55.9842 35.8477L51.1719 36.9721L51.2321 37.7493L51.4698 40.8153L61.0676 38.6751Z" fill="#FFBB24"/>
<path d="M51.9002 46.3219L51.4445 40.4427L51.1756 36.9727L39.7578 41.9847V45.9107L47.216 42.6674L51.9002 46.3219Z" fill="#FFDB56"/>
<path d="M66.5025 62.8462L65.4466 57.0279L51.4766 40.8145L51.9034 46.3204L66.2301 63.5895C66.448 63.409 66.5532 63.1255 66.5025 62.8462Z" fill="#FFBB24"/>
<path d="M39.8037 16C33.7453 16 28.8164 20.9248 28.8164 26.9783C28.8164 30.7229 30.5942 34.7432 34.1006 38.9273C36.6759 42.0006 39.2162 43.9772 39.3231 44.0599C39.4646 44.1693 39.6341 44.224 39.8038 44.224C39.9733 44.224 40.143 44.1693 40.2845 44.0599C40.3913 43.9772 42.9317 42.0006 45.507 38.9273C49.0133 34.7432 50.7912 30.723 50.7912 26.9783C50.7909 20.9248 45.862 16 39.8037 16ZM43.8727 26.9782C43.8727 29.2235 42.0509 31.0438 39.8037 31.0438C37.5565 31.0438 35.7347 29.2236 35.7347 26.9782C35.7347 24.7327 37.5565 22.9125 39.8037 22.9125C42.0509 22.9125 43.8727 24.7329 43.8727 26.9782Z" fill="#FF4A4A"/>
<path d="M40.0795 63.7025L44.8128 61.579L39.7578 56.3477V63.7714C39.7578 63.7714 39.7578 63.7714 39.7579 63.7714C39.8671 63.7714 39.9768 63.7487 40.0795 63.7025Z" fill="#FFDB56"/>
<path d="M39.8117 16C39.3316 16 38.8586 16.0311 38.3945 16.0911C43.786 16.788 47.9647 21.4046 47.9647 26.9783C47.9647 30.7229 46.1869 34.7432 42.6805 38.9273C41.0244 40.9036 39.3839 42.4254 38.3946 43.2826C38.9438 43.7584 39.2931 44.0304 39.3311 44.0599C39.4727 44.1693 39.6422 44.224 39.8118 44.224C39.9814 44.224 40.151 44.1693 40.2925 44.0599C40.3994 43.9772 42.9397 42.0006 45.515 38.9273C49.0214 34.7432 50.7992 30.723 50.7992 26.9783C50.799 20.9248 45.8701 16 39.8117 16Z" fill="#E7343F"/>
<path d="M62.2983 39.6868C62.2564 39.4556 62.113 39.2553 61.9075 39.1411L61.0744 38.6777L51.4766 40.818L65.4464 57.0314L62.2983 39.6868Z" fill="#1EA4E9"/>
<path d="M39.7574 63.7748C39.7575 63.7748 39.7575 63.7748 39.7574 63.7748V62.9901L27.7352 44.7324L26.707 57.9956L39.4357 63.7061C39.5385 63.7521 39.6481 63.7748 39.7574 63.7748Z" fill="#1EA4E9"/>
</svg>
