<svg width="80" height="80" viewBox="0 0 80 80" fill="none" xmlns="http://www.w3.org/2000/svg">
<circle cx="40" cy="40" r="40" fill="#FDFCFC"/>
<path d="M21.5549 65.0501L11.183 44.3063C10.7559 43.4521 11.1019 42.4139 11.9561 41.9868L15.7781 40.0758C18.339 38.7979 21.4569 39.8378 22.7366 42.3953L30.0158 56.9538C31.2979 59.5179 30.2605 62.6302 27.6963 63.9123L23.8744 65.8232C23.0115 66.2517 21.9797 65.8972 21.5549 65.0501Z" fill="#17ACE8"/>
<path d="M42.2332 17.3711C36.5286 17.3711 31.7461 22.1536 31.7461 27.8582V29.7021C31.7461 30.6703 32.5066 31.4308 33.4747 31.4308H50.9917C51.9599 31.4308 52.7204 30.6703 52.7204 29.7021V27.8582C52.7204 22.1536 47.9379 17.3711 42.2332 17.3711Z" fill="#1689FC"/>
<path d="M42.233 7C38.4301 7 35.2031 10.1117 35.2031 13.9146C35.2031 17.7175 38.4301 20.8292 42.233 20.8292C46.0359 20.8292 49.2628 17.7175 49.2628 13.9146C49.2628 10.1117 46.0359 7 42.233 7Z" fill="#17ACE8"/>
<path d="M69.3133 40.4194L59.2873 54.9401C57.3512 57.5331 54.2395 59.0889 50.9897 59.0889H21.3721L19.5742 40.9035L21.3721 39.2787C23.9997 36.9622 25.7283 35.3719 29.1165 34.5767C33.1614 33.6433 37.1835 34.7841 39.8456 37.2042C40.5371 37.7921 40.952 38.3452 41.8163 38.3452H42.2312C50.2521 38.3452 43.0033 38.3452 50.9897 38.3452C52.8912 38.3452 54.447 39.901 54.447 41.8025C54.447 43.704 52.8912 45.2598 50.9897 45.2598H43.9598C42.9917 45.2598 42.2312 46.0203 42.2312 46.9885C42.2312 47.9566 42.9917 48.7171 43.9598 48.7171H52.1307C52.7876 48.7171 54.0322 48.3022 54.6891 47.6108L64.0238 35.9943C65.1992 34.7151 67.1698 34.5076 68.5874 35.5448C70.143 36.6857 70.4543 38.8982 69.3133 40.4194Z" fill="#FEDBAB"/>
<path d="M52.7176 27.8582V29.7021C52.7176 30.6703 51.9571 31.4308 50.989 31.4308H42.2305V17.3711C47.9351 17.3711 52.7176 22.1536 52.7176 27.8582Z" fill="#136EF1"/>
<path d="M49.2603 13.9146C49.2603 17.7175 46.0334 20.8292 42.2305 20.8292V7C46.0334 7 49.2603 10.1117 49.2603 13.9146Z" fill="#1689FC"/>
</svg>
