<svg width="24" height="24" viewBox="0 0 24 24" fill="none" xmlns="http://www.w3.org/2000/svg">
<path d="M12 2.25C11.9953 2.25 11.9953 2.25 11.9906 2.25C11.9906 2.25 11.9906 2.25 11.9859 2.25C11.9812 2.25 11.9766 2.25 11.9766 2.25C6.6 2.26406 2.25 6.62344 2.25 12C2.25 17.3766 6.6 21.7359 11.9766 21.75C11.9812 21.75 11.9859 21.75 11.9859 21.75H11.9906C11.9953 21.75 11.9953 21.75 12 21.75C17.3859 21.75 21.75 17.3859 21.75 12C21.75 6.61406 17.3859 2.25 12 2.25ZM12.3891 8.08594C13.425 8.05781 14.4281 7.92188 15.3984 7.6875C15.6891 8.83594 15.8719 10.1625 15.9 11.6156H12.3891V8.08594ZM12.3891 7.30313V3.09375C13.4391 3.38437 14.5078 4.78594 15.1828 6.9375C14.2828 7.15312 13.35 7.275 12.3891 7.30313ZM11.6109 3.08438V7.30781C10.6406 7.27969 9.69844 7.15312 8.79375 6.93281C9.47813 4.76719 10.5516 3.35625 11.6109 3.08438ZM11.6109 8.08594V11.6109H8.07656C8.10469 10.1578 8.2875 8.83125 8.57812 7.68281C9.55312 7.91719 10.5703 8.05781 11.6109 8.08594ZM7.28906 11.6109H3.04219C3.12656 9.60469 3.87656 7.76719 5.07187 6.31406C5.93906 6.79219 6.8625 7.18594 7.82812 7.47656C7.50938 8.71875 7.32188 10.1203 7.28906 11.6109ZM7.28906 12.3891C7.31719 13.875 7.50469 15.2812 7.82344 16.5234C6.85781 16.8188 5.93906 17.2078 5.06719 17.6859C3.87187 16.2328 3.12656 14.3953 3.0375 12.3891H7.28906ZM8.07656 12.3891H11.6109V15.9094C10.5703 15.9375 9.55312 16.0781 8.57812 16.3172C8.2875 15.1688 8.10469 13.8422 8.07656 12.3891ZM11.6109 16.6922V20.9203C10.5516 20.6437 9.47813 19.2375 8.79375 17.0719C9.69844 16.8469 10.6406 16.7203 11.6109 16.6922ZM12.3891 20.9062V16.6875C13.35 16.7156 14.2828 16.8422 15.1875 17.0578C14.5078 19.2141 13.4437 20.6156 12.3891 20.9062ZM12.3891 15.9094V12.3891H15.9C15.8719 13.8375 15.6891 15.1641 15.3984 16.3125C14.4281 16.0781 13.425 15.9375 12.3891 15.9094ZM16.6828 12.3891H20.9578C20.8734 14.3953 20.1234 16.2281 18.9281 17.6859C18.0516 17.2031 17.1234 16.8094 16.1484 16.5141C16.4672 15.2719 16.6547 13.875 16.6828 12.3891ZM16.6828 11.6109C16.6547 10.125 16.4672 8.72344 16.1531 7.48125C17.1281 7.18594 18.0562 6.79219 18.9281 6.31406C20.1234 7.76719 20.8734 9.60469 20.9578 11.6156H16.6828V11.6109ZM18.3937 5.71406C17.6156 6.12656 16.8 6.46875 15.9422 6.72656C15.4875 5.25938 14.8453 4.06406 14.0906 3.27656C15.75 3.675 17.2312 4.5375 18.3937 5.71406ZM9.88125 3.28594C9.12656 4.06875 8.48906 5.26406 8.03906 6.72187C7.19063 6.46406 6.37969 6.12656 5.61094 5.71406C6.75937 4.54219 8.23125 3.68437 9.88125 3.28594ZM5.60625 18.2812C6.375 17.8687 7.19062 17.5312 8.03437 17.2734C8.48906 18.7359 9.12656 19.9266 9.88125 20.7141C8.23125 20.3156 6.75938 19.4578 5.60625 18.2812ZM14.0906 20.7234C14.85 19.9359 15.4875 18.7406 15.9469 17.2687C16.8047 17.5266 17.6203 17.8687 18.3984 18.2812C17.2359 19.4625 15.75 20.325 14.0906 20.7234Z" fill="#030303"/>
</svg>
