<svg width="80" height="80" viewBox="0 0 80 80" fill="none" xmlns="http://www.w3.org/2000/svg">
<circle cx="40" cy="40" r="40" fill="#FDFCFC"/>
<path d="M63.6539 19.5352C65.1802 19.5352 66.4175 20.7725 66.4175 22.2987V58.495H14.582V22.2987C14.582 20.7725 15.8193 19.5352 17.3456 19.5352H63.6539Z" fill="#5F99D7"/>
<path d="M25.1236 19.5352H17.3456C15.8193 19.5352 14.582 20.7725 14.582 22.2987V58.495H22.3599V22.2987C22.3599 20.7725 23.5972 19.5352 25.1236 19.5352Z" fill="#3C87D0"/>
<path d="M21.0039 19.5352H59.9917V48.9537H21.0039V19.5352Z" fill="#3C87D0"/>
<path d="M62.9404 23.4628V52.8285C62.9404 53.0775 62.7386 53.2795 62.4894 53.2795H18.5097C18.2606 53.2795 18.0586 53.0776 18.0586 52.8285V23.4628C18.0586 23.2137 18.2605 23.0117 18.5097 23.0117H62.4895C62.7386 23.0118 62.9404 23.2137 62.9404 23.4628V23.4628Z" fill="#DFF6FD"/>
<path d="M22.3597 23.0117H18.5097C18.2606 23.0117 18.0586 23.2136 18.0586 23.4628V52.8283C18.0586 53.0774 18.2605 53.2794 18.5097 53.2794H22.3597V23.0117Z" fill="#C8EFFE"/>
<path d="M66.1266 61.1171H14.8728C13.1482 61.1171 11.75 59.719 11.75 57.9942V57.2689C11.75 56.9866 11.9788 56.7578 12.2611 56.7578H68.7383C69.0207 56.7578 69.2495 56.9866 69.2495 57.2689V57.9942C69.2495 59.719 67.8513 61.1171 66.1266 61.1171Z" fill="#7BACDF"/>
<path d="M21.8913 57.9942V57.2689C21.8913 56.9866 22.1201 56.7578 22.4025 56.7578H12.2611C11.9788 56.7578 11.75 56.9866 11.75 57.2689V57.9942C11.75 59.7189 13.1482 61.1171 14.8728 61.1171H25.0142C23.2895 61.1171 21.8913 59.719 21.8913 57.9942V57.9942Z" fill="#5F99D7"/>
<path d="M21.0039 23.0117H59.9917V53.2794H21.0039V23.0117Z" fill="#99E6FC"/>
<path d="M57.6761 53.28V17.8965C57.6761 17.0841 57.0178 16.4258 56.2054 16.4258H24.795C23.9825 16.4258 23.3242 17.0841 23.3242 17.8965V53.2801H57.6761V53.28Z" fill="#DFF6FD"/>
<path d="M34.5858 25.9226H36.5961L37.9722 27.2986C38.6473 27.9737 39.5448 28.3453 40.4995 28.3453C41.4543 28.3453 42.3517 27.9737 43.027 27.2984L44.4028 25.9226H46.4132C49.588 25.9226 52.1708 23.3397 52.1708 20.165V16.4258H28.8281V20.165C28.8281 23.3397 31.411 25.9226 34.5858 25.9226V25.9226Z" fill="#C8EFFE"/>
<path d="M46.4154 10H34.588C32.6884 10 31.1484 11.5399 31.1484 13.4396V20.1655C31.1484 22.0651 32.6884 23.605 34.588 23.605H37.5586L39.6133 25.6598C40.1039 26.1504 40.8994 26.1504 41.3901 25.6598L43.4449 23.605H46.4154C48.3151 23.605 49.855 22.0651 49.855 20.1655V13.4396C49.855 11.5399 48.3151 10 46.4154 10V10Z" fill="#F37C7C"/>
<path d="M35.6075 20.7273V13.4412C35.6075 11.8902 36.4825 10.5609 37.7267 10H34.5841C32.6845 10 31.1445 11.5399 31.1445 13.4396V20.1655C31.1445 22.0651 32.6845 23.605 34.5841 23.605H36.8621C36.096 22.9217 35.6075 21.8864 35.6075 20.7273V20.7273Z" fill="#EE6161"/>
<path d="M41.0897 20.9479L44.2753 17.7623C45.195 16.8426 45.195 15.3515 44.2753 14.4317C43.3557 13.5121 41.8645 13.5121 40.9448 14.4317L40.5442 14.8323L40.0588 14.3658C39.1341 13.4774 37.6686 13.492 36.7618 14.3987L36.7288 14.4317C35.8092 15.3514 35.8092 16.8425 36.7288 17.7623L39.9145 20.9479C40.2391 21.2724 40.7651 21.2724 41.0897 20.9479V20.9479Z" fill="#F3F0F3"/>
<path d="M33.1475 39.8457C36.2017 39.8457 38.6777 37.3697 38.6777 34.3154C38.6777 31.2611 36.2017 28.7852 33.1475 28.7852C30.0932 28.7852 27.6172 31.2611 27.6172 34.3154C27.6172 37.3697 30.0932 39.8457 33.1475 39.8457Z" fill="#C8EFFE"/>
<path d="M52.9822 35.1838H42.627C42.147 35.1838 41.7578 34.7947 41.7578 34.3145C41.7578 33.8344 42.147 33.4453 42.627 33.4453H52.9822C53.4623 33.4453 53.8514 33.8344 53.8514 34.3145C53.8514 34.7947 53.4623 35.1838 52.9822 35.1838Z" fill="#C8EFFE"/>
<path d="M31.1509 45.8849H29.8067C29.3267 45.8849 28.9375 45.4959 28.9375 45.0157C28.9375 44.5356 29.3267 44.1465 29.8067 44.1465H31.151C31.6311 44.1465 32.0202 44.5356 32.0202 45.0157C32.0202 45.4959 31.631 45.8849 31.1509 45.8849V45.8849Z" fill="#C8EFFE"/>
<path d="M51.3112 45.8849H49.9669C49.4868 45.8849 49.0977 45.4959 49.0977 45.0157C49.0977 44.5356 49.4868 44.1465 49.9669 44.1465H51.3112C51.7912 44.1465 52.1804 44.5356 52.1804 45.0157C52.1804 45.4959 51.7912 45.8849 51.3112 45.8849Z" fill="#C8EFFE"/>
<path d="M46.6861 45.8849H34.2599C33.7798 45.8849 33.3906 45.4959 33.3906 45.0157C33.3906 44.5356 33.7798 44.1465 34.2599 44.1465H46.6861C47.1662 44.1465 47.5553 44.5356 47.5553 45.0157C47.5553 45.4959 47.1662 45.8849 46.6861 45.8849Z" fill="#C8EFFE"/>
<path d="M52.9837 53.2812V49.6214C52.9837 49.2534 52.6853 48.9551 52.3174 48.9551H28.6858C28.3178 48.9551 28.0195 49.2534 28.0195 49.6214V53.2812H52.9837Z" fill="#C8EFFE"/>
</svg>
