<svg width="80" height="80" viewBox="0 0 80 80" fill="none" xmlns="http://www.w3.org/2000/svg">
<circle cx="40" cy="40" r="40" fill="#FDFCFC"/>
<path d="M70.3789 40.87C71.4667 41.0842 72.1751 42.1385 71.9622 43.225L71.1686 47.2665C70.9493 48.3852 69.8395 49.1027 68.7195 48.8278C67.6704 48.5711 67.0342 47.4987 67.242 46.4393L67.2639 46.3309L62.0327 46.5697C61.8752 46.5761 61.7384 46.6806 61.6894 46.8316C61.1784 48.3749 60.5061 49.846 59.6919 51.2215C59.6093 51.3609 59.6222 51.5377 59.7267 51.6615L62.0404 54.4101C62.4998 53.9726 63.0998 53.7455 63.7063 53.7455C64.2173 53.7455 64.7334 53.9068 65.1709 54.2423C66.2303 55.0527 66.4316 56.5689 65.6212 57.6296L64.9502 58.5058C64.1631 59.5355 62.6959 59.8117 61.6275 59.0748C60.7074 58.4413 60.3745 57.3018 60.7074 56.3121L57.3743 54.8475C57.2234 54.7817 57.0492 54.8204 56.9395 54.9417C55.3962 56.636 53.5999 58.0941 51.6102 59.2581C51.4734 59.3381 51.3998 59.4929 51.4256 59.6491L52.2786 64.8519L53.0167 64.5564C54.0761 64.1332 55.2813 64.6751 55.6594 65.7655C56.013 66.7862 55.4581 67.9024 54.4555 68.3024L50.6837 69.8122C49.6255 70.2354 48.4203 69.6935 48.0422 68.6031C47.6887 67.5824 48.2435 66.4662 49.2462 66.0649L49.3481 66.0249L46.3054 61.7614C46.2137 61.6324 46.0524 61.5756 45.8989 61.6156C44.0807 62.0866 42.1735 62.3395 40.207 62.3395C38.6508 62.3395 37.1333 62.1808 35.6661 61.8814C35.5112 61.8505 35.3525 61.9163 35.2674 62.0492L32.2233 66.8249L32.3304 66.8636C33.3214 67.225 33.9357 68.1605 33.9357 69.1567C33.9357 69.4354 33.8879 69.718 33.7873 69.9941C33.7873 71.4226 32.6892 72.1917 31.3472 71.7013L27.6063 70.3374C26.3546 69.8819 25.7017 68.5076 26.134 67.2521C26.5779 65.9578 28.0528 65.3049 29.338 65.7733L29.4245 65.8042L30.0439 60.2078C30.0619 60.0504 29.9793 59.9007 29.8387 59.8271C27.4695 58.6039 25.3443 56.9741 23.5545 55.0295C23.4461 54.912 23.277 54.8733 23.1299 54.934L18.5645 56.8063C19.0807 57.7715 18.7904 58.9948 17.8484 59.6142C16.8651 60.2607 15.5373 59.9601 14.8663 58.9948L13.6972 57.3109C13.043 56.3702 13.1952 55.0592 14.0959 54.3494C15.056 53.5933 16.4251 53.7894 17.1438 54.7404L20.3595 51.1067C20.4666 50.9854 20.4846 50.8099 20.4059 50.6692C19.0859 48.2898 18.1826 45.647 17.7942 42.8404C17.7722 42.683 17.6574 42.5553 17.5038 42.5204L12.3655 41.3333L12.3603 41.9359C12.3552 42.5385 12.1074 43.0843 11.7087 43.4779C11.3112 43.8727 10.7641 44.1153 10.1602 44.1153C8.96015 44.1153 7.98849 43.1359 8.0001 41.9359L8.03365 38.2028C8.04398 36.9821 9.05306 35.9536 10.2725 35.9859C11.4558 36.0168 12.4003 36.9898 12.3939 38.177L17.4948 36.9808C17.6496 36.9446 17.7645 36.8169 17.7851 36.6595C18.1852 33.6916 19.162 30.9056 20.5982 28.4177C20.6782 28.2784 20.664 28.1042 20.5595 27.9803L18.1271 25.1234L17.9155 25.4021C17.26 26.2692 16.0083 26.4202 15.1631 25.7169C14.3708 25.0563 14.274 23.8717 14.896 23.0497L16.5167 20.9076C16.8935 20.4108 17.4651 20.1489 18.0445 20.1489C18.4458 20.1489 18.851 20.2754 19.1968 20.536C19.9982 21.1412 20.1866 22.2535 19.6575 23.0871L23.059 24.5582C23.2087 24.6227 23.3816 24.584 23.4925 24.464C25.0978 22.7039 26.9779 21.1993 29.0657 20.016C29.2025 19.9373 29.2787 19.7837 29.2554 19.6276L28.4722 14.4131L27.7289 14.6996C26.6656 15.1086 25.4668 14.5499 25.1042 13.4556C24.7636 12.4298 25.3339 11.3213 26.3417 10.9342L30.1329 9.47607C31.1975 9.06702 32.3949 9.62447 32.7575 10.72C33.0982 11.7446 32.5292 12.853 31.5201 13.2414L31.4181 13.2801L34.4015 17.5823C34.4918 17.7126 34.6518 17.772 34.8054 17.7346C36.5371 17.31 38.3449 17.0855 40.207 17.0855H40.2096C40.3721 17.0855 40.518 16.9861 40.5722 16.8326L41.5606 14.0686C40.416 13.7098 39.6534 12.5808 39.7992 11.3497C39.9657 9.95481 41.3012 8.96379 42.6961 9.13928L44.0536 9.30961C45.4369 9.48381 46.4744 10.7226 46.3234 12.1098C46.2047 13.1898 45.4279 14.0312 44.442 14.2892L44.7853 17.2855C44.8034 17.4468 44.9234 17.5784 45.0834 17.6133C47.3777 18.1178 49.5417 18.9708 51.516 20.1128C51.654 20.1915 51.8244 20.1799 51.947 20.0792L56.0414 16.7565L55.4194 16.2622C54.5252 15.5525 54.3987 14.2376 55.1574 13.3692C55.8672 12.5549 57.1124 12.4827 57.9576 13.155L61.1384 15.6803C62.0327 16.3887 62.1591 17.7049 61.4004 18.5733C60.6906 19.3863 59.4454 19.4585 58.6002 18.7875L58.5138 18.7191L56.3214 23.4794C56.2543 23.6226 56.2853 23.7917 56.3962 23.9052C57.9395 25.486 59.2532 27.2925 60.2829 29.2694C60.3577 29.4126 60.5139 29.4939 60.6739 29.472L63.7824 29.0371C63.3256 27.7622 64.0031 26.3492 65.3064 25.9221C66.549 25.5143 67.8885 26.2047 68.3452 27.4306L69.0614 29.3507C69.5131 30.5649 68.9711 31.9547 67.7839 32.4708C66.6458 32.9651 65.3619 32.5186 64.7502 31.5095L62.1707 33.2593C62.0352 33.3509 61.9746 33.5186 62.0185 33.6761C62.5488 35.5988 62.8327 37.6221 62.8327 39.7125C62.8327 40.0622 62.825 40.4093 62.8082 40.7539C62.8017 40.9126 62.8908 41.0584 63.0353 41.1216L67.8717 43.234L68.0239 42.4533C68.2381 41.3655 69.2924 40.6571 70.3789 40.87Z" fill="#F79595"/>
<path d="M50.0304 31.2424C51.7947 31.2424 53.2249 30.0465 53.2249 28.5714C53.2249 27.0962 51.7947 25.9004 50.0304 25.9004C48.2662 25.9004 46.8359 27.0962 46.8359 28.5714C46.8359 30.0465 48.2662 31.2424 50.0304 31.2424Z" fill="#EE6161"/>
<path d="M38.5073 48.6962C40.4357 48.6962 41.999 47.133 41.999 45.2046C41.999 43.2762 40.4357 41.7129 38.5073 41.7129C36.5789 41.7129 35.0156 43.2762 35.0156 45.2046C35.0156 47.133 36.5789 48.6962 38.5073 48.6962Z" fill="#EE6161"/>
<path d="M52.1094 45.8867C53.4901 45.8867 54.6094 44.7674 54.6094 43.3867C54.6094 42.006 53.4901 40.8867 52.1094 40.8867C50.7287 40.8867 49.6094 42.006 49.6094 43.3867C49.6094 44.7674 50.7287 45.8867 52.1094 45.8867Z" fill="#F9B1B1"/>
<path d="M42.8759 58.0155C44.2183 58.0155 45.3065 56.9273 45.3065 55.5849C45.3065 54.2425 44.2183 53.1543 42.8759 53.1543C41.5335 53.1543 40.4453 54.2425 40.4453 55.5849C40.4453 56.9273 41.5335 58.0155 42.8759 58.0155Z" fill="#F9B1B1"/>
<path d="M26.4468 38.6288C26.4468 29.9305 30.5963 22.1997 37.021 17.3079C36.2709 17.4137 35.5303 17.5567 34.8054 17.7345C34.6518 17.7719 34.4918 17.7126 34.4015 17.5823L31.4181 13.2801L31.5201 13.2414C32.5292 12.853 33.0982 11.7445 32.7575 10.72C32.3949 9.62441 31.1975 9.06696 30.1329 9.47602L26.3417 10.9342C25.3339 11.3213 24.7636 12.4297 25.1042 13.4556C25.4668 14.5498 26.6656 15.1086 27.7289 14.6995L28.4722 14.4131L29.2554 19.6275C29.2787 19.7837 29.2025 19.9372 29.0657 20.0159C26.9779 21.1992 25.0978 22.7038 23.4925 24.4639C23.3816 24.5839 23.2087 24.6226 23.059 24.5581L19.6575 23.0871C20.1866 22.2535 19.9982 21.1412 19.1968 20.536C18.851 20.2753 18.4458 20.1488 18.0445 20.1488C17.4651 20.1488 16.8935 20.4108 16.5167 20.9076L14.896 23.0496C14.274 23.8716 14.3708 25.0562 15.1631 25.7169C16.0083 26.4201 17.26 26.2692 17.9155 25.402L18.1271 25.1233L20.5595 27.9802C20.664 28.1041 20.6782 28.2783 20.5982 28.4177C19.162 30.9055 18.1852 33.6915 17.7851 36.6594C17.7645 36.8168 17.6496 36.9446 17.4948 36.9807L12.3939 38.1769C12.4003 36.9897 11.4558 36.0168 10.2725 35.9858C9.05306 35.9536 8.04398 36.982 8.03365 38.2027L8.0001 41.9358C7.98849 43.1359 8.96015 44.1153 10.1602 44.1153C10.7641 44.1153 11.3112 43.8727 11.7087 43.4778C12.1074 43.0843 12.3552 42.5384 12.3603 41.9358L12.3655 41.3332L17.5038 42.5204C17.6574 42.5552 17.7722 42.6829 17.7942 42.8404C18.1826 45.647 19.0859 48.2897 20.4059 50.6692C20.4846 50.8098 20.4666 50.9853 20.3595 51.1066L17.1438 54.7404C16.4251 53.7893 15.056 53.5932 14.0959 54.3494C13.1952 55.0591 13.043 56.3701 13.6972 57.3108L14.8663 58.9948C15.5373 59.96 16.8651 60.2607 17.8484 59.6142C18.7904 58.9948 19.0807 57.7715 18.5645 56.8063L23.1299 54.9339C23.277 54.8733 23.4461 54.912 23.5545 55.0294C25.3443 56.974 27.4695 58.6038 29.8387 59.8271C29.9793 59.9006 30.0619 60.0503 30.0439 60.2077L29.4245 65.8042L29.338 65.7732C28.0528 65.3048 26.5779 65.9577 26.134 67.252C25.7017 68.5075 26.3546 69.8818 27.6063 70.3373L31.3472 71.7013C32.6892 72.1916 33.7873 71.4225 33.7873 69.9941C33.8879 69.7179 33.9357 69.4353 33.9357 69.1566C33.9357 68.1604 33.3214 67.2249 32.3304 66.8636L32.2233 66.8249L35.2674 62.0491C35.3525 61.9162 35.5112 61.8504 35.6661 61.8814C37.1333 62.1808 38.6508 62.3395 40.207 62.3395C40.3901 62.3395 40.5762 62.3372 40.7582 62.3329C32.2511 57.8468 26.4468 48.9148 26.4468 38.6288Z" fill="#F37C7C"/>
<path d="M27.6726 52.3023C29.071 52.3023 30.2046 51.1687 30.2046 49.7703C30.2046 48.3719 29.071 47.2383 27.6726 47.2383C26.2742 47.2383 25.1406 48.3719 25.1406 49.7703C25.1406 51.1687 26.2742 52.3023 27.6726 52.3023Z" fill="#EE6161"/>
<path d="M46.4093 38.6289H45.5537C45.0191 38.6289 44.5859 38.1956 44.5859 37.6612C44.5859 37.1267 45.0191 36.6934 45.5537 36.6934H46.4093C46.9439 36.6934 47.3771 37.1267 47.3771 37.6612C47.3771 38.1956 46.9439 38.6289 46.4093 38.6289Z" fill="#F9B1B1"/>
<path d="M35.0109 55.545H34.1319C33.5972 55.545 33.1641 55.1116 33.1641 54.5772C33.1641 54.0427 33.5972 53.6094 34.1319 53.6094H35.0109C35.5455 53.6094 35.9787 54.0427 35.9787 54.5772C35.9787 55.1116 35.5455 55.545 35.0109 55.545Z" fill="#F9B1B1"/>
<path d="M25.9903 41.4512H25.1436C24.609 41.4512 24.1758 41.0179 24.1758 40.4834C24.1758 39.9489 24.609 39.5156 25.1436 39.5156H25.9903C26.5249 39.5156 26.9581 39.9489 26.9581 40.4834C26.9581 41.0179 26.5249 41.4512 25.9903 41.4512Z" fill="#EE6161"/>
<path d="M43.1774 24.5196H41.999C41.4644 24.5196 41.0312 24.0863 41.0312 23.5518C41.0312 23.0173 41.4644 22.584 41.999 22.584H43.1774C43.712 22.584 44.1452 23.0173 44.1452 23.5518C44.1452 24.0863 43.712 24.5196 43.1774 24.5196Z" fill="#F9B1B1"/>
<path d="M50.9136 52.3926H49.6123C49.0777 52.3926 48.6445 51.9593 48.6445 51.4248C48.6445 50.8903 49.0777 50.457 49.6123 50.457H50.9136C51.4482 50.457 51.8814 50.8903 51.8814 51.4248C51.8814 51.9593 51.448 52.3926 50.9136 52.3926Z" fill="#EE6161"/>
<path d="M36.1511 35.6079C39.0409 33.3292 39.8408 29.5256 37.9377 27.1122C36.0347 24.6988 32.1494 24.5896 29.2597 26.8683C26.3699 29.1469 25.5701 32.9506 27.4731 35.3639C29.3761 37.7773 33.2614 37.8865 36.1511 35.6079Z" fill="#EE6161"/>
</svg>
