<svg width="80" height="80" viewBox="0 0 80 80" fill="none" xmlns="http://www.w3.org/2000/svg">
<circle cx="40" cy="40" r="40" fill="#FDFCFC"/>
<path d="M68.3017 41.9853C68.3017 58.3609 55.0254 71.6357 38.6503 71.6357C34.6332 71.6357 30.8038 70.8369 27.311 69.3892C17.7644 65.4347 10.7326 56.6367 9.27893 46.0605C9.09414 44.7285 9 43.3679 9 41.9853C9 25.6088 22.2748 12.334 38.6503 12.334C55.0254 12.334 68.3017 25.6088 68.3017 41.9853Z" fill="#937DE2"/>
<path d="M38.6515 12.334C37.0836 12.334 35.5448 12.4567 34.043 12.691C48.2302 14.9049 59.0863 27.1762 59.0863 41.9853C59.0863 56.7925 48.2312 69.0632 34.045 71.2781C35.5463 71.5125 37.0841 71.6357 38.651 71.6357C55.0266 71.6357 68.3028 58.3609 68.3028 41.9853C68.3028 25.6088 55.0266 12.334 38.6515 12.334V12.334Z" fill="#7570D6"/>
<path d="M72.0063 39.7941L55.0749 51.0057C53.8685 51.805 52.4073 52.122 50.9791 51.8936C49.5474 51.6658 48.0827 51.9782 46.8733 52.779L44.6074 54.2808L31.918 35.5757L35.0312 22.1261C35.2731 21.079 35.3928 20.0179 35.3928 18.9607C35.3928 16.2261 34.5931 13.5269 33.0592 11.2099C32.6821 10.64 32.5019 9.99554 32.5019 9.35907C32.5019 8.27141 33.0297 7.20427 34.0052 6.55829C35.3197 5.68745 37.0618 5.8492 38.1936 6.94688L40.2106 8.90037C42.5172 11.1383 44.2964 13.863 45.4136 16.8766L46.5073 19.8211L57.77 12.3797C59.5687 11.1889 62.002 11.7097 63.1507 13.552C64.2584 15.3267 63.6895 17.6718 61.9444 18.827C61.9233 18.8411 61.9218 18.8636 61.9289 18.8806C61.9389 18.8992 61.9599 18.9117 61.9834 18.9017C62.4286 18.7304 62.8943 18.6473 63.356 18.6473C64.0932 18.6473 64.8238 18.8596 65.4487 19.2637C65.8794 19.5421 66.261 19.9122 66.5619 20.3669C67.1433 21.2452 67.3166 22.2753 67.1263 23.2328C66.8278 24.7411 65.7317 25.5183 65.5163 25.6645C65.4798 25.69 65.4698 25.7406 65.4953 25.7787C65.4953 25.7797 65.4968 25.7812 65.4978 25.7812C65.5219 25.8152 65.5709 25.8247 65.606 25.8027C65.9129 25.7281 66.2254 25.6925 66.5379 25.6925C67.3006 25.6925 68.0592 25.9094 68.7042 26.3205C69.1404 26.5994 69.526 26.968 69.8244 27.4197C70.9952 29.1874 70.5115 31.57 68.7418 32.7413C68.6982 32.7709 68.6546 32.8004 68.6111 32.8285C68.586 32.8485 68.5785 32.8805 68.5915 32.9031C68.594 32.9086 68.6001 32.9146 68.6056 32.9171C68.6251 32.9326 68.6561 32.9341 68.6817 32.9146C69.7809 32.54 70.9772 32.7103 71.9397 33.3337C72.3828 33.6182 72.7759 34.0012 73.0869 34.471C74.2582 36.2402 73.774 38.6228 72.0063 39.7941V39.7941Z" fill="#FDD7BD"/>
<path d="M44.7685 57.8302L37.6256 62.5604L27.3133 69.3894C17.7667 65.4343 10.735 56.6379 9.28125 46.0607L21.2485 38.1356L28.5337 33.3107C29.3725 32.7548 30.5042 32.9857 31.06 33.826L45.2838 55.3023C45.8396 56.1426 45.6088 57.2723 44.7685 57.8302V57.8302Z" fill="#87DBFF"/>
<path d="M44.7661 57.8302L37.6231 62.5604L21.2461 38.1356L28.5312 33.3107C29.37 32.7548 30.5017 32.9857 31.0576 33.826L45.2813 55.3018C45.8372 56.1426 45.6063 57.2723 44.7661 57.8302V57.8302Z" fill="#6FC7FF"/>
<path d="M65.446 19.2644L59.8119 22.2795C59.0127 22.7061 58.0217 22.4833 57.4844 21.7557L61.9262 18.8818C61.9362 18.9003 61.9572 18.9128 61.9808 18.9028C62.4259 18.7316 62.8916 18.6484 63.3533 18.6484C64.091 18.6484 64.8211 18.8608 65.446 19.2644V19.2644Z" fill="#FAC5AA"/>
<path d="M68.7028 26.3213L63.1913 29.2683C62.3921 29.6965 61.4011 29.4741 60.8633 28.7465L65.3051 25.8721L65.4969 25.782C65.5209 25.816 65.57 25.8256 65.605 25.8035C65.912 25.7289 66.2245 25.6934 66.537 25.6934C67.2996 25.6934 68.0583 25.9102 68.7028 26.3213Z" fill="#FAC5AA"/>
<path d="M71.9403 33.3351L67.0859 35.932C66.2877 36.3582 65.2971 36.1358 64.7578 35.4082L68.6057 32.9184C68.6257 32.9339 68.6568 32.9354 68.6818 32.9154C69.781 32.5413 70.9773 32.7116 71.9403 33.3351V33.3351Z" fill="#FAC5AA"/>
</svg>
