<svg width="80" height="80" viewBox="0 0 80 80" fill="none" xmlns="http://www.w3.org/2000/svg">
<circle cx="40" cy="40" r="40" fill="#FDFCFC"/>
<path d="M55.5884 67.6488C54.6543 68.2491 53.6873 68.8005 52.6884 69.3005C51.1724 70.0585 49.5855 70.6991 47.9424 71.2053C47.8898 71.2212 47.8385 71.2371 47.7859 71.253C47.336 71.3899 46.8812 71.517 46.4227 71.6344C46.1183 71.7114 45.8126 71.7836 45.5058 71.852C44.0949 72.165 42.6486 72.3826 41.173 72.4988C40.3551 72.5623 39.5298 72.5953 38.696 72.5953C38.2608 72.5953 37.828 72.5868 37.3976 72.5684C37.1507 72.5587 36.9049 72.5464 36.6604 72.5305C36.1103 72.4951 35.5638 72.445 35.0222 72.3814C34.626 71.9083 34.2642 71.3997 33.9414 70.8605L39.1838 67.7173C39.9724 69.0303 41.2243 69.9595 42.7097 70.3311C44.1964 70.7028 45.7381 70.4742 47.0523 69.6868C49.764 68.0596 50.6479 64.53 49.0219 61.8183L40.3294 47.3222L45.5718 44.1777L54.2643 58.6751C55.9454 61.4784 56.328 64.7048 55.5884 67.6488Z" fill="#DD5790"/>
<path d="M49.7386 69.6868C48.4414 70.4644 46.923 70.6967 45.4559 70.3446C46.0121 70.2089 46.5501 69.9888 47.055 69.6868C49.7679 68.0596 50.6506 64.53 49.0246 61.8183L40.332 47.3222L45.5757 44.1777L46.2848 45.3612L43.0156 47.3222L51.7081 61.8183C53.3342 64.53 52.4502 68.0596 49.7386 69.6868Z" fill="#9D549B"/>
<path d="M41.1707 68.465V72.5044C40.3528 72.5679 39.5275 72.6009 38.6937 72.6009C29.6051 72.6009 21.4223 68.7266 15.7031 62.5403C17.515 60.1037 20.4149 58.5254 23.6853 58.5254H31.2299C36.7205 58.5254 41.1707 62.9756 41.1707 68.465Z" fill="#DD5790"/>
<path d="M30.3 58.5254C25.3877 58.5254 21.3067 62.088 20.5035 66.7729C18.7626 65.5283 17.1536 64.1089 15.7037 62.5403C15.7037 62.5403 15.7024 62.5403 15.7037 62.5391C17.5155 60.1037 20.4155 58.5254 23.6859 58.5254H30.3Z" fill="#9D549B"/>
<path d="M31.9091 47.4277V59.2047C31.9091 60.4471 31.4052 61.5715 30.5911 62.3843C29.7784 63.1984 28.6539 63.7022 27.4116 63.7022C26.5364 63.7022 25.7196 63.4529 25.0302 63.0194C23.76 62.2252 22.9141 60.813 22.9141 59.2047V47.4277H31.9091Z" fill="#FFDDCE"/>
<path d="M31.9093 47.4297V58.6538C31.2967 58.74 30.6722 58.7838 30.0357 58.7838C27.4223 58.7838 24.9812 58.0413 22.9141 56.755V47.4297H31.9093Z" fill="#FFCBBE"/>
<path d="M25.0302 52.0039V63.0239C23.76 62.2297 22.9141 60.8175 22.9141 59.2092V52.004H25.0302V52.0039Z" fill="#FFCBBE"/>
<path d="M26.2534 15.9414C21.4162 15.9414 17.3679 19.308 16.3165 23.8253L13.9202 21.4291C12.2127 23.1365 11.8705 25.6909 12.8905 27.7395H10C10 30.763 12.4509 33.2139 15.4743 33.2139C15.6681 33.2139 15.8595 33.2035 16.048 33.1838V34.1518H32.7591V15.9414H26.2534Z" fill="#21386B"/>
<path d="M16.6113 34.8223C14.4733 36.9602 14.4733 40.4263 16.6113 42.5642C18.7492 44.7022 22.2153 44.7022 24.3532 42.5642" fill="#26457D"/>
<path d="M46.0726 39.5867H16.1869C14.252 39.5867 12.6836 38.0182 12.6836 36.0834C12.6836 34.1485 14.252 32.5801 16.1869 32.5801H46.0726C48.0074 32.5801 49.5759 34.1485 49.5759 36.0834C49.576 38.0182 48.0074 39.5867 46.0726 39.5867Z" fill="#FFCBBE"/>
<path d="M16.1881 37.5793C15.3628 37.5793 14.6914 36.9079 14.6914 36.0826C14.6914 35.2574 15.3628 34.5859 16.1881 34.5859H46.0738C46.899 34.5859 47.5704 35.2574 47.5704 36.0826C47.5704 36.9079 46.899 37.5793 46.0738 37.5793H16.1881Z" fill="#EAAC9D"/>
<path d="M31.7082 56.7471C24.2452 56.7471 18.1953 50.6971 18.1953 43.2341V33.6535C18.1953 26.1906 24.2452 20.1406 31.7082 20.1406H39.2392C42.543 20.1406 45.2211 22.8188 45.2211 26.1226V43.2341C45.2211 50.6971 39.1712 56.7471 31.7082 56.7471Z" fill="#FFDDCE"/>
<path d="M35.0428 56.3326C33.9764 56.6035 32.8598 56.7468 31.7088 56.7468C24.2454 56.7468 18.1953 50.6981 18.1953 43.2346V33.6542C18.1953 26.1907 24.2455 20.1406 31.7088 20.1406H38.3753C30.9133 20.1406 24.8631 26.1908 24.8631 33.6542V43.2346C24.8633 49.5485 29.1919 54.849 35.0428 56.3326Z" fill="#FFCBBE"/>
<path d="M35.8264 39.6592H32.3945V21.8565C32.3945 20.9089 33.1628 20.1406 34.1104 20.1406C35.058 20.1406 35.8263 20.9089 35.8263 21.8565V39.6592H35.8264Z" fill="#FFCBBE"/>
<path d="M21.8364 17.6602V19.6976C19.2078 20.6602 17.332 23.1841 17.332 26.1462V32.5826H18.2781C21.6647 32.5826 24.4103 29.8372 24.4103 26.4504V22.3313H27.2899C29.8061 22.3313 31.846 20.2914 31.846 17.7752V17.6602H21.8364Z" fill="#21386B"/>
<path d="M44.1188 17.3739L47.1732 14.3195C44.2935 11.4398 39.6246 11.4398 36.745 14.3195V10C32.6724 10 29.3711 13.3015 29.3711 17.3739C29.3711 21.4463 32.6725 24.7477 36.745 24.7477H51.4928C51.4927 20.6753 48.1913 17.3739 44.1188 17.3739Z" fill="#26457D"/>
<path d="M36.1597 37.1406H33.3952C32.3334 37.1406 31.4727 38.0013 31.4727 39.0631C31.4727 40.1249 32.3334 40.9856 33.3952 40.9856H36.1597C37.2215 40.9856 38.0822 40.1249 38.0822 39.0631C38.0822 38.0013 37.2215 37.1406 36.1597 37.1406Z" fill="#FFCBBE"/>
<path d="M30.2892 35.1443H27.1116C26.5625 35.1443 26.1172 34.699 26.1172 34.1498C26.1172 33.6007 26.5625 33.1554 27.1116 33.1554H29.046C28.6896 32.4896 27.9872 32.0358 27.1807 32.0358C26.6315 32.0358 26.1863 31.5905 26.1863 31.0413C26.1863 30.4921 26.6315 30.0469 27.1807 30.0469C29.4432 30.0469 31.2838 31.8875 31.2838 34.1498C31.2838 34.699 30.8385 35.1443 30.2892 35.1443Z" fill="#EAAC9D"/>
<path d="M29.4157 49.7864C29.0764 49.7864 28.7371 49.6569 28.4781 49.3979C27.9604 48.8802 27.9604 48.0405 28.4783 47.5227C28.815 47.186 29.0003 46.7383 29.0003 46.2623C29.0003 45.7861 28.8148 45.3385 28.4783 45.0018C27.9605 44.484 27.9604 43.6445 28.4781 43.1266C28.9959 42.6088 29.8355 42.6088 30.3533 43.1266C31.1909 43.9642 31.6522 45.0777 31.6522 46.2623C31.6522 47.4467 31.1909 48.5604 30.3533 49.3979C30.0944 49.6568 29.755 49.7864 29.4157 49.7864Z" fill="#FFCBBE"/>
<path d="M40.4496 35.1443H37.7054C37.1562 35.1443 36.7109 34.699 36.7109 34.1498C36.7109 31.8875 38.5515 30.0469 40.814 30.0469C41.3632 30.0469 41.8085 30.4921 41.8085 31.0413C41.8085 31.5905 41.3632 32.0358 40.814 32.0358C40.0075 32.0358 39.3051 32.4896 38.9487 33.1554H40.4496C40.9988 33.1554 41.444 33.6007 41.444 34.1498C41.444 34.699 40.9988 35.1443 40.4496 35.1443Z" fill="#EAAC9D"/>
<path d="M37.0994 44.4072V49.0359C37.0994 49.8782 36.4429 50.5677 35.6128 50.6203C35.5785 50.6228 34.9267 50.0063 34.8924 50.0063L34.4129 49.7337C33.5363 49.7337 33.1323 49.9124 33.1323 49.0359L32.6016 47.471V44.4072C32.6016 44.3167 32.6077 44.2275 32.6175 44.1394C32.6248 44.0783 32.9451 44.0184 32.9561 43.9597C32.9586 43.9475 33.5758 43.7425 33.5795 43.7302C33.8008 42.7216 33.774 42.497 34.8499 42.497C35.312 42.497 35.7424 42.2982 36.1006 42.5391C36.2228 42.621 36.3365 42.7139 36.4405 42.8178C36.7388 43.1149 36.9539 43.4951 37.0469 43.9218C37.0505 43.934 37.053 43.9475 37.0554 43.9597C37.0835 44.104 37.0994 44.2544 37.0994 44.4072Z" fill="#21386B"/>
<path d="M36.1042 42.5443V44.1446H32.6211C32.6284 44.0835 32.6382 44.0236 32.6492 43.9649C32.6517 43.9527 32.6541 43.9405 32.6578 43.9282C32.8791 42.9196 33.7777 42.1641 34.8535 42.1641C35.3157 42.1641 35.746 42.3034 36.1042 42.5443Z" fill="#F9F6F6"/>
<path d="M35.6128 49.5762V50.624C35.5785 50.6264 35.5443 50.6276 35.5101 50.6276H34.1897C33.3131 50.6276 32.6016 49.9161 32.6016 49.0395V47.4746H33.5099C34.6714 47.4746 35.6128 48.416 35.6128 49.5762Z" fill="#DD5790"/>
<path d="M51.5565 41.963C51.1109 41.963 50.7054 41.6613 50.5924 41.2095C50.4592 40.6767 50.7832 40.1367 51.316 40.0035L58.1944 38.2839C58.7271 38.1506 59.2671 38.4746 59.4004 39.0074C59.5337 39.5402 59.2097 40.0802 58.6769 40.2133L51.7984 41.933C51.7175 41.9533 51.6363 41.963 51.5565 41.963Z" fill="#E4F6FF"/>
<path d="M56.0117 46.7151C55.963 46.7151 55.9139 46.7115 55.8644 46.7042L51.411 46.0428C50.8677 45.9621 50.4927 45.4563 50.5734 44.913C50.654 44.3697 51.1598 43.9946 51.7031 44.0754L56.1565 44.7368C56.6998 44.8175 57.0747 45.3233 56.994 45.8666C56.9208 46.3603 56.4963 46.7151 56.0117 46.7151Z" fill="#E4F6FF"/>
<path d="M59.1969 31.6047C65.1628 31.6047 69.9992 26.7683 69.9992 20.8023C69.9992 14.8364 65.1628 10 59.1969 10C53.2309 10 48.3945 14.8364 48.3945 20.8023C48.3945 26.7683 53.2309 31.6047 59.1969 31.6047Z" fill="#DD5790"/>
<path d="M59.1962 29.8924C64.2169 29.8924 68.2869 25.8223 68.2869 20.8017C68.2869 15.781 64.2169 11.7109 59.1962 11.7109C54.1755 11.7109 50.1055 15.781 50.1055 20.8017C50.1055 25.8223 54.1755 29.8924 59.1962 29.8924Z" fill="#F9F6F6"/>
<path d="M59.1962 29.8924C64.2169 29.8924 68.2869 25.8223 68.2869 20.8017C68.2869 15.781 64.2169 11.7109 59.1962 11.7109C54.1755 11.7109 50.1055 15.781 50.1055 20.8017C50.1055 25.8223 54.1755 29.8924 59.1962 29.8924Z" fill="#F9F6F6"/>
<path d="M61.0867 29.6951C60.4766 29.8247 59.8445 29.8931 59.1966 29.8931C54.184 29.8931 50.1055 25.8146 50.1055 20.802C50.1055 15.7895 54.184 11.7109 59.1966 11.7109C59.8445 11.7109 60.4766 11.7794 61.0867 11.909C56.9788 12.7807 53.8869 16.4374 53.8869 20.802C53.8869 25.1666 56.9788 28.8234 61.0867 29.6951Z" fill="#DDDAEC"/>
<path d="M54.4051 25.5952C53.7973 24.9874 53.7973 24.0017 54.4051 23.3939L61.7903 16.0086C62.3982 15.4008 63.3839 15.4008 63.9917 16.0086C64.5996 16.6165 64.5996 17.6021 63.9917 18.21L56.6065 25.5952C55.9986 26.2031 55.013 26.2031 54.4051 25.5952Z" fill="#DD5790"/>
<path d="M54.4051 16.0086C55.013 15.4008 55.9986 15.4008 56.6065 16.0086L63.9917 23.3939C64.5996 24.0017 64.5996 24.9874 63.9917 25.5952C63.3839 26.2031 62.3982 26.2031 61.7903 25.5952L54.4051 18.21C53.7973 17.6021 53.7973 16.6165 54.4051 16.0086Z" fill="#DD5790"/>
<path d="M41.4988 52.436L40.718 51.6552C40.1569 51.0941 39.2474 51.0941 38.6864 51.6552C38.1254 52.2162 38.1254 53.1257 38.6864 53.6867L40.5263 55.5266C41.0873 56.0876 41.9968 56.0876 42.5578 55.5266L43.1903 54.8941C43.783 54.3014 43.783 53.3404 43.1903 52.7477C42.7328 52.29 42.0564 52.1872 41.4988 52.436Z" fill="#FFDDCE"/>
<path d="M43.2318 54.8486C43.2189 54.865 43.2051 54.8789 43.1904 54.8936L42.5576 55.5264C41.9965 56.0874 41.0871 56.0874 40.526 55.5264L38.6864 53.6868C38.1254 53.1258 38.1254 52.2163 38.6864 51.6552C38.8126 51.5291 38.957 51.4314 39.11 51.3613C38.8714 51.8903 38.9691 52.5344 39.4039 52.9693L41.2436 54.8089C41.7907 55.3561 42.6691 55.3699 43.2318 54.8486Z" fill="#FFCBBE"/>
<path d="M41.3069 44.9125C39.0707 46.6881 38.6973 49.9403 40.473 52.1765L42.037 54.1463C43.8127 56.3826 47.0649 56.7559 49.3011 54.9803C51.5373 53.2046 51.9107 49.9524 50.135 47.7162L48.571 45.7464C46.7953 43.5102 43.5431 43.1368 41.3069 44.9125Z" fill="#FFDDCE"/>
<path d="M50.1958 54.0683C49.9415 54.399 49.6431 54.7057 49.3009 54.9774C47.0653 56.7525 43.8124 56.3791 42.0372 54.1435L40.4729 52.1734C38.697 49.9367 39.0712 46.6849 41.3068 44.9097C41.649 44.6379 42.0154 44.4169 42.3952 44.2441C40.9888 46.0816 40.9508 48.7051 42.4551 50.5995L44.0194 52.5695C45.5228 54.4629 48.0866 55.0206 50.1958 54.0683Z" fill="#FFCBBE"/>
</svg>
