<svg width="80" height="80" viewBox="0 0 80 80" fill="none" xmlns="http://www.w3.org/2000/svg">
<circle cx="40" cy="40" r="40" fill="#FDFCFC"/>
<path d="M58.5817 70.9998H21.7386C19.6739 70.9998 18 69.3259 18 67.2611V16.4808C18 14.4161 19.6739 12.7422 21.7386 12.7422H58.5817C60.6464 12.7422 62.3203 14.4161 62.3203 16.4808V67.2611C62.3203 69.3259 60.6464 70.9998 58.5817 70.9998Z" fill="#80DEEA"/>
<path d="M58.582 12.7422V70.9998C60.6447 70.9998 62.3169 69.3242 62.3169 67.2574V16.4847C62.3169 14.4178 60.6447 12.7422 58.582 12.7422V12.7422Z" fill="#4DD0E1"/>
<path d="M21.7383 66.885V16.8601C21.7383 16.6537 21.9056 16.4863 22.1121 16.4863H58.215C58.4214 16.4863 58.5888 16.6537 58.5888 16.8601V66.885C58.5888 67.0915 58.4214 67.2589 58.215 67.2589H22.1121C21.9056 67.259 21.7383 67.0915 21.7383 66.885Z" fill="#F3F3F3"/>
<path d="M52.4823 12.7424H27.8337C27.4208 12.7424 27.0859 12.4076 27.0859 11.9946V9.74775C27.0859 9.33482 27.4208 9 27.8337 9H52.4822C52.8951 9 53.2299 9.33482 53.2299 9.74775V11.9948C53.2299 12.4077 52.8952 12.7424 52.4823 12.7424V12.7424Z" fill="#546E7A"/>
<path d="M52.4849 9H48.75C49.1626 9 49.497 9.33507 49.497 9.74848V11.9939C49.497 12.4073 49.1626 12.7424 48.75 12.7424H52.4849C52.8975 12.7424 53.2319 12.4073 53.2319 11.9939V9.74848C53.2318 9.33507 52.8975 9 52.4849 9V9Z" fill="#455A64"/>
<path d="M49.7445 11.834C49.243 11.834 48.8363 12.2405 48.8363 12.7422V17.6402C48.8363 18.153 48.4206 18.5704 47.9099 18.5704H32.407C31.8961 18.5704 31.4805 18.1531 31.4805 17.6402V12.7422C31.4805 12.2405 31.0738 11.834 30.5723 11.834C30.0707 11.834 29.6641 12.2405 29.6641 12.7422V17.6402C29.6641 19.1547 30.8945 20.3868 32.407 20.3868H47.9097C49.4222 20.3868 50.6526 19.1547 50.6526 17.6402V12.7422C50.6528 12.2406 50.2461 11.834 49.7445 11.834V11.834Z" fill="#BDBDBD"/>
<path d="M46.452 27.813C44.7147 26.0649 41.898 26.0649 40.1607 27.813C38.4234 26.0649 35.6067 26.0649 33.8694 27.813C32.1321 29.5611 32.1321 32.3953 33.8694 34.1435C33.8694 34.1435 39.904 40.4739 40.1607 40.4739C40.4173 40.4739 46.452 34.1435 46.452 34.1435C48.1892 32.3953 48.1892 29.561 46.452 27.813Z" fill="#F74F68"/>
<path d="M48.5609 51.4436H31.756C30.7236 51.4436 29.8867 50.6067 29.8867 49.5743V49.5705C29.8867 48.5381 30.7236 47.7012 31.756 47.7012H48.5611C49.5935 47.7012 50.4304 48.5381 50.4304 49.5705V49.5743C50.4303 50.6066 49.5934 51.4436 48.5609 51.4436Z" fill="#FFD54F"/>
<path d="M48.5609 59.5256H31.756C30.7236 59.5256 29.8867 58.6887 29.8867 57.6563V57.6525C29.8867 56.6201 30.7236 55.7832 31.756 55.7832H48.5611C49.5935 55.7832 50.4304 56.6201 50.4304 57.6525V57.6563C50.4303 58.6887 49.5934 59.5256 48.5609 59.5256Z" fill="#FFD54F"/>
</svg>
